<svg width="200" height="200" viewBox="0 0 200 200" fill="none" xmlns="http://www.w3.org/2000/svg">
<path d="M178.819 149.141L178.819 149.141L178.815 149.154C177.396 155.051 174.403 160.452 170.155 164.781C169.71 165.231 169.208 165.621 168.66 165.939L168.65 165.945L168.64 165.951C168.085 166.31 167.43 166.483 166.77 166.444C166.111 166.405 165.482 166.158 164.973 165.738C164.475 165.311 164.131 164.733 163.991 164.092C163.852 163.449 163.927 162.778 164.205 162.182L164.211 162.169L164.217 162.154C165.794 158.147 167.135 154.052 168.235 149.889L168.235 149.889L168.237 149.881C168.481 148.895 168.656 147.893 168.759 146.882L168.759 146.882L168.759 146.877C168.809 146.337 168.843 145.884 168.824 145.52C168.804 145.155 168.728 144.797 168.486 144.51C168.243 144.224 167.902 144.09 167.546 144.011C167.19 143.933 166.738 143.892 166.198 143.853L166.198 143.852L166.187 143.852C161.804 143.63 157.41 143.89 153.084 144.627C152.483 144.713 151.875 144.817 151.278 144.92C151.103 144.949 150.93 144.979 150.758 145.008L150.728 145.013L150.699 145.022C150.008 145.228 149.267 145.182 148.607 144.893C147.947 144.603 147.412 144.089 147.096 143.441C146.78 142.793 146.705 142.054 146.884 141.356C147.062 140.658 147.483 140.046 148.071 139.629L148.09 139.615L148.108 139.6C149.933 138.029 152.028 136.803 154.292 135.981L154.292 135.981L154.296 135.98C161.107 133.443 168.506 132.925 175.604 134.489L175.616 134.492L175.628 134.494C176.711 134.677 177.713 135.185 178.501 135.95C179.278 136.704 179.811 137.673 180.032 138.732V144.224C179.64 145.031 179.443 145.874 179.294 146.686C179.247 146.939 179.205 147.185 179.164 147.428C179.065 148.018 178.97 148.581 178.819 149.141Z" fill="#9E22E9" stroke="#9E22E9"/>
<path d="M101.003 19.7602C100.733 19.7602 100.493 19.7602 100.363 19.4902H101.003C101.093 19.5402 101.133 19.6002 101.103 19.6602C101.073 19.7202 101.003 19.7602 101.003 19.7602Z" fill="#6F757B"/>
<path d="M101.002 19.7602C100.997 19.6703 100.997 19.5802 101.002 19.4902H101.632C101.482 19.8002 101.232 19.7902 101.002 19.7602Z" fill="#84898F"/>
<path d="M103.916 179.434C100.639 179.797 97.3461 179.989 94.0495 180.011C79.5664 180.01 66.1482 176.038 53.4795 169.191C41.8093 162.858 31.5628 154.598 21.5694 145.894L21.5689 145.893C20.6859 145.126 20.2073 144.293 20.0673 143.491C19.9284 142.695 20.1143 141.88 20.65 141.118C21.1789 140.367 21.903 139.923 22.7419 139.792C23.5886 139.66 24.589 139.841 25.6551 140.412L25.656 140.412C28.0771 141.701 30.4923 143.018 32.9098 144.335C36.605 146.35 40.3056 148.367 44.0416 150.295C54.3655 155.627 65.1074 160.067 76.4929 162.589L76.4929 162.589L76.4981 162.59C87.0735 164.813 97.9479 165.238 108.664 163.847C124.409 161.86 139.78 157.589 154.293 151.168L154.305 151.163L154.316 151.157C155.188 150.719 156.14 150.461 157.114 150.4C158.011 150.374 158.896 150.616 159.654 151.096C160.411 151.575 161.008 152.269 161.368 153.089C161.665 153.878 161.707 154.74 161.488 155.554C161.268 156.372 160.794 157.099 160.136 157.632L160.13 157.637L160.124 157.642C157.972 159.5 155.654 161.156 153.199 162.589L153.199 162.589L153.189 162.595C138.227 171.813 121.392 177.566 103.918 179.434L103.916 179.434Z" fill="#9E22E9" stroke="#9E22E9"/>
<path d="M145.182 115.789C144.592 114.919 143.922 114.109 143.262 113.299C139.278 108.498 137.187 102.406 137.382 96.1695C137.512 83.2795 137.382 70.3895 137.432 57.4895C137.484 53.8125 137.274 50.1365 136.802 46.4895C135.802 39.4395 132.982 33.3595 127.372 28.7795C122.102 24.4795 115.942 22.1095 109.372 20.7195C107.102 20.2395 104.822 19.8695 102.542 19.4595H101.602C101.422 19.6495 101.192 19.6095 100.972 19.6195C100.752 19.6295 100.512 19.6195 100.342 19.4595H90.2625C90.1325 19.8695 89.7625 19.7495 89.4825 19.7795C85.4049 20.2167 81.3835 21.0746 77.4825 22.3395C63.7625 26.9995 54.7225 35.9995 51.8325 50.5495C51.3125 53.1395 52.3325 54.6795 55.0025 55.0395C60.9225 55.8195 66.8525 56.5395 72.7725 57.2695C75.8825 57.6595 77.2625 56.8495 77.9825 53.7595C80.2225 44.1695 89.1525 40.6895 96.0525 41.1995C102.312 41.6695 106.722 45.2995 108.052 51.3095C108.952 55.3095 108.532 59.4595 108.602 63.5395C108.602 64.5395 107.822 64.3595 107.252 64.3995C101.762 64.7595 96.2525 65.2695 90.8425 66.0295C83.1925 67.0995 75.7125 68.7195 68.6825 72.0295C62.6225 74.8895 57.4825 78.8195 53.8725 84.5095C48.0025 93.7195 47.0025 103.739 49.2825 114.149C51.0525 122.339 55.4625 128.829 63.0325 132.679C74.0325 138.229 85.2625 137.359 96.4225 133.439C102.422 131.319 107.172 127.019 111.552 122.439C112.372 121.589 112.722 121.669 113.352 122.609C116.09 126.899 119.423 130.778 123.252 134.129C125.382 135.899 127.662 135.999 129.752 134.199C134.686 129.959 139.602 125.709 144.502 121.449C146.462 119.759 146.672 117.999 145.182 115.789ZM108.602 87.9995C108.602 92.3495 108.602 96.7195 107.222 100.889C105.352 106.399 102.662 111.359 97.2825 114.289C88.6725 118.969 79.8725 114.609 78.3525 104.919C77.812 101.707 77.9724 98.4147 78.8225 95.2695C81.0725 87.2695 87.0725 83.5295 94.6425 81.7695C98.8647 80.9662 103.155 80.571 107.452 80.5895C108.342 80.5895 108.642 80.7995 108.622 81.7095C108.562 83.8195 108.602 85.9195 108.602 87.9995Z" fill="#9E22E9"/>
</svg>
