<svg width="200" height="200" viewBox="0 0 200 200" fill="none" xmlns="http://www.w3.org/2000/svg">
<path d="M115.119 73.5806C115.119 77.0306 115.119 80.4806 115.119 83.9306C115.119 85.4406 114.699 85.5906 113.409 84.9306C108.899 82.7606 104.409 80.6206 99.7991 78.5706C99.3434 78.404 98.9612 78.082 98.7197 77.6613C98.4783 77.2405 98.393 76.748 98.4791 76.2706C98.6391 69.6039 98.7624 62.9373 98.8491 56.2706C98.8491 55.0306 99.0991 54.6406 100.359 55.1906C104.799 57.1306 109.249 59.0406 113.739 60.8806C114.207 61.0245 114.606 61.335 114.86 61.7534C115.115 62.1718 115.207 62.6689 115.119 63.1506C115.089 66.6706 115.119 70.1206 115.119 73.5806Z" fill="#9E22E9"/>
<path d="M44.5199 151.661C39.1099 149.121 34.0699 146.731 28.9899 144.421C27.9899 143.971 27.9899 143.291 27.9899 142.421C28.0899 135.831 28.2199 129.231 28.2199 122.641C28.2199 120.811 28.7999 120.781 30.2199 121.411C34.5199 123.297 38.8532 125.127 43.2199 126.901C43.6422 127.023 44.0075 127.291 44.251 127.657C44.4944 128.023 44.6003 128.464 44.5499 128.901C44.5099 136.351 44.5199 143.761 44.5199 151.661Z" fill="#9E22E9"/>
<path d="M62.3486 117.62C56.9186 115.07 51.8086 112.62 46.6786 110.27C45.7986 109.86 45.8386 109.16 45.8486 108.41C45.9386 101.74 46.0386 95.0605 46.0786 88.4105C46.0786 87.0505 46.3586 86.6304 47.7686 87.2604C52.1386 89.1704 56.5486 91.0004 60.9986 92.8404C61.7786 93.1704 62.4286 93.4804 62.4186 94.5604C62.3386 102.11 62.3486 109.67 62.3486 117.62Z" fill="#9E22E9"/>
<path d="M25.8306 118.46C20.3506 115.89 15.3006 113.46 10.2406 111.17C9.37058 110.76 9.33058 110.17 9.34058 109.35C9.43058 102.6 9.53058 95.8501 9.58058 89.1001C9.58058 87.8201 9.95058 87.4901 11.1806 88.0301C15.6206 89.9701 20.0839 91.8735 24.5706 93.7401C24.9639 93.8467 25.307 94.0888 25.5393 94.4235C25.7716 94.7583 25.8783 95.1644 25.8406 95.5701C25.8106 103.05 25.8306 110.53 25.8306 118.46Z" fill="#9E22E9"/>
<path d="M117.91 72.0001C117.91 68.7901 117.91 65.5801 117.91 62.3801C117.838 61.9008 117.942 61.4115 118.203 61.0032C118.464 60.5948 118.865 60.2952 119.33 60.1601C123.39 58.5801 127.43 56.9701 131.43 55.2601C132.91 54.6301 133.04 55.2001 133.03 56.4701C132.99 62.7968 132.99 69.1301 133.03 75.4701C133.102 75.952 132.995 76.4435 132.73 76.8523C132.465 77.2611 132.06 77.559 131.59 77.6901C127.59 79.3401 123.59 81.0701 119.59 82.8801C118.02 83.6001 117.84 83.0201 117.87 81.6201C118 78.4001 117.91 75.1901 117.91 72.0001Z" fill="#9E22E9"/>
<path d="M28.7377 116.289C28.7377 108.809 28.7377 101.729 28.7377 94.6594C28.6864 94.3382 28.7494 94.0091 28.9157 93.7296C29.082 93.45 29.341 93.2376 29.6477 93.1294C34.2177 91.2994 38.7777 89.4394 43.6477 87.4494V103.999C43.6477 109.869 43.6477 109.859 38.1877 112.179C35.1977 113.489 32.1977 114.799 28.7377 116.289Z" fill="#9E22E9"/>
<path d="M65.2698 103.789C65.2698 100.659 65.2698 97.5393 65.2698 94.4093C65.1757 93.8985 65.2724 93.3709 65.5415 92.9266C65.8107 92.4824 66.2335 92.1524 66.7299 91.9993C70.7299 90.4793 74.6699 88.8593 78.6099 87.2093C79.7499 86.7393 80.2399 86.8193 80.2299 88.2093C80.1765 94.7093 80.1765 101.206 80.2299 107.699C80.2702 108.101 80.1695 108.504 79.9451 108.84C79.7207 109.176 79.3865 109.423 78.9999 109.539C74.9099 111.269 70.8299 113.009 66.7799 114.809C65.3899 115.429 65.2799 114.809 65.2899 113.659C65.2799 110.369 65.2698 107.079 65.2698 103.789Z" fill="#9E22E9"/>
<path d="M62.3806 120.64C62.3806 128.02 62.3806 135.08 62.3806 142.14C62.3806 142.97 61.8706 143.25 61.2406 143.53C56.7806 145.43 52.3406 147.35 47.8606 149.28C47.2206 148.63 47.4506 147.95 47.4506 147.35C47.4506 141.25 47.5106 135.15 47.3906 129.05C47.3906 127.17 47.9706 126.33 49.7306 125.69C53.9006 124.19 58.0006 122.42 62.3806 120.64Z" fill="#9E22E9"/>
<path d="M64.4087 55.061C69.2087 57.191 73.6987 59.191 78.1887 61.161C78.4937 61.282 78.7483 61.5037 78.9101 61.7892C79.072 62.0748 79.1314 62.407 79.0787 62.731C78.9187 68.911 78.7587 75.081 78.6587 81.261C78.6587 82.491 78.1187 82.611 77.1187 82.261C73.2787 81.051 69.4287 79.841 65.5787 78.671C65.2145 78.6141 64.8871 78.4169 64.6665 78.1216C64.446 77.8262 64.3498 77.4563 64.3987 77.091C64.4187 69.901 64.4087 62.681 64.4087 55.061Z" fill="#9E22E9"/>
<path d="M82.6776 73.5696C82.6776 70.4496 82.7576 67.3196 82.6776 64.1996C82.595 63.6397 82.7217 63.069 83.0335 62.5967C83.3453 62.1244 83.8203 61.7836 84.3676 61.6396C87.6176 60.2696 90.8276 58.7796 94.0076 57.2596C95.4576 56.5696 96.1576 56.4496 96.1176 58.4996C96.0176 64.7396 96.1176 70.9896 96.1176 77.2396C96.1176 78.2396 96.0576 78.9296 95.0076 79.4196C91.4276 81.0696 87.8676 82.7796 84.3576 84.5596C82.9176 85.2796 82.7076 84.7596 82.7276 83.4296C82.7176 80.1496 82.6776 76.8596 82.6776 73.5696Z" fill="#9E22E9"/>
<path d="M106.999 101.549C110.379 98.8493 111.629 98.7792 115.089 101.389C115.909 102.009 116.089 101.389 116.399 101.069C117.189 100.27 118.212 99.7426 119.321 99.5629C120.43 99.3832 121.568 99.5605 122.569 100.069C124.809 101.069 125.249 103.069 125.279 105.199C125.279 108.199 125.179 111.139 125.279 114.099C125.379 116.099 124.169 115.619 123.059 115.719C121.749 115.839 121.129 115.519 121.209 114.009C121.329 111.459 121.209 108.899 121.209 106.349C121.209 104.679 120.979 103.039 118.819 103.019C116.659 102.999 116.169 104.639 116.139 106.419C116.139 108.969 116.009 111.539 116.139 114.079C116.249 115.999 115.049 115.629 113.919 115.719C112.599 115.829 111.999 115.499 112.069 114.009C112.189 111.459 112.129 108.899 112.069 106.339C112.069 104.709 111.899 102.989 109.689 103.049C107.479 103.109 106.949 104.619 106.909 106.449C106.909 108.839 106.829 111.229 106.909 113.619C106.969 115.119 106.689 115.769 104.909 115.779C103.129 115.789 102.739 115.169 102.789 113.509C102.909 109.719 102.789 105.929 102.859 102.129C102.859 101.339 102.129 99.9592 103.859 99.8892C105.299 99.8092 106.879 99.3393 106.999 101.549Z" fill="#9E22E9"/>
<path d="M177.001 107.67C177.001 105.61 177.001 103.55 177.001 101.49C177.001 100.84 176.681 99.7598 177.881 99.8998C178.811 99.9998 180.291 99.0398 180.601 100.57C180.911 102.1 181.371 101.3 181.891 100.85C182.733 100.107 183.783 99.6401 184.898 99.5114C186.014 99.3827 187.142 99.5985 188.131 100.13C190.131 101.04 190.521 102.98 190.571 104.92C190.651 108.05 190.521 111.18 190.641 114.31C190.701 115.96 189.701 115.71 188.731 115.68C187.761 115.65 186.521 116.07 186.601 114.24C186.701 111.61 186.661 108.97 186.601 106.33C186.601 104.68 186.271 103.08 184.141 103C182.011 102.92 181.081 104.32 181.021 106.3C180.951 108.6 180.931 110.91 181.021 113.22C181.021 114.74 181.101 115.79 178.921 115.78C176.741 115.77 176.921 114.78 176.991 113.36C177.051 111.46 177.001 109.57 177.001 107.67Z" fill="#9E22E9"/>
<path d="M151.326 103.221C149.266 103.221 147.566 103.151 145.886 103.221C144.596 103.301 144.396 102.721 144.426 101.621C144.456 100.521 144.426 99.7309 145.956 99.7909C148.586 99.9009 151.226 99.7909 153.866 99.8509C154.866 99.8509 156.256 99.1409 156.676 100.481C156.901 101.144 156.94 101.855 156.79 102.539C156.641 103.223 156.307 103.853 155.826 104.361C153.656 106.791 151.666 109.361 149.256 112.361C151.596 112.361 153.446 112.361 155.306 112.361C156.586 112.361 157.426 112.361 157.406 114.131C157.386 115.901 156.536 115.721 155.406 115.711C152.406 115.711 149.476 115.711 146.516 115.711C145.656 115.711 144.356 116.221 144.036 115.311C143.778 114.701 143.692 114.031 143.787 113.376C143.883 112.72 144.155 112.103 144.576 111.591C146.396 109.471 148.156 107.291 149.926 105.131C150.326 104.591 150.686 104.081 151.326 103.221Z" fill="#9E22E9"/>
<path d="M127.197 53.3807L116.197 57.6907C115.918 57.8574 115.603 57.9568 115.279 57.9811C114.954 58.0054 114.628 57.9539 114.327 57.8307C111.237 56.3807 108.107 54.9907 104.537 53.3807L115.207 48.4907C115.428 48.3799 115.671 48.3222 115.917 48.3222C116.164 48.3222 116.407 48.3799 116.627 48.4907L127.197 53.3807Z" fill="#9E22E9"/>
<path d="M33.9999 119.321C37.7699 117.611 41.0599 116.121 44.3299 114.611C44.6094 114.446 44.9247 114.352 45.2488 114.336C45.5728 114.32 45.8958 114.384 46.1899 114.521C49.5299 116.091 52.8899 117.621 56.6099 119.331C52.6099 120.921 48.9199 122.331 45.2699 123.821C45.0036 123.923 44.7186 123.966 44.4341 123.949C44.1495 123.932 43.8719 123.854 43.6199 123.721C40.6099 122.311 37.5499 120.921 33.9999 119.321Z" fill="#9E22E9"/>
<path d="M68.8838 53.3699L79.6038 48.4899C79.823 48.3814 80.0643 48.325 80.3088 48.325C80.5534 48.325 80.7946 48.3814 81.0138 48.4899C84.3438 50.0299 87.6838 51.5499 91.5638 53.3299C87.3638 54.9999 83.6838 56.4399 80.0038 57.9099C79.2538 58.2099 78.7138 57.8299 78.1438 57.5799C75.2438 56.2899 72.3438 54.9999 68.8838 53.3699Z" fill="#9E22E9"/>
<path d="M74.5105 85.2696L63.0605 89.7796C62.8346 89.883 62.589 89.9365 62.3405 89.9365C62.092 89.9365 61.8465 89.883 61.6205 89.7796L51.9105 85.3296C55.6105 83.6296 58.9105 82.1096 62.2505 80.5496C62.5847 80.4003 62.9497 80.3333 63.3151 80.3542C63.6805 80.3751 64.0356 80.4832 64.3505 80.6696C67.5505 82.0996 70.7705 83.5596 74.5105 85.2696Z" fill="#9E22E9"/>
<path d="M38.0034 86.1398C33.9034 87.7498 30.3934 89.1398 26.8934 90.4997C26.6042 90.6426 26.286 90.7169 25.9634 90.7169C25.6408 90.7169 25.3226 90.6426 25.0334 90.4997C22.0334 89.0798 18.9334 87.7198 15.3634 86.0998C19.3034 84.2998 22.8134 82.6798 26.3634 81.0998C26.756 81.0243 27.1626 81.0879 27.5134 81.2798C30.8634 82.8598 34.1934 84.3898 38.0034 86.1398Z" fill="#9E22E9"/>
<path d="M124.497 141C123.9 141.839 123.111 142.523 122.196 142.994C121.281 143.466 120.266 143.711 119.237 143.71C115.987 143.79 113.947 141.94 113.807 138.62C113.667 135.3 113.737 132.04 113.737 128.75C113.737 128.12 113.567 127.41 114.627 127.39C115.687 127.37 115.727 128.06 115.717 128.85C115.717 131.73 115.717 134.61 115.717 137.49C115.717 140.37 116.657 141.62 118.897 141.98C121.467 142.39 123.327 141.25 124.217 138.68C125.107 136.11 124.427 133.28 124.747 130.6C124.877 129.53 123.747 127.51 125.747 127.52C127.747 127.53 126.617 129.52 126.667 130.62C126.837 134.07 126.777 137.53 126.667 140.99C126.667 141.73 127.317 142.99 125.977 143.19C124.217 143.48 125.067 141.82 124.497 141Z" fill="#9E22E9"/>
<path d="M132.128 130.679C133.478 128.539 134.888 127.499 136.738 127.149C137.248 127.049 137.958 126.729 138.038 127.679C138.038 128.279 138.248 128.789 137.248 129.089C133.098 130.359 132.248 131.679 132.248 136.02V142C132.248 142.68 132.248 143.31 131.248 143.28C130.248 143.25 130.248 142.65 130.248 141.95C130.248 137.67 130.248 133.389 130.248 129.109C130.248 128.339 129.968 127.359 131.338 127.419C132.708 127.479 132.018 128.419 132.148 129.059C132.18 129.599 132.174 130.141 132.128 130.679V130.679Z" fill="#9E22E9"/>
<path d="M158.429 130.57C158.9 129.678 159.567 128.903 160.379 128.304C161.191 127.705 162.127 127.297 163.119 127.11C163.729 126.99 164.309 126.96 164.289 127.83C164.289 128.35 164.419 128.83 163.569 129.08C159.059 130.65 158.449 131.62 158.449 136.42C158.449 138.15 158.449 139.88 158.449 141.61C158.449 142.25 158.809 143.19 157.559 143.22C156.309 143.25 156.469 142.27 156.469 141.5C156.469 137.38 156.469 133.27 156.469 129.15C156.469 128.43 156.039 127.37 157.469 127.37C158.899 127.37 158.199 128.51 158.379 129.17C158.434 129.634 158.45 130.103 158.429 130.57V130.57Z" fill="#9E22E9"/>
<path d="M94.338 94.8293C93.768 93.1793 92.428 93.9493 91.398 93.8293C90.368 93.7093 89.498 93.4693 89.028 94.8293C86.838 101.299 84.528 107.729 82.288 114.179C82.118 114.649 81.678 115.179 82.558 115.589C84.158 116.249 86.558 115.409 86.828 113.799C87.258 111.189 88.658 110.409 91.098 110.799C91.9976 110.914 92.9083 110.914 93.808 110.799C95.038 110.669 95.538 111.279 95.908 112.359C97.098 115.809 97.138 115.799 101.428 115.429C98.998 108.509 96.668 101.669 94.338 94.8293ZM92.828 107.299C92.2555 107.254 91.6804 107.254 91.108 107.299C89.508 107.469 88.838 107.089 89.588 105.299C90.338 103.509 90.828 101.659 91.648 99.1693C92.538 101.919 93.188 103.979 93.878 106.019C94.238 107.109 93.758 107.339 92.828 107.299Z" fill="#9E22E9"/>
<path d="M141.707 113.32C141.707 111.85 141.707 110.37 141.707 108.89C141.707 107.66 141.707 106.42 141.707 105.19C141.707 101.84 140.787 100.48 138.177 99.81C134.307 98.81 130.457 99.94 129.097 102.44C128.097 104.31 128.397 104.81 130.567 104.81C131.567 104.81 132.347 104.81 132.897 103.58C133.537 102.16 135.077 102.36 136.387 102.65C136.592 102.688 136.786 102.767 136.96 102.881C137.134 102.994 137.284 103.142 137.401 103.313C137.518 103.485 137.6 103.679 137.642 103.882C137.685 104.086 137.686 104.296 137.647 104.5C137.527 106.08 136.237 106.07 135.127 106.28C133.837 106.52 132.527 106.68 131.257 107.02C128.917 107.63 127.947 109.27 128.047 111.62C128.207 115.37 132.047 117.24 136.047 115.49C136.897 115.12 137.547 114.08 138.617 115.49C139.017 116.01 140.747 115.89 141.667 115.49C142.587 115.09 141.687 114.09 141.707 113.32ZM134.107 113.12C132.997 113.05 132.177 112.66 132.037 111.47C131.946 110.98 132.041 110.474 132.304 110.05C132.566 109.626 132.978 109.316 133.457 109.18C134.767 108.8 136.117 108.57 137.457 108.27C137.887 111.79 136.807 113.32 134.107 113.12V113.12Z" fill="#9E22E9"/>
<path d="M166.84 99.5199C162.28 99.4299 159.27 102.63 159.2 107.65C159.13 112.67 162.03 116.01 166.54 116.08C171.05 116.15 174.18 112.88 174.22 107.95C174.26 103.02 171.35 99.6099 166.84 99.5199ZM168.71 112.07C168.396 112.342 168.032 112.548 167.638 112.677C167.243 112.806 166.827 112.855 166.414 112.822C166.001 112.788 165.598 112.673 165.23 112.482C164.862 112.291 164.535 112.028 164.27 111.71C162.74 110.07 162.78 105.39 164.27 103.84C164.537 103.52 164.866 103.259 165.238 103.071C165.61 102.883 166.016 102.774 166.431 102.748C166.847 102.723 167.264 102.783 167.655 102.924C168.047 103.065 168.406 103.285 168.71 103.57C170.05 104.63 170.17 106.24 170.18 107.84C170.19 109.44 170.1 111.06 168.71 112.07Z" fill="#9E22E9"/>
<path d="M111.537 141.549C109.057 135.219 106.537 128.889 104.097 122.549C103.807 121.799 103.537 121.219 102.587 121.269C101.827 121.269 101.247 121.329 100.877 122.269C98.1266 129.189 95.3066 136.069 92.4866 143.019C93.8166 143.379 94.8966 143.449 95.1166 141.949C95.8766 136.739 99.1966 135.599 103.797 136.369C104.459 136.472 105.134 136.472 105.797 136.369C106.997 136.199 107.557 136.729 107.907 137.839C108.377 139.319 109.057 140.729 109.567 142.199C109.604 142.405 109.688 142.599 109.812 142.767C109.936 142.935 110.096 143.073 110.282 143.17C110.467 143.266 110.672 143.319 110.881 143.324C111.09 143.329 111.297 143.287 111.487 143.199C112.377 142.809 111.757 142.089 111.537 141.549ZM105.047 134.609C102.847 134.609 100.637 134.609 97.9866 134.609L102.307 123.429C103.737 127.159 105.027 130.429 106.217 133.699C106.637 134.879 105.597 134.599 105.047 134.609V134.609Z" fill="#9E22E9"/>
<path d="M179.687 141.641C177.687 141.301 178.277 139.731 178.247 138.531C178.187 136.311 178.247 134.091 178.247 131.871C178.157 128.871 176.747 127.321 173.817 126.961C169.887 126.471 167.057 127.771 166.277 130.481C166.127 131.011 165.467 131.771 166.537 132.111C167.257 132.341 167.647 132.031 168.027 131.291C169.387 128.601 171.617 127.781 174.287 128.751C174.967 128.953 175.548 129.401 175.917 130.007C176.286 130.612 176.418 131.333 176.287 132.031C176.177 133.571 175.037 133.771 173.837 133.891C171.848 133.988 169.883 134.362 167.997 135.001C167.126 135.291 166.382 135.871 165.889 136.645C165.395 137.419 165.183 138.339 165.287 139.251C165.261 140.164 165.543 141.06 166.087 141.794C166.631 142.528 167.406 143.059 168.287 143.301C169.737 143.843 171.328 143.878 172.799 143.398C174.271 142.919 175.536 141.953 176.387 140.661C176.577 142.661 177.517 143.371 179.137 143.211C179.344 143.217 179.547 143.146 179.704 143.011C179.861 142.875 179.962 142.686 179.987 142.481C180.047 142.151 180.117 141.711 179.687 141.641ZM170.997 142.001C169.217 142.001 167.717 141.331 167.367 139.401C167.017 137.471 168.367 136.401 170.097 136.001C172.097 135.541 174.097 135.281 176.097 134.931C177.177 139.811 174.127 142.001 170.997 142.001Z" fill="#9E22E9"/>
<path d="M146.35 126.88C141.74 126.78 138.61 130.09 138.56 135.13C138.51 140.17 141.67 143.71 146.11 143.7C150.55 143.69 153.57 140.29 153.66 135.38C153.75 130.47 150.72 127 146.35 126.88ZM150.14 140.11C149.425 140.96 148.465 141.568 147.392 141.853C146.318 142.137 145.183 142.084 144.14 141.7C141.99 140.87 140.55 138.26 140.55 135.22C140.55 131.92 142.16 129.37 144.68 128.64C145.755 128.335 146.899 128.385 147.942 128.783C148.986 129.182 149.873 129.906 150.47 130.85C151.311 132.262 151.727 133.886 151.669 135.528C151.61 137.17 151.079 138.761 150.14 140.11Z" fill="#9E22E9"/>
</svg>
