<svg width="200" height="200" viewBox="0 0 200 200" fill="none" xmlns="http://www.w3.org/2000/svg">
<path d="M97.7701 16.1368L99.5745 16.4768V21.2361C100.777 21.9161 100.537 22.596 98.8527 23.2759L41.8347 142.26L43.6391 143.279L44.3608 142.6H63.1262L64.2089 141.58L75.396 115.403H99.5745V182.714L92.7179 179.994L29.565 146.339L26.678 120.503L25.9563 119.823V114.383L25.2345 113.703V108.264L23.791 102.145V96.7058L23.0693 96.0259V90.5867L21.6258 84.4675L20.904 72.9091L19.4605 66.7899L18.7388 55.2315L17.2953 49.1123V43.3331L97.7701 16.1368Z" fill="#9E22E9" stroke="#9E22E9"/>
<path d="M99.2137 62.3705L99.5746 99.0855H83.3352L82.9744 98.0657L99.2137 62.3705Z" fill="#9E22E9" stroke="#9E22E9"/>
<path d="M99.5745 16.1368L182.215 41.9733L184.741 43.6731L183.297 50.4721V55.2315L182.575 55.9114V60.6707L181.854 61.3507V66.11L181.132 66.7899V71.5493L180.41 72.2292V76.9885L179.688 77.6684V82.4278L178.967 83.1077V87.867L178.245 88.5469V93.3063L177.523 93.9862V98.7455L176.801 99.4254V104.185L176.08 104.865V109.624L175.358 110.304V115.063L174.636 115.743V120.503L173.914 121.182V125.942L173.193 126.622V131.381L172.471 132.061V136.82L171.749 137.5V142.26L171.027 145.659L169.223 147.359L99.9353 183.394L99.5745 115.403H126.64L127.723 116.423L139.271 142.6L141.797 143.279H159.84L159.479 142.26L102.461 28.0352L99.5745 21.2361V16.1368Z" fill="#8020BA" stroke="#8020BA"/>
<path d="M99.9353 61.6906L119.062 99.0855H99.5745L99.9353 61.6906Z" fill="#781FAD" stroke="#781FAD"/>
<path opacity="0.969" d="M97.7702 5.93826H102.101L104.266 7.29808L194.123 35.8542L179.688 152.118L99.9354 193.593L20.9041 152.798L19.4606 138.86L18.7388 138.18L18.0171 127.302L17.2953 126.622V121.862L16.5736 121.182L15.8518 110.304L15.1301 109.624V104.865L14.4083 104.185V99.4255L13.6866 98.7456L12.2431 82.4278L11.5213 81.7479V76.9885L10.7996 76.3086L9.35611 59.9909L8.63436 59.311V53.8717L6.46912 42.3133V36.5341L97.7702 5.93826ZM98.131 16.1369L17.2953 43.3331V49.4523L18.7388 55.5715L19.4606 67.1299L20.9041 73.249L21.6258 84.8075L23.0693 90.9266V96.3659L23.7911 97.0458V102.485L25.2345 108.604V114.043L25.9563 114.723V120.163L26.678 120.843L29.565 146.679L100.296 183.394L169.584 147.359L171.028 145.999L171.749 142.6V137.84L172.471 137.16V132.401L173.193 131.721V126.962L173.914 126.282V121.522L174.636 120.843V116.083L175.358 115.403V110.644L176.08 109.964V105.205L176.801 104.525V99.7654L177.523 99.0855V94.3262L178.245 93.6463V88.8869L178.967 88.207V83.4477L179.688 82.7677V78.0084L180.41 77.3285V72.5691L181.132 71.8892V67.1299L181.854 66.45V61.6906L182.575 61.0107V56.2514L183.297 55.5715V50.8121L184.741 44.013L182.575 41.9733L129.888 25.6556L127.723 24.2957L101.74 16.1369H98.131Z" stroke="#9E22E9" stroke-width="2"/>
<path d="M20.0741 153.247L6 36.9012L100.765 5L194.593 36.9012L179.58 153.247L100.765 195L20.0741 153.247Z" stroke="#9E22E9" stroke-width="4"/>
<path d="M183.802 43.4691L99.8271 16.2592V22.8271L158.938 142.457H137.358L125.63 117.593H99.8271V182.802L170.667 146.21L183.802 43.4691Z" stroke="#8020BA" stroke-width="5"/>
<path d="M16.321 41.1235L97.4816 14.8519V24.7037L43.0619 142.457H64.173L75.9014 116.185H97.4816V184.21L28.9878 148.556L16.321 41.1235Z" stroke="#9E22E9" stroke-width="3"/>
</svg>
