<svg width="200" height="200" viewBox="0 0 200 200" fill="none" xmlns="http://www.w3.org/2000/svg">
<path d="M31.6913 71.1905C36.9313 54.9438 42.168 38.6938 47.4013 22.4405C47.7213 21.4405 48.0313 20.6405 49.4513 20.6505C66.3613 20.7605 83.2713 20.8005 100.181 20.8705C100.359 21.1935 100.416 21.5694 100.341 21.9305C95.7113 36.9305 90.5414 51.6705 85.9014 66.6305C84.7414 70.3705 84.0413 70.8205 80.0713 70.8505C64.6113 70.9505 49.1613 70.7205 33.7113 70.9705C33.0885 71.2914 32.3687 71.3698 31.6913 71.1905V71.1905Z" fill="#9E22E9"/>
<path d="M139.47 150.911C126.723 160.197 113.973 169.494 101.22 178.801C100.859 179.154 100.375 179.351 99.87 179.351C99.3653 179.351 98.8807 179.154 98.52 178.801C85.78 169.467 73.0267 160.174 60.26 150.921C59.47 149.701 60.4 148.991 61.16 148.441C62.1055 147.692 62.7483 146.626 62.97 145.441C65.07 142.441 68.35 140.921 71.16 138.851C79.68 132.581 88.3 126.451 96.84 120.211C99.25 118.461 100.99 118.681 103.2 120.341C114.66 128.911 126.38 137.131 137.94 145.571C138.762 146.02 139.417 146.721 139.81 147.571C139.83 148.701 140.18 149.861 139.47 150.911Z" fill="#9E22E9"/>
<path d="M100.173 21.3192C100.173 21.1692 100.173 21.0192 100.173 20.8692C110.639 20.7959 121.116 20.7325 131.603 20.6792C137.603 20.6792 143.603 20.6792 149.663 20.6792C151.053 20.6792 151.903 20.9392 152.383 22.4492C157.193 37.4492 162.073 52.3992 166.923 67.3792C166.953 67.5847 166.953 67.7937 166.923 67.9992C167.443 68.9992 166.923 69.5792 166.043 69.9292C165.254 70.189 164.421 70.2909 163.593 70.2292C148.433 70.2292 133.283 70.2292 118.133 70.2292C117.616 70.2331 117.1 70.1862 116.593 70.0892C114.813 69.6192 114.343 68.0892 113.873 66.6092C109.603 52.9692 104.933 39.4592 100.643 25.8292C100.233 24.3492 99.4225 22.9192 100.173 21.3192Z" fill="#9E22E9"/>
<path d="M115.92 69.3312C131.85 69.3312 147.78 69.3312 163.7 69.3312C164.89 69.3312 166.55 70.0712 166.97 68.0012C173.97 87.3612 172.43 106.211 163.26 124.461C157.822 135.244 149.611 144.384 139.47 150.941C139.26 149.941 138.68 148.941 139.47 147.941C140.66 146.481 139.56 145.141 139.13 143.871C134.68 130.781 130.71 117.541 126.24 104.461C124.73 100.051 124.8 99.9612 128.54 97.2612C140.54 88.6312 152.41 79.9412 164.49 71.2612C163.42 70.5512 162.37 70.8912 161.4 70.8812C147.48 70.8812 133.55 70.8812 119.62 70.8212C118.35 70.7412 116.48 71.5612 115.92 69.3312Z" fill="#9E22E9"/>
<path d="M63.381 145.56C63.451 147.04 63.511 148.43 61.591 148.95C61.1889 149.104 60.8447 149.379 60.6063 149.738C60.3679 150.096 60.2472 150.52 60.261 150.95C37.261 134.62 26.651 112.48 28.961 84.2701C29.3115 79.8379 30.229 75.469 31.691 71.2701L32.741 70.6802C34.151 70.2502 35.101 71.2202 36.051 71.9102C48.231 80.6968 60.4344 89.4835 72.661 98.2701C74.771 99.7901 74.421 101.49 73.731 103.48C69.171 116.73 65.171 130.17 60.631 143.48C60.1899 144.449 59.9064 145.482 59.791 146.54C61.131 146.66 61.941 144.75 63.381 145.56Z" fill="#9E22E9"/>
</svg>
