<svg width="200" height="200" viewBox="0 0 200 200" fill="none" xmlns="http://www.w3.org/2000/svg">
<path d="M101.687 64.2303L97.2766 82.7203C96.0666 87.7903 94.7966 92.8603 93.6666 98.0003C93.1966 100.15 92.0566 101 89.8666 101C82.5266 100.93 83.5366 101.57 81.5166 94.9103C77.6566 82.1803 73.8666 69.4203 70.0466 56.6703C69.0466 53.4503 69.3466 53.0703 72.6266 53.1203C78.6266 53.2003 78.4266 52.0003 80.1166 58.8603C82.5766 68.8603 85.1766 78.8603 87.7166 88.7803C87.8566 89.3503 88.0566 89.9103 88.4066 91.0603C90.0966 83.9803 91.6366 77.4803 93.1766 70.9803C94.3899 65.8003 95.6066 60.6303 96.8266 55.4703C96.8726 55.1148 96.9955 54.7735 97.1866 54.4703C99.5266 51.8103 102.587 53.4703 105.307 53.2003C106.897 53.0403 107.387 54.4703 107.697 55.7803C110.297 66.5936 112.893 77.4069 115.487 88.2203C115.677 89.0203 115.887 89.8303 116.087 90.6403C116.937 90.6403 116.767 89.9703 116.887 89.5203C119.767 78.4736 122.64 67.4203 125.507 56.3603C126.357 53.1003 126.757 52.7903 130.207 52.7803H132.487C135.397 52.7803 135.927 53.4803 134.997 56.3303C130.507 70.3303 125.997 84.2303 121.487 98.2003C121.308 99.0575 120.817 99.8178 120.109 100.333C119.402 100.849 118.527 101.083 117.657 100.99C110.247 100.99 111.177 101.49 109.527 94.6103C107.087 84.4703 104.627 74.3303 102.147 64.1903L101.687 64.2303Z" fill="#9E22E9"/>
<path d="M92.8337 148.88C69.5137 148.63 42.8337 138.78 19.9537 118.88L19.6037 118.59C18.8137 117.92 18.0037 117.15 18.7037 116.1C19.4037 115.05 20.4037 115.47 21.3237 115.97C23.4537 117.12 25.5837 118.28 27.7437 119.37C53.4664 132.665 82.3149 138.731 111.214 136.92C128.322 135.8 145.137 131.917 161.004 125.42C161.904 125.05 162.844 124.74 163.774 124.42C164.071 124.289 164.391 124.218 164.716 124.211C165.041 124.204 165.364 124.261 165.667 124.379C165.97 124.497 166.247 124.673 166.481 124.898C166.716 125.123 166.903 125.393 167.034 125.69C167.734 127.07 166.984 128.08 165.914 128.77C163.314 130.47 160.714 132.18 158.014 133.7C140.004 143.89 120.554 149 92.8337 148.88Z" fill="#9E22E9"/>
<path d="M55.9994 94.9995C53.2041 98.254 49.487 100.583 45.3394 101.68C42.0383 102.624 38.5414 102.645 35.2294 101.74C29.8594 100.09 26.3194 96.5595 25.3694 90.9595C24.3694 84.9595 25.8194 79.6495 31.0794 75.9595C35.5194 72.8295 40.5094 72.0895 45.7994 72.5695C49.0127 72.8743 52.2073 73.3516 55.3694 73.9995C55.3694 71.8995 55.5194 69.9995 55.3694 68.1195C54.7594 61.8695 51.7594 58.9795 44.7694 58.8795C40.2116 58.9398 35.7138 59.9264 31.5494 61.7795C28.7994 62.8995 28.3894 62.4295 28.1394 59.4595C27.8894 56.4895 29.0794 55.1295 31.5894 54.1195C38.1794 51.4495 44.9994 50.2495 51.9994 51.8195C59.9994 53.5895 64.4594 59.5295 64.4694 67.7295C64.4694 73.4895 64.5294 79.2595 64.4094 85.0195C64.3294 88.6595 64.7493 92.1195 66.6293 95.2995C67.5393 96.8395 67.1293 97.8795 65.6293 98.8795C60.6294 102.23 59.8694 102.09 56.9194 96.6895L55.9994 94.9995ZM55.4294 82.7695C54.6694 82.2095 56.5494 80.5395 54.4994 80.0595C50.4489 79.0227 46.2426 78.7379 42.0894 79.2195C37.3094 79.8695 34.5794 83.0695 34.7794 87.4895C34.8537 89.4371 35.6527 91.2867 37.0197 92.6759C38.3867 94.0651 40.2232 94.8938 42.1694 94.9995C48.2094 95.1795 55.6594 92.6795 55.4394 82.7295L55.4294 82.7695Z" fill="#9E22E9"/>
<path d="M158.534 51.4507C162.133 51.4283 165.697 52.15 169.004 53.5707C169.66 53.8199 170.26 54.1995 170.765 54.6866C171.271 55.1737 171.673 55.7582 171.947 56.4048C172.221 57.0515 172.361 57.7469 172.358 58.4491C172.356 59.1513 172.212 59.8458 171.934 60.4907C171.264 62.1207 170.014 61.3407 169.054 60.9007C165.384 59.2327 161.371 58.4582 157.344 58.6407C155.618 58.7204 153.923 59.1206 152.344 59.8207C151.447 60.1947 150.667 60.8019 150.085 61.5793C149.502 62.3566 149.138 63.2758 149.031 64.2413C148.924 65.2068 149.077 66.1834 149.475 67.0696C149.873 67.9557 150.501 68.7192 151.294 69.2807C152.799 70.4116 154.491 71.2681 156.294 71.8107C159.174 72.7407 162.104 73.5207 164.924 74.6007C169.924 76.5007 173.564 79.7107 174.264 85.3007C175.014 91.3007 172.614 95.9307 167.564 99.2007C164.842 100.887 161.756 101.895 158.564 102.141C152.586 102.84 146.531 101.842 141.094 99.2607C139.004 98.2607 137.944 94.5807 139.094 92.5907C139.934 91.1607 141.184 91.8307 142.284 92.3007C147.235 94.4717 152.673 95.2895 158.044 94.6707C159.627 94.4797 161.156 93.9767 162.544 93.1907C163.418 92.7266 164.157 92.0444 164.69 91.2103C165.222 90.3762 165.53 89.4186 165.583 88.4305C165.637 87.4423 165.434 86.4571 164.994 85.5706C164.554 84.684 163.893 83.9262 163.074 83.3707C161.834 82.5055 160.458 81.8532 159.004 81.4407C155.894 80.5207 152.764 79.6207 149.684 78.6007C143.384 76.5407 139.314 71.2907 139.334 65.3907C139.334 59.7307 143.334 54.8207 149.654 52.6807C152.524 51.7776 155.526 51.3619 158.534 51.4507V51.4507Z" fill="#9E22E9"/>
<path d="M162.282 118.509L152.562 119.459C151.822 119.529 150.912 119.849 150.562 118.969C150.212 118.089 150.942 117.409 151.642 116.969C155.208 114.657 159.253 113.186 163.472 112.669C168.336 111.809 173.328 112 178.112 113.229C181.302 114.149 181.732 114.619 181.542 117.849C181.226 126.336 177.711 134.389 171.702 140.389C171.219 140.875 170.698 141.32 170.142 141.719C169.602 142.099 169.022 142.599 168.302 142.089C167.582 141.579 167.962 140.919 168.202 140.279C169.582 136.599 171.092 132.969 172.142 129.179C172.711 127.376 173.099 125.52 173.302 123.639C173.542 120.349 172.632 119.269 169.302 118.819C168.172 118.669 167.032 118.599 165.902 118.549C164.772 118.499 163.812 118.509 162.282 118.509Z" fill="#9E22E9"/>
</svg>
