<svg width="200" height="200" viewBox="0 0 200 200" fill="none" xmlns="http://www.w3.org/2000/svg">
<path d="M101.689 64.2303L97.2786 82.7203C96.0686 87.7903 94.7986 92.8603 93.6686 98.0003C93.1986 100.15 92.0586 101 89.8686 101C82.5286 100.93 83.5386 101.57 81.5186 94.9103C77.6586 82.1803 73.8686 69.4203 70.0486 56.6703C69.0486 53.4503 69.3486 53.0703 72.6286 53.1203C78.6286 53.2003 78.4286 52.0003 80.1186 58.8603C82.5786 68.8603 85.1786 78.8603 87.7186 88.7803C87.8586 89.3503 88.0586 89.9103 88.4086 91.0603C90.0986 83.9803 91.6386 77.4803 93.1786 70.9803C94.3919 65.8003 95.6086 60.6303 96.8286 55.4703C96.8746 55.1148 96.9974 54.7735 97.1886 54.4703C99.5286 51.8103 102.589 53.4703 105.309 53.2003C106.899 53.0403 107.389 54.4703 107.699 55.7803C110.299 66.5936 112.895 77.4069 115.489 88.2203C115.679 89.0203 115.889 89.8303 116.089 90.6403C116.939 90.6403 116.769 89.9703 116.889 89.5203C119.769 78.4736 122.642 67.4203 125.509 56.3603C126.359 53.1003 126.759 52.7903 130.209 52.7803H132.489C135.399 52.7803 135.929 53.4803 134.999 56.3303C130.509 70.3303 125.999 84.2303 121.489 98.2003C121.31 99.0575 120.819 99.8178 120.111 100.333C119.403 100.849 118.529 101.083 117.659 100.99C110.249 100.99 111.179 101.49 109.529 94.6103C107.089 84.4703 104.629 74.3303 102.149 64.1903L101.689 64.2303Z" fill="#040404"/>
<path d="M161 125.42C145.134 131.917 128.319 135.8 111.21 136.92L161 125.42ZM161 125.42C161.761 125.107 162.551 124.837 163.339 124.568C163.483 124.518 163.627 124.469 163.77 124.42L161 125.42ZM20.2786 118.503L20.2787 118.503L20.2695 118.495L19.9217 118.207C19.5183 117.865 19.1961 117.563 19.0345 117.255C18.9598 117.113 18.9288 116.984 18.9342 116.86C18.9397 116.736 18.983 116.578 19.1165 116.377C19.2517 116.175 19.3819 116.071 19.4945 116.016C19.6066 115.962 19.7338 115.94 19.8881 115.952C20.2227 115.979 20.6176 116.157 21.0818 116.409L21.0818 116.409L21.083 116.41C21.3043 116.529 21.5257 116.649 21.7473 116.769C23.6546 117.8 25.5717 118.836 27.5131 119.815C53.3156 133.152 82.2535 139.236 111.241 137.419L111.243 137.419C128.406 136.295 145.273 132.4 161.189 125.883L161.19 125.882C161.936 125.576 162.71 125.311 163.498 125.042C163.643 124.992 163.787 124.943 163.933 124.893L163.952 124.886L163.971 124.878C164.209 124.773 164.465 124.716 164.724 124.711C164.983 124.705 165.241 124.751 165.483 124.845C165.725 124.939 165.946 125.08 166.131 125.258C166.318 125.438 166.468 125.653 166.572 125.89L166.578 125.904L166.584 125.916C166.871 126.482 166.844 126.92 166.679 127.281C166.501 127.669 166.135 128.03 165.639 128.35L165.636 128.352L165.348 128.54C162.842 130.179 160.348 131.81 157.765 133.264L157.764 133.265C139.841 143.405 120.48 148.5 92.8339 148.38C69.6452 148.131 43.078 138.333 20.2786 118.503Z" fill="#FF9900" stroke="#FF9900"/>
<path d="M55.9997 94.9995C53.2045 98.254 49.4873 100.583 45.3397 101.68C42.0386 102.624 38.5417 102.645 35.2297 101.74C29.8597 100.09 26.3197 96.5595 25.3697 90.9595C24.3697 84.9595 25.8197 79.6495 31.0797 75.9595C35.5197 72.8295 40.5097 72.0895 45.7997 72.5695C49.013 72.8743 52.2076 73.3516 55.3697 73.9995C55.3697 71.8995 55.5197 69.9995 55.3697 68.1195C54.7597 61.8695 51.7597 58.9795 44.7697 58.8795C40.2119 58.9398 35.7141 59.9264 31.5497 61.7795C28.7997 62.8995 28.3897 62.4295 28.1397 59.4595C27.8897 56.4895 29.0797 55.1295 31.5897 54.1195C38.1797 51.4495 44.9997 50.2495 51.9997 51.8195C59.9997 53.5895 64.4597 59.5295 64.4697 67.7295C64.4697 73.4895 64.5297 79.2595 64.4097 85.0195C64.3297 88.6595 64.7497 92.1195 66.6297 95.2995C67.5397 96.8395 67.1297 97.8795 65.6297 98.8795C60.6297 102.23 59.8697 102.09 56.9197 96.6895L55.9997 94.9995ZM55.4297 82.7695C54.6697 82.2095 56.5497 80.5395 54.4997 80.0595C50.4492 79.0226 46.2429 78.7379 42.0897 79.2195C37.3097 79.8695 34.5797 83.0695 34.7797 87.4895C34.8541 89.4371 35.653 91.2867 37.02 92.6759C38.387 94.0651 40.2235 94.8938 42.1697 94.9995C48.2097 95.1795 55.6597 92.6795 55.4397 82.7295L55.4297 82.7695Z" fill="#040404"/>
<path d="M158.529 51.4502C162.128 51.4278 165.693 52.1495 168.999 53.5702C169.656 53.8194 170.255 54.199 170.761 54.6861C171.267 55.1732 171.669 55.7577 171.943 56.4043C172.216 57.051 172.356 57.7464 172.354 58.4486C172.352 59.1509 172.207 59.8453 171.929 60.4902C171.259 62.1202 170.009 61.3402 169.049 60.9002C165.379 59.2322 161.366 58.4577 157.339 58.6402C155.614 58.7199 153.918 59.1201 152.339 59.8202C151.443 60.1942 150.663 60.8014 150.08 61.5788C149.498 62.3562 149.134 63.2753 149.027 64.2408C148.92 65.2063 149.073 66.1829 149.471 67.0691C149.869 67.9553 150.497 68.7187 151.289 69.2802C152.794 70.4111 154.487 71.2676 156.289 71.8102C159.169 72.7402 162.099 73.5202 164.919 74.6002C169.919 76.5002 173.559 79.7102 174.259 85.3002C175.009 91.3002 172.609 95.9302 167.559 99.2002C164.838 100.886 161.751 101.895 158.559 102.14C152.581 102.839 146.527 101.841 141.089 99.2602C138.999 98.2602 137.939 94.5802 139.089 92.5902C139.929 91.1602 141.179 91.8302 142.279 92.3002C147.23 94.4712 152.669 95.289 158.039 94.6702C159.622 94.4792 161.152 93.9762 162.539 93.1902C163.413 92.7261 164.153 92.0439 164.685 91.2098C165.218 90.3757 165.526 89.4182 165.579 88.43C165.632 87.4418 165.429 86.4566 164.99 85.5701C164.55 84.6835 163.888 83.9257 163.069 83.3702C161.829 82.505 160.454 81.8527 158.999 81.4402C155.889 80.5202 152.759 79.6202 149.679 78.6002C143.379 76.5402 139.309 71.2902 139.329 65.3902C139.329 59.7302 143.329 54.8202 149.649 52.6802C152.52 51.7771 155.521 51.3614 158.529 51.4502Z" fill="#040404"/>
<path d="M162.279 118.01H162.255L162.23 118.012L152.512 118.962C152.512 118.962 152.511 118.962 152.511 118.962C152.375 118.975 152.223 118.997 152.087 119.017C152.027 119.026 151.969 119.034 151.917 119.041C151.729 119.066 151.574 119.08 151.442 119.072C151.313 119.065 151.234 119.038 151.183 119.005C151.138 118.977 151.078 118.921 151.024 118.785C150.922 118.53 150.966 118.313 151.12 118.085C151.288 117.835 151.577 117.6 151.905 117.393L151.905 117.393L151.911 117.39C155.413 115.118 159.387 113.674 163.53 113.166L163.543 113.165L163.556 113.162C168.347 112.314 173.265 112.502 177.977 113.712C178.77 113.941 179.361 114.134 179.808 114.34C180.252 114.545 180.519 114.747 180.693 114.976C180.865 115.202 180.979 115.5 181.036 115.956C181.093 116.421 181.087 117.018 181.04 117.821L181.04 117.821L181.039 117.831C180.729 126.191 177.265 134.124 171.346 140.036L171.344 140.038C170.882 140.502 170.382 140.929 169.849 141.313C169.801 141.347 169.755 141.379 169.711 141.41C169.478 141.577 169.303 141.702 169.117 141.768C168.954 141.827 168.802 141.834 168.588 141.682C168.468 141.597 168.424 141.528 168.405 141.484C168.386 141.439 168.376 141.381 168.386 141.29C168.397 141.194 168.429 141.079 168.482 140.932C168.508 140.86 168.537 140.786 168.569 140.706L168.579 140.681C168.608 140.61 168.638 140.533 168.667 140.456C168.971 139.645 169.282 138.835 169.595 138.022C170.69 135.169 171.795 132.291 172.619 129.322C173.196 127.489 173.591 125.604 173.796 123.693L173.797 123.685L173.798 123.676C173.919 122.011 173.769 120.743 173.022 119.845C172.278 118.952 171.047 118.552 169.366 118.325L169.365 118.324C168.213 118.171 167.055 118.101 165.921 118.051C164.948 118.007 164.098 118.008 162.928 118.01C162.722 118.01 162.507 118.01 162.279 118.01Z" fill="#FF9900" stroke="#FF9900"/>
</svg>
