<svg width="200" height="200" viewBox="0 0 200 200" fill="none" xmlns="http://www.w3.org/2000/svg">
<path d="M167.452 82.5983C167.276 83.2079 167.217 83.8456 167.279 84.4779C167.282 84.6429 167.319 84.7925 167.375 84.9185C167.429 85.039 167.52 85.1779 167.658 85.271C167.705 85.3025 167.803 85.3593 167.935 85.3696C168.503 87.2399 168.808 89.1818 168.838 91.1388C168.425 95.3008 168.462 99.4952 168.948 103.649C168.949 104.252 168.969 104.855 168.989 105.448L168.994 105.602C169.016 106.257 169.035 106.901 169.027 107.54C169.012 108.734 168.902 109.891 168.544 111.02C168.336 111.108 168.162 111.245 168.046 111.444C167.894 111.705 167.899 111.986 167.911 112.163C167.915 112.234 167.923 112.309 167.93 112.371C167.932 112.39 167.934 112.407 167.936 112.422C167.944 112.5 167.948 112.558 167.948 112.606C167.947 112.649 167.943 112.671 167.941 112.681L167.875 112.75L167.839 112.848C167.511 113.744 167.279 114.672 167.146 115.616C161.032 140.886 135.822 161.005 109.452 164.003C89.5696 166.26 71.5135 161.808 55.8164 149.526L55.8157 149.526C44.5859 140.77 36.3416 129.721 32.8436 115.619L32.8254 115.546L32.7866 115.482C32.5931 115.161 32.5151 114.793 32.4595 114.346C32.4484 114.257 32.4382 114.163 32.4276 114.065C32.388 113.7 32.3425 113.281 32.2282 112.89L32.194 112.773L32.118 112.693C32.1158 112.683 32.113 112.662 32.1133 112.623C32.1137 112.575 32.1189 112.518 32.1281 112.439C32.1299 112.425 32.1318 112.409 32.1338 112.392C32.1416 112.328 32.151 112.251 32.1568 112.178C32.1708 111.998 32.1775 111.714 32.0224 111.449C31.9009 111.241 31.7162 111.101 31.4949 111.013C31.1568 110.107 31.0519 109.171 31.0395 108.195C31.0328 107.667 31.0531 107.134 31.0764 106.588C31.0786 106.538 31.0807 106.488 31.0829 106.438C31.1038 105.951 31.1253 105.454 31.1282 104.956C31.5931 100.364 31.6233 95.7383 31.2185 91.1404C31.2421 88.9782 31.6097 86.8338 32.3074 84.7878C32.512 84.6316 32.664 84.4454 32.7515 84.2235C32.8583 83.9529 32.8442 83.6914 32.8047 83.4811C32.7742 83.3195 32.72 83.1513 32.678 83.0213C32.6687 82.9925 32.66 82.9655 32.6523 82.941C32.612 82.8122 32.5892 82.7214 32.5813 82.6496C38.4692 55.6458 62.4759 35.526 88.4804 31.8515C89.3364 32.1304 90.2483 32.1951 91.1358 32.0393C91.1953 32.0379 91.263 32.033 91.3281 32.0185C91.3679 32.0096 91.4445 31.9893 91.5236 31.9376C91.6121 31.8796 91.73 31.7619 91.7561 31.5724C91.7721 31.4565 91.7465 31.3606 91.7181 31.2944C91.8443 31.2428 91.9752 31.2025 92.1093 31.174C92.4156 31.1091 92.7321 31.1077 93.039 31.1699L93.0688 31.1759L93.0991 31.1783C97.6981 31.5403 102.318 31.5403 106.918 31.1783L106.878 30.6798L106.978 31.1699C107.283 31.1079 107.597 31.1095 107.902 31.1743C108.193 31.2362 108.468 31.3545 108.713 31.5223C109.203 32.0169 109.747 32.1387 110.268 32.1024C110.519 32.0849 110.762 32.0315 110.978 31.9783C111.05 31.9604 111.118 31.943 111.183 31.9264C111.293 31.898 111.396 31.8717 111.5 31.8486C123.475 33.8441 134.414 38.1624 143.818 46.0039C155.536 55.7774 164.201 67.4488 167.452 82.5983ZM167.939 112.685C167.938 112.688 167.938 112.687 167.94 112.684C167.94 112.684 167.94 112.685 167.939 112.685ZM32.1203 112.701C32.1202 112.701 32.1197 112.7 32.119 112.697C32.12 112.699 32.1204 112.701 32.1203 112.701Z" stroke="#9E22E9"/>
<path d="M32.5809 115.399C35.5209 123.179 38.7409 130.789 44.0609 137.349C56.1809 152.349 71.6809 161.129 90.8509 163.609C104.582 165.541 118.578 163.338 131.051 157.279C148.141 148.999 160.221 135.999 166.391 117.799C166.661 117.009 166.651 116.029 167.481 115.479C167.691 115.159 167.891 115.159 168.101 115.479C166.891 123.714 163.775 131.552 159.001 138.369C149.714 152.551 135.503 162.789 119.111 167.109C114.909 168.324 110.586 169.075 106.221 169.349C102.083 168.969 97.9188 168.969 93.7809 169.349C79.6947 168.219 66.2817 162.846 55.3109 153.939C43.8087 144.724 35.6022 132.03 31.9209 117.759C31.8508 117.218 31.8508 116.67 31.9209 116.129C32.1009 115.849 32.1609 115.469 32.5809 115.399Z" fill="#61168E"/>
<path d="M106.882 30.68C102.346 31.5699 97.6792 31.5699 93.1425 30.68C97.7158 30.3299 102.309 30.3299 106.882 30.68V30.68Z" fill="#9E22E9"/>
<path d="M30.671 91.1603C31.6064 95.7059 31.5757 100.397 30.581 104.93C30.276 100.344 30.3061 95.742 30.671 91.1603V91.1603Z" fill="#9E22E9"/>
<path d="M169.447 103.62C168.421 99.5347 168.383 95.2634 169.337 91.1603C169.679 95.3053 169.715 99.4699 169.447 103.62V103.62Z" fill="#9E22E9"/>
<path d="M93.7803 169.35C97.877 168.44 102.124 168.44 106.22 169.35C102.079 169.66 97.9211 169.66 93.7803 169.35V169.35Z" fill="#8020BA"/>
<path d="M32.5821 115.401L31.9121 116.131C31.5946 115.777 31.3742 115.347 31.2726 114.882C31.1709 114.418 31.1914 113.935 31.3321 113.481C31.5121 113.241 31.4921 112.821 31.9221 112.771C32.6921 113.511 32.4821 114.501 32.5821 115.401Z" fill="#8020BA"/>
<path d="M91.0027 31.1391C91.2052 31.1642 91.4016 31.2252 91.5827 31.3191C91.8827 31.5291 91.9027 31.8391 91.4727 31.8391C90.4727 31.8391 89.4027 32.2091 88.5627 31.3391L91.0027 31.1391Z" fill="#9E22E9"/>
<path d="M111.491 31.3391C110.641 32.1991 109.561 31.8191 108.571 31.8391C108.141 31.8391 108.161 31.5291 108.451 31.3191C108.636 31.2265 108.835 31.1657 109.041 31.1391L111.491 31.3391Z" fill="#9E22E9"/>
<path d="M32.0021 82.61C32.2654 82.9539 32.4396 83.3575 32.5094 83.7849C32.5792 84.2123 32.5423 84.6503 32.4021 85.06C32.4021 85.06 32.0221 85.14 31.9921 85.06C31.9022 84.8668 31.8416 84.6612 31.8121 84.45C31.9021 83.85 32.0021 83.23 32.0021 82.61Z" fill="#9E22E9"/>
<path d="M168.17 84.4694C168.136 84.6795 168.076 84.8845 167.99 85.0794C167.99 85.1394 167.58 85.0794 167.58 85.0794C167.46 84.2294 167.27 83.3594 167.97 82.6394L168.17 84.4694Z" fill="#9E22E9"/>
<path d="M31.917 112.77L31.327 113.48C31.237 112.79 31.147 112.11 31.067 111.42C31.1596 111.233 31.2701 111.056 31.397 110.89C32.347 111.29 31.697 112.15 31.917 112.77Z" fill="#8020BA"/>
<path d="M168.093 112.78C168.303 112.15 167.663 111.3 168.613 110.89C168.737 111.058 168.848 111.235 168.943 111.42C168.853 112.11 168.773 112.79 168.683 113.48C168.133 113.55 167.743 113.48 168.093 112.78Z" fill="#8020BA"/>
<path d="M168.086 112.779L168.676 113.479L168.096 115.479H167.476C167.486 114.539 167.316 113.549 168.086 112.779Z" fill="#8020BA"/>
<path d="M77.2928 65.4602C77.2328 61.3002 77.2128 57.1402 77.0828 52.9802C77.0828 51.3802 77.6728 50.9202 79.1928 50.9802C85.5528 51.0402 91.9228 51.0802 98.2728 50.9802C100.273 50.9802 100.513 52.2802 101.023 53.5702C109.563 75.0002 118.153 96.4202 126.583 117.89C127.583 120.38 128.463 121 130.993 119.97C133.883 118.8 137.323 116.11 139.723 117.38C141.823 118.49 142.353 122.62 143.503 125.44C145.433 130.16 145.413 130.19 140.503 132C134.253 134.31 127.903 136.39 121.763 139C119.193 140.07 118.703 139 117.933 137.07C112.806 124.037 107.623 111.037 102.383 98.0702C102.023 97.1802 102.263 95.6802 100.823 95.6302C99.3828 95.5802 99.2428 96.9902 98.7128 97.8802C91.3428 110.42 83.9628 122.95 76.7128 135.55C76.3389 136.365 75.7168 137.041 74.9355 137.481C74.1542 137.921 73.2537 138.103 72.3628 138C67.7728 137.82 63.1628 137.95 58.5428 137.95C58.0828 136.43 59.1828 135.59 59.7428 134.64C70.4828 116.214 81.2695 97.7868 92.1028 79.3602C93.4028 77.1702 93.7528 75.3602 92.5728 73.0502C91.3928 70.7402 90.5728 68.4202 89.6528 66.0502C86.7428 65.3402 83.7828 65.9102 80.8528 65.7102C79.6628 65.6802 78.4328 66.0502 77.2928 65.4602Z" fill="#9E22E9"/>
<path d="M77.2903 65.4597C81.4003 65.8197 85.5903 64.6597 89.6503 66.0997C85.5403 65.7497 81.3503 66.8597 77.2903 65.4597Z" fill="#9E22E9"/>
<path d="M166.5 98C166.5 133.504 136.623 162.5 99.5 162.5C62.3767 162.5 32.5 133.504 32.5 98C32.5 62.4957 62.3767 33.5 99.5 33.5C136.623 33.5 166.5 62.4957 166.5 98Z" stroke="#9E22E9" stroke-width="7"/>
</svg>
