<svg width="200" height="200" viewBox="0 0 200 200" fill="none" xmlns="http://www.w3.org/2000/svg">
<path fill-rule="evenodd" clip-rule="evenodd" d="M35.1436 0.458716C35.1436 0.711009 34.0124 0.917431 32.6298 0.917431C31.2472 0.917431 30.116 1.12385 30.116 1.37615C30.116 1.62844 29.4373 1.83486 28.6077 1.83486C27.7782 1.83486 27.0994 2.04128 27.0994 2.29358C27.0994 2.54587 26.647 2.75229 26.0939 2.75229C25.5409 2.75229 25.0884 2.95872 25.0884 3.21101C25.0884 3.4633 24.6359 3.66972 24.0829 3.66972C23.5298 3.66972 23.0773 3.87615 23.0773 4.12844C23.0773 4.38073 22.734 4.58716 22.3137 4.58716C21.3851 4.58716 15.0331 10.294 15.0331 11.1289C15.0331 11.456 14.5807 12.0216 14.0276 12.3853C13.4746 12.7491 13.0221 13.4138 13.0221 13.8628C13.0221 14.3115 12.7959 14.6789 12.5193 14.6789C12.2428 14.6789 12.0166 15.0917 12.0166 15.5963C12.0166 16.1009 11.7903 16.5138 11.5138 16.5138C11.2373 16.5138 11.011 17.133 11.011 17.8899C11.011 18.6468 10.7848 19.2661 10.5083 19.2661C10.2318 19.2661 10.0055 20.2982 10.0055 21.5596C10.0055 22.8211 9.77928 23.8532 9.50276 23.8532C9.17044 23.8532 9 43.7307 9 82.5688C9 121.407 9.17044 141.284 9.50276 141.284C9.7823 141.284 10.0055 142.508 10.0055 144.037C10.0055 145.566 10.2288 146.789 10.5083 146.789C10.7848 146.789 11.011 147.408 11.011 148.165C11.011 148.922 11.2373 149.541 11.5138 149.541C11.7903 149.541 12.0166 149.954 12.0166 150.459C12.0166 150.963 12.2428 151.376 12.5193 151.376C12.7959 151.376 13.0221 151.706 13.0221 152.11C13.0221 152.513 13.7008 153.422 14.5304 154.128C15.3599 154.835 16.0387 155.648 16.0387 155.933C16.0387 156.654 19.377 159.633 20.1845 159.633C20.5474 159.633 21.1704 160.046 21.5691 160.55C21.9678 161.055 22.6963 161.468 23.1885 161.468C23.6802 161.468 24.0829 161.674 24.0829 161.927C24.0829 162.179 24.5354 162.385 25.0884 162.385C25.6414 162.385 26.0939 162.592 26.0939 162.844C26.0939 163.096 26.5464 163.303 27.0994 163.303C27.6525 163.303 28.105 163.509 28.105 163.761C28.105 164.014 28.7837 164.22 29.6133 164.22C30.4428 164.22 31.1215 164.427 31.1215 164.679C31.1215 164.981 45.5342 165.138 73.3536 165.138H115.586V182.569C115.586 192.156 115.701 200 115.842 200C115.983 200 124.691 192.156 135.193 182.569L154.289 165.138H161.583C166.112 165.138 168.878 164.964 168.878 164.679C168.878 164.427 169.557 164.22 170.387 164.22C171.216 164.22 171.895 164.014 171.895 163.761C171.895 163.509 172.348 163.303 172.901 163.303C173.454 163.303 173.906 163.096 173.906 162.844C173.906 162.592 174.359 162.385 174.912 162.385C175.465 162.385 175.917 162.179 175.917 161.927C175.917 161.674 176.32 161.468 176.812 161.468C177.304 161.468 178.032 161.055 178.431 160.55C178.83 160.046 179.453 159.633 179.816 159.633C180.673 159.633 183.961 156.633 183.961 155.85C183.961 155.519 184.414 154.951 184.967 154.587C185.52 154.223 185.972 153.604 185.972 153.211C185.972 152.818 186.425 152.199 186.978 151.835C187.531 151.471 187.983 150.806 187.983 150.357C187.983 149.909 188.21 149.541 188.486 149.541C188.763 149.541 188.989 148.922 188.989 148.165C188.989 147.408 189.215 146.789 189.492 146.789C189.771 146.789 189.994 145.566 189.994 144.037C189.994 142.508 190.218 141.284 190.497 141.284C190.83 141.284 191 121.407 191 82.5688C191 43.7307 190.83 23.8532 190.497 23.8532C190.221 23.8532 189.994 22.8211 189.994 21.5596C189.994 20.2982 189.768 19.2661 189.492 19.2661C189.215 19.2661 188.989 18.6468 188.989 17.8899C188.989 17.133 188.763 16.5138 188.486 16.5138C188.21 16.5138 187.983 16.1009 187.983 15.5963C187.983 15.0917 187.757 14.6789 187.481 14.6789C187.204 14.6789 186.978 14.3115 186.978 13.8628C186.978 13.4138 186.525 12.7491 185.972 12.3853C185.419 12.0216 184.967 11.4555 184.967 11.1275C184.967 10.35 179.656 5.50459 178.804 5.50459C178.445 5.50459 177.824 5.09174 177.425 4.58716C177.027 4.08257 176.298 3.66972 175.806 3.66972C175.314 3.66972 174.912 3.4633 174.912 3.21101C174.912 2.95872 174.459 2.75229 173.906 2.75229C173.353 2.75229 172.901 2.54587 172.901 2.29358C172.901 2.04128 172.222 1.83486 171.392 1.83486C170.563 1.83486 169.884 1.62844 169.884 1.37615C169.884 1.12385 168.753 0.917431 167.37 0.917431C165.988 0.917431 164.856 0.711009 164.856 0.458716C164.856 0.155505 142.902 0 100 0C57.0978 0 35.1436 0.155505 35.1436 0.458716ZM77.3757 61.9266C77.3757 62.1789 77.8282 62.3853 78.3812 62.3853C78.9343 62.3853 79.3867 62.5917 79.3867 62.844C79.3867 63.0963 79.8392 63.3028 80.3923 63.3028C80.9453 63.3028 81.3978 63.5092 81.3978 63.7615C81.3978 64.0138 81.7533 64.2202 82.1876 64.2202C83.1087 64.2202 84.4144 65.2963 84.4144 66.055C84.4144 66.7445 83.1399 67.8899 82.3726 67.8899C82.0393 67.8899 81.3445 68.3344 80.8282 68.8775L79.8895 69.8651L78.9508 68.8775C78.4345 68.3344 77.6427 67.8899 77.1912 67.8899C76.7397 67.8899 76.3702 67.6835 76.3702 67.4312C76.3702 67.1789 75.4652 66.9725 74.3591 66.9725C73.253 66.9725 72.3481 66.7661 72.3481 66.5138C72.3481 66.2615 71.6693 66.055 70.8398 66.055C70.0102 66.055 69.3315 66.2615 69.3315 66.5138C69.3315 66.7661 68.4265 66.9725 67.3204 66.9725C66.2144 66.9725 65.3094 67.1789 65.3094 67.4312C65.3094 67.6835 64.9067 67.8899 64.415 67.8899C63.9228 67.8899 63.1943 68.3028 62.7956 68.8073C62.3969 69.3119 61.774 69.7248 61.411 69.7248C60.4944 69.7248 57.2652 72.75 57.2652 73.6087C57.2652 73.9954 57.039 74.3119 56.7624 74.3119C56.4859 74.3119 56.2597 74.7248 56.2597 75.2294C56.2597 75.7339 56.0334 76.1468 55.7569 76.1468C55.4804 76.1468 55.2541 76.5596 55.2541 77.0642C55.2541 77.5688 55.0279 77.9816 54.7514 77.9816C54.4497 77.9816 54.2486 79.8165 54.2486 82.5688C54.2486 85.3211 54.4497 87.156 54.7514 87.156C55.0279 87.156 55.2541 87.5688 55.2541 88.0734C55.2541 88.578 55.4804 88.9908 55.7569 88.9908C56.0334 88.9908 56.2597 89.3096 56.2597 89.6995C56.2597 90.6174 58.499 92.6605 59.505 92.6605C59.9323 92.6605 60.2818 92.867 60.2818 93.1193C60.2818 93.3716 60.7343 93.578 61.2873 93.578C61.8403 93.578 62.2928 93.7844 62.2928 94.0367C62.2928 94.289 63.1978 94.4954 64.3039 94.4954C65.4099 94.4954 66.3149 94.7018 66.3149 94.9541C66.3149 95.2064 66.7674 95.4128 67.3204 95.4128C67.8735 95.4128 68.326 95.2064 68.326 94.9541C68.326 94.7018 69.2309 94.4954 70.337 94.4954C71.4431 94.4954 72.3481 94.289 72.3481 94.0367C72.3481 93.7844 72.8006 93.578 73.3536 93.578C73.9066 93.578 74.3591 93.3716 74.3591 93.1193C74.3591 92.0427 76.9896 92.7367 78.6492 94.2509C80.6371 96.0642 80.7457 96.3303 79.4979 96.3303C79.0057 96.3303 78.2771 96.7431 77.8785 97.2477C77.4798 97.7523 76.7513 98.1651 76.2591 98.1651C75.7674 98.1651 75.3646 98.3716 75.3646 98.6239C75.3646 98.8761 74.6859 99.0826 73.8564 99.0826C73.0268 99.0826 72.3481 99.289 72.3481 99.5413C72.3481 99.8234 69.8343 100 65.8122 100C61.7901 100 59.2762 99.8234 59.2762 99.5413C59.2762 99.289 58.8238 99.0826 58.2707 99.0826C57.7177 99.0826 57.2652 98.8761 57.2652 98.6239C57.2652 98.3716 56.9208 98.1651 56.5 98.1651C55.5045 98.1651 50.2265 93.3495 50.2265 92.4413C50.2265 92.0573 50.0003 91.7431 49.7238 91.7431C49.4472 91.7431 49.221 91.1239 49.221 90.367C49.221 89.6101 48.9948 88.9908 48.7182 88.9908C48.409 88.9908 48.2155 86.6972 48.2155 83.0275C48.2155 79.3578 48.409 77.0642 48.7182 77.0642C48.9948 77.0642 49.221 76.445 49.221 75.6881C49.221 74.9312 49.4472 74.3119 49.7238 74.3119C50.0003 74.3119 50.2265 73.8991 50.2265 73.3945C50.2265 72.8899 50.4528 72.4771 50.7293 72.4771C51.0058 72.4771 51.232 72.1642 51.232 71.7817C51.232 70.8752 58.5261 64.2202 59.5196 64.2202C59.9389 64.2202 60.2818 64.0138 60.2818 63.7615C60.2818 63.5092 60.7343 63.3028 61.2873 63.3028C61.8403 63.3028 62.2928 63.0963 62.2928 62.844C62.2928 62.5917 62.7453 62.3853 63.2983 62.3853C63.8514 62.3853 64.3039 62.1789 64.3039 61.9266C64.3039 61.6445 66.8177 61.4679 70.8398 61.4679C74.8619 61.4679 77.3757 61.6445 77.3757 61.9266ZM140.127 62.2339C140.737 62.7908 140.796 63.0514 140.342 63.1894C139.987 63.2972 139.718 64.1532 139.718 65.1757V66.9725H136.917C133.602 66.9725 132.68 67.6147 132.68 69.9216C132.68 70.8225 132.453 71.5596 132.177 71.5596C131.897 71.5596 131.674 72.783 131.674 74.3119V77.0642H134.188C136.646 77.0642 136.702 77.0335 136.702 75.6881C136.702 74.7404 136.949 74.3119 137.495 74.3119C137.932 74.3119 139.158 73.4862 140.221 72.4771C142.575 70.2413 143.74 70.0894 143.74 72.0183C143.74 72.7752 143.514 73.3945 143.238 73.3945C142.961 73.3945 142.735 74.2202 142.735 75.2294V77.0642H146.254H149.773V79.8165V82.5688H145.967C141.411 82.5688 140.724 83.0151 140.724 85.9766C140.724 87.1298 140.498 88.0734 140.221 88.0734C139.944 88.0734 139.718 89.0885 139.718 90.3289C139.718 91.6844 139.467 92.6908 139.09 92.8518C138.587 93.0656 138.587 93.1729 139.09 93.3867C139.436 93.5339 139.718 94.05 139.718 94.5335C139.718 95.283 140.09 95.4128 142.232 95.4128H144.746V97.0509C144.746 99.5216 143.895 100 139.503 100C137.3 100 135.696 99.8069 135.696 99.5413C135.696 99.289 135.244 99.0826 134.691 99.0826C134.02 99.0826 133.685 98.7766 133.685 98.1651C133.685 97.6605 133.459 97.2477 133.182 97.2477C132.903 97.2477 132.68 96.0243 132.68 94.4954C132.68 92.9665 132.903 91.7431 133.182 91.7431C133.462 91.7431 133.685 90.5197 133.685 88.9908C133.685 87.4619 133.908 86.2385 134.188 86.2385C134.464 86.2385 134.691 85.4128 134.691 84.4037V82.5688H132.177H129.663V84.4037C129.663 85.4128 129.437 86.2385 129.16 86.2385C128.884 86.2385 128.657 87.2706 128.657 88.5321C128.657 89.7936 128.431 90.8257 128.155 90.8257C127.875 90.8257 127.652 92.0491 127.652 93.578C127.652 95.1069 127.429 96.3303 127.149 96.3303C126.873 96.3303 126.646 97.3624 126.646 98.6239C126.646 99.8853 126.42 100.917 126.144 100.917C125.867 100.917 125.641 101.95 125.641 103.211C125.641 104.472 125.415 105.505 125.138 105.505C124.862 105.505 124.635 106.537 124.635 107.798V110.092H121.116C119.105 110.092 117.597 109.895 117.597 109.633C117.597 109.381 117.823 109.174 118.099 109.174C118.376 109.174 118.602 108.142 118.602 106.881C118.602 105.619 118.828 104.587 119.105 104.587C119.385 104.587 119.608 103.364 119.608 101.835C119.608 100.306 119.831 99.0826 120.11 99.0826C120.387 99.0826 120.613 98.0505 120.613 96.789C120.613 95.5275 120.84 94.4954 121.116 94.4954C121.393 94.4954 121.619 93.4633 121.619 92.2018C121.619 90.9404 121.845 89.9083 122.122 89.9083C122.398 89.9083 122.624 88.8761 122.624 87.6147C122.624 86.3532 122.851 85.3211 123.127 85.3211C123.404 85.3211 123.63 84.7018 123.63 83.945C123.63 82.5995 123.574 82.5688 121.116 82.5688C119.733 82.5688 118.602 82.4601 118.602 82.3275C118.602 81.7532 123.172 77.9816 123.868 77.9816C124.385 77.9816 124.635 77.5335 124.635 76.6055C124.635 75.8486 124.862 75.2294 125.138 75.2294C125.415 75.2294 125.641 74.1972 125.641 72.9358C125.641 71.6743 125.867 70.6422 126.144 70.6422C126.42 70.6422 126.646 69.8165 126.646 68.8073C126.646 67.7982 126.873 66.9725 127.149 66.9725C127.426 66.9725 127.652 66.656 127.652 66.2693C127.652 65.8821 128.436 64.85 129.395 63.9757C130.353 63.1009 131.484 62.3853 131.909 62.3853C132.333 62.3853 132.68 62.1789 132.68 61.9266C132.68 61.6674 134.116 61.4679 135.983 61.4679C138.399 61.4679 139.513 61.6739 140.127 62.2339ZM109.552 76.6055C109.552 76.8578 110.457 77.0642 111.564 77.0642C112.67 77.0642 113.575 77.2706 113.575 77.5229C113.575 77.7752 113.93 77.9816 114.364 77.9816C114.799 77.9816 115.478 78.2766 115.873 78.6371C116.268 78.9972 116.591 79.6165 116.591 80.0133C116.591 80.4096 116.817 80.7339 117.094 80.7339C117.387 80.7339 117.597 82.2628 117.597 84.4037C117.597 86.5445 117.387 88.0734 117.094 88.0734C116.817 88.0734 116.591 89.1055 116.591 90.367C116.591 91.6284 116.365 92.6605 116.088 92.6605C115.812 92.6605 115.586 93.6927 115.586 94.9541C115.586 96.2156 115.359 97.2477 115.083 97.2477C114.806 97.2477 114.58 97.867 114.58 98.6239C114.58 99.9977 114.576 100 111.605 100C109.717 100 108.524 99.7904 108.337 99.4266C108.103 98.9679 107.985 98.9679 107.751 99.4266C107.39 100.133 99.4972 100.243 99.4972 99.5413C99.4972 99.289 99.1418 99.0826 98.7074 99.0826C97.6913 99.0826 96.4807 97.978 96.4807 97.0509C96.4807 96.6546 96.2544 96.3303 95.9779 96.3303C95.6984 96.3303 95.4751 95.1069 95.4751 93.578C95.4751 92.0491 95.6984 90.8257 95.9779 90.8257C96.2544 90.8257 96.4807 90.5092 96.4807 90.1225C96.4807 88.9665 99.824 86.2385 101.24 86.2385C101.941 86.2385 102.514 86.0321 102.514 85.7798C102.514 85.5275 103.419 85.3211 104.525 85.3211C105.631 85.3211 106.536 85.5275 106.536 85.7798C106.536 86.0321 107.441 86.2385 108.547 86.2385C109.653 86.2385 110.558 86.445 110.558 86.6972C110.558 86.9495 110.784 87.156 111.061 87.156C111.337 87.156 111.564 86.4243 111.564 85.5298C111.564 83.1271 109.755 81.6514 106.81 81.6514C105.553 81.6514 104.525 81.8578 104.525 82.1101C104.525 82.3624 103.62 82.5688 102.514 82.5688C100.838 82.5688 100.503 82.4161 100.503 81.6514C100.503 81.1468 100.729 80.7339 101.006 80.7339C101.282 80.7339 101.508 79.9083 101.508 78.8991V77.0642H104.022C105.405 77.0642 106.536 76.8578 106.536 76.6055C106.536 76.3532 107.215 76.1468 108.044 76.1468C108.874 76.1468 109.552 76.3532 109.552 76.6055ZM91.453 77.5229C91.453 77.7752 92.358 77.9816 93.4641 77.9816C94.5702 77.9816 95.4751 77.7752 95.4751 77.5229C95.4751 77.2706 96.1539 77.0642 96.9834 77.0642C98.3243 77.0642 98.4917 77.217 98.4917 78.4404C98.4917 79.1972 98.2655 79.8165 97.989 79.8165C97.7124 79.8165 97.4862 80.4358 97.4862 81.1927C97.4862 82.4922 97.3746 82.5688 95.4751 82.5688C94.3691 82.5688 93.4641 82.7752 93.4641 83.0275C93.4641 83.2798 93.1147 83.4862 92.6873 83.4862C92.26 83.4862 91.355 83.9931 90.6763 84.6124C89.7276 85.4775 89.442 86.2211 89.442 87.8234C89.442 88.9702 89.2157 89.9083 88.9392 89.9083C88.6597 89.9083 88.4365 91.1316 88.4365 92.6605C88.4365 94.1894 88.2132 95.4128 87.9337 95.4128C87.6572 95.4128 87.4309 96.445 87.4309 97.7064V100H84.4144H81.3978V97.7064C81.3978 96.445 81.624 95.4128 81.9006 95.4128C82.1801 95.4128 82.4033 94.1894 82.4033 92.6605C82.4033 91.1316 82.6265 89.9083 82.9061 89.9083C83.1826 89.9083 83.4088 88.8761 83.4088 87.6147C83.4088 86.3532 83.6351 85.3211 83.9116 85.3211C84.1911 85.3211 84.4144 84.0977 84.4144 82.5688C84.4144 81.0399 84.6376 79.8165 84.9171 79.8165C85.1936 79.8165 85.4199 79.1972 85.4199 78.4404V77.0642H88.4365C90.1122 77.0642 91.453 77.2679 91.453 77.5229ZM102.137 91.5119C100.828 92.8683 101.843 95.4128 103.693 95.4128C104.105 95.4128 104.573 95.6711 104.735 95.9862C104.969 96.445 105.086 96.445 105.321 95.9862C105.482 95.6711 105.945 95.4128 106.349 95.4128C107.536 95.4128 109.552 93.2601 109.552 91.9931C109.552 90.856 109.465 90.8261 106.159 90.8431C103.878 90.855 102.559 91.0743 102.137 91.5119Z" fill="#9E22E9"/>
</svg>
