<svg width="200" height="200" viewBox="0 0 200 200" fill="none" xmlns="http://www.w3.org/2000/svg">
<path d="M44.3975 32.5597C48.4789 32.7806 52.532 33.3697 56.5075 34.3197C56.6675 34.3197 56.8575 34.3197 56.9575 34.5497C57.0675 34.9497 56.7475 35.0897 56.5175 35.2597C54.0575 37.0497 51.5775 38.8197 49.1175 40.5997C44.3708 44.0197 39.6341 47.4297 34.9075 50.8297L29.4375 54.7697C29.2175 54.9197 28.9875 55.1697 28.6675 54.9297C28.6675 52.823 28.6675 50.713 28.6675 48.5997V32.4497H40.6675C41.2744 32.5248 41.8869 32.5449 42.4975 32.5097H43.3175C43.6782 32.495 44.0396 32.5118 44.3975 32.5597Z" fill="#9E22E9"/>
<path d="M133.272 32.4497C133.602 32.7297 134.022 32.5897 134.392 32.6597C135.152 32.8097 135.932 32.8897 136.712 32.9897C136.932 33.2697 136.712 33.4897 136.592 33.7097C132.452 40.4697 128.422 47.2997 124.322 54.0897L119.512 62.0897H113.172C112.962 61.7397 113.252 61.5097 113.392 61.2697C116.462 56.0897 119.602 50.9697 122.692 45.8097C125.132 41.7164 127.582 37.6364 130.042 33.5697C130.173 33.4213 130.25 33.2329 130.261 33.0351C130.272 32.8373 130.216 32.6416 130.102 32.4797H131.422C131.642 32.6097 131.882 32.4797 132.112 32.5397C132.413 32.5694 132.717 32.5491 133.012 32.4797L133.272 32.4497Z" fill="#9E22E9"/>
<path d="M109.32 60.7597L106.41 56.1297C107.65 54.3387 108.798 52.4863 109.85 50.5797C113.41 44.6697 116.95 38.7597 120.52 32.8597C120.607 32.7083 120.715 32.5703 120.84 32.4497H126.39C126.6 32.7997 126.32 33.0297 126.17 33.2797C123.504 37.7064 120.837 42.1397 118.17 46.5797C115.44 51.0997 112.74 55.6497 110.01 60.1697C109.85 60.4297 109.77 60.8197 109.32 60.7597Z" fill="#9E22E9"/>
<path d="M109.318 60.7597C109.994 60.0069 110.56 59.1617 110.998 58.2497C113.698 53.8097 116.365 49.3564 118.998 44.8897L126.248 32.8197C126.299 32.7 126.339 32.5762 126.368 32.4497H130.078C130.588 32.5997 130.648 32.8297 130.348 33.3197C127.738 37.6097 125.168 41.9297 122.578 46.2397C119.988 50.5497 117.578 54.6197 115.008 58.8197C114.315 59.8562 113.694 60.9387 113.148 62.0597C112.218 62.0597 111.298 62.0597 110.368 62.0597C110.25 62.0699 110.131 62.0412 110.03 61.9781C109.929 61.915 109.851 61.8208 109.808 61.7097C109.668 61.4097 109.488 61.0897 109.318 60.7597Z" fill="#9E22E9"/>
<path d="M171.358 76.0003C171.218 76.0003 171.238 76.1703 171.208 76.2703C168.208 80.8603 165.508 85.5903 162.698 90.2703C158.938 96.5103 155.158 102.75 151.418 109C151.228 109.32 151.088 109.69 150.628 109.71C149.758 109.213 149.044 108.482 148.568 107.6C154.068 98.6003 159.468 89.5003 164.928 80.4503C166.718 77.4503 168.498 74.4503 170.308 71.5203C170.631 71.0559 170.9 70.5559 171.108 70.0303C171.358 70.4403 171.048 70.9703 171.358 71.3703V71.5103C171.208 71.8303 171.358 72.1703 171.288 72.5103V74.6003C171.288 74.9403 171.208 75.2803 171.358 75.6003V76.0003Z" fill="#9E22E9"/>
<path d="M120.84 32.4494C120.268 33.6613 119.599 34.8251 118.84 35.9294C116.33 40.1394 113.78 44.3394 111.25 48.5494C109.87 50.8394 108.51 53.1494 107.12 55.4394C106.95 55.7194 106.83 56.1094 106.39 56.1294C105.56 54.9294 104.72 53.7394 103.89 52.5494C106.3 48.6594 108.61 44.7094 110.97 40.7894L115.78 32.7894C115.856 32.654 115.95 32.5296 116.06 32.4194L120.84 32.4494Z" fill="#9E22E9"/>
<path d="M95.3325 42.8897C93.4725 41.2197 91.6325 39.5197 89.6625 37.9797C87.3016 36.1159 84.8377 34.3865 82.2825 32.7997C82.1225 32.6997 81.9125 32.6397 81.8225 32.4497H101.533C101.753 32.7197 101.533 32.9397 101.423 33.1597C99.5625 36.1597 97.7525 39.2697 95.9125 42.3197C95.7725 42.5497 95.6825 42.8597 95.3325 42.8897Z" fill="#9E22E9"/>
<path d="M100.843 48.7305L98.0826 45.7305C98.9826 44.1405 99.9726 42.6105 100.913 41.0405C102.613 38.1905 104.333 35.3505 106.023 32.5005H110.653C110.923 32.9105 110.653 33.2105 110.433 33.5005C108.703 36.4005 106.973 39.2805 105.233 42.1705C104.083 44.1005 102.933 46.0305 101.763 47.9405C101.553 48.2505 101.413 48.7405 100.843 48.7305Z" fill="#9E22E9"/>
<path d="M105.998 32.4499C105.799 33.2355 105.426 33.9667 104.908 34.5899C102.908 38.0499 100.778 41.4899 98.688 44.9399C98.518 45.2099 98.388 45.5299 98.058 45.6799C97.058 44.8299 96.258 43.7899 95.308 42.8899C96.508 40.8899 97.708 38.9599 98.898 36.9899C99.698 35.6799 100.478 34.3599 101.278 32.9899C101.425 32.8286 101.507 32.6183 101.508 32.3999L105.998 32.4499Z" fill="#9E22E9"/>
<path d="M100.839 48.7297C101.532 48.0853 102.081 47.3015 102.449 46.4297C105.089 42.0897 107.699 37.7197 110.309 33.3597C110.519 33.1017 110.639 32.7821 110.649 32.4497H113.649C113.909 32.8097 113.649 33.0697 113.469 33.3397C111.299 36.9997 109.089 40.6297 106.889 44.2797C105.669 46.2797 104.449 48.3597 103.209 50.3997C103.069 50.6297 102.989 51.0297 102.539 50.8297L100.839 48.7297Z" fill="#9E22E9"/>
<path d="M102.582 50.8294C103.122 50.7394 103.172 50.2094 103.382 49.8294C106.762 44.2561 110.126 38.6761 113.472 33.0894C113.625 32.9002 113.703 32.6621 113.692 32.4194H116.082C116.016 32.8298 115.832 33.212 115.552 33.5194C113.032 37.7261 110.502 41.9328 107.962 46.1394L104.312 52.2394C104.281 52.3204 104.226 52.3902 104.155 52.44C104.084 52.4898 103.999 52.5175 103.912 52.5194L102.582 50.8294Z" fill="#9E22E9"/>
<path d="M169.999 116.179C170.536 118.083 170.904 120.031 171.099 121.999C171.096 122.625 171.183 123.248 171.359 123.849V123.999C171.209 124.319 171.359 124.669 171.289 124.999V127.219C171.289 127.559 171.209 127.899 171.359 128.219V128.619C171.059 128.969 171.359 129.429 171.139 129.799C170.809 129.939 170.669 129.659 170.499 129.489C169.689 128.709 168.909 127.889 168.099 127.099C167.289 126.309 166.469 125.389 165.539 124.649C165.279 124.439 164.949 124.239 164.989 123.819C166.419 121.629 167.689 119.349 169.059 117.129C169.209 116.879 169.339 116.629 169.509 116.399C169.679 116.169 169.759 115.999 169.999 116.179Z" fill="#9E22E9"/>
<path d="M171.25 127.291V124.901C171.25 124.851 171.33 124.851 171.36 124.901V127.281C171.36 127.281 171.29 127.351 171.25 127.291Z" fill="#9E22E9"/>
<path d="M171.25 74.6494V72.3794C171.25 72.3794 171.33 72.3794 171.36 72.3794V74.6294C171.33 74.6994 171.29 74.6994 171.25 74.6494Z" fill="#9E22E9"/>
<path d="M42.5412 32.5704C41.9223 32.6412 41.2958 32.6004 40.6912 32.4497H42.5412C42.5412 32.4497 42.6012 32.4497 42.5412 32.5301C42.4812 32.6106 42.5612 32.5704 42.5412 32.5704Z" fill="#9E22E9"/>
<path d="M44.3985 32.5597H43.3385C43.2885 32.5597 43.2685 32.5597 43.2885 32.4893C43.3085 32.4189 43.2885 32.4893 43.2885 32.4893H44.3485C44.3485 32.4893 44.3985 32.5195 44.3985 32.5597Z" fill="#9E22E9"/>
<path d="M171.362 124.91H171.252C171.252 124.6 171.092 124.27 171.362 123.99V124.91Z" fill="#9E22E9"/>
<path d="M171.252 74.6509H171.362V75.5809C171.092 75.2909 171.282 75.0009 171.252 74.6509Z" fill="#9E22E9"/>
<path d="M171.252 127.289H171.362V128.209C171.092 127.939 171.282 127.599 171.252 127.289Z" fill="#9E22E9"/>
<path d="M133.002 32.4497C132.722 32.7312 132.392 32.51 132.082 32.5603C132.032 32.5603 132.012 32.5603 132.032 32.4899C132.052 32.4195 132.032 32.4899 132.032 32.4899L133.002 32.4497Z" fill="#9E22E9"/>
<path d="M171.356 72.389H171.246C171.246 72.089 171.076 71.749 171.356 71.479V72.389Z" fill="#9E22E9"/>
<path d="M43.3303 32.4485C43.3303 32.4485 43.3303 32.5189 43.3303 32.5591H42.5303V32.4385L43.3303 32.4485Z" fill="#9E22E9"/>
<path d="M132.08 32.4497C132.08 32.4497 132.08 32.5201 132.08 32.5603C131.85 32.5603 131.6 32.6609 131.41 32.4497H132.08Z" fill="#9E22E9"/>
<path d="M94.6875 140.4C93.381 142.226 91.9545 143.963 90.4175 145.6C88.4452 147.769 86.3233 149.798 84.0675 151.67C83.4775 152.17 82.8475 152.67 82.2375 153.12C80.5675 153.18 78.8875 153.26 77.2375 153.27C71.7275 153.27 66.2375 153.53 60.7275 153.59C58.7275 153.59 56.7275 153.59 54.7875 153.7C50.5875 153.85 46.3775 153.87 42.1775 153.99C40.1775 153.99 38.1775 153.99 36.1775 154.11C33.8675 154.28 31.5575 154.11 29.2475 154.27C29.1503 154.289 29.0501 154.288 28.9535 154.265C28.857 154.243 28.7663 154.2 28.6875 154.14V141.7C28.7409 141.604 28.8191 141.523 28.914 141.467C29.0089 141.41 29.1172 141.381 29.2275 141.38C29.3607 141.37 29.4943 141.37 29.6275 141.38C33.0875 141.47 36.5375 141.27 39.9975 141.22C44.2875 141.16 48.5775 141.06 52.8575 140.95C54.7975 140.9 56.7375 140.95 58.6675 140.84C62.9175 140.68 67.1575 140.66 71.4075 140.55C73.2975 140.5 75.1875 140.55 77.0775 140.45C81.3475 140.28 85.6175 140.24 89.8875 140.16C91.1775 140.16 92.4775 140.05 93.7775 140.06C94.0975 140.05 94.4775 140 94.6875 140.4Z" fill="#9E22E9"/>
<path d="M94.6938 140.4C94.4156 140.261 94.102 140.209 93.7938 140.25C90.7938 140.25 87.7938 140.35 84.7938 140.42C82.7938 140.47 80.7938 140.42 78.7238 140.53C76.6538 140.64 74.5438 140.53 72.4638 140.67C70.3838 140.81 68.4638 140.67 66.5338 140.8C64.3938 140.96 62.2538 140.8 60.1338 140.94C58.3338 141.08 56.5238 140.94 54.7338 141.05C52.4038 141.2 50.0638 141.05 47.7338 141.21C45.7338 141.33 43.7338 141.21 41.8038 141.33C39.8738 141.45 37.6638 141.33 35.6038 141.46C33.5438 141.59 31.3838 141.46 29.2738 141.57C29.0525 141.553 28.8308 141.598 28.6338 141.7C28.6338 140.62 28.6338 139.54 28.6338 138.46C28.6338 137.99 28.7738 137.88 29.2338 137.88C33.2338 137.88 37.2938 137.95 41.3238 137.88C50.0138 137.787 58.395 134.644 65.0038 129C69.1866 125.527 72.5473 121.169 74.8438 116.24C74.9079 116.124 74.978 116.01 75.0538 115.9C75.2238 115.95 75.3742 116.051 75.4838 116.19C76.8838 117.57 78.2238 119.01 79.7038 120.32C82.3238 122.85 84.8638 125.45 87.4438 128.03C88.0104 128.446 88.5331 128.919 89.0038 129.44C91.5138 131.82 93.9138 134.31 96.3638 136.75C96.5638 136.95 96.8938 137.1 96.8138 137.49C96.1703 138.505 95.4622 139.477 94.6938 140.4V140.4Z" fill="#9E22E9"/>
<path d="M121.371 137.73C124.271 137.73 127.171 137.73 130.081 137.73C131.963 137.734 133.817 137.277 135.481 136.4C137.146 135.522 138.57 134.251 139.631 132.697C140.691 131.142 141.354 129.352 141.564 127.482C141.773 125.613 141.522 123.72 140.831 121.97L140.591 121.36C140.947 121.004 141.351 120.701 141.791 120.46C145.211 117.98 148.651 115.54 152.071 113.06C152.424 112.726 152.865 112.501 153.341 112.41C153.761 112.48 153.951 112.84 154.241 113.08C155.191 114.08 156.241 115.02 157.241 115.99C158.511 117.28 159.801 118.56 161.081 119.83C161.801 120.57 162.541 121.28 163.261 122.02C163.451 122.22 163.701 122.39 163.711 122.71C163.721 123.03 163.231 123.26 162.931 123.48C156.371 128.186 149.815 132.906 143.261 137.64C136.708 142.373 130.095 147.13 123.421 151.91L117.361 156.28C117.101 156.517 116.784 156.686 116.441 156.77C116.202 156.721 115.988 156.585 115.841 156.39C113.221 153.81 110.531 151.28 107.961 148.63C107.771 148.44 107.501 148.27 107.521 147.94C108.631 147 109.861 146.22 111.031 145.37C114.181 143.07 117.351 140.81 120.511 138.54C120.837 138.314 121.126 138.041 121.371 137.73V137.73Z" fill="#9E22E9"/>
<path d="M28.6707 154.14C29.9145 153.987 31.1694 153.943 32.4207 154.01C35.2807 153.97 38.1374 153.91 40.9907 153.83C42.9907 153.77 44.9907 153.83 47.0507 153.72C49.1107 153.61 51.2307 153.72 53.3107 153.58C55.3907 153.44 57.3107 153.58 59.3107 153.46C61.3107 153.34 63.5307 153.46 65.6307 153.32C67.5707 153.17 69.5107 153.32 71.4307 153.19C73.6107 153.02 75.7907 153.19 77.9507 153.05C79.1607 152.97 80.3707 152.99 81.5707 152.95C81.8007 152.95 82.0707 152.87 82.2407 153.12C80.1769 154.809 77.9909 156.344 75.7007 157.71C70.0596 161.164 63.9358 163.759 57.5307 165.41C53.551 166.466 49.4789 167.135 45.3707 167.41C39.9807 167.73 34.5707 167.5 29.1807 167.57C28.8607 167.57 28.6407 167.57 28.6407 167.13C28.6607 162.78 28.6607 158.46 28.6707 154.14Z" fill="#9E22E9"/>
<path d="M79.5721 120.409L75.5721 116.409C75.3921 116.229 75.2321 116.019 75.0621 115.819C76.1158 113.486 76.9462 111.059 77.5421 108.569C77.7521 107.649 77.9321 106.729 78.1221 105.809C79.7121 104.619 81.3321 103.479 82.9421 102.329C88.5687 98.2692 94.2021 94.2158 99.8421 90.1692L105.952 85.7592C106.126 85.5876 106.344 85.4666 106.582 85.4092C107.03 87.132 107.364 88.8825 107.582 90.6492C108.032 93.7414 108.232 96.8648 108.182 99.9892C106.962 100.989 105.632 101.879 104.352 102.799L87.1621 115.209C84.8521 116.869 82.5521 118.539 80.2321 120.209C80.0021 120.319 79.8421 120.479 79.5721 120.409Z" fill="#9E22E9"/>
<path d="M170.588 133.641C170.203 136.12 169.532 138.546 168.588 140.871C165.033 150.236 158.166 157.971 149.288 162.611C144.642 165.108 139.541 166.645 134.288 167.131C133.565 167.215 132.837 167.255 132.108 167.251C130.498 167.361 128.878 167.321 127.268 167.251C126.508 167.251 126.138 166.511 125.708 165.961C125.708 165.441 126.078 165.231 126.398 164.961L131.758 161.101L146.758 150.301L163.428 138.301L169.598 133.871C169.888 133.731 170.148 133.351 170.588 133.641Z" fill="#9E22E9"/>
<path d="M106.572 85.4592C105.519 86.3483 104.414 87.1731 103.262 87.9292C99.4482 90.7025 95.6282 93.4625 91.8016 96.2091L82.3516 102.999C81.1516 103.859 79.9516 104.699 78.7616 105.559C78.5761 105.716 78.3514 105.82 78.1116 105.859L78.4116 103.199C78.5116 102.939 78.4116 102.639 78.5016 102.379C78.5816 100.09 78.5014 97.7974 78.2616 95.5191C78.0616 93.9291 77.7616 92.3591 77.4116 90.7891C81.6216 87.9392 85.6816 84.8692 89.8216 81.9292C93.9616 78.9892 97.8716 76.1292 101.902 73.2392C102.074 73.1018 102.262 72.9844 102.462 72.8892C103.563 75.2659 104.492 77.7189 105.242 80.2292C105.782 81.9992 106.152 83.7092 106.572 85.4592Z" fill="#9E22E9"/>
<path d="M54.9409 64.8708C53.3709 64.3308 51.8109 63.7508 50.1909 63.3308C47.185 62.568 44.1015 62.152 41.0009 62.0908C40.8209 62.0908 40.6509 62.0908 40.4709 62.0908C40.2609 61.5608 40.7209 61.3908 41.0109 61.1808C42.2009 60.3008 43.4009 59.4508 44.5909 58.5908L59.8109 47.5908C63.5009 44.9308 67.2109 42.2808 70.8909 39.5908C74.4665 41.357 77.8539 43.4812 81.0009 45.9308C81.1009 46.4508 80.6709 46.6208 80.3709 46.8308C78.5176 48.1642 76.6743 49.4975 74.8409 50.8308L60.6609 61.0008C59.0309 62.1808 57.4209 63.3608 55.7709 64.5108C55.5309 64.7208 55.2909 65.0008 54.9409 64.8708Z" fill="#9E22E9"/>
<path d="M170.59 133.639C169.83 133.699 169.37 134.299 168.81 134.699C165.56 136.999 162.33 139.349 159.1 141.699L147.85 149.809L137.37 157.319C133.717 159.939 130.07 162.563 126.43 165.189C126.185 165.375 125.952 165.576 125.73 165.789C125.46 165.869 125.33 165.659 125.18 165.519C123.89 164.269 122.68 162.949 121.31 161.779C121.2 161.71 121.105 161.617 121.033 161.509C120.961 161.4 120.912 161.278 120.89 161.149C120.95 160.799 121.22 160.639 121.47 160.459L148.71 140.839L167.49 127.319C167.69 127.169 167.88 126.949 168.19 127.029C168.99 127.809 169.78 128.589 170.59 129.359C170.76 129.519 170.88 129.749 171.14 129.799C171.067 131.093 170.883 132.377 170.59 133.639V133.639Z" fill="#9E22E9"/>
<path d="M79.5715 120.411C81.1315 119.311 82.7015 118.221 84.2515 117.111C86.9715 115.111 89.6815 113.191 92.4015 111.231L103.711 103.081C105.051 102.081 106.401 101.181 107.711 100.231C107.82 100.119 107.966 100.051 108.121 100.041C108.174 105.939 107.403 111.815 105.831 117.501C105.446 117.892 105.009 118.228 104.531 118.501C99.5315 122.121 94.5315 125.691 89.5315 129.311C89.3215 129.461 89.1215 129.741 88.7815 129.541C88.4615 128.991 87.8815 128.721 87.4515 128.281L80.3415 121.181C80.1315 120.901 79.8515 120.661 79.5715 120.411Z" fill="#9E22E9"/>
<path d="M73.2087 80.6004C71.9645 78.6345 70.5774 76.7628 69.0587 75.0004C67.9587 73.7704 66.7687 72.6204 65.5587 71.4904L79.9987 61.0004L89.2287 54.3604C89.4213 54.177 89.6287 54.0097 89.8487 53.8604C91.0726 55.0507 92.2058 56.331 93.2387 57.6904C94.7212 59.4775 96.0778 61.3653 97.2987 63.3404C96.8362 63.8128 96.3114 64.2199 95.7387 64.5504L77.6187 77.6704C76.4387 78.5104 75.2687 79.3804 74.0787 80.2104C73.8187 80.3904 73.5987 80.6804 73.2087 80.6004Z" fill="#9E22E9"/>
<path d="M73.2125 80.5994L85.2125 71.9694L95.7025 64.4594C96.2037 64.0347 96.7544 63.6721 97.3425 63.3794C98.9459 65.7635 100.357 68.2714 101.563 70.8794C101.873 71.5494 102.163 72.2194 102.463 72.8794C102.303 73.3394 101.833 73.4494 101.463 73.6994L89.4125 82.4594L80.4925 88.8494L78.2025 90.5094C77.9785 90.6894 77.7 90.7881 77.4125 90.7894C76.4703 87.2216 75.058 83.7949 73.2125 80.5994V80.5994Z" fill="#9E22E9"/>
<path d="M153.37 112.47C152.343 112.966 151.388 113.599 150.53 114.35C147.79 116.28 145.09 118.26 142.36 120.21C141.832 120.673 141.235 121.051 140.59 121.33C139.887 119.852 138.879 118.541 137.633 117.481C136.387 116.421 134.931 115.636 133.36 115.18C132.212 114.852 131.023 114.697 129.83 114.72H120.58C120.58 114.31 120.87 114.15 121.13 113.97C127.063 109.703 132.996 105.436 138.93 101.17C139.465 100.652 140.093 100.238 140.78 99.9497C141.053 100.029 141.293 100.198 141.46 100.43C142.33 101.29 143.19 102.16 144.06 103.01C145.34 104.39 146.77 105.61 148.06 106.94C148.26 107.13 148.51 107.29 148.57 107.6C149.184 108.316 149.853 108.985 150.57 109.6C151.183 110.045 151.746 110.554 152.25 111.12C152.52 111.4 152.81 111.67 153.08 111.96C153.35 112.25 153.46 112.2 153.37 112.47Z" fill="#9E22E9"/>
<path d="M158.793 44.0996C160.274 45.4506 161.614 46.9483 162.793 48.5696C162.963 48.8596 162.793 49.0696 162.643 49.2896C157.813 57.2896 153.053 65.2896 148.233 73.2396C144.453 79.4896 140.713 85.7796 136.943 92.0396C136.553 92.6796 136.183 93.3296 135.773 93.9596C135.633 94.1696 135.513 94.4296 135.193 94.4496C134.873 94.4696 134.663 94.1596 134.453 93.9396C133.453 92.9396 132.403 91.9396 131.363 90.8696C131.123 90.5196 130.643 90.3396 130.603 89.8696C131.703 88.4596 132.473 86.8696 133.453 85.3596C133.615 85.1223 133.724 84.8529 133.773 84.5696C135.051 84.0879 136.249 83.4135 137.323 82.5696C138.756 81.448 139.898 79.9967 140.65 78.3392C141.402 76.6817 141.743 74.867 141.643 73.0496V72.5196C144.583 67.6596 147.51 62.7929 150.423 57.9196C153.113 53.4196 155.853 48.9196 158.523 44.4496C158.583 44.3196 158.643 44.1696 158.793 44.0996Z" fill="#9E22E9"/>
<path d="M121.002 161.15L124.102 164.15L125.762 165.75C126.152 166.16 126.552 166.57 126.932 166.99C127.029 167.079 127.146 167.144 127.272 167.18C127.399 167.217 127.532 167.224 127.662 167.2H132.142C131.786 167.309 131.412 167.343 131.042 167.3H82.2919C82.3122 167.231 82.339 167.164 82.3719 167.1C85.9806 164.815 89.4195 162.271 92.6619 159.49C95.7419 159.49 98.8219 159.49 101.892 159.33H102.232C105.442 159.42 108.662 159.15 111.872 159.19C113.702 159.19 115.522 158.98 117.352 159.06C117.542 159.06 117.792 159.06 117.882 158.89C117.972 158.72 117.772 158.57 117.672 158.44C117.538 158.294 117.427 158.129 117.342 157.95C117.342 157.79 117.342 157.62 117.562 157.68C117.69 157.717 117.804 157.79 117.892 157.89C118.892 158.89 119.822 159.8 120.782 160.78C120.881 160.886 120.956 161.012 121.002 161.15Z" fill="#9E22E9"/>
<path d="M131.42 90.78L134.49 93.78C134.69 93.98 134.91 94.16 135.12 94.35C135.313 94.4525 135.491 94.5803 135.65 94.73C136.85 96.01 138.19 97.13 139.43 98.37C139.78 98.73 140.15 99.07 140.49 99.44C140.65 99.61 140.89 99.74 140.81 100.04C140.029 100.475 139.293 100.984 138.61 101.56C135.61 103.68 132.61 105.85 129.61 108L121.14 114.1C120.923 114.282 120.722 114.483 120.54 114.7H118.69C118.44 114.7 118.28 114.7 118.34 114.34C119.286 109.281 119.761 104.146 119.76 99C119.841 98.8703 119.95 98.7608 120.08 98.68C123.62 96.1067 127.17 93.55 130.73 91.01C130.92 90.86 131.1 90.58 131.42 90.78Z" fill="#9E22E9"/>
<path d="M70.8426 39.6204C70.8297 39.7184 70.7928 39.8116 70.7352 39.8918C70.6777 39.9721 70.6012 40.0369 70.5126 40.0804L60.2126 47.4804L48.4226 56.0004L41.2726 61.1504C40.9226 61.3904 40.4826 61.5704 40.4226 62.0804H29.5826C29.4826 61.6704 29.7826 61.4804 30.0426 61.2904C32.8926 59.2904 35.7226 57.2004 38.5626 55.1604L52.3426 45.2504C55.8626 42.7204 59.3426 40.1704 62.9026 37.6505C63.3226 37.3605 63.7126 37.0404 64.1026 36.7104C65.6553 37.2021 67.1585 37.8383 68.5926 38.6104C68.7626 38.7004 68.9526 38.7604 69.1326 38.8404C69.3126 38.9204 69.5526 39.3204 69.9226 39.2004L70.8426 39.6204Z" fill="#9E22E9"/>
<path d="M119.51 62.0593C119.721 61.2762 120.096 60.5469 120.61 59.9193C125.276 52.0593 129.986 44.2159 134.74 36.3893C135.32 35.3893 135.91 34.4793 136.51 33.5293C136.639 33.3794 136.711 33.1875 136.71 32.9893C138.918 33.3011 141.09 33.8372 143.19 34.5893C143.65 34.8793 143.37 35.2093 143.19 35.4893C142.19 37.2293 141.11 38.9693 140.07 40.6993C136 47.4993 131.88 54.2693 127.81 61.0693C127.666 61.4399 127.452 61.7794 127.18 62.0693L119.51 62.0593Z" fill="#9E22E9"/>
<path d="M89.8922 53.9002C89.8722 54.0203 89.8237 54.1339 89.7506 54.2314C89.6775 54.3288 89.582 54.4073 89.4722 54.4602C86.3322 56.7302 83.1722 59.0002 80.0022 61.2502L68.7822 69.3602L66.2122 71.2002C66.0222 71.3302 65.8422 71.5202 65.5622 71.4602C63.9941 70.1465 62.3513 68.9245 60.6423 67.8002C60.5523 67.4502 60.8323 67.3402 61.0423 67.1902C66.9623 62.9435 72.8756 58.6868 78.7822 54.4202C80.7822 52.9702 82.7822 51.5102 84.8422 50.0502C85.0397 49.8748 85.2712 49.742 85.5222 49.6602C86.5251 50.3898 87.4411 51.232 88.2522 52.1702C88.7922 52.7502 89.3422 53.3202 89.8922 53.9002Z" fill="#9E22E9"/>
<path d="M117.4 157.709C117.46 158.149 117.87 158.319 118.11 158.619C118.22 158.759 118.37 158.879 118.28 159.079C118.237 159.158 118.171 159.222 118.09 159.261C118.009 159.301 117.918 159.314 117.83 159.299C117.787 159.294 117.743 159.294 117.7 159.299C114.7 159.249 111.7 159.419 108.7 159.459C106.44 159.459 104.17 159.459 101.92 159.589C99.9797 159.719 98.0597 159.589 96.1297 159.699C95.2297 159.749 94.3397 159.849 93.4397 159.829C93.1297 159.829 92.8197 159.829 92.6097 159.539C94.0497 158.169 95.5497 156.849 96.9397 155.409C99.7539 152.535 102.348 149.453 104.7 146.189C104.84 145.999 105.01 145.819 105.16 145.639C106.096 146.241 106.911 147.015 107.56 147.919C109.17 149.669 110.85 151.339 112.56 152.969C113.85 154.179 115.07 155.479 116.4 156.649C116.89 156.909 117.33 157.139 117.4 157.709Z" fill="#9E22E9"/>
<path d="M85.5214 49.6587C84.6811 50.426 83.7705 51.1123 82.8014 51.7087C76.6414 56.1687 70.4714 60.5987 64.2914 64.9987C63.1914 65.7987 62.0814 66.5887 60.9914 67.3887C60.862 67.5067 60.7448 67.6374 60.6414 67.7787C58.8014 66.6896 56.898 65.7112 54.9414 64.8487C56.5314 63.9387 57.9414 62.7687 59.4214 61.7287C62.1114 59.8387 64.7514 57.8887 67.4214 55.9587C71.8081 52.8254 76.1814 49.682 80.5414 46.5287C80.7551 46.3758 80.9242 46.1687 81.0314 45.9287C82.5514 47.1387 84.0714 48.3587 85.5214 49.6587Z" fill="#9E22E9"/>
<path d="M127.192 62.0603C127.784 60.7645 128.483 59.5202 129.282 58.3403C131.952 53.8703 134.652 49.4203 137.332 44.9703L143.062 35.4203C143.222 35.1603 143.432 34.9103 143.192 34.5903C145.027 35.146 146.802 35.883 148.492 36.7903C148.692 37.1403 148.422 37.3703 148.272 37.6203C145.442 42.3703 142.562 47.0803 139.732 51.8203C137.732 55.2603 135.602 58.6903 133.552 62.1303C133.472 62.2603 133.412 62.4103 133.272 62.4803C131.265 62.131 129.227 61.9903 127.192 62.0603V62.0603Z" fill="#9E22E9"/>
<path d="M158.793 44.0999C158.221 45.3118 157.552 46.4755 156.793 47.5799C154.273 51.8099 151.723 56.0099 149.193 60.2299L142.143 71.9999C142.013 72.2099 141.933 72.4899 141.623 72.5499C141.368 70.3497 140.536 68.2558 139.213 66.4799C140.323 64.4799 141.563 62.5599 142.733 60.5999C146.126 54.9266 149.523 49.2599 152.923 43.5999C153.513 42.5999 154.103 41.5999 154.703 40.6699C155.505 41.1554 156.252 41.7253 156.933 42.3699C157.597 42.8967 158.219 43.4752 158.793 44.0999V44.0999Z" fill="#9E22E9"/>
<path d="M88.8334 129.53C89.9123 128.911 90.9391 128.205 91.9034 127.42C94.8034 125.42 97.6634 123.28 100.533 121.2C102.083 120.09 103.643 118.99 105.173 117.86C105.393 117.7 105.643 117.64 105.863 117.5C104.277 123.519 101.839 129.28 98.6234 134.61C98.0585 135.602 97.441 136.563 96.7734 137.49C96.4122 137.022 96.007 136.59 95.5634 136.2C93.6434 134.27 91.7034 132.36 89.7934 130.41C89.4834 130.1 89.0534 129.93 88.8334 129.53Z" fill="#9E22E9"/>
<path d="M28.6675 54.9293C28.9975 54.9293 29.2075 54.7493 29.4275 54.5893L42.5675 45.1293L56.5675 35.0493C56.7484 34.9245 56.8905 34.7512 56.9775 34.5493C58.0844 34.7631 59.1766 35.0471 60.2475 35.3993L60.6775 35.5093C61.1175 35.8393 60.7675 36.0393 60.5375 36.2093C59.5975 36.9293 58.6175 37.6193 57.6575 38.3093C54.9775 40.1993 52.3375 42.1393 49.6575 44.0493C46.7475 46.1093 43.8675 48.2093 40.9675 50.2893C37.2208 52.956 33.4741 55.656 29.7275 58.3893C29.4175 58.6093 29.1375 58.9593 28.7275 58.7693L28.6675 54.9293Z" fill="#9E22E9"/>
<path d="M133.267 62.48C133.83 61.2637 134.5 60.0993 135.267 59C137.697 54.9 140.157 50.83 142.617 46.74C144.477 43.64 146.344 40.54 148.217 37.44C148.364 37.2486 148.467 37.0265 148.517 36.79C149.714 37.3258 150.861 37.9649 151.947 38.7C152.117 39.08 151.797 39.32 151.647 39.58C148.477 44.85 145.337 50.13 142.147 55.38C140.477 58.13 138.837 60.89 137.147 63.65C137.027 63.84 136.997 64.15 136.657 64.08C135.576 63.449 134.441 62.9136 133.267 62.48V62.48Z" fill="#9E22E9"/>
<path d="M131.42 90.7803C130.445 91.3554 129.512 92.0004 128.63 92.7103C125.843 94.7103 123.06 96.7103 120.28 98.7103C120.139 98.8509 119.957 98.9421 119.76 98.9703V98.9703C119.6 98.1803 119.76 97.3803 119.66 96.5803V95.4203C119.52 95.0703 119.66 94.6903 119.56 94.3403C119.322 91.3815 118.929 88.4374 118.38 85.5203C118.32 85.1803 118.38 85.0403 118.76 85.0503H125.76C125.788 85.0829 125.822 85.11 125.86 85.1303C127.48 86.6203 129.14 88.0603 130.62 89.7003C130.631 89.7429 130.631 89.7877 130.62 89.8303L131.42 90.7803Z" fill="#9E22E9"/>
<path d="M136.668 64.0797C137.438 62.8097 138.228 61.5497 138.998 60.2697L147.048 46.8997C148.678 44.1697 150.288 41.4297 151.918 38.6997C152.882 39.3122 153.81 39.98 154.698 40.6997C154.473 41.5065 154.085 42.2587 153.558 42.9097C150.608 47.9097 147.618 52.7997 144.648 57.7397L139.648 66.0797C139.554 66.2539 139.412 66.3965 139.238 66.4897C138.46 65.6058 137.6 64.7987 136.668 64.0797V64.0797Z" fill="#9E22E9"/>
<path d="M64.1028 36.6907C63.9928 37.2507 63.4728 37.4207 63.1028 37.6907C57.1028 42.0107 51.1028 46.3174 45.1028 50.6107L30.1028 61.4407C29.8969 61.605 29.7354 61.8181 29.6328 62.0607C28.7028 62.1207 28.7028 62.1207 28.7028 61.2107C28.7028 60.6107 28.7028 60.0207 28.7028 59.4307C29.301 58.8256 29.973 58.2982 30.7028 57.8607C32.4928 56.5407 34.2928 55.2507 36.1128 53.9607L40.8828 50.5407L46.0028 46.8707L51.7328 42.7507C53.4328 41.5407 55.1228 40.3107 56.8128 39.0807C58.0628 38.1807 59.2928 37.2607 60.5728 36.4007C60.8728 36.2007 60.9728 35.7607 61.4028 35.7407C62.0815 36.0247 62.78 36.2587 63.4928 36.4407C63.6728 36.5107 63.7828 36.7407 64.0328 36.6507C64.0588 36.6589 64.0826 36.6725 64.1028 36.6907Z" fill="#9E22E9"/>
<path d="M107.608 147.919C106.828 147.139 105.918 146.499 105.208 145.639C106.398 143.789 107.678 141.999 108.778 140.089C109.158 139.429 109.548 138.769 109.928 138.089C109.975 137.967 110.059 137.864 110.169 137.794C110.279 137.724 110.408 137.69 110.538 137.699H121.368C121.376 137.831 121.347 137.962 121.283 138.077C121.219 138.192 121.124 138.286 121.008 138.349L113.448 143.779C111.798 144.969 110.138 146.139 108.508 147.349C108.223 147.562 107.922 147.753 107.608 147.919V147.919Z" fill="#9E22E9"/>
<path d="M130.623 89.8593C128.993 88.2693 127.233 86.8593 125.733 85.0793C126.873 85.0793 128.013 85.0793 129.153 85.0793C130.706 85.1379 132.258 84.9523 133.753 84.5293C133.853 84.5893 133.943 84.6793 133.873 84.7993C132.97 86.477 131.968 88.0999 130.873 89.6593C130.798 89.7355 130.714 89.8026 130.623 89.8593V89.8593Z" fill="#9E22E9"/>
<path d="M61.3527 35.74C61.1027 36.39 60.4627 36.64 59.9727 36.99C57.7527 38.55 55.5727 40.16 53.3827 41.75C51.1927 43.34 49.2327 44.68 47.1727 46.15C44.9627 47.73 42.7627 49.31 40.5727 50.91C38.5727 52.37 36.5727 53.91 34.5727 55.32C32.5727 56.73 30.7627 58.18 28.7227 59.43V58.77C29.3464 58.5576 29.9186 58.2169 30.4027 57.77C32.5527 56.25 34.6627 54.69 36.7927 53.16L47.7927 45.23L53.1027 41.39C55.5527 39.61 57.9927 37.84 60.4527 36.08C60.6727 35.92 60.8627 35.81 60.6627 35.52C60.9087 35.5276 61.1477 35.6038 61.3527 35.74Z" fill="#9E22E9"/>
<path d="M119.67 96.5996C119.798 97.3895 119.832 98.1918 119.77 98.9896C119.657 98.1983 119.623 97.3976 119.67 96.5996V96.5996Z" fill="#9E22E9"/>
<path d="M69.9205 39.1789C69.5305 39.4489 69.4805 39.4289 69.1305 38.8188C69.4241 38.8566 69.6994 38.9821 69.9205 39.1789V39.1789Z" fill="#9E22E9"/>
<path d="M119.541 94.3599C119.761 94.6999 119.611 95.0799 119.641 95.4399C119.524 95.0927 119.489 94.7227 119.541 94.3599V94.3599Z" fill="#9E22E9"/>
<path d="M64.0024 36.6495C63.6424 37.0195 63.6024 36.6495 63.4624 36.4395C63.6605 36.4488 63.8501 36.5225 64.0024 36.6495Z" fill="#9E22E9"/>
<path d="M78.5028 102.38C78.5028 102.65 78.6029 102.95 78.4128 103.2C78.3672 102.923 78.3983 102.64 78.5028 102.38Z" fill="#9E22E9"/>
<path d="M140.811 99.9996L139.351 98.4096C139.281 98.2096 139.421 98.0796 139.511 97.9396C145.764 87.5263 152.018 77.1229 158.271 66.7296C160.741 62.6296 163.191 58.5296 165.671 54.4396C165.811 54.1996 165.921 53.9196 166.221 53.8096C167.521 56.0449 168.529 58.4378 169.221 60.9296C169.221 61.0296 169.301 61.1296 169.341 61.2296C169.381 61.3296 169.341 61.6396 169.201 61.8296L151.631 91.1296C149.351 94.9296 147.091 98.7296 144.781 102.51C144.611 102.79 144.521 103.27 143.981 103.08L141.351 100.51C141.181 100.35 141.001 100.2 140.811 99.9996Z" fill="#9E22E9"/>
<path d="M166.217 53.8503L161.217 62.2703C158.684 66.4836 156.147 70.6937 153.607 74.9003C151.207 78.9003 148.811 82.9003 146.417 86.9003C144.237 90.527 142.054 94.157 139.867 97.7903C139.727 98.0303 139.547 98.2603 139.387 98.4903C137.9 97.2061 136.487 95.8372 135.157 94.3903C135.617 94.2203 135.757 93.7603 135.967 93.3903C138.307 89.517 140.641 85.6403 142.967 81.7603L150.577 69.1203L158.337 56.1903L162.617 49.0003C162.678 48.8608 162.728 48.7171 162.767 48.5703C164.101 50.2032 165.258 51.9731 166.217 53.8503V53.8503Z" fill="#9E22E9"/>
<path d="M143.997 103.08C144.277 103.08 144.417 102.87 144.547 102.66C148.773 95.5936 153.01 88.5303 157.257 81.4703C161.143 74.9703 165.057 68.4803 168.997 62.0003C169.147 61.7603 169.437 61.6003 169.427 61.2803C170.107 63.2276 170.593 65.2373 170.877 67.2803C171.05 68.1634 171.144 69.0604 171.157 69.9603C171.337 70.7003 170.737 71.1203 170.427 71.6403C166.527 78.1603 162.617 84.6736 158.697 91.1803C155.557 96.3936 152.42 101.6 149.287 106.8C149.117 107.08 148.987 107.4 148.657 107.55C147.057 106.09 145.397 104.71 143.997 103.08Z" fill="#9E22E9"/>
<path d="M153.369 112.47L152.179 111.15C151.969 110.86 152.179 110.65 152.329 110.44C154.629 106.6 156.909 102.76 159.239 98.9501C162.759 93.1701 166.239 87.3601 169.709 81.5601C169.949 81.1701 170.079 80.6401 170.709 80.5601C170.199 83.7519 169.278 86.8644 167.969 89.8201C166.456 93.3639 164.435 96.6686 161.969 99.6301C161.559 100.11 162.139 100.13 162.189 100.38C160.439 103.38 158.639 106.31 156.869 109.28C156.239 110.34 155.599 111.4 154.959 112.45C154.789 112.73 154.669 113.13 154.219 113.09L153.369 112.47Z" fill="#9E22E9"/>
<path d="M161 119.881C159.67 118.651 158.39 117.381 157.17 116.041C157.188 115.778 157.286 115.527 157.45 115.321C159.6 111.721 161.81 108.161 163.95 104.551C164.11 104.271 164.24 103.951 164.59 103.841C165.814 105.58 166.837 107.452 167.64 109.421C166.52 111.421 165.26 113.361 164.08 115.351C163.307 116.684 162.527 117.981 161.74 119.241C161.61 119.521 161.5 119.911 161 119.881Z" fill="#9E22E9"/>
<path d="M170.682 80.5995C170.015 81.2654 169.476 82.0484 169.092 82.9095C166.639 86.9095 164.202 90.9462 161.782 95.0195L156.872 103.219C155.332 105.759 153.782 108.289 152.252 110.829C152.208 110.93 152.184 111.039 152.182 111.149C151.604 110.671 151.071 110.138 150.592 109.559C150.882 109.559 151.012 109.349 151.142 109.139L163.442 88.6395C165.782 84.7395 168.116 80.8462 170.443 76.9595C170.589 76.6319 170.853 76.3714 171.182 76.2295C171.136 77.6974 170.969 79.159 170.682 80.5995V80.5995Z" fill="#9E22E9"/>
<path d="M160.997 119.88C161.597 119.271 162.085 118.56 162.437 117.78C164.057 115.14 165.627 112.48 167.217 109.78C167.309 109.602 167.456 109.458 167.637 109.37C168.683 111.523 169.472 113.792 169.987 116.13C169.717 116.13 169.637 116.34 169.527 116.53C168.177 118.79 166.827 121.06 165.467 123.31C165.347 123.51 165.267 123.77 164.967 123.8C164.678 123.699 164.412 123.54 164.185 123.334C163.958 123.128 163.775 122.878 163.647 122.6L160.997 119.88Z" fill="#9E22E9"/>
<path d="M164.628 103.839C162.488 107.369 160.358 110.899 158.208 114.429L157.208 116.039C156.13 115.154 155.127 114.18 154.208 113.129C154.806 112.52 155.291 111.809 155.638 111.029C157.688 107.659 159.698 104.259 161.728 100.869C161.825 100.674 161.983 100.516 162.178 100.419C163.106 101.476 163.926 102.622 164.628 103.839V103.839Z" fill="#9E22E9"/>
<path d="M163.687 122.651L165.007 123.851C165.767 124.781 166.797 125.431 167.577 126.341C167.767 126.581 167.977 126.801 168.187 127.021C164.147 129.934 160.11 132.844 156.077 135.751L147.307 142.001L135.307 150.661L126.387 157.071C124.707 158.271 123.027 159.461 121.387 160.671C121.242 160.803 121.111 160.951 120.997 161.111L117.997 158.191L117.417 157.671L116.487 156.611C117.937 155.741 119.257 154.681 120.637 153.701C123.367 151.771 126.077 149.781 128.797 147.821L140.637 139.281L149.347 133.031C153.067 130.364 156.78 127.698 160.487 125.031C161.597 124.298 162.666 123.503 163.687 122.651Z" fill="#9E22E9"/>
</svg>
