<svg width="200" height="200" viewBox="0 0 200 200" fill="none" xmlns="http://www.w3.org/2000/svg">
<path d="M87.6774 111.82H99.4274C101.957 111.82 102.997 112.82 102.997 115.39C102.997 121.97 102.997 128.54 102.997 135.11C102.997 136.48 103.477 136.61 104.607 136.46C112.697 135.441 120.215 131.751 125.969 125.974C131.722 120.197 135.382 112.664 136.367 104.57C138.617 85.3499 127.077 66.9499 105.777 63.7699C96.4548 62.2695 86.9129 64.4262 79.1418 69.7902C71.3707 75.1541 65.9704 83.3111 64.0673 92.5599C63.5859 94.8123 63.328 97.1068 63.2973 99.4099C63.2973 101.85 62.1973 102.93 59.7973 102.93C51.8673 102.93 43.9373 102.93 36.0073 102.93C33.5173 102.93 32.4473 101.81 32.4573 99.3099C32.5996 84.5742 37.5525 70.2884 46.5621 58.627C55.5718 46.9656 68.1447 38.5671 82.3674 34.7099C108.477 27.5399 138.647 36.4999 155.547 60.7999C161.441 69.3346 165.259 79.1282 166.697 89.3999C169.157 105.93 166.247 121.4 157.387 135.62C147.227 151.86 132.667 162 113.997 166.2C109.599 167.185 105.105 167.685 100.597 167.69C98.1974 167.69 97.0974 166.62 97.0974 164.19C97.0974 157.47 97.0974 150.75 97.0974 144.03C97.0974 142.95 96.8574 142.64 95.7474 142.66C90.3074 142.72 84.874 142.72 79.4473 142.66C78.3073 142.66 78.0674 142.99 78.0774 144.06C78.1374 148.76 78.0774 153.47 78.0774 158.18C78.0774 160.94 77.0773 161.87 74.3473 161.87H56.6073C54.0673 161.87 53.0373 160.87 53.0273 158.31C53.0273 153.5 53.0273 148.69 53.0273 143.89C53.0273 142.94 52.7973 142.65 51.8273 142.66C48.0573 142.72 44.2873 142.66 40.5173 142.66C38.0873 142.66 36.9773 141.61 36.9573 139.2C36.9573 134.2 36.9573 129.2 36.9573 124.2C36.9573 121.79 38.0873 120.7 40.4873 120.69C45.4407 120.69 50.384 120.69 55.3173 120.69C57.8373 120.69 58.8773 121.78 58.8773 124.3C58.8773 127.93 58.9373 131.56 58.8773 135.18C58.8773 136.4 59.0473 136.88 60.4273 136.83C63.8573 136.71 67.2873 136.74 70.7073 136.83C71.8973 136.83 72.2773 136.6 72.2673 135.33C72.1873 128.9 72.2673 122.48 72.2673 116.05C72.2673 112.69 73.1573 111.82 76.5573 111.82H87.6774Z" fill="#8020BA"/>
<path d="M102.999 152.11C102.999 149.26 102.999 146.42 102.999 143.58C102.999 142.83 103.119 142.45 103.999 142.37C111.73 141.727 119.119 138.904 125.309 134.23C133.322 128.431 138.997 119.957 141.309 110.34C142.791 104.617 143.068 98.6488 142.123 92.8134C141.178 86.9779 139.032 81.4023 135.819 76.4397C129.819 66.7997 120.899 60.9697 109.819 58.5497C96.2892 55.5497 83.9492 58.2997 73.1492 67.0797C64.9266 73.5992 59.5067 83.015 57.9992 93.3997C57.9992 93.7397 57.8092 94.0597 57.7692 94.3997C57.4292 97.0597 57.4292 97.0597 54.7692 97.0597C49.8692 97.0597 44.9792 97.0597 40.0792 97.0597C38.8792 97.0597 38.4092 97.0597 38.5192 95.4597C38.8855 90.4978 39.8525 85.5987 41.3992 80.8697C43.4168 74.5721 46.4575 68.6496 50.3992 63.3397C56.6831 54.7794 65.0798 47.9952 74.7692 43.6497C80.2315 41.1579 86.0414 39.5124 91.9992 38.7697C95.0904 38.3469 98.2097 38.1631 101.329 38.2197C109.688 38.3931 117.932 40.1968 125.599 43.5297C134.487 47.4592 142.29 53.4846 148.339 61.0897C154.458 68.715 158.604 77.7308 160.409 87.3397C161.447 92.2211 161.863 97.214 161.649 102.2C161.28 110.461 159.328 118.574 155.899 126.1C151.654 135.22 145.243 143.165 137.226 149.243C129.209 155.32 119.828 159.346 109.899 160.97C107.829 161.32 105.739 161.39 103.679 161.71C102.739 161.86 102.959 161.12 102.959 160.64C102.939 157.8 102.999 155 102.999 152.11Z" fill="#9E22E9"/>
<path d="M97.079 127.201C97.079 129.951 97.079 132.691 97.079 135.431C97.079 136.431 96.889 136.831 95.799 136.821C90.269 136.821 84.739 136.821 79.219 136.821C78.219 136.821 77.949 136.511 77.959 135.551C77.999 130.057 77.999 124.571 77.959 119.091C77.959 117.981 78.379 117.651 79.439 117.661C84.869 117.661 90.299 117.661 95.719 117.661C96.889 117.661 97.109 118.091 97.079 119.121C96.999 121.811 97.079 124.511 97.079 127.201Z" fill="#9E22E9"/>
<path d="M58.8928 149.221C58.8928 147.411 58.8928 145.591 58.8928 143.781C58.8928 142.961 59.1628 142.661 59.9928 142.671C63.6628 142.671 67.3328 142.671 70.9928 142.671C71.9228 142.671 72.1528 143.031 72.1428 143.881C72.1028 147.508 72.1028 151.134 72.1428 154.761C72.1428 155.661 71.8628 155.961 70.9628 155.951C67.3428 155.911 63.7228 155.911 60.1028 155.951C59.1028 155.951 58.8528 155.571 58.8828 154.651C58.9328 152.851 58.8928 151.001 58.8928 149.221Z" fill="#9E22E9"/>
<path d="M53.0018 131.65C53.0018 132.97 53.0018 134.29 53.0018 135.65C53.0018 136.52 52.7718 136.87 51.8518 136.85C49.2118 136.85 46.5718 136.8 43.9318 136.85C42.9318 136.85 42.6918 136.49 42.7018 135.56C42.7551 133.02 42.7551 130.473 42.7018 127.92C42.7018 126.92 43.0118 126.51 44.0518 126.53C46.6384 126.57 49.2284 126.57 51.8218 126.53C52.7118 126.53 53.0318 126.83 52.9918 127.72C53.0018 129 53.0018 130.32 53.0018 131.65Z" fill="#9E22E9"/>
</svg>
