<svg width="200" height="200" viewBox="0 0 200 200" fill="none" xmlns="http://www.w3.org/2000/svg">
<path fill-rule="evenodd" clip-rule="evenodd" d="M13 100V140H100.5H188V100V60H100.5H13V100ZM49.25 93.214V112.678L47.75 113.094C46.925 113.323 43.8875 113.649 41 113.82C32.046 114.349 26.591 112.241 24.0275 107.259C22.949 105.164 22.75 104.106 22.75 100.478C22.75 96.6795 22.9245 95.842 24.25 93.279C25.181 91.479 26.5085 89.838 27.75 88.953C30.2795 87.149 35.4765 85.7925 38.3495 86.186L40.5 86.481V80.324C40.5 76.9375 40.6585 74.0085 40.852 73.815C41.0455 73.621 43.014 73.5275 45.227 73.6065L49.25 73.75V93.214ZM62.5 78.25V82.5H58.25H54V78.25V74H58.25H62.5V78.25ZM85.034 87.2675C88.042 88.823 88.2345 89.635 88.409 101.512C88.5435 110.632 88.451 112.418 87.82 112.941C87.343 113.338 84.476 113.667 79.896 113.853C73.349 114.118 72.514 114.053 70.373 113.106C67.37 111.778 66.0045 109.633 66.002 106.242C65.998 101.046 69.3465 98.162 76.774 96.964C80.38 96.382 80.5 96.3175 80.5 94.961C80.5 94.19 80.219 93.3835 79.875 93.1685C78.7305 92.4535 73.786 92.8895 71 93.9515C69.4875 94.528 68.0705 94.9995 67.851 94.9995C67.632 95 67.5195 93.594 67.601 91.875C67.745 88.85 67.8065 88.7225 69.514 87.887C73.396 85.9875 81.902 85.648 85.034 87.2675ZM112.435 87.601C113.707 88.233 115.255 89.5145 115.874 90.449C116.953 92.078 117 92.587 117 102.824V113.5H112.75H108.5V104.25C108.5 95.6665 108.428 94.928 107.5 94C106.495 92.9955 104.342 92.721 102.125 93.315C101.006 93.615 101 93.6705 101 103.578V113.539L96.625 113.395C94.219 113.315 92.3065 113.081 92.375 112.875C92.4435 112.669 92.5 106.996 92.5 100.27V88.0385L94.3935 87.5285C100.931 85.7685 108.807 85.8 112.435 87.601ZM144.75 86.545C147.225 86.8435 149.408 87.238 149.602 87.4215C149.796 87.605 149.371 89.048 148.656 90.6275C147.752 92.626 147.074 93.5 146.428 93.5C145.553 93.5 145.5 94.1035 145.5 103.976C145.5 109.737 145.256 115.59 144.957 116.983C144.178 120.615 141.781 123.869 138.56 125.668C136.165 127.005 135.314 127.191 130.81 127.356C127.551 127.476 124.86 127.301 123.25 126.865L120.75 126.188L120.604 122.344C120.452 118.354 120.65 118.01 122.52 119.01C124.234 119.928 128.699 120.547 131.194 120.214C134.325 119.795 136.781 117.601 137.17 114.874L137.438 112.998L135.344 113.374C128.692 114.569 123.195 112.235 120.933 107.255C119.54 104.189 119.665 97.9895 121.187 94.722C124.323 87.9875 132.674 85.0895 144.75 86.545ZM168.715 87.03C173.956 88.9905 176.737 93.6985 176.672 100.5C176.578 110.372 168.209 116.434 158.454 113.697C155.922 112.986 154.761 112.308 152.911 110.458C150.096 107.644 149.251 105.203 149.276 99.9655C149.298 95.407 150.982 91.416 153.907 88.9935C157.531 85.991 163.739 85.168 168.715 87.03ZM62.403 101.125L62.25 115.75L60.843 118.615C59.394 121.566 56.633 124.309 54.585 124.831C53.8135 125.028 52.177 124.541 49.746 123.392L46.072 121.656L48.645 119.953C50.4515 118.758 51.5955 117.51 52.484 115.766C53.727 113.326 53.7525 113.05 53.8935 100.516C53.972 93.4945 54.134 87.469 54.2525 87.125C54.4015 86.6945 55.726 86.5 58.512 86.5H62.5555L62.403 101.125ZM34.686 93.7945C32.2965 94.973 31.3235 97.219 31.592 100.935C31.9015 105.211 33.2625 106.596 37.4485 106.899L40.441 107.116L40.5955 100.683C40.6805 97.145 40.5535 93.969 40.314 93.625C39.714 92.7655 36.58 92.86 34.686 93.7945ZM132.212 93.9475C128.69 95.5475 127.323 100.813 129.502 104.387C130.993 106.833 134.668 107.835 136.699 106.35C137.505 105.76 137.555 105.108 137.227 99.3495L136.865 93L135.557 93.011C134.838 93.017 133.333 93.4385 132.212 93.9475ZM159.902 94.4415C158.43 95.757 158.272 96.1875 158.092 99.3655C157.871 103.285 158.643 105.415 160.794 106.825C162.479 107.929 165.281 107.253 166.647 105.412C167.759 103.914 168.299 100.002 167.778 97.224C167.016 93.1615 162.945 91.723 159.902 94.4415ZM78.06 102.567C74.0065 103.313 72.393 105.322 74.309 107.238C74.9055 107.834 75.857 108.008 77.934 107.898L80.75 107.75L80.905 105.305C80.9905 103.961 80.878 102.704 80.655 102.512C80.4325 102.321 79.2645 102.345 78.06 102.567Z" fill="#9E22E9"/>
</svg>
