<svg width="200" height="200" viewBox="0 0 200 200" fill="none" xmlns="http://www.w3.org/2000/svg">
<path d="M108.911 179.55C108.837 179.495 108.757 179.451 108.671 179.42C108.037 179.262 107.476 178.894 107.079 178.377C106.681 177.859 106.47 177.223 106.481 176.57C106.481 175.18 106.481 173.79 106.481 172.4V137.93C106.414 137.242 106.542 136.549 106.851 135.93C107.172 135.377 107.666 134.944 108.256 134.697C108.846 134.449 109.501 134.401 110.121 134.56C110.761 134.698 111.332 135.055 111.736 135.57C112.139 136.085 112.35 136.726 112.331 137.38C112.331 142.56 112.331 147.74 112.331 152.92C112.331 155.01 112.331 157.11 112.331 159.21C112.661 159.29 112.821 159.04 113.021 158.91L129.001 148.59C129.327 148.35 129.698 148.178 130.092 148.085C130.486 147.992 130.895 147.979 131.294 148.048C131.693 148.118 132.073 148.267 132.413 148.487C132.753 148.707 133.045 148.994 133.271 149.33C133.495 149.648 133.651 150.009 133.731 150.391C133.81 150.772 133.81 151.165 133.731 151.547C133.653 151.928 133.497 152.289 133.273 152.608C133.049 152.927 132.763 153.196 132.431 153.4C128.777 155.773 125.111 158.14 121.431 160.5C120.951 160.8 120.841 160.98 121.281 161.5C125.041 165.69 128.691 169.97 132.541 174.07C134.351 176.01 134.031 178.79 131.251 179.59H130.251C129.842 179.549 129.447 179.422 129.091 179.219C128.734 179.016 128.424 178.74 128.181 178.41C125.731 175.59 123.181 172.83 120.741 170.03C119.221 168.3 117.661 166.61 116.151 164.87C116.105 164.795 116.043 164.731 115.969 164.683C115.895 164.635 115.812 164.604 115.724 164.593C115.637 164.581 115.548 164.589 115.465 164.617C115.381 164.644 115.304 164.689 115.241 164.75C114.491 165.26 113.731 165.75 112.951 166.27C112.778 166.392 112.643 166.559 112.56 166.753C112.477 166.948 112.449 167.161 112.481 167.37C112.481 170.37 112.481 173.48 112.481 176.54C112.492 176.985 112.408 177.427 112.236 177.837C112.063 178.247 111.806 178.616 111.481 178.92C111.044 179.307 110.493 179.542 109.911 179.59L108.911 179.55Z" fill="#9E22E9"/>
<path d="M90.8211 179.55C89.8711 179.38 88.9111 179.28 87.9911 179.05C84.5158 178.167 81.4455 176.125 79.2865 173.262C77.1275 170.399 76.0088 166.885 76.1148 163.301C76.2208 159.716 77.5452 156.275 79.8696 153.545C82.1941 150.814 85.3797 148.957 88.9011 148.28C91.1999 147.784 93.5833 147.834 95.8589 148.428C98.1345 149.022 100.239 150.143 102.001 151.7C102.345 151.969 102.627 152.309 102.826 152.697C103.025 153.085 103.137 153.513 103.154 153.949C103.171 154.385 103.093 154.819 102.925 155.222C102.757 155.625 102.503 155.986 102.181 156.28C101.631 156.772 100.919 157.044 100.181 157.044C99.4432 157.044 98.7311 156.772 98.1811 156.28C96.8785 155.17 95.3285 154.388 93.6611 154C92.2751 153.746 90.8507 153.79 89.4834 154.131C88.1161 154.472 86.8376 155.102 85.7337 155.978C84.6298 156.854 83.726 157.956 83.0831 159.21C82.4401 160.464 82.0729 161.841 82.0059 163.248C81.939 164.656 82.174 166.062 82.6951 167.371C83.2161 168.68 84.0113 169.863 85.0271 170.84C86.0429 171.816 87.2559 172.564 88.5847 173.034C89.9134 173.503 91.3272 173.683 92.7311 173.56C94.6688 173.434 96.5153 172.691 98.0011 171.44C98.4892 170.994 99.1045 170.711 99.7611 170.63C100.363 170.535 100.98 170.637 101.521 170.919C102.061 171.202 102.496 171.651 102.761 172.2C103.041 172.79 103.121 173.454 102.989 174.093C102.857 174.731 102.521 175.31 102.031 175.74C99.9682 177.589 97.4227 178.813 94.6911 179.27L92.8911 179.55H90.8211Z" fill="#9E22E9"/>
<path d="M193 152.56C192.845 153.166 192.51 153.711 192.038 154.122C191.567 154.533 190.981 154.79 190.36 154.86C189.84 154.889 189.32 154.8 188.84 154.6C184.69 153.15 180.95 153.79 177.84 156.95C176.961 157.824 176.267 158.866 175.798 160.013C175.329 161.161 175.095 162.391 175.11 163.63C175.11 167.7 175.11 171.78 175.11 175.85C175.11 178.04 174.67 178.71 172.7 179.55H171.7C169.7 178.76 169.2 178.03 169.2 175.83C169.2 167.69 169.2 159.547 169.2 151.4C169.141 150.592 169.368 149.789 169.84 149.13C170.219 148.646 170.739 148.291 171.327 148.112C171.916 147.933 172.545 147.939 173.13 148.13C173.708 148.316 174.214 148.68 174.573 149.17C174.932 149.661 175.127 150.252 175.13 150.86V151.33C175.465 151.217 175.772 151.033 176.03 150.79C178.069 149.378 180.408 148.457 182.862 148.098C185.317 147.739 187.821 147.952 190.18 148.72C190.837 148.867 191.447 149.178 191.952 149.624C192.457 150.07 192.842 150.636 193.07 151.27L193 152.56Z" fill="#9E22E9"/>
<path d="M88.1199 68.6093C103.53 68.6093 118.93 68.6093 134.33 68.6093C137.801 68.6045 141.236 67.9005 144.43 66.5393C145.03 66.2793 145.18 66.0793 144.81 65.4393C141.89 60.4393 141.58 55.0693 143.06 49.5493C143.946 46.2723 145.442 43.1918 147.47 40.4693C147.68 40.1893 147.81 40.0493 148.2 40.2593C153.212 42.8642 157.065 47.2529 159 52.5593C159.388 53.622 159.67 54.7208 159.84 55.8393C159.91 56.2893 160.06 56.3293 160.48 56.2693C164.778 55.4916 169.198 55.7071 173.4 56.8993C175.192 57.419 176.857 58.3043 178.29 59.4993C178.486 59.611 178.631 59.7936 178.696 60.0095C178.761 60.2253 178.741 60.4579 178.64 60.6593C176.54 66.6593 172.29 70.4793 166.39 72.5693C163.598 73.5163 160.656 73.9433 157.71 73.8293C157.475 73.7905 157.233 73.8436 157.036 73.9776C156.839 74.1116 156.701 74.3163 156.65 74.5493C154.08 81.2749 150.741 87.6807 146.7 93.6393C138.255 105.896 125.771 114.795 111.43 118.779C105.623 120.463 99.6522 121.516 93.6199 121.919C88.168 122.324 82.6915 122.264 77.2499 121.739C71.5655 121.234 65.9733 119.976 60.6199 117.999C52.7899 114.999 47.2899 109.519 43.4799 102.199C40.7335 96.7689 38.883 90.9303 37.9999 84.9093C37.3618 81.0548 37.0275 77.1562 36.9999 73.2493C36.9514 72.2026 37.2738 71.1723 37.9104 70.3399C38.5471 69.5076 39.457 68.9266 40.4799 68.6993C41.0109 68.6043 41.5516 68.5741 42.0899 68.6093H88.1199Z" fill="#9E22E9"/>
<path d="M73.692 36.5015C75.692 36.5015 77.692 36.5015 79.692 36.5015C80.692 36.5015 81.022 36.8815 81.022 37.8315C81.022 41.3781 81.022 44.9281 81.022 48.4815C81.022 49.4215 80.602 49.8315 79.682 49.8315H67.612C66.722 49.8315 66.292 49.4315 66.282 48.5515C66.282 44.9515 66.282 41.3515 66.282 37.7515C66.282 36.8915 66.672 36.5115 67.552 36.5015C69.552 36.5015 71.642 36.5015 73.692 36.5015Z" fill="#9E22E9"/>
<path d="M91.1703 36.5104C93.1703 36.5104 95.1703 36.5104 97.2403 36.5104C98.1603 36.5104 98.5403 36.9004 98.5403 37.8004C98.5403 41.3804 98.5403 44.9504 98.5403 48.5304C98.5403 49.4503 98.1103 49.8404 97.1703 49.8404H85.1703C84.1703 49.8404 83.8003 49.4304 83.7903 48.4504C83.7903 44.9204 83.7903 41.4004 83.7903 37.8704C83.7903 36.8704 84.1703 36.5204 85.1003 36.5104C87.1303 36.4904 89.1503 36.5104 91.1703 36.5104Z" fill="#9E22E9"/>
<path d="M108.508 36.5104C110.508 36.5104 112.508 36.5104 114.578 36.5104C115.488 36.5104 115.828 36.9104 115.828 37.8304C115.828 41.3904 115.828 44.9437 115.828 48.4904C115.828 49.4304 115.438 49.8404 114.518 49.8404H102.448C101.518 49.8404 101.128 49.4404 101.128 48.4904C101.128 44.937 101.128 41.387 101.128 37.8404C101.128 36.8404 101.458 36.5204 102.438 36.5104C104.468 36.4904 106.488 36.5104 108.508 36.5104Z" fill="#9E22E9"/>
<path d="M73.612 65.8503C71.612 65.8503 69.612 65.8503 67.682 65.8503C66.682 65.8503 66.282 65.4903 66.282 64.4403C66.282 60.9603 66.282 57.4803 66.282 54.0003C66.282 52.8803 66.652 52.5303 67.762 52.5303H79.552C80.662 52.5303 81.022 52.8903 81.022 54.0203C81.022 57.4703 81.022 60.9303 81.022 64.3903C81.022 65.5103 80.672 65.8503 79.532 65.8503C77.562 65.8603 75.582 65.8503 73.612 65.8503Z" fill="#9E22E9"/>
<path d="M91.1869 52.5303H97.1869C98.1269 52.5303 98.5469 52.9103 98.5469 53.8503C98.5469 57.3969 98.5469 60.947 98.5469 64.5003C98.5469 65.5003 98.1569 65.8503 97.1569 65.8503C93.1569 65.8503 89.1569 65.8503 85.1569 65.8503C84.1569 65.8503 83.8069 65.4603 83.7969 64.4703C83.7969 60.9703 83.7969 57.4703 83.7969 53.9603C83.7969 52.9003 84.1969 52.5303 85.2669 52.5303H91.1869Z" fill="#9E22E9"/>
<path d="M125.93 65.8503C123.93 65.8503 121.93 65.8503 120.01 65.8503C118.93 65.8503 118.57 65.4903 118.57 64.4103C118.57 60.9236 118.57 57.4403 118.57 53.9603C118.57 52.8903 118.96 52.5303 120.03 52.5303H131.88C132.94 52.5303 133.32 52.9003 133.32 53.9803V64.4203C133.32 65.4903 132.94 65.8503 131.86 65.8503C129.89 65.8603 127.91 65.8503 125.93 65.8503Z" fill="#9E22E9"/>
<path d="M56.3522 65.8503C54.3522 65.8503 52.4422 65.8503 50.4822 65.8503C49.3922 65.8503 49.0322 65.5003 49.0322 64.4303C49.0322 60.9169 49.0322 57.4069 49.0322 53.9003C49.0322 52.9003 49.4222 52.5303 50.4022 52.5303H62.4022C63.3222 52.5303 63.7222 52.8803 63.7222 53.7803C63.7222 57.3603 63.7222 60.9403 63.7222 64.5203C63.7222 65.5203 63.3722 65.8503 62.3322 65.8503C60.3522 65.8603 58.3522 65.8503 56.3522 65.8503Z" fill="#9E22E9"/>
<path d="M108.488 33.7809H102.558C101.458 33.7809 101.128 33.4409 101.128 32.3509C101.128 28.8709 101.128 25.3909 101.128 21.9109C101.128 20.8109 101.478 20.4609 102.538 20.4609C106.498 20.4609 110.451 20.4609 114.398 20.4609C115.478 20.4609 115.828 20.8109 115.828 21.8909V32.3309C115.828 33.4309 115.498 33.7809 114.418 33.7809H108.488Z" fill="#9E22E9"/>
<path d="M108.458 65.8503C106.458 65.8503 104.508 65.8503 102.528 65.8503C101.528 65.8503 101.128 65.5003 101.128 64.4603C101.128 60.9403 101.128 57.4136 101.128 53.8803C101.128 52.8803 101.508 52.5303 102.498 52.5303H114.428C115.428 52.5303 115.828 52.8903 115.828 53.9203V64.4303C115.828 65.5103 115.488 65.8503 114.388 65.8503C112.408 65.8603 110.438 65.8503 108.458 65.8503Z" fill="#9E22E9"/>
<path d="M38.5428 137.479C38.5619 137.09 38.5011 136.7 38.364 136.335C38.227 135.97 38.0166 135.636 37.7459 135.355C37.4752 135.074 37.1499 134.851 36.7899 134.701C36.4299 134.55 36.0429 134.475 35.6528 134.479C35.26 134.451 34.8657 134.506 34.4956 134.64C34.1254 134.774 33.7878 134.985 33.5046 135.259C33.2215 135.533 32.9993 135.863 32.8525 136.228C32.7057 136.594 32.6377 136.986 32.6528 137.379C32.6528 141.739 32.6528 146.089 32.6528 150.449C32.7083 150.722 32.6768 151.006 32.5628 151.259C32.3105 151.189 32.0823 151.05 31.9028 150.859C28.7559 148.579 24.8564 147.588 21.0028 148.089C17.4024 148.509 14.0561 150.155 11.5257 152.751C8.99534 155.346 7.43496 158.733 7.10658 162.343C6.7782 165.953 7.7018 169.566 9.72233 172.575C11.7428 175.584 14.7372 177.807 18.2028 178.869C19.3528 179.219 20.5528 179.309 21.7128 179.549H23.8328C24.3959 179.389 24.9773 179.302 25.5628 179.289C29.0997 178.679 32.3201 176.873 34.6861 174.174C37.0521 171.475 38.4205 168.046 38.5628 164.459C38.5828 155.469 38.5428 146.469 38.5428 137.479ZM22.5428 173.609C20.5971 173.57 18.7066 172.956 17.1087 171.845C15.5109 170.735 14.2771 169.176 13.5625 167.366C12.8479 165.556 12.6843 163.575 13.0923 161.672C13.5003 159.769 14.4617 158.03 15.8557 156.672C17.2496 155.314 19.0139 154.398 20.9267 154.04C22.8395 153.682 24.8155 153.897 26.6062 154.659C28.397 155.421 29.9227 156.695 30.9914 158.321C32.0601 159.948 32.6242 161.853 32.6128 163.799C32.6104 165.107 32.3474 166.4 31.8391 167.604C31.3308 168.808 30.5875 169.899 29.6526 170.813C28.7177 171.726 27.6101 172.444 26.3944 172.924C25.1788 173.404 23.8795 173.637 22.5728 173.609H22.5428Z" fill="#9E22E9"/>
<path d="M165.638 160.32C165.026 157.613 163.711 155.116 161.825 153.079C159.94 151.042 157.551 149.538 154.899 148.719C152.248 147.9 149.427 147.794 146.721 148.412C144.015 149.03 141.52 150.35 139.488 152.24C137.455 154.129 135.956 156.521 135.142 159.175C134.328 161.828 134.228 164.649 134.851 167.353C135.475 170.058 136.801 172.55 138.694 174.579C140.588 176.608 142.983 178.102 145.638 178.91C146.638 179.19 147.638 179.29 148.638 179.55H151.888C152.008 179.4 152.188 179.43 152.348 179.41C155.53 179.054 158.508 177.667 160.828 175.46C161.134 175.199 161.384 174.88 161.563 174.52C161.743 174.161 161.848 173.769 161.874 173.368C161.899 172.967 161.843 172.564 161.71 172.185C161.577 171.806 161.369 171.458 161.098 171.16C160.825 170.866 160.494 170.631 160.126 170.471C159.757 170.31 159.36 170.227 158.958 170.227C158.557 170.227 158.159 170.31 157.791 170.471C157.423 170.631 157.092 170.866 156.818 171.16C155.642 172.206 154.233 172.958 152.709 173.351C151.185 173.745 149.589 173.771 148.053 173.426C146.517 173.081 145.085 172.376 143.876 171.368C142.667 170.36 141.715 169.079 141.098 167.63C140.718 166.73 140.718 166.73 141.678 166.73H162.678C164.998 166.73 166.078 165.61 166.028 163.28C165.995 162.283 165.864 161.292 165.638 160.32V160.32ZM158.908 160.87H141.488C140.728 160.87 140.688 160.87 140.988 160.13C141.624 158.458 142.716 156.997 144.141 155.915C145.566 154.833 147.266 154.173 149.048 154.01C151.203 153.739 153.386 154.186 155.261 155.281C157.136 156.377 158.597 158.06 159.418 160.07C159.748 160.87 159.748 160.87 158.908 160.87Z" fill="#9E22E9"/>
<path d="M73.0018 161.41C72.4178 157.447 70.35 153.855 67.2171 151.36C64.0841 148.865 60.1202 147.654 56.1278 147.972C52.1354 148.289 48.4129 150.112 45.7141 153.072C43.0152 156.031 41.5417 159.905 41.5918 163.91C41.6424 167.311 42.7759 170.608 44.8277 173.321C46.8795 176.035 49.7428 178.024 53.0018 178.999C54.0918 179.299 55.2218 179.38 56.3218 179.6H58.4418C59.1518 179.48 59.8718 179.399 60.5818 179.249C64.5441 178.435 68.0422 176.129 70.3535 172.809C72.6648 169.489 73.6128 165.408 73.0018 161.41V161.41ZM57.2818 173.609C55.3346 173.584 53.4385 172.983 51.8321 171.882C50.2258 170.781 48.981 169.229 48.2545 167.423C47.5279 165.616 47.3521 163.635 47.7491 161.728C48.1461 159.822 49.0983 158.075 50.4856 156.709C51.873 155.342 53.6336 154.417 55.5459 154.048C57.4581 153.68 59.4366 153.886 61.2322 154.64C63.0278 155.393 64.5602 156.662 65.6367 158.284C66.7132 159.907 67.2856 161.812 67.2818 163.759C67.2766 165.065 67.013 166.357 66.5061 167.56C65.9993 168.763 65.2592 169.854 64.3286 170.77C63.398 171.685 62.2953 172.408 61.0842 172.895C59.873 173.383 58.5773 173.625 57.2718 173.609H57.2818Z" fill="#9E22E9"/>
<path d="M182.162 175.27C181.89 175.254 181.617 175.293 181.36 175.387C181.103 175.48 180.869 175.624 180.67 175.812C180.471 175.999 180.313 176.225 180.205 176.476C180.097 176.727 180.042 176.997 180.042 177.27C180.079 177.801 180.316 178.298 180.705 178.661C181.093 179.024 181.605 179.225 182.137 179.225C182.669 179.225 183.181 179.024 183.57 178.661C183.959 178.298 184.196 177.801 184.232 177.27C184.233 177.002 184.179 176.736 184.074 176.488C183.969 176.241 183.815 176.017 183.622 175.831C183.429 175.644 183.2 175.498 182.949 175.402C182.698 175.306 182.431 175.261 182.162 175.27ZM182.162 178.86C181.944 178.878 181.724 178.85 181.516 178.778C181.309 178.706 181.119 178.592 180.958 178.443C180.796 178.294 180.668 178.114 180.58 177.913C180.492 177.712 180.446 177.495 180.446 177.275C180.446 177.056 180.492 176.839 180.58 176.638C180.668 176.437 180.796 176.256 180.958 176.107C181.119 175.958 181.309 175.844 181.516 175.773C181.724 175.701 181.944 175.673 182.162 175.69C182.369 175.69 182.574 175.732 182.764 175.814C182.954 175.896 183.125 176.016 183.267 176.167C183.409 176.318 183.518 176.497 183.587 176.692C183.657 176.887 183.686 177.094 183.672 177.3C183.682 177.505 183.649 177.71 183.576 177.901C183.503 178.093 183.391 178.268 183.248 178.414C183.104 178.561 182.932 178.676 182.742 178.753C182.551 178.829 182.347 178.866 182.142 178.86H182.162Z" fill="#9E22E9"/>
<path d="M183.003 177.861C183.003 177.611 182.663 177.511 182.843 177.181C183.163 176.591 182.983 176.321 182.333 176.271C181.393 176.191 181.383 176.211 181.383 177.271V178.051C181.383 178.201 181.383 178.331 181.603 178.341C181.823 178.351 181.813 178.221 181.843 178.071C181.873 177.921 181.713 177.601 182.043 177.561C182.373 177.521 182.463 177.791 182.523 178.041C182.583 178.291 182.693 178.381 182.923 178.321C183.153 178.261 183.003 178.001 183.003 177.861ZM182.323 177.141C181.913 177.191 181.843 177.081 181.843 176.871C181.843 176.661 181.933 176.571 182.143 176.591C182.353 176.611 182.483 176.661 182.503 176.851C182.512 176.882 182.514 176.915 182.509 176.948C182.504 176.98 182.492 177.011 182.474 177.039C182.456 177.066 182.432 177.09 182.404 177.107C182.376 177.125 182.345 177.136 182.313 177.141H182.323Z" fill="#9E22E9"/>
</svg>
