<svg width="200" height="200" viewBox="0 0 200 200" fill="none" xmlns="http://www.w3.org/2000/svg">
<path d="M86.3517 171.539C76.8107 171.599 67.5803 168.151 60.4143 161.851C53.2484 155.552 48.646 146.839 47.4817 137.369C47.0664 133.708 47.1572 130.006 47.7517 126.369C47.8369 125.631 48.1933 124.95 48.7517 124.459C59.3651 114.899 69.9617 105.323 80.5417 95.7295C80.8278 95.4099 81.2181 95.2023 81.643 95.1437C82.0679 95.0851 82.4998 95.1793 82.8617 95.4095C93.3951 100.249 103.932 105.059 114.472 109.839C115.345 110.197 116.056 110.863 116.472 111.709C118.562 115.779 120.702 119.819 122.852 123.859C123.233 124.5 123.371 125.256 123.242 125.989C121.462 135.256 119.698 144.529 117.952 153.809C117.851 154.394 117.611 154.947 117.252 155.419C109.372 165.88 98.8517 171.209 86.3517 171.539Z" fill="#9E22E9"/>
<path d="M111.347 28.46C133.277 28.46 149.527 42.46 152.247 61.37C152.834 65.4174 152.77 69.5327 152.057 73.56C151.961 74.1945 151.629 74.7695 151.127 75.17C140.147 84.7833 129.18 94.3933 118.227 104C118 104.248 117.691 104.406 117.358 104.446C117.024 104.486 116.687 104.406 116.407 104.22C105.707 99.3 94.9971 94.3966 84.2771 89.51C83.6434 89.2438 83.1378 88.7418 82.8671 88.11C80.9971 84 78.9971 79.84 77.0871 75.7C76.8278 75.2239 76.7396 74.6732 76.8371 74.14C78.6571 64.8733 80.4505 55.6 82.2171 46.32C82.3821 45.4469 82.7561 44.6269 83.3071 43.93C91.0871 33.78 101.427 28.73 111.347 28.46Z" fill="#9E22E9"/>
<path d="M172.001 103.451C171.948 108.66 170.34 113.735 167.384 118.025C164.429 122.315 160.26 125.625 155.411 127.531C154.625 127.833 153.762 127.875 152.951 127.651C145.301 125.871 137.661 124.071 129.951 122.331C129.474 122.246 129.025 122.047 128.642 121.751C128.259 121.455 127.953 121.07 127.751 120.631C125.941 117.031 124.061 113.471 122.151 109.931C122.035 109.792 121.951 109.631 121.904 109.457C121.857 109.284 121.847 109.102 121.877 108.924C121.906 108.747 121.974 108.578 122.074 108.429C122.175 108.28 122.307 108.154 122.461 108.061C133.127 98.7806 143.794 89.4772 154.461 80.1506C154.717 79.8651 155.064 79.6772 155.444 79.6189C155.823 79.5605 156.211 79.6353 156.541 79.8306C161.119 81.8606 165.013 85.1695 167.756 89.3597C170.498 93.5498 171.972 98.4428 172.001 103.451V103.451Z" fill="#9E22E9"/>
<path d="M45.7776 71.77C48.1976 72.32 50.5676 72.85 52.9376 73.4C58.7476 74.76 64.5476 76.15 70.3676 77.47C70.7326 77.5239 71.0765 77.6748 71.3632 77.907C71.6499 78.1392 71.869 78.4442 71.9976 78.79C73.6309 82.37 75.2976 85.9267 76.9976 89.46C77.1029 89.6189 77.1754 89.7972 77.2107 89.9845C77.2461 90.1718 77.2437 90.3642 77.2037 90.5505C77.1636 90.7369 77.0867 90.9133 76.9775 91.0695C76.8682 91.2257 76.7289 91.3585 76.5676 91.46C66.2876 100.72 56.0276 110.01 45.7876 119.33C45.4763 119.697 45.043 119.94 44.5673 120.013C44.0915 120.087 43.6052 119.986 43.1976 119.73C38.563 117.634 34.6516 114.214 31.9555 109.901C29.2594 105.588 27.8991 100.573 28.0455 95.4889C28.1919 90.4044 29.8386 85.4768 32.7785 81.3258C35.7183 77.1748 39.82 73.9858 44.5676 72.16C44.9976 72 45.3776 71.9 45.7776 71.77Z" fill="#9E22E9"/>
<path d="M46.5419 59.6607C46.9219 52.5407 50.0019 47.0007 56.2919 43.5707C62.5819 40.1407 68.8819 40.4907 75.0619 44.1007C75.4992 44.3025 75.8447 44.6612 76.0299 45.1057C76.2151 45.5502 76.2265 46.0482 76.0619 46.5007C74.4285 54.5007 72.8419 62.5007 71.3019 70.5007C71.1319 71.4007 70.8719 71.6107 69.9319 71.3807C62.9319 69.7007 55.9319 68.0574 48.9319 66.4507C48.5459 66.41 48.1828 66.2475 47.8952 65.9869C47.6076 65.7262 47.4103 65.3809 47.3319 65.0007C46.9031 63.2492 46.6386 61.4614 46.5419 59.6607V59.6607Z" fill="#9E22E9"/>
<path d="M153.38 140.049C153.12 146.919 150.11 152.459 143.93 155.939C137.75 159.419 131.59 159.189 125.47 155.669C125.187 155.559 124.928 155.393 124.709 155.183C124.489 154.972 124.314 154.72 124.192 154.441C124.07 154.162 124.005 153.862 124 153.558C123.994 153.254 124.049 152.952 124.16 152.669C125.76 144.929 127.23 137.159 128.66 129.389C128.87 128.269 129.32 128.139 130.25 128.389C137.25 130.059 144.25 131.739 151.25 133.389C151.563 133.43 151.856 133.568 152.087 133.783C152.318 133.998 152.477 134.28 152.54 134.589C153.03 136.37 153.312 138.203 153.38 140.049V140.049Z" fill="#9E22E9"/>
</svg>
