<svg width="200" height="200" viewBox="0 0 200 200" fill="none" xmlns="http://www.w3.org/2000/svg">
<path d="M93.8321 98.5626L93.8343 98.5648C94.1351 98.863 94.3785 99.105 94.5641 99.334C94.7486 99.5617 94.8435 99.7386 94.8791 99.8931C94.9379 100.149 94.8749 100.554 94.0931 101.336C72.5726 122.816 51.0888 144.347 29.6417 165.927L29.6276 165.941L29.6147 165.957C29.5379 166.048 29.4386 166.139 29.2563 166.288V33.7675C29.2768 33.7702 29.295 33.774 29.3113 33.7784C29.3928 33.8003 29.4755 33.8494 29.5719 33.9436C29.6734 34.0427 29.7676 34.1685 29.8846 34.3297C29.8913 34.3389 29.8981 34.3483 29.9051 34.3579C30.0081 34.5 30.1361 34.6765 30.2825 34.8229C51.4823 56.0628 72.6655 77.3093 93.8321 98.5626Z" fill="#9E22E9" stroke="#9E22E9"/>
<path d="M166.773 171.511H33.4529C33.0629 170.441 34.0529 170.121 34.5429 169.631C55.7029 148.351 76.8563 127.084 98.0029 105.831C99.1729 104.661 99.9029 103.911 101.523 105.551C122.983 127.224 144.493 148.847 166.053 170.421C166.326 170.761 166.567 171.126 166.773 171.511V171.511Z" fill="#9E22E9"/>
<path d="M137.418 66.4209C137.898 66.8309 138.418 67.1909 138.778 67.6109C148.998 77.8709 159.218 88.1609 169.498 98.3809C170.728 99.6109 170.638 100.311 169.498 101.481C159.232 111.708 149.002 121.974 138.808 132.281C137.808 133.331 137.158 133.541 135.998 132.371C125.818 122.058 115.595 111.784 105.328 101.551C104.328 100.551 103.898 99.9309 105.148 98.7009C115.558 88.3409 125.908 77.9009 136.278 67.5009C136.588 67.1509 136.998 66.8309 137.418 66.4209Z" fill="#9E22E9"/>
<path d="M130.643 59.7296C111.523 59.7296 92.9526 59.3196 74.4226 59.9296C66.5726 60.1896 60.9826 58.1096 55.8426 52.1396C49.4626 44.7296 42.1326 38.1396 35.2226 31.1996C34.5426 30.4996 33.8826 29.7796 33.2226 29.0496C33.9726 28.2096 34.8226 28.5896 35.5426 28.5896C56.0959 28.5896 76.6526 28.5896 97.2126 28.5896C98.7226 28.5896 100.053 28.6496 101.283 29.8996C110.683 39.4396 120.163 48.8996 129.613 58.4096C129.843 58.6496 130.053 58.9996 130.643 59.7296Z" fill="#9E22E9"/>
<path d="M108.812 28.551H111.263C130.043 28.551 148.822 28.551 167.602 28.501C170.212 28.501 171.232 28.991 171.212 31.921C171.072 50.871 171.142 69.831 171.122 88.781C171.122 89.631 171.422 90.551 171.062 91.041C150.356 70.241 129.606 49.411 108.812 28.551Z" fill="#9E22E9"/>
<path d="M69.2536 65.3706H130.004C129.894 66.5406 129.004 66.9406 128.384 67.5406C119.584 76.4206 110.724 85.2406 101.964 94.1606C100.514 95.6406 99.7336 96.0606 98.0336 94.3106C88.6536 84.7306 79.1436 75.3006 69.2536 65.3706Z" fill="#9E22E9"/>
<path d="M168.188 164.46C159.561 155.88 150.931 147.3 142.298 138.72C141.508 137.93 141.368 137.44 142.238 136.58C150.904 128.02 159.534 119.436 168.128 110.83C170.278 110.96 170.208 112.61 170.248 114.09C170.328 117.68 170.248 121.28 170.248 124.88C170.248 136.77 170.248 148.67 170.248 160.56C170.228 162.11 170.728 164.16 168.188 164.46Z" fill="#9E22E9"/>
<path d="M170.001 109.001C170.131 108.581 170.701 108.221 170.811 108.431C171.041 108.963 171.14 109.542 171.101 110.121C171.101 128.467 171.101 146.801 171.101 165.121C171.101 165.701 171.641 166.671 170.641 166.871C170.071 166.981 169.721 166.231 169.431 165.701C170.141 156.701 169.721 147.771 169.721 138.811C169.721 129.431 170.091 120.051 169.511 110.671C169.538 110.083 169.707 109.51 170.001 109.001Z" fill="#9E22E9"/>
<path d="M169.999 108.999C169.999 126.946 169.999 144.896 169.999 162.849C170.05 163.851 169.832 164.849 169.369 165.739L168.149 164.509C169.559 163.889 169.389 162.619 169.389 161.419C169.389 145.599 169.389 129.772 169.389 113.939C169.389 112.719 169.499 111.479 168.079 110.879L169.999 108.999Z" fill="#9E22E9"/>
</svg>
