<svg width="200" height="200" viewBox="0 0 200 200" fill="none" xmlns="http://www.w3.org/2000/svg">
<path d="M90.5325 153.79C90.5325 161.61 90.3625 169.44 90.5925 177.26C90.7125 181.33 89.2825 182 85.5925 181.17C73.5925 178.51 73.5325 178.62 73.5325 166.26C73.5325 153.11 73.5325 139.96 73.5325 126.81C73.4355 125.664 73.6083 124.51 74.0373 123.442C74.4662 122.374 75.1392 121.421 76.0025 120.66C78.5625 118.39 79.8825 118.04 83.5425 120.41C90.7925 125.11 90.9925 131.22 90.6425 138.31C90.3325 143.46 90.5425 148.63 90.5325 153.79Z" fill="#9E22E9"/>
<path d="M109.596 154.329C109.596 146.679 109.736 139.029 109.526 131.329C109.446 128.329 110.336 126.329 112.966 124.829C114.376 124.039 115.466 122.669 116.806 121.709C118.146 120.749 118.966 117.789 121.536 119.089C123.896 120.279 125.866 121.849 126.716 124.749C127.966 128.959 126.596 132.989 126.596 137.099C126.596 149.409 126.436 161.719 126.596 174.029C126.596 177.499 125.466 178.879 122.106 179.809C109.426 183.289 109.466 183.429 109.476 170.749C109.476 165.256 109.476 159.766 109.476 154.279L109.596 154.329Z" fill="#9E22E9"/>
<path d="M64.6793 174.85C50.1093 166.21 40.4993 154.59 34.7793 139.77C33.0693 135.33 32.2293 130.54 30.9293 125.93C30.1393 123.11 31.3593 122.29 33.9293 122.67C34.0925 122.68 34.2561 122.68 34.4193 122.67C42.8093 122.85 49.4993 124.35 51.1093 134.88C52.0593 141.11 56.6093 146.54 61.3593 151.04C62.5418 152.054 63.4639 153.337 64.0485 154.781C64.6331 156.225 64.8631 157.789 64.7193 159.34C64.4893 164.18 64.6793 169 64.6793 174.85Z" fill="#9E22E9"/>
<path d="M67.7489 52.4092C67.9489 53.6192 68.0289 53.9392 68.0589 54.2592C68.7889 64.0892 65.9289 72.2592 58.6389 79.3992C53.3289 84.6292 51.2789 92.3092 48.9489 99.3992C48.1289 101.899 47.0689 102.899 44.6489 103.149C41.1989 103.519 37.7489 104.019 34.3189 104.589C31.4889 105.059 30.9989 103.979 31.4789 101.349C33.7786 88.6946 39.6175 76.9509 48.3189 67.4792C53.8153 61.3054 60.4018 56.1969 67.7489 52.4092V52.4092Z" fill="#9E22E9"/>
<path d="M132.657 52.7795C141.438 57.3659 149.116 63.8083 155.157 71.6595C161.652 80.0853 166.16 89.8685 168.347 100.28C169.017 103.28 168.927 104.74 164.687 104.59C155.897 104.26 150.467 101.44 148.027 92.0795C145.937 84.0795 140.757 77.2595 134.617 71.4695C134.022 71.0159 133.534 70.4365 133.188 69.7728C132.843 69.1091 132.648 68.3773 132.617 67.6295C132.687 62.8795 132.657 58.1195 132.657 52.7795Z" fill="#9E22E9"/>
<path d="M135.389 173.861C135.389 167.771 135.389 161.861 135.389 155.861C135.389 154.141 136.389 153.161 137.499 152.111C144.39 145.302 149.26 136.718 151.569 127.311C151.889 126.041 151.989 124.231 153.409 124.021C158.319 123.281 163.279 122.841 168.219 122.341C169.469 122.221 169.309 123.211 169.319 124.041C169.599 139.751 150.899 167.451 135.389 173.861Z" fill="#9E22E9"/>
<path d="M128.359 79.6303C126.519 78.0003 126.449 76.3403 126.529 74.3603C126.856 66.5435 126.184 58.7169 124.529 51.0703C122.289 40.7403 119.079 30.7903 111.349 23.0703C104.649 16.4103 96.549 16.5103 89.689 22.9903C86.2303 26.3703 83.4741 30.401 81.579 34.8503C75.989 47.2303 74.189 60.3003 74.719 73.7303C74.839 76.8803 73.879 78.7903 71.489 80.8603C57.179 93.2103 52.489 113.8 60.209 130.48C63.8898 122.921 69.5199 116.479 76.519 111.82C82.519 107.93 82.519 107.94 86.739 113.48C94.949 124.26 105.539 124.39 114.149 113.81C114.846 113.094 115.457 112.299 115.969 111.44C117.369 108.44 119.049 108.38 121.829 109.99C130.119 114.83 136.149 121.7 140.959 130.78C148.309 110.85 143.929 93.3403 128.359 79.6303ZM99.959 74.6303C93.799 74.4703 88.459 68.9403 88.679 62.9503C88.899 56.9603 94.539 51.6003 100.489 51.7303C101.993 51.7651 103.475 52.0957 104.851 52.7033C106.226 53.3108 107.469 54.1835 108.508 55.2713C109.546 56.3591 110.361 57.6409 110.904 59.0434C111.447 60.4459 111.709 61.9417 111.674 63.4453C111.639 64.9489 111.309 66.431 110.701 67.8068C110.093 69.1827 109.221 70.4254 108.133 71.464C107.045 72.5027 105.763 73.3169 104.361 73.8601C102.958 74.4034 101.463 74.6651 99.959 74.6303V74.6303Z" fill="#9E22E9"/>
</svg>
