<svg width="200" height="200" viewBox="0 0 200 200" fill="none" xmlns="http://www.w3.org/2000/svg">
<path fill-rule="evenodd" clip-rule="evenodd" d="M88 5.5C88 5.7855 86.5 6 84.5 6C82.5 6 81 6.2145 81 6.5C81 6.775 80.1 7 79 7C77.9 7 77 7.225 77 7.5C77 7.775 76.1 8 75 8C73.9 8 73 8.225 73 8.5C73 8.775 72.325 9 71.5 9C70.675 9 70 9.225 70 9.5C70 9.775 69.325 10 68.5 10C67.675 10 67 10.225 67 10.5C67 10.775 66.325 11 65.5 11C64.675 11 64 11.225 64 11.5C64 11.775 63.55 12 63 12C62.45 12 62 12.225 62 12.5C62 12.775 61.55 13 61 13C60.45 13 60 13.225 60 13.5C60 13.775 59.55 14 59 14C58.45 14 58 14.225 58 14.5C58 14.775 57.55 15 57 15C56.45 15 56 15.225 56 15.5C56 15.775 55.55 16 55 16C54.45 16 54 16.225 54 16.5C54 16.775 53.5995 17 53.1105 17C52.621 17 51.8965 17.45 51.5 18C51.1035 18.55 50.379 19 49.8895 19C49.4005 19 49 19.225 49 19.5C49 19.775 48.6405 20 48.2005 20C47.761 20 46.7705 20.675 46 21.5C45.2295 22.325 44.3295 23 44 23C43.6705 23 42.7705 23.675 42 24.5C41.2295 25.325 40.3495 26 40.045 26C39.3215 26 26 39.3215 26 40.045C26 40.3495 25.325 41.2295 24.5 42C23.675 42.7705 23 43.6705 23 44C23 44.3295 22.325 45.2295 21.5 46C20.675 46.7705 20 47.761 20 48.2005C20 48.6405 19.775 49 19.5 49C19.225 49 19 49.4005 19 49.8895C19 50.379 18.55 51.1035 18 51.5C17.45 51.8965 17 52.621 17 53.1105C17 53.5995 16.775 54 16.5 54C16.225 54 16 54.45 16 55C16 55.55 15.775 56 15.5 56C15.225 56 15 56.45 15 57C15 57.55 14.775 58 14.5 58C14.225 58 14 58.45 14 59C14 59.55 13.775 60 13.5 60C13.225 60 13 60.45 13 61C13 61.55 12.775 62 12.5 62C12.225 62 12 62.45 12 63C12 63.55 11.775 64 11.5 64C11.225 64 11 64.675 11 65.5C11 66.325 10.775 67 10.5 67C10.225 67 10 67.675 10 68.5C10 69.325 9.775 70 9.5 70C9.225 70 9 70.675 9 71.5C9 72.325 8.775 73 8.5 73C8.225 73 8 73.9 8 75C8 76.1 7.775 77 7.5 77C7.225 77 7 77.9 7 79C7 80.1 6.775 81 6.5 81C6.2145 81 6 82.5 6 84.5C6 86.5 5.7855 88 5.5 88C5.1805 88 5 92.3335 5 100C5 107.667 5.1805 112 5.5 112C5.7855 112 6 113.5 6 115.5C6 117.5 6.2145 119 6.5 119C6.775 119 7 119.9 7 121C7 122.1 7.225 123 7.5 123C7.775 123 8 123.9 8 125C8 126.1 8.225 127 8.5 127C8.775 127 9 127.675 9 128.5C9 129.325 9.225 130 9.5 130C9.775 130 10 130.675 10 131.5C10 132.325 10.225 133 10.5 133C10.775 133 11 133.675 11 134.5C11 135.325 11.225 136 11.5 136C11.775 136 12 136.45 12 137C12 137.55 12.225 138 12.5 138C12.775 138 13 138.45 13 139C13 139.55 13.225 140 13.5 140C13.775 140 14 140.45 14 141C14 141.55 14.225 142 14.5 142C14.775 142 15 142.45 15 143C15 143.55 15.225 144 15.5 144C15.775 144 16 144.45 16 145C16 145.55 16.225 146 16.5 146C16.775 146 17 146.4 17 146.889C17 147.379 17.45 148.104 18 148.5C18.55 148.896 19 149.621 19 150.111C19 150.6 19.225 151 19.5 151C19.775 151 20 151.359 20 151.799C20 152.239 20.675 153.229 21.5 154C22.325 154.771 23 155.671 23 156C23 156.329 23.675 157.229 24.5 158C25.325 158.771 26 159.651 26 159.955C26 160.679 39.3215 174 40.045 174C40.3495 174 41.2295 174.675 42 175.5C42.7705 176.325 43.6705 177 44 177C44.3295 177 45.2295 177.675 46 178.5C46.7705 179.325 47.7115 180 48.09 180C48.469 180 49.1035 180.45 49.5 181C49.8965 181.55 50.621 182 51.1105 182C51.5995 182 52 182.225 52 182.5C52 182.775 52.45 183 53 183C53.55 183 54 183.225 54 183.5C54 183.775 54.45 184 55 184C55.55 184 56 184.225 56 184.5C56 184.775 56.45 185 57 185C57.55 185 58 185.225 58 185.5C58 185.775 58.45 186 59 186C59.55 186 60 186.225 60 186.5C60 186.775 60.45 187 61 187C61.55 187 62 187.225 62 187.5C62 187.775 62.45 188 63 188C63.55 188 64 188.225 64 188.5C64 188.775 64.675 189 65.5 189C66.325 189 67 189.225 67 189.5C67 189.775 67.675 190 68.5 190C69.325 190 70 190.225 70 190.5C70 190.775 70.675 191 71.5 191C72.325 191 73 191.225 73 191.5C73 191.775 73.9 192 75 192C76.1 192 77 192.225 77 192.5C77 192.775 77.9 193 79 193C80.1 193 81 193.225 81 193.5C81 193.785 82.5 194 84.5 194C86.5 194 88 194.215 88 194.5C88 194.819 92.3335 195 100 195C107.667 195 112 194.819 112 194.5C112 194.215 113.5 194 115.5 194C117.5 194 119 193.785 119 193.5C119 193.225 119.9 193 121 193C122.1 193 123 192.775 123 192.5C123 192.225 123.9 192 125 192C126.1 192 127 191.775 127 191.5C127 191.225 127.675 191 128.5 191C129.325 191 130 190.775 130 190.5C130 190.225 130.675 190 131.5 190C132.325 190 133 189.775 133 189.5C133 189.225 133.675 189 134.5 189C135.325 189 136 188.775 136 188.5C136 188.225 136.45 188 137 188C137.55 188 138 187.775 138 187.5C138 187.225 138.45 187 139 187C139.55 187 140 186.775 140 186.5C140 186.225 140.45 186 141 186C141.55 186 142 185.775 142 185.5C142 185.225 142.45 185 143 185C143.55 185 144 184.775 144 184.5C144 184.225 144.45 184 145 184C145.55 184 146 183.775 146 183.5C146 183.225 146.45 183 147 183C147.55 183 148 182.775 148 182.5C148 182.225 148.4 182 148.889 182C149.379 182 150.104 181.55 150.5 181C150.896 180.45 151.531 180 151.91 180C152.289 180 153.229 179.325 154 178.5C154.771 177.675 155.671 177 156 177C156.329 177 157.229 176.325 158 175.5C158.771 174.675 159.651 174 159.955 174C160.679 174 174 160.679 174 159.955C174 159.651 174.675 158.771 175.5 158C176.325 157.229 177 156.329 177 156C177 155.671 177.675 154.771 178.5 154C179.325 153.229 180 152.239 180 151.799C180 151.359 180.225 151 180.5 151C180.775 151 181 150.6 181 150.111C181 149.621 181.45 148.896 182 148.5C182.55 148.104 183 147.379 183 146.889C183 146.4 183.225 146 183.5 146C183.775 146 184 145.55 184 145C184 144.45 184.225 144 184.5 144C184.775 144 185 143.55 185 143C185 142.45 185.225 142 185.5 142C185.775 142 186 141.55 186 141C186 140.45 186.225 140 186.5 140C186.775 140 187 139.55 187 139C187 138.45 187.225 138 187.5 138C187.775 138 188 137.55 188 137C188 136.45 188.225 136 188.5 136C188.775 136 189 135.325 189 134.5C189 133.675 189.225 133 189.5 133C189.775 133 190 132.325 190 131.5C190 130.675 190.225 130 190.5 130C190.775 130 191 129.325 191 128.5C191 127.675 191.225 127 191.5 127C191.775 127 192 126.1 192 125C192 123.9 192.225 123 192.5 123C192.775 123 193 122.1 193 121C193 119.9 193.225 119 193.5 119C193.785 119 194 117.5 194 115.5C194 113.5 194.215 112 194.5 112C194.819 112 195 107.667 195 100C195 92.3335 194.819 88 194.5 88C194.215 88 194 86.5 194 84.5C194 82.5 193.785 81 193.5 81C193.225 81 193 80.1 193 79C193 77.9 192.775 77 192.5 77C192.225 77 192 76.1 192 75C192 73.9 191.775 73 191.5 73C191.225 73 191 72.325 191 71.5C191 70.675 190.775 70 190.5 70C190.225 70 190 69.325 190 68.5C190 67.675 189.775 67 189.5 67C189.225 67 189 66.325 189 65.5C189 64.675 188.775 64 188.5 64C188.225 64 188 63.55 188 63C188 62.45 187.775 62 187.5 62C187.225 62 187 61.55 187 61C187 60.45 186.775 60 186.5 60C186.225 60 186 59.55 186 59C186 58.45 185.775 58 185.5 58C185.225 58 185 57.55 185 57C185 56.45 184.775 56 184.5 56C184.225 56 184 55.55 184 55C184 54.45 183.775 54 183.5 54C183.225 54 183 53.5995 183 53.1105C183 52.621 182.55 51.8965 182 51.5C181.45 51.1035 181 50.379 181 49.8895C181 49.4005 180.775 49 180.5 49C180.225 49 180 48.6405 180 48.2005C180 47.761 179.325 46.7705 178.5 46C177.675 45.2295 177 44.3295 177 44C177 43.6705 176.325 42.7705 175.5 42C174.675 41.2295 174 40.3495 174 40.045C174 39.3215 160.679 26 159.955 26C159.651 26 158.771 25.325 158 24.5C157.229 23.675 156.329 23 156 23C155.671 23 154.771 22.325 154 21.5C153.229 20.675 152.239 20 151.799 20C151.359 20 151 19.775 151 19.5C151 19.225 150.6 19 150.111 19C149.621 19 148.896 18.55 148.5 18C148.104 17.45 147.379 17 146.889 17C146.4 17 146 16.775 146 16.5C146 16.225 145.55 16 145 16C144.45 16 144 15.775 144 15.5C144 15.225 143.55 15 143 15C142.45 15 142 14.775 142 14.5C142 14.225 141.55 14 141 14C140.45 14 140 13.775 140 13.5C140 13.225 139.55 13 139 13C138.45 13 138 12.775 138 12.5C138 12.225 137.55 12 137 12C136.45 12 136 11.775 136 11.5C136 11.225 135.325 11 134.5 11C133.675 11 133 10.775 133 10.5C133 10.225 132.325 10 131.5 10C130.675 10 130 9.775 130 9.5C130 9.225 129.325 9 128.5 9C127.675 9 127 8.775 127 8.5C127 8.225 126.1 8 125 8C123.9 8 123 7.775 123 7.5C123 7.225 122.1 7 121 7C119.9 7 119 6.775 119 6.5C119 6.2145 117.5 6 115.5 6C113.5 6 112 5.7855 112 5.5C112 5.1805 107.667 5 100 5C92.3335 5 88 5.1805 88 5.5ZM70 63.5C70 63.775 70.9 64 72 64C73.1 64 74 64.225 74 64.5C74 64.775 74.675 65 75.5 65C76.325 65 77 65.225 77 65.5C77 65.775 77.4005 66 77.8895 66C78.379 66 79.1035 66.45 79.5 67C79.8965 67.55 80.513 68 80.8695 68C81.715 68 88 74.285 88 75.1305C88 75.487 88.45 76.1035 89 76.5C89.55 76.8965 90 77.621 90 78.1105C90 78.5995 90.225 79 90.5 79C90.775 79 91 79.45 91 80C91 80.55 91.225 81 91.5 81C91.775 81 92 81.45 92 82C92 82.55 92.225 83 92.5 83C92.775 83 93 83.675 93 84.5C93 85.325 93.225 86 93.5 86C93.775 86 94 86.9 94 88C94 89.1 94.225 90 94.5 90C94.7855 90 95 91.5 95 93.5C95 95.5 95.2145 97 95.5 97C96.2785 97 96.097 101.474 95.2855 102.285C94.685 102.886 90.4665 103 68.7855 103H43V107.5C43 110.167 43.2035 112 43.5 112C43.775 112 44 112.675 44 113.5C44 114.325 44.225 115 44.5 115C44.775 115 45 115.401 45 115.89C45 116.379 45.45 117.104 46 117.5C46.55 117.896 47 118.519 47 118.883C47 119.742 49.2585 122 50.117 122C50.481 122 51.1035 122.45 51.5 123C51.8965 123.55 52.621 124 53.1105 124C53.5995 124 54 124.225 54 124.5C54 124.775 54.45 125 55 125C55.55 125 56 125.225 56 125.5C56 125.775 56.9 126 58 126C59.1 126 60 126.225 60 126.5C60 126.796 61.8335 127 64.5 127C67.1665 127 69 126.796 69 126.5C69 126.225 69.9 126 71 126C72.1 126 73 125.775 73 125.5C73 125.225 73.45 125 74 125C74.55 125 75 124.775 75 124.5C75 124.225 75.3435 124 75.763 124C76.7555 124 81 119.756 81 118.763C81 118.344 81.225 118 81.5 118C81.775 118 82 117.55 82 117C82 116.45 82.225 116 82.5 116C82.775 116 83 115.55 83 115C83 114.061 83.3335 114 88.5 114H94V116C94 117.1 93.775 118 93.5 118C93.225 118 93 118.675 93 119.5C93 120.325 92.775 121 92.5 121C92.225 121 92 121.401 92 121.89C92 122.379 91.55 123.104 91 123.5C90.45 123.896 90 124.513 90 124.869C90 125.779 83.683 132 82.7595 132C82.3415 132 82 132.225 82 132.5C82 132.775 81.55 133 81 133C80.45 133 80 133.225 80 133.5C80 133.775 79.55 134 79 134C78.45 134 78 134.225 78 134.5C78 134.775 77.325 135 76.5 135C75.675 135 75 135.225 75 135.5C75 135.775 74.1 136 73 136C71.9 136 71 136.225 71 136.5C71 136.81 68.3335 137 64 137C59.6665 137 57 136.81 57 136.5C57 136.225 56.1 136 55 136C53.9 136 53 135.775 53 135.5C53 135.225 52.325 135 51.5 135C50.675 135 50 134.775 50 134.5C50 134.225 49.55 134 49 134C48.45 134 48 133.775 48 133.5C48 133.225 47.55 133 47 133C46.45 133 46 132.775 46 132.5C46 132.225 45.659 132 45.242 132C44.32 132 37 124.778 37 123.868C37 123.512 36.55 122.896 36 122.5C35.45 122.104 35 121.379 35 120.89C35 120.401 34.775 120 34.5 120C34.225 120 34 119.55 34 119C34 118.45 33.775 118 33.5 118C33.225 118 33 117.325 33 116.5C33 115.675 32.775 115 32.5 115C32.225 115 32 114.1 32 113C32 111.9 31.775 111 31.5 111C31.222 111 31 109.666 31 108C31 106.334 30.778 105 30.5 105C30.1945 105 30 102.667 30 99C30 95.3335 30.1945 93 30.5 93C30.775 93 31 91.875 31 90.5C31 89.125 31.225 88 31.5 88C31.775 88 32 87.325 32 86.5C32 85.675 32.225 85 32.5 85C32.775 85 33 84.55 33 84C33 83.45 33.225 83 33.5 83C33.775 83 34 82.55 34 82C34 81.45 34.225 81 34.5 81C34.775 81 35 80.55 35 80C35 79.45 35.225 79 35.5 79C35.775 79 36 78.5995 36 78.1105C36 77.621 36.45 76.8965 37 76.5C37.55 76.1035 38 75.4855 38 75.1265C38 74.277 42.277 70 43.1265 70C43.4855 70 44.1035 69.55 44.5 69C44.8965 68.45 45.5715 68 46 68C46.4285 68 47.1035 67.55 47.5 67C47.8965 66.45 48.621 66 49.1105 66C49.5995 66 50 65.775 50 65.5C50 65.225 50.675 65 51.5 65C52.325 65 53 64.775 53 64.5C53 64.225 53.9 64 55 64C56.1 64 57 63.775 57 63.5C57 63.1925 59.5 63 63.5 63C67.5 63 70 63.1925 70 63.5ZM116.772 64.2275C117.447 64.9025 118 65.7525 118 66.117C118 66.481 118.45 67.1035 119 67.5C119.55 67.8965 120 68.5715 120 69C120 69.4285 120.45 70.1035 121 70.5C121.55 70.8965 122 71.5715 122 72C122 72.4285 122.45 73.1035 123 73.5C123.55 73.8965 124 74.531 124 74.91C124 75.2885 124.675 76.2295 125.5 77C126.325 77.7705 127 78.7115 127 79.09C127 79.469 127.45 80.1035 128 80.5C128.55 80.8965 129 81.5715 129 82C129 82.4285 129.45 83.1035 130 83.5C130.55 83.8965 131 84.519 131 84.883C131 85.7955 133.282 88 134.227 88C134.652 88 135 87.5995 135 87.1105C135 86.621 135.45 85.8965 136 85.5C136.55 85.1035 137 84.469 137 84.09C137 83.7115 137.675 82.7705 138.5 82C139.325 81.2295 140 80.2885 140 79.91C140 79.531 140.45 78.8965 141 78.5C141.55 78.1035 142 77.469 142 77.09C142 76.7115 142.675 75.7705 143.5 75C144.325 74.2295 145 73.2885 145 72.91C145 72.531 145.45 71.8965 146 71.5C146.55 71.1035 147 70.469 147 70.09C147 69.7115 147.675 68.7705 148.5 68C149.325 67.2295 150 66.3415 150 66.0265C150 65.712 150.552 64.9025 151.227 64.2275C152.409 63.045 152.703 63 159.227 63C166.81 63 167.37 63.319 164.5 66C163.675 66.7705 163 67.6705 163 68C163 68.3295 162.325 69.2295 161.5 70C160.675 70.7705 160 71.6705 160 72C160 72.3295 159.325 73.2295 158.5 74C157.675 74.7705 157 75.6705 157 76C157 76.3295 156.325 77.2295 155.5 78C154.675 78.7705 154 79.6705 154 80C154 80.3295 153.325 81.2295 152.5 82C151.675 82.7705 151 83.6705 151 84C151 84.3295 150.325 85.2295 149.5 86C148.675 86.7705 148 87.6705 148 88C148 88.3295 147.325 89.2295 146.5 90C145.675 90.7705 145 91.7115 145 92.09C145 92.469 144.55 93.1035 144 93.5C143.45 93.8965 143 94.621 143 95.1105C143 95.5995 142.775 96 142.5 96C141.576 96 141.969 98.7575 143 99.5C143.55 99.8965 144 100.531 144 100.91C144 101.289 144.675 102.229 145.5 103C146.325 103.771 147 104.711 147 105.09C147 105.469 147.45 106.104 148 106.5C148.55 106.896 149 107.531 149 107.91C149 108.289 149.675 109.229 150.5 110C151.325 110.771 152 111.711 152 112.09C152 112.469 152.45 113.104 153 113.5C153.55 113.896 154 114.531 154 114.91C154 115.289 154.675 116.229 155.5 117C156.325 117.771 157 118.671 157 119C157 119.329 157.675 120.229 158.5 121C159.325 121.771 160 122.711 160 123.09C160 123.469 160.45 124.104 161 124.5C161.55 124.896 162 125.531 162 125.91C162 126.289 162.675 127.229 163.5 128C164.325 128.771 165 129.711 165 130.09C165 130.469 165.45 131.104 166 131.5C166.55 131.896 167 132.572 167 133C167 133.428 167.45 134.104 168 134.5C168.55 134.896 169 135.621 169 136.111C169 136.923 168.366 137 161.727 137C154.672 137 154.418 136.964 153.227 135.773C152.552 135.098 152 134.247 152 133.883C152 133.519 151.55 132.896 151 132.5C150.45 132.104 150 131.428 150 131C150 130.572 149.55 129.896 149 129.5C148.45 129.104 148 128.428 148 128C148 127.572 147.55 126.896 147 126.5C146.45 126.104 146 125.428 146 125C146 124.572 145.55 123.896 145 123.5C144.45 123.104 144 122.428 144 122C144 121.572 143.55 120.896 143 120.5C142.45 120.104 142 119.428 142 119C142 118.572 141.55 117.896 141 117.5C140.45 117.104 140 116.428 140 116C140 115.572 139.55 114.896 139 114.5C138.45 114.104 138 113.428 138 113C138 112.572 137.55 111.896 137 111.5C136.45 111.104 136 110.481 136 110.117C136 109.752 135.434 108.889 134.743 108.198C133.631 107.086 133.401 107.027 132.743 107.685C132.334 108.094 132 108.732 132 109.104C132 109.475 131.55 110.104 131 110.5C130.45 110.896 130 111.572 130 112C130 112.428 129.55 113.104 129 113.5C128.45 113.896 128 114.572 128 115C128 115.428 127.55 116.104 127 116.5C126.45 116.896 126 117.572 126 118C126 118.428 125.55 119.104 125 119.5C124.45 119.896 124 120.572 124 121C124 121.428 123.55 122.104 123 122.5C122.45 122.896 122 123.572 122 124C122 124.428 121.55 125.104 121 125.5C120.45 125.896 120 126.572 120 127C120 127.428 119.55 128.104 119 128.5C118.45 128.896 118 129.531 118 129.91C118 130.289 117.325 131.229 116.5 132C115.675 132.771 115 133.658 115 133.973C115 134.288 114.447 135.098 113.772 135.773C112.59 136.955 112.297 137 105.772 137C99.6135 137 99 136.92 99 136.111C99 135.621 99.45 134.896 100 134.5C100.55 134.104 101 133.469 101 133.09C101 132.711 101.675 131.771 102.5 131C103.325 130.229 104 129.289 104 128.91C104 128.531 104.45 127.896 105 127.5C105.55 127.104 106 126.469 106 126.09C106 125.711 106.675 124.771 107.5 124C108.325 123.229 109 122.289 109 121.91C109 121.531 109.45 120.896 110 120.5C110.55 120.104 111 119.469 111 119.09C111 118.711 111.675 117.771 112.5 117C113.325 116.229 114 115.289 114 114.91C114 114.531 114.45 113.896 115 113.5C115.55 113.104 116 112.469 116 112.09C116 111.711 116.675 110.771 117.5 110C118.325 109.229 119 108.289 119 107.91C119 107.531 119.45 106.896 120 106.5C120.55 106.104 121 105.469 121 105.09C121 104.711 121.675 103.771 122.5 103C123.325 102.229 124 101.289 124 100.91C124 100.531 124.45 99.8965 125 99.5C126.378 98.5065 126.255 97.639 124.5 96C123.675 95.2295 123 94.3295 123 94C123 93.6705 122.325 92.7705 121.5 92C120.675 91.2295 120 90.3295 120 90C120 89.6705 119.325 88.7705 118.5 88C117.675 87.2295 117 86.2885 117 85.91C117 85.531 116.55 84.8965 116 84.5C115.45 84.1035 115 83.469 115 83.09C115 82.7115 114.325 81.7705 113.5 81C112.675 80.2295 112 79.3295 112 79C112 78.6705 111.325 77.7705 110.5 77C109.675 76.2295 109 75.3295 109 75C109 74.6705 108.325 73.7705 107.5 73C106.675 72.2295 106 71.2885 106 70.91C106 70.531 105.55 69.8965 105 69.5C104.45 69.1035 104 68.469 104 68.09C104 67.7115 103.325 66.7705 102.5 66C101.675 65.2295 101 64.239 101 63.7995C101 63.1035 101.941 63 108.272 63C115.327 63 115.582 63.0365 116.772 64.2275ZM60 73.5C60 73.775 59.1 74 58 74C56.9 74 56 74.225 56 74.5C56 74.775 55.3745 75 54.6105 75C53.7945 75 52.9235 75.413 52.5 76C52.1035 76.55 51.484 77 51.123 77C50.27 77 47 80.27 47 81.123C47 81.484 46.55 82.1035 46 82.5C45.45 82.8965 45 83.621 45 84.1105C45 84.5995 44.775 85 44.5 85C44.225 85 44 85.675 44 86.5C44 87.325 43.775 88 43.5 88C43.225 88 43 89.125 43 90.5V93H63H83V91C83 89.9 82.775 89 82.5 89C82.225 89 82 88.325 82 87.5C82 86.675 81.775 86 81.5 86C81.225 86 81 85.55 81 85C81 84.45 80.775 84 80.5 84C80.225 84 80 83.6585 80 83.2405C80 82.823 78.5415 81.023 76.7595 79.2405C74.977 77.4585 73.177 76 72.7595 76C72.3415 76 72 75.775 72 75.5C72 75.225 71.55 75 71 75C70.45 75 70 74.775 70 74.5C70 74.225 69.1 74 68 74C66.9 74 66 73.775 66 73.5C66 73.222 64.6665 73 63 73C61.3335 73 60 73.222 60 73.5Z" fill="#9E22E9"/>
</svg>
