<svg width="200" height="200" viewBox="0 0 200 200" fill="none" xmlns="http://www.w3.org/2000/svg">
<path d="M173.432 7.8398C173.072 9.2598 171.822 9.9598 170.892 10.8998C141.752 40.1198 112.605 69.3298 83.4522 98.5298C74.5222 107.53 65.5622 116.42 56.8322 125.53C54.4022 128.09 53.1122 127.72 50.8822 125.4C43.4688 117.713 35.9222 110.153 28.2422 102.72C26.0622 100.61 25.9822 99.4498 28.2422 97.2498C57.1222 68.4698 85.9455 39.6298 114.712 10.7298C115.712 9.7798 116.582 8.7798 117.512 7.7998L173.432 7.8398Z" fill="#9E22E9"/>
<path d="M128.799 147.06C143.559 161.774 158.316 176.49 173.069 191.21C173.289 191.43 173.319 191.84 173.429 192.16H117.429L96.639 171.21C96.6335 171.025 96.6662 170.841 96.735 170.669C96.8038 170.497 96.9073 170.341 97.039 170.21C99.359 168.49 102.199 167.99 104.809 166.97C106.999 166.22 109.089 165.21 111.309 164.56C113.529 163.91 115.839 163 118.119 162.26C119.124 161.812 120.152 161.419 121.199 161.08C124.199 160.16 125.549 158.22 125.319 155.08C125.157 153.12 125.423 151.147 126.099 149.3C126.549 148.1 126.899 146.61 128.799 147.06Z" fill="#5F168B"/>
<path d="M96.0035 114.669C102.804 107.769 109.604 100.879 116.404 93.9991C116.831 93.5662 117.348 93.2312 117.918 93.0171C118.487 92.803 119.097 92.715 119.704 92.7591C137.124 92.7591 154.547 92.7591 171.974 92.7591C172.402 92.8109 172.824 92.9047 173.234 93.0391C172.954 94.5491 171.734 95.2791 170.854 96.1591C156.394 110.692 141.917 125.209 127.424 139.709C126.484 140.649 125.674 141.709 124.804 142.709C124.67 142.829 124.507 142.911 124.331 142.946C124.155 142.981 123.973 142.969 123.804 142.909C116.184 136.259 109.384 128.759 102.204 121.659C100.004 119.489 97.3135 117.679 96.0035 114.669Z" fill="#9E22E9"/>
<path d="M95.9993 114.67C105.719 123.67 114.999 133.11 124.119 142.75C124.569 144.56 123.049 145.3 122.119 146.29C120.059 148.49 117.879 150.57 115.769 152.72C113.229 155.16 110.769 157.67 108.309 160.18C104.509 163.73 101.189 167.81 96.8993 170.83C96.8535 170.975 96.7708 171.106 96.6593 171.21C87.8393 162.38 79.0793 153.49 70.1493 144.76C68.2893 142.94 68.3593 142.03 70.1493 140.25C78.8593 131.81 87.3893 123.21 95.9993 114.67Z" fill="#8020BA"/>
<path d="M128.8 147.06C126.34 148.23 126.13 150.92 126.45 152.71C127.71 159.63 123.68 161.97 118.18 163.39C116.5 160.92 117.18 158.26 117.64 155.67C118.44 151.5 120.95 148.2 123.39 144.88C123.628 144.453 124.024 144.136 124.493 143.996C124.961 143.856 125.466 143.904 125.9 144.13C126.86 145.11 127.83 146.09 128.8 147.06Z" fill="#58168C"/>
<path d="M125.903 144.131C123.707 145.901 121.893 148.099 120.573 150.592C119.253 153.085 118.453 155.82 118.223 158.631C118.137 160.217 118.137 161.805 118.223 163.391L111.553 165.571C109.553 164.441 110.123 162.761 110.553 161.091C111.403 157.751 113.383 155.001 115.253 152.191L124.143 142.751H124.843L125.903 144.131Z" fill="#4A1574"/>
<path d="M115.212 152.19C114.782 154.99 112.712 157.07 111.942 159.72C111.372 161.65 110.162 163.51 111.512 165.57L104.932 167.77C103.932 164.33 106.502 162.17 107.842 159.57L115.212 152.19Z" fill="#3A0D56"/>
<path d="M107.84 159.57L104.93 167.77L96.8804 170.83C100 166.55 104 163.17 107.84 159.57Z" fill="#220440"/>
</svg>
