<svg width="200" height="200" viewBox="0 0 200 200" fill="none" xmlns="http://www.w3.org/2000/svg">
<path fill-rule="evenodd" clip-rule="evenodd" d="M155.168 81.1412C154.009 79.5559 151.968 79 148.066 79H135.719C131.928 79 129.775 79.7707 128.028 81.4832C125.414 83.8585 122.582 88.609 120.153 100.38C117.724 112.15 118.589 116.772 120.245 119.277C121.33 120.966 123.17 121.759 126.98 121.759H139.123C142.528 121.759 145.159 121.075 147.018 119.277C149.539 116.879 151.967 113.285 154.009 102.97L154.874 98.7964C154.985 98.2181 154.69 97.7691 154.194 97.7691H137.374C137.117 97.786 136.874 97.8956 136.685 98.0791C136.492 98.2651 136.36 98.5174 136.309 98.7953L134.947 105.58C134.836 106.136 135.131 106.607 135.628 106.607H142.619L142.528 106.928C141.957 109.989 140.963 111.123 140.484 111.593C140.08 111.914 139.528 112.021 138.057 112.021H133.087C131.432 112.021 130.935 111.914 130.751 111.572C130.457 111.016 130.181 108.983 131.928 100.38C133.676 91.7775 134.744 89.8501 135.333 89.2729C135.719 88.9522 136.197 88.8453 137.853 88.8453H142.528C144.184 88.8453 144.57 88.9522 144.772 89.2943C144.801 89.3413 144.832 89.3862 144.865 89.4332C145.139 89.8384 145.488 90.3557 145.159 92.6754C145.047 93.1458 145.342 93.5947 145.84 93.5947H154.874C155.132 93.5841 155.38 93.4772 155.575 93.2912C155.772 93.1052 155.908 92.8507 155.96 92.5685C157.009 85.9975 156.53 83.0653 155.168 81.1412V81.1412ZM71.7048 79.3421C75.514 79.3421 77.2617 80.1342 78.3294 81.697C79.8935 84.0937 80.7581 88.8453 78.2371 100.486C75.6976 112.15 72.8832 116.772 70.2514 119.277C68.5038 120.859 66.3694 121.631 62.5786 121.631H50.4166C46.6258 121.631 44.7674 120.86 43.793 119.277C42.2464 116.902 41.3643 112.15 43.9756 100.486C46.5161 88.8442 49.4412 84.2006 52.072 81.7184C53.8207 80.1363 55.9551 79.3421 59.7448 79.3421H71.7048ZM54.0033 111.358C54.1879 111.7 54.6843 111.786 56.2494 111.786H60.9222C62.4689 111.786 63.0576 111.7 63.4433 111.358C63.9397 110.888 64.8053 109.775 66.7561 100.486C68.7786 91.2195 68.4115 90.0853 68.1171 89.6363C67.9325 89.2943 67.4361 89.166 65.872 89.166H61.3089C59.7438 89.166 59.1756 89.2943 58.7694 89.6363C58.2915 90.0639 57.4074 91.2195 55.4566 100.486C53.3233 109.882 53.7089 110.888 54.0033 111.358V111.358ZM98.0729 107.163C100.41 107.163 100.814 107.398 101.183 107.956L101.201 107.978C101.569 108.619 101.771 109.196 101.386 112.257C100.796 115.531 100.41 118.142 100.116 120.732C100.024 121.31 100.41 121.652 100.796 121.652H110.42C110.916 121.652 111.394 121.075 111.486 120.518C111.873 117.365 112.363 114.231 112.958 111.124C114.117 105.002 112.277 103.655 108.873 102.649V102.521C113.252 101.514 115.773 99.2464 117.43 91.3264C118.699 85.4417 118.312 83.4085 117.153 81.4832C116.068 79.899 114.117 79.3421 110.529 79.3421H88.3386C88.0863 79.356 87.8463 79.4629 87.6535 79.6446C87.4607 79.8263 87.3263 80.0733 87.2719 80.348L78.6248 120.625C78.5325 121.203 78.8073 121.652 79.3058 121.652H88.7448C88.9991 121.637 89.2412 121.527 89.435 121.342C89.6278 121.156 89.7601 120.904 89.8114 120.625L92.4248 108.192C92.476 107.909 92.6114 107.654 92.8083 107.468C93.0053 107.282 93.2524 107.174 93.5099 107.163H98.074H98.0729ZM100.502 98.0043C102.545 98.0043 103.132 97.8974 103.519 97.5553C104.2 96.9759 104.697 95.9711 105.176 93.4889C105.653 90.9843 105.561 90.0639 105.176 89.507C104.881 89.166 104.402 89.0794 102.36 89.0794H97.3006C97.0483 89.0933 96.8083 89.1991 96.6145 89.3819C96.4217 89.5636 96.2883 89.8095 96.233 90.0853L94.7612 97.1063C94.6689 97.6622 94.9448 98.1112 95.4422 98.1112H100.502V98.0043V98.0043ZM186.007 121.759H156.933C156.437 121.759 156.144 121.31 156.236 120.732L164.404 80.0059C164.46 79.728 164.597 79.4778 164.794 79.295C164.986 79.1149 165.233 79.0105 165.491 79H199.348C199.917 79 200.211 79.6628 199.825 80.348C198.353 83.0664 192.722 88.8442 186.393 88.8442H174.617C174.362 88.8599 174.12 88.9667 173.931 89.1467C173.74 89.3285 173.605 89.5743 173.55 89.8501L172.686 94.3879C172.594 94.9438 172.869 95.3928 173.367 95.3928H189.228C189.706 95.3928 190 95.8428 189.909 96.4201L188.547 103.547C188.491 103.825 188.355 104.075 188.158 104.257C187.963 104.438 187.717 104.543 187.462 104.553H171.619C171.361 104.57 171.117 104.679 170.928 104.863C170.735 105.049 170.603 105.301 170.552 105.58L169.466 110.781C169.373 111.358 169.65 111.808 170.146 111.808H187.958C188.437 111.808 188.731 112.236 188.639 112.813L187.075 120.625C187.044 120.919 186.92 121.193 186.723 121.405C186.528 121.613 186.276 121.737 186.008 121.759H186.007ZM6.34795 79.3421H46.2207C46.7182 79.3421 46.9007 79.7921 46.7182 80.4549L42.5407 88.1601C42.43 88.7373 41.952 89.166 41.4546 89.166H25.7972C25.5428 89.1876 25.3032 89.2992 25.1182 89.4824C24.9267 89.6727 24.7975 89.9211 24.749 90.1922L23.2741 96.528C23.1818 97.1053 23.4587 97.5564 23.9551 97.5564H34.351C34.8484 97.5564 35.1428 98.0053 35.032 98.5612L33.4864 105.581C33.3941 106.137 32.8977 106.608 32.4197 106.608H22.0054C21.7531 106.623 21.5131 106.729 21.3202 106.91C21.1274 107.092 20.992 107.339 20.9377 107.613L18.0126 120.733C17.9202 121.311 17.4413 121.76 16.9459 121.76H0.697702C0.200267 121.76 -0.0746048 121.311 0.0177028 120.733L0.992061 116.666C1.08437 116.218 1.39719 115.769 1.76437 115.639C2.01873 115.564 2.32129 115.494 2.6577 115.416C4.78488 114.927 8.26795 114.127 9.36436 109.434L9.65872 107.958L13.0628 93.1479L13.3397 91.6481C14.3931 87.2194 8.97769 86.2552 6.11821 85.7474C5.48436 85.6341 4.97462 85.5443 4.69052 85.4427C4.39616 85.2075 4.21257 84.8869 4.30385 84.4165L5.27923 80.3491C5.33462 80.0743 5.46795 79.8274 5.66077 79.6457C5.85359 79.4639 6.09462 79.357 6.34692 79.3431L6.34795 79.3421Z" fill="#9E22E9"/>
</svg>
