<svg xmlns="http://www.w3.org/2000/svg" width="200" height="200" fill="none"><rect width="100%" height="100%"/><g class="currentLayer"><path fill-rule="evenodd" clip-rule="evenodd" d="M152.827 78.926c-1.13-1.483-3.12-2.003-6.925-2.003h-12.038c-3.696 0-5.795.721-7.499 2.323-2.548 2.222-5.31 6.666-7.678 17.677-2.368 11.011-1.525 15.335.09 17.678 1.058 1.58 2.852 2.322 6.566 2.322h11.84c3.32 0 5.885-.64 7.697-2.322 2.458-2.243 4.826-5.605 6.817-15.255l.843-3.904c.108-.541-.179-.961-.663-.961h-16.399a1.084 1.084 0 00-.672.29c-.188.174-.317.41-.367.67l-1.328 6.347c-.108.52.18.961.664.961h6.816l-.088.3c-.557 2.863-1.526 3.924-1.993 4.364-.394.3-.932.4-2.367.4h-4.845c-1.614 0-2.098-.1-2.278-.42-.287-.52-.556-2.422 1.148-10.47 1.704-8.047 2.745-9.85 3.32-10.39.376-.3.842-.4 2.457-.4h4.558c1.614 0 1.991.1 2.188.42.028.044.058.086.09.13.267.379.608.863.287 3.033-.109.44.178.86.664.86h8.808c.252-.01.493-.11.684-.284.192-.174.324-.412.375-.676 1.023-6.147.556-8.89-.772-10.69zM71.45 77.243c3.714 0 5.418.741 6.459 2.203 1.525 2.242 2.368 6.687-.09 17.577-2.476 10.911-5.22 15.235-7.786 17.578-1.704 1.48-3.785 2.202-7.481 2.202H50.694c-3.696 0-5.508-.721-6.458-2.202-1.508-2.222-2.368-6.667.178-17.578 2.477-10.891 5.329-15.235 7.894-17.557 1.705-1.48 3.786-2.223 7.481-2.223H71.45zm-17.259 29.95c.18.32.664.4 2.19.4h4.556c1.508 0 2.082-.08 2.458-.4.484-.44 1.328-1.481 3.23-10.17 1.972-8.669 1.614-9.73 1.327-10.15-.18-.32-.664-.44-2.189-.44h-4.449c-1.526 0-2.08.12-2.476.44-.466.4-1.328 1.481-3.23 10.15-2.08 8.789-1.704 9.73-1.417 10.17zm42.968-3.924c2.279 0 2.673.22 3.032.742l.018.02c.359.6.556 1.14.18 4.003-.575 3.063-.951 5.505-1.238 7.928-.09.541.287.861.663.861h9.383c.484 0 .95-.54 1.04-1.061.377-2.95.855-5.881 1.435-8.788 1.13-5.727-.664-6.987-3.983-7.928v-.12c4.27-.942 6.728-3.063 8.343-10.472 1.237-5.505.86-7.407-.27-9.208-1.058-1.482-2.96-2.003-6.458-2.003H87.668c-.246.013-.48.113-.668.283-.188.17-.319.401-.372.658l-8.431 37.678c-.09.541.178.961.664.961h9.203c.248-.014.484-.117.673-.29.188-.174.317-.41.367-.671l2.548-11.631c.05-.264.182-.503.374-.677.192-.174.433-.275.684-.285h4.45zm2.368-8.568c1.992 0 2.565-.1 2.942-.42.664-.542 1.148-1.482 1.615-3.804.466-2.343.376-3.204 0-3.725-.287-.319-.754-.4-2.745-.4h-4.933c-.246.013-.48.112-.669.283-.188.17-.318.4-.372.658l-1.435 6.568c-.09.52.179.94.664.94h4.933v-.1zm83.368 22.222h-28.347c-.484 0-.77-.42-.68-.961l7.964-38.098c.054-.26.188-.494.38-.665a1.08 1.08 0 01.68-.276h33.01c.555 0 .842.62.465 1.261-1.435 2.543-6.925 7.948-13.096 7.948H171.79a1.085 1.085 0 00-.669.283c-.187.17-.318.4-.372.658l-.842 4.245c-.09.52.178.94.664.94h15.464c.466 0 .753.421.664.961l-1.328 6.667c-.054.26-.187.494-.379.664-.19.17-.43.268-.679.277h-15.447a1.085 1.085 0 00-.673.29c-.188.174-.317.41-.367.671l-1.059 4.865c-.09.54.18.961.663.961h17.367c.467 0 .754.4.664.94l-1.525 7.308a1.244 1.244 0 01-.343.73c-.19.194-.436.31-.697.331zM7.727 77.243h38.876c.485 0 .663.421.485 1.041l-4.073 7.208c-.108.54-.574.941-1.059.941H26.69a1.09 1.09 0 00-.662.296 1.229 1.229 0 00-.36.664L24.23 93.32c-.09.54.18.962.664.962h10.136c.485 0 .772.42.664.94l-1.507 6.567c-.09.52-.574.961-1.04.961H22.993c-.246.014-.48.113-.668.282-.188.17-.32.401-.373.658l-2.852 12.273c-.09.541-.557.961-1.04.961H2.218c-.485 0-.753-.42-.663-.961l.95-3.804c.09-.42.395-.84.753-.961.248-.07.543-.136.871-.209 2.074-.457 5.47-1.206 6.539-5.596l.287-1.381 3.319-13.854.27-1.403c1.027-4.143-4.253-5.045-7.041-5.52-.618-.106-1.115-.19-1.392-.285-.287-.22-.466-.52-.377-.96l.951-3.805c.054-.257.184-.488.372-.658.188-.17.423-.27.669-.283z" fill="#19B69B"/></g></svg>