<svg width="200" height="200" viewBox="0 0 200 200" fill="none" xmlns="http://www.w3.org/2000/svg">
<path d="M146.949 109.139L146.758 109.436L146.796 109.787C147.462 115.993 148.129 122.21 148.796 128.436C149.792 137.731 149.958 146.704 145.645 155.115C143.703 158.719 141.224 162.006 138.292 164.864L138.204 164.949L138.14 165.054C137.501 166.086 136.623 166.864 135.592 167.563C134.912 168.024 134.229 168.412 133.512 168.82C133.093 169.058 132.663 169.303 132.214 169.573L132.213 169.574C131.903 169.761 131.605 169.973 131.34 170.162L131.293 170.195C131.004 170.401 130.75 170.579 130.493 170.73C129.993 171.023 129.557 171.166 129.061 171.115L128.812 171.09L128.58 171.185C123.514 173.268 118.222 174.75 112.811 175.601C99.0296 177.585 85.6372 177.159 72.9575 170.991L72.8934 170.96L72.8255 170.938C72.6683 170.887 72.5066 170.853 72.3428 170.834C68.7662 169.644 65.5836 167.496 63.1421 164.623L63.1034 164.577L63.0595 164.536C59.6834 161.409 56.8078 157.782 54.5331 153.782C50.7907 146.959 50.2729 139.607 50.768 131.823C51.0144 127.951 51.6161 124.186 52.2596 120.4C52.3301 119.986 52.401 119.571 52.4721 119.156C53.0477 115.791 53.6285 112.396 53.975 108.94L54.0122 108.569L53.7973 108.264C53.6743 108.089 53.5886 107.891 53.5458 107.682C53.5029 107.473 53.5037 107.257 53.5481 107.048L53.5555 107.014L53.5604 106.979C53.9529 104.175 53.9151 101.316 53.8786 98.5487C53.8621 97.2956 53.8458 96.0614 53.8698 94.8598L53.8707 94.8135L53.8674 94.7673C53.8049 93.9076 53.9656 93.0464 54.3341 92.2673L54.43 92.0643V91.8398C54.43 88.4774 54.4378 85.1136 54.4456 81.7492C54.4611 75.0174 54.4767 68.2832 54.43 61.5529V61.5513C54.399 57.8893 54.8388 54.2384 55.7386 50.6885C55.9375 49.9237 56.0272 49.1181 55.6168 48.4048C55.2251 47.7241 54.5113 47.3783 53.8727 47.1218C50.855 45.907 48.8166 44.164 47.6992 42.0628C46.5844 39.9666 46.3225 37.3947 47.0796 34.3945L47.0811 34.3884C48.0973 30.2526 51.5225 27.583 56.661 27.2173L56.6756 27.2162L56.6903 27.2148C58.1035 27.0724 59.531 27.2134 60.8891 27.6294C62.2472 28.0455 63.5087 28.7283 64.5997 29.6379L64.6098 29.6463L64.6201 29.6545C65.1796 30.0965 65.8168 30.4579 66.567 30.4076C67.2912 30.3589 67.8647 29.9381 68.3275 29.5333C75.217 23.5395 83.4054 20.6498 92.4562 19.7752L92.4627 19.7745C102.042 18.7858 111.721 19.7078 120.941 22.4873L120.952 22.4903C125.069 23.6838 128.929 25.6302 132.336 28.2307C132.952 28.8469 133.77 29.2221 134.642 29.2863C135.508 29.3502 136.368 29.1016 137.067 28.5876C139.06 27.5535 141.301 27.0911 143.541 27.2525C145.798 27.4151 147.965 28.2044 149.798 29.5311C155.279 34.0574 154.276 42.9565 147.664 46.3599C146.807 46.7986 145.985 47.2926 145.478 48.0854C144.944 48.9219 144.869 49.9052 145.041 51.0658C145.761 56.0058 145.559 60.9848 145.352 66.0723C145.317 66.943 145.282 67.8168 145.251 68.6942C144.99 76.0226 145.05 83.3652 145.25 90.6872L145.252 90.735L145.258 90.7826C145.312 91.2225 145.404 91.6569 145.533 92.081L145.58 92.2329L145.671 92.3631C145.989 92.8185 146.148 93.3668 146.121 93.922L146.12 93.9459V93.9698C146.12 97.5271 146.474 101.074 146.821 104.562C146.926 105.614 147.03 106.66 147.124 107.7L147.132 107.782L147.152 107.862C147.209 108.078 147.219 108.302 147.184 108.522C147.149 108.742 147.069 108.952 146.949 109.139Z" fill="#9E22E9" stroke="#9E22E9" stroke-width="2"/>
<path d="M62.44 165.28C65.5004 167.738 68.7656 169.929 72.2 171.83C69.49 174.58 66.85 177.41 64.05 180.06C62.9695 181.055 61.5386 181.581 60.0709 181.523C58.6033 181.465 57.2185 180.827 56.22 179.75C55.1591 178.697 54.5518 177.271 54.5275 175.776C54.5032 174.282 55.0639 172.837 56.09 171.75C58.17 169.56 60.32 167.43 62.44 165.28Z" fill="#8020BA"/>
<path d="M129 172.12C132.525 170.252 135.872 168.066 139 165.59C140.8 167.43 142.61 169.26 144.4 171.11C147.05 173.85 147.17 177.25 144.73 179.71C142.29 182.17 138.84 182.08 136.15 179.42C133.73 177 131.36 174.55 129 172.12Z" fill="#8020BA"/>
<path d="M53.6071 92C53.6671 97.66 53.9171 103.33 53.1571 109C51.4371 110.61 49.6171 112.12 47.0571 111.68C45.9626 111.553 44.93 111.105 44.0886 110.394C43.2473 109.682 42.6345 108.738 42.3271 107.68C41.9708 106.703 41.904 105.643 42.1345 104.629C42.3651 103.614 42.8833 102.687 43.6271 101.96C46.8871 98.54 50.2671 95.29 53.6071 92Z" fill="#8020BA"/>
<path d="M147.31 109.85C146.469 103.937 146.032 97.9728 146 92C149.34 95.3 152.75 98.53 156 101.93C156.971 102.969 157.528 104.328 157.564 105.75C157.601 107.171 157.114 108.557 156.197 109.644C155.28 110.731 153.996 111.444 152.589 111.648C151.181 111.852 149.748 111.532 148.56 110.75C148.13 110.48 147.73 110.17 147.31 109.85Z" fill="#8020BA"/>
<path d="M119.423 31.1299C122.296 31.1245 125.107 31.9712 127.499 33.5631C129.892 35.155 131.758 37.4207 132.863 40.0736C133.968 42.7265 134.261 45.6474 133.706 48.467C133.151 51.2866 131.772 53.8783 129.744 55.9143C127.716 57.9502 125.13 59.3391 122.312 59.9052C119.495 60.4713 116.573 60.1892 113.916 59.0946C111.258 58 108.986 56.142 107.384 53.7557C105.783 51.3695 104.926 48.5621 104.92 45.6886C104.918 41.8364 106.443 38.1405 109.162 35.4113C111.88 32.6821 115.57 31.1425 119.423 31.1299Z" fill="#D7A1F8"/>
<path d="M78.503 31C81.376 30.9946 84.187 31.8413 86.579 33.4332C88.972 35.0251 90.838 37.2908 91.943 39.9437C93.048 42.5966 93.341 45.5175 92.786 48.3371C92.231 51.1567 90.852 53.7484 88.824 55.7844C86.796 57.8203 84.21 59.2092 81.392 59.7753C78.575 60.3414 75.653 60.0593 72.996 58.9647C70.338 57.8701 68.066 56.0121 66.464 53.6258C64.863 51.2396 64.006 48.4322 64 45.5587C63.998 41.7065 65.523 38.0106 68.242 35.2814C70.96 32.5522 74.65 31.0126 78.503 31Z" fill="#D7A1F8"/>
<path d="M107.79 61.82C109.324 62.1832 110.754 62.8956 111.968 63.9015C113.182 64.9075 114.148 66.18 114.79 67.62C117.05 72.85 114.32 76.89 108.71 76.68H107.71C107.016 76.8186 106.297 76.7526 105.64 76.49C101.873 75.36 97.8571 75.36 94.09 76.49C93.4907 76.7342 92.8304 76.7866 92.2 76.64H91.05C85.86 76.81 83.2 73.26 84.88 68.29C86.08 64.77 88.74 62.79 92.2 61.77C94.3219 63.4097 96.8923 64.3653 99.57 64.51C102.537 64.5778 105.437 63.6286 107.79 61.82Z" fill="#BA5DF2"/>
<path d="M99.5671 85.4731C99.2185 86.0256 98.8105 86.5384 98.3505 87.0022C97.8994 87.4287 97.3319 87.7119 96.7197 87.816C96.1052 87.9204 95.4736 87.8397 94.9051 87.5839L94.8913 87.5777L94.8771 87.5723C94.243 87.3322 93.6999 86.8998 93.3238 86.3357C92.9477 85.7716 92.7575 85.1039 92.7797 84.4263L92.7801 84.4162L92.78 84.406C92.7689 82.9653 92.7732 81.538 92.7775 80.1072C92.7807 79.0686 92.7838 78.0281 92.7811 76.9794C95.0781 76.0205 97.5436 75.5261 100.035 75.5261C102.527 75.5261 104.993 76.0206 107.29 76.9798V83.0499C107.29 84.5263 107.12 85.5134 106.762 86.2052C106.419 86.8688 105.875 87.3129 104.987 87.6409C104.112 87.964 103.437 87.9493 102.771 87.6322C102.067 87.2971 101.321 86.6008 100.38 85.4271L99.9414 84.8799L99.5671 85.4731Z" fill="#D7A1F8"/>
<path d="M107.79 61.82C105.28 65.19 101.67 65.26 98.02 64.9C95.76 64.67 93.59 63.98 92.28 61.82C92.2197 61.1062 92.4022 60.393 92.7978 59.7959C93.1935 59.1988 93.7792 58.7527 94.46 58.53C96.2019 57.6959 98.1086 57.2629 100.04 57.2629C101.971 57.2629 103.878 57.6959 105.62 58.53C106.298 58.7561 106.88 59.2032 107.274 59.7998C107.667 60.3964 107.849 61.1078 107.79 61.82Z" fill="#731BA9"/>
<path d="M57.6501 33.9999C58.2553 34.023 58.8456 34.1947 59.3688 34.4999C59.892 34.8051 60.332 35.2344 60.6501 35.7499C61.3201 36.8099 60.2201 37.3599 59.8801 38.1099C59.5401 38.8599 59.2101 39.3499 58.8801 39.9799C57.7501 42.0799 56.1601 42.2799 54.6001 40.4499C54.0797 39.9144 53.7371 39.2315 53.6189 38.4942C53.5008 37.7569 53.613 37.0012 53.9401 36.3299C54.2584 35.618 54.7809 35.0165 55.4414 34.6017C56.1018 34.1869 56.8705 33.9775 57.6501 33.9999Z" fill="#8020BA"/>
<path d="M146.51 37.89C146.521 38.7311 146.242 39.5504 145.72 40.21C144.61 41.75 143.96 41.65 143.11 39.95C142.464 38.5532 141.732 37.1974 140.92 35.89C140.2 34.81 140.67 34.45 141.62 34.15C142.194 34.0013 142.795 33.9852 143.376 34.1029C143.957 34.2206 144.504 34.469 144.976 34.8294C145.447 35.1897 145.83 35.6525 146.096 36.1828C146.361 36.7131 146.503 37.2969 146.51 37.89Z" fill="#8020BA"/>
<path d="M72.84 49.5201C72.0782 49.5063 71.3373 49.2679 70.7104 48.8348C70.0835 48.4018 69.5983 47.7932 69.3158 47.0855C69.0333 46.3779 68.966 45.6025 69.1224 44.8568C69.2787 44.111 69.6517 43.428 70.1946 42.8933C70.7375 42.3587 71.4262 41.9962 72.1743 41.8513C72.9224 41.7065 73.6966 41.7857 74.3998 42.079C75.1031 42.3723 75.7041 42.8667 76.1275 43.5002C76.5509 44.1337 76.7779 44.8781 76.78 45.6401C76.7787 46.1543 76.6755 46.6632 76.4763 47.1373C76.2771 47.6114 75.9859 48.0413 75.6195 48.4021C75.2531 48.7629 74.8188 49.0475 74.3417 49.2394C73.8646 49.4313 73.3542 49.5267 72.84 49.5201Z" fill="#8020BA"/>
<path d="M115.52 45.73C115.501 46.4968 115.255 47.2407 114.811 47.8667C114.368 48.4926 113.748 48.9723 113.031 49.2446C112.314 49.5168 111.532 49.5692 110.785 49.3951C110.038 49.221 109.36 48.8283 108.837 48.2671C108.314 47.7058 107.97 47.0015 107.849 46.2441C107.729 45.4866 107.836 44.7103 108.158 44.0142C108.481 43.3182 109.003 42.7339 109.659 42.3359C110.314 41.938 111.074 41.7445 111.84 41.78C112.844 41.8391 113.786 42.2824 114.471 43.018C115.156 43.7535 115.532 44.7248 115.52 45.73Z" fill="#8B1FCC"/>
</svg>
