<svg width="200" height="200" viewBox="0 0 200 200" fill="none" xmlns="http://www.w3.org/2000/svg">
<path d="M160.62 12.1096C161.24 12.7096 162.1 12.5596 162.84 12.7396C167.553 13.8889 171.748 16.579 174.759 20.3833C177.77 24.1875 179.424 28.8882 179.46 33.7396C179.46 77.9129 179.46 122.09 179.46 166.27C179.41 171.765 177.289 177.04 173.52 181.04C169.751 185.041 164.613 187.472 159.13 187.85C153.706 188.086 148.382 186.332 144.161 182.917C139.94 179.503 137.112 174.663 136.21 169.31C135.993 167.897 135.887 166.469 135.89 165.04C135.89 121.706 135.89 78.3729 135.89 35.0396C135.89 23.5796 143.02 14.7696 154.23 12.3996C154.46 12.3996 154.67 12.3196 154.77 12.0796L160.62 12.1096Z" fill="#9E22E9"/>
<path d="M121.859 133.111C121.859 143.861 121.859 154.611 121.859 165.361C121.859 177.721 113.239 186.991 100.929 187.661C93.2988 188.071 87.2588 184.941 83.1088 178.451C80.0912 173.55 78.5208 167.896 78.5788 162.141C78.4288 152.191 78.5088 142.241 78.5088 132.281C78.5088 121.651 78.4588 111.011 78.5088 100.371C78.5788 88.2012 88.9188 78.0712 100.849 78.3712C106.406 78.5568 111.68 80.8655 115.587 84.8222C119.493 88.7788 121.734 94.0823 121.849 99.6412C121.979 110.791 121.849 121.941 121.849 133.101L121.859 133.111Z" fill="#9E22E9"/>
<path d="M42.2902 187.89C37.9867 187.878 33.7832 186.591 30.2108 184.191C26.6385 181.792 23.8575 178.387 22.2193 174.407C20.581 170.428 20.159 166.052 21.0066 161.833C21.8542 157.613 23.9333 153.74 26.9813 150.702C30.0292 147.663 33.9093 145.597 38.1313 144.763C42.3533 143.929 46.7277 144.365 50.702 146.016C54.6763 147.667 58.072 150.459 60.4603 154.039C62.8486 157.619 64.1222 161.826 64.1202 166.13C64.1163 168.992 63.5485 171.826 62.4491 174.469C61.3498 177.112 59.7406 179.512 57.7133 181.533C55.6861 183.553 53.2806 185.155 50.6343 186.246C47.9879 187.337 45.1526 187.895 42.2902 187.89V187.89Z" fill="#9E22E9"/>
</svg>
