<svg width="200" height="200" viewBox="0 0 200 200" fill="none" xmlns="http://www.w3.org/2000/svg">
<path d="M51.9082 100.679C50.5501 97.5271 49.5083 94.2477 48.7982 90.8895C47.9864 87.2763 47.5341 83.5917 47.4482 79.8895C47.3214 76.6573 47.4552 73.4202 47.8482 70.2095C48.2201 67.5635 48.7782 64.947 49.5182 62.3795C50.5127 59.0256 51.8323 55.7769 53.4582 52.6795C54.6007 50.5232 55.8904 48.4483 57.3182 46.4695C57.3955 46.3857 57.4828 46.3118 57.5783 46.2495C58.0183 45.6595 58.4682 45.0695 58.9182 44.4895C59.3682 43.9095 59.7182 43.7495 60.4182 44.2995C62.5182 45.9495 64.5482 47.6995 66.5882 49.4195C67.8952 50.3642 69.1227 51.4144 70.2583 52.5595C70.5283 52.8895 70.9883 53.0395 71.2583 53.3795C72.0883 54.1495 72.9483 54.8595 73.8283 55.5695C75.2383 56.7095 76.5483 57.9695 77.9983 59.0695C78.3383 59.3495 78.6283 59.6895 78.9983 59.9495C79.3416 60.3262 79.7275 60.6617 80.1483 60.9495C81.3917 61.8761 82.5772 62.878 83.6983 63.9495C83.8783 64.1295 84.0883 64.2895 84.0683 64.5795C83.5722 65.6 82.8944 66.5217 82.0683 67.2995C81.3873 67.6006 80.8273 68.1218 80.4783 68.7795C79.5783 70.0895 78.3983 71.1595 77.4783 72.4095C76.8883 73.1695 76.2783 73.9195 75.6483 74.6495C75.0127 75.3105 74.4372 76.0267 73.9283 76.7895C73.506 77.3629 73.0269 77.8923 72.4983 78.3695C71.1783 79.8095 69.9883 81.3695 68.7583 82.8795C67.9583 83.8795 67.0682 84.7595 66.2382 85.7195C65.9923 86.1348 65.7041 86.5235 65.3782 86.8795C64.5969 87.6606 63.8717 88.496 63.2082 89.3795C60.8482 92.1328 58.5149 94.9061 56.2082 97.6995C55.1039 98.848 54.1002 100.089 53.2082 101.409C53.1464 101.521 53.0605 101.618 52.9567 101.692C52.8529 101.767 52.7339 101.817 52.6082 101.839C52.0782 101.599 52.1682 100.999 51.9082 100.679Z" fill="#B044F0"/>
<path d="M146.648 52.9995C147.846 55.1773 148.85 57.4561 149.648 59.8095C150.567 62.3916 151.276 65.0435 151.768 67.7395C152.183 69.8907 152.434 72.0703 152.518 74.2595C152.652 77.1496 152.605 80.0452 152.378 82.9295C152.146 85.4756 151.769 88.0064 151.248 90.5095C150.88 92.312 150.42 94.0944 149.868 95.8495C149.151 98.1078 148.293 100.319 147.298 102.47C146.194 104.869 144.959 107.206 143.598 109.47C142.061 112.063 140.392 114.576 138.598 117C136.978 119.16 135.358 121.32 133.708 123.45C131.838 125.85 129.928 128.22 128.028 130.6C126.868 132.07 125.698 133.52 124.548 135C122.328 137.86 120.185 140.773 118.118 143.74C115.999 146.69 114.049 149.758 112.278 152.93C112.084 153.275 111.871 153.609 111.638 153.93C111.612 153.951 111.578 153.963 111.543 153.963C111.509 153.963 111.475 153.951 111.448 153.93C111.308 153.62 111.508 153.39 111.628 153.15C112.374 151.715 113.198 150.323 114.098 148.98C115.098 147.4 116.098 145.81 117.178 144.29C118.258 142.77 119.468 140.99 120.678 139.39C121.678 138.06 122.678 136.73 123.678 135.39C124.678 134.05 125.848 132.63 126.928 131.25C128.488 129.25 130.098 127.25 131.718 125.25C133.958 122.49 136.098 119.64 138.228 116.79C140.087 114.315 141.8 111.734 143.358 109.06C144.918 106.438 146.301 103.715 147.498 100.91C148.569 98.4282 149.454 95.8713 150.148 93.2595C150.741 91.0799 151.179 88.861 151.458 86.6195C151.553 85.1702 151.734 83.7277 151.998 82.2995C152.053 82.0971 152.083 81.889 152.088 81.6795C152.088 78.9095 152.178 76.1295 152.088 73.3595C152.088 72.2695 151.808 71.1695 151.668 70.0795C151.29 67.0226 150.621 64.0089 149.668 61.0795C148.931 58.8599 148.039 56.6946 146.998 54.5995C146.837 54.2358 146.621 53.8986 146.358 53.5995C146.287 53.4643 146.269 53.3073 146.308 53.1595C146.378 52.9995 146.458 52.8995 146.648 52.9995Z" fill="#9E22E9"/>
<path d="M146.654 53.0002C146.604 52.9958 146.554 53.0068 146.511 53.0319C146.468 53.057 146.434 53.0948 146.414 53.1402C146.314 53.3102 146.194 53.4102 145.984 53.2902C145.949 52.7648 145.776 52.2578 145.484 51.8202C143.801 48.7413 141.79 45.8544 139.484 43.2102C136.945 40.2358 134.085 37.5527 130.954 35.2102C128.925 33.6931 126.785 32.3293 124.554 31.1302C121.977 29.7343 119.271 28.5923 116.474 27.7202C115.954 27.5602 115.474 27.1602 114.914 27.1902C113.484 26.7502 112.014 26.4902 110.564 26.0902C109.749 25.8422 108.905 25.7043 108.054 25.6802C107.615 25.6926 107.18 25.5891 106.794 25.3802C106.237 25.2473 105.664 25.2034 105.094 25.2502C104.977 25.2655 104.86 25.2655 104.744 25.2502C103.916 25.0523 103.063 24.9782 102.214 25.0302C101.104 25.0302 99.9937 25.0302 98.8837 25.0302C96.0241 25.1006 93.1748 25.4016 90.3637 25.9302C86.727 26.5851 83.1727 27.6346 79.7637 29.0602C77.4016 30.0512 75.1154 31.2144 72.9237 32.5402C69.7049 34.5094 66.69 36.794 63.9236 39.3602C63.7948 39.4917 63.6322 39.5852 63.4537 39.6302C63.3763 39.6298 63.3017 39.6014 63.2437 39.5502C64.3167 38.3721 65.4949 37.2943 66.7637 36.3302C68.8915 34.5674 71.1627 32.9852 73.5537 31.6002C75.6296 30.4078 77.7846 29.3587 80.0037 28.4602C82.066 27.6039 84.1842 26.8889 86.3437 26.3202C88.9661 25.6165 91.6417 25.1283 94.3437 24.8602C96.6694 24.6295 99.007 24.5393 101.344 24.5902C105.197 24.675 109.028 25.195 112.764 26.1402C117.187 27.2484 121.446 28.9293 125.434 31.1402C130.509 33.9481 135.087 37.5734 138.984 41.8702C141.845 44.9776 144.286 48.4473 146.244 52.1902C146.324 52.4802 146.494 52.7502 146.654 53.0002Z" fill="#9E22E9"/>
<path d="M76.3289 136.181C75.3289 135.131 74.5289 133.911 73.6189 132.781C71.4489 130.121 69.2888 127.451 67.2089 124.781C65.1289 122.111 62.8789 119.271 60.8789 116.391C59.6389 114.621 58.3489 112.871 57.2089 111.031C55.9831 109.151 54.8807 107.193 53.9089 105.171C53.3593 104.225 52.923 103.218 52.6089 102.171C53.0689 102.171 53.0889 102.571 53.2789 102.821C53.8036 104.053 54.3979 105.255 55.0589 106.421C55.8589 107.801 56.6789 109.161 57.4989 110.531C58.9689 112.991 60.6889 115.291 62.3489 117.611C64.0089 119.931 65.7489 122.101 67.5089 124.291C68.5089 125.521 69.4388 126.771 70.4188 127.991C70.9388 128.641 71.5389 129.211 72.0489 129.881C73.1989 131.371 74.4388 132.801 75.5388 134.341C75.8435 134.834 76.2799 135.232 76.7989 135.491C76.8524 135.608 76.8667 135.739 76.8397 135.866C76.8127 135.992 76.7458 136.106 76.6488 136.191C76.6014 136.223 76.5448 136.24 76.4872 136.238C76.4296 136.236 76.3741 136.216 76.3289 136.181V136.181Z" fill="#9E22E9"/>
<path d="M63.2535 39.5601H63.4235C63.4235 40.0501 63.0435 40.3301 62.7335 40.6201C62.0817 41.2473 61.4705 41.9153 60.9035 42.6201C60.4335 43.1901 60.4335 43.3701 61.0035 43.8301C62.2335 44.8301 63.4535 45.8301 64.6635 46.8301C66.1535 48.0701 67.6635 49.2601 69.1235 50.5501C70.5835 51.8401 72.0035 53.0001 73.4535 54.2501C74.5635 55.1801 75.7035 56.0801 76.7835 57.0501C77.6635 57.8301 78.6335 58.5001 79.4935 59.3101C80.8335 60.5801 82.2935 61.7101 83.7135 62.8801C84.0535 63.1601 84.4235 63.4001 84.7835 63.6601C84.8241 63.7151 84.846 63.7817 84.846 63.8501C84.846 63.9185 84.8241 63.985 84.7835 64.0401C84.7281 64.1295 84.6432 64.1967 84.5435 64.2301C84.4423 64.2604 84.3346 64.2604 84.2335 64.2301C82.5635 62.8401 80.8435 61.5001 79.2335 60.0201C78.6535 59.4901 78.0135 59.0201 77.4035 58.5501C75.5535 56.9601 73.6735 55.4101 71.8135 53.8301C70.4335 52.6501 69.0735 51.4601 67.6835 50.2901C65.7768 48.7101 63.8768 47.1167 61.9835 45.5101C61.1585 44.9328 60.4035 44.2616 59.7335 43.5101C60.7676 42.0757 61.9472 40.752 63.2535 39.5601V39.5601Z" fill="#9E22E9"/>
<path d="M104.918 170.999C104.318 172.609 103.688 174.209 101.918 174.999C100.814 175.528 99.5482 175.605 98.3886 175.215C97.2289 174.825 96.2672 173.998 95.7078 172.909C94.7164 170.735 93.8907 168.488 93.2378 166.189C92.3678 163.699 91.5178 161.189 90.4678 158.769C89.3378 156.169 87.9678 153.699 86.6678 151.189L86.7478 151.129C87.1578 151.189 87.2978 151.529 87.4678 151.819C88.8761 154.259 90.1318 156.784 91.2278 159.379C92.4878 162.379 93.4678 165.439 94.4878 168.499C94.9038 170.016 95.4944 171.479 96.2478 172.859C96.565 173.461 97.0395 173.964 97.6208 174.316C98.2021 174.669 98.8681 174.856 99.5478 174.859C101.948 174.969 103.158 174.059 104.088 171.729C104.228 171.369 104.418 171.019 104.588 170.669C104.648 170.539 104.698 170.329 104.928 170.469C104.985 170.642 104.981 170.829 104.918 170.999Z" fill="#9E22E9"/>
<path d="M59.719 43.4697C60.719 44.3097 61.799 45.1397 62.819 45.9897C64.689 47.5497 66.569 49.0997 68.419 50.6797C69.589 51.6797 70.729 52.6797 71.879 53.6797C71.529 53.8997 71.429 53.4597 71.169 53.4097C69.849 52.3597 68.579 51.2397 67.289 50.1597L63.859 47.2897C62.589 46.2197 61.339 45.1297 60.049 44.0897C59.629 43.7497 59.329 44.0897 59.049 44.3797C58.6115 45.0204 58.1161 45.6196 57.569 46.1697C58.1187 45.1486 58.8468 44.2341 59.719 43.4697V43.4697Z" fill="#9E22E9"/>
<path d="M104.921 171V170.4C104.847 169.991 104.91 169.569 105.101 169.2C106.206 165.562 107.508 161.986 109.001 158.49C109.111 158.25 109.151 157.93 109.521 157.93C109.559 157.97 109.58 158.024 109.58 158.08C109.58 158.135 109.559 158.189 109.521 158.23C108.701 160.42 107.851 162.59 107.071 164.79C106.361 166.79 105.721 168.79 105.071 170.85C105.027 170.906 104.977 170.956 104.921 171Z" fill="#9E22E9"/>
<path d="M76.334 136.179L76.594 136.129C76.6229 136.113 76.6556 136.104 76.689 136.104C76.7223 136.104 76.7551 136.113 76.784 136.129C78.094 138.029 79.504 139.869 80.854 141.759C81.044 142.029 81.314 142.279 81.284 142.659C81.2629 142.725 81.225 142.783 81.174 142.829C80.174 141.829 79.494 140.529 78.614 139.419C77.924 138.559 77.284 137.659 76.614 136.779C76.4612 136.613 76.3635 136.403 76.334 136.179V136.179Z" fill="#9E22E9"/>
<path d="M81.1709 142.85V142.66C81.4409 142.66 81.5809 142.83 81.7109 143.02C83.0409 144.94 84.4109 146.84 85.6209 148.84C85.6937 148.96 85.7285 149.1 85.7209 149.24C85.721 149.293 85.7083 149.345 85.6839 149.392C85.6595 149.439 85.6242 149.479 85.5809 149.51C84.8609 148.65 84.3609 147.64 83.7309 146.72C82.8909 145.44 81.9409 144.2 81.1709 142.85Z" fill="#9E22E9"/>
<path d="M109.498 158.229V157.999C109.328 157.429 109.718 156.999 109.908 156.529C110.198 155.819 110.588 155.169 110.908 154.529C111.028 154.309 111.118 154.059 111.418 154.009H111.568C111.165 155.005 110.704 155.977 110.188 156.919C110.051 157.399 109.816 157.845 109.498 158.229Z" fill="#9E22E9"/>
<path d="M53.1504 102.851C52.9404 102.641 52.9304 102.281 52.6104 102.161C52.2272 101.753 51.9823 101.235 51.9104 100.681C52.2904 100.941 52.1804 101.521 52.5904 101.771C52.8404 101.771 52.9804 101.551 53.1504 101.411C53.3204 101.271 53.4204 101.271 53.5204 101.471C53.5185 101.955 53.391 102.43 53.1504 102.851V102.851Z" fill="#9E22E9"/>
<path d="M85.6093 149.51V149.21C85.9609 149.389 86.2553 149.662 86.4587 150C86.662 150.338 86.7662 150.726 86.7593 151.12L86.6893 151.18C86.2735 150.662 85.9116 150.102 85.6093 149.51V149.51Z" fill="#9E22E9"/>
<path d="M53.4204 101.33C53.0904 101.33 53.0604 101.97 52.5904 101.77C53.3604 100.84 54.0904 99.8703 54.8604 98.9403C56.2504 97.2603 57.6404 95.5803 59.1004 93.9403C59.8404 93.1103 60.5504 92.2302 61.2204 91.3402C62.1504 90.1002 63.2204 89.0202 64.2204 87.8202C64.5304 87.4302 64.7104 86.9402 65.2204 86.7402C65.3804 86.9302 65.2204 87.1302 65.2204 87.3202C64.6527 88.2281 63.9815 89.0671 63.2204 89.8202C61.2204 92.3202 59.1004 94.7402 57.0404 97.2003C56.2304 98.2003 55.4504 99.2003 54.6004 100.12C54.2104 100.49 53.8404 100.89 53.4704 101.29L53.4204 101.33Z" fill="#9E22E9"/>
<path d="M65.0815 87.3095L65.2215 86.7495C66.3046 85.2485 67.4873 83.822 68.7615 82.4795C69.6715 81.3595 70.5215 80.1995 71.4815 79.1195C72.0953 78.3304 72.7636 77.5852 73.4815 76.8895C73.9015 76.5395 74.0215 75.8895 74.4815 75.5295C74.9415 75.1695 75.0415 74.7695 75.4815 74.5295C75.6915 74.5295 75.6915 74.6395 75.6915 74.7895C74.6279 76.4062 73.4232 77.9254 72.0915 79.3295C69.9815 81.8295 67.9015 84.3295 65.7715 86.8395C65.5915 87.0595 65.4615 87.3695 65.0815 87.3095Z" fill="#9E22E9"/>
<path d="M75.6262 74.7994C75.6271 74.7464 75.6148 74.6939 75.5903 74.6468C75.5659 74.5996 75.5301 74.5593 75.4862 74.5294C76.1762 73.6594 76.8562 72.7694 77.5662 71.9094C78.7962 70.4394 80.0462 68.9894 81.2762 67.5194C81.3615 67.4125 81.4694 67.3256 81.5921 67.2651C81.7148 67.2046 81.8494 67.172 81.9862 67.1694C82.0103 67.1921 82.0284 67.2205 82.0389 67.2519C82.0494 67.2833 82.0519 67.3168 82.0462 67.3494C81.6452 67.9658 81.1936 68.5478 80.6962 69.0894C79.1962 70.8894 77.6962 72.7294 76.1562 74.4694C75.9962 74.6294 75.9262 74.8994 75.6262 74.7994Z" fill="#9E22E9"/>
<path d="M71.1711 53.4505C71.4611 53.4005 71.6011 53.7505 71.8811 53.7205L76.2811 57.3505C76.7162 57.6507 77.1068 58.0109 77.4411 58.4205C77.6311 58.6605 78.0311 58.7405 77.9811 59.1505C77.2511 58.7105 76.6511 58.1505 75.9811 57.6105C74.9811 56.9005 74.2511 56.0005 73.2711 55.3105C72.4912 54.787 71.7849 54.1614 71.1711 53.4505V53.4505Z" fill="#9E22E9"/>
<path d="M77.9976 59.1504L77.4576 58.4204C78.1268 58.8166 78.7447 59.2936 79.2976 59.8404C80.7576 61.1804 82.2976 62.3904 83.8276 63.6604C83.9803 63.8017 84.1208 63.9555 84.2476 64.1204C84.3276 64.3604 84.2476 64.5204 83.9876 64.5404C83.5976 63.8404 82.8876 63.4704 82.3676 62.9004C81.6876 62.1504 80.7476 61.7104 80.0876 60.9004C79.7276 60.5604 79.2976 60.2904 78.9576 59.9004C78.4776 59.8604 78.2576 59.4704 77.9976 59.1504Z" fill="#9E22E9"/>
<path d="M83.9999 64.5401L84.2599 64.1201H84.5198C84.7498 64.4601 84.4399 64.6601 84.2999 64.8901C84.1479 65.1183 83.9843 65.3386 83.8099 65.5501C83.4232 65.9684 83.0657 66.4128 82.7399 66.8801C82.5899 67.0701 82.4699 67.3101 82.1999 67.3701C82.166 67.3697 82.1326 67.3623 82.1017 67.3486C82.0707 67.3348 82.0429 67.3149 82.0199 67.2901V67.1501C82.7383 66.326 83.3998 65.454 83.9999 64.5401V64.5401Z" fill="#9E22E9"/>
<path d="M78.9418 60C79.4029 60.2236 79.7938 60.5695 80.0718 61C79.5886 60.8111 79.1881 60.4567 78.9418 60V60Z" fill="#9E22E9"/>
<path d="M86.7697 151.12C86.5455 150.4 86.151 149.745 85.6197 149.21C84.9159 147.923 84.124 146.687 83.2497 145.51C82.6614 144.507 81.9925 143.554 81.2497 142.66C80.4697 141.27 79.3997 140.1 78.5097 138.79C78.0897 138.17 77.5897 137.6 77.1497 136.98C76.9897 136.75 76.7297 136.54 76.7897 136.19C77.4897 135.19 78.3697 134.27 79.1497 133.3C81.3197 130.6 83.5597 127.95 85.8097 125.3C87.6097 123.19 89.3297 121.02 91.1397 118.92C92.2697 117.61 93.3597 116.26 94.4997 114.92C95.4997 113.92 96.4997 112.77 97.3997 111.68C98.7331 110.113 100.066 108.53 101.4 106.93C102.94 105.06 104.5 103.21 106.05 101.36C107.43 99.7097 108.82 98.0797 110.21 96.4497C111.344 95.298 112.328 94.0078 113.14 92.6097C114.08 91.2597 115.33 90.1697 116.28 88.8097C116.452 88.4895 116.682 88.2045 116.96 87.9697C117.713 87.3961 118.386 86.7234 118.96 85.9697C121.22 83.3397 123.4 80.6397 125.65 77.9697C127.4 75.9097 129.16 73.8497 130.89 71.7797C132.21 70.1797 133.64 68.6597 134.89 66.9897C135.68 65.9897 136.7 65.0597 137.47 63.9897C138.56 62.5097 139.84 61.2097 140.97 59.7797C142.49 57.8597 144.18 56.0797 145.68 54.1397C145.899 53.8707 146.171 53.6495 146.48 53.4897C147.04 53.5897 147.09 54.1397 147.27 54.4897C148.204 56.4577 149.015 58.4816 149.7 60.5497C150.28 62.2397 150.7 63.9797 151.08 65.7097C151.39 67.0097 151.58 68.3197 151.79 69.6297C151.9 70.2897 151.91 70.9597 152.03 71.6297C152.57 74.7497 152.29 77.8897 152.27 81.0097C152.208 82.7326 152.01 84.4478 151.68 86.1397C151.56 86.9097 151.52 87.6897 151.37 88.4597C151.03 90.2597 150.59 92.0397 150.16 93.8197C149.594 95.8258 148.927 97.8017 148.16 99.7397C147.52 101.48 146.755 103.171 145.87 104.8C144.691 107.114 143.389 109.364 141.97 111.54C140.25 114.1 138.49 116.62 136.61 119.08C134.73 121.54 132.79 124.08 130.87 126.51C129.97 127.67 128.99 128.78 128.08 129.94C126.66 131.74 125.26 133.57 123.85 135.39C122.77 136.79 121.68 138.19 120.63 139.61C119.85 140.61 119.14 141.77 118.37 142.82C116.87 144.89 115.47 147.02 114.11 149.18C113.084 150.642 112.2 152.199 111.47 153.83C110.668 155.091 109.998 156.432 109.47 157.83C108.973 158.649 108.571 159.521 108.27 160.43C107.69 161.692 107.196 162.991 106.79 164.32C106.3 166.11 105.55 167.81 105.14 169.62C105.072 169.857 104.985 170.087 104.88 170.31C104.59 170.98 104.34 171.66 104.02 172.31C103.673 173.168 103.056 173.89 102.262 174.367C101.468 174.843 100.54 175.048 99.6197 174.95C98.9231 174.954 98.2375 174.777 97.6306 174.435C97.0238 174.092 96.5167 173.598 96.1597 173C95.5565 171.95 95.0798 170.832 94.7397 169.67C93.7997 166.87 92.8697 164.08 91.8797 161.3C91.2897 159.63 90.4697 158.04 89.7397 156.42C89.0097 154.8 87.9897 153.05 87.0597 151.42C86.979 151.306 86.8812 151.204 86.7697 151.12Z" fill="#9E22E9"/>
<path d="M146.42 53.5889C145.94 54.2489 145.42 54.8389 144.85 55.4589C142.85 57.8789 140.79 60.2189 138.85 62.6389C137.12 64.7789 135.29 66.8289 133.55 68.9589C132.1 70.7289 130.55 72.4589 129.11 74.2289C127.67 75.9989 125.92 77.8589 124.44 79.7689C123.17 81.3989 121.78 82.9489 120.44 84.5189C119.52 85.5989 118.57 86.6689 117.63 87.7389C117.46 87.9189 117.31 88.1489 117.02 88.1389C116.85 87.6089 117.47 87.3589 117.45 86.8789C117.527 86.6904 117.647 86.5226 117.8 86.3889C118.4 85.825 118.946 85.2055 119.43 84.5389C121.98 81.7989 124.29 78.8389 126.71 75.9889C129.46 72.7489 132.23 69.5189 134.95 66.2589C136.11 64.8789 137.24 63.4689 138.42 62.1089C140.25 59.9989 141.94 57.7689 143.82 55.7089C144.228 55.2998 144.59 54.8471 144.9 54.3589C145.149 53.8986 145.533 53.5253 146 53.2889L146.41 53.1689C146.41 53.3089 146.42 53.4489 146.42 53.5889Z" fill="#9E22E9"/>
<path d="M146.001 53.2908C144.411 55.2008 142.771 57.0608 141.201 58.9808C139.821 60.6808 138.381 62.3208 137.001 63.9808C135.621 65.6408 134.001 67.5708 132.481 69.3608C130.111 72.1908 127.781 75.0508 125.351 77.8308C123.531 79.9308 121.841 82.1408 119.951 84.1708C119.391 84.7708 118.591 85.2308 118.361 86.1708C118.301 86.4108 118.001 86.3408 117.851 86.4808C117.611 86.0708 117.931 85.7808 118.071 85.4808C118.944 83.6107 119.508 81.6114 119.741 79.5608C120.055 76.9488 119.846 74.3005 119.127 71.7699C118.407 69.2394 117.192 66.8772 115.551 64.8208C113.444 62.1961 110.72 60.1346 107.621 58.8208C104.727 57.5525 101.56 57.0299 98.4113 57.3008C93.9971 57.5497 89.8226 59.39 86.6613 62.4808C86.2313 62.9008 85.8213 63.3408 85.3813 63.7508C85.1813 63.9208 85.0013 64.1908 84.6713 64.0008L84.7913 63.7108C84.7913 63.3508 85.0313 63.1608 85.2213 62.9608C87.9413 60.1408 90.2913 57.0208 92.8313 54.0608C94.5413 52.0608 96.2013 50.0608 97.8913 48.0608C100.378 45.1408 102.841 42.1975 105.281 39.2308C106.761 37.4308 108.281 35.6908 109.801 33.8908C111.321 32.0908 112.911 30.4108 114.311 28.5408C114.65 28.1026 114.901 27.6036 115.051 27.0708C116.211 27.4808 117.381 27.8808 118.531 28.3008C119.988 28.8181 121.414 29.4191 122.801 30.1008C123.881 30.6408 124.961 31.1908 126.001 31.8308C127.041 32.4708 128.341 33.2008 129.451 33.9908C131.12 35.1275 132.716 36.3666 134.231 37.7008C135.231 38.6408 136.341 39.5408 137.311 40.5408C138.441 41.7208 139.481 42.9808 140.551 44.2108C142.053 46.0704 143.439 48.0208 144.701 50.0508C145.201 50.8008 145.521 51.6708 146.041 52.4308C146.122 52.5614 146.162 52.7135 146.155 52.867C146.148 53.0205 146.094 53.1683 146.001 53.2908V53.2908Z" fill="#7B1AB6"/>
<path d="M115.05 27.0808C115.29 27.8908 114.67 28.3708 114.26 28.8708C112.26 31.2608 110.26 33.6108 108.26 35.9808C106.26 38.3508 104.18 40.7208 102.26 43.1608C100.75 45.0508 99.1398 46.8508 97.5898 48.7008C96.5898 49.9408 95.4799 51.1908 94.4099 52.4308C93.3399 53.6708 92.1198 55.1308 90.9998 56.4908C89.9998 57.6908 89.0498 58.9308 87.9998 60.1108C86.9498 61.2908 85.8498 62.5008 84.7698 63.6908C84.2398 63.7808 83.9998 63.3208 83.6698 63.0808C81.3198 61.3208 79.2298 59.2708 76.9298 57.4508C75.7498 56.4508 74.6098 55.4508 73.4498 54.4508C72.1398 53.3608 70.8698 52.2108 69.4498 51.1808C68.7798 50.6808 68.1998 50.0608 67.5598 49.5208C66.9198 48.9808 65.9598 48.2108 65.1698 47.5208C63.9198 46.5208 62.6898 45.4008 61.4198 44.3708C61.1798 44.1708 60.9398 43.9608 60.6898 43.7808C60.1398 43.3808 60.2198 43.0608 60.5898 42.5908C61.4298 41.4908 62.5198 40.5908 63.3498 39.5208C65.2589 37.7241 67.2832 36.0539 69.4098 34.5208C70.9992 33.3989 72.6483 32.3641 74.3498 31.4208C75.8098 30.6108 77.3498 29.9108 78.8398 29.2208C80.8398 28.3208 82.8398 27.6708 84.9198 26.9708C86.3698 26.4708 87.8598 26.2508 89.3198 25.8408C90.8808 25.4672 92.4692 25.2197 94.0698 25.1008C96.7263 24.8147 99.3997 24.7177 102.07 24.8108C102.95 24.8528 103.828 24.9396 104.7 25.0708H104.97C105.56 25.2608 106.18 25.0208 106.78 25.2008C107.081 25.3876 107.426 25.4911 107.78 25.5008C109.235 25.5813 110.674 25.8502 112.06 26.3008C112.682 26.4988 113.322 26.6394 113.97 26.7208C114.4 26.8108 114.65 27.1908 115.05 27.0808Z" fill="#601F88"/>
<path d="M104.778 25.1205C103.894 25.1246 103.013 25.0375 102.148 24.8605C103.033 24.7719 103.927 24.8603 104.778 25.1205V25.1205Z" fill="#9E22E9"/>
<path d="M106.857 25.2616C106.257 25.2013 105.637 25.4124 105.047 25.1309C105.653 25.0631 106.267 25.1074 106.857 25.2616V25.2616Z" fill="#9E22E9"/>
<path d="M75.6327 74.8007C77.0627 73.3207 78.2927 71.6707 79.6327 70.1207L80.6327 68.9907C81.1827 69.4407 81.0027 69.9907 80.8027 70.5107C80.0397 72.4697 79.6661 74.5587 79.7027 76.6607C79.5256 79.4615 80.0014 82.2652 81.0927 84.8507C81.6968 86.2435 82.4195 87.5817 83.2527 88.8507C84.0245 89.9922 84.9499 91.0219 86.0027 91.9107C87.9626 93.7307 90.2588 95.1506 92.7627 96.0907C94.7646 96.9058 96.9117 97.3039 99.0727 97.2607C100.593 97.1707 102.073 97.3707 103.643 97.1307C103.994 97.0908 104.334 96.982 104.643 96.8107C104.716 96.7529 104.802 96.712 104.893 96.6907C106.819 96.2547 108.667 95.5263 110.373 94.5307C110.436 94.5002 110.503 94.48 110.573 94.4707C111.043 94.5907 110.993 94.9007 110.803 95.2107C110.635 95.486 110.441 95.7439 110.223 95.9807C108.763 97.6307 107.403 99.3707 105.933 100.981C105.402 101.554 104.926 102.177 104.513 102.841C103.273 104.131 102.193 105.561 101.053 106.941C100.308 107.705 99.6388 108.539 99.0527 109.431L98.9327 109.581C97.9943 110.531 97.1095 111.532 96.2827 112.581C94.9827 114.321 93.4827 115.901 92.1127 117.581C90.7427 119.261 89.5027 120.691 88.2027 122.251C86.3127 124.531 84.3627 126.751 82.4827 129.031C80.9227 130.911 79.3427 132.781 77.7627 134.651C77.4827 134.991 77.2527 135.441 76.7627 135.461C76.592 135.464 76.4234 135.423 76.2728 135.343C76.1223 135.262 75.9949 135.144 75.9027 135.001C75.0227 133.891 74.1327 132.771 73.2727 131.641C71.6027 129.441 69.6727 127.441 68.0327 125.221C66.5927 123.281 64.9727 121.491 63.5927 119.521C61.6927 116.771 59.5927 114.161 57.8527 111.301C56.8527 109.721 55.9627 108.111 54.9627 106.551C54.2822 105.349 53.6842 104.103 53.1727 102.821C52.9927 102.261 53.5027 101.821 53.4427 101.301C53.8439 100.913 54.215 100.495 54.5527 100.051C55.6827 98.4707 57.0127 97.0507 58.2527 95.5907L63.4527 89.3207C64.0605 88.7039 64.6126 88.0346 65.1027 87.3207C66.1027 86.3207 66.9227 85.2607 67.8227 84.2207C69.1927 82.6107 70.5527 80.9907 71.8827 79.3507C73.1088 78.0506 74.2354 76.66 75.2527 75.1907C75.3617 75.0446 75.4895 74.9135 75.6327 74.8007V74.8007Z" fill="#BC63F1"/>
<path d="M76.7435 135.49C77.8135 134.49 78.7435 133.27 79.7435 132.12C80.7435 130.97 81.4735 130.12 82.3135 129.06C83.8735 127.06 85.6035 125.31 87.1235 123.33C87.9635 122.23 88.9035 121.22 89.8035 120.16C90.8502 118.933 91.8968 117.7 92.9435 116.46C94.0835 115.11 95.2535 113.78 96.3235 112.38C97.0135 111.47 97.8635 110.7 98.5435 109.79C98.5902 109.71 98.6556 109.643 98.734 109.594C98.8124 109.546 98.9014 109.517 98.9935 109.51C99.1335 109.67 99.0535 109.8 98.9935 109.94C97.5235 111.65 96.1335 113.41 94.6135 115.08C93.3835 116.8 91.9035 118.32 90.6135 119.98C89.4235 121.47 88.1735 122.91 86.9435 124.37C85.5235 126.05 84.0935 127.73 82.6835 129.37C81.1435 131.22 79.6235 133.08 78.0735 134.93C77.7253 135.381 77.3222 135.788 76.8735 136.14L76.7235 136.08L76.7435 135.49Z" fill="#9E22E9"/>
<path d="M54.5307 100.08C54.2507 100.57 54.0507 101.15 53.4207 101.33C53.6816 100.828 54.063 100.398 54.5307 100.08V100.08Z" fill="#9E22E9"/>
<path d="M85.8964 91.9991C84.5226 90.8353 83.362 89.4411 82.4664 87.8791C81.492 86.2585 80.726 84.5215 80.1864 82.7091C79.4932 80.0784 79.2998 77.3411 79.6164 74.6391C79.7367 73.1806 80.0737 71.7482 80.6164 70.3891C80.7127 70.1648 80.7624 69.9232 80.7624 69.6791C80.7624 69.435 80.7127 69.1934 80.6164 68.9691C81.032 68.3803 81.4934 67.8252 81.9964 67.3091H82.1564C82.2088 67.427 82.229 67.5566 82.2149 67.6849C82.2009 67.8131 82.1531 67.9353 82.0764 68.0391C81.3774 69.278 80.862 70.612 80.5464 71.9991C80.1495 73.2273 79.9405 74.5084 79.9264 75.7991C79.9264 76.4691 79.9264 77.1391 79.9264 77.7991C79.9322 79.7119 80.2532 81.6107 80.8764 83.4191C81.8363 86.358 83.4384 89.0463 85.5664 91.2891C85.7064 91.4391 85.9364 91.4991 85.9864 91.7291C85.9918 91.7779 85.9866 91.8273 85.9711 91.874C85.9555 91.9206 85.9301 91.9633 85.8964 91.9991Z" fill="#9E22E9"/>
<path d="M85.8974 91.75C84.3424 90.2694 83.0417 88.543 82.0474 86.64C81.1204 84.7609 80.4479 82.7667 80.0474 80.71C79.7133 78.7512 79.6527 76.7555 79.8674 74.78C80.0191 73.0106 80.4688 71.2796 81.1974 69.66C81.5274 68.89 81.8474 68.1 82.1974 67.32C82.7574 66.76 83.0574 65.99 83.7174 65.51C83.3629 66.2515 82.9446 66.9608 82.4674 67.63C81.703 69.1321 81.09 70.7065 80.6374 72.33C80.3501 73.4423 80.1825 74.5821 80.1374 75.73C79.948 77.7411 80.1001 79.7697 80.5874 81.73C80.9523 83.2012 81.4649 84.6318 82.1174 86C83.0299 87.8187 84.191 89.5015 85.5674 91C86.4121 91.9069 87.3507 92.7214 88.3674 93.43C88.6225 93.5633 88.8394 93.7595 88.9974 94C88.9775 94.0288 88.952 94.0533 88.9224 94.072C88.8928 94.0906 88.8597 94.1032 88.8252 94.1088C88.7906 94.1144 88.7553 94.1129 88.7213 94.1046C88.6874 94.0962 88.6554 94.081 88.6274 94.06C87.6217 93.4109 86.7041 92.6344 85.8974 91.75V91.75Z" fill="#9E22E9"/>
<path d="M94.5093 115.08C94.872 114.466 95.316 113.904 95.8293 113.41C96.8293 112.18 97.8293 110.99 98.8293 109.77C98.8703 109.689 98.8941 109.6 98.8993 109.51V109.51C99.5893 108.51 100.479 107.66 101.249 106.71C102.316 105.376 103.409 104.073 104.529 102.8C104.924 102.11 105.42 101.483 105.999 100.94C107.459 99.2197 108.909 97.5097 110.349 95.7797C110.949 95.0497 111.559 94.3397 112.079 93.5597C112.098 93.4965 112.125 93.436 112.159 93.3797C112.449 93.0697 112.699 92.6897 113.159 92.7097C112.702 93.6548 112.094 94.5193 111.359 95.2697C109.989 96.9097 108.669 98.5797 107.239 100.16C105.809 101.74 104.349 103.72 102.789 105.41C101.569 106.74 100.469 108.19 99.3193 109.58C98.6293 110.41 97.9393 111.23 97.2393 112.04C96.5393 112.85 95.5993 113.94 94.7793 114.89C94.7167 114.985 94.6202 115.053 94.5093 115.08V115.08Z" fill="#9E22E9"/>
<path d="M113.239 92.7104L112.289 93.4204C112.069 93.5704 111.859 93.7704 111.579 93.5304C113.922 91.6724 115.948 89.4469 117.579 86.9404C117.649 87.4604 117.109 87.6904 117.029 88.1404C115.93 89.6658 114.735 91.1188 113.449 92.4904C113.373 92.5576 113.303 92.6312 113.239 92.7104Z" fill="#9E22E9"/>
<path d="M111.58 93.5305L112.29 93.4205V93.5805C111.86 94.0105 111.47 94.5005 110.78 94.5205C109.603 95.1744 108.388 95.7555 107.14 96.2605C105.891 96.7269 104.607 97.0915 103.3 97.3505C102.176 97.4905 101.04 97.5206 99.91 97.4405C98.1441 97.5106 96.3777 97.3151 94.67 96.8605C93.2983 96.4693 91.9606 95.9677 90.67 95.3605C88.9078 94.5073 87.2967 93.3724 85.9 92.0005V91.7305C86.71 92.3905 87.54 93.0305 88.35 93.7305C88.4274 93.8259 88.5273 93.9006 88.6408 93.9477C88.7543 93.9948 88.8777 94.013 89 94.0005V94.0005C90.6029 95.0852 92.3731 95.8994 94.24 96.4105C96.4018 97.056 98.6555 97.3398 100.91 97.2505C102.506 97.0874 104.092 96.8371 105.66 96.5005C107.76 95.7863 109.752 94.787 111.58 93.5305V93.5305Z" fill="#9E22E9"/>
<path d="M110.752 94.5198L112.262 93.5798C111.956 94.211 111.528 94.7752 111.002 95.2398C109.152 97.5098 107.232 99.7298 105.342 101.97C105.102 102.26 104.662 102.4 104.612 102.85C104.612 102.91 104.512 102.9 104.462 102.85C104.799 102.093 105.285 101.413 105.892 100.85C107.442 98.9298 109.072 97.0698 110.682 95.1998C110.772 95.113 110.829 94.9971 110.842 94.8726C110.854 94.7482 110.823 94.6232 110.752 94.5198V94.5198Z" fill="#9E22E9"/>
<path d="M104.478 102.84H104.628C103.188 104.73 101.628 106.51 100.068 108.31C99.7661 108.771 99.3832 109.175 98.9378 109.5C99.0266 108.953 99.3287 108.464 99.7778 108.14C101.138 106.8 102.218 105.24 103.438 103.8C103.763 103.457 104.11 103.136 104.478 102.84V102.84Z" fill="#9E22E9"/>
</svg>
