<svg width="200" height="200" viewBox="0 0 200 200" fill="none" xmlns="http://www.w3.org/2000/svg">
<path d="M159.529 98.9676L131.007 47.218H169.596L190.289 84.5927C199.237 98.9676 199.237 98.9676 190.289 113.917C181.341 128.867 158.97 169.692 154.496 178.317C150.022 186.942 150.022 186.942 138.837 186.942H110.314L159.529 98.9676Z" fill="#821BBF" stroke="#821BBF"/>
<path d="M44.8235 21.0371C40.9332 27.352 20.2065 65.2411 20.2065 65.2411L39.6711 99.6858L69.4404 47.4447H169.626C169.626 47.4447 157.603 25.6297 153.596 19.3149C149.589 13 149.589 13 138.139 13L138.139 13H57.4182C50.5483 13 48.7137 14.7222 44.8235 21.0371Z" fill="#9E22E9" stroke="#9E22E9"/>
<path d="M69.8228 151.013L20.2065 65.4678C20.2065 65.4678 9.37079 84.2877 5.37867 91.1313C1.38655 97.975 0.38856 100.256 5.37867 108.811C10.3688 117.365 36.7453 164.13 42.4483 173.825C48.1513 183.52 49.2919 186.942 63.5494 186.942H109.744L129.704 151.013H69.8228Z" fill="#B044F0" stroke="#B044F0"/>
<ellipse cx="98.9513" cy="99.1154" rx="29.6557" ry="30.226" fill="#9E22E9"/>
</svg>
