<svg width="200" height="200" viewBox="0 0 200 200" fill="none" xmlns="http://www.w3.org/2000/svg">
<path d="M8.44147 98.0001C8.71147 96.7101 8.75147 95.3901 9.03147 94.1001C11.3915 83.4101 17.5615 75.7601 27.6515 71.53C36.3615 67.86 45.0815 68.39 53.5515 72.6101L53.8815 72.7901C53.9319 72.8175 53.9761 72.8549 54.0115 72.9001C53.8815 73.2601 53.5315 73.3901 53.2715 73.6201C52.248 74.5065 51.4349 75.6099 50.8915 76.8501C50.6715 77.3901 50.4615 77.4501 49.8915 77.2101C45.9343 75.3875 41.5722 74.622 37.2308 74.9883C32.8895 75.3546 28.7173 76.8402 25.1215 79.3001C22.2763 81.2085 19.8586 83.6873 18.0219 86.5793C16.1851 89.4713 14.9693 92.7134 14.4515 96.1001C13.4791 102.648 15.1158 109.316 19.0096 114.669C22.9033 120.022 28.7428 123.633 35.2718 124.725C41.8007 125.816 48.4973 124.302 53.9207 120.506C59.3441 116.711 63.0609 110.938 64.2715 104.43C65.1211 99.8299 64.621 95.0822 62.8315 90.7601C62.5915 90.1701 62.6815 89.9501 63.2615 89.7601C64.8313 89.1219 66.2093 88.0884 67.2615 86.7601C69.2833 90.9461 70.3296 95.5361 70.3218 100.185C70.3141 104.834 69.2524 109.42 67.2167 113.599C65.1809 117.779 62.2241 121.442 58.5685 124.314C54.913 127.186 50.6539 129.191 46.1115 130.18C44.7223 130.492 43.3117 130.699 41.8915 130.8C41.7415 130.8 41.5815 130.8 41.4715 130.93H37.3415C36.7223 130.812 36.0911 130.768 35.4615 130.8C32.5136 130.531 29.6327 129.763 26.9415 128.53C23.4008 127.01 20.1831 124.828 17.4615 122.1C13.5268 118.216 10.7085 113.347 9.30147 108C8.77882 106.193 8.51619 104.321 8.52147 102.44C8.52147 102.31 8.52147 102.18 8.44147 102.08V98.0001Z" fill="#9E22E9"/>
<path d="M39.3981 114.179C36.6173 114.167 33.9025 113.331 31.597 111.776C29.2915 110.221 27.4988 108.018 26.4456 105.444C25.3924 102.87 25.126 100.042 25.6802 97.3173C26.2343 94.5923 27.5841 92.0927 29.5588 90.1348C31.5335 88.1769 34.0444 86.8485 36.7741 86.3177C39.5037 85.7868 42.3295 86.0773 44.8941 87.1524C47.4586 88.2275 49.6468 90.0389 51.1818 92.3577C52.7169 94.6764 53.5299 97.3982 53.5181 100.179C53.4943 103.905 51.9952 107.471 49.3489 110.095C46.7026 112.718 43.1246 114.187 39.3981 114.179V114.179Z" fill="#9E22E9"/>
<path d="M132.669 89.5293C134.51 87.9103 136.745 86.8034 139.149 86.3194C143.089 85.6494 146.799 86.1094 149.759 89.1194C151.556 91.0915 152.616 93.6247 152.759 96.2893C153.109 99.5593 152.869 102.849 152.919 106.119C152.919 108.339 152.919 110.549 152.919 112.759C152.919 113.369 152.799 113.599 152.139 113.579C150.479 113.579 148.829 113.579 147.139 113.579C146.509 113.579 146.319 113.429 146.329 112.779C146.329 107.999 146.329 103.219 146.329 98.4393C146.392 96.8274 145.94 95.2371 145.039 93.8994C144.489 93.0148 143.682 92.3199 142.725 91.9087C141.768 91.4974 140.709 91.3894 139.689 91.5993C137.786 91.9002 136.032 92.8088 134.689 94.1894C134.224 94.6425 133.856 95.1857 133.609 95.7858C133.361 96.3859 133.238 97.0302 133.249 97.6793C133.249 102.679 133.249 107.749 133.249 112.789C133.249 113.429 133.059 113.589 132.439 113.579C130.729 113.579 129.029 113.579 127.319 113.579C126.809 113.579 126.679 113.429 126.679 112.939C126.679 104.386 126.679 95.8394 126.679 87.2994C126.679 86.8594 126.759 86.6694 127.259 86.6794C128.709 86.6794 130.169 86.6794 131.619 86.6794C131.979 86.6794 132.159 86.7493 132.199 87.1693C132.379 87.9093 132.529 88.6493 132.669 89.5293Z" fill="#9E22E9"/>
<path d="M180.346 85.9995C182.511 86.0869 184.627 86.6675 186.533 87.6969C188.44 88.7263 190.086 90.1774 191.346 91.9395C191.646 92.3095 191.606 92.5095 191.206 92.7695C189.946 93.5795 188.686 94.4095 187.456 95.2695C187.076 95.5395 186.896 95.4795 186.616 95.1195C185.432 93.4397 183.688 92.2376 181.696 91.7295C179.654 91.2966 177.524 91.6915 175.773 92.8277C174.022 93.9638 172.793 95.7483 172.356 97.7895C171.991 99.1347 171.94 100.546 172.207 101.914C172.474 103.282 173.052 104.57 173.896 105.68C174.601 106.587 175.498 107.327 176.523 107.845C177.549 108.363 178.676 108.647 179.825 108.676C180.974 108.704 182.114 108.477 183.164 108.011C184.214 107.545 185.147 106.851 185.896 105.98C186.286 105.54 186.526 104.74 187.116 104.76C187.706 104.78 188.116 105.33 188.586 105.66C189.386 106.19 190.166 106.78 191.006 107.25C191.666 107.63 191.596 107.94 191.186 108.46C185.606 115.4 177.256 115.84 171.186 110.93C166.526 107.16 165.026 102.08 166.566 96.3395C168.106 90.5995 172.126 87.3395 177.966 86.2095C178.755 86.0937 179.549 86.0235 180.346 85.9995V85.9995Z" fill="#9E22E9"/>
<path d="M92.7861 100.2C92.7861 104.39 92.7861 108.58 92.7861 112.78C92.7861 113.41 92.6061 113.59 91.9761 113.58C90.2661 113.58 88.5661 113.58 86.8561 113.58C86.3461 113.58 86.2261 113.43 86.2261 112.94C86.2261 104.4 86.2261 95.8596 86.2261 87.3196C86.2261 86.8296 86.3561 86.6696 86.8561 86.6796C88.5861 86.6796 90.3261 86.6796 92.0561 86.6796C92.6261 86.6796 92.7861 86.8196 92.7761 87.3996C92.7761 91.6596 92.7861 95.9296 92.7861 100.2Z" fill="#9E22E9"/>
<path d="M163.173 100.19C163.173 104.41 163.173 108.63 163.173 112.85C163.173 113.42 163.043 113.59 162.463 113.58C160.733 113.58 158.993 113.58 157.263 113.58C156.763 113.58 156.613 113.45 156.613 112.94C156.613 104.4 156.613 95.8597 156.613 87.3197C156.613 86.8197 156.753 86.6697 157.263 86.6797C158.993 86.6797 160.723 86.6797 162.453 86.6797C163.023 86.6797 163.173 86.8197 163.173 87.3897C163.163 91.6497 163.173 95.9197 163.173 100.19Z" fill="#9E22E9"/>
<path d="M53.1992 80.8909C53.1992 79.1856 53.8767 77.5501 55.0825 76.3442C56.2884 75.1384 57.9239 74.4609 59.6292 74.4609C61.3346 74.4609 62.9701 75.1384 64.1759 76.3442C65.3818 77.5501 66.0592 79.1856 66.0592 80.8909C66.0434 82.5947 65.3562 84.2235 64.1467 85.4237C62.9372 86.6238 61.3031 87.2984 59.5992 87.3009C58.7579 87.301 57.9249 87.1351 57.1477 86.8128C56.3706 86.4906 55.6646 86.0183 55.0702 85.4229C54.4758 84.8275 54.0046 84.1208 53.6835 83.3432C53.3625 82.5656 53.1979 81.7322 53.1992 80.8909Z" fill="#9E22E9"/>
<path d="M109.79 86.0602C107.011 86.0642 104.296 86.8914 101.987 88.4374C99.6779 89.9834 97.8789 92.1789 96.817 94.7467C95.755 97.3144 95.4776 100.139 96.02 102.864C96.5623 105.59 97.9 108.093 99.8641 110.059C101.828 112.024 104.331 113.364 107.056 113.908C109.78 114.452 112.605 114.177 115.174 113.117C117.742 112.057 119.939 110.259 121.487 107.951C123.034 105.644 123.864 102.929 123.87 100.15C123.91 98.2896 123.574 96.4399 122.881 94.7125C122.188 92.9852 121.153 91.4161 119.837 90.0996C118.522 88.7831 116.953 87.7465 115.227 87.0523C113.5 86.3581 111.65 86.0207 109.79 86.0602V86.0602ZM115.64 105.96C114.708 107.126 113.443 107.98 112.014 108.409C110.585 108.838 109.059 108.821 107.64 108.36C104.47 107.46 102.72 105.19 102.02 102.05C101.948 101.782 101.901 101.507 101.88 101.23C101.88 100.85 101.88 100.47 101.88 100.09C101.789 98.273 102.311 96.4779 103.36 94.9915C104.41 93.5052 105.927 92.4133 107.67 91.8903C108.764 91.5887 109.911 91.5267 111.032 91.7084C112.153 91.8902 113.222 92.3114 114.165 92.9435C115.108 93.5756 115.904 94.4036 116.499 95.3712C117.093 96.3387 117.472 97.4231 117.61 98.5503C117.864 99.8602 117.819 101.211 117.478 102.501C117.137 103.791 116.508 104.987 115.64 106V105.96Z" fill="#9E22E9"/>
</svg>
