<svg width="200" height="200" viewBox="0 0 200 200" fill="none" xmlns="http://www.w3.org/2000/svg">
<path d="M65.81 145.41C62.993 145.268 60.1795 145.749 57.57 146.82C56.09 147.48 54.41 148.13 54.24 150.02C54.07 151.91 55.69 152.94 57.17 153.75C60.6744 155.558 64.4683 156.739 68.38 157.24C87.8944 160.537 107.841 160.323 127.28 156.61C130.226 156.049 133.103 155.171 135.86 153.99C137.122 153.453 138.345 152.828 139.52 152.12C142.79 150.12 144.9 147.45 143.61 143.23C150.28 146.13 151.08 151.23 145.61 155.86C142.03 158.93 137.67 160.51 133.24 161.86C124.52 164.338 115.552 165.841 106.5 166.34C95.7269 167.155 84.9036 167.041 74.15 166C66.15 165.2 58.29 164 50.75 161.14C47.7782 160.147 45.037 158.566 42.69 156.49C38.87 152.86 39.07 148.75 43.39 145.79C49.15 141.85 55.64 141.35 62.27 142.53C63.82 142.81 65.18 144.16 66.63 145.02C66.65 145.73 66.19 145.5 65.81 145.41Z" fill="#821BBF"/>
<path d="M110.53 21.1499C112.349 23.5984 113.519 26.4675 113.93 29.4899C114.86 34.9299 113.42 39.8899 110.77 44.5799C107.77 49.8499 103.62 54.1899 99.49 58.5799C96.4724 61.5456 93.6372 64.6913 91 67.9999C88.66 71.1499 86.64 74.4299 87.26 78.6399C87.4719 79.6764 87.8077 80.6836 88.26 81.6399C90.7985 88.0901 93.8621 94.321 97.42 100.27C97.66 100.66 98.13 101.03 97.76 101.75C90.22 95.9999 83.19 89.8999 78.42 81.6499C76.1 77.6499 74.58 73.3599 75.64 68.5899C76.3836 65.672 77.8132 62.9738 79.81 60.7199C84.33 55.2099 90.05 50.9999 95.42 46.4299C99.3766 43.2613 103.002 39.6998 106.24 35.7999C109.58 31.5099 111.58 26.8199 110.53 21.1499Z" fill="#B044F0"/>
<path d="M130.13 104.9C125.13 109.6 119.99 113.11 112.98 113.9C100.55 115.32 88.14 116.48 75.62 116.05C69.8091 115.976 64.0268 115.224 58.39 113.81C56.5021 113.362 54.7012 112.605 53.06 111.57C50 109.49 49.96 106.41 53.06 104.25C56.16 102.09 59.78 101.35 63.41 100.7C69.1565 99.7569 74.9783 99.3518 80.8 99.49C79.18 100 77.54 100.49 75.92 101.04C73.5191 101.703 71.2282 102.714 69.12 104.04C68.51 104.46 67.77 104.98 67.89 105.8C68.01 106.62 68.98 106.8 69.67 106.93C74.0291 107.767 78.4616 108.163 82.9 108.11C97.3294 108.416 111.76 107.553 126.05 105.53C127.33 105.39 128.6 105.16 130.13 104.9Z" fill="#821BBF"/>
<path d="M134.86 47.2001C130.54 50.0801 126.47 52.8501 122.63 55.9201C119.374 58.4469 116.361 61.2725 113.63 64.3601C112.279 65.7716 111.408 67.5741 111.142 69.5101C110.876 71.4461 111.229 73.4166 112.15 75.1401C113 76.9401 113.95 78.7001 114.9 80.4601C121.04 91.7701 117.08 101.38 104.7 105.19C104.35 105.3 103.99 105.37 103.49 105.49C104.62 104.03 105.75 102.73 106.69 101.31C109.28 97.4101 109.5 93.3901 107.03 89.3101C105.96 87.5501 104.89 85.7901 103.67 84.1301C95.36 72.9201 101.03 61.5901 108.67 56.0301C115.57 51.0301 123.48 48.7101 131.76 47.4001C132.62 47.2701 133.49 47.1701 134.36 47.0701C134.53 47.0975 134.698 47.141 134.86 47.2001Z" fill="#B044F0"/>
<path d="M74.06 117.12C71.89 120.12 72.26 121.37 75.5 122.64C79.41 124.17 83.5 124.44 87.65 124.57C96.6524 124.981 105.663 123.968 114.35 121.57C114.811 121.409 115.304 121.364 115.787 121.437C116.27 121.51 116.727 121.7 117.12 121.99C119.6 123.65 122.12 125.21 124.93 126.99C121.387 128.524 117.703 129.71 113.93 130.53C100.512 133.731 86.5532 133.929 73.05 131.11C70.1488 130.575 67.3678 129.521 64.84 128C61.9 126.11 61.65 123.83 64.2 121.42C66.9037 118.91 70.3807 117.393 74.06 117.12V117.12Z" fill="#821BBF"/>
<path d="M122.48 141.89C119.209 143.877 115.64 145.326 111.91 146.18C100.17 149.07 88.35 149.76 76.46 147.18C74.1766 146.762 72.0084 145.862 70.1 144.54C67.68 142.75 67.32 140.45 69.17 138.06C71.48 135.06 74.72 134 78.54 133.74C78.15 134.74 77.45 135.63 78.05 136.58C78.6973 137.442 79.6484 138.024 80.71 138.21C84.7832 139.208 88.9939 139.522 93.17 139.14C99.54 138.74 105.85 137.95 111.87 135.66C112.094 135.551 112.343 135.502 112.592 135.517C112.841 135.533 113.081 135.613 113.29 135.75C116.27 137.78 119.27 139.76 122.48 141.89Z" fill="#821BBF"/>
<path d="M61.39 170.08C70.4133 172.081 79.5712 173.418 88.79 174.08C108.03 175.25 126.99 174.08 145.12 166.77C150.626 164.6 155.679 161.422 160.02 157.4C159.937 160.175 158.85 162.826 156.96 164.86C153.67 168.64 149.39 170.92 144.84 172.77C137.04 175.826 128.825 177.69 120.47 178.3C102.765 180.04 84.8909 178.169 67.93 172.8C65.74 172.1 63.59 171.27 61.41 170.5C61.3684 170.474 61.3356 170.437 61.316 170.392C61.2963 170.347 61.2908 170.298 61.3 170.25C61.33 170.12 61.36 170.08 61.39 170.08Z" fill="#821BBF"/>
<path d="M129.89 133.2C134.293 130.024 138.164 126.169 141.36 121.78C143.214 119.329 144.483 116.487 145.07 113.47C145.96 108.02 142.83 103.79 137.32 102.92C135.839 102.64 134.317 102.674 132.85 103.02C136.48 99.5401 143.1 98.2901 147.51 100.24C152.29 102.34 153.98 106.36 154.1 111.24C154.218 114.191 153.613 117.126 152.337 119.789C151.061 122.452 149.153 124.763 146.78 126.52C142.19 130.2 136.78 132.13 131.13 133.3C130.931 133.388 130.714 133.426 130.497 133.408C130.281 133.391 130.072 133.319 129.89 133.2Z" fill="#821BBF"/>
<path d="M65.8101 145.41L66.6301 145C66.8103 145.013 66.9836 145.075 67.1315 145.179C67.2794 145.283 67.3964 145.425 67.4701 145.59C67.1967 145.681 66.9069 145.713 66.6204 145.682C66.3339 145.65 66.0574 145.558 65.8101 145.41Z" fill="#821BBF"/>
<path d="M61.39 170.08V170.46C60.8976 170.448 60.4286 170.248 60.08 169.9C60.1752 169.82 60.2863 169.76 60.4061 169.725C60.5258 169.691 60.6515 169.682 60.775 169.698C60.8985 169.715 61.0171 169.758 61.123 169.824C61.2289 169.89 61.3199 169.977 61.39 170.08V170.08Z" fill="#821BBF"/>
</svg>
