<svg width="200" height="200" viewBox="0 0 200 200" fill="none" xmlns="http://www.w3.org/2000/svg">
<path d="M99.4379 105.803L99.3886 105.833L99.3474 105.874C93.9945 111.158 87.88 114.347 80.2041 113.334H80.2036C79.6709 113.264 79.2113 113.295 78.8094 113.423C78.4041 113.552 78.0855 113.771 77.8246 114.037C77.5687 114.297 77.3697 114.601 77.1974 114.898C77.1109 115.047 77.0278 115.201 76.9474 115.35L76.9354 115.372C76.8585 115.514 76.7837 115.653 76.7053 115.79C73.7109 120.942 68.9073 123.339 64.0281 122.35C58.6902 121.267 54.8095 117.375 54.0934 112.507C53.6863 109.72 54.0578 107.218 55.1957 105.067C56.334 102.916 58.26 101.077 61.0269 99.6545C61.9862 99.1642 62.5917 98.6294 62.8864 97.9104C63.1711 97.2157 63.1246 96.4363 63.0148 95.5771C62.6679 92.796 62.9155 89.9729 63.741 87.2946C64.5666 84.6161 65.9514 82.1434 67.8039 80.04L67.8101 80.033L67.8161 80.0257C68.3699 79.3471 68.7619 79.0681 69.0727 79.0248C69.3313 78.9887 69.7157 79.1019 70.3192 79.8052L70.3225 79.8089C71.8136 81.5122 73.4161 83.1146 75.1193 84.6058L75.1216 84.6077C76.1191 85.4706 76.7322 86.1756 76.9274 86.9244C77.1121 87.6331 76.9491 88.5092 76.0411 89.79C74.8928 91.4002 74.5842 93.093 74.9363 94.7191C75.285 96.3296 76.2713 97.832 77.6364 99.114C79.022 100.415 80.5667 101.137 82.1956 101.278C83.821 101.418 85.4855 100.977 87.1102 100.032L87.1307 100.02L87.1499 100.006C88.1916 99.2596 89.1551 98.4097 90.0256 97.4692L90.0622 97.4297L90.0896 97.3832C91.1989 95.4988 92.676 93.9321 94.2651 92.4051C94.6806 92.0059 95.1056 91.6078 95.5334 91.2071C96.7268 90.0893 97.9421 88.9509 99.0341 87.7099L99.0365 87.7071C100.476 86.0461 102.028 84.5264 103.598 82.9897C104.505 82.1015 105.417 81.2076 106.318 80.2775C107.227 79.3387 107.989 78.8957 108.694 78.8654C109.38 78.8359 110.173 79.1941 111.161 80.268L111.163 80.2701C112.761 81.9886 114.103 83.2879 115.153 84.305C115.549 84.6882 115.903 85.0313 116.215 85.3417C116.79 85.9159 117.207 86.367 117.484 86.7585C117.76 87.1469 117.87 87.4378 117.885 87.6929C117.899 87.9437 117.825 88.2317 117.587 88.6228C117.346 89.0202 116.958 89.4883 116.393 90.0888C115.862 90.6532 115.195 91.3132 114.379 92.1206L114.233 92.2655C113.352 93.1368 112.312 94.169 111.109 95.4119V95.412C110.706 95.8291 110.241 96.1678 109.735 96.5224C109.682 96.5592 109.629 96.5962 109.575 96.6336C109.124 96.9482 108.641 97.2846 108.195 97.687C107.083 98.6736 106.054 99.763 105.044 100.834C104.675 101.224 104.309 101.612 103.942 101.992C102.554 103.427 101.132 104.767 99.4379 105.803Z" fill="#9E22E9" stroke="#9E22E9"/>
<path d="M93.8637 159.001C93.8637 155.931 92.8637 152.341 94.1537 149.941C95.4437 147.541 99.1537 150.041 101.944 149.021C106.244 147.461 110.454 151.331 114.114 151.081C117.774 150.831 121.654 148.081 126.034 148.891C132.034 150.001 134.194 152.491 134.214 158.511C134.214 161.451 134.214 164.391 134.214 167.321C134.214 168.621 134.014 169.411 132.394 169.381C130.774 169.351 130.684 168.381 130.694 167.211C130.694 164.131 130.694 161.051 130.694 157.971C130.594 153.481 127.944 151.261 122.914 151.351C117.884 151.441 115.774 153.421 115.724 157.931C115.84 158.76 115.84 159.601 115.724 160.431C114.814 163.341 117.854 168.771 114.114 168.831C110.224 168.901 113.114 163.491 112.304 160.631C111.994 159.631 112.304 158.401 112.214 157.291C111.844 153.221 108.984 151.151 104.144 151.391C99.3037 151.631 97.3137 153.581 97.2737 157.891C97.2737 160.971 97.2737 164.051 97.2737 167.121C97.2737 168.241 97.4337 169.321 95.6837 169.381C93.7437 169.451 93.7537 168.381 93.7637 166.981C93.7637 164.321 93.7637 161.661 93.7637 158.981L93.8637 159.001Z" fill="#9E22E9"/>
<path d="M28.3324 152.14C28.3324 155.22 28.4024 158.29 28.3324 161.36C28.1924 166.03 25.6724 168.78 20.9124 169.36C17.0138 169.753 13.0769 169.496 9.26241 168.6C8.37241 168.41 7.13241 168.67 7.32241 167.12C7.51241 165.57 8.38241 165.39 9.72241 165.66C12.8858 166.234 16.1148 166.355 19.3124 166.02C22.7124 165.74 24.6324 164.1 24.5424 160.36C24.4124 154.78 24.4424 149.2 24.5424 143.62C24.5424 142.22 23.4624 139.95 26.3424 139.85C29.7124 139.74 28.1324 142.35 28.2524 143.77C28.5024 146.55 28.3324 149.35 28.3324 152.14Z" fill="#9E22E9"/>
<path d="M136.731 154.689C136.731 150.499 136.731 146.319 136.731 142.129C136.731 141.029 136.551 139.909 138.291 139.839C140.191 139.759 140.241 140.839 140.231 142.219C140.231 150.459 140.231 158.696 140.231 166.929C140.231 168.189 140.441 169.439 138.421 169.419C136.401 169.399 136.751 167.999 136.751 166.839C136.721 162.789 136.731 158.739 136.731 154.689Z" fill="#9E22E9"/>
<path d="M181.999 151.349C181.999 154.283 181.999 157.213 181.999 160.139C181.999 161.369 182.269 162.689 180.259 162.729C178.479 162.729 178.189 161.889 178.199 160.409C178.199 154.279 178.199 148.139 178.199 141.999C178.199 140.759 178.429 139.859 179.979 139.799C181.779 139.719 182.029 140.699 181.979 142.149C181.999 145.219 181.999 148.289 181.999 151.349Z" fill="#9E22E9"/>
<path d="M192.711 143.37C192.581 145.71 191.331 147.371 188.891 147.371C188.396 147.421 187.896 147.363 187.426 147.201C186.956 147.039 186.527 146.776 186.169 146.432C185.81 146.088 185.531 145.67 185.35 145.207C185.169 144.744 185.091 144.247 185.121 143.75C185.121 141.38 186.121 139.81 188.851 139.75C191.321 139.78 192.361 141.08 192.711 143.37Z" fill="#9E22E9"/>
<path d="M93.9948 81.8265C95.4955 83.2641 96.8014 84.8181 97.6313 86.7755L88.849 94.9761C87.5344 93.6787 86.2205 92.3848 84.9082 91.0925C79.2543 85.5248 73.6302 79.9865 68.1075 74.3202L68.1028 74.3154C66.0718 72.2869 64.5549 69.8026 63.6782 67.0693C62.8015 64.336 62.5904 61.4328 63.0626 58.6014L63.0646 58.5882C63.2392 57.3353 63.2123 56.2975 62.7683 55.4052C62.3224 54.5088 61.5011 53.8489 60.296 53.2435C58.0144 52.0708 56.1832 50.1784 55.0861 47.8594C53.9889 45.5403 53.6873 42.924 54.2279 40.4161C54.7696 37.9769 56.0478 35.7632 57.8893 34.0745C59.7312 32.3855 62.0478 31.3034 64.5252 30.9748L64.537 30.9731C67.0756 30.5743 69.6744 31.0418 71.9149 32.3002C74.1553 33.5586 75.9069 35.5346 76.8873 37.9099L76.8896 37.9156C77.3711 39.0425 77.8932 39.8543 78.6779 40.3264C79.4629 40.7986 80.4174 40.8747 81.621 40.7674C86.8498 40.3614 92.0284 42.0295 96.037 45.4113L96.0428 45.4162L96.0487 45.4209C96.935 46.124 97.2271 46.6098 97.2423 46.9833C97.2571 47.3451 97.0175 47.8239 96.1781 48.5361C94.6473 49.8083 93.2369 51.2187 91.9649 52.7496L91.961 52.7544C91.0266 53.9074 90.261 54.5796 89.4371 54.7853C88.6424 54.9837 87.6554 54.7769 86.199 53.7946C84.5759 52.7 82.8494 52.457 81.2201 52.8708C79.6042 53.2812 78.1168 54.3278 76.9165 55.7577C75.7134 57.1909 74.9991 58.7685 74.8893 60.4057C74.7792 62.0475 75.2805 63.7014 76.4252 65.2735L76.437 65.2896L76.4499 65.3047C78.094 67.2214 79.8716 69.0193 81.7696 70.685L81.79 70.7029L81.8122 70.7184C83.0943 71.6184 84.1926 72.7168 85.3098 73.8653C85.3974 73.9554 85.4852 74.0458 85.5732 74.1365C86.5913 75.1853 87.6393 76.265 88.8387 77.2052C89.6665 78.0212 90.5476 78.7851 91.419 79.5352C91.4733 79.5818 91.5274 79.6285 91.5816 79.675C92.4087 80.3866 93.2238 81.0879 93.9948 81.8265Z" fill="#9E22E9" stroke="#9E22E9"/>
<path d="M180.001 165.27C181.551 165.27 182.911 165.66 182.911 167.44C182.911 168.99 181.731 169.44 180.381 169.51C179.031 169.58 177.441 169.27 177.311 167.56C177.181 165.85 178.541 165.33 180.001 165.27Z" fill="#9E22E9"/>
<path d="M172.999 159.46C172.999 156.67 172.999 153.88 172.999 151.09C172.999 150.3 173.159 149.32 171.999 149.17C171.199 149.07 169.859 148.8 169.729 149.55C169.159 152.73 167.659 150.89 166.359 150.35C161.036 148.087 155.037 148.012 149.659 150.14C145.709 151.62 143.139 154.34 143.029 158.86C142.919 163.38 145.259 166.22 149.189 167.86C151.962 169.021 154.938 169.619 157.944 169.619C160.95 169.619 163.926 169.021 166.699 167.86C167.619 167.51 169.129 165.63 169.539 168.56C169.729 169.88 171.149 169.29 172.019 169.25C173.229 169.19 173.019 168.13 173.019 167.35C172.999 164.76 172.999 162.11 172.999 159.46ZM165.059 165.38C162.888 166.456 160.481 166.969 158.059 166.87C151.059 166.87 146.829 163.87 146.809 159.22C146.789 154.57 150.679 151.69 157.319 151.44C161.009 151.3 164.609 151.82 167.319 154.75C170.859 158.64 169.889 163.15 165.069 165.38H165.059Z" fill="#9E22E9"/>
<path d="M55.5932 151.3C49.8932 147.63 39.5932 147.82 34.0832 151.69C28.5732 155.56 28.5231 162.61 33.8932 166.49C37.1485 168.706 41.0546 169.762 44.9832 169.49C48.626 169.742 52.2604 168.892 55.4132 167.05C61.7332 163.21 61.8132 155.3 55.5932 151.3ZM45.0032 166.86C38.3232 166.86 34.0032 163.86 33.8632 159.28C33.7232 154.7 38.0832 151.57 44.7732 151.39C51.4632 151.21 56.2532 154.39 56.3332 159.04C56.4132 163.69 51.8432 166.89 45.0032 166.86Z" fill="#9E22E9"/>
<path d="M87.7901 151.65C82.0401 147.65 71.7001 147.65 65.9501 151.65C60.2001 155.65 60.2801 163.09 66.2801 166.92C69.4197 168.863 73.0854 169.782 76.7701 169.55C80.6491 169.869 84.5226 168.876 87.7701 166.73C93.4201 162.84 93.3701 155.51 87.7901 151.65ZM83.1601 165.65C81.0972 166.562 78.8654 167.029 76.6101 167.02C75.1101 166.74 73.6101 166.54 72.1201 166.18C68.4101 165.26 65.7401 163.18 65.5101 159.18C65.3201 155.84 68.2601 152.79 72.4501 151.91C75.8587 151.069 79.439 151.243 82.7501 152.41C85.8501 153.59 88.0601 155.53 88.0901 159.11C88.1301 162.52 86.0001 164.42 83.1601 165.7V165.65Z" fill="#9E22E9"/>
<path d="M102.356 66.6768L102.398 66.6976L102.437 66.6914C102.439 66.7008 102.44 66.7102 102.442 66.7195L102.511 66.754L102.493 66.7888L102.465 66.8455L102.356 66.6768ZM102.356 66.6768C105.014 63.2521 108.086 60.1698 111.5 57.5C111.655 57.5598 111.806 57.6226 111.956 57.6883L102.356 66.6768ZM139.96 98.3484L139.962 98.3492C142.789 99.4482 144.79 101.157 146.013 103.32C147.239 105.486 147.708 108.146 147.396 111.18C146.823 116.225 142.804 120.285 137.33 121.252C134.798 121.66 132.202 121.218 129.947 119.994C127.692 118.769 125.907 116.831 124.871 114.483L124.866 114.473L124.862 114.463C124.355 113.439 123.857 112.704 123.113 112.309C122.369 111.913 121.48 111.912 120.345 112.069C113.579 113.018 107.634 111.242 102.98 106.104L111.298 97.2453L111.456 97.077C111.752 97.1254 112.043 97.2298 112.348 97.3683C112.549 97.4598 112.746 97.5612 112.955 97.6683C112.994 97.6885 113.033 97.7088 113.073 97.7294C113.32 97.856 113.584 97.9878 113.857 98.0971C115.785 98.8744 117.571 99.0822 119.137 98.7056C120.712 98.3265 122.013 97.3677 122.98 95.9092C123.935 94.4693 124.361 93.0134 124.135 91.505C123.912 90.0087 123.059 88.5378 121.614 87.0354L121.612 87.0342C118.487 83.8089 115.296 80.6348 112.109 77.4645C109.862 75.2298 107.618 72.997 105.399 70.7495L105.398 70.7486C105.145 70.4933 104.898 70.2608 104.659 70.0355C104.257 69.6569 103.876 69.2983 103.521 68.8839C103.096 68.389 102.756 67.8605 102.561 67.2279L102.748 66.9869C105.431 63.5295 108.54 60.4244 112 57.7449L112.03 57.7213C113.951 58.5841 115.461 59.9313 116.903 61.4426C117.356 61.9178 117.806 62.414 118.262 62.9159C119.393 64.1622 120.555 65.4437 121.878 66.5271C122.297 67.0957 122.795 67.5899 123.296 68.0483C123.508 68.242 123.714 68.4241 123.916 68.6028C124.225 68.8756 124.525 69.1406 124.823 69.4272C125.779 70.3466 126.516 71.3128 126.677 72.7081L126.696 72.8743L126.811 72.9955C127.177 73.3799 127.541 73.7735 127.907 74.1696C128.683 75.0083 129.469 75.8575 130.297 76.6522L130.298 76.653C135.242 81.3713 137.929 86.9591 137.296 93.8369L137.295 93.8379C137.205 94.8477 137.211 95.7519 137.609 96.5274C138.015 97.3211 138.778 97.8828 139.96 98.3484ZM104.346 70.428C104.581 70.65 104.816 70.872 105.043 71.1008L102 67.0603C102.335 68.5318 103.339 69.4791 104.346 70.428Z" fill="#9E22E9"/>
<path d="M102.356 66.6768L102.398 66.6976L102.437 66.6914C102.439 66.7008 102.44 66.7102 102.442 66.7195L102.511 66.754L102.493 66.7888L102.465 66.8455L102.356 66.6768ZM102.356 66.6768C105.014 63.2521 108.086 60.1698 111.5 57.5C111.655 57.5598 111.806 57.6226 111.956 57.6883L102.356 66.6768ZM139.96 98.3484L139.962 98.3492C142.789 99.4482 144.79 101.157 146.013 103.32C147.239 105.486 147.708 108.146 147.396 111.18C146.823 116.225 142.804 120.285 137.33 121.252C134.798 121.66 132.202 121.218 129.947 119.994C127.692 118.769 125.907 116.831 124.871 114.483L124.866 114.473L124.862 114.463C124.355 113.439 123.857 112.704 123.113 112.309C122.369 111.913 121.48 111.912 120.345 112.069C113.579 113.018 107.634 111.242 102.98 106.104L111.298 97.2453L111.456 97.077C111.752 97.1254 112.043 97.2298 112.348 97.3683C112.549 97.4598 112.746 97.5612 112.955 97.6683C112.994 97.6885 113.033 97.7088 113.073 97.7294C113.32 97.856 113.584 97.9878 113.857 98.0971C115.785 98.8744 117.571 99.0822 119.137 98.7056C120.712 98.3265 122.013 97.3677 122.98 95.9092C123.935 94.4693 124.361 93.0134 124.135 91.505C123.912 90.0087 123.059 88.5378 121.614 87.0354L121.612 87.0342C118.487 83.8089 115.296 80.6348 112.109 77.4645C109.862 75.2298 107.618 72.997 105.399 70.7495L105.398 70.7486C105.145 70.4933 104.898 70.2608 104.659 70.0355C104.257 69.6569 103.876 69.2983 103.521 68.8839C103.096 68.389 102.756 67.8605 102.561 67.2279L102.748 66.9869C105.431 63.5295 108.54 60.4244 112 57.7449L112.03 57.7213C113.951 58.5841 115.461 59.9313 116.903 61.4426C117.356 61.9178 117.806 62.414 118.262 62.9159C119.393 64.1622 120.555 65.4437 121.878 66.5271C122.297 67.0957 122.795 67.5899 123.296 68.0483C123.508 68.242 123.714 68.4241 123.916 68.6028C124.225 68.8756 124.525 69.1406 124.823 69.4272C125.779 70.3466 126.516 71.3128 126.677 72.7081L126.696 72.8743L126.811 72.9955C127.177 73.3799 127.541 73.7735 127.907 74.1696C128.683 75.0083 129.469 75.8575 130.297 76.6522L130.298 76.653C135.242 81.3713 137.929 86.9591 137.296 93.8369L137.295 93.8379C137.205 94.8477 137.211 95.7519 137.609 96.5274C138.015 97.3211 138.778 97.8828 139.96 98.3484ZM104.346 70.428C104.581 70.65 104.816 70.872 105.043 71.1008L102 67.0603C102.335 68.5318 103.339 69.4791 104.346 70.428Z" stroke="#9E22E9"/>
<path d="M102.606 45.5543L102.656 45.5265L102.699 45.4873C108.278 40.4418 114.525 37.5224 122.15 38.8692C122.679 38.9624 123.14 38.9514 123.547 38.8411C123.958 38.7299 124.285 38.525 124.558 38.2706C124.825 38.022 125.037 37.727 125.222 37.4378C125.315 37.2927 125.404 37.1425 125.491 36.9971L125.504 36.9757C125.587 36.8372 125.668 36.7015 125.752 36.5681C128.969 31.5516 133.872 29.3663 138.704 30.5672C143.989 31.8819 147.696 35.9394 148.2 40.834C148.485 43.6361 148.005 46.1195 146.774 48.2189C145.543 50.3182 143.539 52.0714 140.712 53.3718C139.732 53.8198 139.104 54.3277 138.778 55.0332C138.464 55.7148 138.476 56.4955 138.548 57.3587C138.774 60.1523 138.403 62.9619 137.462 65.6016C136.52 68.2416 135.029 70.6515 133.086 72.6722L133.08 72.6789L133.074 72.6859C132.491 73.3397 132.087 73.6014 131.774 73.6311C131.515 73.6558 131.135 73.526 130.563 72.7971L130.56 72.7932C129.145 71.0265 127.614 69.3557 125.977 67.7917L125.975 67.7897C125.016 66.8841 124.434 66.1531 124.272 65.3965C124.118 64.6804 124.319 63.8122 125.282 62.5722C126.5 61.0136 126.882 59.3359 126.601 57.696C126.323 56.0718 125.403 54.5278 124.095 53.1875C122.767 51.8275 121.256 51.0388 119.634 50.8269C118.017 50.6161 116.335 50.9841 114.67 51.8574L114.649 51.8685L114.629 51.8816C113.556 52.5818 112.556 53.3889 111.646 54.2905L111.608 54.3284L111.578 54.3736C110.388 56.2079 108.844 57.7087 107.19 59.1649C106.757 59.5456 106.315 59.9248 105.87 60.3065C104.629 61.3712 103.365 62.4555 102.22 63.6477L102.218 63.6504C100.707 65.247 99.0904 66.6976 97.4549 68.1644C96.51 69.0122 95.5599 69.8655 94.6192 70.7554C93.6702 71.6537 92.8896 72.063 92.1839 72.0625C91.4973 72.0621 90.7206 71.6697 89.7804 70.5537L89.7785 70.5515C88.257 68.765 86.9729 67.4084 85.9683 66.3465C85.5893 65.9464 85.2506 65.5881 84.9525 65.2644C84.4031 64.6657 84.0061 64.1969 83.7465 63.7936C83.4877 63.3936 83.3905 63.0982 83.3866 62.8426C83.3835 62.5915 83.47 62.307 83.7249 61.9266C83.983 61.5401 84.391 61.0894 84.9817 60.5141C85.5368 59.9734 86.2319 59.3431 87.0823 58.572L87.2345 58.4335C88.1527 57.6015 89.2367 56.6156 90.4928 55.4264C90.9136 55.0272 91.3929 54.7091 91.9139 54.3769C91.9684 54.3425 92.023 54.3078 92.0786 54.2728C92.5429 53.9782 93.0401 53.6632 93.5032 53.2806C94.6572 52.3434 95.7327 51.2999 96.7884 50.2741C97.1741 49.9006 97.5566 49.5289 97.9399 49.1653C99.3891 47.7922 100.868 46.5154 102.606 45.5543Z" fill="#9E22E9" stroke="#9E22E9"/>
</svg>
