<svg width="200" height="200" viewBox="0 0 200 200" fill="none" xmlns="http://www.w3.org/2000/svg">
<path d="M29.2084 177.821C25.8884 178.591 23.2784 178.281 21.7284 174.901C20.8491 173.231 19.5883 171.792 18.0484 170.701C18.0484 172.941 17.9884 174.701 18.0484 176.511C18.1384 178.561 16.6784 178.061 15.5784 178.061C14.4784 178.061 13.0584 178.581 13.0684 176.521C13.1184 169.301 12.9884 162.071 13.1484 154.851C13.1984 152.271 15.7084 153.261 17.1484 152.981C18.5884 152.701 18.0484 154.161 18.0584 154.881C18.0584 158.651 18.0584 162.411 18.0584 166.751C21.4584 164.061 23.1084 158.751 28.8384 161.331C27.2184 163.111 25.6184 165.061 23.8384 166.781C22.5984 167.961 22.3884 168.671 23.7284 170.011C25.9917 172.278 27.8457 174.921 29.2084 177.821V177.821Z" fill="#9E22E9"/>
<path d="M103.503 169.551C103.503 167.301 103.503 165.061 103.503 162.811C103.503 161.871 103.743 161.331 104.773 161.161C107.543 160.711 110.283 160.161 113.113 160.741C114.359 160.896 115.519 161.461 116.408 162.349C117.297 163.236 117.865 164.395 118.023 165.641C118.683 169.391 118.373 173.171 118.283 176.921C118.283 178.991 116.283 177.811 115.283 178.041C114.283 178.271 113.483 177.931 113.513 176.551C113.573 173.661 113.603 170.771 113.443 167.891C113.303 165.331 112.293 164.561 109.973 164.621C108.713 164.621 108.333 165.141 108.353 166.361C108.413 169.651 108.253 172.941 108.413 176.221C108.513 178.301 107.313 178.121 105.983 178.081C104.653 178.041 103.353 178.441 103.503 176.281C103.653 174.121 103.503 171.791 103.503 169.551Z" fill="#9E22E9"/>
<path d="M46.3009 169.229C46.3009 171.399 46.2109 173.569 46.3009 175.729C46.3709 177.159 45.8209 177.729 44.4509 177.889C42.0916 178.36 39.6767 178.488 37.2809 178.269C34.0209 177.779 32.0309 176.089 31.7709 172.879C31.5159 169.278 31.4658 165.666 31.6209 162.059C31.6909 159.889 33.5609 161.129 34.6209 160.889C35.6809 160.649 36.4709 160.889 36.4309 162.339C36.3509 164.909 36.3809 167.479 36.4309 170.039C36.4013 170.922 36.5162 171.803 36.7709 172.649C37.3809 174.369 38.9009 174.369 40.3909 174.239C41.8809 174.109 41.3909 172.849 41.3909 172.009C41.4509 169.009 41.5609 166.069 41.3909 163.109C41.2509 161.019 42.1909 160.849 43.9009 160.789C45.8109 160.729 46.4509 161.309 46.3009 163.219C46.1509 165.129 46.3009 167.219 46.3009 169.229Z" fill="#9E22E9"/>
<path d="M141.64 165.169C141.64 162.849 141.64 160.519 141.64 158.169C141.64 155.309 144.02 156.379 145.35 156.039C147.03 155.619 146.54 157.269 146.42 157.979C145.96 160.679 147.35 161.049 149.55 160.849C150.9 160.729 152.47 160.329 152.35 162.849C152.28 164.519 151.84 165.029 150.16 164.999C146.47 164.939 146.47 164.999 146.47 168.669C146.47 169.309 146.47 169.949 146.47 170.589C146.54 173.799 147.47 174.699 150.58 174.209C152.04 173.979 152.48 174.209 152.74 175.719C153 177.229 152.69 177.869 151.15 178.199C144.96 179.549 141.68 177.009 141.64 170.719C141.63 168.859 141.64 166.999 141.64 165.169Z" fill="#9E22E9"/>
<path d="M179.291 178.62C178.121 178.45 177.011 178.27 175.901 178.14C173.991 177.92 173.611 176.99 174.141 175.14C174.491 173.95 174.811 173.5 176.071 173.96C177.352 174.419 178.715 174.603 180.071 174.5C180.811 174.5 181.811 174.5 181.951 173.42C182.071 172.53 181.311 172.18 180.661 171.88C179.501 171.34 178.301 170.88 177.131 170.35C174.741 169.27 173.941 167.35 174.231 164.84C174.511 162.55 176.011 161.37 178.091 160.74C180.286 160.221 182.575 160.259 184.751 160.85C186.401 161.18 185.881 162.26 185.661 163.27C185.441 164.28 185.381 165.17 183.881 164.66C182.752 164.216 181.518 164.112 180.331 164.36C179.771 164.5 179.211 164.67 179.061 165.36C178.992 165.679 179.043 166.012 179.203 166.296C179.363 166.58 179.622 166.795 179.931 166.9C181.091 167.45 182.311 167.9 183.461 168.44C186.181 169.75 187.221 171.54 186.801 174.16C186.381 176.78 184.591 177.75 182.311 178.16C181.321 178.41 180.281 178.49 179.291 178.62Z" fill="#9E22E9"/>
<path d="M89.6633 169.64C89.6633 167.56 89.6633 165.48 89.6633 163.39C89.6633 162.39 89.8033 161.7 90.9033 161.39C93.6745 160.565 96.592 160.354 99.4533 160.77C100.923 161.03 100.853 161.9 100.533 162.86C100.213 163.82 100.693 165.42 98.7333 164.86C98.266 164.752 97.7914 164.678 97.3133 164.64C95.3133 164.37 94.3133 164.89 94.4933 167.19C94.6933 170.19 94.4933 173.28 94.5733 176.31C94.6533 178.26 93.4533 178.08 92.2433 178.02C91.0333 177.96 89.5433 178.52 89.6533 176.32C89.7633 174.12 89.6633 171.89 89.6633 169.64Z" fill="#9E22E9"/>
<path d="M56.4309 161.001C56.22 160.994 56.0112 160.957 55.8109 160.891C55.8109 158.771 55.8109 156.621 55.8109 154.461C55.8109 153.941 56.0408 153.291 55.4408 152.931C53.9909 152.081 51.0009 153.861 51.0009 155.571C51.0009 161.021 51.0009 166.461 51.0009 171.911C51.0009 178.331 51.2109 178.541 57.7808 178.511C58.5802 178.493 59.3766 178.406 60.1608 178.251C61.6431 178.062 63.0348 177.434 64.1561 176.446C65.2774 175.458 66.0767 174.157 66.4508 172.711C68.8308 165.001 64.3208 159.741 56.4309 161.001ZM61.8308 170.821C61.3808 172.821 60.4408 174.151 58.2208 174.341C56.4309 174.501 55.4809 174.021 55.7909 172.021C55.851 171.228 55.851 170.433 55.7909 169.641C55.7909 168.921 55.7909 168.211 55.7909 167.491C55.7909 164.931 57.7909 163.821 60.0608 165.051C61.5908 165.821 62.3808 168.391 61.8308 170.791V170.821Z" fill="#9E22E9"/>
<path d="M128.903 160.511C124.693 161.261 122.013 164.661 121.903 169.341C121.833 174.221 124.193 177.341 128.603 178.271C130.873 178.771 133.063 178.271 135.283 178.021C137.283 177.741 136.753 176.351 136.643 175.111C136.513 173.451 135.523 173.811 134.413 174.021C132.113 174.441 129.773 174.781 127.803 172.971C127.57 172.812 127.384 172.592 127.266 172.334C127.148 172.077 127.102 171.793 127.133 171.511C127.323 170.761 128.043 171.031 128.563 171.021C129.843 171.021 131.133 171.021 132.413 171.021C133.863 171.021 135.303 171.021 136.753 171.021C136.905 171.047 137.059 171.041 137.208 171.003C137.357 170.966 137.496 170.898 137.617 170.804C137.739 170.71 137.839 170.592 137.912 170.457C137.986 170.323 138.03 170.174 138.043 170.021C138.306 168.75 138.255 167.433 137.895 166.186C137.535 164.938 136.876 163.797 135.976 162.861C135.077 161.925 133.962 161.221 132.73 160.812C131.498 160.403 130.184 160.3 128.903 160.511ZM133.083 166.931C132.903 168.491 131.083 167.301 130.083 167.801C129.213 167.161 127.363 168.671 127.293 166.801C127.233 165.331 128.633 164.571 130.183 164.531C131.733 164.491 133.263 165.371 133.083 166.931V166.931Z" fill="#9E22E9"/>
<path d="M76.2424 160.66C72.1324 161.66 69.7524 165.11 69.8524 169.91C69.9424 174.46 72.3724 177.39 76.6224 178.28C78.6852 178.556 80.7791 178.496 82.8224 178.1C84.6424 177.89 84.9324 176.96 84.6624 175.29C84.3524 173.36 83.3224 173.88 82.0824 174.09C79.9524 174.45 77.7524 174.69 75.8924 173.09C75.6144 172.923 75.3927 172.677 75.2555 172.383C75.1184 172.089 75.072 171.761 75.1224 171.44C75.3424 170.73 76.0624 171 76.5824 170.99C77.8624 170.99 79.1424 170.99 80.4324 170.99C81.7224 170.99 83.1524 170.99 84.5124 170.99C85.3924 170.99 85.7824 170.7 85.9524 169.81C86.2127 168.502 86.1363 167.149 85.7303 165.879C85.3242 164.608 84.6019 163.461 83.6311 162.547C82.6603 161.632 81.4729 160.979 80.1804 160.649C78.888 160.319 77.5329 160.323 76.2424 160.66V160.66ZM81.0024 167C80.7824 168.69 78.9124 167 78.0624 167.95C77.0624 167.15 75.1924 168.75 75.1824 166.75C75.1824 165.27 76.5624 164.55 78.1024 164.53C79.8324 164.48 81.2224 165.44 81.0024 167Z" fill="#9E22E9"/>
<path d="M161.94 160.53C157.11 161.14 154.48 165.21 154.94 170.89C155.32 175.67 158.73 178.58 164.01 178.51C165.446 178.419 166.876 178.239 168.29 177.97C169.58 177.79 169.84 177.16 169.69 175.83C169.48 173.99 168.99 173.6 167.13 174.04C164.89 174.57 162.46 174.79 160.59 172.83C160.21 172.44 159.78 171.95 160.07 171.34C160.36 170.73 160.91 171.03 161.35 171.02C162.64 171.02 163.92 171.02 165.2 171.02H169.54C170.18 171.02 170.84 171.02 170.92 170.11C171.36 164.49 168.35 159.71 161.94 160.53ZM165.94 166.81C165.72 168.76 163.78 166.97 162.94 167.88C161.94 167.27 160.16 168.45 160.1 166.88C160.04 165.31 161.44 164.45 163.1 164.49C164.76 164.53 166.12 165.35 166 166.81H165.94Z" fill="#9E22E9"/>
<path d="M154.219 85.2794C151.166 72.2394 148.166 59.1861 145.219 46.1194C144.951 44.6614 144.324 43.293 143.395 42.1374C142.467 40.9818 141.265 40.0753 139.899 39.4994C127.899 33.8661 115.956 28.1661 104.069 22.3995C102.835 21.7513 101.463 21.4126 100.069 21.4126C98.6755 21.4126 97.3028 21.7513 96.0691 22.3995C84.0691 28.1994 72.0491 33.9328 60.0091 39.5994C58.6901 40.1628 57.5293 41.0407 56.628 42.1564C55.7268 43.2721 55.1126 44.5915 54.8391 45.9994C51.9524 58.8461 49.0057 71.6694 45.9991 84.4694C45.6096 85.8584 45.5721 87.3225 45.8898 88.7296C46.2075 90.1367 46.8706 91.4426 47.8191 92.5294C56.1191 102.736 64.3691 112.993 72.5691 123.299C73.4746 124.525 74.6708 125.506 76.05 126.153C77.4291 126.801 78.9478 127.095 80.4691 127.009C86.9691 126.929 93.4691 127.009 99.9791 127.009C106.729 127.009 113.469 127.009 120.209 127.009C121.493 127.084 122.777 126.851 123.953 126.329C125.129 125.808 126.163 125.012 126.969 124.009C135.549 113.289 144.139 102.583 152.739 91.8894C153.505 90.991 154.039 89.9194 154.297 88.7676C154.555 87.6158 154.528 86.4185 154.219 85.2794ZM139.799 85.0894C139.329 87.0894 137.599 86.9194 136.059 86.4894C134.519 86.0594 133.199 85.4894 131.739 85.0094C129.349 84.2994 128.229 84.8594 127.289 87.1294C125.186 92.4756 121.493 97.0479 116.709 100.229C114.859 101.449 114.829 102.839 115.649 104.459C116.469 106.079 117.439 107.309 118.289 108.759C119.399 110.629 119.149 112.349 117.609 112.849C115.699 113.479 114.849 112.179 114.219 110.669C113.309 108.499 113.359 105.809 111.089 104.369C108.819 102.929 106.729 104.939 104.529 105.159C100.224 105.753 95.8409 105.412 91.6791 104.159C89.4991 103.429 88.3291 104.339 87.5191 106.039C86.8291 107.479 86.4291 109.039 85.8691 110.549C85.3091 112.059 84.3691 113.739 82.3991 112.849C80.4291 111.959 80.9591 110.309 81.8091 108.749C82.9291 106.689 85.0691 105.049 84.7391 102.359C84.4091 99.6694 81.6091 99.2594 80.0691 97.6794C76.9088 94.6812 74.4295 91.0391 72.7991 86.9994C71.9891 84.8094 70.5391 84.5094 68.6891 84.9994C67.1391 85.3794 65.6891 86.0594 64.1391 86.5394C62.0791 87.1894 60.3691 86.5394 60.2091 85.0694C59.9991 83.0694 61.3691 82.5294 63.0291 82.1994C65.3291 81.7294 68.0291 82.4894 69.8791 80.5294C71.7291 78.5694 70.3791 75.9894 70.6291 73.7194C70.9781 69.4651 72.262 65.3403 74.3891 61.6394C75.6491 59.5694 74.9591 58.2194 73.3891 56.9894C72.3891 56.2094 71.2291 55.5994 70.1391 54.9194C69.0491 54.2394 67.5591 53.4494 67.6291 51.7094C67.6369 51.2588 67.8021 50.8251 68.0962 50.4835C68.3903 50.142 68.7946 49.9141 69.2391 49.8394C70.9391 49.4494 71.8791 50.6794 72.8991 51.6794C73.9191 52.6794 74.6391 53.5794 75.6391 54.3794C77.1291 55.5594 78.5191 55.9494 80.2191 54.3094C84.1879 50.5041 89.2144 47.9873 94.6391 47.0894C97.9491 46.4894 98.4291 45.8594 98.2491 41.8994C98.1491 41.2394 97.8991 39.9694 97.7991 38.6994C97.6591 36.9794 97.8991 35.2194 100.079 35.2294C102.259 35.2394 102.369 36.9295 102.249 38.5595C102.129 40.1894 101.859 41.5594 101.759 43.0994C101.609 45.2694 102.389 46.6794 104.759 47.0394C110.367 47.8516 115.586 50.3808 119.699 54.2794C121.499 55.9694 122.999 55.5194 124.519 54.2794C125.809 53.1994 126.889 51.8794 128.129 50.7394C129.369 49.5994 130.689 49.0794 131.899 50.5494C133.109 52.0194 132.229 53.2894 130.979 54.2094C129.729 55.1294 128.089 55.9394 126.739 56.9394C125.059 58.1794 124.299 59.5394 125.629 61.7494C128.594 66.6768 129.905 72.4237 129.369 78.1494C129.199 80.2694 130.239 81.1494 131.899 81.4994C133.559 81.8494 135.389 81.9494 137.129 82.2194C138.869 82.4894 140.259 83.1494 139.799 85.0894Z" fill="#9E22E9"/>
<path d="M76.5395 75.7401C76.6039 72.1 77.4784 68.5199 79.0995 65.2601C79.5995 64.2601 80.0395 63.6201 81.1695 64.6901C83.5595 66.9501 86.0895 69.0601 88.4695 71.3201C90.1395 72.9101 89.8795 74.4601 87.7895 75.1501C84.535 76.2731 81.2238 77.2244 77.8695 78.0001C75.1695 78.5701 77.6295 76.0001 76.5395 75.7401Z" fill="#9E22E9"/>
<path d="M110.28 82.0009C113.88 82.6009 117.42 83.2209 120.97 83.7909C122.11 83.9709 121.97 84.6009 121.6 85.3409C119.963 89.1582 117.34 92.4715 114 94.9409C113.17 95.5609 112.69 95.6409 112.25 94.5409C110.95 91.2809 109.52 88.0709 108.25 84.7909C108.111 84.4713 108.057 84.1207 108.095 83.774C108.133 83.4273 108.261 83.0965 108.466 82.8145C108.671 82.5325 108.947 82.3091 109.265 82.1663C109.583 82.0236 109.933 81.9666 110.28 82.0009Z" fill="#9E22E9"/>
<path d="M97.0019 54.5588C96.8619 57.4988 96.7719 60.4488 96.5719 63.3988C96.3519 66.5088 94.8919 67.2188 92.3819 65.4788C89.8719 63.7388 87.4819 61.9188 85.0019 60.2388C83.7419 59.3988 83.8519 58.8588 85.0019 57.9788C88.0553 55.5081 91.6498 53.7948 95.4919 52.9788C96.7419 52.6788 97.5019 52.9988 97.0019 54.5588Z" fill="#9E22E9"/>
<path d="M99.9115 99.5306C97.7515 99.3106 94.6315 99.8406 93.4515 98.2006C92.2715 96.5606 94.8915 94.4506 95.7415 92.5106C96.3962 91.0533 97.1514 89.6432 98.0015 88.2906C99.2015 86.3606 100.762 86.2906 101.892 88.1406C103.662 91.1406 105.232 94.1406 106.892 97.1406C107.432 98.1406 106.992 98.4106 106.152 98.6306C104.106 99.1347 102.016 99.4361 99.9115 99.5306V99.5306Z" fill="#9E22E9"/>
<path d="M104.137 52.8806C108.27 53.6618 112.129 55.5017 115.337 58.2206C116.137 58.9005 116.227 59.4005 115.277 60.0505C112.517 62.0005 109.837 64.0005 106.997 65.8205C105.147 67.0505 103.677 66.3205 103.507 64.1205C103.247 60.8605 103.157 57.5805 102.937 54.3206C102.897 53.1606 103.247 52.6306 104.137 52.8806Z" fill="#9E22E9"/>
<path d="M89.7598 82.0006C90.1329 81.9479 90.5133 82.0018 90.8571 82.1559C91.201 82.3099 91.4943 82.558 91.7033 82.8716C91.9123 83.1851 92.0285 83.5513 92.0385 83.9279C92.0485 84.3046 91.9519 84.6764 91.7598 85.0006C90.5498 88.2206 89.1398 91.3606 87.8498 94.5506C87.3898 95.7106 86.8498 95.4606 86.0498 94.8806C82.7571 92.4277 80.1588 89.1608 78.5098 85.4006C78.1998 84.7006 77.9098 84.0106 79.0898 83.8206C82.6598 83.2006 86.2098 82.5906 89.7598 82.0006Z" fill="#9E22E9"/>
<path d="M123.419 75.2194C123.489 78.3994 123.489 78.3994 120.419 77.4994C117.879 76.7694 115.319 76.0994 112.809 75.2994C110.299 74.4994 109.809 72.9094 111.749 71.1194C114.089 68.9294 116.559 66.8694 118.889 64.6794C119.889 63.7694 120.299 64.0594 120.819 65.0794C122.454 68.2146 123.343 71.6845 123.419 75.2194V75.2194Z" fill="#9E22E9"/>
<path d="M103.898 75.9997C103.658 78.2897 101.638 80.2197 99.738 79.9997C98.6668 79.8084 97.7 79.2387 97.0135 78.3944C96.3271 77.5501 95.9667 76.4874 95.998 75.3997C96.148 73.5797 98.628 71.9697 100.858 72.2397C101.7 72.4591 102.45 72.9426 102.997 73.6193C103.544 74.296 103.86 75.1303 103.898 75.9997V75.9997Z" fill="#9E22E9"/>
</svg>
