<svg width="200" height="200" viewBox="0 0 200 200" fill="none" xmlns="http://www.w3.org/2000/svg">
<path d="M36.8932 39.9998C43.3432 39.9998 49.7832 40.0798 56.2332 39.9998C57.3112 39.9135 58.3902 40.1534 59.3301 40.6884C60.2699 41.2235 61.0271 42.0288 61.5032 42.9998C75.2032 66.4598 89.0032 89.8798 102.683 113.36C103.683 115.16 104.613 115.66 106.683 115.12C121.213 111.43 135.773 107.9 150.333 104.38C151.873 104.01 152.123 103.72 151.153 102.38C146.103 95.1598 141.153 87.8798 136.153 80.6098C133.683 77.0098 134.823 74.3598 139.153 73.7198C147.433 72.4898 155.723 71.3098 164.013 70.0998C164.787 69.9488 165.587 70.0296 166.315 70.3321C167.043 70.6345 167.665 71.1451 168.103 71.7998C174.293 80.4398 180.503 89.0698 186.633 97.7998C188.423 100.34 187.283 103.07 184.203 103.8C178.333 105.28 172.453 106.74 166.553 108.11C164.943 108.48 164.653 108.83 165.673 110.28C171.293 118.28 176.823 126.44 182.383 134.53C184.703 137.91 183.953 140.22 180.073 141.53L125.703 159.63C122.833 160.63 121.443 160.07 119.913 157.47C113.713 146.91 107.527 136.34 101.353 125.76C101.266 125.521 101.132 125.303 100.957 125.118C100.783 124.934 100.573 124.787 100.339 124.687C100.106 124.586 99.8549 124.535 99.601 124.535C99.3471 124.536 99.096 124.589 98.8632 124.69C86.8632 127.69 74.8632 130.61 62.8632 133.53C60.2232 134.18 58.9232 133.61 57.6532 131.18C42.8398 102.84 28.0432 74.4898 13.2631 46.1298C11.4631 42.6598 13.1031 39.9998 17.0032 39.9998H36.8932Z" fill="#9E22E9"/>
<path d="M39.1069 47.4796C44.1069 47.4796 48.9969 47.4796 53.9369 47.4796C54.3924 47.438 54.8495 47.54 55.244 47.7713C55.6386 48.0027 55.9508 48.3518 56.1369 48.7696C62.6469 59.8896 69.2269 70.9996 75.7669 82.1396C81.9202 92.5796 88.0302 103.03 94.0969 113.49C96.4369 117.49 96.4069 117.56 91.9269 118.67C82.8569 120.92 73.7769 123.11 64.7169 125.39C64.5037 125.476 64.2749 125.516 64.0451 125.509C63.8153 125.501 63.5895 125.446 63.3824 125.346C63.1753 125.246 62.9913 125.104 62.8422 124.929C62.6932 124.754 62.5824 124.55 62.5169 124.33C57.9869 115.56 53.4069 106.81 48.8469 98.0596C42.5269 85.9329 36.1936 73.7996 29.8469 61.6596C27.7069 57.5596 25.5069 53.4996 23.3669 49.3996C22.3669 47.4996 22.3669 47.4796 24.6269 47.4796H39.1069Z" fill="#9E22E9"/>
<path d="M125.562 151.721C125.022 151.831 124.972 151.101 124.712 150.671C121.025 144.444 117.358 138.211 113.712 131.971C112.192 129.391 110.662 126.817 109.122 124.251C108.452 123.151 108.062 122.471 109.932 122.021C125.132 118.381 140.312 114.654 155.472 110.841C155.86 110.678 156.296 110.67 156.691 110.819C157.085 110.968 157.407 111.262 157.592 111.641C162.732 119.174 167.888 126.684 173.062 134.171C173.702 135.081 174.062 135.621 172.612 136.111C157.278 141.191 141.945 146.301 126.612 151.441L125.562 151.721Z" fill="#9E22E9"/>
<path d="M162.219 77.9104C162.512 77.8533 162.816 77.8857 163.091 78.0034C163.365 78.1211 163.598 78.3186 163.759 78.5704C168.052 84.5704 172.362 90.5937 176.689 96.6404C177.299 97.4804 176.979 97.7904 176.129 98.0004C171.059 99.2604 165.989 100.52 160.929 101.82C159.929 102.08 159.589 101.42 159.169 100.82C155.836 95.9404 152.502 91.057 149.169 86.1704C148.079 84.5704 146.949 83.0104 145.879 81.4004C145.529 80.8704 145.169 80.2904 146.319 80.1404C151.539 79.4204 156.759 78.6504 161.979 77.9104C162.059 77.9007 162.139 77.9007 162.219 77.9104V77.9104Z" fill="#9E22E9"/>
</svg>
