<svg width="200" height="200" viewBox="0 0 200 200" fill="none" xmlns="http://www.w3.org/2000/svg">
<path d="M30.9223 176.439C30.9223 174.069 30.9223 171.689 30.9223 169.319C30.9223 168.759 31.0723 168.559 31.6423 168.579C32.5823 168.579 33.5323 168.579 34.4723 168.579C35.1023 168.579 35.2623 168.799 35.2723 169.369C35.2805 170.288 35.1455 171.202 34.8723 172.079C34.8723 172.269 34.6523 172.549 34.8723 172.649C35.0923 172.749 35.2523 172.419 35.3323 172.219C35.614 171.46 35.9867 170.738 36.4423 170.069C36.949 169.311 37.6872 168.737 38.5467 168.432C39.4063 168.128 40.3413 168.109 41.2123 168.379C42.0212 168.597 42.7411 169.064 43.2704 169.714C43.7997 170.363 44.1117 171.163 44.1623 171.999C44.1623 172.219 44.0723 172.579 44.3923 172.609C44.7123 172.639 44.6923 172.279 44.7923 172.069C44.9723 171.679 45.1123 171.269 45.3123 170.889C45.7475 169.989 46.4532 169.248 47.3308 168.769C48.2083 168.29 49.2136 168.098 50.2058 168.219C51.1981 168.341 52.1275 168.769 52.8639 169.445C53.6003 170.121 54.1068 171.011 54.3123 171.989C54.5403 172.878 54.6546 173.792 54.6523 174.709C54.6523 177.649 54.6523 180.589 54.6523 183.529C54.6523 184.189 54.4423 184.339 53.8323 184.319C52.4523 184.319 51.0723 184.269 49.7023 184.319C49.0723 184.319 48.9523 184.119 48.9523 183.539C48.9523 180.949 48.9523 178.359 48.9523 175.769C48.964 175.258 48.9102 174.747 48.7923 174.249C48.6323 173.609 48.3623 173.069 47.6223 172.979C46.8823 172.889 46.4923 173.399 46.2123 173.979C45.843 174.791 45.6619 175.677 45.6823 176.569C45.6823 178.869 45.6823 181.159 45.6823 183.449C45.6823 184.099 45.5423 184.339 44.8423 184.319C43.4423 184.259 42.0423 184.269 40.6423 184.319C40.0423 184.319 39.8523 184.189 39.8623 183.569C39.8623 180.839 39.8623 178.119 39.8623 175.399C39.8908 174.858 39.8091 174.317 39.6223 173.809C39.5519 173.597 39.4246 173.408 39.2541 173.263C39.0836 173.118 38.8766 173.023 38.6558 172.988C38.4349 172.953 38.2086 172.979 38.0016 173.064C37.7947 173.149 37.6151 173.289 37.4823 173.469C36.8945 174.255 36.5913 175.218 36.6223 176.199C36.6223 178.629 36.6223 181.049 36.6223 183.479C36.6223 184.159 36.4423 184.349 35.7723 184.329C34.3723 184.269 32.9723 184.279 31.5623 184.329C31.0023 184.329 30.8323 184.179 30.8323 183.609C30.9323 181.239 30.9223 178.839 30.9223 176.439Z" fill="#9E22E9"/>
<path d="M128 176.459C128 174.109 128 171.769 128 169.459C128 168.759 128.21 168.579 128.87 168.619C129.756 168.674 130.645 168.674 131.53 168.619C132.17 168.619 132.32 168.869 132.33 169.409C132.351 170.284 132.24 171.157 132 171.999C131.93 172.209 131.75 172.529 132 172.639C132.25 172.749 132.35 172.389 132.43 172.179C132.732 171.4 133.128 170.661 133.61 169.979C134.133 169.23 134.884 168.671 135.751 168.384C136.618 168.098 137.555 168.099 138.42 168.389C139.214 168.628 139.913 169.108 140.421 169.762C140.93 170.416 141.223 171.211 141.26 172.039C141.26 172.259 141.15 172.619 141.48 172.639C141.81 172.659 141.78 172.309 141.88 172.099C142.084 171.6 142.314 171.113 142.57 170.639C142.998 169.786 143.689 169.094 144.541 168.663C145.393 168.233 146.36 168.088 147.3 168.249C148.238 168.33 149.126 168.701 149.843 169.311C150.56 169.92 151.069 170.737 151.3 171.649C151.648 172.871 151.803 174.139 151.76 175.409C151.76 178.139 151.76 180.859 151.76 183.579C151.76 184.189 151.61 184.369 150.99 184.349C149.57 184.349 148.13 184.349 146.71 184.349C146.15 184.349 146.03 184.169 146.03 183.659C146.03 180.989 146.03 178.319 146.03 175.659C146.075 175.035 145.976 174.409 145.74 173.829C145.669 173.607 145.534 173.411 145.352 173.265C145.17 173.119 144.949 173.03 144.717 173.009C144.484 172.988 144.251 173.035 144.045 173.145C143.84 173.256 143.671 173.424 143.56 173.629C143.007 174.503 142.738 175.526 142.79 176.559C142.79 178.899 142.79 181.249 142.79 183.559C142.79 184.159 142.63 184.339 142.02 184.319C140.59 184.319 139.16 184.269 137.73 184.319C137.08 184.319 137 184.079 137 183.519C137 181.009 137 178.519 137 175.989C137.02 175.341 136.96 174.693 136.82 174.059C136.783 173.789 136.66 173.538 136.469 173.344C136.278 173.149 136.03 173.022 135.76 172.979C135.49 172.934 135.213 172.979 134.971 173.108C134.728 173.236 134.535 173.44 134.42 173.689C133.935 174.537 133.696 175.503 133.73 176.479C133.73 178.799 133.73 181.119 133.73 183.479C133.73 184.219 133.51 184.379 132.82 184.359C131.44 184.299 130.06 184.309 128.69 184.359C128.06 184.359 127.93 184.169 127.94 183.579C128 181.209 128 178.839 128 176.459Z" fill="#9E22E9"/>
<path d="M103.552 174C103.552 170.85 103.552 167.69 103.552 164.54C103.552 163.95 103.682 163.73 104.312 163.76C105.492 163.76 106.682 163.76 107.872 163.76C108.422 163.76 108.632 163.94 108.682 164.47C108.916 166.825 108.689 169.202 108.012 171.47C108.012 171.62 107.902 171.77 107.862 171.93C107.822 172.09 107.582 172.52 107.862 172.63C108.142 172.74 108.212 172.31 108.342 172.1C108.622 171.61 108.832 171.1 109.142 170.61C109.695 169.668 110.544 168.935 111.558 168.528C112.571 168.121 113.692 168.062 114.742 168.36C116.982 168.89 117.882 170.55 118.262 172.62C118.482 174.032 118.573 175.461 118.532 176.89C118.532 179.13 118.532 181.37 118.532 183.6C118.532 184.22 118.352 184.38 117.752 184.36C116.322 184.36 114.892 184.36 113.472 184.36C112.902 184.36 112.742 184.21 112.742 183.64C112.742 181.11 112.742 178.58 112.742 176.04C112.767 175.42 112.717 174.798 112.592 174.19C112.553 173.907 112.426 173.644 112.228 173.437C112.031 173.231 111.773 173.092 111.492 173.04C111.198 172.984 110.893 173.022 110.622 173.15C110.351 173.277 110.127 173.487 109.982 173.75C109.547 174.406 109.311 175.173 109.302 175.96C109.302 178.47 109.222 180.96 109.302 183.48C109.302 184.2 109.112 184.4 108.402 184.37C107.052 184.31 105.702 184.31 104.402 184.37C103.692 184.37 103.562 184.15 103.572 183.51C103.572 180.35 103.552 177.2 103.552 174Z" fill="#9E22E9"/>
<path d="M101.719 175.32C100.049 174.31 98.1312 173.784 96.1794 173.8C95.4191 173.806 94.6739 174.013 94.0194 174.4C93.6016 174.628 93.2597 174.974 93.0358 175.394C92.8119 175.814 92.7158 176.291 92.7594 176.765C92.803 177.239 92.9843 177.69 93.2811 178.062C93.5778 178.435 93.977 178.712 94.4294 178.86C96.2482 179.435 98.219 179.285 99.9294 178.44C100.499 178.2 101.029 177.89 101.709 177.54V182.54C101.709 182.77 101.529 182.91 101.349 183.04C99.7993 184.131 97.95 184.717 96.0544 184.717C94.1588 184.717 92.3095 184.131 90.7594 183.04C89.985 182.385 89.3478 181.582 88.8844 180.68C88.421 179.777 88.1407 178.792 88.0594 177.78C87.8894 176.687 87.8894 175.574 88.0594 174.48C88.7594 170.48 91.7794 168.09 96.0594 168.2C97.7947 168.172 99.5108 168.567 101.059 169.35C101.281 169.438 101.469 169.596 101.593 169.8C101.718 170.004 101.773 170.242 101.749 170.48C101.689 172.05 101.719 173.61 101.719 175.32Z" fill="#9E22E9"/>
<path d="M86.4531 174.06C86.4531 177.24 86.4531 180.42 86.4531 183.6C86.4531 184.2 86.3031 184.38 85.6931 184.36C84.2631 184.36 82.8331 184.36 81.4031 184.36C80.9131 184.36 80.7031 184.26 80.7031 183.7C80.7031 177.286 80.7031 170.873 80.7031 164.46C80.7031 163.89 80.9331 163.8 81.4231 163.8C82.8431 163.8 84.2731 163.8 85.7031 163.8C86.3431 163.8 86.4531 164.03 86.4531 164.6C86.4431 167.75 86.4531 170.91 86.4531 174.06Z" fill="#9E22E9"/>
<path d="M73.1397 168.64C74.8538 169.286 76.7362 169.331 78.4797 168.77C78.8397 168.65 78.9097 168.77 78.8997 169.09V170.3C78.8997 174.69 78.8997 179.09 78.8997 183.48C78.8997 184.21 78.6997 184.39 77.9997 184.37C76.5697 184.31 75.1397 184.37 73.7097 184.37C73.3497 184.37 73.1097 184.37 73.1097 183.87C73.1397 178.81 73.1397 173.77 73.1397 168.64Z" fill="#9E22E9"/>
<path d="M120.46 168.69C122.171 169.299 124.036 169.32 125.76 168.75C126.23 168.59 126.09 168.97 126.1 169.15C126.1 170.28 126.1 171.42 126.1 172.55C126.1 176.24 126.1 179.93 126.1 183.63C126.1 184.17 125.99 184.38 125.4 184.36C123.92 184.36 122.4 184.36 120.95 184.36C120.57 184.36 120.36 184.36 120.36 183.85C120.36 178.85 120.36 173.85 120.36 168.85C120.388 168.794 120.421 168.74 120.46 168.69V168.69Z" fill="#9E22E9"/>
<path d="M123 168.241C121.997 168.262 121.022 167.905 120.27 167.241C120.09 167.086 119.946 166.894 119.847 166.678C119.748 166.463 119.697 166.228 119.697 165.991C119.697 165.753 119.748 165.519 119.847 165.303C119.946 165.088 120.09 164.896 120.27 164.741C121.104 164.055 122.15 163.68 123.23 163.68C124.31 163.68 125.356 164.055 126.19 164.741C126.372 164.913 126.515 165.124 126.606 165.358C126.697 165.592 126.736 165.843 126.719 166.093C126.702 166.344 126.629 166.587 126.506 166.807C126.384 167.026 126.214 167.215 126.01 167.361C125.15 168.017 124.078 168.331 123 168.241Z" fill="#9E22E9"/>
<path d="M76.0897 168.229C75.0976 168.285 74.1163 167.999 73.3097 167.419C73.0617 167.263 72.8574 167.047 72.7158 166.791C72.5741 166.535 72.4998 166.247 72.4998 165.954C72.4998 165.661 72.5741 165.373 72.7158 165.117C72.8574 164.861 73.0617 164.645 73.3097 164.489C74.1004 163.948 75.0341 163.655 75.9921 163.646C76.95 163.637 77.889 163.913 78.6897 164.439C78.9438 164.598 79.1533 164.82 79.2986 165.082C79.4438 165.344 79.52 165.639 79.52 165.939C79.52 166.239 79.4438 166.534 79.2986 166.796C79.1533 167.059 78.9438 167.28 78.6897 167.439C77.9366 167.988 77.0205 168.266 76.0897 168.229V168.229Z" fill="#9E22E9"/>
<path d="M157.82 100.779C157.536 99.9007 157.026 99.1123 156.342 98.4928C155.657 97.8733 154.822 97.4444 153.92 97.2492C153.52 97.1792 153.48 96.9192 153.4 96.6392C152.958 94.9411 152.414 93.2714 151.77 91.6392C151.675 91.4513 151.634 91.2413 151.65 91.0317C151.666 90.8221 151.738 90.6208 151.86 90.4492C153.012 88.6662 153.585 86.5705 153.5 84.4492C153.409 82.7153 152.872 81.0341 151.942 79.568C151.012 78.1018 149.72 76.9002 148.19 76.0792C145.264 74.446 142.119 73.2436 138.85 72.5092C138.74 72.4993 138.633 72.4674 138.536 72.4154C138.439 72.3634 138.353 72.2923 138.284 72.2064C138.215 72.1205 138.164 72.0216 138.134 71.9156C138.104 71.8095 138.096 71.6985 138.11 71.5892C138.01 68.1992 138.11 64.7892 137.72 61.4092C137.18 56.2192 135.63 51.4092 131.97 47.5492C131.62 47.1792 131.83 47.0192 132.06 46.7792C133.437 45.3339 134.723 43.8043 135.91 42.1992C138.72 38.3492 141.04 34.2592 141.69 29.4392C142.15 25.9892 141.63 22.7492 139.25 20.0292C137.41 18.0271 134.984 16.6584 132.32 16.1192C127.789 15.1697 123.101 15.2586 118.61 16.3792C114.374 17.3486 110.254 18.7666 106.32 20.6092C106.106 20.7631 105.84 20.8263 105.579 20.7851C105.319 20.7439 105.086 20.6016 104.93 20.3892C103.14 18.5492 101.25 16.8192 99.4697 14.9792C98.2786 13.7381 96.8366 12.7653 95.2398 12.1255C93.643 11.4858 91.9282 11.1938 90.2097 11.2692C88.0512 11.3128 85.9112 11.6767 83.8597 12.3492C78.3727 14.1808 73.2265 16.9076 68.6297 20.4192C58.2657 28.0502 49.2312 37.3382 41.8897 47.9092C38.007 53.2333 34.865 59.0599 32.5497 65.2292C31.081 68.9005 30.4491 72.853 30.6997 76.7992C30.7945 78.3412 31.2057 79.8472 31.9076 81.2235C32.6095 82.5998 33.5872 83.817 34.7797 84.7992C36.0297 85.7992 37.2397 86.9092 38.4897 87.9292C38.6813 88.0423 38.8224 88.2245 38.8837 88.4385C38.9451 88.6524 38.9222 88.8817 38.8197 89.0792C37.6931 92.285 37.3502 95.7138 37.8197 99.0792C39.1097 108.409 47.8897 116.369 57.3697 116.819C57.629 116.8 57.8873 116.868 58.1031 117.013C58.3189 117.158 58.4797 117.372 58.5597 117.619C62.226 125.783 68.1176 132.749 75.5597 137.719C85.2497 144.229 96.0397 147.009 107.84 147.089C110.04 147.029 112.46 146.949 114.84 146.679C123.92 145.679 132.39 142.869 139.84 137.489C150.02 130.149 156.4 120.379 158.21 107.819C158.742 105.482 158.607 103.043 157.82 100.779V100.779ZM67.7197 104.479C66.0097 109.879 61.7897 112.479 56.1997 111.629C49.8797 110.629 43.9697 105.089 42.9597 98.8192C42.1097 93.5992 43.0997 88.7092 47.3297 85.1392C54.0097 79.5092 63.3297 81.2392 66.9797 89.8892C68.0037 92.4923 68.5393 95.2619 68.5597 98.0592C68.6231 100.23 68.3395 102.398 67.7197 104.479V104.479ZM54.1797 72.5592C53.5897 73.9192 53.0597 75.3092 52.5197 76.6892C52.464 76.8629 52.362 77.0181 52.2245 77.1379C52.087 77.2578 51.9194 77.3378 51.7397 77.3692C47.6641 78.2471 44.0382 80.5568 41.5197 83.8792C41.2797 84.1992 41.1197 84.2892 40.7897 83.9792C39.7897 83.0592 38.7897 82.1692 37.7897 81.2792C35.6997 79.4192 35.3697 76.9992 35.4997 74.3992C35.7297 69.9692 37.3097 65.9292 39.2097 61.9992C43.837 52.5938 49.9561 43.9993 57.3297 36.5492C63.0074 30.5451 69.4889 25.3558 76.5897 21.1292C80.0622 18.9847 83.8676 17.4335 87.8497 16.5392C88.9637 16.3292 90.0961 16.232 91.2297 16.2492C92.0547 16.217 92.8767 16.3669 93.6371 16.6884C94.3976 17.0099 95.0779 17.495 95.6297 18.1092C97.1697 19.6625 98.6797 21.2392 100.16 22.8392C100.66 23.3892 100.58 23.5592 99.9797 23.9092C92.0542 28.477 84.5806 33.7875 77.6597 39.7692C67.1897 48.7892 59.6497 59.9392 54.1797 72.5592ZM78.7297 49.6792C78.4797 49.4292 78.8097 49.2492 78.9497 49.0992C83.4301 43.9059 88.7591 39.5102 94.7097 36.0992C94.7975 36.0395 94.8913 35.9892 94.9897 35.9492C95.2297 35.8592 95.4697 35.5292 95.6997 35.7292C95.9297 35.9292 95.6997 36.2192 95.5397 36.4392C95.0783 37.3212 94.6936 38.2413 94.3897 39.1892C94.3197 39.4392 94.1297 39.7592 94.3897 39.9492C94.6497 40.1392 94.8797 39.8492 95.0897 39.7192C99.1883 37.1389 103.797 35.4774 108.6 34.8492C108.76 34.8393 108.92 34.8393 109.08 34.8492C109.26 34.8492 109.49 34.7492 109.6 34.9592C109.71 35.1692 109.45 35.3192 109.3 35.4592C108.75 35.9992 108.18 36.5392 107.64 37.1092C107.47 37.2892 107.18 37.4792 107.32 37.7892C107.46 38.0992 107.75 37.9292 107.98 37.9392C111.866 38.1664 115.671 39.1516 119.18 40.8392L119.61 41.0692C119.77 41.1592 119.98 41.2392 119.9 41.4792C119.82 41.7192 119.59 41.6292 119.41 41.6192C117.141 41.1356 114.842 40.8016 112.53 40.6192C104.868 39.9741 97.1613 41.0927 89.9997 43.8892C86.2037 45.2944 82.6015 47.1762 79.2797 49.4892C79.1097 49.5992 78.9297 49.8792 78.7297 49.6792ZM152.19 112.439C149.336 119.369 144.141 125.077 137.51 128.569C131.214 132.164 124.033 133.915 116.79 133.619C109.69 133.299 103.19 131.239 97.7897 126.389C91.8497 121.009 89.6697 114.139 90.3497 106.309C90.7161 100.692 93.0452 95.3829 96.9297 91.3092C97.1278 91.1506 97.2899 90.9518 97.4052 90.7258C97.5206 90.4998 97.5867 90.2519 97.5989 89.9985C97.6112 89.7451 97.5695 89.4919 97.4766 89.2559C97.3836 89.0198 97.2415 88.8062 97.0597 88.6292C96.1564 87.4525 95.1917 86.3243 94.1697 85.2492C91.5565 82.4938 89.7778 79.0542 89.0397 75.3292C87.8397 68.1792 91.7197 61.1292 98.1397 58.7692C100.232 58.1235 102.441 57.9459 104.61 58.2492C107.03 58.4292 109.44 58.7692 111.87 58.7992C115.153 58.8578 118.348 57.7326 120.87 55.6292C121.585 55.0127 122.332 54.4352 123.11 53.8992C125.87 52.1392 129.76 52.2892 131.61 56.3592C132.564 58.816 133.036 61.4337 133 64.0692C133.15 67.0692 133.29 69.9892 133.47 72.9492C133.61 75.4292 134.2 76.1492 136.55 76.8692C138.921 77.4921 141.257 78.2398 143.55 79.1092C144.774 79.5952 145.914 80.2701 146.93 81.1092C147.716 81.7618 148.278 82.6438 148.538 83.6318C148.798 84.6197 148.743 85.6642 148.38 86.6192C147.705 88.4495 146.535 90.0561 145 91.2592C141.328 94.2011 137.115 96.3957 132.6 97.7192C125.753 99.9263 118.546 100.802 111.37 100.299C110.21 100.245 109.055 100.125 107.91 99.9392C103.35 99.0692 100.43 102.589 99.9997 106.209C99.7063 108.005 99.9956 109.848 100.825 111.467C101.655 113.087 102.981 114.398 104.61 115.209C108.279 117.23 112.422 118.235 116.61 118.119C123.898 118.207 131.106 116.59 137.66 113.399C141.004 111.866 144.002 109.668 146.47 106.939C146.925 106.536 147.238 105.995 147.36 105.399C146.44 105.969 145.7 106.399 144.94 106.899C138.257 111.007 130.779 113.652 123 114.659C118.014 115.416 112.921 114.991 108.13 113.419C106.406 112.907 104.916 111.806 103.92 110.309C103.6 109.789 103.11 109.109 103.41 108.619C103.71 108.129 104.41 108.759 104.87 108.889C110.366 110.457 116.159 110.68 121.76 109.539C122.599 109.345 123.427 109.105 124.24 108.819C124.55 108.719 125.03 108.659 124.95 108.189C124.87 107.719 124.39 107.889 124.08 107.919C118.84 108.471 113.545 108.198 108.39 107.109C106.99 106.809 105.62 106.389 104.25 105.979C103.56 105.779 103.58 105.469 103.85 104.979C104.106 104.454 104.511 104.015 105.014 103.716C105.517 103.418 106.096 103.273 106.68 103.299C108.01 103.299 109.3 103.579 110.62 103.669C123.78 104.669 136.13 102.329 147.16 94.6692C148.16 93.9592 148.16 93.9392 148.62 95.1392C149.296 96.9034 149.802 98.7284 150.13 100.589C150.22 101.059 150.35 101.239 150.89 101.249C151.291 101.221 151.693 101.279 152.07 101.42C152.447 101.561 152.789 101.781 153.074 102.065C153.358 102.35 153.578 102.692 153.719 103.069C153.86 103.445 153.918 103.848 153.89 104.249C153.921 107.07 153.341 109.864 152.19 112.439V112.439Z" fill="#9E22E9"/>
<path d="M168.059 170.899C167.54 170.022 166.787 169.307 165.884 168.834C164.982 168.361 163.965 168.148 162.949 168.219C161.985 168.23 161.045 168.518 160.241 169.05C159.437 169.583 158.804 170.336 158.419 171.219C158.259 171.529 158.129 171.859 157.959 172.169C157.789 172.479 157.859 172.749 157.539 172.639C157.219 172.529 157.439 172.199 157.539 171.999C157.834 171.073 157.953 170.1 157.889 169.129C157.889 168.739 157.749 168.559 157.319 168.569C156.269 168.569 155.209 168.569 154.159 168.569C153.669 168.569 153.589 168.769 153.589 169.199C153.589 175.499 153.589 181.806 153.589 188.119C153.589 188.589 153.749 188.709 154.199 188.699C155.549 188.699 156.889 188.699 158.199 188.699C159.509 188.699 159.279 188.899 159.279 187.639C159.279 185.989 159.279 184.329 159.279 182.639C159.659 182.779 159.759 183.049 159.929 183.239C160.346 183.719 160.865 184.1 161.448 184.355C162.031 184.609 162.663 184.73 163.299 184.709C164.344 184.725 165.371 184.438 166.258 183.885C167.145 183.332 167.853 182.535 168.299 181.589C169.065 180.062 169.44 178.368 169.389 176.659C169.511 174.651 169.049 172.651 168.059 170.899V170.899ZM163.329 179.689C163.212 180.022 163.004 180.315 162.728 180.534C162.452 180.754 162.119 180.891 161.769 180.929C161.415 180.969 161.057 180.902 160.741 180.736C160.425 180.571 160.167 180.314 159.999 179.999C159.485 179.067 159.216 178.019 159.216 176.954C159.216 175.89 159.485 174.842 159.999 173.909C160.161 173.617 160.403 173.376 160.697 173.217C160.991 173.058 161.324 172.986 161.658 173.01C161.991 173.034 162.311 173.153 162.578 173.353C162.846 173.554 163.051 173.826 163.169 174.139C163.556 175.122 163.729 176.175 163.679 177.229C163.691 178.063 163.573 178.893 163.329 179.689V179.689Z" fill="#9E22E9"/>
<path d="M71.323 179.291C71.3639 177.623 71.3172 175.954 71.183 174.291C70.753 171.021 69.183 168.951 66.393 168.411C63.2838 167.907 60.0952 168.328 57.223 169.621C57.0976 169.669 56.9926 169.759 56.9253 169.876C56.858 169.992 56.8325 170.128 56.853 170.261C56.853 171.501 56.853 172.741 56.853 173.981C56.853 174.541 57.073 174.451 57.423 174.271C58.5207 173.692 59.6773 173.233 60.873 172.901C61.9045 172.564 63.0016 172.478 64.073 172.651C64.4313 172.686 64.7684 172.837 65.0335 173.08C65.2987 173.324 65.4775 173.647 65.543 174.001C65.653 174.511 65.663 174.761 64.943 174.701C62.8516 174.381 60.7125 174.633 58.753 175.431C57.7743 175.904 56.9763 176.683 56.4801 177.65C55.9839 178.617 55.8164 179.72 56.003 180.791C56.1051 181.709 56.4993 182.57 57.1276 183.247C57.756 183.924 58.5852 184.381 59.493 184.551C60.8625 184.934 62.3273 184.771 63.5788 184.096C64.8304 183.42 65.7712 182.286 66.203 180.931C66.293 180.711 66.303 180.301 66.653 180.391C67.003 180.481 66.813 180.821 66.803 181.051C66.7595 181.938 66.7863 182.828 66.883 183.711C66.933 184.141 67.063 184.391 67.583 184.361C68.6363 184.321 69.6863 184.321 70.733 184.361C71.253 184.361 71.373 184.181 71.363 183.701C71.303 182.331 71.323 181.001 71.323 179.291ZM64.823 179.401C64.5504 179.771 64.2047 180.08 63.8073 180.311C63.4099 180.541 62.9693 180.688 62.513 180.741C61.903 180.811 61.283 180.741 61.043 180.071C60.9216 179.766 60.9202 179.426 61.0389 179.12C61.1576 178.814 61.3877 178.564 61.683 178.421C62.4562 178.041 63.3125 177.862 64.173 177.901C64.623 177.961 65.303 177.771 65.463 178.111C65.623 178.451 65.133 179.001 64.823 179.401Z" fill="#9E22E9"/>
<path d="M128.076 75.3496C126.816 75.8396 126.346 74.9096 125.906 73.8796C125.061 71.9225 124.632 69.8112 124.646 67.6796C124.646 66.2196 125.296 65.3496 126.356 65.2096C126.816 65.144 127.285 65.2306 127.691 65.4563C128.098 65.682 128.419 66.0343 128.606 66.4596C129.289 67.8067 129.736 69.2612 129.926 70.7596C130.131 71.981 130.131 73.2281 129.926 74.4496C129.806 75.2096 129.516 75.5696 128.726 75.3896C128.511 75.3552 128.294 75.3418 128.076 75.3496Z" fill="#9E22E9"/>
<path d="M112.47 78.7492C112.042 78.6159 111.625 78.4522 111.22 78.2592C109.699 77.4632 108.024 77.003 106.309 76.9099C104.594 76.8167 102.879 77.0927 101.28 77.7192C100.72 77.9192 100.15 78.0892 99.5803 78.2392C99.2603 78.3192 98.9103 78.3892 98.6803 78.0792C98.4503 77.7692 98.6303 77.3992 98.8303 77.0792C99.0651 76.7494 99.3369 76.4474 99.6403 76.1792C101.376 74.6682 103.607 73.8501 105.908 73.8815C108.208 73.9128 110.417 74.7915 112.11 76.3492C112.613 76.797 112.995 77.3645 113.22 77.9992C113.4 78.5192 113.14 78.8192 112.47 78.7492Z" fill="#9E22E9"/>
<path d="M109.381 81.6297C108.013 81.647 106.658 81.9077 105.381 82.3997C105.058 82.5292 104.723 82.6263 104.381 82.6897C103.811 82.7697 103.641 82.4597 103.811 81.9597C103.942 81.6032 104.166 81.2887 104.461 81.0497C105.455 80.1972 106.686 79.6685 107.989 79.5345C109.292 79.4005 110.604 79.6674 111.751 80.2997C112 80.4621 112.228 80.6534 112.431 80.8697C112.542 80.9483 112.622 81.0636 112.657 81.1952C112.692 81.3268 112.679 81.4665 112.621 81.5897C112.557 81.6947 112.462 81.7772 112.349 81.8256C112.236 81.874 112.111 81.8859 111.991 81.8597L109.381 81.6297Z" fill="#9E22E9"/>
<path d="M121.6 81.73C122.114 81.7371 122.619 81.8725 123.067 82.124C123.516 82.3755 123.895 82.735 124.17 83.17C124.336 83.3898 124.439 83.6516 124.465 83.9262C124.492 84.2008 124.442 84.4774 124.321 84.7252C124.199 84.973 124.012 85.1822 123.778 85.3296C123.545 85.477 123.276 85.5567 123 85.56C122.433 85.6066 121.864 85.5005 121.352 85.2525C120.84 85.0045 120.404 84.6237 120.09 84.15C119.932 83.9126 119.84 83.6378 119.822 83.3534C119.805 83.069 119.863 82.7849 119.99 82.53C120.157 82.2595 120.396 82.0412 120.68 81.8998C120.965 81.7584 121.283 81.6995 121.6 81.73V81.73Z" fill="#9E22E9"/>
<path d="M130.769 80.9994C130.769 82.3594 129.979 83.4094 128.989 83.3994C127.999 83.3894 127.169 82.2294 127.239 80.8794C127.309 79.5294 128.109 78.5394 129.049 78.5494C129.989 78.5594 130.779 79.5794 130.769 80.9994Z" fill="#9E22E9"/>
<path d="M57.3766 99.9998C57.4189 98.8127 57.6554 97.6405 58.0766 96.5298C58.2802 96.0628 58.3878 95.5595 58.393 95.05C58.3982 94.5405 58.3009 94.0351 58.1068 93.564C57.9128 93.0929 57.626 92.6656 57.2634 92.3075C56.9009 91.9495 56.4701 91.668 55.9966 91.4798C55.5101 91.2887 54.9902 91.1972 54.4678 91.2109C53.9453 91.2246 53.4309 91.3432 52.9552 91.5596C52.4794 91.7761 52.052 92.0859 51.6984 92.4707C51.3448 92.8556 51.0721 93.3075 50.8966 93.7998C50.6166 94.4398 50.4166 95.1098 50.1366 95.7998C50.0721 96.025 49.9307 96.2204 49.737 96.3519C49.5433 96.4835 49.3096 96.5429 49.0766 96.5198C48.5466 96.4398 48.4566 95.9598 48.3866 95.5198C47.7566 91.8598 50.8366 87.6498 54.4466 87.2198C55.4989 87.0832 56.5688 87.2031 57.5648 87.5693C58.5608 87.9355 59.4535 88.5372 60.1666 89.3231C60.8798 90.109 61.3923 91.0557 61.6605 92.0824C61.9286 93.1092 61.9444 94.1856 61.7066 95.2198C61.4462 96.2924 61.0742 97.3348 60.5966 98.3298C60.2614 98.9775 60.0542 99.6837 59.9866 100.41C59.9518 100.701 59.985 100.996 60.0837 101.271C60.1824 101.547 60.3438 101.796 60.5552 101.999C60.7666 102.201 61.0222 102.352 61.3018 102.439C61.5815 102.526 61.8775 102.547 62.1666 102.5C62.4566 102.5 62.7466 102.4 63.0366 102.36C63.3266 102.32 63.6966 102.27 63.9066 102.6C64.1166 102.93 63.9566 103.27 63.7466 103.6C63.3319 104.061 62.7976 104.399 62.2028 104.576C61.6079 104.752 60.9759 104.761 60.3766 104.6C58.4966 104.1 57.3766 102.39 57.3766 99.9998Z" fill="#9E22E9"/>
</svg>
