<svg width="200" height="200" viewBox="0 0 200 200" fill="none" xmlns="http://www.w3.org/2000/svg">
<path d="M38.5685 119.65C37.8441 118.384 37.4231 116.967 37.3385 115.51C38.4585 116.68 38.5385 118.16 38.5685 119.65Z" fill="#9E22E9"/>
<path d="M82.6174 162.141C81.9468 162.217 81.2676 162.149 80.6258 161.94C79.984 161.732 79.3945 161.387 78.8973 160.931C80.2184 161.02 81.4966 161.436 82.6174 162.141Z" fill="#9E22E9"/>
<path d="M180.693 87.0003C176.273 62.3203 163.493 43.0003 142.073 29.8503C124.353 19.0003 105.003 15.8703 84.6528 19.5303C69.7052 22.175 55.8454 29.098 44.7528 39.4603C29.1928 53.8103 20.2028 71.6003 18.3628 92.6703C16.4928 114.14 22.1728 133.67 35.5928 150.67C47.9861 166.704 66.0025 177.436 86.0028 180.7C98.8476 182.985 112.056 182.103 124.483 178.13C137.992 173.89 150.169 166.217 159.823 155.86C160.623 155.02 160.643 154.49 159.653 153.71C157.113 151.71 154.653 149.56 152.193 147.5C150.683 146.25 149.193 144.19 147.593 144.09C145.793 143.98 144.713 146.62 143.093 147.81C143.035 147.855 142.981 147.905 142.933 147.96C134.886 155.219 125.135 160.326 114.585 162.805C104.036 165.284 93.0303 165.056 82.5928 162.14C81.3828 161.64 80.0128 161.63 78.8728 160.93C58.8728 153.597 45.4294 139.837 38.5428 119.65C38.1428 118.27 37.8328 116.86 37.3128 115.51C37.2028 114.92 37.1228 114.32 36.9928 113.73C33.4544 98.8768 35.5944 83.2372 42.9928 69.8803C53.5028 50.5403 69.8228 39.0803 91.7328 36.1503C106.6 33.9692 121.75 37.3366 134.293 45.6103C149.353 55.4003 158.733 69.2603 162.753 86.7003C164.263 93.2603 165.123 99.9503 163.603 106.7C162.503 111.55 158.663 114.25 154.203 113.49C149.983 112.77 147.523 109.31 147.973 104.7C148.925 95.0003 146.92 85.2393 142.223 76.6994C137.525 68.1595 130.355 61.2402 121.653 56.8503C101.303 46.3503 75.3228 52.3403 61.4928 70.6303C46.0928 91.0003 48.8728 119.81 68.2728 136.37C83.0028 149 99.9428 151.53 118.003 144.73C126.867 141.323 134.449 135.238 139.693 127.32C140.243 126.52 140.603 125.48 141.763 126.93C146.613 133.03 153.283 134.19 160.353 132.82C170.183 130.9 176.353 124.5 179.543 115.23C182.733 105.96 182.373 96.4103 180.693 87.0003ZM99.8628 131.2C93.7001 131.196 87.6768 129.366 82.5542 125.94C77.4316 122.513 73.4396 117.646 71.0826 111.952C68.7256 106.257 68.1094 99.9923 69.3119 93.9481C70.5145 87.9038 73.4817 82.3517 77.8387 77.9933C82.1957 73.6349 87.7469 70.6659 93.7908 69.4614C99.8346 68.2569 106.1 68.8711 111.795 71.2263C117.49 73.5814 122.359 77.5719 125.786 82.6934C129.214 87.8149 131.047 93.8376 131.053 100C131.034 108.269 127.743 116.193 121.898 122.042C116.054 127.89 108.131 131.187 99.8628 131.21V131.2Z" fill="#9E22E9"/>
<path d="M113.943 99.7203C114.007 102.499 113.246 105.234 111.756 107.58C110.266 109.926 108.113 111.778 105.571 112.9C103.028 114.023 100.209 114.366 97.4718 113.886C94.7341 113.406 92.2002 112.125 90.1907 110.205C88.1811 108.285 86.7861 105.813 86.1822 103.1C85.5783 100.387 85.7926 97.5555 86.7981 94.9643C87.8035 92.3732 89.5548 90.1384 91.8305 88.5428C94.1062 86.9472 96.8041 86.0624 99.5828 86.0003C101.428 85.9525 103.264 86.27 104.987 86.9347C106.709 87.5993 108.282 88.598 109.617 89.8731C110.951 91.1483 112.021 92.6747 112.763 94.3647C113.506 96.0547 113.906 97.8748 113.943 99.7203V99.7203Z" fill="#9E22E9"/>
</svg>
