<svg width="200" height="200" viewBox="0 0 200 200" fill="none" xmlns="http://www.w3.org/2000/svg">
<path d="M46.4102 102.509C44.3861 103.006 42.2499 102.739 40.4102 101.759C39.6702 101.329 39.6703 100.989 40.1803 100.399C42.0103 98.2791 44.5203 97.7191 47.1103 97.3091C50.8702 96.7191 54.7102 96.9091 58.4602 96.1291C60.4286 95.8219 62.2116 94.7914 63.4602 93.2391C64.4115 92.1866 65.3029 91.0815 66.1302 89.9291C70.3802 82.9291 76.8302 78.7391 84.2002 75.6191C89.8002 73.2591 95.7602 72.1991 101.54 70.4991C105.728 69.2905 109.8 67.7144 113.71 65.7891C120.14 62.6091 124.28 57.2491 127.87 51.2991C130.33 47.2191 132.57 42.9991 135.56 39.2391C137.152 37.1648 139.182 35.4673 141.505 34.2677C143.828 33.0681 146.387 32.3959 149 32.2991C151.439 32.2192 153.867 31.9383 156.26 31.4591C157.691 31.1192 159.072 30.5983 160.37 29.9091C162.75 28.6591 164.74 29.8191 164.77 32.4891C164.845 33.9691 164.604 35.4481 164.063 36.8275C163.521 38.207 162.692 39.4552 161.63 40.4891C160.193 41.9976 158.605 43.3547 156.89 44.5391C152.61 47.2591 150.44 51.2491 149.55 56.1291C148.184 64.5442 146.069 72.8205 143.23 80.8591C141.811 84.6298 141.584 88.7453 142.58 92.6491C143.11 94.9091 143.98 97.0291 146.04 98.3591C146.68 98.7791 146.34 99.0791 146.04 99.4191C145.152 100.418 143.942 101.072 142.62 101.269C137.62 102.129 133.11 101.269 129.44 97.5391C128.82 96.9191 128.59 97.1791 128.19 97.6591C126.371 99.9784 124.425 102.195 122.36 104.299C117.76 108.769 112.15 111.179 105.97 112.449C105.72 112.5 105.466 112.527 105.21 112.529C104.45 112.529 103.54 112.639 103.11 111.939C102.68 111.239 103.52 110.669 103.89 110.139C106.029 107.302 108.003 104.344 109.8 101.279C110.08 100.759 110.6 100.199 109.4 100.109C103.01 99.6191 96.7302 98.3191 90.4002 97.4891C82.4802 96.4891 75.0903 97.4891 68.1603 101.759C64.0303 104.299 59.7102 106.589 54.8502 107.569C50.9647 108.382 46.9737 108.564 43.0302 108.109C41.7402 107.959 41.5203 107.419 42.2703 106.339C42.8357 105.624 43.5107 105.003 44.2703 104.499C45.1275 104.01 45.8599 103.329 46.4102 102.509V102.509Z" fill="#8020BA"/>
<path d="M36.6321 143L48.6321 118.66L49.0721 118.78C49.5821 122.26 50.0721 125.78 50.6121 129.24C51.4621 135.24 52.3121 141.24 53.1221 147.19C53.1221 147.61 53.8821 148.59 52.6721 148.49C51.8121 148.41 50.4321 149.35 50.1821 147.49C49.5521 142.66 48.8821 137.83 48.1821 133.01C47.9521 131.3 47.7221 129.59 47.4721 127.81C46.8121 128.09 46.7321 128.81 46.4721 129.26C43.4721 135.26 40.4721 141.34 37.4721 147.39C37.2621 147.81 37.2021 148.46 36.5721 148.49C35.9421 148.52 35.7921 147.78 35.5721 147.32C32.5387 141.253 29.5154 135.173 26.5021 129.08C26.2621 128.59 25.9921 128.08 25.5821 127.33C25.0421 131.26 24.5821 134.87 24.0521 138.48C23.6421 141.55 23.2721 144.63 22.8121 147.69C22.5721 149.25 21.2821 148.36 20.4821 148.49C19.4821 148.65 19.8521 147.83 19.9221 147.36C21.2021 138.26 22.4887 129.167 23.7821 120.08C23.8076 119.513 24.0224 118.971 24.3921 118.54L36.6321 143Z" fill="#9E22E9"/>
<path d="M86.7324 129.36C87.4024 128.51 87.8224 127.94 88.2724 127.36C88.8336 126.696 89.5837 126.217 90.4231 125.989C91.2625 125.76 92.1516 125.792 92.9724 126.08C93.9024 126.32 94.3124 126.66 93.5824 127.61C93.0124 128.35 92.8124 129.26 91.4124 128.76C90.4124 128.41 89.5224 129.3 88.8724 130.11C87.7456 131.625 87.0852 133.436 86.9724 135.32C86.6974 139.221 86.6274 143.133 86.7624 147.04C86.7624 148.14 86.5424 148.57 85.3524 148.5C84.3524 148.44 83.7224 148.42 83.7424 147.07C83.8224 140.67 83.8224 134.27 83.7424 127.87C83.7424 126.66 84.0824 126.36 85.2724 126.34C86.4624 126.32 86.9124 126.72 86.7424 127.89C86.7096 128.38 86.7062 128.871 86.7324 129.36V129.36Z" fill="#9E22E9"/>
<path d="M19.8972 161.6C19.8972 159.21 19.8972 156.82 19.8972 154.44C19.8972 153.59 20.0172 153.14 21.0372 153.16C23.9772 153.23 26.9272 153.22 29.8772 153.16C30.8772 153.16 30.8772 153.71 30.8772 154.41C30.8772 155.11 30.8772 155.68 29.8772 155.64C27.9472 155.57 26.0172 155.64 24.0872 155.64C23.2172 155.64 22.9772 155.91 22.9472 156.77C22.8372 160.62 22.8172 160.62 26.7072 160.62C27.2672 160.62 27.8272 160.62 28.3872 160.62C29.3872 160.53 29.8472 160.73 29.8572 161.9C29.8672 163.07 29.2172 163.16 28.3272 163.13C27.1072 163.13 25.8772 163.23 24.6672 163.13C23.1972 162.97 22.8472 163.58 22.9472 164.92C23.0472 166.26 22.8872 167.77 22.9972 169.19C23.1072 170.61 22.1872 170.27 21.4272 170.29C20.6672 170.31 19.8272 170.48 19.8872 169.14C19.9972 166.58 19.8972 164.09 19.8972 161.6Z" fill="#9E22E9"/>
<path d="M64.6615 163.83C64.6615 165.51 64.6615 167.18 64.6615 168.83C64.6615 169.28 64.9815 170.01 64.2815 170.12C63.5815 170.23 62.4715 170.6 62.0415 169.89C61.6115 169.18 61.5115 169.42 61.1115 169.7C60.3857 170.176 59.5395 170.436 58.6715 170.45C56.1115 170.58 54.5915 169.45 54.2515 166.88C54.0315 164.045 53.9814 161.2 54.1015 158.36C54.1015 157.02 55.1615 157.61 55.7915 157.53C56.4215 157.45 57.1315 157.3 57.1115 158.41C57.0515 160.79 57.1115 163.18 57.1115 165.57C57.1115 167.37 57.7315 168.08 59.2215 168.06C59.5622 168.104 59.9087 168.07 60.2338 167.959C60.559 167.848 60.8542 167.663 61.0962 167.419C61.3382 167.175 61.5206 166.879 61.629 166.553C61.7375 166.227 61.7692 165.88 61.7215 165.54C61.7215 163.31 61.8015 161.07 61.7215 158.84C61.6615 157.54 62.2915 157.48 63.2815 157.48C64.2715 157.48 64.8115 157.57 64.7415 158.78C64.5915 160.48 64.6615 162.16 64.6615 163.83Z" fill="#9E22E9"/>
<path d="M72.8966 164C72.8966 162.32 72.8966 160.64 72.8966 159C72.8966 158.55 72.5966 157.82 73.3266 157.74C74.0566 157.66 75.1066 157.23 75.5366 158.07C75.8866 158.76 76.0466 158.59 76.4466 158.29C77.3182 157.668 78.3784 157.368 79.4466 157.44C81.7166 157.44 83.1266 158.64 83.2466 160.94C83.3866 163.78 83.2466 166.63 83.3266 169.47C83.3266 170.76 82.3966 170.23 81.8066 170.28C81.2166 170.33 80.4466 170.58 80.4666 169.43C80.4666 167 80.5266 164.55 80.4666 162.12C80.4666 161.22 80.2866 160.23 79.1566 159.95C78.6472 159.778 78.0991 159.756 77.5778 159.887C77.0564 160.018 76.5839 160.297 76.2166 160.69C76.0187 160.918 75.871 161.186 75.7832 161.475C75.6953 161.765 75.6692 162.069 75.7066 162.37C75.7066 164.66 75.6366 166.95 75.7066 169.23C75.7666 170.53 74.9866 170.29 74.2466 170.3C73.5066 170.31 72.7266 170.48 72.8066 169.21C72.9966 167.41 72.8966 165.68 72.8966 164Z" fill="#9E22E9"/>
<path d="M169.317 164C169.317 162.33 169.317 160.65 169.317 159C169.317 158.55 169.017 157.83 169.727 157.73C170.437 157.63 171.567 157.23 171.947 158.03C172.327 158.83 172.597 158.44 172.947 158.18C174.079 157.462 175.445 157.212 176.757 157.48C177.605 157.597 178.376 158.03 178.918 158.692C179.459 159.354 179.731 160.196 179.677 161.05C179.787 163.84 179.677 166.64 179.757 169.43C179.757 170.72 178.837 170.23 178.257 170.26C177.677 170.29 176.867 170.59 176.897 169.43C176.947 167.15 176.897 164.86 176.897 162.57C176.897 160.57 176.267 159.82 174.677 159.8C173.087 159.78 172.117 160.8 172.107 162.63C172.107 164.82 172.027 167.01 172.107 169.19C172.167 170.45 171.437 170.3 170.677 170.28C169.917 170.26 169.127 170.52 169.217 169.22C169.407 167.44 169.317 165.7 169.317 164Z" fill="#9E22E9"/>
<path d="M97.9214 137.431C97.9214 134.181 97.9214 130.931 97.9214 127.691C97.9214 126.491 98.4114 126.391 99.3514 126.421C100.291 126.451 100.951 126.361 100.941 127.711C100.875 134.211 100.875 140.707 100.941 147.201C100.941 148.481 100.401 148.531 99.4014 148.551C98.4014 148.571 97.8814 148.411 97.9114 147.171C98.0014 143.931 97.9214 140.681 97.9214 137.431Z" fill="#9E22E9"/>
<path d="M127.52 164C127.52 163.14 127.52 162.28 127.52 161.42C127.6 160.34 127.52 159.49 126.08 159.65C125.26 159.73 125.44 159.06 125.42 158.59C125.4 158.12 125.35 157.49 126.14 157.59C127.5 157.75 127.65 156.93 127.5 155.92C127.32 154.73 127.86 154.51 128.95 154.49C130.04 154.47 130.52 154.85 130.35 155.96C130.18 157.07 130.47 157.75 131.76 157.58C132.5 157.49 132.71 157.87 132.71 158.58C132.71 159.29 132.56 159.78 131.71 159.67C130.52 159.53 130.26 160.11 130.32 161.19C130.4 162.91 130.32 164.63 130.32 166.36C130.32 167.36 130.62 168.19 131.9 168.06C132.34 168.01 132.78 168.06 132.68 168.64C132.58 169.22 133.1 169.94 132.15 170.32C131.664 170.545 131.13 170.647 130.595 170.617C130.06 170.588 129.541 170.427 129.083 170.149C128.624 169.872 128.241 169.486 127.967 169.026C127.693 168.565 127.536 168.045 127.51 167.51C127.43 166.35 127.51 165.18 127.51 164.01L127.52 164Z" fill="#9E22E9"/>
<path d="M144.002 164C144.002 165.73 143.922 167.46 144.002 169.19C144.082 170.49 143.252 170.26 142.522 170.24C141.792 170.22 140.962 170.58 140.982 169.24C141.052 165.68 141.042 162.13 140.982 158.57C140.982 157.27 141.812 157.57 142.522 157.57C143.232 157.57 144.042 157.47 143.982 158.69C143.942 160.42 144.002 162.2 144.002 164Z" fill="#9E22E9"/>
<path d="M99.4811 122.75C99.1767 122.771 98.8714 122.73 98.5832 122.63C98.295 122.53 98.0297 122.373 97.8031 122.169C97.5765 121.965 97.3932 121.717 97.264 121.441C97.1349 121.165 97.0625 120.865 97.0511 120.561C97.0163 120.242 97.0483 119.919 97.1449 119.614C97.2416 119.308 97.4007 119.026 97.6124 118.785C97.824 118.544 98.0834 118.35 98.3742 118.215C98.6649 118.08 98.9806 118.007 99.3011 118.001C99.9412 117.99 100.56 118.233 101.021 118.677C101.482 119.122 101.748 119.73 101.761 120.371C101.769 120.677 101.716 120.982 101.606 121.268C101.495 121.553 101.329 121.814 101.117 122.036C100.905 122.257 100.651 122.434 100.371 122.557C100.09 122.679 99.7875 122.745 99.4811 122.75V122.75Z" fill="#9E22E9"/>
<path d="M142.531 155.85C141.591 155.79 140.931 155.41 140.941 154.31C140.916 154.108 140.937 153.903 141.002 153.71C141.067 153.517 141.174 153.341 141.316 153.195C141.458 153.05 141.631 152.937 141.822 152.867C142.014 152.797 142.218 152.771 142.421 152.791C143.421 152.791 144.111 153.201 144.151 154.221C144.191 155.24 143.591 155.78 142.531 155.85Z" fill="#9E22E9"/>
<path d="M129.743 86.7998C128.333 89.5998 126.993 92.4298 125.513 95.1798C121.393 102.8 115.323 108 106.743 110C106.499 110.055 106.251 110.095 106.003 110.12C105.82 110.093 105.642 110.043 105.473 109.97C110.783 102.97 114.763 95.5198 115.113 86.4398C113.863 86.9398 113.673 88.0498 113.243 88.9598C112.668 90.4771 111.88 91.9048 110.903 93.1998C110.585 93.5917 110.177 93.9009 109.714 94.1012C109.251 94.3014 108.746 94.3867 108.243 94.3498C104.383 94.2198 100.583 93.4798 96.7426 93.1898C88.8526 92.5998 81.0026 92.5498 73.4826 95.5098C69.3926 97.1198 65.8926 99.8098 62.2226 102.17C56.8383 105.814 50.3738 107.518 43.8926 107C43.5126 107 42.9826 107.2 42.8326 106.68C42.6826 106.16 43.1426 105.99 43.4726 105.75C44.688 105.014 45.8418 104.182 46.9226 103.26C47.3126 102.87 47.8026 102.4 47.5426 101.82C47.2826 101.24 46.6426 101.54 46.1726 101.52C44.8532 101.58 43.5314 101.489 42.2326 101.25C41.8026 101.13 41.2326 101.13 41.0726 100.7C40.9126 100.27 41.5226 99.8298 41.9126 99.5498C43.4115 98.5887 45.1345 98.0339 46.9126 97.9398C49.7826 97.6498 52.6726 97.3598 55.5626 97.3398C59.8226 97.3398 63.0726 95.7098 65.3426 92.0298C66.5908 89.9945 67.981 88.0497 69.5026 86.2098C73.3026 81.6498 78.2826 78.7698 83.7026 76.5298C89.1226 74.2898 94.8526 73.1598 100.453 71.5998C106.923 69.7898 113.283 67.5998 118.653 63.3898C123.073 59.8998 126.123 55.2698 129.003 50.5098C131.303 46.6898 133.433 42.7498 136.413 39.3698C138.225 37.3327 140.454 35.7095 142.949 34.6103C145.444 33.5112 148.146 32.9619 150.873 32.9998C153.303 32.9498 155.763 33.1698 158.063 32.0898C158.373 31.9398 158.623 31.9098 158.783 32.3098C159.363 33.7298 160.583 34.1398 161.953 34.3098C162.953 34.4098 163.033 34.8998 162.803 35.7898C162.108 38.0472 160.706 40.0212 158.803 41.4198C158.241 41.898 157.639 42.3263 157.003 42.6998C151.073 45.9698 147.873 51.2098 145.843 57.4898C144.003 63.1798 142.253 68.8998 140.383 74.5898C138.652 80.3639 135.414 85.5726 131.003 89.6798C130.603 90.0398 130.163 90.7498 129.663 90.4698C129.163 90.1898 129.393 89.3798 129.523 88.7998C129.653 88.2198 129.853 87.5498 130.023 86.9198L129.743 86.7998Z" fill="#9E22E9"/>
<path d="M158.939 133.37C158.609 124.77 153.359 119.46 144.779 118.92C141.579 118.72 138.379 118.76 135.179 118.69C134.129 118.69 133.789 118.97 133.809 120.05C133.859 124.57 133.809 129.05 133.809 133.62V147.19C133.809 147.81 133.609 148.55 134.709 148.52C138.969 148.41 143.249 148.77 147.499 148.22C149.661 148.01 151.728 147.22 153.479 145.933C155.23 144.647 156.602 142.911 157.449 140.91C158.544 138.553 159.055 135.966 158.939 133.37ZM155.819 135.3C155.009 141.69 151.589 144.99 145.169 145.44C142.739 145.61 140.289 145.5 137.859 145.58C136.979 145.58 136.739 145.31 136.749 144.45C136.799 140.85 136.749 137.25 136.749 133.64V122.83C136.749 122.29 136.599 121.7 137.519 121.71C140.919 121.71 144.339 121.64 147.659 122.51C153.159 124 156.569 129.37 155.819 135.3Z" fill="#9E22E9"/>
<path d="M177.517 134.19C176.506 133.374 175.372 132.722 174.157 132.26C174.417 132.03 174.517 131.92 174.637 131.83C175.834 131.035 176.754 129.886 177.266 128.543C177.779 127.2 177.86 125.731 177.497 124.34C176.917 121.34 174.787 119.85 171.957 119.17C169.127 118.49 165.957 118.8 162.957 118.71C162.227 118.71 162.147 119.11 162.147 119.71C162.147 120.93 162.147 122.14 162.147 123.36C162.147 131.28 162.147 139.2 162.147 147.12C162.147 147.68 161.787 148.57 162.927 148.54C166.277 148.45 169.647 148.89 172.927 148.25C174.503 148.05 175.984 147.384 177.181 146.339C178.378 145.293 179.236 143.915 179.647 142.38C180.157 140.959 180.227 139.417 179.847 137.956C179.467 136.495 178.655 135.182 177.517 134.19V134.19ZM166.157 121.71C166.767 121.71 167.377 121.71 168.157 121.71C169.165 121.66 170.175 121.755 171.157 121.99C172.047 122.109 172.868 122.532 173.481 123.189C174.094 123.845 174.46 124.694 174.517 125.59C174.658 126.526 174.493 127.482 174.046 128.317C173.599 129.151 172.894 129.819 172.037 130.22C170.099 131.001 168.012 131.342 165.927 131.22C165.387 131.22 165.237 130.98 165.237 130.48C165.237 127.84 165.237 125.21 165.237 122.57C165.217 121.81 165.547 121.68 166.157 121.71V121.71ZM171.797 145.32C169.88 145.517 167.952 145.583 166.027 145.52C165.277 145.52 165.227 145.15 165.237 144.58C165.237 143.01 165.237 141.44 165.237 139.87C165.237 138.3 165.237 136.72 165.237 135.15C165.237 134.57 165.297 134.15 166.037 134.21C167.962 134.155 169.888 134.255 171.797 134.51C173.161 134.702 174.417 135.357 175.355 136.366C176.293 137.375 176.855 138.676 176.947 140.05C176.997 142.64 174.877 144.77 171.797 145.32Z" fill="#9E22E9"/>
<path d="M78.9983 127.369C78.9983 126.999 79.1383 126.589 78.5183 126.449C76.8583 126.049 76.2183 126.449 76.2083 128.169V130.309C73.8383 127.519 71.2083 125.959 67.7783 125.919C66.1487 125.864 64.5272 126.172 63.0312 126.821C61.5352 127.469 60.202 128.442 59.1283 129.669C57.1432 131.873 56.0614 134.743 56.0985 137.708C56.1355 140.674 57.2888 143.516 59.3283 145.669C63.8783 150.459 69.7083 150.279 76.2183 144.979C76.2183 145.979 76.2183 146.819 76.2183 147.619C76.2183 148.899 77.1283 148.409 77.7183 148.449C78.3083 148.489 79.0383 148.739 79.0383 147.599C78.9983 140.879 79.0483 134.119 78.9983 127.369ZM67.6883 146.569C65.359 146.484 63.1537 145.498 61.5366 143.819C59.9195 142.141 59.0167 139.9 59.0183 137.569C59.0178 135.26 59.9219 133.042 61.537 131.392C63.1521 129.741 65.3495 128.789 67.6583 128.739C68.8171 128.729 69.9659 128.954 71.0356 129.399C72.1054 129.845 73.0739 130.502 73.883 131.332C74.692 132.161 75.3248 133.146 75.7434 134.226C76.1619 135.307 76.3575 136.461 76.3183 137.619C76.3475 138.772 76.1479 139.92 75.731 140.995C75.3141 142.071 74.6882 143.053 73.8895 143.885C73.0908 144.718 72.135 145.383 71.0775 145.844C70.02 146.305 68.8817 146.551 67.7283 146.569H67.6883Z" fill="#9E22E9"/>
<path d="M128.352 127.65C128.352 126.37 127.712 126.44 126.842 126.44C125.972 126.44 125.322 126.44 125.462 127.63C125.513 128.466 125.513 129.304 125.462 130.14C120.002 124.89 113.612 124.55 108.982 129.14C106.771 131.279 105.482 134.196 105.391 137.271C105.299 140.345 106.412 143.334 108.492 145.6C113.262 150.6 119.392 150.48 125.492 145.04C125.538 145.823 125.538 146.608 125.492 147.39C125.342 148.57 126.042 148.56 126.872 148.56C127.702 148.56 128.392 148.61 128.382 147.34C128.302 140.767 128.292 134.204 128.352 127.65ZM117.002 146.57C114.666 146.51 112.448 145.531 110.828 143.847C109.209 142.162 108.319 139.907 108.352 137.57C108.416 135.87 108.98 134.227 109.972 132.845C110.964 131.462 112.341 130.403 113.931 129.797C115.521 129.192 117.254 129.068 118.914 129.441C120.574 129.813 122.087 130.666 123.266 131.892C124.445 133.119 125.237 134.665 125.544 136.339C125.85 138.012 125.657 139.739 124.989 141.304C124.322 142.868 123.208 144.202 121.788 145.138C120.367 146.075 118.703 146.573 117.002 146.57V146.57Z" fill="#9E22E9"/>
<path d="M100.879 168.79C100.879 163.66 100.879 158.53 100.879 153.41C100.879 152.12 100.229 152.2 99.3686 152.21C98.5086 152.22 97.7586 152.06 97.8486 153.38C97.9686 154.98 97.8486 156.59 97.8486 158.38L97.1586 158.03C96.5222 157.625 95.7982 157.379 95.0471 157.311C94.2961 157.243 93.5396 157.355 92.8409 157.639C92.1422 157.923 91.5215 158.37 91.0305 158.942C90.5396 159.515 90.1926 160.196 90.0186 160.93C89.5624 162.447 89.4732 164.051 89.7586 165.61C90.4686 169.9 93.3886 171.42 97.3686 169.61C97.8286 169.4 97.8586 169.51 98.1186 169.86C98.6986 170.64 99.6186 170.26 100.359 170.19C101.099 170.12 100.869 169.27 100.879 168.79ZM96.0586 168C95.4618 168.196 94.8114 168.149 94.2494 167.868C93.6874 167.587 93.2593 167.095 93.0586 166.5C92.6939 165.66 92.5116 164.753 92.5237 163.837C92.5357 162.922 92.7419 162.02 93.1286 161.19C93.3464 160.641 93.762 160.194 94.2933 159.937C94.8246 159.679 95.433 159.631 95.9986 159.8C96.2907 159.828 96.5738 159.917 96.83 160.06C97.0862 160.204 97.3101 160.398 97.4876 160.632C97.6651 160.866 97.7923 161.134 97.8613 161.419C97.9303 161.704 97.9396 162.001 97.8886 162.29C97.8886 162.84 97.8886 163.4 97.8886 163.96C97.8886 164.52 97.8886 164.96 97.8886 165.48C97.9369 165.766 97.9277 166.059 97.8615 166.341C97.7953 166.623 97.6735 166.89 97.503 167.124C97.3326 167.359 97.1171 167.557 96.869 167.708C96.621 167.858 96.3455 167.957 96.0586 168V168Z" fill="#9E22E9"/>
<path d="M118.45 161.48C118.454 160.479 118.089 159.511 117.425 158.762C116.761 158.014 115.844 157.536 114.85 157.42C111.93 156.97 109.19 158.15 108.49 160.16C108.417 160.349 108.373 160.548 108.36 160.75C108.36 161.02 108.36 161.34 108.73 161.29C109.67 161.14 110.83 161.93 111.5 160.49C111.742 160.091 112.112 159.786 112.549 159.623C112.986 159.459 113.465 159.448 113.91 159.59C114.288 159.65 114.64 159.823 114.92 160.084C115.2 160.346 115.395 160.686 115.48 161.06C115.76 161.99 115.66 162.52 114.48 162.49C113.006 162.348 111.519 162.582 110.16 163.17C109.436 163.497 108.837 164.05 108.453 164.746C108.069 165.441 107.921 166.243 108.03 167.03C108.107 167.768 108.402 168.466 108.878 169.036C109.353 169.606 109.988 170.022 110.7 170.23C111.375 170.458 112.09 170.54 112.799 170.469C113.508 170.398 114.194 170.177 114.81 169.82C115.06 169.68 115.35 169.1 115.66 169.56C116.54 170.93 117.78 169.89 118.91 170.25C118.12 167.26 118.59 164.35 118.45 161.48ZM115.62 165.64C115.631 165.983 115.568 166.324 115.435 166.64C115.302 166.957 115.103 167.241 114.85 167.473C114.598 167.706 114.298 167.881 113.972 167.988C113.646 168.094 113.301 168.129 112.96 168.09C111.72 168.09 110.96 167.4 110.96 166.32C110.96 165 112.06 164.37 114.2 164.38C115.63 164.39 115.63 164.39 115.62 165.64Z" fill="#9E22E9"/>
<path d="M41.4025 157.349C38.2525 157.569 36.0825 160.059 36.0325 163.849C35.9985 164.826 36.1513 165.8 36.4825 166.719C36.8364 167.779 37.5041 168.706 38.3971 169.378C39.2901 170.049 40.3661 170.434 41.4825 170.479C42.6507 170.624 43.8344 170.387 44.8565 169.803C45.8786 169.219 46.6841 168.319 47.1525 167.239C49.0025 163.139 47.3925 156.929 41.4025 157.349ZM44.7825 165.539C44.3625 167.329 43.2825 168.219 41.7225 168.109C41.0108 168.026 40.3524 167.691 39.8663 167.165C39.3803 166.638 39.0987 165.955 39.0725 165.239C38.9179 164.243 38.9416 163.227 39.1425 162.239C39.2178 161.576 39.5268 160.961 40.0142 160.505C40.5016 160.049 41.1356 159.781 41.8025 159.749C42.4953 159.701 43.1809 159.915 43.7236 160.348C44.2663 160.782 44.6263 161.403 44.7325 162.089C44.8528 162.697 44.9297 163.311 44.9625 163.929C44.9396 164.47 44.8795 165.008 44.7825 165.539V165.539Z" fill="#9E22E9"/>
<path d="M162.799 162.001C162.129 159.191 160.259 157.521 157.659 157.401C153.659 157.221 151.259 159.571 151.239 163.751C151.219 167.931 153.319 170.421 156.829 170.511C161.229 170.591 163.929 166.731 162.799 162.001ZM159.889 165.641C159.817 166.305 159.51 166.922 159.025 167.382C158.54 167.842 157.907 168.114 157.239 168.151C155.789 168.231 154.799 167.411 154.309 165.801C154.149 165.249 154.084 164.674 154.119 164.101C154.079 163.406 154.157 162.709 154.349 162.041C154.448 161.38 154.79 160.78 155.308 160.358C155.826 159.937 156.482 159.723 157.149 159.761C157.812 159.791 158.444 160.047 158.942 160.485C159.44 160.923 159.774 161.517 159.889 162.171C160.169 163.3 160.169 164.481 159.889 165.611V165.641Z" fill="#9E22E9"/>
<path d="M145.798 40.5706C145.268 40.5706 144.218 40.5706 143.798 39.7406C143.378 38.9106 144.198 38.0506 144.798 37.4006C145.958 36.2406 147.478 36.1306 149.008 36.0806C149.608 36.0806 149.738 36.3906 149.788 36.9306C150.068 38.9406 148.428 40.5506 145.798 40.5706Z" fill="#1A1B20"/>
<path d="M158.384 34.1606C159.084 34.3606 159.684 34.7006 159.244 35.5206C158.257 37.2393 157.721 39.1792 157.684 41.1606C157.684 41.3406 157.624 41.5706 157.364 41.6006C157.004 40.0906 157.004 40.0006 158.004 36.5506C157.329 37.2211 156.845 38.0601 156.604 38.9806C156.254 39.8506 156.524 40.8806 155.684 41.9106C155.666 39.8586 156.231 37.8437 157.314 36.1006C157.604 35.5806 158.084 35.1006 158.074 34.4906C158.085 34.4102 158.121 34.3351 158.176 34.276C158.232 34.2168 158.304 34.1765 158.384 34.1606V34.1606Z" fill="#1A1B20"/>
<path d="M157.793 33.539C155.447 35.7173 153.601 38.3785 152.383 41.339C152.275 41.0563 152.239 40.7515 152.277 40.4515C152.316 40.1515 152.427 39.8655 152.603 39.619C153.732 37.3057 155.217 35.1834 157.003 33.329C157.253 33.049 157.903 32.179 157.743 33.559L157.793 33.539Z" fill="#1A1B20"/>
<path d="M158.383 34.159L158.053 34.4891C156.081 36.4444 154.722 38.9327 154.143 41.6491C153.823 40.4591 153.833 40.469 154.023 39.869C154.729 38.0216 155.744 36.3073 157.023 34.799C157.323 34.409 157.753 34.0891 157.813 33.5391C158.213 33.5191 158.423 33.719 158.383 34.159Z" fill="#1A1B20"/>
</svg>
