<svg width="200" height="200" viewBox="0 0 200 200" fill="none" xmlns="http://www.w3.org/2000/svg">
<path d="M21.113 117.52C16.5161 114.156 13.2122 109.316 11.753 103.81C11.593 103.24 11.753 102.53 11.093 102.13V94.1299C11.953 93.1299 11.773 91.8799 12.093 90.7499C13.4237 85.505 16.3144 80.7873 20.383 77.2199C21.1289 76.6295 21.6909 75.8386 22.003 74.9399C22.1826 75.0662 22.3309 75.2319 22.4366 75.4243C22.5423 75.6167 22.6027 75.8307 22.613 76.0499C22.553 76.8199 23.043 77.5399 22.853 78.3299C22.629 79.4951 22.6769 80.6963 22.993 81.8399C23.178 82.9489 23.178 84.0809 22.993 85.1899C22.648 89.6199 22.648 94.07 22.993 98.4999C23.373 100.8 23.843 103.1 23.063 105.41C22.7042 106.458 22.6624 107.588 22.943 108.66C23.0179 109.023 23.0179 109.397 22.943 109.76C22.723 110.76 22.633 111.76 22.443 112.7C22.443 113.17 22.443 113.7 22.443 114.12C22.103 115.31 22.593 116.77 21.113 117.52Z" fill="#9E22E9"/>
<path d="M22.5518 109.79V108.73C22.3017 107.708 22.3017 106.641 22.5518 105.62C23.1518 103.29 22.7818 100.97 22.5518 98.6197C22.2868 94.1102 22.2868 89.5891 22.5518 85.0797V81.6097C22.2816 80.4688 22.2816 79.2806 22.5518 78.1397C22.5518 77.4397 21.7618 76.7397 22.5518 76.0497C23.5518 77.8297 25.1418 79.1397 26.3918 80.7297C32.3918 88.3097 34.9418 96.7297 31.9618 106.21C30.5962 110.555 27.899 114.361 24.2518 117.09C23.0518 117.47 22.8618 116.46 22.4618 115.77C22.2186 115.185 22.1324 114.548 22.2118 113.92C22.2118 113.43 22.2118 112.92 22.2118 112.44C22.5318 111.58 22.2218 110.65 22.5518 109.79Z" fill="#8020BA"/>
<path d="M45.4789 101.28V103.47C46.4789 102.9 47.3289 102.36 48.2189 101.93C50.7089 100.71 52.2189 100.93 54.0889 102.99C54.6389 103.6 54.9589 103.51 55.4889 103.1C55.9031 102.787 56.3411 102.506 56.7989 102.26C61.0189 99.9105 64.5089 101.87 64.6389 106.691C64.6389 108.691 64.6389 110.75 64.6389 112.771C64.6389 113.961 64.9289 114.641 66.1689 114.771C66.5589 114.821 67.1689 114.771 67.0789 115.521C66.9889 116.271 66.4689 116.081 66.0189 116.081H60.6089C60.2289 116.081 59.7489 116.251 59.6089 115.681C59.5727 115.584 59.561 115.479 59.5747 115.377C59.5883 115.274 59.627 115.177 59.6873 115.093C59.7476 115.009 59.8276 114.941 59.9203 114.895C60.013 114.849 60.1156 114.827 60.2189 114.831C61.6489 114.651 61.7189 113.621 61.7089 112.531C61.7089 110.531 61.7089 108.59 61.6189 106.63C61.6421 105.953 61.4353 105.288 61.0322 104.743C60.6291 104.199 60.0534 103.806 59.3989 103.63C58.6928 103.455 57.9553 103.448 57.2463 103.612C56.5373 103.775 55.8769 104.104 55.3189 104.57C54.9189 104.84 54.9789 105.241 54.9889 105.661C54.9889 108.031 55.0589 110.411 55.0489 112.781C55.0489 113.781 55.2089 114.611 56.4689 114.781C56.8889 114.781 57.4689 114.911 57.3389 115.601C57.2089 116.291 56.6989 116.131 56.2789 116.141H50.7189C50.3189 116.141 49.8489 116.201 49.7889 115.621C49.7289 115.041 50.1089 114.911 50.5489 114.891C52.0789 114.811 52.2089 113.801 52.1789 112.591C52.1789 110.59 52.1789 108.651 52.1789 106.681C52.2311 106.006 52.0541 105.334 51.6765 104.774C51.299 104.213 50.7431 103.796 50.0989 103.59C49.3656 103.401 48.5972 103.393 47.8602 103.567C47.1231 103.741 46.4396 104.093 45.8689 104.59C45.3689 104.97 45.4989 105.53 45.4989 106.03C45.4989 108.35 45.4989 110.671 45.4989 113.031C45.4989 114.031 45.7289 114.721 46.8389 114.861C47.2889 114.921 47.8389 115.001 47.6789 115.681C47.5189 116.361 47.1289 116.161 46.7389 116.161C44.8289 116.161 42.9189 116.161 41.0089 116.161C40.6389 116.161 40.1389 116.251 40.0989 115.631C40.0858 115.528 40.095 115.424 40.1261 115.326C40.1571 115.228 40.2092 115.138 40.2786 115.061C40.3481 114.985 40.4333 114.925 40.5283 114.885C40.6233 114.845 40.7259 114.827 40.8289 114.831C42.4689 114.761 42.5589 113.651 42.5589 112.411C42.5589 110.411 42.5589 108.411 42.6489 106.501C42.7489 104.97 42.3789 103.9 40.7389 103.56C40.4089 103.49 39.9989 103.371 40.0189 102.941C40.0389 102.51 40.5089 102.561 40.8289 102.481L45.4789 101.28Z" fill="#9E22E9"/>
<path d="M93.3004 101.16C93.6804 101.76 93.3004 102.43 93.5404 103.16C94.3704 103.04 94.8804 102.36 95.5404 101.99C99.4704 99.8103 102.99 101.7 103.22 106.2C103.33 108.34 103.32 110.49 103.22 112.63C103.22 113.81 103.57 114.54 104.8 114.63C105.31 114.68 105.68 114.8 105.67 115.44C105.66 116.08 105.21 116.11 104.73 116.1C102.82 116.1 100.9 116.1 98.9903 116.1C98.5403 116.1 97.9903 116.2 97.9903 115.49C97.9903 114.78 98.2404 114.66 98.8004 114.63C99.9504 114.56 100.17 113.82 100.15 112.83C100.15 110.75 100.15 108.66 100.09 106.57C100.139 105.927 99.9676 105.287 99.6041 104.755C99.2406 104.222 98.7068 103.829 98.0903 103.64C97.3982 103.411 96.6586 103.366 95.9436 103.508C95.2286 103.65 94.5625 103.974 94.0104 104.45C93.8004 104.653 93.6425 104.903 93.5502 105.18C93.4579 105.457 93.434 105.752 93.4804 106.04C93.4804 108.3 93.4804 110.56 93.4804 112.82C93.4804 113.91 93.8104 114.62 95.0104 114.66C95.5604 114.66 95.9004 114.86 95.8304 115.49C95.7604 116.12 95.3004 116.14 94.8304 116.14C92.8304 116.14 90.8904 116.14 88.9204 116.14C88.5204 116.14 88.0604 116.14 87.9904 115.63C87.9204 115.12 88.0804 114.69 88.6904 114.63C90.1304 114.56 90.3104 113.63 90.3004 112.46C90.3004 110.32 90.2304 108.17 90.3004 106.03C90.403 105.489 90.2869 104.93 89.9776 104.474C89.6683 104.019 89.191 103.704 88.6504 103.6C88.2304 103.47 87.5804 103.44 87.6504 102.88C87.7204 102.32 88.3804 102.26 88.8704 102.15L93.3004 101.16Z" fill="#9E22E9"/>
<path d="M22.55 114C22.75 115.24 22.68 116.63 24.26 117.12C22.93 118.57 23.33 120.37 23.21 122.12C23.21 122.64 23.72 123.58 22.73 123.61C21.74 123.64 21.88 122.7 21.89 122.02C21.9026 120.511 21.6382 119.013 21.11 117.6C21.6671 116.502 21.9323 115.28 21.88 114.05C21.9151 113.995 21.9626 113.949 22.0185 113.916C22.0745 113.882 22.1375 113.862 22.2025 113.857C22.2675 113.853 22.3327 113.863 22.393 113.888C22.4534 113.912 22.5071 113.951 22.55 114V114Z" fill="#531778"/>
<path d="M22.5527 85.1002C22.5527 89.6136 22.5527 94.1269 22.5527 98.6402C22.4218 98.529 22.3218 98.3859 22.2622 98.2248C22.2026 98.0636 22.1856 97.8899 22.2127 97.7202V86.0002C22.1892 85.8337 22.208 85.664 22.2674 85.5066C22.3268 85.3493 22.425 85.2095 22.5527 85.1002V85.1002Z" fill="#9E22E9"/>
<path d="M22.5614 78.1405V81.6105C22.295 81.0709 22.1565 80.4772 22.1565 79.8755C22.1565 79.2738 22.295 78.6801 22.5614 78.1405V78.1405Z" fill="#9E22E9"/>
<path d="M22.5496 109.79V112.57C22.5065 112.618 22.454 112.655 22.3955 112.681C22.3369 112.707 22.2736 112.72 22.2096 112.72C22.1456 112.72 22.0823 112.707 22.0238 112.681C21.9652 112.655 21.9127 112.618 21.8696 112.57C22.2896 111.69 21.9996 110.63 22.5496 109.79Z" fill="#9E22E9"/>
<path d="M22.5476 105.62V108.73C22.2823 108.255 22.1429 107.719 22.1429 107.175C22.1429 106.631 22.2823 106.095 22.5476 105.62V105.62Z" fill="#9E22E9"/>
<path d="M21.8696 112.57H22.5496V114H21.8796C21.8796 113.5 21.8696 113 21.8696 112.57Z" fill="#9E22E9"/>
<path d="M167.153 102.381L166.663 102.479C167.112 104.712 166.838 107.03 165.881 109.096C164.925 111.163 163.334 112.871 161.341 113.973L161.341 113.973L161.333 113.978C159.643 114.957 157.74 115.511 155.788 115.591C153.517 115.638 151.255 115.622 148.985 115.607C147.844 115.599 146.701 115.591 145.553 115.591C145.488 115.591 145.423 115.596 145.37 115.601C145.343 115.603 145.317 115.606 145.292 115.608L145.291 115.609C145.265 115.611 145.242 115.614 145.219 115.616C145.181 115.619 145.149 115.621 145.123 115.622V115.602L145.114 115.554C145.105 115.507 145.106 115.459 145.116 115.412C145.127 115.365 145.148 115.321 145.177 115.283C145.206 115.245 145.243 115.213 145.285 115.19C145.327 115.167 145.374 115.153 145.422 115.149L145.43 115.149L145.439 115.148C146.506 115.029 147.191 114.595 147.565 113.882C147.908 113.228 147.943 112.412 147.943 111.651H147.943L147.943 111.643C147.873 107.017 147.853 102.393 147.943 97.7707L147.943 97.7698C147.959 96.8606 147.784 96.1021 147.293 95.5519C146.803 95.0021 146.082 94.7546 145.225 94.6736C145.118 94.6616 144.992 94.6587 144.892 94.6564C144.865 94.6558 144.841 94.6553 144.819 94.6546C144.689 94.6506 144.596 94.643 144.527 94.6268C144.517 94.6245 144.509 94.6222 144.502 94.6201C144.502 94.6117 144.502 94.6015 144.503 94.5891C144.515 94.3767 144.591 94.2757 144.69 94.209C144.813 94.1256 145.03 94.0609 145.363 94.0609H145.375H145.386H145.397H145.408H145.419H145.431H145.442H145.453H145.464H145.475H145.487H145.498H145.509H145.52H145.531H145.542H145.554H145.565H145.576H145.587H145.598H145.61H145.621H145.632H145.643H145.654H145.666H145.677H145.688H145.699H145.71H145.722H145.733H145.744H145.755H145.766H145.778H145.789H145.8H145.811H145.822H145.833H145.845H145.856H145.867H145.878H145.889H145.901H145.912H145.923H145.934H145.945H145.957H145.968H145.979H145.99H146.001H146.013H146.024H146.035H146.046H146.057H146.068H146.08H146.091H146.102H146.113H146.124H146.136H146.147H146.158H146.169H146.18H146.192H146.203H146.214H146.225H146.236H146.248H146.259H146.27H146.281H146.292H146.304H146.315H146.326H146.337H146.348H146.359H146.371H146.382H146.393H146.404H146.415H146.427H146.438H146.449H146.46H146.471H146.483H146.494H146.505H146.516H146.527H146.539H146.55H146.561H146.572H146.583H146.594H146.606H146.617H146.628H146.639H146.65H146.662H146.673H146.684H146.695H146.706H146.718H146.729H146.74H146.751H146.762H146.774H146.785H146.796H146.807H146.818H146.83H146.841H146.852H146.863H146.874H146.885H146.897H146.908H146.919H146.93H146.941H146.953H146.964H146.975H146.986H146.997H147.009H147.02H147.031H147.042H147.053H147.065H147.076H147.087H147.098H147.109H147.12H147.132H147.143H147.154H147.165H147.176H147.188H147.199H147.21H147.221H147.232H147.244H147.255H147.266H147.277H147.288H147.3H147.311H147.322H147.333H147.344H147.356H147.367H147.378H147.389H147.4H147.411H147.423H147.434H147.445H147.456H147.467H147.479H147.49H147.501H147.512H147.523H147.535H147.546H147.557H147.568H147.579H147.591H147.602H147.613H147.624H147.635H147.646H147.658H147.669H147.68H147.691H147.702H147.714H147.725H147.736H147.747H147.758H147.77H147.781H147.792H147.803H147.814H147.826H147.837H147.848H147.859H147.87H147.882H147.893H147.904H147.915H147.926H147.937H147.949H147.96H147.971H147.982H147.993H148.005H148.016H148.027H148.038H148.049H148.061H148.072H148.083H148.094H148.105H148.117H148.128H148.139H148.15H148.161H148.172H148.184H148.195H148.206H148.217H148.228H148.24H148.251H148.262H148.273H148.284H148.296H148.307H148.318H148.329H148.34H148.352H148.363H148.374H148.385H148.396H148.407H148.419H148.43H148.441H148.452H148.463H148.475H148.486H148.497H148.508H148.519H148.531H148.542H148.553H148.564H148.575H148.587H148.598H148.609H148.62H148.631H148.643H148.654H148.665H148.676H148.687H148.698H148.71H148.721H148.732H148.743H148.754H148.766H148.777H148.788H148.799H148.81H148.822H148.833H148.844H148.855H148.866H148.878H148.889H148.9H148.911H148.922H148.933H148.945H148.956H148.967H148.978H148.989H149.001H149.012H149.023H149.034H149.045H149.057H149.068H149.079H149.09H149.101H149.113H149.124H149.135H149.146H149.157H149.169H149.18H149.191H149.202H149.213H149.224H149.236H149.247H149.258H149.269H149.28H149.292H149.303H149.314H149.325H149.336H149.348H149.359H149.37H149.381H149.392H149.404H149.415H149.426H149.437H149.448H149.459H149.471H149.482H149.493H149.504H149.515H149.527H149.538H149.549H149.56H149.571H149.583H149.594H149.605H149.616H149.627H149.639H149.65H149.661H149.672H149.683H149.695H149.706H149.717H149.728H149.739H149.75H149.762H149.773H149.784H149.795H149.806H149.818H149.829H149.84H149.851H149.862H149.874H149.885H149.896H149.907H149.918H149.93H149.941H149.952H149.963H149.974H149.985H149.997H150.008H150.019H150.03H150.041H150.053H150.064H150.075H150.086H150.097H150.109H150.12H150.131H150.142H150.153H150.165H150.176H150.187H150.198H150.209H150.221H150.232H150.243H150.254H150.265H150.276H150.288H150.299H150.31H150.321H150.332H150.344H150.355H150.366H150.377H150.388H150.4H150.411H150.422H150.433H150.444H150.456H150.467H150.478H150.489H150.5H150.511H150.523H150.534H150.545H150.556H150.567H150.579H150.59H150.601H150.612H150.623H150.635H150.646H150.657H150.668H150.679H150.691H150.702H150.713H150.724H150.735H150.746H150.758H150.769H150.78H150.791H150.802H150.814H150.825H150.836H150.847H150.858H150.87H150.881H150.892H150.903H150.914H150.926H150.937H150.948H150.959H150.97H150.982H150.993H151.004H151.015H151.026H151.037H151.049H151.06H151.071H151.082H151.093H151.112L151.131 94.0595C153.761 93.8623 156.405 93.9745 159.009 94.3937C160.971 94.7536 162.768 95.7264 164.142 97.1724C165.518 98.6196 166.399 100.466 166.658 102.446L167.153 102.381ZM144.505 94.6514C144.505 94.6514 144.505 94.6507 144.505 94.6489C144.505 94.6505 144.505 94.6514 144.505 94.6514ZM145.129 115.714C145.129 115.714 145.129 115.714 145.128 115.713L145.129 115.714ZM152.713 94.651L152.713 94.651L152.709 94.6511C152.142 94.667 151.593 94.7691 151.194 95.1272C150.778 95.4998 150.633 96.0459 150.633 96.6809V96.6954V96.7099V96.7244V96.7388V96.7533V96.7678V96.7823V96.7967V96.8112V96.8257V96.8402V96.8547V96.8692V96.8836V96.8981V96.9126V96.9271V96.9416V96.9561V96.9706V96.9851V96.9995V97.014V97.0285V97.043V97.0575V97.072V97.0865V97.101V97.1155V97.13V97.1445V97.159V97.1735V97.188V97.2025V97.217V97.2315V97.246V97.2605V97.275V97.2896V97.3041V97.3186V97.3331V97.3476V97.3621V97.3766V97.3911V97.4057V97.4202V97.4347V97.4492V97.4637V97.4782V97.4928V97.5073V97.5218V97.5363V97.5508V97.5654V97.5799V97.5944V97.6089V97.6235V97.638V97.6525V97.667V97.6816V97.6961V97.7106V97.7252V97.7397V97.7542V97.7688V97.7833V97.7978V97.8124V97.8269V97.8414V97.856V97.8705V97.8851V97.8996V97.9141V97.9287V97.9432V97.9578V97.9723V97.9869V98.0014V98.0159V98.0305V98.045V98.0596V98.0741V98.0887V98.1032V98.1178V98.1323V98.1469V98.1614V98.176V98.1905V98.2051V98.2196V98.2342V98.2488V98.2633V98.2779V98.2924V98.307V98.3215V98.3361V98.3507V98.3652V98.3798V98.3943V98.4089V98.4235V98.438V98.4526V98.4672V98.4817V98.4963V98.5109V98.5254V98.54V98.5546V98.5691V98.5837V98.5983V98.6128V98.6274V98.642V98.6566V98.6711V98.6857V98.7003V98.7148V98.7294V98.744V98.7586V98.7732V98.7877V98.8023V98.8169V98.8315V98.846V98.8606V98.8752V98.8898V98.9044V98.9189V98.9335V98.9481V98.9627V98.9773V98.9919V99.0064V99.021V99.0356V99.0502V99.0648V99.0794V99.094V99.1086V99.1231V99.1377V99.1523V99.1669V99.1815V99.1961V99.2107V99.2253V99.2399V99.2545V99.269V99.2836V99.2982V99.3128V99.3274V99.342V99.3566V99.3712V99.3858V99.4004V99.415V99.4296V99.4442V99.4588V99.4734V99.488V99.5026V99.5172V99.5318V99.5464V99.561V99.5756V99.5902V99.6048V99.6194V99.634V99.6486V99.6632V99.6778V99.6924V99.707V99.7216V99.7362V99.7508V99.7654V99.7801V99.7947V99.8093V99.8239V99.8385V99.8531V99.8677V99.8823V99.8969V99.9115V99.9261V99.9408V99.9554V99.97V99.9846V99.9992V100.014V100.028V100.043V100.058V100.072V100.087V100.101V100.116V100.131V100.145V100.16V100.175V100.189V100.204V100.218V100.233V100.248V100.262V100.277V100.291V100.306V100.321V100.335V100.35V100.365V100.379V100.394V100.408V100.423V100.438V100.452V100.467V100.482V100.496V100.511V100.525V100.54V100.555V100.569V100.584V100.598V100.613V100.628V100.642V100.657V100.672V100.686V100.701V100.715V100.73V100.745V100.759V100.774V100.789V100.803V100.818V100.832V100.847V100.862V100.876V100.891V100.906V100.92V100.935V100.949V100.964V100.979V100.993V101.008V101.023V101.037V101.052V101.066V101.081V101.096V101.11V101.125V101.14V101.154V101.169V101.184V101.198V101.213V101.227V101.242V101.257V101.271V101.286V101.301V101.315V101.33V101.344V101.359V101.374V101.388V101.403V101.418V101.432V101.447V101.461V101.476V101.491V101.505V101.52V101.535V101.549V101.564V101.578V101.593V101.608V101.622V101.637V101.652V101.666V101.681V101.695V101.71V101.725V101.739V101.754V101.769V101.783V101.798V101.813V101.827V101.842V101.856V101.871V101.886V101.9V101.915V101.93V101.944V101.959V101.973V101.988V102.003V102.017V102.032V102.047V102.061V102.076V102.09V102.105V102.12V102.134V102.149V102.164V102.178V102.193V102.207V102.222V102.237V102.251V102.266V102.281V102.295V102.31V102.324V102.339V102.354V102.368V102.383V102.398V102.412V102.427V102.442V102.456V102.471V102.485V102.5V102.515V102.529V102.544V102.558V102.573V102.588V102.602V102.617V102.632V102.646V102.661V102.675V102.69V102.705V102.719V102.734V102.749V102.763V102.778V102.792V102.807V102.822V102.836V102.851V102.866V102.88V102.895V102.909V102.924V102.939V102.953V102.968V102.983V102.997V103.012V103.026V103.041V103.056V103.07V103.085V103.099V103.114V103.129V103.143V103.158V103.173V103.187V103.202V103.216V103.231V103.246V103.26V103.275V103.289V103.304V103.319V103.333V103.348V103.362V103.377V103.392V103.406V103.421V103.436V103.45V103.465V103.479V103.494V103.509V103.523V103.538V103.552V103.567V103.582V103.596V103.611V103.625V103.64V103.655V103.669V103.684V103.698V103.713V103.728V103.742V103.757V103.771V103.786V103.801V103.815V103.83V103.844V103.859V103.874V103.888V103.903V103.917V103.932V103.947V103.961V103.976V103.99V104.005V104.02V104.034V104.049V104.063V104.078V104.093V104.107V104.122V104.136V104.151V111.787C150.601 112.392 150.779 112.989 151.136 113.478C151.491 113.964 152 114.312 152.58 114.468C154.383 115.158 156.374 115.179 158.192 114.526C160.018 113.871 161.546 112.58 162.497 110.889C163.54 109.099 164.087 107.063 164.081 104.991C164.076 102.918 163.518 100.884 162.465 99.098C160.275 95.3393 156.552 94.5698 152.713 94.651Z" fill="#9E22E9" stroke="#9E22E9"/>
<path d="M183.752 102.978L183.077 103.513L183.877 103.833C184.049 103.902 184.209 103.964 184.363 104.023C184.681 104.145 184.969 104.256 185.262 104.392L185.473 103.939L185.276 104.399C186.083 104.745 186.788 105.293 187.323 105.99C187.858 106.686 188.206 107.509 188.333 108.378C188.46 109.247 188.362 110.134 188.048 110.955C187.735 111.776 187.216 112.502 186.542 113.066L186.542 113.066L186.537 113.07C184.719 114.63 182.4 115.485 180.004 115.479L179.995 115.479L179.987 115.48C177.95 115.546 175.922 115.524 173.884 115.502C172.86 115.49 171.834 115.479 170.803 115.479C170.686 115.479 170.558 115.497 170.47 115.509C170.458 115.511 170.448 115.512 170.438 115.514C170.377 115.522 170.33 115.527 170.293 115.53C170.287 115.443 170.306 115.323 170.355 115.233C170.379 115.188 170.403 115.166 170.417 115.156C170.428 115.148 170.445 115.139 170.483 115.139H170.494L170.504 115.139C171.268 115.106 171.874 114.939 172.34 114.636C172.815 114.328 173.104 113.906 173.275 113.442C173.441 112.989 173.496 112.496 173.514 112.025C173.525 111.716 173.521 111.387 173.517 111.077C173.515 110.927 173.513 110.78 173.513 110.643C173.542 108.579 173.541 106.517 173.539 104.458L173.539 104.219C173.538 102.079 173.538 99.9428 173.573 97.8077C173.588 96.9442 173.492 96.126 173.048 95.5238C172.577 94.8849 171.813 94.6092 170.793 94.6092V94.6091L170.78 94.6094C170.755 94.6101 170.731 94.6108 170.707 94.6115C170.627 94.614 170.557 94.6161 170.484 94.6132C170.422 94.6108 170.377 94.6049 170.347 94.5983C170.348 94.5805 170.35 94.5567 170.355 94.5258L170.357 94.5158L170.359 94.5057C170.376 94.3755 170.444 94.2574 170.548 94.1769C170.652 94.0964 170.783 94.0601 170.914 94.0757L170.938 94.0786L170.962 94.0791C172.28 94.1072 173.589 94.1121 174.893 94.117C177.344 94.1263 179.776 94.1354 182.21 94.2981L182.21 94.2982C183.782 94.4011 184.945 94.9804 185.679 95.833C186.413 96.6853 186.763 97.8618 186.616 99.2462L186.615 99.2495C186.547 99.938 186.41 100.38 186.039 100.877C185.642 101.408 184.967 102.014 183.752 102.978ZM182.73 96.1388L182.714 96.1239L182.697 96.1104C181.768 95.3588 180.629 94.9124 179.437 94.8317C178.802 94.7363 178.272 94.6691 177.847 94.6702C177.421 94.6712 177.006 94.7391 176.681 95.004C176.351 95.2727 176.209 95.6646 176.138 96.0803C176.067 96.496 176.053 97.0244 176.053 97.6592V99.2168L176.052 99.2753C176.043 100.288 176.035 101.086 176.087 101.69C176.14 102.293 176.258 102.827 176.604 103.203C176.965 103.595 177.475 103.712 178.027 103.74C178.569 103.769 179.274 103.717 180.148 103.652L180.21 103.648L180.21 103.648C180.991 103.59 181.768 103.43 182.423 103.043C183.089 102.649 183.596 102.038 183.857 101.149C184.179 100.298 184.246 99.3724 184.048 98.4848C183.849 97.5901 183.39 96.7741 182.73 96.1388ZM176.003 110.609H176.003L176.003 110.617C176.016 111.441 176.06 112.128 176.18 112.687C176.302 113.252 176.511 113.728 176.885 114.088C177.258 114.448 177.742 114.64 178.312 114.742C178.876 114.844 179.565 114.864 180.391 114.849C181.807 114.828 182.998 114.473 183.888 113.756C184.783 113.035 185.318 111.991 185.498 110.701C185.719 109.222 185.54 107.938 184.903 106.898C184.265 105.856 183.21 105.129 181.815 104.683L181.8 104.678L181.785 104.674C180.858 104.441 179.907 104.312 178.951 104.29L178.928 104.288C178.346 104.26 177.868 104.236 177.5 104.257C177.135 104.277 176.758 104.344 176.473 104.6C176.181 104.861 176.086 105.228 176.044 105.583C176.003 105.934 176.003 106.389 176.003 106.937L176.003 106.969V106.976V106.983V106.991V106.998V107.005V107.012V107.019V107.026V107.033V107.04V107.047V107.054V107.061V107.069V107.076V107.083V107.09V107.097V107.104V107.111V107.118V107.125V107.132V107.139V107.146V107.154V107.161V107.168V107.175V107.182V107.189V107.196V107.203V107.21V107.217V107.224V107.232V107.239V107.246V107.253V107.26V107.267V107.274V107.281V107.288V107.295V107.302V107.31V107.317V107.324V107.331V107.338V107.345V107.352V107.359V107.366V107.373V107.38V107.388V107.395V107.402V107.409V107.416V107.423V107.43V107.437V107.444V107.451V107.458V107.466V107.473V107.48V107.487V107.494V107.501V107.508V107.515V107.522V107.529V107.536V107.544V107.551V107.558V107.565V107.572V107.579V107.586V107.593V107.6V107.607V107.614V107.622V107.629V107.636V107.643V107.65V107.657V107.664V107.671V107.678V107.685V107.692V107.7V107.707V107.714V107.721V107.728V107.735V107.742V107.749V107.756V107.763V107.771V107.778V107.785V107.792V107.799V107.806V107.813V107.82V107.827V107.834V107.841V107.849V107.856V107.863V107.87V107.877V107.884V107.891V107.898V107.905V107.912V107.919V107.927V107.934V107.941V107.948V107.955V107.962V107.969V107.976V107.983V107.99V107.998V108.005V108.012V108.019V108.026V108.033V108.04V108.047V108.054V108.061V108.068V108.076V108.083V108.09V108.097V108.104V108.111V108.118V108.125V108.132V108.139V108.147V108.154V108.161V108.168V108.175V108.182V108.189V108.196V108.203V108.21V108.217V108.225V108.232V108.239V108.246V108.253V108.26V108.267V108.274V108.281V108.288V108.296V108.303V108.31V108.317V108.324V108.331V108.338V108.345V108.352V108.359V108.367V108.374V108.381V108.388V108.395V108.402V108.409V108.416V108.423V108.43V108.438V108.445V108.452V108.459V108.466V108.473V108.48V108.487V108.494V108.501V108.509V108.516V108.523V108.53V108.537V108.544V108.551V108.558V108.565V108.572V108.58V108.587V108.594V108.601V108.608V108.615V108.622V108.629V108.636V108.643V108.651V108.658V108.665V108.672V108.679V108.686V108.693V108.7V108.707V108.714V108.722V108.729V108.736V108.743V108.75V108.757V108.764V108.771V108.778V108.785V108.793V108.8V108.807V108.814V108.821V108.828V108.835V108.842V108.849V108.857V108.864V108.871V108.878V108.885V108.892V108.899V108.906V108.913V108.921V108.928V108.935V108.942V108.949V108.956V108.963V108.97V108.977V108.984V108.992V108.999V109.006V109.013V109.02V109.027V109.034V109.041V109.048V109.056V109.063V109.07V109.077V109.084V109.091V109.098V109.105V109.112V109.12V109.127V109.134V109.141V109.148V109.155V109.162V109.169V109.176V109.184V109.191V109.198V109.205V109.212V109.219V109.226V109.233V109.24V109.248V109.255V109.262V109.269V109.276V109.283V109.29V109.297V109.304V109.312V109.319V109.326V109.333V109.34V109.347V109.354V109.361V109.368V109.376V109.383V109.39V109.397V109.404V109.411V109.418V109.425V109.433V109.44V109.447V109.454V109.461V109.468V109.475V109.482V109.489V109.497V109.504V109.511V109.518V109.525V109.532V109.539V109.546V109.554V109.561V109.568V109.575V109.582V109.589V109.596V109.603V109.611V109.618V109.625V109.632V109.639V109.646V109.653V109.66V109.667V109.675V109.682V109.689V109.696V109.703V109.71V109.717V109.724V109.732V109.739V109.746V109.753V109.76V109.767V109.774V109.781V109.789V109.796V109.803V109.81V109.817V109.824V109.831V109.838V109.846V109.853V109.86V109.867V109.874V109.881V109.888V109.895V109.903V109.91V109.917V109.924V109.931V109.938V109.945V109.953V109.96V109.967V109.974V109.981V109.988V109.995V110.002V110.01V110.017V110.024V110.031V110.038V110.045V110.052V110.059V110.067V110.074V110.081V110.088V110.095V110.102V110.109V110.117V110.124V110.131V110.138V110.145V110.152V110.159V110.166V110.174V110.181V110.188V110.195V110.202V110.209V110.216V110.224V110.231V110.238V110.245V110.252V110.259V110.266V110.274V110.281V110.288V110.295V110.302V110.309V110.316V110.323V110.331V110.338V110.345V110.352V110.359V110.366V110.373V110.381V110.388V110.395V110.402V110.409V110.416V110.423V110.431V110.438V110.445V110.452V110.459V110.466V110.473V110.481V110.488V110.495V110.502V110.509V110.516V110.523V110.531V110.538V110.545V110.552V110.559V110.566V110.574V110.581V110.588V110.595V110.602V110.609Z" fill="#9E22E9" stroke="#9E22E9"/>
<path d="M118.728 114.32C117.288 114.17 115.838 114.09 114.398 113.92C113.798 113.85 113.248 113.57 113.298 112.82C113.348 112.07 113.848 111.99 114.388 111.9C114.738 111.85 115.088 111.9 115.388 111.82C118.638 111.33 120.918 109.03 120.878 106.1C120.878 104.88 120.718 104.01 122.398 103.99C122.604 103.964 122.802 103.892 122.977 103.78C123.153 103.668 123.301 103.519 123.412 103.343C123.523 103.168 123.593 102.969 123.619 102.763C123.644 102.557 123.623 102.347 123.558 102.15C123.298 101.15 122.658 102.15 122.188 102.15C121.151 102.244 120.105 102.156 119.098 101.89C118.225 101.586 117.329 101.356 116.418 101.2C113.478 100.75 109.948 102.68 109.128 105.1C108.218 107.8 109.248 110.1 112.308 111.89C109.188 114.37 109.188 114.37 111.788 116.48C111.018 117.09 110.228 117.66 109.498 118.31C109.16 118.56 108.878 118.878 108.67 119.244C108.463 119.61 108.335 120.016 108.294 120.434C108.254 120.853 108.302 121.276 108.435 121.674C108.568 122.073 108.784 122.44 109.068 122.75C109.717 123.655 110.656 124.311 111.728 124.61C113.452 125.159 115.296 125.208 117.046 124.751C118.797 124.294 120.382 123.351 121.618 122.03C122.358 121.408 122.892 120.576 123.149 119.644C123.406 118.712 123.374 117.724 123.058 116.81C122.348 114.81 120.558 114.5 118.728 114.32ZM111.858 106C111.858 103.82 112.858 102.55 114.658 102.56C116.658 102.56 118.088 104.28 118.088 106.77C118.088 108.96 116.938 110.47 115.258 110.45C113.248 110.38 111.858 108.57 111.858 106ZM119.068 122.53C118.111 123.074 117.029 123.359 115.928 123.359C114.827 123.359 113.745 123.074 112.788 122.53C112.184 122.297 111.681 121.859 111.368 121.292C111.055 120.725 110.953 120.065 111.078 119.43C111.233 118.75 111.592 118.134 112.107 117.664C112.621 117.194 113.267 116.893 113.958 116.8C114.417 116.755 114.879 116.755 115.338 116.8C116.38 116.762 117.421 116.897 118.418 117.2C119.488 117.52 120.418 118.04 120.638 119.33C120.742 119.954 120.646 120.594 120.364 121.159C120.082 121.725 119.628 122.187 119.068 122.48V122.53Z" fill="#9E22E9"/>
<path d="M77.483 101.1C72.763 101.1 69.483 104.31 69.483 108.79C69.483 113.48 72.363 116.43 76.823 116.4C77.8682 116.419 78.9062 116.224 79.8727 115.825C80.8392 115.427 81.7137 114.834 82.4421 114.085C83.1704 113.335 83.7371 112.443 84.1071 111.466C84.477 110.488 84.6424 109.445 84.593 108.4C84.553 104.07 81.653 101.09 77.483 101.1ZM78.293 114.84C76.083 115.19 73.943 113.58 73.103 110.9C72.5904 109.354 72.4769 107.703 72.773 106.1C73.073 104.56 73.773 103.19 75.443 102.82C76.2662 102.617 77.1316 102.669 77.9246 102.969C78.7176 103.269 79.4007 103.803 79.883 104.5C80.9716 106.018 81.4952 107.868 81.363 109.73C81.353 112.87 80.363 114.51 78.293 114.84V114.84Z" fill="#9E22E9"/>
<path d="M134.139 101.109C129.509 101.109 126.139 104.209 126.059 108.569C125.989 113.259 128.799 116.349 133.189 116.399C134.234 116.452 135.278 116.289 136.257 115.92C137.236 115.551 138.129 114.984 138.879 114.255C139.63 113.526 140.222 112.651 140.62 111.683C141.017 110.715 141.211 109.675 141.189 108.629C141.229 104.169 138.379 101.119 134.139 101.109ZM134.919 114.829C132.709 115.189 130.579 113.589 129.709 110.919C129.249 109.421 129.129 107.84 129.359 106.289C129.559 104.729 130.209 103.289 131.859 102.869C132.643 102.632 133.48 102.634 134.262 102.877C135.045 103.119 135.737 103.59 136.249 104.229C137.396 105.619 138.015 107.368 137.999 109.169C137.999 112.819 136.999 114.479 134.919 114.829Z" fill="#9E22E9"/>
</svg>
