<svg width="200" height="200" viewBox="0 0 200 200" fill="none" xmlns="http://www.w3.org/2000/svg">
<g clip-path="url(#clip0)">
<path d="M33.9979 116.183C36.8079 109.913 39.5979 104.023 42.0679 98.0126C43.9179 93.5326 47.0679 92.8526 51.3579 94.1626C52.1002 94.3414 52.7565 94.7742 53.2131 95.386C53.6697 95.9979 53.8978 96.7502 53.8579 97.5126C53.8579 104.793 53.8579 112.063 53.8579 119.333C53.8579 120.223 53.4879 120.333 52.7279 120.383C48.1279 120.593 48.1279 120.613 48.1279 116.043V98.5526C47.4679 98.6026 47.5479 99.2126 47.3879 99.5526C44.7879 105.273 42.1579 110.973 39.6779 116.743C38.5679 119.323 36.9379 120.743 34.0479 120.693C31.1579 120.643 29.6279 119.313 28.5479 116.803C25.9979 110.703 23.1779 104.643 20.4379 98.5326C19.8279 98.8226 20.1379 99.2726 20.1279 99.5926C20.1279 106.003 20.1279 112.413 20.1279 118.823C20.1279 119.983 19.8779 120.403 18.6179 120.393C14.4279 120.393 14.4279 120.393 14.4279 116.183C14.4279 110.233 14.4279 104.293 14.4279 98.3426C14.4279 95.5126 15.2179 94.5426 17.9579 93.8526C22.0279 92.8527 24.4479 94.0526 26.1179 97.8526C28.7179 103.883 31.2979 109.853 33.9979 116.183Z" fill="#9E22E9"/>
<path d="M140.203 77.9325C139.933 79.5625 139.733 80.8624 139.513 82.1624C139.483 82.7016 139.291 83.2191 138.961 83.6462C138.631 84.0733 138.178 84.3899 137.664 84.5537C137.149 84.7176 136.597 84.7211 136.081 84.5637C135.564 84.4062 135.108 84.0954 134.773 83.6724C132.323 81.1824 131.563 78.0124 131.233 74.6724C130.903 71.3324 131.803 67.9124 132.733 64.6724C132.873 64.1524 133.103 63.6724 132.663 63.2524C130.243 60.6924 129.163 57.4224 128.213 54.1724C127.442 51.7569 126.201 49.5174 124.563 47.5824C123.721 46.631 123.027 45.5591 122.503 44.4024C121.303 41.3324 123.363 38.6424 126.613 39.1324C129.25 39.5477 131.728 40.6593 133.793 42.3524C134.582 43.0237 135.577 43.4048 136.613 43.4324C139.916 43.563 143.12 44.601 145.873 46.4324C151.855 50.0897 156.891 55.1052 160.573 61.0724C162.003 63.4024 162.733 66.0724 163.923 68.4724C164.474 69.4845 164.961 70.5299 165.383 71.6024C166.014 73.5536 167.084 75.3342 168.511 76.8076C169.938 78.281 171.683 79.4081 173.613 80.1024C177.868 81.9598 181.544 84.9309 184.253 88.7024C181.203 90.1224 177.893 89.7024 174.823 91.0325C175.368 92.0911 176.267 92.9258 177.363 93.3925C180.364 95.1359 183.018 97.4173 185.193 100.122C185.376 100.283 185.5 100.5 185.545 100.739C185.59 100.979 185.554 101.226 185.443 101.442C182.273 98.2424 177.803 97.3024 174.443 94.5424C173.172 93.5439 172.129 92.2859 171.383 90.8524C170.913 89.9324 171.163 89.5625 172.073 89.2125C174.898 88.1279 177.921 87.6574 180.943 87.8324C181.015 87.6413 181.009 87.4295 180.927 87.2425C180.845 87.0556 180.692 86.9083 180.503 86.8324C176.923 84.4224 173.613 81.5424 169.243 80.5824C168.333 80.4088 167.482 80.0104 166.765 79.4236C166.049 78.8367 165.491 78.08 165.143 77.2224C163.403 73.4024 161.623 69.5924 159.883 65.7624C156.117 57.0209 149.094 50.0907 140.303 46.4424C138.603 45.7224 136.793 45.8324 135.023 45.6524C134.159 45.575 133.343 45.2248 132.693 44.6524C130.874 43.2301 128.805 42.1616 126.593 41.5024C126.258 41.3193 125.873 41.2505 125.495 41.3064C125.118 41.3624 124.77 41.5401 124.503 41.8124C124.288 42.1277 124.179 42.5028 124.192 42.8838C124.205 43.2648 124.338 43.632 124.573 43.9324C124.842 44.5034 125.177 45.0404 125.573 45.5324C128.143 48.5166 129.979 52.0612 130.933 55.8824C131.474 58.2001 132.647 60.3222 134.323 62.0124C135.383 63.0124 135.153 64.2424 134.673 65.3924C133.055 69.1803 132.705 73.3891 133.673 77.3924C133.956 78.8723 134.568 80.2699 135.463 81.4824C135.753 81.8424 136.133 82.2625 136.613 82.1125C137.093 81.9625 136.923 81.4224 136.983 81.0424C137.223 79.6224 137.383 78.1924 137.673 76.7824C138.083 75.17 139.002 73.7324 140.293 72.6824C142.231 77.9387 144.926 82.8841 148.293 87.3625C145.733 86.2525 143.673 83.8625 140.203 77.9325Z" fill="#9E22E9"/>
<path d="M85.7805 112.703C85.7805 115.703 85.7805 118.703 85.7805 121.703C85.8404 122.808 85.5561 123.904 84.9669 124.84C84.3776 125.777 83.5125 126.508 82.4905 126.933C80.6176 127.827 78.5661 128.285 76.4905 128.273C71.0605 128.273 65.6305 128.203 60.2005 128.273C58.2005 128.273 58.9205 127.043 58.8105 126.103C58.7005 125.163 58.7505 124.323 60.2705 124.363C65.4105 124.473 70.5505 124.363 75.6905 124.413C76.6123 124.444 77.5326 124.315 78.4105 124.033C79.0684 123.766 79.5995 123.259 79.8952 122.614C80.1908 121.968 80.2285 121.235 80.0005 120.563C79.7105 119.873 79.1305 120.143 78.6605 120.143C75.0305 120.143 71.3905 120.143 67.7505 120.143C65.546 120.201 63.3643 119.684 61.4205 118.643C60.5556 118.232 59.8339 117.571 59.3489 116.746C58.864 115.92 58.6381 114.968 58.7005 114.013C58.8105 110.493 58.8005 107.013 58.7005 103.453C58.7005 102.283 59.0405 102.033 60.1405 102.033C64.3505 102.033 64.3505 102.033 64.3505 106.213C64.3505 108.753 64.3505 111.293 64.3505 113.833C64.3505 115.753 64.9705 116.583 66.8505 116.633C70.9405 116.753 75.0405 116.683 79.1405 116.743C80.1405 116.743 80.0505 116.123 80.0505 115.483C80.0505 111.483 80.0505 107.483 80.0505 103.533C80.0505 102.313 80.3905 101.983 81.5905 101.993C85.8205 101.993 85.8205 101.993 85.8205 106.173V112.703H85.7805Z" fill="#9E22E9"/>
<path d="M106.077 94.0724C108.787 94.0724 111.507 94.0724 114.217 94.0724C115.297 94.0724 115.727 94.2824 115.677 95.4724C115.557 98.4724 115.937 97.8524 113.337 97.8724C108.777 97.8724 104.217 97.8724 99.657 97.8724C96.147 97.8724 94.557 100.732 96.217 103.872C96.927 105.232 98.217 105.312 99.507 105.342C101.987 105.402 104.507 105.342 106.957 105.342C109.055 105.321 111.122 105.845 112.957 106.862C113.78 107.233 114.467 107.851 114.923 108.631C115.378 109.411 115.579 110.313 115.497 111.212C115.497 111.612 115.497 112.022 115.497 112.422C115.497 117.172 113.817 119.172 109.077 120.002C108.23 120.164 107.37 120.251 106.507 120.262C101.507 120.262 96.577 120.262 91.607 120.262C90.667 120.262 90.157 120.192 90.177 119.002C90.177 116.442 90.177 116.442 92.737 116.442H105.547C106.65 116.547 107.758 116.294 108.707 115.722C110.537 114.382 109.707 112.422 109.707 110.722C109.707 109.462 108.407 108.962 107.287 108.892C104.927 108.752 102.567 108.772 100.197 108.742C97.8835 108.796 95.5863 108.342 93.467 107.412C91.367 106.412 90.047 104.872 90.317 102.412C90.337 102.24 90.337 102.065 90.317 101.892C89.747 96.2424 92.867 94.4524 97.857 94.0524C100.607 93.8324 103.397 94.0524 106.167 94.0524L106.077 94.0724Z" fill="#9E22E9"/>
<path d="M151 104.603C151 101.493 151 98.3726 151 95.2526C151 94.3826 151.19 94.0726 152.14 94.0426C156.7 93.8826 156.7 93.8526 156.7 98.4026C156.7 103.193 156.7 107.993 156.7 112.783C156.7 115.583 157.51 116.463 160.45 116.513C165.18 116.603 169.92 116.643 174.65 116.513C176.35 116.463 176.28 117.273 176.29 118.513C176.3 119.753 176.29 120.513 174.62 120.443C169.15 120.203 163.62 120.713 158.18 120.123C156.858 119.98 155.57 119.615 154.37 119.043C153.325 118.596 152.443 117.84 151.842 116.876C151.242 115.912 150.951 114.787 151.01 113.653C151 110.613 151 107.613 151 104.603Z" fill="#9E22E9"/>
<path d="M135 50.2232C135.243 50.0614 135.518 49.9527 135.807 49.9044C136.095 49.856 136.391 49.8691 136.674 49.9427C136.957 50.0163 137.221 50.1488 137.45 50.3316C137.678 50.5143 137.866 50.7432 138 51.0032C138.75 52.0032 138.45 53.0032 137.5 54.0032C136.841 52.6362 136 51.3646 135 50.2232Z" fill="#106B95"/>
<path d="M143.998 119.193C146.908 118.033 147.448 115.743 147.408 113.093C147.358 109.403 147.408 105.703 147.408 102.013C147.408 97.1126 145.808 95.0126 140.868 94.4026C135.714 93.8325 130.513 93.8325 125.358 94.4026C124.5 94.5252 123.662 94.7641 122.868 95.1126C121.704 95.4865 120.698 96.2386 120.009 97.2494C119.321 98.2603 118.99 99.4721 119.068 100.693C119.068 104.693 119.068 108.693 119.068 112.623C119.068 117.223 120.548 119.113 125.068 120.083C128.309 120.675 131.624 120.749 134.888 120.303C136.09 120.086 137.328 120.197 138.472 120.624C139.616 121.052 140.624 121.78 141.388 122.733C141.918 123.353 142.468 124.193 143.388 124.223C145.308 124.223 147.228 124.223 149.578 124.223L143.998 119.193ZM141.568 115.193C141.038 115.933 140.428 116.273 139.798 115.393C137.498 112.173 134.178 112.073 130.718 112.393C130.568 112.393 130.428 112.463 130.058 112.553L134.508 116.643C131.988 116.583 129.848 116.873 127.718 116.433C126.991 116.33 126.33 115.955 125.869 115.383C125.408 114.811 125.183 114.085 125.238 113.353C125.238 109.203 125.238 105.043 125.238 100.893C125.213 100.34 125.37 99.794 125.687 99.3401C126.003 98.8861 126.461 98.5495 126.988 98.3826C127.625 98.1227 128.302 97.9771 128.988 97.9526C132.098 97.9526 135.218 97.8626 138.328 97.9526C141.048 98.0226 142.028 99.1226 142.028 101.813V113.063C142.122 113.805 141.967 114.557 141.588 115.203L141.568 115.193Z" fill="#9E22E9"/>
</g>
<defs>
<clipPath id="clip0">
<rect width="200" height="200" fill="white"/>
</clipPath>
</defs>
</svg>
