<svg xmlns="http://www.w3.org/2000/svg" width="167" height="200" fill="none"><rect id="backgroundrect" width="100%" height="100%" x="0" y="0" fill="none" stroke="none"/>







<g class="currentLayer" style=""><title>Layer 1</title><path d="M21.85684244842529,118.90857074737548 C24.666842448425292,112.63857074737548 27.45684244842529,106.74857074737548 29.92684244842529,100.73857074737549 C31.776842448425292,96.25857074737549 34.92684244842529,95.5785707473755 39.21684244842529,96.88857074737548 C39.95904244842529,97.06757074737548 40.615342448425295,97.49957074737549 41.07194244842529,98.1115707473755 C41.52854244842529,98.72357074737549 41.75674244842529,99.47557074737549 41.7168424484253,100.23857074737549 C41.7168424484253,107.51857074737549 41.7168424484253,114.7885707473755 41.7168424484253,122.05857074737548 C41.7168424484253,122.9485707473755 41.34684244842529,123.05857074737548 40.586842448425294,123.1085707473755 C35.98684244842529,123.31857074737547 35.98684244842529,123.33857074737548 35.98684244842529,118.76857074737549 V101.27857074737548 C35.326842448425296,101.3285707473755 35.406842448425294,101.9385707473755 35.24684244842529,102.27857074737548 C32.646842448425296,107.99857074737548 30.016842448425294,113.69857074737548 27.53684244842529,119.46857074737548 C26.42684244842529,122.04857074737549 24.796842448425295,123.46857074737548 21.906842448425294,123.4185707473755 C19.016842448425294,123.36857074737549 17.486842448425293,122.0385707473755 16.406842448425294,119.52857074737548 C13.856842448425294,113.42857074737549 11.036842448425293,107.36857074737549 8.296842448425291,101.25857074737549 C7.686842448425292,101.54857074737549 7.996842448425294,101.99857074737548 7.986842448425293,102.31857074737549 C7.986842448425293,108.72857074737549 7.986842448425293,115.1385707473755 7.986842448425293,121.54857074737549 C7.986842448425293,122.70857074737549 7.736842448425293,123.12857074737548 6.476842448425295,123.11857074737549 C2.2868424484252934,123.11857074737549 2.2868424484252934,123.11857074737549 2.2868424484252934,118.90857074737548 C2.2868424484252934,112.95857074737549 2.2868424484252934,107.01857074737549 2.2868424484252934,101.06857074737549 C2.2868424484252934,98.23857074737549 3.0768424484252925,97.26857074737549 5.8168424484252945,96.5785707473755 C9.886842448425291,95.5785707473755 12.306842448425293,96.77857074737548 13.976842448425295,100.5785707473755 C16.576842448425293,106.6085707473755 19.156842448425294,112.5785707473755 21.85684244842529,118.90857074737548 z" fill="#00608B" id="svg_1" class=""/><path d="M128.0591424484253,80.65867074737548 C127.78914244842528,82.28867074737549 127.58914244842529,83.58857074737548 127.3691424484253,84.88857074737548 C127.3401424484253,85.42777074737549 127.14714244842529,85.94527074737549 126.8171424484253,86.37237074737548 C126.48714244842529,86.79957074737548 126.03414244842529,87.11557074737549 125.5201424484253,87.27957074737549 C125.0061424484253,87.44357074737549 124.4531424484253,87.4475707473755 123.9371424484253,87.28957074737549 C123.42114244842529,87.13257074737548 122.96414244842529,86.82157074737549 122.62914244842528,86.39867074737549 C120.1791424484253,83.90867074737548 119.4191424484253,80.7386707473755 119.08914244842529,77.39867074737549 C118.75914244842528,74.05867074737549 119.65914244842529,70.63857074737548 120.58914244842529,67.39857074737549 C120.7291424484253,66.87857074737549 120.9591424484253,66.39867074737549 120.5191424484253,65.97867074737549 C118.09914244842528,63.41867074737549 117.0191424484253,60.14857074737549 116.06914244842528,56.89857074737549 C115.2981424484253,54.48307074737549 114.0571424484253,52.243570747375486 112.41914244842529,50.30857074737549 C111.5781424484253,49.35717074737549 110.88314244842529,48.28527074737549 110.35914244842529,47.12857074737549 C109.1591424484253,44.05857074737549 111.21914244842529,41.368570747375486 114.46914244842529,41.85857074737549 C117.10614244842529,42.27387074737549 119.5851424484253,43.385470747375486 121.6491424484253,45.07857074737549 C122.43814244842528,45.74987074737549 123.43314244842529,46.130970747375486 124.46914244842529,46.158570747375485 C127.77214244842529,46.289170747375486 130.9761424484253,47.32717074737549 133.7291424484253,49.158570747375485 C139.7111424484253,52.815870747375484 144.74714244842528,57.83147074737549 148.4291424484253,63.79867074737548 C149.8591424484253,66.1286707473755 150.5891424484253,68.79857074737549 151.7791424484253,71.19857074737548 C152.3301424484253,72.21067074737549 152.8171424484253,73.25607074737549 153.2391424484253,74.32867074737548 C153.8701424484253,76.2797707473755 154.9411424484253,78.06037074737549 156.36714244842528,79.53377074737548 C157.7941424484253,81.00717074737548 159.53914244842528,82.13427074737548 161.4691424484253,82.82867074737548 C165.72414244842528,84.68597074737549 169.4001424484253,87.65657074737548 172.1091424484253,91.42857074737549 C169.0591424484253,92.84857074737549 165.7491424484253,92.42857074737549 162.6791424484253,93.75857074737549 C163.22414244842528,94.81757074737548 164.12314244842528,95.65157074737549 165.2191424484253,96.11857074737549 C168.2201424484253,97.86257074737549 170.8741424484253,100.14357074737549 173.0491424484253,102.84857074737549 C173.2321424484253,103.00957074737549 173.3561424484253,103.22657074737549 173.4011424484253,103.4655707473755 C173.4471424484253,103.70457074737548 173.4101424484253,103.95257074737549 173.2991424484253,104.16857074737548 C170.12914244842528,100.9685707473755 165.65914244842529,100.02857074737548 162.2991424484253,97.26857074737549 C161.02814244842529,96.26957074737548 159.98514244842528,95.01257074737549 159.2391424484253,93.5785707473755 C158.7691424484253,92.65857074737549 159.0191424484253,92.28857074737549 159.9291424484253,91.9385707473755 C162.75414244842528,90.85357074737549 165.77814244842529,90.38357074737549 168.7991424484253,90.55857074737548 C168.8711424484253,90.36757074737548 168.8651424484253,90.15557074737549 168.78314244842528,89.9685707473755 C168.7011424484253,89.78157074737548 168.5481424484253,89.63457074737549 168.3591424484253,89.55857074737548 C164.7791424484253,87.14857074737549 161.4691424484253,84.26857074737549 157.09914244842528,83.30857074737548 C156.1891424484253,83.13497074737549 155.3381424484253,82.7365707473755 154.62214244842528,82.14977074737548 C153.9061424484253,81.56287074737548 153.3481424484253,80.80617074737549 152.9991424484253,79.94857074737548 C151.25914244842528,76.12857074737549 149.4791424484253,72.31857074737549 147.7391424484253,68.48857074737549 C143.9731424484253,59.74707074737549 136.95014244842528,52.81687074737549 128.15914244842529,49.16857074737549 C126.4591424484253,48.44857074737549 124.6491424484253,48.55857074737549 122.87914244842528,48.37857074737549 C122.01614244842528,48.30117074737549 121.1991424484253,47.950970747375486 120.5491424484253,47.37857074737549 C118.73014244842528,45.95627074737549 116.6611424484253,44.88777074737549 114.44914244842529,44.228570747375485 C114.1141424484253,44.04547074737549 113.72914244842529,43.976670747375486 113.3521424484253,44.03257074737549 C112.9741424484253,44.088570747375485 112.6261424484253,44.266270747375486 112.35914244842529,44.53857074737549 C112.1441424484253,44.85387074737549 112.0361424484253,45.22907074737549 112.0481424484253,45.61007074737549 C112.06114244842529,45.99107074737549 112.1941424484253,46.35817074737549 112.4291424484253,46.658570747375485 C112.69814244842529,47.22957074737549 113.0331424484253,47.76657074737549 113.4291424484253,48.25857074737549 C115.99914244842529,51.24277074737549 117.8351424484253,54.787470747375494 118.78914244842528,58.608570747375495 C119.3301424484253,60.92627074737548 120.50314244842528,63.048370747375486 122.1791424484253,64.73857074737549 C123.2391424484253,65.73857074737549 123.00914244842528,66.96867074737548 122.52914244842529,68.11867074737549 C120.9121424484253,71.9064707473755 120.5611424484253,76.11527074737549 121.52914244842529,80.11867074737549 C121.81314244842528,81.59847074737549 122.4241424484253,82.99607074737548 123.31914244842528,84.20857074737549 C123.6091424484253,84.56857074737549 123.9891424484253,84.9886707473755 124.46914244842529,84.83867074737549 C124.9491424484253,84.68867074737548 124.77914244842529,84.14857074737549 124.83914244842529,83.76857074737549 C125.0791424484253,82.34857074737549 125.2391424484253,80.91867074737549 125.52914244842529,79.50867074737549 C125.93914244842529,77.89617074737549 126.8581424484253,76.45857074737549 128.1491424484253,75.40867074737548 C130.08714244842528,80.66487074737549 132.7821424484253,85.6102707473755 136.1491424484253,90.08857074737548 C133.5891424484253,88.97857074737549 131.5291424484253,86.58857074737548 128.0591424484253,80.65867074737548 z" fill="#01608B" id="svg_2" class=""/><path d="M73.63484244842529,115.42857074737549 C73.63484244842529,118.42857074737549 73.63484244842529,121.42857074737549 73.63484244842529,124.42857074737549 C73.6946424484253,125.53357074737548 73.4103424484253,126.62957074737548 72.82114244842529,127.5665707473755 C72.23194244842529,128.5025707473755 71.3667424484253,129.2335707473755 70.3448424484253,129.65857074737548 C68.4719424484253,130.5535707473755 66.42044244842529,131.0115707473755 64.3448424484253,130.99857074737548 C58.91484244842529,130.99857074737548 53.4848424484253,130.9285707473755 48.05484244842529,130.99857074737548 C46.05484244842529,130.99857074737548 46.7748424484253,129.7685707473755 46.66484244842529,128.8285707473755 C46.55484244842529,127.8885707473755 46.604842448425295,127.04857074737549 48.12484244842529,127.08857074737548 C53.2648424484253,127.1985707473755 58.4048424484253,127.08857074737548 63.5448424484253,127.1385707473755 C64.46664244842529,127.1695707473755 65.3868424484253,127.04057074737548 66.2648424484253,126.7585707473755 C66.9226424484253,126.49257074737548 67.45384244842529,125.9845707473755 67.7494424484253,125.33957074737549 C68.04504244842529,124.69457074737548 68.0827424484253,123.9605707473755 67.85484244842529,123.2885707473755 C67.5648424484253,122.59857074737548 66.9848424484253,122.86857074737549 66.5148424484253,122.86857074737549 C62.88484244842529,122.86857074737549 59.24484244842529,122.86857074737549 55.60484244842529,122.86857074737549 C53.40034244842529,122.92657074737548 51.21864244842529,122.40957074737548 49.2748424484253,121.36857074737549 C48.40994244842529,120.95757074737548 47.68824244842529,120.29657074737548 47.20324244842529,119.4715707473755 C46.71824244842529,118.6455707473755 46.49234244842529,117.69357074737547 46.55484244842529,116.73857074737549 C46.66484244842529,113.2185707473755 46.65484244842529,109.73857074737549 46.55484244842529,106.17857074737549 C46.55484244842529,105.00857074737549 46.894842448425294,104.75857074737549 47.994842448425295,104.75857074737549 C52.204842448425296,104.75857074737549 52.204842448425296,104.75857074737549 52.204842448425296,108.9385707473755 C52.204842448425296,111.47857074737549 52.204842448425296,114.01857074737549 52.204842448425296,116.55857074737548 C52.204842448425296,118.4785707473755 52.82484244842529,119.30857074737548 54.704842448425296,119.3585707473755 C58.7948424484253,119.4785707473755 62.894842448425294,119.40857074737548 66.99484244842529,119.46857074737548 C67.99484244842529,119.46857074737548 67.9048424484253,118.84857074737548 67.9048424484253,118.20857074737549 C67.9048424484253,114.20857074737549 67.9048424484253,110.20857074737549 67.9048424484253,106.25857074737549 C67.9048424484253,105.03857074737549 68.24484244842529,104.70857074737549 69.44484244842529,104.7185707473755 C73.6748424484253,104.7185707473755 73.6748424484253,104.7185707473755 73.6748424484253,108.89857074737549 V115.42857074737549 H73.63484244842529 z" fill="#00608C" id="svg_3" class=""/><path d="M93.93714244842529,96.79857074737549 C96.6471424484253,96.79857074737549 99.3671424484253,96.79857074737549 102.07714244842529,96.79857074737549 C103.15714244842529,96.79857074737549 103.5871424484253,97.00857074737549 103.5371424484253,98.19857074737548 C103.4171424484253,101.19857074737548 103.79714244842529,100.5785707473755 101.1971424484253,100.59857074737549 C96.6371424484253,100.59857074737549 92.07714244842529,100.59857074737549 87.5174424484253,100.59857074737549 C84.0074424484253,100.59857074737549 82.41744244842529,103.45857074737549 84.07744244842529,106.59857074737549 C84.7874424484253,107.95857074737549 86.07744244842529,108.03857074737549 87.3674424484253,108.06857074737549 C89.84714244842529,108.12857074737549 92.3671424484253,108.06857074737549 94.81714244842529,108.06857074737549 C96.9151424484253,108.04757074737549 98.9831424484253,108.57057074737548 100.81714244842529,109.58857074737548 C101.6411424484253,109.9595707473755 102.3281424484253,110.57757074737549 102.7831424484253,111.35757074737549 C103.2381424484253,112.13757074737549 103.43914244842529,113.03957074737549 103.3571424484253,113.9385707473755 C103.3571424484253,114.33857074737548 103.3571424484253,114.74857074737548 103.3571424484253,115.14857074737549 C103.3571424484253,119.89857074737549 101.67714244842529,121.89857074737549 96.93714244842529,122.7285707473755 C96.0901424484253,122.89057074737548 95.2301424484253,122.9775707473755 94.3671424484253,122.98857074737549 C89.3671424484253,122.98857074737549 84.43744244842529,122.98857074737549 79.46744244842529,122.98857074737549 C78.52744244842529,122.98857074737549 78.0174424484253,122.9185707473755 78.0374424484253,121.7285707473755 C78.0374424484253,119.1685707473755 78.0374424484253,119.1685707473755 80.5974424484253,119.1685707473755 H93.40714244842529 C94.5101424484253,119.27257074737548 95.61814244842529,119.0205707473755 96.56714244842529,118.4485707473755 C98.3971424484253,117.1085707473755 97.56714244842529,115.14857074737549 97.56714244842529,113.44857074737548 C97.56714244842529,112.1885707473755 96.26714244842529,111.6885707473755 95.1471424484253,111.61857074737549 C92.7871424484253,111.47857074737549 90.42714244842529,111.49857074737548 88.0571424484253,111.4685707473755 C85.7438424484253,111.52257074737548 83.4466424484253,111.06857074737549 81.32744244842529,110.13857074737548 C79.2274424484253,109.13857074737548 77.90744244842529,107.59857074737549 78.1774424484253,105.13857074737548 C78.19744244842529,104.9655707473755 78.19744244842529,104.79157074737549 78.1774424484253,104.61857074737549 C77.60744244842529,98.9685707473755 80.7274424484253,97.17857074737549 85.71744244842529,96.77857074737548 C88.46714244842529,96.55857074737548 91.2571424484253,96.77857074737548 94.0271424484253,96.77857074737548 L93.93714244842529,96.79857074737549 z" fill="#00608C" id="svg_4" class=""/><path d="M138.8571424484253,107.3285707473755 C138.8571424484253,104.2185707473755 138.8571424484253,101.09857074737549 138.8571424484253,97.97857074737549 C138.8571424484253,97.1085707473755 139.0471424484253,96.79857074737549 139.99714244842528,96.76857074737549 C144.55714244842528,96.6085707473755 144.55714244842528,96.5785707473755 144.55714244842528,101.12857074737549 C144.55714244842528,105.91857074737548 144.55714244842528,110.7185707473755 144.55714244842528,115.5085707473755 C144.55714244842528,118.30857074737548 145.36714244842528,119.18857074737548 148.30714244842528,119.23857074737549 C153.0371424484253,119.3285707473755 157.77714244842528,119.36857074737549 162.5071424484253,119.23857074737549 C164.2071424484253,119.18857074737548 164.1371424484253,119.99857074737548 164.14714244842529,121.23857074737549 C164.1571424484253,122.4785707473755 164.14714244842529,123.23857074737549 162.4771424484253,123.1685707473755 C157.0071424484253,122.92857074737549 151.4771424484253,123.43857074737548 146.0371424484253,122.84857074737548 C144.7151424484253,122.70657074737548 143.4271424484253,122.3405707473755 142.2271424484253,121.76857074737549 C141.1831424484253,121.32157074737549 140.30114244842528,120.56557074737549 139.70014244842528,119.60157074737549 C139.09914244842528,118.63757074737549 138.8081424484253,117.51257074737549 138.86714244842528,116.37857074737548 C138.8571424484253,113.33857074737548 138.8571424484253,110.33857074737548 138.8571424484253,107.3285707473755 z" fill="#00608C" id="svg_5" class=""/><path d="M122.8571424484253,52.94837074737549 C123.10114244842529,52.78647074737549 123.3761424484253,52.67787074737549 123.66414244842528,52.62957074737548 C123.9531424484253,52.581170747375495 124.24814244842528,52.59427074737549 124.5311424484253,52.66787074737549 C124.81414244842529,52.74147074737549 125.0791424484253,52.873970747375495 125.30714244842528,53.05667074737549 C125.5361424484253,53.23947074737549 125.7231424484253,53.46837074737549 125.8571424484253,53.72837074737549 C126.6071424484253,54.72837074737549 126.30714244842528,55.72837074737549 125.3571424484253,56.72837074737549 C124.6981424484253,55.361270747375485 123.8571424484253,54.08977074737548 122.8571424484253,52.94837074737549 z" fill="#106B95" id="svg_6" class=""/><path d="M131.86114244842528,121.9185707473755 C134.77114244842528,120.7585707473755 135.3111424484253,118.46857074737548 135.27114244842528,115.81857074737547 C135.2211424484253,112.12857074737549 135.27114244842528,108.42857074737549 135.27114244842528,104.73857074737549 C135.27114244842528,99.83857074737548 133.6711424484253,97.73857074737549 128.7311424484253,97.12857074737549 C123.57714244842529,96.55857074737548 118.3751424484253,96.55857074737548 113.2211424484253,97.12857074737549 C112.3631424484253,97.25157074737548 111.5251424484253,97.4895707473755 110.73114244842529,97.83857074737548 C109.5661424484253,98.2125707473755 108.5601424484253,98.96457074737549 107.8721424484253,99.97557074737549 C107.18314244842529,100.9865707473755 106.8521424484253,102.19857074737548 106.93114244842529,103.41857074737548 C106.93114244842529,107.41857074737548 106.93114244842529,111.41857074737548 106.93114244842529,115.34857074737548 C106.93114244842529,119.9485707473755 108.4111424484253,121.83857074737548 112.93114244842529,122.80857074737548 C116.17214244842529,123.4015707473755 119.48714244842529,123.47557074737549 122.7511424484253,123.02857074737548 C123.9531424484253,122.8115707473755 125.1911424484253,122.92257074737549 126.3351424484253,123.35057074737549 C127.4791424484253,123.77857074737548 128.48614244842528,124.50657074737549 129.2511424484253,125.45857074737549 C129.7811424484253,126.0785707473755 130.33114244842528,126.9185707473755 131.2511424484253,126.9485707473755 C133.1711424484253,126.9485707473755 135.0911424484253,126.9485707473755 137.4411424484253,126.9485707473755 L131.86114244842528,121.9185707473755 zM129.4311424484253,117.9185707473755 C128.9011424484253,118.65857074737548 128.2911424484253,118.99857074737548 127.6611424484253,118.11857074737549 C125.36114244842528,114.89857074737549 122.04114244842529,114.79857074737549 118.58114244842528,115.11857074737549 C118.4311424484253,115.11857074737549 118.29114244842529,115.18857074737548 117.92114244842529,115.27857074737548 L122.3711424484253,119.36857074737549 C119.85114244842529,119.30857074737548 117.7111424484253,119.59857074737548 115.5811424484253,119.15857074737548 C114.85314244842529,119.05657074737547 114.19214244842529,118.68157074737547 113.7321424484253,118.1095707473755 C113.2711424484253,117.53657074737549 113.0451424484253,116.8105707473755 113.10114244842529,116.0785707473755 C113.10114244842529,111.92857074737549 113.10114244842529,107.76857074737549 113.10114244842529,103.61857074737549 C113.0751424484253,103.06557074737549 113.2331424484253,102.51957074737548 113.5491424484253,102.06557074737549 C113.8661424484253,101.61257074737549 114.32314244842529,101.27557074737548 114.85114244842529,101.1085707473755 C115.48714244842529,100.84857074737549 116.16414244842528,100.7035707473755 116.85114244842529,100.67857074737549 C119.9611424484253,100.67857074737549 123.08114244842528,100.58857074737548 126.1911424484253,100.67857074737549 C128.9111424484253,100.74857074737548 129.89114244842528,101.84857074737549 129.89114244842528,104.53857074737549 V115.7885707473755 C129.9841424484253,116.53057074737549 129.8301424484253,117.28357074737548 129.4511424484253,117.92857074737549 L129.4311424484253,117.9185707473755 z" fill="#00608C" id="svg_7" class=""/></g></svg>