<svg xmlns="http://www.w3.org/2000/svg" width="200" height="200" fill="none" style=""><rect id="backgroundrect" width="100%" height="100%" x="0" y="0" fill="none" stroke="none" class="" style=""/>







<g class="currentLayer" style=""><title>Layer 1</title><path d="M34.93376575918197,120.44703228354453 C37.743765759181976,114.17703228354453 40.533765759181975,108.28703228354453 43.003765759181974,102.27703228354454 C44.853765759181975,97.79703228354454 48.003765759181974,97.11703228354455 52.29376575918197,98.42703228354453 C53.03596575918198,98.60603228354454 53.69226575918198,99.03803228354454 54.14886575918197,99.65003228354455 C54.605465759181975,100.26203228354454 54.833665759181976,101.01403228354454 54.79376575918198,101.77703228354454 C54.79376575918198,109.05703228354454 54.79376575918198,116.32703228354455 54.79376575918198,123.59703228354454 C54.79376575918198,124.48703228354455 54.423765759181975,124.59703228354454 53.66376575918198,124.64703228354455 C49.063765759181976,124.85703228354453 49.063765759181976,124.87703228354454 49.063765759181976,120.30703228354454 V102.81703228354453 C48.40376575918198,102.86703228354455 48.48376575918198,103.47703228354455 48.323765759181974,103.81703228354453 C45.72376575918198,109.53703228354453 43.09376575918198,115.23703228354454 40.61376575918197,121.00703228354453 C39.503765759181974,123.58703228354454 37.87376575918198,125.00703228354453 34.98376575918198,124.95703228354455 C32.09376575918198,124.90703228354454 30.563765759181976,123.57703228354455 29.483765759181978,121.06703228354453 C26.933765759181977,114.96703228354454 24.113765759181977,108.90703228354454 21.373765759181975,102.79703228354454 C20.763765759181975,103.08703228354454 21.073765759181978,103.53703228354453 21.063765759181976,103.85703228354454 C21.063765759181976,110.26703228354454 21.063765759181976,116.67703228354455 21.063765759181976,123.08703228354454 C21.063765759181976,124.24703228354454 20.813765759181976,124.66703228354453 19.553765759181978,124.65703228354454 C15.363765759181977,124.65703228354454 15.363765759181977,124.65703228354454 15.363765759181977,120.44703228354453 C15.363765759181977,114.49703228354454 15.363765759181977,108.55703228354454 15.363765759181977,102.60703228354454 C15.363765759181977,99.77703228354454 16.153765759181976,98.80703228354454 18.893765759181978,98.11703228354455 C22.963765759181975,97.11703228354455 25.383765759181976,98.31703228354453 27.053765759181978,102.11703228354455 C29.653765759181976,108.14703228354455 32.23376575918198,114.11703228354455 34.93376575918197,120.44703228354453 z" fill="#00608B" id="svg_1" class=""/><path d="M141.13606575918197,82.19713228354453 C140.86606575918196,83.82713228354454 140.66606575918198,85.12703228354454 140.44606575918198,86.42703228354453 C140.41706575918198,86.96623228354454 140.22406575918197,87.48373228354454 139.89406575918198,87.91083228354454 C139.56406575918197,88.33803228354454 139.11106575918197,88.65403228354454 138.597065759182,88.81803228354454 C138.08306575918198,88.98203228354454 137.53006575918198,88.98603228354455 137.014065759182,88.82803228354454 C136.49806575918197,88.67103228354453 136.04106575918198,88.36003228354454 135.70606575918197,87.93713228354454 C133.25606575918198,85.44713228354453 132.496065759182,82.27713228354455 132.16606575918198,78.93713228354454 C131.83606575918196,75.59713228354454 132.73606575918197,72.17703228354453 133.66606575918198,68.93703228354454 C133.806065759182,68.41703228354454 134.03606575918198,67.93713228354454 133.59606575918198,67.51713228354454 C131.17606575918197,64.95713228354455 130.09606575918198,61.68703228354454 129.14606575918197,58.43703228354454 C128.37506575918198,56.021532283544545 127.13406575918198,53.78203228354454 125.49606575918197,51.84703228354454 C124.65506575918198,50.89563228354454 123.96006575918197,49.823732283544544 123.43606575918197,48.66703228354454 C122.23606575918198,45.59703228354454 124.29606575918197,42.90703228354454 127.54606575918197,43.39703228354454 C130.18306575918197,43.81233228354454 132.66206575918198,44.92393228354454 134.72606575918198,46.61703228354454 C135.51506575918197,47.28833228354454 136.51006575918197,47.66943228354454 137.54606575918197,47.69703228354454 C140.84906575918197,47.82763228354454 144.05306575918198,48.86563228354454 146.806065759182,50.69703228354454 C152.788065759182,54.35433228354454 157.82406575918196,59.36993228354454 161.50606575918198,65.33713228354453 C162.936065759182,67.66713228354455 163.66606575918198,70.33703228354454 164.85606575918197,72.73703228354454 C165.407065759182,73.74913228354454 165.89406575918198,74.79453228354454 166.31606575918198,75.86713228354454 C166.94706575918198,77.81823228354455 168.01806575918198,79.59883228354454 169.44406575918197,81.07223228354454 C170.871065759182,82.54563228354453 172.61606575918196,83.67273228354453 174.54606575918197,84.36713228354454 C178.80106575918197,86.22443228354454 182.47706575918198,89.19503228354453 185.186065759182,92.96703228354454 C182.13606575918197,94.38703228354454 178.82606575918197,93.96703228354454 175.75606575918198,95.29703228354454 C176.30106575918197,96.35603228354454 177.20006575918197,97.19003228354454 178.29606575918197,97.65703228354454 C181.29706575918198,99.40103228354454 183.95106575918197,101.68203228354454 186.12606575918198,104.38703228354454 C186.30906575918198,104.54803228354454 186.43306575918197,104.76503228354454 186.478065759182,105.00403228354455 C186.52406575918198,105.24303228354454 186.48706575918197,105.49103228354454 186.37606575918198,105.70703228354454 C183.20606575918197,102.50703228354455 178.73606575918197,101.56703228354453 175.37606575918198,98.80703228354454 C174.10506575918197,97.80803228354453 173.06206575918196,96.55103228354454 172.31606575918198,95.11703228354455 C171.84606575918198,94.19703228354454 172.09606575918198,93.82703228354454 173.00606575918198,93.47703228354455 C175.83106575918197,92.39203228354454 178.85506575918197,91.92203228354454 181.87606575918198,92.09703228354454 C181.948065759182,91.90603228354453 181.942065759182,91.69403228354454 181.86006575918196,91.50703228354455 C181.77806575918197,91.32003228354453 181.62506575918198,91.17303228354454 181.436065759182,91.09703228354454 C177.85606575918197,88.68703228354454 174.54606575918197,85.80703228354454 170.17606575918197,84.84703228354454 C169.26606575918197,84.67343228354454 168.41506575918197,84.27503228354455 167.69906575918196,83.68823228354454 C166.98306575918198,83.10133228354454 166.425065759182,82.34463228354454 166.07606575918197,81.48703228354454 C164.33606575918196,77.66703228354454 162.556065759182,73.85703228354454 160.81606575918198,70.02703228354454 C157.050065759182,61.28553228354454 150.02706575918197,54.35533228354454 141.23606575918197,50.70703228354454 C139.53606575918198,49.98703228354454 137.72606575918198,50.09703228354454 135.95606575918197,49.91703228354454 C135.09306575918197,49.83963228354454 134.276065759182,49.48943228354454 133.62606575918198,48.91703228354454 C131.80706575918197,47.49473228354454 129.73806575918198,46.42623228354454 127.52606575918198,45.76703228354454 C127.19106575918198,45.58393228354454 126.80606575918198,45.51513228354454 126.42906575918198,45.57103228354454 C126.05106575918198,45.62703228354454 125.70306575918198,45.80473228354454 125.43606575918197,46.07703228354454 C125.22106575918198,46.39233228354454 125.11306575918198,46.76753228354454 125.12506575918198,47.14853228354454 C125.13806575918197,47.52953228354454 125.27106575918198,47.89663228354454 125.50606575918198,48.19703228354454 C125.77506575918197,48.76803228354454 126.11006575918198,49.30503228354454 126.50606575918198,49.79703228354454 C129.07606575918197,52.78123228354454 130.91206575918198,56.325932283544546 131.86606575918196,60.14703228354455 C132.407065759182,62.464732283544535 133.58006575918196,64.58683228354454 135.25606575918198,66.27703228354454 C136.31606575918198,67.27703228354454 136.08606575918196,68.50713228354454 135.60606575918197,69.65713228354454 C133.98906575918198,73.44493228354455 133.63806575918198,77.65373228354454 134.60606575918197,81.65713228354454 C134.89006575918197,83.13693228354454 135.50106575918198,84.53453228354454 136.39606575918197,85.74703228354454 C136.686065759182,86.10703228354454 137.06606575918198,86.52713228354455 137.54606575918197,86.37713228354454 C138.026065759182,86.22713228354453 137.85606575918197,85.68703228354454 137.91606575918198,85.30703228354454 C138.15606575918198,83.88703228354454 138.31606575918198,82.45713228354454 138.60606575918197,81.04713228354454 C139.01606575918197,79.43463228354454 139.93506575918198,77.99703228354454 141.22606575918198,76.94713228354453 C143.16406575918197,82.20333228354454 145.859065759182,87.14873228354455 149.22606575918198,91.62703228354454 C146.66606575918198,90.51703228354454 144.60606575918197,88.12703228354454 141.13606575918197,82.19713228354453 z" fill="#01608B" id="svg_2" class=""/><path d="M86.71176575918197,116.96703228354454 C86.71176575918197,119.96703228354454 86.71176575918197,122.96703228354454 86.71176575918197,125.96703228354454 C86.77156575918198,127.07203228354453 86.48726575918198,128.16803228354453 85.89806575918197,129.10503228354455 C85.30886575918197,130.04103228354455 84.44366575918198,130.77203228354455 83.42176575918198,131.19703228354453 C81.54886575918198,132.09203228354454 79.49736575918197,132.55003228354454 77.42176575918198,132.53703228354453 C71.99176575918197,132.53703228354453 66.56176575918198,132.46703228354454 61.131765759181974,132.53703228354453 C59.131765759181974,132.53703228354453 59.85176575918199,131.30703228354454 59.74176575918197,130.36703228354455 C59.631765759181974,129.42703228354455 59.68176575918198,128.58703228354454 61.201765759181974,128.62703228354454 C66.34176575918198,128.73703228354455 71.48176575918198,128.62703228354454 76.62176575918198,128.67703228354455 C77.54356575918197,128.70803228354455 78.46376575918198,128.57903228354454 79.34176575918198,128.29703228354455 C79.99956575918198,128.03103228354453 80.53076575918197,127.52303228354455 80.82636575918198,126.87803228354454 C81.12196575918198,126.23303228354453 81.15966575918198,125.49903228354455 80.93176575918197,124.82703228354455 C80.64176575918198,124.13703228354453 80.06176575918198,124.40703228354454 79.59176575918198,124.40703228354454 C75.96176575918197,124.40703228354454 72.32176575918197,124.40703228354454 68.68176575918197,124.40703228354454 C66.47726575918198,124.46503228354453 64.29556575918198,123.94803228354453 62.35176575918198,122.90703228354454 C61.486865759181974,122.49603228354454 60.765165759181976,121.83503228354454 60.280165759181976,121.01003228354455 C59.79516575918198,120.18403228354455 59.569265759181974,119.23203228354453 59.631765759181974,118.27703228354454 C59.74176575918197,114.75703228354455 59.731765759181975,111.27703228354454 59.631765759181974,107.71703228354454 C59.631765759181974,106.54703228354454 59.97176575918198,106.29703228354454 61.07176575918198,106.29703228354454 C65.28176575918198,106.29703228354454 65.28176575918198,106.29703228354454 65.28176575918198,110.47703228354455 C65.28176575918198,113.01703228354454 65.28176575918198,115.55703228354454 65.28176575918198,118.09703228354454 C65.28176575918198,120.01703228354455 65.90176575918197,120.84703228354454 67.78176575918198,120.89703228354455 C71.87176575918198,121.01703228354455 75.97176575918198,120.94703228354453 80.07176575918197,121.00703228354453 C81.07176575918197,121.00703228354453 80.98176575918198,120.38703228354453 80.98176575918198,119.74703228354454 C80.98176575918198,115.74703228354454 80.98176575918198,111.74703228354454 80.98176575918198,107.79703228354454 C80.98176575918198,106.57703228354454 81.32176575918197,106.24703228354454 82.52176575918197,106.25703228354455 C86.75176575918198,106.25703228354455 86.75176575918198,106.25703228354455 86.75176575918198,110.43703228354454 V116.96703228354454 H86.71176575918197 z" fill="#00608C" id="svg_3" class=""/><path d="M107.01406575918197,98.33703228354454 C109.72406575918198,98.33703228354454 112.44406575918198,98.33703228354454 115.15406575918198,98.33703228354454 C116.23406575918197,98.33703228354454 116.66406575918198,98.54703228354454 116.61406575918198,99.73703228354454 C116.49406575918198,102.73703228354454 116.87406575918197,102.11703228354455 114.27406575918198,102.13703228354454 C109.71406575918198,102.13703228354454 105.15406575918198,102.13703228354454 100.59436575918198,102.13703228354454 C97.08436575918198,102.13703228354454 95.49436575918197,104.99703228354454 97.15436575918197,108.13703228354454 C97.86436575918198,109.49703228354454 99.15436575918197,109.57703228354454 100.44436575918198,109.60703228354454 C102.92406575918197,109.66703228354454 105.44406575918198,109.60703228354454 107.89406575918197,109.60703228354454 C109.99206575918198,109.58603228354454 112.06006575918198,110.10903228354454 113.89406575918197,111.12703228354454 C114.71806575918198,111.49803228354455 115.40506575918198,112.11603228354454 115.86006575918198,112.89603228354454 C116.31506575918198,113.67603228354454 116.51606575918197,114.57803228354454 116.43406575918198,115.47703228354455 C116.43406575918198,115.87703228354454 116.43406575918198,116.28703228354453 116.43406575918198,116.68703228354454 C116.43406575918198,121.43703228354454 114.75406575918197,123.43703228354454 110.01406575918197,124.26703228354455 C109.16706575918198,124.42903228354453 108.30706575918198,124.51603228354455 107.44406575918198,124.52703228354454 C102.44406575918198,124.52703228354454 97.51436575918197,124.52703228354454 92.54436575918197,124.52703228354454 C91.60436575918197,124.52703228354454 91.09436575918198,124.45703228354455 91.11436575918198,123.26703228354455 C91.11436575918198,120.70703228354455 91.11436575918198,120.70703228354455 93.67436575918198,120.70703228354455 H106.48406575918197 C107.58706575918198,120.81103228354453 108.69506575918197,120.55903228354455 109.64406575918197,119.98703228354455 C111.47406575918198,118.64703228354455 110.64406575918197,116.68703228354454 110.64406575918197,114.98703228354454 C110.64406575918197,113.72703228354455 109.34406575918197,113.22703228354455 108.22406575918198,113.15703228354454 C105.86406575918198,113.01703228354454 103.50406575918197,113.03703228354453 101.13406575918198,113.00703228354455 C98.82076575918198,113.06103228354453 96.52356575918198,112.60703228354454 94.40436575918197,111.67703228354453 C92.30436575918198,110.67703228354453 90.98436575918197,109.13703228354454 91.25436575918198,106.67703228354453 C91.27436575918198,106.50403228354455 91.27436575918198,106.33003228354454 91.25436575918198,106.15703228354454 C90.68436575918197,100.50703228354455 93.80436575918198,98.71703228354454 98.79436575918197,98.31703228354453 C101.54406575918198,98.09703228354454 104.33406575918198,98.31703228354453 107.10406575918198,98.31703228354453 L107.01406575918197,98.33703228354454 z" fill="#00608C" id="svg_4" class=""/><path d="M151.93406575918198,108.86703228354455 C151.93406575918198,105.75703228354455 151.93406575918198,102.63703228354454 151.93406575918198,99.51703228354454 C151.93406575918198,98.64703228354455 152.12406575918197,98.33703228354454 153.07406575918196,98.30703228354454 C157.63406575918196,98.14703228354455 157.63406575918196,98.11703228354455 157.63406575918196,102.66703228354454 C157.63406575918196,107.45703228354454 157.63406575918196,112.25703228354455 157.63406575918196,117.04703228354455 C157.63406575918196,119.84703228354454 158.44406575918197,120.72703228354453 161.38406575918196,120.77703228354454 C166.11406575918198,120.86703228354455 170.85406575918196,120.90703228354454 175.58406575918198,120.77703228354454 C177.28406575918197,120.72703228354453 177.21406575918198,121.53703228354453 177.22406575918197,122.77703228354454 C177.234065759182,124.01703228354455 177.22406575918197,124.77703228354454 175.55406575918198,124.70703228354455 C170.08406575918198,124.46703228354454 164.55406575918198,124.97703228354453 159.11406575918198,124.38703228354453 C157.79206575918198,124.24503228354453 156.50406575918197,123.87903228354455 155.30406575918198,123.30703228354454 C154.26006575918197,122.86003228354454 153.37806575918196,122.10403228354454 152.77706575918197,121.14003228354454 C152.17606575918197,120.17603228354454 151.88506575918197,119.05103228354454 151.94406575918197,117.91703228354453 C151.93406575918198,114.87703228354454 151.93406575918198,111.87703228354454 151.93406575918198,108.86703228354455 z" fill="#00608C" id="svg_5" class=""/><path d="M135.93406575918198,54.486832283544544 C136.17806575918198,54.32493228354454 136.45306575918198,54.216332283544546 136.74106575918196,54.168032283544534 C137.03006575918198,54.11963228354455 137.32506575918197,54.13273228354454 137.60806575918198,54.20633228354454 C137.89106575918197,54.27993228354454 138.15606575918198,54.41243228354455 138.38406575918196,54.595132283544544 C138.61306575918198,54.777932283544544 138.800065759182,55.00683228354454 138.93406575918198,55.266832283544545 C139.68406575918198,56.266832283544545 139.38406575918196,57.266832283544545 138.43406575918198,58.266832283544545 C137.77506575918198,56.89973228354454 136.93406575918198,55.628232283544534 135.93406575918198,54.486832283544544 z" fill="#106B95" id="svg_6" class=""/><path d="M144.93806575918197,123.45703228354455 C147.84806575918196,122.29703228354455 148.38806575918198,120.00703228354453 148.34806575918196,117.35703228354453 C148.29806575918198,113.66703228354454 148.34806575918196,109.96703228354454 148.34806575918196,106.27703228354454 C148.34806575918196,101.37703228354454 146.748065759182,99.27703228354454 141.80806575918197,98.66703228354454 C136.65406575918198,98.09703228354454 131.45206575918198,98.09703228354454 126.29806575918198,98.66703228354454 C125.44006575918198,98.79003228354453 124.60206575918198,99.02803228354455 123.80806575918197,99.37703228354454 C122.64306575918198,99.75103228354455 121.63706575918198,100.50303228354454 120.94906575918198,101.51403228354454 C120.26006575918197,102.52503228354455 119.92906575918198,103.73703228354454 120.00806575918197,104.95703228354454 C120.00806575918197,108.95703228354454 120.00806575918197,112.95703228354454 120.00806575918197,116.88703228354453 C120.00806575918197,121.48703228354455 121.48806575918198,123.37703228354454 126.00806575918197,124.34703228354454 C129.24906575918197,124.94003228354455 132.56406575918197,125.01403228354454 135.82806575918198,124.56703228354453 C137.03006575918198,124.35003228354455 138.26806575918198,124.46103228354454 139.41206575918198,124.88903228354454 C140.556065759182,125.31703228354453 141.56306575918197,126.04503228354454 142.32806575918198,126.99703228354454 C142.85806575918198,127.61703228354455 143.40806575918197,128.45703228354455 144.32806575918198,128.48703228354455 C146.24806575918197,128.48703228354455 148.16806575918199,128.48703228354455 150.51806575918198,128.48703228354455 L144.93806575918197,123.45703228354455 zM142.508065759182,119.45703228354455 C141.978065759182,120.19703228354453 141.36806575918197,120.53703228354453 140.73806575918198,119.65703228354454 C138.43806575918197,116.43703228354454 135.11806575918197,116.33703228354454 131.65806575918197,116.65703228354454 C131.508065759182,116.65703228354454 131.36806575918197,116.72703228354453 130.99806575918197,116.81703228354453 L135.448065759182,120.90703228354454 C132.92806575918198,120.84703228354454 130.788065759182,121.13703228354453 128.65806575918197,120.69703228354453 C127.93006575918197,120.59503228354453 127.26906575918197,120.22003228354453 126.80906575918198,119.64803228354455 C126.34806575918198,119.07503228354454 126.12206575918198,118.34903228354455 126.17806575918198,117.61703228354455 C126.17806575918198,113.46703228354454 126.17806575918198,109.30703228354454 126.17806575918198,105.15703228354454 C126.15206575918198,104.60403228354454 126.31006575918198,104.05803228354453 126.62606575918198,103.60403228354454 C126.94306575918198,103.15103228354454 127.40006575918197,102.81403228354453 127.92806575918198,102.64703228354455 C128.56406575918197,102.38703228354454 129.24106575918196,102.24203228354455 129.92806575918198,102.21703228354454 C133.038065759182,102.21703228354454 136.15806575918197,102.12703228354454 139.26806575918198,102.21703228354454 C141.98806575918198,102.28703228354453 142.96806575918197,103.38703228354454 142.96806575918197,106.07703228354454 V117.32703228354455 C143.061065759182,118.06903228354454 142.907065759182,118.82203228354453 142.52806575918197,119.46703228354454 L142.508065759182,119.45703228354455 z" fill="#00608C" id="svg_7" class=""/></g></svg>