<svg width="200" height="200" viewBox="0 0 200 200" fill="none" xmlns="http://www.w3.org/2000/svg">
<path d="M106.053 28.4008C103.643 31.8708 99.6428 32.2408 96.1528 30.7008C95.6251 30.5334 95.1564 30.2184 94.802 29.7932C94.4476 29.3679 94.2223 28.85 94.1528 28.3008C94.8524 27.3815 95.7567 26.638 96.7939 26.1294C97.8311 25.6207 98.9726 25.3609 100.128 25.3706C101.283 25.3803 102.42 25.6593 103.449 26.1853C104.477 26.7113 105.369 27.4699 106.053 28.4008V28.4008Z" fill="#9E22E9"/>
<path d="M78.3519 108.39C83.3852 106.09 88.4685 103.92 93.6019 101.88C94.5419 102.62 95.6919 102.33 96.7419 102.45C98.9075 102.645 101.086 102.645 103.252 102.45C107.857 102.255 112.447 101.805 117.002 101.1C118.892 100.77 120.762 100.36 122.652 100.03C123.362 99.9102 124.092 99.7102 124.722 100.29C124.428 103.01 123.997 105.713 123.432 108.39C123.272 109.27 122.622 109.51 121.862 109.63C117.062 110.38 112.282 111.13 107.412 111.43C103.709 111.769 99.9891 111.89 96.2719 111.79C93.1919 111.6 90.1019 111.28 87.0319 110.91C84.8219 110.64 82.6019 110.41 80.4119 110.03C79.4519 109.87 78.4219 109.7 78.3519 108.39Z" fill="#9E22E9"/>
<path d="M158.331 96.8904C161.216 97.8223 164.028 98.9689 166.741 100.32C167.141 101.08 166.441 101.32 166.061 101.67C164.891 102.611 163.616 103.413 162.261 104.06C154.521 108.41 146.611 112.34 138.061 114.9C134.791 115.9 131.601 117.04 128.181 117.39C127.722 117.172 127.362 116.787 127.176 116.313C126.991 115.84 126.992 115.313 127.181 114.84C127.601 113.23 127.811 111.56 128.111 109.92C128.567 109.494 129.131 109.2 129.741 109.07C135.371 107.92 140.581 105.59 145.871 103.47C150.186 101.596 154.351 99.3963 158.331 96.8904V96.8904Z" fill="#9E22E9"/>
<path d="M47.9973 74.4207L53.9973 68.4207C55.9973 69.8307 57.9173 71.2707 59.9973 72.5907C64.8012 75.814 70.0545 78.3109 75.5873 80.0006C77.5873 80.5906 79.5173 81.5806 81.6773 81.7706C82.0748 81.7987 82.4609 81.9158 82.807 82.1131C83.1532 82.3104 83.4506 82.583 83.6773 82.9107C82.3873 85.1807 80.9573 87.3606 79.4473 89.4906C77.9873 89.7906 76.7373 89.0206 75.4473 88.6606C68.6836 86.744 62.2087 83.9254 56.1973 80.2806C53.2648 78.6222 50.5162 76.6579 47.9973 74.4207V74.4207Z" fill="#9E22E9"/>
<path d="M158.333 96.8903C157.723 97.7372 156.917 98.4235 155.983 98.8903C149.791 102.4 143.287 105.326 136.553 107.63C133.795 108.62 130.967 109.402 128.093 109.97C128.452 106.621 128.99 103.293 129.703 100C131.373 98.7603 133.393 98.3803 135.293 97.7303C139.162 96.4046 142.892 94.7067 146.433 92.6603C146.753 92.4803 147.133 92.4703 147.433 92.2603C150.5 93.3263 153.505 94.5649 156.433 95.9703C157.083 96.2403 157.703 96.5803 158.333 96.8903Z" fill="#9E22E9"/>
<path d="M82.7119 125.5L76.7119 116.99C76.4219 116.57 76.0619 116.23 76.4319 115.61C76.8019 114.99 77.4319 115.12 77.9219 115.23L93.9219 118.51C100.712 119.91 107.502 121.34 114.312 122.68C115.652 122.94 116.482 123.45 116.662 124.84C116.842 126.23 115.802 125.9 115.152 125.94C112.732 126.1 110.322 126.51 107.902 126.53C100.902 126.6 93.8219 126.91 86.8119 126.08C85.4419 125.91 84.0019 126.33 82.7119 125.5Z" fill="#9E22E9"/>
<path d="M127 49.1902C128.53 50.6902 130 52.1902 131.61 53.6802C132.38 54.3902 131.91 55.0802 131.8 55.7902C131.29 57.3702 129.9 58.1102 128.64 58.8602C123.647 62.0097 118.156 64.2887 112.4 65.6002C109.61 66.1602 106.77 66.4702 103.97 66.9702C103.745 67.0364 103.507 67.0445 103.278 66.9938C103.049 66.9431 102.837 66.8352 102.66 66.6802C101.36 64.7902 101.57 63.0802 103.08 61.3502C104.022 60.1364 104.89 58.8675 105.68 57.5502C108.8 57.7202 111.68 56.7202 114.55 55.7102C118.392 54.3228 121.997 52.3531 125.24 49.8702C125.78 49.4702 126.27 49.0002 127 49.1902Z" fill="#9E22E9"/>
<path d="M124.719 100.289C122.629 100.229 120.719 100.999 118.639 101.289C114.439 101.809 110.299 102.779 105.999 102.689C103.629 102.689 101.219 103.199 98.7988 103.089C97.2088 103.009 95.6188 102.909 94.0388 102.779C93.4988 102.779 93.3388 102.399 93.5988 101.909C103.932 97.4693 114.265 93.0293 124.599 88.5893C125.759 88.0893 126.709 88.6593 126.529 89.7893C125.999 93.2793 125.329 96.7793 124.719 100.289Z" fill="#9E22E9"/>
<path d="M47.9967 74.4204C50.2467 75.4204 51.9967 77.0804 53.9967 78.4204C57.6879 80.7847 61.5445 82.8801 65.5367 84.6904C69.9667 86.7904 74.7467 87.9204 79.3867 89.4604C77.82 92.1271 76.1534 94.7171 74.3867 97.2304C73.1567 97.6104 72.0667 96.9704 70.9667 96.6704C67.2074 95.5672 63.5396 94.173 59.9967 92.5004L48.0567 75.2204C47.8767 75.0004 47.6967 74.7104 47.9967 74.4204Z" fill="#9E22E9"/>
<path d="M81.7471 132.741C83.7784 135.331 85.655 138.039 87.3671 140.851C87.0871 141.961 86.6571 142.141 85.0971 142.021C82.0571 141.781 79.0571 141.391 76.0971 140.851C70.6171 139.851 65.0971 139.091 59.7871 137.291C59.7871 137.291 59.6871 137.291 59.6571 137.221C56.1871 134.221 56.1771 134.221 58.6571 130.351C59.1071 129.661 59.5771 129.001 60.0371 128.351C61.3724 128.448 62.6845 128.752 63.9271 129.251C68.8671 130.511 73.9271 131.451 78.9271 132.421C79.7971 132.581 80.7971 132.461 81.7471 132.741Z" fill="#9E22E9"/>
<path d="M113.211 77.6299L122.711 81.6299C123.141 81.8099 123.621 81.9499 123.421 82.6299C123.261 83.5399 122.581 83.8599 121.791 84.0599C115.561 85.7859 109.136 86.7134 102.671 86.8199C98.9018 86.9333 95.1287 86.8264 91.3715 86.4999C90.5967 86.4097 89.8329 86.2422 89.0915 85.9999C88.5715 85.8399 87.9315 85.7399 87.9715 84.9999C89.164 82.8297 90.5003 80.7417 91.9715 78.7499C92.3251 78.6669 92.6901 78.6433 93.0515 78.6799C96.0275 79.1451 99.0459 79.2793 102.052 79.0799C105.792 78.9999 109.601 78.9999 113.211 77.6299Z" fill="#9E22E9"/>
<path d="M102.657 66.68C108.077 65.98 113.507 65.33 118.657 63.33C123.407 61.47 128.067 59.33 131.857 55.79L129.997 67.62C129.939 67.7921 129.844 67.9498 129.72 68.0826C129.596 68.2154 129.445 68.3202 129.277 68.39C124.787 70.22 120.397 72.39 115.577 73.24C115.426 73.2758 115.269 73.2758 115.117 73.24C111.287 71.65 107.457 70.05 103.617 68.47C102.737 68.1 102.667 67.42 102.657 66.68Z" fill="#9E22E9"/>
<path d="M59.7379 137.29C59.9091 137.174 60.1061 137.102 60.3118 137.079C60.5174 137.056 60.7255 137.084 60.9179 137.16C63.2779 138.25 65.9179 138.49 68.3679 138.98C73.5579 139.98 78.7379 141.14 84.0479 141.38C85.1879 141.43 86.4679 142.38 87.3679 140.85C89.4279 143.47 91.2479 146.25 93.0379 149.05C92.9579 150.05 92.1179 149.86 91.5279 149.9C89.8775 149.951 88.2257 149.87 86.5879 149.66C81.4479 149.2 76.3579 148.46 71.2779 147.66C70.6032 147.614 69.9536 147.386 69.3979 147C66.0779 143.86 62.8579 140.624 59.7379 137.29Z" fill="#9E22E9"/>
<path d="M82.7072 125.501C90.7072 125.961 98.6372 126.351 106.607 126.101C109.717 126.011 112.827 125.701 115.937 125.501C116.119 125.506 116.295 125.44 116.428 125.317C116.56 125.193 116.639 125.022 116.647 124.841C117.647 125.841 118.237 127.121 119.647 127.841C120.527 128.311 119.647 129.581 119.717 130.481C119.602 130.717 119.418 130.912 119.19 131.041C118.961 131.169 118.698 131.225 118.437 131.201C114.677 131.451 110.947 131.941 107.167 132.111C103.967 132.241 100.757 132.541 97.5672 132.391C93.9772 132.221 90.3472 132.301 86.8172 131.391C85.3363 129.507 83.964 127.541 82.7072 125.501V125.501Z" fill="#9E22E9"/>
<path d="M78.3469 108.39C79.3469 110.14 81.1969 109.67 82.6769 109.88C86.2369 110.38 89.8669 110.54 93.4169 111C97.1131 111.449 100.845 111.53 104.557 111.24C109.877 110.85 115.247 110.65 120.477 109.34C121.477 109.09 122.687 109.47 123.477 108.34C123.187 110.23 122.867 112.12 122.627 114.01C122.537 114.67 122.217 114.82 121.627 114.92C120.779 115.048 119.967 115.349 119.24 115.805C118.514 116.261 117.89 116.862 117.407 117.57C117.22 117.878 116.934 118.112 116.595 118.232C116.256 118.352 115.886 118.352 115.547 118.23L86.5469 112.23C84.1769 111.74 81.7869 111.23 79.4069 110.77C77.9969 110.53 77.5269 109.28 78.3469 108.39Z" fill="#9E22E9"/>
<path d="M87.3931 71.0003C87.4827 71.2387 87.6038 71.464 87.7531 71.6703C90.0631 73.9403 88.583 75.7503 87.063 77.5703C86.6143 77.7036 86.1331 77.6753 85.703 77.4903C80.3732 76.2406 75.1784 74.4721 70.1931 72.2103C66.3122 70.2669 62.6284 67.9528 59.1931 65.3003C58.7631 64.9703 58.2731 64.5903 58.4331 63.9003C59.7811 62.3606 61.2418 60.9233 62.8031 59.6003C65.0231 60.8303 67.0531 62.3703 69.1331 63.8003C72.6131 66.1803 76.5331 67.5003 80.3831 69.0203C82.653 69.9103 85.0631 70.3303 87.3931 71.0003Z" fill="#9E22E9"/>
<path d="M77.2793 45.1393L82.2793 40.1393C82.8893 39.9393 83.2793 40.3593 83.6393 40.6793C89.3693 45.3893 96.0093 46.8393 103.239 46.1293C104.019 46.0593 104.789 45.9893 105.559 45.8893C106.129 45.8093 106.719 45.7493 107.009 46.4293C105.663 48.7811 104.194 51.0609 102.609 53.2593C101.922 53.7354 101.093 53.9614 100.259 53.8993C94.0807 53.8087 88.0154 52.2272 82.5793 49.2893C80.6293 48.2293 78.4593 47.2593 77.2793 45.1393Z" fill="#9E22E9"/>
<path d="M128.182 117.39C129.022 116.46 130.182 116.82 131.242 116.56C133.742 115.93 136.142 115.05 138.602 114.3C145.06 112.286 151.29 109.605 157.192 106.3C159.882 104.8 162.692 103.5 165.242 101.76C165.812 101.37 166.522 101.05 166.742 100.28L170.742 102.08C171.202 103.08 170.412 103.42 169.862 103.8C167.352 105.54 164.772 107.19 162.112 108.69C159.172 110.34 156.172 111.9 153.112 113.25C149.546 114.913 145.891 116.375 142.162 117.63C138.162 118.86 134.162 119.92 130.262 121.15C130.149 121.169 130.034 121.163 129.924 121.133C129.813 121.102 129.711 121.048 129.624 120.973C129.538 120.899 129.468 120.806 129.421 120.702C129.374 120.598 129.351 120.485 129.352 120.37C129.178 119.305 128.78 118.289 128.182 117.39V117.39Z" fill="#9E22E9"/>
<path d="M88.0018 85.0005C88.6918 85.9105 89.8118 85.8305 90.7018 85.9005C95.9902 86.3539 101.305 86.4074 106.602 86.0605C109.934 85.8335 113.248 85.3892 116.522 84.7305C118.522 84.3106 120.422 83.8505 122.372 83.4005C122.814 83.2463 123.193 82.9512 123.452 82.5605C123.515 82.7522 123.539 82.9545 123.523 83.1557C123.507 83.3569 123.45 83.5527 123.357 83.7317C123.264 83.9107 123.136 84.0692 122.98 84.1978C122.825 84.3264 122.645 84.4226 122.452 84.4806C115.972 87.1905 109.532 89.9805 103.072 92.7305C102.876 92.7926 102.675 92.8394 102.472 92.8705C96.9027 92.9933 91.3345 92.5881 85.8418 91.6605C85.5306 91.6521 85.2243 91.5814 84.9409 91.4525C84.6575 91.3237 84.4028 91.1394 84.1918 90.9105C85.3435 88.8668 86.6158 86.8933 88.0018 85.0005Z" fill="#9E22E9"/>
<path d="M81.7528 132.739C80.7856 133.076 79.7384 133.107 78.7528 132.829C75.1528 132.019 71.5128 131.409 67.9028 130.589C65.5228 130.039 63.1828 129.319 60.7828 128.809C60.5021 128.693 60.2447 128.527 60.0228 128.319C61.7628 125.579 63.5062 122.836 65.2528 120.089C65.6128 119.519 66.0628 119.599 66.6028 119.719C68.2228 120.138 69.93 120.072 71.5128 119.529C71.6665 119.444 71.8364 119.392 72.0116 119.377C72.1867 119.362 72.3631 119.383 72.5292 119.441C72.6952 119.499 72.8473 119.591 72.9755 119.711C73.1036 119.831 73.2049 119.977 73.2728 120.139C76.0628 124.359 78.9128 128.539 81.7528 132.739Z" fill="#9E22E9"/>
<path d="M107 46.4495C105.9 45.8495 104.76 46.3895 103.7 46.5295C96.9647 47.4898 90.1143 45.8914 84.4997 42.0495C83.6797 41.5095 83.1997 40.5795 82.2697 40.1595C83.7497 38.6928 85.2264 37.2162 86.6997 35.7295C88.1597 36.3195 89.1397 37.5795 90.5597 38.2795C92.9374 39.5341 95.5392 40.3071 98.2162 40.5542C100.893 40.8013 103.593 40.5177 106.16 39.7195C107.973 39.1045 109.698 38.2539 111.29 37.1895C111.86 36.8095 112.45 36.1895 113.23 36.7995C111.26 40.0895 109.2 43.3195 107 46.4495Z" fill="#9E22E9"/>
<path d="M94.5481 142.611C92.9397 140.534 91.441 138.374 90.0581 136.141C90.4581 135.301 91.1981 135.421 91.9281 135.441C98.835 135.779 105.757 135.662 112.648 135.091C114.178 134.921 115.738 134.961 117.278 134.731C117.556 134.662 117.848 134.665 118.124 134.74C118.401 134.815 118.653 134.96 118.858 135.161C118.685 137.253 118.351 139.329 117.858 141.371C116.626 142.004 115.234 142.258 113.858 142.101C110.858 141.941 108.008 142.541 105.078 142.661C101.571 142.876 98.0532 142.859 94.5481 142.611V142.611Z" fill="#9E22E9"/>
<path d="M77.277 45.1406C79.7819 47.2684 82.5765 49.0294 85.577 50.3706C88.827 51.6506 92.157 52.9706 95.577 53.1406C97.877 53.2506 100.227 53.9406 102.577 53.2806C101.505 55.232 100.31 57.1125 98.997 58.9106C98.527 59.5006 97.887 59.3606 97.277 59.2906C92.4149 58.9142 87.6376 57.805 83.107 56.0006C79.8037 54.5371 76.6687 52.7198 73.757 50.5806C73.3636 50.3208 73.068 49.9373 72.917 49.4906L77.277 45.1406Z" fill="#9E22E9"/>
<path d="M94.5472 142.61C94.9942 142.379 95.4948 142.272 95.9972 142.3C99.9972 142.3 104.057 142.53 107.997 141.95C111.257 141.49 114.527 141.77 117.767 141.37C117.347 144.036 116.921 146.733 116.487 149.46C114.783 149.753 113.063 149.954 111.337 150.06C109.847 150.16 108.337 150.31 106.867 150.37C104.517 150.47 102.167 150.37 99.8672 150.37L94.5472 142.61Z" fill="#9E22E9"/>
<path d="M142.468 128.651L147.808 129.651L140.108 137.651C137.878 138.791 135.378 139.031 132.988 139.581C130.188 140.231 127.358 140.771 124.508 141.221C123.938 141.321 122.918 141.711 123.148 140.361C123.375 137.832 123.783 135.322 124.368 132.851C125.211 133.096 126.106 133.096 126.948 132.851C131.678 131.911 136.348 130.731 140.948 129.471C141.558 129.371 142.298 129.481 142.468 128.651Z" fill="#9E22E9"/>
<path d="M69.4028 147C71.0502 147.052 72.684 147.317 74.2628 147.79C75.2526 147.986 76.2552 148.109 77.2628 148.16C80.2628 148.71 83.3628 148.85 86.4228 149.22C88.1585 149.462 89.9112 149.559 91.6628 149.51C92.1628 149.51 92.7228 149.65 93.0728 149.1C94.7928 151 95.7328 153.43 97.3928 155.38C97.1928 156.61 96.1728 156.45 95.3928 156.49C92.1472 156.537 88.9016 156.394 85.6728 156.06C82.9486 156.004 80.2362 155.686 77.5728 155.11C74.7262 152.477 72.0028 149.774 69.4028 147Z" fill="#9E22E9"/>
<path d="M118.86 135.16C115.37 135.37 111.86 135.61 108.42 136.02C106.683 136.141 104.94 136.161 103.2 136.08C100.54 136.08 97.8904 136.08 95.2004 136.08C94.0154 136.205 92.8177 136.124 91.6604 135.84C91.3823 135.773 91.0929 135.765 90.8117 135.818C90.5305 135.872 90.264 135.985 90.0304 136.15C88.7978 134.672 87.7001 133.085 86.7504 131.41C87.1226 131.229 87.5342 131.143 87.948 131.16C88.3619 131.178 88.7648 131.298 89.1204 131.51C89.2826 131.645 89.4899 131.713 89.7004 131.7C92.2804 131 94.7804 132.24 97.3404 132.05C100.57 131.8 103.84 131.72 107.05 131.64C110.99 131.54 114.85 130.77 118.78 130.78C119.083 130.733 119.377 130.639 119.65 130.5C119.512 132.072 119.248 133.631 118.86 135.16V135.16Z" fill="#9E22E9"/>
<path d="M87.3932 71.0007C86.1532 71.5607 85.0032 70.8107 83.9532 70.4907C78.6932 68.8807 73.4432 67.2307 68.8432 64.0007C66.9932 62.7107 65.0532 61.5307 63.2232 60.2007C63.1126 60.1373 63.0181 60.0493 62.947 59.9436C62.8759 59.8378 62.8301 59.717 62.8132 59.5907C64.9332 57.0607 64.9232 57.0707 67.8132 58.3207C73.8998 60.9074 79.9632 63.4674 86.0032 66.0007C86.8832 66.3707 87.3032 66.7307 87.1232 67.8007C86.9035 68.8711 86.9972 69.9822 87.3932 71.0007V71.0007Z" fill="#9E22E9"/>
<path d="M113.218 36.8005C111.338 37.1205 110.018 38.5405 108.338 39.3005C101.478 42.3605 95.0076 41.3005 88.7676 37.7305C87.8761 37.3065 87.1462 36.6047 86.6876 35.7305L90.1176 32.3105C90.7036 32.5131 91.2438 32.8291 91.7076 33.2405C93.9211 34.8755 96.5608 35.8341 99.3076 36.0005C102.744 36.2005 106.12 35.0402 108.708 32.7705C109.022 32.4303 109.408 32.1639 109.838 31.9905C110.978 33.0905 112.098 34.2305 113.278 35.3005C113.898 35.8805 113.818 36.3305 113.218 36.8005Z" fill="#9E22E9"/>
<path d="M83.6376 82.8595C78.8776 81.3695 74.0276 80.1495 69.4376 78.1595C67.3576 77.2595 65.4376 76.0995 63.4376 75.0495C60.9476 73.7495 58.7476 72.0494 56.4376 70.6294C55.4519 70.1044 54.6132 69.3412 53.9976 68.4095C54.8476 67.5095 55.4476 66.4094 56.5676 65.7494C56.7719 65.7015 56.9859 65.7159 57.182 65.7908C57.378 65.8656 57.5472 65.9975 57.6676 66.1694C58.9428 67.2932 60.3185 68.2975 61.7776 69.1694C64.6876 71.2694 67.9976 72.6194 71.1476 74.2694C74.7076 76.1294 78.5876 77.0194 82.3576 78.2694C83.0167 78.4014 83.6857 78.4783 84.3576 78.4994C85.0876 78.6094 85.8676 78.7794 85.5476 79.8494C85.0505 80.9348 84.4079 81.9475 83.6376 82.8595V82.8595Z" fill="#9E22E9"/>
<path d="M77.5119 155.061C78.2919 154.831 79.1219 154.831 79.9019 155.061C85.0119 155.561 90.1219 156.061 95.2619 156.061C96.0319 156.061 96.8219 156.121 97.3619 155.391C99.2119 157.491 100.362 160.081 102.102 162.251C101.012 163.061 99.7219 162.881 98.5319 162.821C94.6219 162.611 90.7119 162.691 86.8219 162.191C86.1471 162.156 85.4711 162.233 84.8219 162.421L77.5119 155.061Z" fill="#9E22E9"/>
<path d="M147.433 92.2394C146.183 93.7894 144.283 94.3094 142.623 95.1594C138.743 97.1594 134.513 98.2894 130.473 99.8794C130.221 99.9434 129.962 99.9769 129.703 99.9794C130.163 96.9194 130.633 93.8694 131.083 90.8094C131.173 90.1794 131.593 89.9994 132.083 89.8694C133.31 89.6258 134.423 88.9865 135.253 88.0494C135.354 87.904 135.484 87.7803 135.634 87.6854C135.784 87.5905 135.951 87.5263 136.126 87.4965C136.301 87.4668 136.48 87.472 136.653 87.512C136.825 87.552 136.989 87.6259 137.133 87.7294C140.593 89.2494 144.003 90.7394 147.433 92.2394Z" fill="#9E22E9"/>
<path d="M130.31 121.19C131.62 119.85 133.49 119.82 135.11 119.36C139.662 118.124 144.137 116.618 148.51 114.85C153.06 112.942 157.509 110.803 161.84 108.44C164.69 106.9 167.35 105.01 170.09 103.26C170.297 103.148 170.471 102.984 170.594 102.784C170.717 102.584 170.784 102.355 170.79 102.12C171.3 102.33 171.79 102.56 172.32 102.75C173.55 103.19 173.9 103.75 172.75 104.75C172.391 105.11 172.057 105.494 171.75 105.9C167.32 108.983 162.636 111.686 157.75 113.98C151.664 117.097 145.265 119.561 138.66 121.33C137.725 121.621 136.81 121.972 135.92 122.38C134.02 122.139 132.144 121.741 130.31 121.19V121.19Z" fill="#9E22E9"/>
<path d="M72.92 49.5C76.626 52.3679 80.7332 54.6759 85.1101 56.35C88.2407 57.5143 91.5131 58.2542 94.84 58.55C96.21 58.65 97.55 59.23 98.9501 58.91C98.3801 60.37 97.6701 61.29 95.7601 60.82C94.8641 60.6351 93.9388 60.6448 93.0469 60.8484C92.1549 61.052 91.3171 61.4447 90.59 62C90.3061 62.2159 89.9644 62.3426 89.6083 62.364C89.2522 62.3854 88.8978 62.3004 88.59 62.12C82.41 59.4533 76.2167 56.8333 70.0101 54.26C68.9301 53.81 68.73 53.46 69.67 52.63C70.81 51.63 71.85 50.54 72.92 49.5Z" fill="#9E22E9"/>
<path d="M33.4689 88.9989L36.1989 86.2589C36.9189 86.0689 37.3989 86.5389 37.8489 86.9189C40.8834 89.4018 44.1253 91.6199 47.5389 93.5489C51.07 95.5837 54.705 97.4329 58.4288 99.0889L61.9988 103.999C61.5888 104.809 60.9088 104.709 60.2688 104.419C55.0889 102.099 49.7089 100.279 44.9089 97.1189C41.5089 94.8689 38.0189 92.7489 34.6989 90.3889C34.1489 89.9989 33.3589 89.8489 33.4689 88.9989Z" fill="#9E22E9"/>
<path d="M135.927 122.371C137.007 120.621 139.037 120.791 140.617 120.371C144.996 119.009 149.29 117.39 153.477 115.521C158.477 113.461 162.997 110.641 167.697 108.071C169.017 107.341 170.057 106.021 171.697 105.921C168.838 109.262 165.733 112.384 162.408 115.261C159.118 117.047 155.721 118.63 152.238 120.001C149.275 121.325 146.24 122.48 143.147 123.461C142.817 123.561 142.507 123.811 142.147 123.661C140.044 123.394 137.964 122.962 135.927 122.371V122.371Z" fill="#9E22E9"/>
<path d="M58.433 99.0498C58.2271 99.161 57.9951 99.215 57.7612 99.2062C57.5273 99.1975 57.3 99.1261 57.103 98.9998C51.6722 96.4061 46.4205 93.4529 41.383 90.1598C39.603 88.9698 38.023 87.4498 36.203 86.2598C37.343 85.1331 38.4797 83.9964 39.613 82.8498C40.233 82.5798 40.693 82.8498 41.163 83.2498C44.213 85.5098 47.483 87.4498 50.673 89.4998C50.8789 89.6943 51.1264 89.8394 51.3966 89.9243C51.6669 90.0092 51.9528 90.0316 52.233 89.9898C54.4631 92.8946 56.5329 95.9191 58.433 99.0498V99.0498Z" fill="#9E22E9"/>
<path d="M127.003 49.1903C124.373 50.8103 121.923 52.6803 119.153 54.1103C115.191 56.0769 110.952 57.4258 106.583 58.1103C106.043 58.2103 105.843 57.9003 105.643 57.5203C106.877 55.2857 108.246 53.1284 109.743 51.0603C111.863 51.5203 113.613 50.5103 115.403 49.6303C118.043 48.3403 120.263 46.3603 122.883 45.0403L127.003 49.1903Z" fill="#9E22E9"/>
<path d="M84.8284 162.36C85.3684 161.19 86.4884 161.46 87.2584 161.7C88.3447 161.96 89.4667 162.037 90.5784 161.93C93.0484 161.86 95.4984 162.3 97.9784 162.29C99.3484 162.29 100.728 162.08 102.098 162.19C103.718 163.99 104.688 166.19 106.178 168.1C106.04 168.321 105.847 168.502 105.617 168.624C105.387 168.747 105.129 168.808 104.868 168.8C100.578 168.9 96.2884 168.88 92.0084 168.8C91.664 168.736 91.3283 168.632 91.0084 168.49L84.8284 162.36Z" fill="#9E22E9"/>
<path d="M144.297 66.4701L150.067 72.5801C145.607 74.4801 141.067 76.4301 136.437 78.4101C136.183 78.5171 135.904 78.5504 135.631 78.5062C135.359 78.462 135.104 78.342 134.897 78.1601C134.589 78.0355 134.309 77.8491 134.075 77.6124C133.841 77.3757 133.658 77.0936 133.537 76.7836C133.417 76.4736 133.36 76.1421 133.372 75.8096C133.384 75.4771 133.464 75.1506 133.607 74.85C133.877 74.13 133.687 73.3 134.067 72.59C137.347 71.37 139.927 69.0101 142.787 67.1201C143.257 66.8101 143.667 66.4001 144.297 66.4701Z" fill="#9E22E9"/>
<path d="M33.473 89.001C36.667 91.4901 40.0245 93.7619 43.523 95.801C45.523 96.921 47.283 98.291 49.343 99.281C53.053 101.081 56.913 102.501 60.643 104.281C61.153 104.521 61.543 104.281 61.963 104.071C62.0012 104.423 61.961 104.779 61.8452 105.114C61.7294 105.449 61.541 105.754 61.2934 106.007C61.0458 106.26 60.7452 106.456 60.4132 106.579C60.0812 106.703 59.726 106.751 59.373 106.721C58.223 106.471 57.073 106.201 55.933 105.941C49.004 103.1 42.4187 99.4833 36.303 95.161C34.913 94.161 33.523 93.161 32.123 92.231C31.7205 92.0066 31.404 91.6548 31.223 91.231L33.473 89.001Z" fill="#9E22E9"/>
<path d="M123.148 140.391C123.228 141.051 123.588 141.021 124.148 140.911C128.148 140.111 132.208 139.401 136.208 138.461C137.477 138.052 138.789 137.79 140.117 137.681L130.477 147.331C128.168 148.061 125.758 148.331 123.418 148.861C122.858 148.991 122.018 149.201 121.888 148.161C122.122 145.544 122.543 142.947 123.148 140.391Z" fill="#9E22E9"/>
<path d="M99.9033 150.38C101.516 149.856 103.23 149.726 104.903 150C106.513 150.36 108.183 149.46 109.783 149.68C112.093 149.99 114.293 148.56 116.583 149.46L115.653 155.08C115.617 155.365 115.486 155.629 115.281 155.831C115.076 156.032 114.809 156.159 114.523 156.19C111.134 156.813 107.673 156.957 104.243 156.62L99.9033 150.38Z" fill="#9E22E9"/>
<path d="M109.84 32.001C108.902 33.5503 107.4 34.6758 105.65 35.141C103.65 35.621 101.77 36.811 99.5498 36.491C95.9998 36.001 92.6698 35.001 90.1198 32.311C91.3732 30.8765 92.7338 29.5393 94.1898 28.311C95.1982 29.6698 96.6529 30.6301 98.2987 31.0232C99.9445 31.4164 101.676 31.2173 103.19 30.461C104.31 29.961 104.89 28.791 106.07 28.411C107.476 29.4401 108.743 30.6468 109.84 32.001V32.001Z" fill="#9E22E9"/>
<path d="M31.2166 91.2107C35.2166 93.5807 38.7566 96.7207 42.8766 98.9507C46.4474 100.997 50.1187 102.863 53.8766 104.541C54.6358 104.863 55.3381 105.305 55.9566 105.851L40.9966 102.731C37.9285 101.131 35.0013 99.2744 32.2466 97.1807C31.4466 96.6007 30.6166 96.0707 29.8066 95.5207C29.1766 95.0807 28.4566 94.6407 28.8066 93.6507C29.5165 92.7501 30.3249 91.9317 31.2166 91.2107V91.2107Z" fill="#9E22E9"/>
<path d="M33.5687 106.18L49.2387 109.32C52.3487 109.96 55.4587 110.62 58.5587 111.32L58.6487 111.74L49.1487 115.62C47.9787 115.67 47.2287 114.74 46.2487 114.34C42.0239 112.526 37.9567 110.365 34.0887 107.88C33.8498 107.776 33.6366 107.621 33.4638 107.425C33.2911 107.23 33.1631 107 33.0887 106.75C32.9987 106.4 33.0687 106 33.5687 106.18Z" fill="#9E22E9"/>
<path d="M33.5672 106.181C32.9272 106.961 33.7272 107.181 34.1272 107.411C38.2249 110.01 42.5294 112.267 46.9972 114.161C47.7785 114.551 48.516 115.024 49.1972 115.571L42.1072 118.681C41.7072 118.851 41.3772 118.961 40.9972 118.581C36.5272 114.191 31.9972 109.821 27.7272 105.211C29.7098 105.258 31.6759 105.584 33.5672 106.181V106.181Z" fill="#9E22E9"/>
<path d="M156.532 78.6802L162.212 84.3702C160.168 86.4874 157.806 88.2723 155.212 89.6602C155.066 89.7588 154.897 89.8173 154.721 89.8295C154.545 89.8418 154.37 89.8076 154.212 89.7302C151.463 88.745 148.772 87.6065 146.152 86.3202C145.942 85.6502 146.432 85.3202 146.862 85.1102C149.927 83.3112 152.867 81.3066 155.662 79.1102C155.932 78.9303 156.224 78.7858 156.532 78.6802V78.6802Z" fill="#9E22E9"/>
<path d="M84.1288 90.9102C88.5158 91.7639 92.9625 92.2754 97.4288 92.4402C99.0888 92.5502 100.779 92.2802 102.429 92.8702C98.6288 94.6801 94.7588 96.3001 90.8388 97.8101C88.2688 98.3801 85.9088 97.0701 83.4188 96.9601C82.9028 96.9325 82.3985 96.7962 81.9388 96.5601C81.5488 96.3601 81.0488 96.2101 81.1488 95.5601C82.0055 93.9267 83.0025 92.3708 84.1288 90.9102V90.9102Z" fill="#9E22E9"/>
<path d="M142.472 128.65C143.562 129.81 142.092 129.65 141.782 129.78C138.372 130.69 134.942 131.51 131.512 132.36C129.782 132.79 127.982 132.93 126.272 133.5C125.672 133.69 124.682 134.05 124.372 132.88C124.463 131.538 124.637 130.202 124.892 128.88C124.962 127.88 125.892 127.88 126.382 127.3C127.852 125.5 129.572 125.8 131.522 126.3C135.142 127.2 138.822 127.88 142.472 128.65Z" fill="#9E22E9"/>
<path d="M156.53 78.6795C155.18 80.1895 153.37 81.1095 151.85 82.3995C150.08 83.8995 147.78 84.5895 146.18 86.3195L138.33 83.1295C138.61 82.3095 139.26 82.2895 139.74 82.1295C143.87 80.3595 148.04 78.6895 152.12 76.8395C153.51 76.2095 154.49 76.1595 155.39 77.4695C155.737 77.9029 156.118 78.3075 156.53 78.6795Z" fill="#9E22E9"/>
<path d="M85.5474 79.8802C85.5398 79.7382 85.5038 79.5991 85.4415 79.4714C85.3791 79.3436 85.2917 79.2296 85.1844 79.1363C85.0771 79.043 84.9521 78.9723 84.8169 78.9283C84.6817 78.8842 84.539 78.8679 84.3974 78.8802C81.9174 78.9602 79.7474 77.8802 77.3974 77.2402C73.5874 76.2402 70.1574 74.3702 66.6774 72.6402C62.9696 70.88 59.5506 68.567 56.5374 65.7802L58.3974 63.9302C59.0774 65.2602 60.4774 65.7502 61.5874 66.5402C66.8948 70.4577 72.8678 73.3815 79.2174 75.1702C81.8474 75.8602 84.4174 76.7802 87.0174 77.6002C86.6454 78.4301 86.1497 79.1988 85.5474 79.8802V79.8802Z" fill="#9E22E9"/>
<path d="M113.207 77.6295C112.677 78.8295 111.467 78.5095 110.547 78.7995C108.097 79.5795 105.487 79.4795 103.007 79.5495C99.4019 79.8206 95.7766 79.6358 92.2174 78.9995C92.1374 78.9995 92.0774 78.8595 92.0074 78.7795C92.29 77.9798 92.7558 77.2572 93.3674 76.6695C94.3674 76.2695 95.3674 76.7295 96.3674 76.3995C98.1949 76.0665 99.8398 75.0824 100.997 73.6295C101.092 73.4607 101.221 73.3138 101.376 73.1985C101.532 73.0831 101.71 73.002 101.899 72.9605C102.088 72.9189 102.283 72.9178 102.473 72.9573C102.662 72.9968 102.841 73.0759 102.997 73.1895C106.187 74.5795 109.427 75.8895 112.537 77.4895C112.753 77.5667 112.979 77.6138 113.207 77.6295V77.6295Z" fill="#9E22E9"/>
<path d="M115.068 73.2097C116.978 72.1097 119.188 71.9097 121.228 71.2097C124.228 70.1397 127.008 68.7397 129.948 67.6497C129.538 70.3597 129.138 73.0697 128.708 75.7797C128.538 76.7797 126.278 78.0897 125.308 77.6797C121.888 76.1997 118.478 74.6997 115.068 73.2097Z" fill="#9E22E9"/>
<path d="M144.297 66.4706C141.844 68.2239 139.391 69.9706 136.937 71.7106C136.131 72.3654 135.102 72.6809 134.067 72.5906C134.397 68.9006 135.257 65.2905 135.767 61.5905C135.907 60.5905 136.097 59.6605 136.247 58.8005L144.297 66.4706Z" fill="#9E22E9"/>
<path d="M90.9976 168.49C94.4076 168.27 97.8176 168.49 101.218 168.4C102.878 168.4 104.578 168.64 106.218 168.1C107.878 170.1 107.878 170.1 106.048 171.82C102.048 175.54 98.2776 175.54 94.2876 171.82C93.1176 170.74 92.0576 169.6 90.9976 168.49Z" fill="#9E22E9"/>
<path d="M104.23 156.621C105.263 156.292 106.354 156.189 107.43 156.321C109.693 156.316 111.952 156.146 114.19 155.811C114.473 155.818 114.754 155.755 115.007 155.627C115.26 155.5 115.477 155.312 115.64 155.081C115.23 157.731 114.95 160.401 114.37 163.011C114.03 164.581 112.44 165.361 111.37 166.441C111.01 166.791 110.77 166.201 110.59 165.941C108.46 162.841 106.35 159.731 104.23 156.621Z" fill="#9E22E9"/>
<path d="M122.923 45.0693C121.25 46.5851 119.404 47.8975 117.423 48.9793C115.613 49.9793 113.853 51.2494 111.703 51.5194C111.073 51.5994 110.093 52.6294 109.783 51.0894C112.083 47.4893 114.403 43.8893 116.693 40.2793C117.123 39.5993 117.433 39.4193 118.063 40.0893C119.643 41.7793 121.293 43.4093 122.923 45.0693Z" fill="#9E22E9"/>
<path d="M59.9977 92.5004C61.6977 92.3704 62.9977 93.3804 64.4677 93.9904C67.7121 95.2375 71.02 96.3123 74.3778 97.2104L71.6878 101.54C71.6335 101.631 71.5734 101.718 71.5078 101.8C71.0378 102.28 66.4477 102.04 66.0677 101.49C64.0211 98.4971 61.9977 95.5004 59.9977 92.5004Z" fill="#9E22E9"/>
<path d="M142.123 123.65C143.843 122.2 146.123 122.06 148.123 121.26C152.753 119.41 157.233 117.209 161.863 115.359C162.059 115.301 162.26 115.257 162.463 115.229C161.183 117.059 159.393 118.42 157.883 120.04C156.763 121.039 155.711 122.111 154.733 123.25C153.023 125.64 150.983 126 148.323 125.08C146.284 124.489 144.214 124.012 142.123 123.65V123.65Z" fill="#9E22E9"/>
<path d="M154.238 89.7309C156.487 88.6132 158.581 87.2081 160.468 85.5509C160.988 85.0709 161.378 84.4008 162.208 84.3708C164.078 86.2309 165.938 88.1009 167.798 89.9609C166.308 91.2709 165.018 92.8609 162.998 93.4409C160.016 92.3556 157.092 91.1172 154.238 89.7309V89.7309Z" fill="#9E22E9"/>
<path d="M48.1582 121.209C52.0382 119.529 55.9149 117.863 59.7882 116.209C60.2582 116.009 60.7882 115.539 61.2982 116.209C61.8082 116.879 61.5182 117.209 61.1882 117.749C59.6182 120.119 58.0682 122.489 56.4982 124.869C55.4982 125.489 54.6382 124.609 53.7182 124.429C52.1821 123.993 50.6757 123.459 49.2082 122.829C48.5582 122.619 47.6082 122.329 48.1582 121.209Z" fill="#9E22E9"/>
<path d="M52.2322 90.001C52.0122 91.141 51.3722 90.451 51.0122 90.201C47.5522 87.861 43.8822 85.861 40.5922 83.281C40.3099 83.0416 39.9608 82.8949 39.5922 82.861C40.8622 81.571 42.1622 80.301 43.3722 78.961C44.0222 78.241 44.3722 78.381 44.8322 79.121C47.2822 82.721 49.7622 86.331 52.2322 90.001Z" fill="#9E22E9"/>
<path d="M28.8227 93.6506C28.9427 94.5906 29.6727 94.9806 30.3627 95.4506C33.9127 97.8606 37.4527 100.301 40.9927 102.731C36.1927 101.731 31.4027 100.731 26.5927 99.7907C25.5927 99.6007 25.5927 99.0907 25.7527 98.3606C26.2273 96.4945 27.3069 94.8381 28.8227 93.6506V93.6506Z" fill="#9E22E9"/>
<path d="M81.1277 95.5906C81.3704 95.8565 81.6631 96.0719 81.9891 96.2246C82.3151 96.3774 82.6681 96.4643 83.0277 96.4806C85.6077 96.9806 88.2177 97.3706 90.8177 97.8106L75.8877 104.291L75.6277 103.881C77.461 101.114 79.2944 98.3506 81.1277 95.5906Z" fill="#9E22E9"/>
<path d="M48.1599 121.209C48.0699 121.859 48.4899 122.149 48.9999 122.339C51.4799 123.249 53.9399 124.219 56.4999 124.879C55.4999 126.529 54.4199 128.179 53.3899 129.879C53.0899 130.369 52.8599 130.539 52.3899 130.049C49.9699 127.599 47.5199 125.179 44.9299 122.579L48.1599 121.209Z" fill="#9E22E9"/>
<path d="M121.877 148.16C122.487 148.8 123.177 148.5 123.877 148.35C126.057 147.87 128.187 147.11 130.477 147.35L120.377 157.18C120.797 154.11 121.177 151.11 121.877 148.16Z" fill="#9E22E9"/>
<path d="M163 93.4395C164.66 92.3695 165.93 90.7395 167.8 89.9595C170.29 92.4495 173.19 94.6095 174.32 98.3695L163 93.4395Z" fill="#9E22E9"/>
<path d="M96.3924 76.3703C95.3924 76.9103 94.3924 76.5103 93.3924 76.6403C94.3324 76.0003 95.3924 76.5703 96.3924 76.3703Z" fill="#9E22E9"/>
</svg>
