<svg width="200" height="200" viewBox="0 0 200 200" fill="none" xmlns="http://www.w3.org/2000/svg">
<path d="M52.7 126.15C52.7 118.96 52.7 111.78 52.7 104.59C52.6117 103.045 52.9702 101.508 53.7328 100.162C54.4954 98.816 55.6297 97.7182 57 97L91.67 77C94.08 75.61 96.36 73.91 99.41 74.15C100.774 74.2031 102.107 74.5656 103.31 75.21C115.883 82.49 128.447 89.7533 141 97C142.388 97.7478 143.538 98.8692 144.321 100.237C145.104 101.605 145.488 103.165 145.43 104.74C145.43 117.8 145.43 130.85 145.43 143.91C145.43 144.82 145.43 145.74 145.43 146.65C145.61 150.78 144.16 153.89 140.43 156.03C127.97 163.11 115.6 170.35 103.16 177.48C101.896 178.25 100.445 178.658 98.965 178.658C97.4851 178.658 96.0337 178.25 94.77 177.48C90.53 175.04 86.34 172.48 82.14 170.02C81.65 169.73 80.91 169.51 80.99 168.84C81.07 168.17 81.79 168.26 82.25 168.06C83.0689 167.817 83.8574 167.482 84.6 167.06C87.08 165.13 89.24 165.69 91.6 167.43C93.42 168.79 95.54 169.72 97.44 170.98C97.8734 171.303 98.3995 171.478 98.94 171.478C99.4806 171.478 100.007 171.303 100.44 170.98C112.5 163.98 124.573 157.013 136.66 150.08C137.243 149.803 137.728 149.356 138.049 148.796C138.371 148.237 138.514 147.593 138.46 146.95C138.42 133.103 138.42 119.257 138.46 105.41C138.504 104.829 138.371 104.249 138.078 103.745C137.785 103.242 137.346 102.839 136.82 102.59C124.66 95.63 112.517 88.63 100.39 81.59C100.026 81.2823 99.5742 81.0965 99.0988 81.0588C98.6234 81.0212 98.1482 81.1335 97.74 81.38C85.72 88.46 73.66 95.4633 61.56 102.39C60.8941 102.697 60.3422 103.207 59.983 103.846C59.6239 104.485 59.4758 105.222 59.56 105.95C59.6267 119.597 59.6267 133.263 59.56 146.95C59.4796 147.681 59.6416 148.419 60.0209 149.049C60.4003 149.68 60.9762 150.168 61.66 150.44C64.38 151.83 66.96 153.49 69.66 155.02C71.0704 155.961 72.6995 156.522 74.39 156.65C77.71 156.71 79.79 154.7 79.79 151.36V109.58C79.79 106.96 79.92 106.83 82.58 106.84C87.4 106.84 86.91 106.29 86.9 111.28C86.9 125 86.9 138.72 86.9 152.43C86.9 157.43 84.44 161.43 80.63 162.79C77.4874 163.977 74.0298 164.034 70.85 162.95C65.33 161.03 60.5 157.74 55.64 154.62C54.6735 153.932 53.9007 153.006 53.3962 151.933C52.8917 150.859 52.6726 149.673 52.76 148.49C52.72 141 52.7 133.59 52.7 126.15Z" fill="#9E22E9"/>
<path d="M110.05 105.83C113.272 105.725 116.486 106.199 119.54 107.23C125.46 109.34 127.54 113.45 128.31 118.59C128.47 119.72 128.04 120.36 126.84 120.36C126.318 120.315 125.792 120.315 125.27 120.36C122.78 120.71 121.02 120.36 120.34 117.36C119.83 115.09 117.86 113.72 115.54 113.22C111.706 112.377 107.738 112.343 103.89 113.12C102.456 113.339 101.157 114.088 100.25 115.22C98.51 117.53 99.16 120.06 101.88 121.02C105.77 122.4 109.88 122.63 113.94 123.24C116.715 123.585 119.457 124.153 122.14 124.94C126.64 126.37 129.64 129.13 129.88 134.12C130.12 139.11 128.29 142.89 123.93 145.37C119.39 147.96 114.38 148.37 109.36 148.22C105.19 148.12 101.04 147.6 97.25 145.6C95.2029 144.632 93.481 143.091 92.2933 141.163C91.1057 139.235 90.5036 137.004 90.56 134.74C90.56 133.29 91.07 132.87 92.37 133.03C92.63 133.03 92.9 133.03 93.16 133.03C94.46 133.03 95.91 132.73 97.02 133.2C98.13 133.67 97.8 135.4 98.26 136.52C98.6141 137.474 99.1922 138.329 99.9457 139.013C100.699 139.697 101.606 140.19 102.59 140.45C107.738 141.915 113.192 141.915 118.34 140.45C119.106 140.272 119.818 139.912 120.415 139.4C121.012 138.888 121.477 138.24 121.77 137.51C122.85 134.74 122.15 132.97 119.42 131.87C116.282 130.778 113.007 130.132 109.69 129.95C106.515 129.672 103.366 129.15 100.27 128.39C94.9367 126.97 92.1167 123.927 91.81 119.26C91.47 113.66 93.97 109.63 99.02 107.53C102.537 106.196 106.295 105.617 110.05 105.83V105.83Z" fill="#9E22E9"/>
<path d="M93.84 57.08C93.84 59.23 93.78 61.39 93.84 63.54C93.9159 64.1152 93.8066 64.6996 93.5279 65.2085C93.2492 65.7174 92.8156 66.1242 92.29 66.37C88.36 68.55 84.5 70.83 80.63 73.1C80.2209 73.3664 79.7432 73.5082 79.255 73.5082C78.7668 73.5082 78.2891 73.3664 77.88 73.1C73.88 70.76 69.88 68.43 65.88 66.16C65.4169 65.9293 65.0339 65.5647 64.7807 65.1135C64.5275 64.6623 64.4158 64.1455 64.46 63.63C64.46 59.13 64.46 54.63 64.46 50.12C64.4312 49.5715 64.5685 49.0272 64.854 48.558C65.1394 48.0888 65.5597 47.7166 66.06 47.49C70.06 45.27 74 42.9933 77.88 40.66C78.2724 40.3841 78.7404 40.2361 79.22 40.2361C79.6997 40.2361 80.1676 40.3841 80.56 40.66C84.56 43.0133 88.56 45.3233 92.56 47.59C93.0044 47.8018 93.3698 48.1495 93.6035 48.5827C93.8372 49.016 93.927 49.5123 93.86 50C93.8 52.38 93.84 54.73 93.84 57.08Z" fill="#9E22E9"/>
<path d="M46.9766 64.7923L46.9529 64.7794L46.9288 64.7673C46.7378 64.6722 46.5803 64.5212 46.4774 64.3343C46.3744 64.1475 46.3308 63.9337 46.3523 63.7215L46.36 63.6459V63.57V63.5547V63.5394V63.5241V63.5088V63.4935V63.4782V63.4629V63.4477V63.4324V63.4171V63.4018V63.3865V63.3712V63.3559V63.3406V63.3253V63.31V63.2947V63.2794V63.2641V63.2488V63.2335V63.2183V63.203V63.1877V63.1724V63.1571V63.1418V63.1265V63.1112V63.0959V63.0806V63.0653V63.05V63.0347V63.0194V63.0042V62.9889V62.9736V62.9583V62.943V62.9277V62.9124V62.8971V62.8818V62.8665V62.8512V62.8359V62.8206V62.8053V62.7901V62.7748V62.7595V62.7442V62.7289V62.7136V62.6983V62.683V62.6677V62.6524V62.6371V62.6218V62.6065V62.5912V62.576V62.5607V62.5454V62.5301V62.5148V62.4995V62.4842V62.4689V62.4536V62.4383V62.423V62.4077V62.3924V62.3771V62.3618V62.3466V62.3313V62.316V62.3007V62.2854V62.2701V62.2548V62.2395V62.2242V62.2089V62.1936V62.1783V62.163V62.1477V62.1325V62.1172V62.1019V62.0866V62.0713V62.056V62.0407V62.0254V62.0101V61.9948V61.9795V61.9642V61.9489V61.9336V61.9184V61.9031V61.8878V61.8725V61.8572V61.8419V61.8266V61.8113V61.796V61.7807V61.7654V61.7501V61.7348V61.7195V61.7043V61.689V61.6737V61.6584V61.6431V61.6278V61.6125V61.5972V61.5819V61.5666V61.5513V61.536V61.5207V61.5054V61.4902V61.4749V61.4596V61.4443V61.429V61.4137V61.3984V61.3831V61.3678V61.3525V61.3372V61.3219V61.3066V61.2913V61.276V61.2608V61.2455V61.2302V61.2149V61.1996V61.1843V61.169V61.1537V61.1384V61.1231V61.1078V61.0925V61.0772V61.0619V61.0467V61.0314V61.0161V61.0008V60.9855V60.9702V60.9549V60.9396V60.9243V60.909V60.8937V60.8784V60.8631V60.8478V60.8326V60.8173V60.802V60.7867V60.7714V60.7561V60.7408V60.7255V60.7102V60.6949V60.6796V60.6643V60.649V60.6337V60.6185V60.6032V60.5879V60.5726V60.5573V60.542V60.5267V60.5114V60.4961V60.4808V60.4655V60.4502V60.4349V60.4196V60.4044V60.3891V60.3738V60.3585V60.3432V60.3279V60.3126V60.2973V60.282V60.2667V60.2514V60.2361V60.2208V60.2055V60.1902V60.175V60.1597V60.1444V60.1291V60.1138V60.0985V60.0832V60.0679V60.0526V60.0373V60.022V60.0067V59.9914V59.9761V59.9609V59.9456V59.9303V59.915V59.8997V59.8844V59.8691V59.8538V59.8385V59.8232V59.8079V59.7926V59.7773V59.762V59.7468V59.7315V59.7162V59.7009V59.6856V59.6703V59.655V59.6397V59.6244V59.6091V59.5938V59.5785V59.5632V59.5479V59.5327V59.5174V59.5021V59.4868V59.4715V59.4562V59.4409V59.4256V59.4103V59.395V59.3797V59.3644V59.3491V59.3338V59.3186V59.3033V59.288V59.2727V59.2574V59.2421V59.2268V59.2115V59.1962V59.1809V59.1656V59.1503V59.135V59.1197V59.1044V59.0892V59.0739V59.0586V59.0433V59.028V59.0127V58.9974V58.9821V58.9668V58.9515V58.9362V58.9209V58.9056V58.8903V58.8751V58.8598V58.8445V58.8292V58.8139V58.7986V58.7833V58.768V58.7527V58.7374V58.7221V58.7068V58.6915V58.6762V58.661V58.6457V58.6304V58.6151V58.5998V58.5845V58.5692V58.5539V58.5386V58.5233V58.508V58.4927V58.4774V58.4621V58.4469V58.4316V58.4163V58.401V58.3857V58.3704V58.3551V58.3398V58.3245V58.3092V58.2939V58.2786V58.2633V58.248V58.2327V58.2175V58.2022V58.1869V58.1716V58.1563V58.141V58.1257V58.1104V58.0951V58.0798V58.0645V58.0492V58.0339V58.0186V58.0034V57.9881V57.9728V57.9575V57.9422V57.9269V57.9116V57.8963V57.881V57.8657V57.8504V57.8351V57.8198V57.8045V57.7893V57.774V57.7587V57.7434V57.7281V57.7128V57.6975V57.6822V57.6669V57.6516V57.6363V57.621V57.6057V57.5904V57.5752V57.5599V57.5446V57.5293V57.514V57.4987V57.4834V57.4681V57.4528V57.4375V57.4222V57.4069V57.3916V57.3763V57.3611V57.3458V57.3305V57.3152V57.2999V57.2846V57.2693V57.254V57.2387V57.2234V57.2081V57.1928V57.1775V57.1622V57.1469V57.1317V57.1164V57.1011V57.0858V57.0705V57.0552V57.0399V57.0246V57.0093V56.994V56.9787V56.9634V56.9481V56.9328V56.9176V56.9023V56.887V56.8717V56.8564V56.8411V56.8258V56.8105V56.7952V56.7799V56.7646V56.7493V56.734V56.7187V56.7035V56.6882V56.6729V56.6576V56.6423V56.627V56.6117V56.5964V56.5811V56.5658V56.5505V56.5352V56.5199V56.5046V56.4894V56.4741V56.4588V56.4435V56.4282V56.4129V56.3976V56.3823V56.367V56.3517V56.3364V56.3211V56.3058V56.2905V56.2753V56.26V56.2447V56.2294V56.2141V56.1988V56.1835V56.1682V56.1529V56.1376V56.1223V56.107V56.0917V56.0764V56.0611V56.0459V56.0306V56.0153V56V55.9847V55.9694V55.9541V55.9388V55.9235V55.9082V55.8929V55.8776V55.8623V55.847V55.8318V55.8165V55.8069C46.423 55.0211 46.257 54.2332 45.8813 53.5389C45.5012 52.8366 44.9237 52.2617 44.2207 51.8849C42.6255 50.9157 41.1709 50.2116 39.5972 50.2854C38.0001 50.3603 36.6114 51.2186 35.0985 52.3964L35.0436 52.4391L34.993 52.4867C34.4591 52.9882 34.0558 53.6123 33.8179 54.3051C33.5939 54.9573 33.523 55.6517 33.61 56.3347V56.3463V56.3608V56.3754V56.3899V56.4044V56.419V56.4335V56.4481V56.4626V56.4772V56.4917V56.5062V56.5208V56.5353V56.5499V56.5644V56.579V56.5935V56.6081V56.6227V56.6372V56.6518V56.6663V56.6809V56.6954V56.71V56.7245V56.7391V56.7537V56.7682V56.7828V56.7974V56.8119V56.8702V56.8847V56.8993V56.9139V56.9284V56.943V56.9576V56.9722V56.9867V57.0013V57.0159V57.0304V57.045V57.0596V57.0742V57.0887V57.1033V57.1179V57.1325V57.147V57.1616V57.1762V57.1908V57.2054V57.2199V57.2345V57.2491V57.2637V57.2783V57.2928V57.3074V57.322V57.3366V57.3512V57.3658V57.3803V57.3949V57.4095V57.4241V57.4387V57.4533V57.4679V57.4825V57.497V57.5116V57.5262V57.5408V57.5554V57.57V57.5846V57.5992V57.6138V57.6284V57.6429V57.6575V57.6721V57.6867V57.7013V57.7159V57.7305V57.7451V57.7597V57.7743V57.7889V57.8035V57.8181V57.8327V57.8473V57.8619V57.8765V57.8911V57.9057V57.9203V57.9349V57.9495V57.9641V57.9787V57.9933V58.0079V58.0225V58.0371V58.0517V58.0663V58.0809V58.0955V58.1101V58.1247V58.1393V58.1539V58.1685V58.1831V58.1977V58.2123V58.2269V58.2415V58.2561V58.2707V58.2853V58.2999V58.3145V58.3291V58.3437V58.3583V58.3729V58.3875V58.4021V58.4167V58.4313V58.4459V58.4605V58.4751V58.4897V58.5043V58.5189V58.5335V58.5481V58.5627V58.5773V58.592V58.6066V58.6212V58.6358V58.6504V58.665V58.6796V58.6942V58.7088V58.7234V58.738V58.7526V58.7672V58.7818V58.7964V58.811V58.8256V58.8402V58.8548V58.8694V58.884V58.8986V58.9132V58.9278V58.9424V58.957V58.9716V58.9862V59.0008V59.0154V59.03V59.0446V59.0592V59.0738V59.0884V59.103V59.1176V59.1322V59.1468V59.1614V59.176V59.1906V59.2052V59.2198V59.2344V59.249V59.2636V59.2782V59.2928V59.3074V59.322V59.3366V59.3512V59.3657V59.3803V59.3949V59.4095V59.4241V59.4387V59.4533V59.4679V59.4825V59.4971V59.5117V59.5263V59.5408V59.5554V59.57V59.5846V59.5992V59.6138V59.6284V59.643V59.6575V59.6721V59.6867V59.7013V59.7159V59.7305V59.7451V59.7596V59.7742V59.7888V59.8034V59.818V59.8325V59.8471V59.8617V59.8763V59.8909V59.9054V59.92V59.9346V59.9492V59.9637V59.9783V59.9929V60.0075V60.022V60.0366V60.0512V60.0658V60.0803V60.0949V60.1095V60.124V60.1386V60.1532V60.1677V60.1823V60.1969V60.2114V60.226V60.2406V60.2551V60.2697V60.2843V60.2988V60.3134V60.3279V60.3425V60.357V60.3716V60.3862V60.4007V60.4153V60.4298V60.4444V60.4589V60.4735V60.488V60.5026V60.5171V60.5317V60.5462V60.5608V60.5753V60.5899V60.6044V60.619V60.6335V60.648V60.6626V60.6771V60.6917V60.7062V60.7207V60.7353V60.7498V60.7644V60.7789V60.7934V60.808V60.8225V60.837V60.8515V60.8661V60.8806V60.8951V60.9097V60.9242V60.9387V60.9532V60.9678V60.9823V60.9968V61.0113V61.0258V61.0403V61.0549V61.0694V61.0839V61.0984V61.1129V61.1274V61.2435V61.258V61.2725V61.287V61.3015V61.316V61.3305V61.345V61.3595V61.374V61.3885V61.4029V61.4174V61.4319V61.4464V61.4609V61.4754V61.4899V61.5043V61.5188V61.5333V61.5478V61.5623V61.5767V61.5912V61.6057V61.6202V61.6346V61.6491V61.6636V61.678V61.6925V61.707V61.7214V61.7359V61.7504V61.7648V61.7793V61.7937V61.8082V61.8227V61.8371V61.8516V61.866V61.8805V61.8949V61.9094V61.9238V61.9382V61.9527V61.9671V61.9816V61.996V62.0104V62.0249V62.0393V62.0537V62.0682V62.0826V62.097V62.1115V62.1259V62.1403V62.1547V62.1692V62.1836V62.198V62.2124V62.2268V62.2412V62.2557V62.2701V62.2845V62.2989V62.3133V62.3277V62.3421V62.3565V62.3709V62.3853V62.3997V62.4141V62.4285V62.4429V62.4573V62.4717V62.4861V62.5005V62.5148V62.5292V62.5436V62.558V62.5724V62.5867V62.6011V62.6155V62.6299V62.6442V62.6586V62.673V62.6873V62.7017V62.7161V62.7304V62.7448V62.7591V62.7735V62.7878V62.8022V62.8165V62.8309V62.8452V62.8596V62.8739V62.8883V62.9026V62.917V62.9313V62.9456V62.96V62.9743V62.9886V63.0029V63.0173V63.0316V63.0459V63.0602V63.0746V63.0889V63.1032V63.1175V63.1318V63.1461V63.1604V63.1747V63.189V63.2033V63.2176V63.2319V63.2462V63.2605V63.2748V63.2891V63.3034V63.3177V63.332V63.3463V63.3605V63.3748V63.3891V63.4034V63.4177V63.4319V63.4462V63.4605V63.4747V63.489V63.5033V63.5175V63.5318V63.546V63.5603V63.5745V63.5888V63.603V63.6173V63.6315V63.6458V63.66V63.7716L33.6265 63.8819C33.6583 64.0947 33.6185 64.312 33.5133 64.4997C33.408 64.6874 33.2434 64.8348 33.0453 64.9187L33.0136 64.9321L32.9826 64.9469C31.6057 65.6057 30.2043 66.4348 28.8763 67.2204C28.3032 67.5594 27.7438 67.8904 27.2059 68.1961C27.2105 67.8993 27.2152 67.6021 27.2198 67.3048C27.3148 61.2575 27.4116 55.0976 27.102 48.9654C27.1313 48.9499 27.1658 48.9321 27.2068 48.9116C27.2382 48.8959 27.2697 48.8803 27.3053 48.8627L27.3193 48.8558C27.3591 48.8361 27.4038 48.814 27.4493 48.791C27.5394 48.7455 27.6472 48.6893 27.7585 48.624L27 47.33L27.7553 48.6259C29.3629 47.6889 30.9933 46.7513 32.6289 45.8106C34.7603 44.5849 36.9005 43.3541 39.0105 42.1129L39.0822 42.0707L39.1488 42.0208C39.3848 41.8442 39.6701 41.746 39.9647 41.7399C40.2593 41.7338 40.5484 41.8202 40.7914 41.9869L40.8262 42.0108L40.8622 42.0326C43.345 43.5381 45.8875 44.9881 48.4101 46.4267C49.7216 47.1746 51.0278 47.9195 52.3173 48.6675L52.321 48.6696C52.4223 48.728 52.5205 48.7801 52.6041 48.8236C52.6459 48.8454 52.6793 48.8626 52.7099 48.8784C52.7506 48.8994 52.7863 48.9179 52.8304 48.9411C52.9034 48.9796 52.9575 49.0098 52.9986 49.0344C52.8076 51.9096 52.8398 54.8274 52.8713 57.6752C52.8871 59.0977 52.9026 60.5027 52.89 61.8763L52.8898 61.9L52.8903 61.9237C52.9103 62.8126 52.9128 63.7376 52.9153 64.68C52.9184 65.838 52.9215 67.0224 52.9573 68.1992C52.5084 67.9406 52.0576 67.6796 51.6052 67.4176C50.078 66.5334 48.5321 65.6383 46.9766 64.7923ZM54.1228 68.8605C54.1228 68.8605 54.1219 68.8602 54.12 68.8594C54.1218 68.8601 54.1228 68.8604 54.1228 68.8605Z" stroke="#9E22E9" stroke-width="3"/>
<path d="M160.17 55.44C159.72 56.63 160.75 58.05 159.29 59.16C157.36 60.61 155.99 59.74 154.53 58.56C154.65 57 153.53 55.18 155.46 54C155.957 53.6561 156.541 53.4604 157.145 53.4356C157.748 53.4109 158.347 53.558 158.87 53.86C159.47 54.25 160.26 54.49 160.17 55.44Z" fill="#9E22E9"/>
<path d="M54.54 69.91C54.2886 69.5265 54.1921 69.0619 54.27 68.61V50.25C54.27 49.74 54.16 49.25 54.6 48.78C54.87 55.83 55 62.87 54.54 69.91Z" fill="#9E22E9"/>
<path d="M25.6699 48.77C26.0899 49.11 26.0499 49.57 26.0499 50.03V68.81C26.1026 69.2006 25.9983 69.5961 25.7599 69.91C25.2599 67.41 25.6199 64.91 25.5799 62.37C25.5199 57.84 25.6299 53.3 25.6699 48.77Z" fill="#9E22E9"/>
<path d="M170.432 50.2503L170.426 50.3725L170.44 50.494C170.58 51.6892 170.442 52.4882 170.138 53.0613C169.844 53.6164 169.291 54.1527 168.204 54.6235L168.168 54.6391L168.133 54.6567C166.51 55.463 164.93 56.3538 163.4 57.3254C163.402 57.2481 163.406 57.1633 163.41 57.0698C163.411 57.0457 163.412 57.0208 163.413 56.9952C163.436 56.499 163.472 55.7103 163.199 54.9135L161.78 55.4L163.057 54.6123C162.246 53.2985 161.012 52.3003 159.558 51.7821C159.472 51.749 159.389 51.7096 159.308 51.6643L159.286 51.6518L159.264 51.6401C159.191 51.6022 159.114 51.5571 159.006 51.4925C158.995 51.4862 158.984 51.4796 158.973 51.4727C158.878 51.4162 158.755 51.3424 158.628 51.2732L158.606 51.2612L158.584 51.25C158.155 51.034 157.681 50.9215 157.2 50.9215C156.719 50.9215 156.245 51.034 155.816 51.25L155.763 51.2766L155.713 51.3072L155.053 51.7072L155.024 51.7243L154.997 51.7427C154.937 51.7828 154.875 51.8203 154.812 51.8551C152.886 52.4758 152.028 54.1359 151.497 55.1634C151.428 55.2968 151.365 55.4195 151.305 55.528L151.166 55.7823L151.131 56.0704L151.123 56.1356C151.027 56.9298 150.943 57.6262 150.927 58.1997C150.911 58.8028 150.96 59.4492 151.26 60.0741C151.565 60.7089 152.042 61.1433 152.529 61.4918C152.982 61.8157 153.567 62.1487 154.217 62.5189L154.275 62.5521C154.276 62.5524 154.276 62.5527 154.277 62.553C155.515 63.261 156.749 63.9625 157.98 64.6623C160.081 65.8567 162.173 67.0462 164.263 68.255C162.941 69.0065 161.604 69.7506 160.277 70.4888C159.566 70.8845 158.858 71.2786 158.157 71.6712L158.059 71.7262L157.97 71.7953C157.81 71.9196 157.618 71.9954 157.416 72.0137C157.223 72.0312 157.03 71.9958 156.857 71.9115C153.896 70.1889 150.923 68.4894 147.957 66.7935C146.774 66.1176 145.593 65.4423 144.414 64.7664C144.223 59.6137 144.188 54.4026 144.411 49.233C148.539 46.8189 152.68 44.4274 156.834 42.0585C157.011 41.9615 157.213 41.9159 157.415 41.927C157.62 41.9381 157.817 42.0068 157.985 42.1251L158.035 42.1608L158.088 42.1921C161.943 44.465 165.836 46.687 169.719 48.9027C169.945 49.0418 170.131 49.2386 170.256 49.4729C170.383 49.7114 170.444 49.98 170.432 50.2503Z" stroke="#9E22E9" stroke-width="3"/>
<path d="M131.594 27.8888L131.59 27.9406L131.59 27.9925C131.53 40.0372 131.527 52.0553 131.58 64.0467L131.58 64.1106L131.586 64.1743C131.602 64.3562 131.564 64.5389 131.475 64.6985C131.386 64.8581 131.251 64.9873 131.088 65.0692L131.057 65.0846L131.027 65.1014C126.946 67.3875 122.846 69.7532 118.838 72.1181L118.803 72.1389L118.768 72.1616C118.637 72.2491 118.483 72.2957 118.325 72.2957C118.167 72.2957 118.013 72.2491 117.882 72.1616L117.843 72.1361L117.803 72.1129C113.76 69.7645 109.707 67.4294 105.644 65.1076L105.612 65.0891L105.579 65.0723C105.44 65.0019 105.325 64.8917 105.25 64.7557C105.174 64.6198 105.141 64.4644 105.154 64.3094L105.16 64.2448V64.18V64.1523V64.1245V64.0968V64.0691V64.0413V64.0136V63.9859V63.9581V63.9304V63.9027V63.875V63.8472V63.8195V63.7918V63.7641V63.7363V63.7086V63.6809V63.6532V63.6255V63.5977V63.57V63.5423V63.5146V63.4869V63.4592V63.4314V63.4037V63.376V63.3483V63.3206V63.2929V63.2652V63.2375V63.2098V63.1821V63.1544V63.1266V63.0989V63.0712V63.0435V63.0158V62.9881V62.9604V62.9327V62.905V62.8773V62.8496V62.8219V62.7942V62.7665V62.7388V62.7112V62.6835V62.6558V62.6281V62.6004V62.5727V62.545V62.5173V62.4896V62.4619V62.4342V62.4066V62.3789V62.3512V62.3235V62.2958V62.2681V62.2405V62.2128V62.1851V62.1574V62.1297V62.1021V62.0744V62.0467V62.019V61.9914V61.9637V61.936V61.9083V61.8807V61.853V61.8253V61.7977V61.77V61.7423V61.7147V61.687V61.6593V61.6317V61.604V61.5763V61.5487V61.521V61.4934V61.4657V61.438V61.4104V61.3827V61.3551V61.3274V61.2998V61.2721V61.2444V61.2168V61.1891V61.1615V61.1338V61.1062V61.0785V61.0509V61.0232V60.9956V60.9679V60.9403V60.9127V60.885V60.8574V60.8297V60.8021V60.7744V60.7468V60.7192V60.6915V60.6639V60.6362V60.6086V60.581V60.5533V60.5257V60.4981V60.4704V60.4428V60.4152V60.3876V60.3599V60.3323V60.3047V60.277V60.2494V60.2218V60.1942V60.1665V60.1389V60.1113V60.0837V60.056V60.0284V60.0008V59.9732V59.9456V59.918V59.8903V59.8627V59.8351V59.8075V59.7799V59.7523V59.7247V59.697V59.6694V59.6418V59.6142V59.5866V59.559V59.5314V59.5038V59.4762V59.4486V59.421V59.3934V59.3658V59.3382V59.3106V59.283V59.2554V59.2278V59.2002V59.1726V59.145V59.1174V59.0898V59.0622V59.0346V59.007V58.9794V58.9518V58.9242V58.8967V58.8691V58.8415V58.8139V58.7863V58.7587V58.7311V58.7035V58.676V58.6484V58.6208V58.5932V58.5656V58.5381V58.5105V58.4829V58.4553V58.4278V58.4002V58.3726V58.345V58.3175V58.2899V58.2623V58.2347V58.2072V58.1796V58.152V58.1245V58.0969V58.0693V58.0418V58.0142V57.9866V57.9591V57.9315V57.904V57.8764V57.8488V57.8213V57.7937V57.7662V57.7386V57.711V57.6835V57.6559V57.6284V57.6008V57.5733V57.5457V57.5182V57.4906V57.4631V57.4355V57.408V57.3804V57.3529V57.3253V57.2978V57.2702V57.2427V57.2152V57.1876V57.1601V57.1325V57.105V57.0775V57.0499V57.0224V56.9949V56.9673V56.9398V56.9122V56.8847V56.8572V56.8296V56.8021V56.7746V56.7471V56.7195V56.692V56.6645V56.6369V56.6094V56.5819V56.5544V56.5268V56.4993V56.4718V56.4443V56.4168V56.3892V56.3617V56.3342V56.3067V56.2792V56.2517V56.2241V56.1966V56.1691V56.1416V56.1141V56.0866V56.0591V56.0316V56.004V55.9765V55.949V55.9215V55.894V55.8665V55.839V55.8115V55.784V55.7565V55.729V55.7015V55.674V55.6465V55.619V55.5915V55.564V55.5365V55.509V55.4815V55.454V55.4265V55.399V55.3716V55.3441V55.3166V55.2891V55.2616V55.2341V55.2066V55.1791V55.1516V55.1242V55.0967V55.0692V55.0417V55.0142V54.9868V54.9593V54.9318V54.9043V54.8768V54.8494V54.8219V54.7944V54.7669V54.7395V54.712V54.6845V54.657V54.6296V54.6021V54.5746V54.5472V54.5197V54.4922V54.4648V54.4373V54.4098V54.3824V54.3549V54.3274V54.3V54.2725V54.2451V54.2176V54.1901V54.1627V54.1352V54.1078V54.0803V54.0529V54.0254V53.998V53.9705V53.9431V53.9156V53.8882V53.8607V53.8333V53.8058V53.7784V53.7509V53.7235V53.696V53.6686V53.6411V53.6137V53.5863V53.5588V53.5314V53.5039V53.4765V53.4491V53.4216V53.3942V53.3667V53.3393V53.3119V53.2844V53.257V53.2296V53.2021V53.1747V53.1473V53.1199V53.0924V53.065V53.0376V53.0102V52.9827V52.9553V52.9279V52.9005V52.873V52.8456V52.8182V52.7908V52.7634V52.7359V52.7085V52.6811V52.6537V52.6263V52.5989V52.5714V52.544V52.5166V52.4892V52.4618V52.4344V52.407V52.3796V52.3522V52.3248V52.2973V52.2699V52.2425V52.2151V52.1877V52.1603V52.1329V52.1055V52.0781V52.0507V52.0233V51.9959V51.9685V51.9411V51.9137V51.8864V51.859V51.8316V51.8042V51.7768V51.7494V51.722V51.6946V51.6672V51.6398V51.6124V51.5851V51.5577V51.5303V51.5029V51.4755V51.4481V51.4208V51.3934V51.366V51.3386V51.3112V51.2839V51.2565V51.2291V51.2017V51.1744V51.147V51.1196V51.0922V51.0649V51.0375V51.0101V50.9828V50.9554V50.928V50.9007V50.8733V50.8459V50.8186V50.7912V50.7638V50.7365V50.7091V50.6817V50.6544V50.627V50.5997V50.5723V50.545V50.5176V50.4902V50.4629V50.4355V50.4082V50.3808V50.3535V50.3261V50.2988V50.2714V50.2441V50.2167V50.1894V50.162V50.1347V50.1073V50.08V50.0302L105.157 49.9804C105.147 49.8341 105.182 49.6884 105.257 49.5626C105.333 49.4368 105.445 49.3371 105.578 49.2766L105.639 49.2492L105.697 49.2165C109.593 47.0188 113.528 44.7946 117.368 42.4165C117.871 42.1073 118.189 42.0996 118.463 42.1514C118.843 42.2234 119.26 42.4329 119.967 42.8288C120.022 42.8597 120.098 42.9175 120.323 43.0974L120.335 43.1071C120.511 43.248 120.808 43.4856 121.156 43.6641C121.538 43.8605 122.073 44.0359 122.709 43.9397C123.339 43.8444 123.859 43.5142 124.281 43.1005L124.734 42.6551L124.73 42.0193C124.685 35.748 124.662 29.4797 124.66 23.2146C126.725 24.3382 128.786 25.4698 130.829 26.6098L130.857 26.6257L130.887 26.6404C131.115 26.7551 131.304 26.9349 131.43 27.1572C131.556 27.3794 131.613 27.634 131.594 27.8888ZM121.794 62.4417C122.401 62.1099 123.076 61.7234 123.721 61.2186C123.867 61.1894 123.971 61.1479 124.012 61.1318C124.111 61.0921 124.19 61.0498 124.237 61.0237C124.287 60.9953 124.329 60.969 124.358 60.9508C124.372 60.9412 124.385 60.9327 124.396 60.9258L124.41 60.9162L124.415 60.9123L124.418 60.9105L124.419 60.9096L124.42 60.9092L124.42 60.909C124.42 60.9089 124.42 60.9088 123.584 59.7143L125.06 59.71V59.68V59.6125C125.062 59.2815 125.086 58.9368 125.116 58.5471C125.12 58.4977 125.124 58.4474 125.128 58.3962C125.158 58.0258 125.191 57.61 125.202 57.1948C125.228 56.2274 125.142 55.1068 124.573 53.9624L124.41 53.6343L124.114 53.4183C124.048 53.3699 123.968 53.3092 123.878 53.2411C123.608 53.0366 123.251 52.7655 122.913 52.5605L122.879 52.5393C121.952 51.9674 121.17 51.4839 120.497 51.1519C119.796 50.8062 119.073 50.5502 118.264 50.5513C117.454 50.5523 116.734 50.8107 116.039 51.1577C115.382 51.4856 114.621 51.96 113.725 52.518L113.71 52.5275C113.271 52.7511 112.887 53.0706 112.588 53.4629C112.268 53.8819 112.054 54.3717 111.963 54.8909L111.96 54.9058L111.958 54.9207C111.67 56.7816 111.548 58.4027 112.233 59.8157C112.92 61.2329 114.27 62.136 115.923 63.052L115.927 63.0543C116.091 63.1446 116.256 63.2446 116.447 63.3629C116.469 63.376 116.49 63.3894 116.512 63.403C116.656 63.4919 116.817 63.5914 116.985 63.6898C117.373 63.9695 117.839 64.1213 118.32 64.1213C118.829 64.1213 119.322 63.9511 119.722 63.6389C120.211 63.2951 120.731 63.0151 121.34 62.6872C121.486 62.6086 121.637 62.5273 121.794 62.4417Z" stroke="#9E22E9" stroke-width="3"/>
<path d="M167.12 80.63C166.122 80.5934 165.127 80.7583 164.194 81.1149C163.261 81.4716 162.41 82.0126 161.691 82.7057C160.972 83.3988 160.4 84.2297 160.009 85.1488C159.619 86.0679 159.417 87.0563 159.417 88.055C159.417 89.0537 159.619 90.0421 160.009 90.9612C160.4 91.8803 160.972 92.7112 161.691 93.4043C162.41 94.0974 163.261 94.6384 164.194 94.9951C165.127 95.3517 166.122 95.5166 167.12 95.48C171.12 95.62 174.44 92.1 174.5 87.93C174.482 85.9858 173.696 84.1276 172.313 82.7603C170.931 81.393 169.064 80.6273 167.12 80.63V80.63ZM172.38 90.9C171.81 91.76 171.43 92.78 170.3 93.12C169.784 93.6366 169.09 93.937 168.36 93.96L168 94C167.2 94.2002 166.368 94.2335 165.555 94.0977C164.741 93.9619 163.965 93.66 163.274 93.2107C162.582 92.7615 161.991 92.1746 161.536 91.4867C161.082 90.7987 160.774 90.0245 160.632 89.2123C160.49 88.4002 160.517 87.5675 160.712 86.7662C160.906 85.9649 161.263 85.2123 161.761 84.5553C162.259 83.8982 162.887 83.3509 163.606 82.9473C164.325 82.5438 165.12 82.2928 165.94 82.21C166.196 82.0811 166.485 82.029 166.77 82.06C167.779 81.9142 168.809 82.062 169.737 82.4858C170.664 82.9096 171.45 83.5915 172 84.45V84.45C172.266 84.6454 172.476 84.907 172.609 85.2088C172.742 85.5105 172.794 85.8419 172.76 86.17C173.062 86.6286 173.242 87.1565 173.284 87.704C173.326 88.2515 173.229 88.8007 173 89.3C173.014 89.5969 172.964 89.8934 172.854 90.1694C172.743 90.4454 172.575 90.6945 172.36 90.9H172.38Z" fill="#9E22E9"/>
<path d="M169.7 89.33C169.475 88.3923 169.585 87.4055 170.01 86.54C169.986 86.4831 169.973 86.4219 169.973 86.36C169.973 86.2981 169.986 86.2369 170.01 86.18C169.99 85.8193 169.894 85.4669 169.728 85.1463C169.561 84.8257 169.328 84.5444 169.044 84.321C168.76 84.0976 168.432 83.9374 168.081 83.851C167.73 83.7646 167.365 83.754 167.01 83.82C166.01 83.82 165.07 83.82 164.1 83.87V92.08C165.42 92.62 166.04 92.08 166.18 90.76C166.18 90.38 166.26 89.9 166.71 89.76C167.32 89.64 167.39 90.21 167.57 90.6C167.656 90.845 167.796 91.0672 167.98 91.25L168.07 91.84C168.66 92.47 169.31 92.25 169.97 91.98C169.97 91.64 169.97 91.3 169.92 90.98C169.692 90.4618 169.616 89.8897 169.7 89.33ZM166.7 87.47C165.99 87.47 165.59 87.33 165.65 86.47C165.65 85.85 165.65 85.29 166.55 85.34C167.23 85.34 167.89 85.34 167.99 86.25C168 87.12 167.5 87.42 166.74 87.47H166.7Z" fill="#9E22E9"/>
<path d="M126 60H124L125.333 61L126 60Z" fill="#9E22E9"/>
<path d="M123.795 59.6565C124.514 59.6565 125.239 59.6889 125.953 59.6889C126.019 59.6889 126.397 59.7214 126.245 59.7214C126.133 59.7214 125.958 59.8933 125.935 59.9973C125.923 60.0517 125.863 60.1248 125.822 60.1506C125.779 60.1773 125.764 60.2907 125.735 60.3309C125.614 60.498 125.502 60.6418 125.36 60.7998C125.311 60.8537 125.349 60.9358 125.313 60.9801C125.266 61.0381 125.219 61.1032 125.183 61.1676C125.104 61.3111 125.016 61.5615 124.866 61.6365" stroke="#9E22E9" stroke-linecap="round" stroke-linejoin="round"/>
<path d="M123.697 60.0784C124.056 60.3501 124.144 60.7061 124.393 61.0234C124.446 61.0904 124.469 61.2205 124.516 61.2722C124.571 61.3333 124.559 61.4081 124.624 61.4489C124.671 61.4781 124.671 61.6001 124.718 61.6293C124.766 61.6591 124.908 61.7663 124.833 61.7663" stroke="#9E22E9" stroke-linecap="round" stroke-linejoin="round"/>
<path d="M163.675 53.6421C163.836 53.8248 163.934 53.9986 163.977 54.235C164.003 54.3784 164.137 54.4611 164.137 54.605" stroke="#9E22E9" stroke-linecap="round" stroke-linejoin="round"/>
<path d="M163.234 53.4816C163.227 53.6605 163.122 53.795 163.029 53.9363C162.99 53.9958 162.941 54.0532 162.913 54.1191C162.889 54.1756 162.904 54.2368 162.882 54.2919C162.85 54.3679 162.773 54.4216 162.723 54.4847C162.7 54.5145 162.618 54.589 162.612 54.6251C162.603 54.6799 162.537 54.6953 162.532 54.7455C162.523 54.8297 162.499 54.8438 162.453 54.9138C162.38 55.022 162.259 55.1049 162.191 55.2069" stroke="#9E22E9" stroke-linecap="round" stroke-linejoin="round"/>
<path d="M162.492 55.247C162.641 55.2121 162.848 55.1767 162.973 55.082C163.067 55.011 163.218 55.0446 163.299 54.9728C163.348 54.9291 163.456 54.9085 163.519 54.9059C163.605 54.9025 163.669 54.8458 163.756 54.8458" stroke="#9E22E9" stroke-linecap="round" stroke-linejoin="round"/>
</svg>
