<svg width="200" height="200" viewBox="0 0 200 200" fill="none" xmlns="http://www.w3.org/2000/svg">
<path d="M89.9969 24.0007C98.9969 24.0007 107.997 23.9007 117.077 24.0007C125.152 23.9856 132.974 26.8183 139.167 32.0007C142.49 34.6686 145.163 38.0572 146.984 41.9101C148.805 45.763 149.725 49.9795 149.677 54.2407C149.677 72.5007 142.677 87.4807 127.407 97.9807C119.824 103.124 110.917 105.968 101.757 106.171C96.0669 106.381 90.3669 106.261 84.6569 106.281C79.4669 106.281 77.2569 108.011 76.4069 113.131C74.6869 123.581 73.0969 134.061 71.4069 144.521C70.8269 148.191 70.1569 151.851 69.6769 155.521C69.5069 156.781 68.9669 157.011 67.8569 157.001C59.2969 157.001 50.7469 157.001 42.1969 157.001C37.7269 157.001 35.1969 154.001 35.8469 149.581C38.8669 130.207 41.9236 110.841 45.0169 91.4807L54.3169 32.6907C54.4569 31.7507 54.5969 30.8107 54.7869 29.8807C55.5869 26.0007 57.9969 24.0007 61.9369 24.0007H89.9969Z" fill="#9E22E9"/>
<path d="M160.698 70.3308C163.719 75.7714 164.878 82.0504 163.998 88.2108C161.898 105.831 153.418 119.091 136.838 126.451C130.704 129.069 124.075 130.328 117.408 130.141C115.188 130.141 112.978 130.141 110.758 130.141C106.868 130.191 105.278 131.361 104.548 135.251C103.548 140.761 102.718 146.321 101.838 151.861C100.838 157.861 99.9783 163.861 98.9683 169.861C98.2683 173.991 95.7883 175.991 91.5783 175.991C85.5783 175.991 79.5783 175.991 73.5783 175.991C70.4783 175.991 68.2283 174.431 67.5083 171.991C67.0383 170.421 67.3183 169.601 69.2083 169.671C72.2883 169.771 75.3783 169.671 78.4683 169.721C79.7883 169.721 80.3683 169.431 80.5883 167.951C82.5883 155.141 84.5883 142.351 86.6483 129.551C87.1383 126.551 87.7283 123.481 88.1083 120.431C88.2883 118.921 89.1683 118.991 90.2483 118.971C95.3083 118.891 100.368 119.121 105.428 118.621C131.868 116.011 152.538 98.8408 159.848 73.3208C159.998 72.5208 160.288 71.7008 160.698 70.3308Z" fill="#9E22E9"/>
</svg>
