<svg width="200" height="200" viewBox="0 0 200 200" fill="none" xmlns="http://www.w3.org/2000/svg">
<path d="M191.257 87.5295C188.157 81.0295 183.197 76.0295 177.507 71.7695C166.507 63.5195 153.987 58.5996 140.787 55.2896C122.312 50.7311 103.201 49.318 84.2566 51.1096C69.2066 52.4396 54.5766 55.5196 40.6266 61.4496C30.4766 65.7696 21.1166 71.2995 13.8166 79.7895C9.06658 85.3195 5.92659 91.5995 5.67659 98.9995C5.37659 108.11 9.33659 115.49 15.3966 121.92C22.5166 129.47 31.2766 134.56 40.7266 138.55C59.6466 146.55 79.5266 149.4 99.9066 149.6C105.387 149.6 110.837 149.3 116.287 148.81C131.197 147.46 145.687 144.33 159.487 138.44C169.567 134.14 178.917 128.66 186.097 120.16C194.367 110.38 196.997 99.5395 191.257 87.5295ZM183.507 115.53C177.327 123.53 169.007 128.7 159.997 132.85C147.167 138.76 133.607 141.94 119.617 143.56C102.752 145.543 85.684 144.953 68.9966 141.81C53.7866 138.93 39.2766 134.16 26.4966 125.09C22.6243 122.381 19.1794 119.108 16.2766 115.38C8.66659 105.48 8.67658 94.3795 16.3766 84.4995C22.5966 76.4995 30.8866 71.3395 39.9066 67.1795C52.6966 61.2995 66.1966 58.1196 80.0966 56.4896C86.9459 55.7111 93.8332 55.3138 100.727 55.2995C119.477 55.5095 138.377 58.1795 156.377 65.5895C165.927 69.5195 174.787 74.5895 181.787 82.3895C185.448 86.2181 187.948 91.0068 188.997 96.1995C190.277 103.51 187.887 109.81 183.507 115.48V115.53Z" fill="#9E22E9"/>
<path d="M106 77.999C108.479 78.0409 110.951 78.2581 113.4 78.649C120.06 79.949 122.58 83.459 121.48 90.199C120.62 95.449 119.56 100.669 118.58 105.889C118.13 108.239 117.58 110.559 117.2 112.889C117.01 114.229 116.4 114.539 115.2 114.499C112.74 114.429 110.27 114.419 107.82 114.499C106.35 114.499 105.98 114.209 106.29 112.649C107.72 105.499 109.29 98.369 110.35 91.139C110.82 87.869 109.88 86.479 106.55 86.199C103.22 85.919 99.9996 86.109 96.7296 85.999C95.4596 85.999 95.5896 86.889 95.4396 87.659C93.8096 96.029 92.1496 104.389 90.5696 112.769C90.3396 113.999 89.9396 114.529 88.6196 114.479C86.0896 114.379 83.5596 114.389 81.0296 114.479C79.6696 114.479 79.4996 114.129 79.7596 112.839C82.8129 97.379 85.8129 81.909 88.7596 66.429C89.0196 65.019 89.5596 64.669 90.8796 64.719C93.1303 64.874 95.3889 64.874 97.6396 64.719C99.7896 64.519 99.7996 65.489 99.4496 67.089C98.7896 70.089 98.2796 73.089 97.6096 76.089C97.2896 77.499 97.6096 78.089 99.1396 77.969C101.11 77.889 103.1 77.999 106 77.999Z" fill="#9E22E9"/>
<path d="M67.7601 78.2595C64.0901 78.0495 60.3901 78.2595 56.7001 78.2595V78.1195C52.9401 78.1195 49.1801 78.1195 45.4201 78.1195C44.3401 78.1195 43.9201 78.4295 43.7001 79.5695C40.7201 95.1828 37.6934 110.783 34.6201 126.369C34.3901 127.579 34.5301 127.929 35.8001 127.899C38.3901 127.819 40.9901 127.799 43.5801 127.899C44.9201 127.949 45.3001 127.439 45.5001 126.189C46.0501 122.889 46.8701 119.639 47.3701 116.339C47.6001 114.879 48.2301 114.629 49.5201 114.649C53.1401 114.719 56.7601 114.649 60.3801 114.499C73.0401 114.109 79.7501 104.649 81.3801 95.8395C83.1601 85.9995 77.6801 78.8195 67.7601 78.2595ZM68.7601 100.069C67.0201 104.149 63.7601 106.069 59.4901 106.469C56.5701 106.729 53.6201 106.589 50.6801 106.689C49.6201 106.689 49.3901 106.289 49.5701 105.339C50.7801 99.2595 52.0001 93.1695 53.1401 87.0695C53.3301 86.0695 53.8201 85.9095 54.6701 85.9295C56.1701 85.9295 57.6701 85.9295 59.7801 85.9295C61.6257 85.8872 63.471 86.0245 65.2901 86.3395C68.9401 87.1995 70.5201 89.1795 70.3501 92.9095C70.2459 95.3743 69.6971 97.7999 68.7301 100.069H68.7601Z" fill="#9E22E9"/>
<path d="M156.068 78.8505C154.286 78.3793 152.451 78.1407 150.608 78.1405C143.768 78.1405 136.938 78.1405 130.108 78.0605C128.738 78.0605 128.428 78.6305 128.198 79.8205C126.658 88.0006 125.008 96.1606 123.418 104.331C121.918 112.091 120.418 119.851 118.898 127.821C122.118 127.821 125.188 127.761 128.238 127.821C129.488 127.821 129.848 127.401 130.038 126.241C130.588 122.941 131.388 119.691 131.908 116.391C132.138 114.901 132.748 114.541 134.178 114.551C137.798 114.551 141.418 114.451 145.038 114.361C157.778 114.051 164.268 104.461 165.868 96.0806C167.518 87.5206 163.798 80.9305 156.068 78.8505ZM152.498 101.531C150.618 104.761 147.578 106.191 144.028 106.531C141.118 106.771 138.168 106.631 135.238 106.741C134.048 106.741 133.878 106.281 134.088 105.261C135.278 99.3206 136.488 93.3906 137.568 87.4306C137.808 86.1506 138.348 85.9005 139.468 85.9605C140.888 86.0305 142.328 85.9605 144.388 85.9605C146.361 85.9069 148.333 86.0747 150.268 86.4605C153.268 87.2605 154.808 88.9906 154.848 92.1506C154.935 95.433 154.122 98.6768 152.498 101.531V101.531Z" fill="#9E22E9"/>
</svg>
