<svg width="195" height="200" viewBox="0 0 195 200" fill="none" xmlns="http://www.w3.org/2000/svg">
<path fill-rule="evenodd" clip-rule="evenodd" d="M128.157 0.902645C125.078 1.37765 121.178 2.13221 119.492 2.57999C116.982 3.24607 115.742 3.30781 112.677 2.92129C99.0211 1.19825 89.3251 2.26154 80.1715 6.48505L76.4339 8.21004L72.4792 7.01839C63.2283 4.23108 54.3565 2.87511 45.3445 2.87122C29.7886 2.86441 19.3012 6.91386 10.8597 16.1864C0.742252 27.2997 -2.40826 45.663 1.83948 68.7642C5.76983 90.1408 12.6331 112.855 19.3562 126.737C26.3139 141.102 33.7783 148.412 42.1794 149.085C46.0835 149.398 49.4847 148.599 52.844 146.578L55.4591 145.006L57.0835 146.36C59.2979 148.207 63.3592 150.064 67.2414 151.007C71.8016 152.113 80.2893 152.087 84.3457 150.954C90.3026 149.29 89.7005 148.93 89.7005 154.162C89.7005 160.473 90.5845 171.088 91.4709 175.427C92.4761 180.346 95.1491 187.652 96.994 190.524C99.153 193.883 102.393 196.694 106.164 198.478C109.285 199.955 109.659 200.016 115.5 199.998C120.253 199.983 122.491 199.736 125.723 198.87C138.569 195.43 145.551 188.748 149.752 175.872C151.217 171.383 152.841 161.859 153.22 155.531C153.372 152.991 153.619 149.326 153.769 147.387L154.04 143.863H158.802C164.379 143.863 170.825 142.835 175.557 141.191C182.833 138.664 191.33 132.253 193.378 127.745C194.867 124.469 194.695 120.757 192.926 117.969C190.309 113.849 185.937 112.583 178.783 113.875C172.891 114.938 169.534 115.322 169.534 114.932C169.534 114.746 170.769 112.396 172.279 109.71C180.677 94.765 188.1 75.1074 191.481 58.861C192.621 53.3807 193.029 49.9298 193.24 43.9511C193.732 30.0792 192.129 25.3885 184.168 17.4043C178.959 12.1802 173.804 8.51439 167.716 5.7052C156.402 0.484524 142.116 -1.24971 128.157 0.902645ZM149.576 6.01442C162.679 8.02529 173.047 13.3276 181.287 22.2307C186.538 27.9055 187.604 31.0837 187.59 41.0223C187.561 60.4956 178.02 88.9648 163.331 113.408C159.813 119.262 159.805 119.157 163.838 120.024C167.025 120.708 169.919 120.65 175.376 119.79C177.919 119.389 181.033 118.924 182.296 118.755C188.062 117.986 190.536 122.282 186.959 126.847C183.961 130.673 175.545 135.415 169.119 136.899C165.511 137.733 154.009 138.142 151.057 137.542C149.866 137.3 149.858 137.324 149.223 143.133C147.787 156.288 145.109 173.739 143.981 177.308C141.868 183.985 138.217 188.338 132.301 191.233C124.049 195.27 114.033 196.189 107.886 193.473C105.282 192.323 100.851 188.215 99.224 185.441C95.5483 179.176 94.6166 173.275 94.2296 153.795L93.9492 139.662L90.8347 141.748C86.4146 144.708 82.3168 145.886 76.3137 145.92C66.1899 145.978 58.5458 142.479 58.5458 137.785C58.5458 134.485 61.2017 132.724 68.9437 130.893C75.3226 129.384 76.6987 128.662 79.3284 125.439L81.5525 122.713L78.8051 122.365C77.2936 122.174 74.7462 121.489 73.1437 120.842L70.2307 119.667L65.9382 124.35C63.5778 126.926 59.6143 131.39 57.1312 134.269C50.7299 141.692 48.2877 143.314 43.4553 143.35C38.8064 143.386 33.1436 139.229 28.8355 132.619C18.2424 116.366 5.48603 71.4912 5.48555 50.4787C5.48555 30.1721 12.7606 16.8496 27.0139 11.0562C38.3892 6.43302 54.5853 6.90608 72.0728 12.3728L77.5677 14.0905L78.9093 13.1361C81.1422 11.5487 85.8134 9.66714 90.1872 8.59461C95.4684 7.29941 105.494 7.19488 111.606 8.37194C115.547 9.13088 115.883 9.12504 118.671 8.25574C121.133 7.48756 124.661 6.81614 132.538 5.6172C135.631 5.14609 145.401 5.37411 149.576 6.01442ZM129.739 11.731C127.798 11.9877 126.212 12.3412 126.215 12.5167C126.219 12.6917 127.141 13.2727 128.266 13.8075C141.34 20.0239 154.585 35.4394 159.555 50.2239C160.847 54.0692 161.042 57.4934 160.279 62.9124C158.763 73.6766 158.642 76.8733 159.475 84.3047C160.898 97.0097 160.31 103.545 157.19 109.693C156.485 111.084 156.138 112.338 156.36 112.697C157.115 113.917 166.675 96.1214 171.22 85.0339C180.941 61.3167 184.696 37.8101 180.032 29.8614C178.578 27.3838 172.146 21.2117 168.529 18.8235C163.323 15.3862 155.661 12.5974 148.812 11.6459C144.418 11.0353 134.665 11.079 129.739 11.731ZM93.5948 13.8133C77.3282 16.6444 66.9225 29.3743 63.2248 50.9649C61.9621 58.3384 61.802 58.036 65.9694 56.1316C70.6728 53.9821 75.0991 52.9456 79.5747 52.9456C86.5933 52.9456 90.9057 55.3896 93.5515 60.8665C96.7507 67.4894 98.2592 85.1983 96.3466 93.6813C95.578 97.0909 94.877 99.0381 90.0101 111.288C88.7882 114.363 87.7805 117.153 87.7708 117.487C87.7601 117.862 88.4124 118.095 89.4726 118.095C93.0759 118.095 96.7156 120.587 98.542 124.305C99.65 126.56 99.6724 126.911 99.7522 143.133C99.8325 159.498 100.424 170.76 101.457 175.624C102.08 178.55 104.183 182.935 106.001 185.091C106.699 185.92 108.519 187.208 110.046 187.955C112.376 189.094 113.411 189.305 116.474 189.269C121.023 189.215 125.417 188.116 129.964 185.895C134.999 183.437 137.38 180.258 139.049 173.763C140.32 168.816 144.705 134.692 144.707 129.73C144.709 124.55 147.519 119.821 151.344 118.559L152.982 118.02L150.677 115.027C148.357 112.016 141.388 99.3395 136.881 89.9313C127.592 70.5441 128.284 58.4867 138.96 53.6603C141.669 52.4356 142.733 52.2474 147.994 52.0641C151.274 51.9494 153.957 51.7583 153.957 51.6397C153.957 50.9211 150.146 43.3867 148.227 40.3105C138.775 25.16 124.218 15.6677 107.238 13.5844C102.023 12.9445 98.2203 13.0082 93.5948 13.8133ZM38.1945 14.0511C24.6783 15.9569 16.1954 23.365 12.6983 36.316C11.4205 41.0471 10.9094 54.5315 11.7934 60.1742C14.5457 77.7406 20.6691 100.704 26.2642 114.441C32.2304 129.089 37.9078 136.835 43.0931 137.402C45.7967 137.698 47.3963 136.604 52.1348 131.222C54.1355 128.949 57.9086 124.693 60.5197 121.765L65.2664 116.442L62.7161 113.627C59.827 110.438 57.5381 106.099 56.3314 101.523C55.6328 98.8732 55.5715 97.3432 55.9244 91.3544C56.1527 87.477 56.3489 77.8505 56.3596 69.9621C56.3733 60.2962 56.5899 54.4309 57.0246 51.9732C59.5909 37.4683 63.1119 28.9124 69.8871 20.7162C70.9463 19.4351 71.7301 18.3106 71.6293 18.2167C71.2034 17.82 63.5792 15.8879 58.9377 15.0001C53.1721 13.8975 42.6857 13.4176 38.1945 14.0511ZM143.413 58.2732C141.227 58.7934 138.893 60.2564 137.701 61.854C136.897 62.9299 136.639 64.0958 136.507 67.2589C136.211 74.313 138.755 81.4196 147.294 97.3952L152.211 106.597L152.863 105.002C154.595 100.762 154.852 94.9303 153.71 85.7817C152.742 78.0333 152.793 73.9566 153.964 65.6589C154.503 61.836 154.818 58.5056 154.665 58.2577C154.338 57.7287 145.65 57.7408 143.413 58.2732ZM73.6363 59.5543C70.8796 60.2855 64.8366 63.0004 63.2453 64.2227C62.4255 64.8518 62.3355 65.8733 62.2225 75.8241C62.1544 81.8256 61.9266 89.0547 61.7163 91.8887C61.2757 97.8284 61.7713 100.691 64.0139 105.167C67.0501 111.226 73.2508 115.88 79.0928 116.481L81.7911 116.76L82.8961 113.416C83.5036 111.577 84.9825 107.775 86.1819 104.968C90.5582 94.7227 91.2426 91.6845 91.2095 82.6468C91.1832 75.3291 89.8095 66.5783 88.169 63.2751C86.0851 59.0783 80.6627 57.6898 73.6363 59.5543ZM149.255 60.9589C150.261 61.9644 149.734 63.4715 147.885 64.8805C145.927 66.3716 143.368 66.447 141.609 65.0648C139.804 63.647 139.926 62.0159 141.909 61.0396C143.942 60.0386 148.285 59.9909 149.255 60.9589ZM84.5658 62.3849C87.0888 63.438 87.5357 64.706 86.0184 66.5073C84.5337 68.2697 82.0535 68.8818 79.9398 68.0072C77.0483 66.8112 75.5212 63.3203 77.409 62.222C78.6527 61.4986 82.66 61.59 84.5658 62.3849ZM154.568 123.645C152.066 124.49 150.931 125.971 150.664 128.739C150.438 131.088 150.491 131.224 151.827 131.747C153.991 132.593 165.649 131.996 169.538 130.841C173.181 129.758 176.82 127.984 179.27 126.096L180.974 124.784L179.27 125.101C170.703 126.694 162.434 126.358 158.328 124.249C156.46 123.29 155.893 123.199 154.568 123.645ZM85.4712 127.181C79.674 133.844 78.3271 134.647 69.5862 136.658C65.9952 137.483 65.3735 137.76 65.9202 138.291C66.7234 139.071 73.2975 140.459 76.191 140.459C78.9312 140.459 83.2792 139.314 86.1795 137.828C88.7551 136.509 93.3154 132.055 93.8221 130.363C94.287 128.812 93.2643 126.067 91.7902 124.909C89.6547 123.231 88.5672 123.622 85.4712 127.181Z" fill="#9E22E9"/>
</svg>
