<svg width="200" height="200" viewBox="0 0 200 200" fill="none" xmlns="http://www.w3.org/2000/svg">
<g clip-path="url(#clip0)">
<path d="M37.2624 73.1026L37.2736 73.0896L37.2842 73.0762C39.0093 70.9144 41.2059 69.1757 43.706 67.993C46.2061 66.8102 48.9435 66.2149 51.709 66.2524V66.2525H51.7226H51.7385H51.7545H51.7704H51.7863H51.8023H51.8182H51.8342H51.8501H51.866H51.882H51.8979H51.9138H51.9298H51.9457H51.9617H51.9776H51.9935H52.0095H52.0254H52.0413H52.0573H52.0732H52.0892H52.1051H52.121H52.137H52.1529H52.1688H52.1848H52.2007H52.2167H52.2326H52.2485H52.2645H52.2804H52.2963H52.3123H52.3282H52.3442H52.3601H52.376H52.392H52.4079H52.4238H52.4398H52.4557H52.4717H52.4876H52.5035H52.5195H52.5354H52.5513H52.5673H52.5832H52.5992H52.6151H52.631H52.647H52.6629H52.6788H52.6948H52.7107H52.7267H52.7426H52.7585H52.7745H52.7904H52.8063H52.8223H52.8382H52.8542H52.8701H52.886H52.902H52.9179H52.9338H52.9498H52.9657H52.9817H52.9976H53.0135H53.0295H53.0454H53.0613H53.0773H53.0932H53.1092H53.1251H53.141H53.157H53.1729H53.1888H53.2048H53.2207H53.2367H53.2526H53.2685H53.2845H53.3004H53.3163H53.3323H53.3482H53.3642H53.3801H53.396H53.412H53.4279H53.4438H53.4598H53.4757H53.4917H53.5076H53.5235H53.5395H53.5554H53.5713H53.5873H53.6032H53.6192H53.6351H53.651H53.667H53.6829H53.6988H53.7148H53.7307H53.7467H53.7626H53.7785H53.7945H53.8104H53.8263H53.8423H53.8582H53.8742H53.8901H53.906H53.922H53.9379H53.9538H53.9698H53.9857H54.0017H54.0176H54.0335H54.0495H54.0654H54.0813H54.0973H54.1132H54.1292H54.1451H54.161H54.177H54.1929H54.2088H54.2248H54.2407H54.2567H54.2726H54.2885H54.3045H54.3204H54.3363H54.3523H54.3682H54.3842H54.4001H54.416H54.432H54.4479H54.4638H54.4798H54.4957H54.5117H54.5276H54.5435H54.5595H54.5754H54.5913H54.6073H54.6232H54.6392H54.6551H54.671H54.687H54.7029H54.7188H54.7348H54.7507H54.7667H54.7826H54.7985H54.8145H54.8304H54.8463H54.8623H54.8782H54.8942H54.9101H54.926H54.942H54.9579H54.9738H54.9898H55.0057H55.0217H55.0376H55.0535H55.0695H55.0854H55.1013H55.1173H55.1332H55.1492H55.1651H55.181H55.197H55.2129H55.2288H55.2448H55.2607H55.2767H55.2926H55.3085H55.3245H55.3404H55.3563H55.3723H55.3882H55.4042H55.4201H55.436H55.452H55.4679H55.4838H55.4998H55.5157H55.5317H55.5476H55.5635H55.5795H55.5954H55.6113H55.6273H55.6432H55.6592H55.6751H55.691H55.707H55.7229H55.7388H55.7548H55.7707H55.7867H55.8026H55.8185H55.8345H55.8504H55.8663H55.8823H55.8982H55.9142H55.9301H55.946H55.962H55.9779H55.9938H56.0098H56.0257H56.0417H56.0576H56.0735H56.0895H56.1054H56.1213H56.1373H56.1532H56.1692H56.1851H56.201H56.217H56.2329H56.2488H56.2648H56.2807H56.2967H56.3126H56.3285H56.3445H56.3604H56.3763H56.3923H56.4082H56.4242H56.4401H56.456H56.472H56.4879H56.5038H56.5198H56.5357H56.5517H56.5676H56.5835H56.5995H56.6154H56.6313H56.6473H56.6632H56.6792H56.6951H56.711H56.727H56.7429H56.7588H56.7748H56.7907H56.8067H56.8226H56.8385H56.8545H56.8704H56.8863H56.9023H56.9182H56.9342H56.9501H56.966H56.982H56.9979H57.0138H57.0298H57.0457H57.0617H57.0776H57.0935H57.1095H57.1254H57.1413H57.1573H57.1732H57.1892H57.2051H57.221H57.237H57.2529H57.2688H57.2848H57.3007H57.3167H57.3326H57.3485H57.3645H57.3804H57.3963H57.4123H57.4282H57.4442H57.4601H57.476H57.492H57.5079H57.5238H57.5398H57.5557H57.5717H57.5876H57.6035H57.6195H57.6354H57.6513H57.6673H57.6832H57.6992H57.7151H57.731H57.747H57.7629H57.7788H57.7948H57.8107H57.8267H57.8426H57.8585H57.8745H57.8904H57.9063H57.9223H57.9382H57.9542H57.9701H57.986H58.002H58.0179H58.0338H58.0498H58.0657H58.0817H58.0976H58.1135H58.1295H58.1454H58.1613H58.1773H58.1932H58.2092H58.2251H58.241H58.257H58.2729H58.2888H58.3048H58.3207H58.3367H58.3526H58.3685H58.3845H58.4004H58.4163H58.4323H58.4482H58.4642H58.4801H58.496H58.512H58.5279H58.5438H58.5598H58.5757H58.5917H58.6076H58.6235H58.6395H58.6554H58.6713H58.6873H58.7032H58.7192H58.7351H58.751H58.767H58.7829H58.7988H58.8148H58.8307H58.8467H58.8626H58.8785H58.8945H58.9104H58.9263H58.9423H58.9582H58.9742H58.9901H59.006H59.022H59.0379H59.0538H59.0698H59.0857H59.1017H59.1176H59.1335H59.1495H59.1654H59.1813H59.1973H59.2132H59.2292H59.2451H59.261H59.277H59.2929H59.3088H59.3248H59.3407H59.3567H59.3726H59.3885H59.4045H59.4204H59.4363H59.4523H59.4682H59.4842H59.5001H59.516H59.532H59.5479H59.5638H59.5798H59.5957H59.6117H59.6276H59.6435H59.6595H59.6754H59.6913H59.7073H59.7232H59.7392H59.7551H59.771H59.787H59.8029H59.8188H59.8348H59.8507H59.8667H59.8826C61.8438 66.2525 63.8932 65.8386 65.1951 63.7151L65.3388 63.4808L65.3425 63.206C65.4022 58.7991 65.4554 54.3922 65.5019 49.9853C66.6952 41.2869 72.4645 36.2439 80.2245 33.6826C95.1344 28.8117 110.022 28.4264 124.281 35.8495L124.281 35.8497C130.004 38.8255 133.618 43.4711 134.504 50.0379L134.743 63.3504L134.748 63.6613L134.929 63.9142C135.472 64.6736 135.733 65.599 135.665 66.5302L135.662 66.5713L135.663 66.6126C135.676 67.9537 135.702 69.2872 135.728 70.615C135.818 75.1825 135.906 79.6828 135.481 84.1905C134.574 89.4461 132.026 93.1394 128.579 95.5238C125.103 97.928 120.644 99.0458 115.894 98.9925C104.767 98.8624 93.639 98.8424 82.5091 98.9925C72.3631 99.1295 64.7408 106.598 64.5231 116.399C64.4285 118.542 64.4826 120.705 64.5356 122.826C64.5559 123.64 64.5761 124.448 64.5877 125.247C64.6294 128.123 64.5626 130.93 64.0327 133.699C63.9611 133.841 63.8566 133.963 63.7276 134.057C63.5796 134.164 63.405 134.229 63.223 134.244C62.0128 134.297 60.8338 134.375 59.6678 134.453C57.8565 134.574 56.0768 134.693 54.2613 134.709C51.3258 134.734 48.4795 134.481 45.719 133.527L45.7178 133.527C37.3934 130.664 33.7462 123.772 31.2213 115.64C29.088 105.558 29.0393 95.1453 31.078 85.0434C32.6608 80.6782 34.3284 76.532 37.2624 73.1026Z" stroke="#9E22E9" stroke-width="2"/>
<path d="M65.0553 135.115L65.277 134.844L65.2817 134.495L65.5304 116.072C66.5008 111.488 68.5456 107.971 71.458 105.585C74.39 103.183 78.2834 101.86 83.0478 101.831H83.048C88.4251 101.798 93.8004 101.817 99.1803 101.836L99.877 101.839C105.488 101.859 111.103 101.876 116.72 101.831L116.724 101.831C121.501 101.774 125.61 100.564 128.869 98.3043C132.133 96.0421 134.487 92.7685 135.813 88.6904L135.813 88.6903C136.023 88.0425 136.071 87.3766 136.108 86.8565C136.113 86.7809 136.118 86.7084 136.124 86.6394C136.17 86.0452 136.235 85.6313 136.427 85.2672L136.539 85.054L136.542 84.8131C136.612 78.8711 136.677 72.926 136.735 66.9778C140.656 65.4231 145.66 65.2809 150.436 66.3471C155.456 67.4678 160.055 69.8852 162.771 73.1686L162.772 73.1693C165.638 76.6281 167.358 80.7516 168.896 85.0902C170.965 95.1536 170.928 105.536 168.79 115.585C167.436 120.539 165.37 125.054 161.855 128.664L161.847 128.672L161.84 128.68C160.116 130.532 158.03 132.01 155.711 133.022C153.392 134.033 150.89 134.557 148.36 134.561H148.346H148.33H148.314H148.298H148.282H148.266H148.25H148.234H148.218H148.202H148.186H148.171H148.155H148.139H148.123H148.107H148.091H148.075H148.059H148.043H148.027H148.011H147.995H147.979H147.963H147.947H147.931H147.916H147.9H147.884H147.868H147.852H147.836H147.82H147.804H147.788H147.772H147.756H147.74H147.724H147.708H147.692H147.676H147.661H147.645H147.629H147.613H147.597H147.581H147.565H147.549H147.533H147.517H147.501H147.485H147.469H147.453H147.437H147.421H147.406H147.39H147.374H147.358H147.342H147.326H147.31H147.294H147.278H147.262H147.246H147.23H147.214H147.198H147.182H147.166H147.151H147.135H147.119H147.103H147.087H147.071H147.055H147.039H147.023H147.007H146.991H146.975H146.959H146.943H146.927H146.912H146.896H146.88H146.864H146.848H146.832H146.816H146.8H146.784H146.768H146.752H146.736H146.72H146.704H146.688H146.672H146.657H146.641H146.625H146.609H146.593H146.577H146.561H146.545H146.529H146.513H146.497H146.481H146.465H146.449H146.433H146.418H146.402H146.386H146.37H146.354H146.338H146.322H146.306H146.29H146.274H146.258H146.242H146.226H146.21H146.194H146.179H146.163H146.147H146.131H146.115H146.099H146.083H146.067H146.051H146.035H146.019H146.003H145.987H145.971H145.955H145.94H145.924H145.908H145.892H145.876H145.86H145.844H145.828H145.812H145.796H145.78H145.764H145.748H145.732H145.716H145.701H145.685H145.669H145.653H145.637H145.621H145.605H145.589H145.573H145.557H145.541H145.525H145.509H145.493H145.478H145.462H145.446H145.43H145.414H145.398H145.382H145.366H145.35H145.334H145.318H145.302H145.286H145.27H145.255H145.239H145.223H145.207H145.191H145.175H145.159H145.143H145.127H145.111H145.095H145.079H145.063H145.047H145.032H145.016H145H144.984H144.968H144.952H144.936H144.92H144.904H144.888H144.872H144.856H144.84H144.824H144.809H144.793H144.777H144.761H144.745H144.729H144.713H144.697H144.681H144.665H144.649H144.633H144.617H144.602H144.586H144.57H144.554H144.538H144.522H144.506H144.49H144.474H144.458H144.442H144.426H144.41H144.394H144.379H144.363H144.347H144.331H144.315H144.299H144.283H144.267H144.251H144.235H144.219H144.203H144.187H144.172H144.156H144.14H144.124H144.108H144.092H144.076H144.06H144.044H144.028H144.012H143.996H143.981H143.965H143.949H143.933H143.917H143.901H143.885H143.869H143.853H143.837H143.821H143.805H143.789H143.774H143.758H143.742H143.726H143.71H143.694H143.678H143.662H143.646H143.63H143.614H143.598H143.583H143.567H143.551H143.535H143.519H143.503H143.487H143.471H143.455H143.439H143.423H143.407H143.392H143.376H143.36H143.344H143.328H143.312H143.296H143.28H143.264H143.248H143.232H143.216H143.201H143.185H143.169H143.153H143.137H143.121H143.105H143.089H143.073H143.057H143.041H143.026H143.01H142.994H142.978H142.962H142.946H142.93H142.914H142.898H142.882H142.866H142.85H142.835H142.819H142.803H142.787H142.771H142.755H142.739H142.723H142.707H142.691H142.675H142.66H142.644H142.628H142.612H142.596H142.58H142.564H142.548H142.532H142.516H142.5H142.485H142.469H142.453H142.437H142.421H142.405H142.389H142.373H142.357H142.341H142.326H142.31H142.294H142.278H142.262H142.246H142.23H142.214H142.198H142.182H142.166H142.151H142.135H142.119H142.103H142.087H142.071H142.055H142.039H142.023H142.007H141.992H141.976H141.96H141.944H141.928H141.912H141.896H141.88H141.864H141.848H141.833H141.817H141.801H141.785H141.769H141.753H141.737H141.721H141.705H141.689H141.674H141.658H141.642H141.626H141.61H141.594H141.578H141.562H141.546H141.53H141.515H141.499H141.483H141.467H141.451H141.435H141.419H141.403H141.387H141.372H141.356H141.34H141.324H141.308H141.292H141.276H141.26H141.244H141.228H141.213H141.197H141.181H141.165H141.149H141.133H141.117H141.101H141.085H141.07H141.054H141.038H141.022H141.006H140.99H140.974H140.958H140.942H140.927H140.911H140.895H140.879H140.863H140.847H140.831H140.815H140.799H140.784H140.768H140.752H140.736H140.72H140.704H140.688H140.672H140.656H140.641H140.625H140.609H140.593H140.577H140.561H140.545H140.529H140.514H140.498H140.482H140.466H140.45H140.434H140.418H140.402H140.386H140.371H140.355H140.339H140.323H140.307H140.291H140.275H140.259H140.244H140.228H140.212C138.292 134.561 136.192 134.884 134.878 137.041L134.759 137.236L134.737 137.463C134.522 139.636 134.573 141.836 134.623 143.965C134.637 144.534 134.65 145.098 134.658 145.656C134.697 148.331 134.619 150.903 133.94 153.417C131.752 160.726 126.354 165.134 119.484 167.277C104.896 171.813 90.3417 172.191 76.311 165.333L76.3019 165.328L76.2928 165.324C73.8311 164.182 71.6437 162.523 69.8787 160.462C68.1154 158.402 66.8149 155.988 66.065 153.382C65.3851 150.866 65.307 148.293 65.3454 145.614C65.3534 145.057 65.3667 144.492 65.3801 143.923C65.4301 141.793 65.4818 139.59 65.2669 137.413L65.2376 137.115L65.0494 136.882C64.847 136.632 64.7371 136.32 64.7382 135.998C64.7392 135.676 64.8512 135.364 65.0553 135.115Z" stroke="#9E22E9" stroke-width="2"/>
<path d="M135.498 49.9124C132.498 39.6424 124.948 34.3024 115.168 32.1824C102.878 29.5124 90.488 29.0824 78.568 34.3224C71.568 37.3924 66.568 42.3224 64.498 49.9124C64.398 43.0924 68.018 38.2924 73.148 34.4524C77.9013 30.8641 83.5659 28.6814 89.498 28.1524C98.328 27.3324 107.218 26.8624 115.918 29.2324C121.718 30.6344 126.951 33.7745 130.918 38.2324C133.808 41.5424 135.758 45.3124 135.498 49.9124Z" fill="#8020BA"/>
<path d="M65.1019 153.652C71.6619 165.792 82.6619 169.802 95.5619 170.092C102.062 170.242 108.562 170.452 115.012 168.792C123.812 166.512 130.632 161.792 134.902 153.652C134.652 159.412 130.982 163.102 126.842 166.292C122.034 170.038 116.221 172.269 110.142 172.702C97.4619 173.592 84.6119 174.562 73.4519 166.472C69.0919 163.312 65.3319 159.582 65.1019 153.652Z" fill="#8020BA"/>
<path d="M135.732 137.521C135.252 135.301 135.992 134.371 138.402 134.521C142.225 134.776 146.06 134.776 149.882 134.521C158.212 133.741 163.422 128.581 167.052 121.521C167.992 119.661 168.862 117.771 169.762 115.891C169.092 124.891 159.972 138.961 146.842 137.651C143.172 137.171 139.432 137.511 135.732 137.521Z" fill="#8020BA"/>
<path d="M64.3402 63.1912C64.6502 65.3312 63.9702 66.4312 61.5602 66.2912C58.8602 66.1312 56.1202 66.3912 53.4202 66.2312C44.0002 65.6612 37.8802 70.5812 33.5002 78.3112C32.3102 80.4212 31.2402 82.6112 30.1102 84.7712C31.1939 77.507 35.1092 70.9672 41.0002 66.5812C44.7002 63.8012 49.0002 63.0512 53.5902 63.2512C57.1902 63.3812 60.7702 63.2212 64.3402 63.1912Z" fill="#8020BA"/>
<path d="M169.863 84.772C167.093 80.092 165.333 74.772 160.933 71.112C157.433 68.202 153.633 66.242 148.993 66.252H135.743V63.252C139.433 63.252 143.123 63.412 146.803 63.252C155.053 62.812 160.933 66.662 165.263 73.252C167.563 76.762 169.493 80.472 169.863 84.772Z" fill="#8020BA"/>
<path d="M31.1392 118.758C31.1931 118.87 31.2471 118.982 31.3012 119.094C31.3554 119.206 31.4097 119.319 31.4641 119.432C32.0055 120.554 32.5552 121.682 33.1518 122.787C34.3456 124.998 35.7371 127.133 37.6642 128.983L37.6647 128.983C41.7373 132.883 46.3614 135.187 52.1656 135.012L52.1666 135.012C54.8432 134.926 57.5205 134.946 60.2122 134.966C61.3985 134.974 62.5875 134.983 63.7805 134.983V134.986V134.992V134.998V135.004V135.01V135.015V135.021V135.027V135.033V135.039V135.045V135.051V135.056V135.062V135.068V135.074V135.08V135.086V135.092V135.097V135.103V135.109V135.115V135.121V135.127V135.133V135.139V135.144V135.15V135.156V135.162V135.168V135.174V135.18V135.185V135.191V135.197V135.203V135.209V135.215V135.221V135.226V135.232V135.238V135.244V135.25V135.256V135.262V135.267V135.273V135.279V135.285V135.291V135.297V135.303V135.308V135.314V135.32V135.326V135.332V135.338V135.344V135.349V135.355V135.361V135.367V135.373V135.379V135.385V135.39V135.396V135.402V135.408V135.414V135.42V135.426V135.431V135.437V135.443V135.449V135.455V135.461V135.467V135.472V135.478V135.484V135.49V135.496V135.502V135.508V135.514V135.519V135.525V135.531V135.537V135.543V135.549V135.555V135.56V135.566V135.572V135.578V135.584V135.59V135.596V135.601V135.607V135.613V135.619V135.625V135.631V135.637V135.642V135.648V135.654V135.66V135.666V135.672V135.678V135.683V135.689V135.695V135.701V135.707V135.713V135.719V135.724V135.73V135.736V135.742V135.748V135.754V135.76V135.765V135.771V135.777V135.783V135.789V135.795V135.801V135.806V135.812V135.818V135.824V135.83V135.836V135.842V135.847V135.853V135.859V135.865V135.871V135.877V135.883V135.889V135.894V135.9V135.906V135.912V135.918V135.924V135.93V135.935V135.941V135.947V135.953V135.959V135.965V135.971V135.976V135.982V135.988V135.994V136V136.006V136.012V136.017V136.023V136.029V136.035V136.041V136.047V136.053V136.058V136.064V136.07V136.076V136.082V136.088V136.094V136.099V136.105V136.111V136.117V136.123V136.129V136.135V136.14V136.146V136.152V136.158V136.164V136.17V136.176V136.181V136.187V136.193V136.199V136.205V136.211V136.217V136.222V136.228V136.234V136.24V136.246V136.252V136.258V136.264V136.269V136.275V136.281V136.287V136.293V136.299V136.305V136.31V136.316V136.322V136.328V136.334V136.34V136.346V136.351V136.357V136.363V136.369V136.375V136.381V136.387V136.392V136.398V136.404V136.41V136.416V136.422V136.428V136.433V136.439V136.445V136.451V136.457V136.463V136.469V136.474V136.48V136.486V136.492V136.498V136.504V136.51V136.515V136.521V136.527V136.533V136.539V136.545V136.551V136.556V136.562V136.568V136.574V136.58V136.586V136.592V136.597V136.603V136.609V136.615V136.621V136.627V136.633V136.639V136.644V136.65V136.656V136.662V136.668V136.674V136.68V136.685V136.691V136.697V136.703V136.709V136.715V136.721V136.726V136.732V136.738V136.744V136.75V136.756V136.762V136.767V136.773V136.779V136.785V136.791V136.797V136.803V136.808V136.814V136.82V136.826V136.832V136.838V136.844V136.849V136.855V136.861V136.867V136.873V136.879V136.885V136.89V136.896V136.902V136.908V136.914V136.92V136.926V136.931V136.937V136.943V136.949V136.955V136.961V136.967V136.973V136.978V136.981C62.6869 136.978 61.5872 136.962 60.4845 136.947C57.927 136.911 55.3529 136.875 52.7995 136.983L52.7988 136.983C45.1953 137.314 39.6876 133.818 35.5751 127.723C33.6587 124.875 31.8928 122.001 31.1392 118.758Z" fill="#8020BA" stroke="#8020BA"/>
<path d="M135.538 84.7523C135.628 94.5423 128.218 101.752 117.738 101.842C107.258 101.932 96.7383 102.222 86.3083 101.772C75.4083 101.302 68.1283 105.602 64.5283 115.962C64.6356 111.404 66.5246 107.069 69.7905 103.888C73.0563 100.706 77.4389 98.9306 81.9983 98.9423C93.1183 98.8023 104.248 98.9423 115.368 98.9423C126.758 98.8923 131.868 95.3123 135.538 84.7523Z" fill="#9E22E9"/>
<path d="M76.928 48.4325C75.708 44.1125 76.848 41.1225 80.198 39.9025C81.6623 39.3953 83.2661 39.4743 84.6734 40.123C86.0807 40.7717 87.1825 41.9397 87.748 43.3825C88.448 45.1325 87.998 46.7625 87.448 48.3825C87.098 51.5825 84.678 52.1925 82.188 52.1925C79.698 52.1925 77.278 51.6325 76.928 48.4325Z" fill="#9E22E9"/>
<path d="M76.9278 48.4322C80.8778 52.5322 83.5178 52.5322 87.4478 48.4322C88.9378 50.8222 87.0878 52.1622 85.6278 53.2822C84.6624 54.0876 83.445 54.5287 82.1878 54.5287C80.9306 54.5287 79.7132 54.0876 78.7478 53.2822C77.2978 52.1622 75.4478 50.8222 76.9278 48.4322Z" fill="#8020BA"/>
<path d="M111.937 154.382C111.837 149.329 113.667 146.686 117.427 146.452C121.487 146.202 123.767 149.102 123.667 154.382C123.047 157.602 121.017 159.162 117.807 159.162C114.597 159.162 112.567 157.572 111.937 154.382Z" fill="#9E22E9"/>
<path d="M111.943 154.381C115.943 159.731 119.673 159.731 123.673 154.381C123.573 158.881 121.543 161.261 117.813 161.261C114.083 161.261 112.053 158.841 111.943 154.381Z" fill="#8020BA"/>
</g>
<defs>
<clipPath id="clip0">
<rect width="200" height="200" fill="white"/>
</clipPath>
</defs>
</svg>
