<svg width="200" height="200" viewBox="0 0 200 200" fill="none" xmlns="http://www.w3.org/2000/svg">
<path d="M187.997 108.17C186.753 108.215 185.524 107.887 184.467 107.23C184.097 107 183.837 106.89 183.707 107.44C183.507 108.26 182.837 107.87 182.357 107.93C181.877 107.99 181.947 107.5 181.887 107.23C181.607 105.81 181.377 104.38 181.097 102.96C181.027 102.57 181.097 102.44 181.507 102.34C182.757 102.02 182.727 102.01 183.447 103.13C183.916 103.989 184.607 104.707 185.447 105.208C186.288 105.71 187.248 105.976 188.227 105.98C188.393 105.995 188.56 105.995 188.727 105.98C189.727 105.79 190.327 105.29 190.327 104.61C190.327 103.76 189.737 103.37 189.047 103.08C188.104 102.698 187.135 102.384 186.147 102.14C185.324 101.916 184.522 101.625 183.747 101.27C183.035 101.011 182.421 100.539 181.988 99.9176C181.555 99.2966 181.324 98.5572 181.327 97.8001C181.309 97.043 181.522 96.2984 181.938 95.6658C182.355 95.0333 182.954 94.5428 183.657 94.2601C184.531 93.8235 185.495 93.5962 186.472 93.5962C187.449 93.5962 188.413 93.8235 189.287 94.2601C189.647 94.4301 189.877 94.6401 190.177 94.1101C190.477 93.5801 190.997 93.9501 191.427 93.9101C191.857 93.8701 191.777 94.2301 191.837 94.4601C192.167 95.6701 192.477 96.8901 192.837 98.1101C192.927 98.4301 192.837 98.6101 192.527 98.6601H192.457C192.057 98.8575 191.622 98.9731 191.177 99.0001C190.787 98.9401 190.687 98.3701 190.437 98.0001C189.65 96.8811 188.46 96.1105 187.117 95.8501C186.763 95.7902 186.401 95.7902 186.047 95.8501C185.407 95.9401 184.757 96.1101 184.557 96.8501C184.407 97.4201 184.797 97.9801 185.617 98.3501C186.792 98.7927 187.99 99.17 189.207 99.4801C190.051 99.7129 190.864 100.049 191.627 100.48C192.17 100.815 192.624 101.277 192.948 101.827C193.272 102.377 193.457 102.998 193.486 103.636C193.516 104.273 193.389 104.909 193.117 105.486C192.846 106.064 192.437 106.566 191.927 106.95C190.805 107.814 189.411 108.246 187.997 108.17V108.17Z" fill="#9E22E9"/>
<path d="M174.621 100.211C174.621 99.0908 174.621 97.9808 174.621 96.8608C174.621 95.9408 174.431 95.7108 173.551 95.7608C172.961 95.7608 172.911 95.5508 172.921 95.0708C172.921 93.8208 172.921 93.8208 174.181 93.8208C175.851 93.8208 177.511 93.8208 179.181 93.8208C179.661 93.8208 179.901 93.9108 179.811 94.4308C179.786 94.573 179.786 94.7186 179.811 94.8608C179.901 95.5108 179.811 95.8608 178.971 95.7708C178.361 95.7008 178.101 96.1008 178.101 96.7108C178.101 98.8008 178.011 100.901 178.101 102.991C178.251 106.331 175.881 107.991 173.241 108.161C172.393 108.295 171.526 108.249 170.697 108.025C169.868 107.801 169.096 107.404 168.431 106.861C167.931 106.468 167.544 105.951 167.307 105.361C167.07 104.772 166.992 104.13 167.081 103.501C167.12 103.108 167.28 102.737 167.537 102.438C167.795 102.14 168.138 101.927 168.521 101.831C168.768 101.737 169.035 101.707 169.297 101.743C169.558 101.778 169.807 101.878 170.021 102.034C170.234 102.19 170.405 102.396 170.519 102.635C170.632 102.874 170.685 103.137 170.671 103.401C170.671 103.591 170.671 103.781 170.671 103.971C170.646 104.225 170.674 104.482 170.755 104.725C170.836 104.968 170.967 105.191 171.139 105.38C171.312 105.568 171.522 105.718 171.757 105.82C171.992 105.922 172.245 105.973 172.501 105.971C172.755 105.986 173.009 105.949 173.249 105.863C173.488 105.777 173.708 105.644 173.895 105.471C174.081 105.299 174.231 105.09 174.336 104.858C174.44 104.626 174.496 104.375 174.501 104.121C174.581 102.821 174.501 101.511 174.501 100.201L174.621 100.211Z" fill="#9E22E9"/>
<path d="M144.782 97.6703C146.213 97.5786 147.623 98.0568 148.702 99.0003C149.064 99.3101 149.331 99.7156 149.472 100.17C149.592 100.525 149.578 100.911 149.432 101.255C149.287 101.6 149.02 101.879 148.682 102.04C148.326 102.241 147.907 102.302 147.508 102.212C147.109 102.121 146.758 101.885 146.522 101.55C146.352 101.29 146.212 101.01 146.062 100.75C145.945 100.508 145.768 100.299 145.547 100.145C145.326 99.9906 145.069 99.8959 144.8 99.8698C144.532 99.8437 144.262 99.887 144.015 99.9957C143.769 100.104 143.554 100.275 143.392 100.49C142.876 101.118 142.599 101.909 142.61 102.721C142.621 103.534 142.919 104.317 143.452 104.93C143.984 105.435 144.689 105.717 145.422 105.717C146.156 105.717 146.861 105.435 147.392 104.93C147.722 104.67 148.012 104.09 148.392 104.19C148.772 104.29 149.142 104.8 149.532 105.11C149.922 105.42 149.742 105.46 149.532 105.69C148.815 106.635 147.843 107.355 146.731 107.768C145.619 108.18 144.412 108.268 143.252 108.02C142.143 107.773 141.144 107.17 140.409 106.302C139.674 105.435 139.243 104.35 139.182 103.215C139.121 102.08 139.433 100.955 140.07 100.014C140.708 99.0724 141.635 98.3652 142.712 98.0003C143.38 97.7785 144.079 97.667 144.782 97.6703Z" fill="#9E22E9"/>
<path d="M159.383 105.409V106.249C159.383 107.589 159.383 107.599 158.063 107.939C156.914 108.28 155.692 108.28 154.543 107.939C153.933 107.797 153.392 107.445 153.015 106.944C152.639 106.443 152.45 105.825 152.483 105.199C152.483 103.679 152.483 102.149 152.483 100.629C152.483 100.129 152.363 99.9895 151.863 99.9995C150.943 99.9995 150.983 99.9995 150.923 99.0795C150.847 98.7538 150.896 98.4114 151.061 98.1204C151.226 97.8294 151.495 97.6113 151.813 97.5095C152.314 97.2768 152.746 96.9172 153.065 96.4664C153.384 96.0156 153.58 95.4893 153.633 94.9395C153.703 94.5695 153.793 94.4395 154.193 94.4395C155.673 94.4395 155.663 94.4395 155.683 95.8995C155.683 96.5595 155.393 97.4294 155.813 97.8094C156.233 98.1894 157.033 97.9095 157.673 97.9095C158.913 97.9095 158.853 97.9094 158.933 99.1294C158.933 99.8994 158.713 100.129 158.003 100.029C157.293 99.9295 156.763 100.029 156.143 100.029C155.773 100.029 155.663 100.129 155.673 100.499C155.673 101.759 155.673 103.029 155.673 104.289C155.641 104.568 155.682 104.851 155.793 105.109C155.904 105.367 156.08 105.592 156.305 105.76C156.529 105.929 156.794 106.036 157.072 106.071C157.351 106.106 157.634 106.068 157.893 105.959C158.383 105.799 158.833 105.599 159.383 105.409Z" fill="#9E22E9"/>
<path d="M89.9995 94.6194C87.6697 91.926 84.7462 89.8104 81.4595 88.4394C79.2882 87.4128 77.0334 86.5731 74.7195 85.9294C74.3495 85.8294 74.1495 85.7194 74.2595 85.2694C74.9179 82.6472 75.3264 79.9686 75.4795 77.2694C75.8295 73.7844 75.3533 70.2659 74.0895 66.9994C72.4195 63.0894 69.4595 61.6694 65.9295 61.9994C63.0859 62.3245 60.3518 63.2848 57.9295 64.8094C55.0001 66.5402 52.2905 68.6186 49.8595 70.9994C49.5295 71.3194 49.3195 71.4094 48.9395 70.9994C47.3664 69.474 45.6744 68.0762 43.8795 66.8194C40.6395 64.5694 37.2395 62.6694 33.2395 62.0794C31.6498 61.7691 30.0027 61.9707 28.5347 62.6553C27.0668 63.3398 25.8536 64.4721 25.0695 65.8894C23.8276 68.1517 23.171 70.6886 23.1595 73.2694C22.9962 77.1893 23.414 81.1118 24.3995 84.9094C24.5495 85.5294 24.3995 85.7594 23.7995 85.9094C20.889 86.7166 18.0756 87.8399 15.4095 89.2594C12.8094 90.5813 10.4954 92.4027 8.59952 94.6194C7.36659 95.9848 6.64815 97.7373 6.56785 99.5752C6.48754 101.413 7.05038 103.222 8.15952 104.689C9.67322 106.806 11.6153 108.582 13.8595 109.899C16.9352 111.805 20.2602 113.276 23.7395 114.269C24.3395 114.449 24.5095 114.659 24.3495 115.269C23.5348 118.401 23.1248 121.624 23.1295 124.859C23.0037 127.479 23.405 130.098 24.3095 132.559C25.9095 136.609 28.6095 138.079 32.2095 138.029C34.5237 137.938 36.7913 137.351 38.8595 136.309C42.4653 134.574 45.7757 132.283 48.6695 129.519C49.5095 128.729 49.4995 128.729 50.3595 129.519C52.3612 131.419 54.5451 133.117 56.8795 134.589C59.5379 136.415 62.5916 137.584 65.7895 137.999C67.1869 138.215 68.6168 138.031 69.914 137.468C71.2111 136.906 72.3225 135.987 73.1195 134.819C74.9795 132.139 75.5095 129.059 75.6795 125.899C75.8096 122.196 75.4157 118.493 74.5095 114.899C74.3895 114.399 74.5095 114.219 74.9595 114.089C76.9147 113.523 78.8291 112.825 80.6895 111.999C83.9876 110.6 86.9752 108.561 89.4795 105.999C92.8395 102.389 93.0595 98.4694 89.9995 94.6194ZM52.2695 73.6194C55.3572 70.5454 58.9977 68.0822 62.9995 66.3594C64.0999 65.915 65.265 65.6516 66.4495 65.5794C67.3216 65.4969 68.197 65.6988 68.9449 66.1548C69.6929 66.6107 70.2733 67.2964 70.5995 68.1094C71.3275 69.7653 71.7412 71.5422 71.8195 73.3494C71.8795 74.0294 71.8195 74.7294 71.8195 75.4194C71.8119 78.3608 71.4765 81.2922 70.8195 84.1594C70.7095 84.6794 70.4695 84.8094 69.9795 84.6994C66.6862 83.945 63.345 83.4171 59.9795 83.1194C59.7351 83.1042 59.4979 83.031 59.2874 82.9057C59.077 82.7805 58.8994 82.6069 58.7695 82.3994C56.8076 79.6 54.67 76.9279 52.3695 74.3994C52.0795 74.1194 51.9995 73.9994 52.2895 73.6494L52.2695 73.6194ZM31.8295 104.339C33.4395 107.339 35.0695 110.239 36.9495 113.169C35.9495 113.049 35.1495 112.969 34.3495 112.839C32.7395 112.569 31.1295 112.269 29.5195 111.999C29.2295 111.939 29.0295 111.899 29.1495 111.509C29.9193 109.075 30.8139 106.682 31.8295 104.339V104.339ZM31.8295 95.5694C31.0014 93.7144 30.2769 91.8148 29.6595 89.8794C29.1295 88.2694 29.1395 88.2894 30.7995 87.9694C32.6195 87.6194 34.4395 87.2894 36.2795 87.0594C36.4295 87.0594 36.6195 86.9294 36.7195 87.1194C36.8195 87.3094 36.7195 87.3494 36.6295 87.4394C34.9595 90.0194 33.4895 92.7094 32.0195 95.4394C31.9995 95.4394 31.8995 95.4594 31.7795 95.5694H31.8295ZM33.9995 100.509C33.9122 100.385 33.8596 100.24 33.8473 100.089C33.835 99.9377 33.8634 99.7859 33.9295 99.6494C36.0737 95.3236 38.4851 91.1355 41.1495 87.1094C41.2785 86.9018 41.4581 86.7305 41.6716 86.6116C41.885 86.4926 42.1252 86.4299 42.3695 86.4294C44.3695 86.2394 46.3695 86.2494 48.3695 86.2094C51.1695 86.1494 53.9795 86.2594 56.7795 86.4494C56.9197 86.463 57.0544 86.5112 57.1713 86.5898C57.2883 86.6683 57.3839 86.7747 57.4495 86.8994C59.5873 90.1051 61.5631 93.4159 63.3695 96.8194C63.8495 97.7194 64.2995 98.6394 64.7895 99.5294C64.8681 99.659 64.9096 99.8078 64.9096 99.9594C64.9096 100.111 64.8681 100.26 64.7895 100.389C62.6227 104.783 60.1847 109.038 57.4895 113.129C57.4179 113.262 57.3127 113.373 57.1846 113.452C57.0565 113.531 56.9099 113.575 56.7595 113.579C54.2895 113.749 51.8195 113.849 49.3495 113.819C46.8795 113.789 44.5395 113.749 42.1495 113.599C41.974 113.597 41.8022 113.549 41.6512 113.46C41.5002 113.37 41.3755 113.242 41.2895 113.089C38.583 109.062 36.1476 104.86 33.9995 100.509V100.509ZM66.9195 104.269C67.2331 104.743 67.4788 105.258 67.6495 105.799C68.3995 107.569 69.0495 109.369 69.6495 111.189C69.8095 111.639 69.7395 111.779 69.2495 111.879C66.8045 112.403 64.3347 112.804 61.8495 113.079C63.6495 110.149 65.3495 107.279 66.9095 104.269H66.9195ZM66.9195 95.7094C65.2995 92.7094 63.6995 89.8994 61.8595 87.0094C63.7636 87.2131 65.656 87.5135 67.5295 87.9094L69.1295 88.2194C69.5195 88.2894 69.6295 88.4394 69.4995 88.8494C68.7795 91.1294 67.9195 93.3594 66.9295 95.7094H66.9195ZM49.0595 76.9994C49.2395 76.7894 49.3595 76.5994 49.6495 76.9194C51.3195 78.7094 52.8195 80.6294 54.4095 82.6994C50.9895 82.5894 47.7495 82.5794 44.4095 82.6994C45.0112 81.7752 45.6797 80.8962 46.4095 80.0694C47.2595 78.9994 48.1695 77.9994 49.0595 76.9994ZM27.5595 69.2194C28.6295 66.2194 30.2795 65.2194 33.4195 65.8394C36.3134 66.5326 39.0355 67.8086 41.4195 69.5894C43.153 70.8076 44.8003 72.1441 46.3495 73.5894C46.7595 73.9594 46.7095 74.1594 46.3495 74.5894C44.0354 77.1168 41.8844 79.7889 39.9095 82.5894C39.7887 82.7774 39.6252 82.9343 39.4323 83.0473C39.2395 83.1602 39.0226 83.226 38.7995 83.2394C35.368 83.5322 31.9602 84.0567 28.5995 84.8094C28.1795 84.8994 28.0295 84.8094 27.9295 84.3494C27.141 81.1419 26.7348 77.8523 26.7195 74.5494C26.7176 72.7232 27.001 70.908 27.5595 69.1694V69.2194ZM25.6395 110.499C25.5295 110.869 25.3995 110.989 24.9995 110.859C20.9339 109.743 17.1166 107.867 13.7495 105.329C12.245 104.265 11.0841 102.784 10.4095 101.069C10.2553 100.695 10.1739 100.294 10.1695 99.8894C10.3045 98.6032 10.8722 97.4009 11.7795 96.4794C13.6343 94.5592 15.8366 93.0084 18.2695 91.9094C20.4097 90.8799 22.6346 90.0368 24.9195 89.3894C25.3995 89.2494 25.5895 89.3094 25.7395 89.7894C26.7843 93.1712 28.0641 96.4759 29.5695 99.6794C29.6308 99.7913 29.6629 99.9168 29.6629 100.044C29.6629 100.172 29.6308 100.297 29.5695 100.409C28.0571 103.69 26.7447 107.06 25.6395 110.499V110.499ZM46.5095 126.609C43.3981 129.627 39.7439 132.03 35.7395 133.689C34.3882 134.234 32.9343 134.476 31.4795 134.399C30.7332 134.364 30.0116 134.121 29.3966 133.697C28.7815 133.272 28.2976 132.685 27.9995 131.999C27.1195 130.239 26.6995 127.999 26.7095 124.239C26.8115 121.425 27.2104 118.63 27.8995 115.899C27.9795 115.579 28.0695 115.439 28.4695 115.519C31.5259 116.213 34.6322 116.664 37.7595 116.869C38.3737 116.89 38.9724 117.068 39.4978 117.387C40.0232 117.705 40.4577 118.154 40.7595 118.689C42.5078 121.151 44.4222 123.489 46.4895 125.689C46.8695 126.059 46.8795 126.269 46.5095 126.609V126.609ZM49.7795 123.249C49.6295 123.419 49.4995 123.559 49.2695 123.309C47.5895 121.449 45.9695 119.549 44.3595 117.399C47.8195 117.469 51.0795 117.469 54.4795 117.399C53.2495 119.109 52.0195 120.629 50.7595 122.139C50.4395 122.509 50.0995 122.879 49.7795 123.249V123.249ZM71.1095 130.869C71.0495 131.049 70.9895 131.219 70.9095 131.399C69.8095 133.949 67.9095 134.879 65.2295 134.319C62.0767 133.557 59.1347 132.098 56.6195 130.049C55.2131 129.012 53.8769 127.883 52.6195 126.669C52.2595 126.319 52.1395 126.109 52.5495 125.669C54.8532 123.103 56.9846 120.387 58.9295 117.539C59.0382 117.372 59.1861 117.233 59.3603 117.136C59.5345 117.038 59.7299 116.985 59.9295 116.979C63.4049 116.652 66.8577 116.118 70.2695 115.379C70.7495 115.279 70.8995 115.379 70.9895 115.819C71.6399 118.61 71.9754 121.464 71.9895 124.329C72.0983 126.545 71.8 128.761 71.1095 130.869V130.869ZM88.4695 99.8694C88.4285 101.226 87.862 102.513 86.8895 103.459C85.0556 105.401 82.866 106.973 80.4395 108.089C78.3548 109.125 76.1914 109.995 73.9695 110.689C73.4895 110.849 73.2995 110.689 73.1595 110.279C72.0574 106.907 70.7209 103.615 69.1595 100.429C69.093 100.307 69.0582 100.169 69.0582 100.029C69.0582 99.8897 69.093 99.7522 69.1595 99.6294C70.6536 96.4062 71.9363 93.0892 72.9995 89.6994C73.0895 89.4294 73.1795 89.2494 73.5495 89.3594C77.6672 90.4825 81.5515 92.3315 85.0195 94.8194C86.2285 95.6544 87.2446 96.7388 87.9995 97.9994C88.3215 98.5546 88.4841 99.1878 88.4695 99.8294V99.8694Z" fill="#9E22E9"/>
<path d="M114.21 106.399C114.21 106.039 114.07 105.949 113.75 105.979C113.49 106.022 113.223 106.002 112.973 105.92C112.722 105.838 112.495 105.697 112.31 105.509C111.19 104.259 110.09 102.979 108.97 101.689C109.54 101.479 110.06 101.319 110.54 101.089C111.287 100.788 111.913 100.248 112.32 99.553C112.728 98.8581 112.893 98.0479 112.79 97.2491C112.684 96.4474 112.325 95.7004 111.766 95.1161C111.207 94.5318 110.476 94.1406 109.68 93.9991C109.006 93.8587 108.319 93.7883 107.63 93.7891C105.15 93.7891 102.68 93.7891 100.2 93.7891C98.8002 93.7891 98.8302 93.7891 98.7902 95.1891C98.7902 95.7191 98.9002 95.9191 99.4502 95.8491C99.5798 95.8186 99.7148 95.8202 99.8437 95.8536C99.9725 95.887 100.091 95.9512 100.19 96.0408C100.288 96.1304 100.363 96.2426 100.409 96.3678C100.454 96.4929 100.468 96.6272 100.45 96.7591C100.45 99.5191 100.45 102.279 100.45 105.039C100.45 105.669 100.11 106.039 99.5202 105.939C98.9302 105.839 98.6802 106.189 98.7602 106.769C98.7852 106.911 98.7852 107.057 98.7602 107.199C98.6802 107.739 98.8602 107.939 99.4502 107.919C101.09 107.919 102.73 107.919 104.37 107.919C105.64 107.919 105.62 107.919 105.66 106.659C105.66 106.109 105.55 105.919 104.97 105.949C104.16 105.949 103.97 105.759 103.97 104.949C103.97 104.139 103.97 103.139 103.97 102.239C103.97 102.059 103.9 101.829 104.21 101.829C104.72 101.829 105.21 101.829 105.56 102.339C106.78 104.089 108.1 105.779 109.36 107.509C109.448 107.647 109.571 107.759 109.717 107.833C109.864 107.907 110.027 107.94 110.19 107.929C111.04 107.929 111.9 107.929 112.76 107.929C114.29 107.939 114.28 107.939 114.21 106.399ZM107.93 99.6591C107.128 99.8668 106.297 99.9411 105.47 99.8791C103.99 99.8791 103.99 99.8791 103.99 98.4291V97.8991C104.05 97.3991 103.71 96.5891 104.11 96.2391C104.51 95.8891 105.24 96.1391 105.83 96.1491C106.469 96.1109 107.11 96.1478 107.74 96.2591C108.119 96.3058 108.47 96.4849 108.729 96.7649C108.989 97.0448 109.142 97.4076 109.16 97.7891C109.2 98.1945 109.1 98.6013 108.876 98.9416C108.652 99.2819 108.318 99.5352 107.93 99.6591V99.6591Z" fill="#9E22E9"/>
<path d="M137.449 105.94C136.709 106.13 136.279 105.74 136.259 104.94C136.239 104.14 136.259 103.51 136.259 102.8V100.66C136.298 100.094 136.145 99.5307 135.823 99.0624C135.502 98.5941 135.032 98.248 134.489 98.0804C133.493 97.6805 132.414 97.5316 131.347 97.6466C130.28 97.7617 129.257 98.1373 128.369 98.7404C128.069 98.9368 127.83 99.2141 127.679 99.5404C127.483 99.8685 127.421 100.26 127.506 100.633C127.592 101.006 127.819 101.331 128.139 101.54C128.48 101.739 128.884 101.802 129.269 101.717C129.655 101.632 129.994 101.405 130.219 101.08C130.399 100.83 130.519 100.54 130.679 100.28C130.892 99.9641 131.216 99.74 131.587 99.6528C131.958 99.5656 132.348 99.6219 132.679 99.8104C133.349 100.22 133.199 100.9 133.159 101.49C133.119 102.08 132.589 101.8 132.299 101.84C131.167 101.962 130.052 102.217 128.979 102.6C128.3 102.803 127.719 103.251 127.35 103.856C126.98 104.462 126.848 105.183 126.979 105.88C127.138 106.552 127.523 107.148 128.069 107.568C128.615 107.989 129.29 108.209 129.979 108.19C131.101 108.19 132.195 107.841 133.109 107.19C133.349 107.02 133.549 106.88 133.819 107.19C134.144 107.561 134.554 107.846 135.014 108.02C135.475 108.195 135.971 108.253 136.459 108.19C137.819 108.19 137.899 108.07 137.899 106.76C137.899 106.61 137.899 106.47 137.899 106.33C137.999 105.93 137.889 105.83 137.449 105.94ZM132.879 105.45C132.269 105.73 131.689 106.16 130.949 105.91C130.776 105.869 130.618 105.777 130.496 105.648C130.373 105.518 130.291 105.356 130.259 105.18C130.224 104.993 130.242 104.799 130.313 104.622C130.384 104.445 130.504 104.291 130.659 104.18C131.355 103.781 132.13 103.538 132.929 103.47C133.119 103.47 133.159 103.58 133.169 103.73C133.179 103.88 133.169 104.2 133.169 104.49C133.169 104.78 133.369 105.23 132.879 105.45Z" fill="#9E22E9"/>
<path d="M124.473 104.581C124.213 104.331 124.063 104.311 123.783 104.581C123.191 105.138 122.458 105.522 121.663 105.691C121.308 105.774 120.94 105.78 120.582 105.709C120.225 105.638 119.887 105.492 119.591 105.28C119.294 105.068 119.047 104.795 118.864 104.48C118.682 104.164 118.569 103.814 118.533 103.451C118.533 103.101 118.533 103.001 118.933 103.011C119.933 103.011 120.933 103.011 121.933 103.011C122.933 103.011 123.883 103.011 124.863 103.011C125.233 103.011 125.323 102.921 125.323 102.541C125.323 99.4611 123.233 97.5411 119.983 97.7111C119.011 97.7025 118.059 97.9832 117.247 98.5174C116.435 99.0516 115.8 99.8152 115.423 100.711C114.988 101.594 114.823 102.587 114.949 103.563C115.075 104.54 115.487 105.458 116.133 106.201C116.639 106.786 117.257 107.264 117.95 107.608C118.644 107.951 119.399 108.152 120.171 108.2C120.943 108.247 121.717 108.14 122.447 107.884C123.177 107.629 123.849 107.23 124.423 106.711C125.633 105.691 125.623 105.671 124.473 104.581ZM118.723 101.001C118.833 100.622 119.057 100.286 119.365 100.04C119.673 99.7926 120.049 99.6465 120.443 99.6211C120.824 99.6427 121.188 99.7882 121.478 100.036C121.769 100.283 121.971 100.618 122.053 100.991C122.143 101.341 122.053 101.451 121.683 101.441C121.313 101.431 120.833 101.441 120.403 101.441C119.973 101.441 119.493 101.441 119.043 101.441C118.593 101.441 118.663 101.271 118.723 101.001Z" fill="#9E22E9"/>
<path d="M49.3264 107.569C47.817 107.564 46.3433 107.111 45.0911 106.268C43.8388 105.425 42.8643 104.231 42.2903 102.835C41.7164 101.439 41.5687 99.9041 41.8661 98.4244C42.1635 96.9446 42.8925 95.5861 43.9611 94.5202C45.0298 93.4543 46.3902 92.7289 47.8708 92.4354C49.3513 92.1419 50.8856 92.2935 52.28 92.8711C53.6745 93.4487 54.8666 94.4264 55.706 95.6808C56.5454 96.9352 56.9944 98.4101 56.9964 99.9195C57.0044 100.928 56.8113 101.928 56.4285 102.861C56.0456 103.794 55.4806 104.642 54.7665 105.354C54.0524 106.066 53.2035 106.629 52.2695 107.009C51.3354 107.39 50.3349 107.58 49.3264 107.569V107.569Z" fill="#9E22E9"/>
</svg>
