<svg width="200" height="200" viewBox="0 0 200 200" fill="none" xmlns="http://www.w3.org/2000/svg">
<path d="M101.343 165.819V166.999C101.343 170.459 101.343 173.929 101.343 177.389C101.343 178.189 100.993 178.299 100.343 178.289C99.6925 178.279 99.1925 178.289 99.2025 177.409C99.2025 172.782 99.2025 168.156 99.2025 163.529C99.2025 163.009 99.3725 162.779 99.8925 162.829H100.003C102.063 162.749 102.073 162.749 103.003 164.579C104.769 167.912 106.529 171.229 108.283 174.529C108.403 174.842 108.625 175.106 108.913 175.279V174.149C108.913 170.659 108.913 167.149 108.913 163.669C108.913 162.729 109.423 162.829 110.023 162.819C110.623 162.809 110.963 162.819 110.953 163.619C110.953 168.219 110.953 172.819 110.953 177.409C110.953 178.089 110.753 178.229 110.083 178.319C108.603 178.509 107.873 177.879 107.233 176.599C105.443 173.009 103.513 169.509 101.643 165.969C101.653 165.999 101.573 165.999 101.343 165.819Z" fill="#9E22E9"/>
<path d="M146.558 176.349L148.498 171.099C149.008 169.739 149.498 168.379 150.038 167.019C150.093 166.89 150.188 166.783 150.309 166.713C150.429 166.643 150.569 166.613 150.708 166.629H152.198L150.388 171.389C149.638 173.389 148.868 175.389 148.158 177.439C147.938 178.059 147.668 178.389 146.988 178.319C146.622 178.284 146.254 178.284 145.888 178.319C145.8 178.335 145.71 178.333 145.623 178.314C145.535 178.295 145.452 178.259 145.379 178.208C145.306 178.157 145.243 178.091 145.195 178.016C145.147 177.941 145.114 177.857 145.098 177.769C144.288 175.579 143.438 173.399 142.608 171.219C142.148 170.019 141.678 168.839 141.258 167.639C141.148 167.329 140.778 166.749 141.348 166.689C141.918 166.629 142.648 166.179 142.998 167.079L146.558 176.349Z" fill="#9E22E9"/>
<path d="M84.069 171.919C84.069 170.919 84.069 169.839 84.069 168.789C84.069 168.289 83.939 168.039 83.399 168.109C82.859 168.179 82.609 168.029 82.619 167.419C82.629 166.809 82.829 166.549 83.419 166.629C84.009 166.709 84.099 166.429 84.069 165.939C84.039 165.449 84.069 164.939 84.069 164.469C84.069 163.339 84.449 163.069 85.569 163.319C85.959 163.409 85.949 163.669 85.949 163.939C85.984 164.552 85.984 165.166 85.949 165.779C85.879 166.499 86.189 166.669 86.839 166.639C87.669 166.639 88.499 166.639 89.329 166.639C89.919 166.639 89.939 166.949 89.949 167.389C89.959 167.829 89.949 168.159 89.329 168.139C88.439 168.139 87.549 168.139 86.659 168.139C86.149 168.139 85.949 168.339 85.949 168.849C85.949 170.849 85.949 172.899 85.949 174.919C85.949 176.209 86.409 176.589 87.689 176.629C88.079 176.629 88.479 176.629 88.879 176.629C89.479 176.629 89.879 176.629 89.939 177.479C89.999 178.329 89.519 178.359 88.939 178.349C88.149 178.349 87.359 178.239 86.569 178.159C84.749 177.969 84.299 176.689 84.109 175.259C84.0789 174.71 84.0789 174.159 84.109 173.609L84.069 171.919Z" fill="#9E22E9"/>
<path d="M130.047 172.19C130.047 173.19 130.047 174.19 130.047 175.19C130.047 176.19 130.317 176.49 131.457 176.54C131.946 176.575 132.437 176.575 132.927 176.54C133.607 176.47 133.837 176.71 133.837 177.41C133.837 178.11 133.597 178.3 132.927 178.28C131.943 178.297 130.96 178.203 129.997 178C129.548 177.904 129.139 177.676 128.82 177.347C128.501 177.018 128.288 176.601 128.207 176.15C127.968 173.955 127.895 171.745 127.987 169.54C127.987 168.82 128.217 167.94 126.917 168.04C126.457 168.04 126.627 167.53 126.617 167.22C126.607 166.91 126.617 166.55 127.087 166.61C127.967 166.73 128.037 166.22 127.997 165.61C127.997 165.24 127.997 164.87 127.997 164.51C127.997 163.35 128.127 163.26 129.277 163.34C129.757 163.34 129.937 163.58 129.937 164.02C129.937 164.63 129.937 165.25 129.937 165.86C129.937 166.47 130.097 166.7 130.737 166.66C131.527 166.6 132.327 166.66 133.127 166.66C133.757 166.66 133.807 166.95 133.817 167.44C133.827 167.93 133.727 168.19 133.167 168.16C132.367 168.16 131.567 168.16 130.767 168.16C130.147 168.16 129.947 168.39 129.947 168.94V172.25L130.047 172.19Z" fill="#9E22E9"/>
<path d="M73.7197 173.6C74.1797 176.6 76.4897 177.32 79.0197 176.76C79.2759 176.66 79.5402 176.583 79.8097 176.53C80.1297 176.53 80.5597 175.83 80.7097 176.46C80.8597 177.09 81.1697 177.74 80.1197 178.09C77.2997 179.03 74.5197 178.52 72.9197 176.59C70.7097 173.94 71.0797 168.15 75.1097 166.78C76.838 166.201 78.7175 166.268 80.3997 166.97C80.7197 167.09 80.9497 168.45 80.6997 168.69C80.4497 168.93 80.3697 168.69 80.2097 168.62C79.376 168.244 78.4741 168.043 77.5597 168.03C77.088 167.992 76.6134 168.048 76.1637 168.195C75.714 168.343 75.2982 168.578 74.9407 168.889C74.5831 169.199 74.291 169.577 74.0813 170.001C73.8717 170.425 73.7488 170.887 73.7197 171.36C73.4947 172.089 73.4947 172.87 73.7197 173.6V173.6Z" fill="#9E22E9"/>
<path d="M138.249 172.521C138.249 174.201 138.249 175.891 138.249 177.581C138.249 178.231 137.969 178.371 137.419 178.321C136.869 178.271 136.339 178.461 136.349 177.591C136.349 174.161 136.349 170.721 136.349 167.291C136.349 166.551 136.769 166.611 137.239 166.631C137.709 166.651 138.239 166.431 138.239 167.271C138.219 169.001 138.249 170.771 138.249 172.521Z" fill="#9E22E9"/>
<path d="M136.373 163.381C136.373 162.211 136.853 161.871 137.933 162.171C138.213 162.241 138.243 162.411 138.243 162.631C138.243 162.851 138.243 163.181 138.243 163.451C138.243 164.541 137.783 164.88 136.733 164.561C136.003 164.331 136.543 163.711 136.373 163.381Z" fill="#9E22E9"/>
<path d="M42.4319 178C42.8519 178 43.2619 178 43.682 178C44.102 178 44.282 178 44.332 177.58C44.392 177.592 44.4486 177.618 44.4973 177.655C44.5461 177.693 44.5858 177.74 44.6137 177.795C44.6415 177.85 44.6567 177.91 44.6581 177.971C44.6596 178.033 44.6472 178.094 44.622 178.15C44.552 178.38 44.322 178.37 44.162 178.33C43.592 178.21 42.8919 178.73 42.4319 178Z" fill="#9E22E9"/>
<path d="M73.7167 173.6C73.4932 173.269 73.3737 172.879 73.3737 172.48C73.3737 172.081 73.4932 171.691 73.7167 171.36V173.6Z" fill="#9E22E9"/>
<path d="M59.8034 167.181C59.8034 167.711 59.8034 168.251 59.8034 168.791C59.6773 168.698 59.5748 168.576 59.5041 168.437C59.4335 168.297 59.3967 168.142 59.3967 167.986C59.3967 167.829 59.4335 167.675 59.5041 167.535C59.5748 167.395 59.6773 167.274 59.8034 167.181Z" fill="#9E22E9"/>
<path d="M115.398 167.169V168.789C115.27 168.697 115.166 168.575 115.094 168.434C115.022 168.293 114.984 168.138 114.984 167.979C114.984 167.821 115.022 167.666 115.094 167.525C115.166 167.384 115.27 167.262 115.398 167.169Z" fill="#9E22E9"/>
<path d="M172.649 82.2805C171.176 78.9615 168.867 76.0811 165.949 73.9205C161.857 70.7231 157.314 68.1486 152.469 66.2805C149.136 64.9472 145.779 63.7839 142.399 62.7905C141.929 62.6605 141.769 62.4805 141.869 62.0405C142.019 61.3205 142.149 60.6005 142.339 59.9005C143.13 56.7902 143.685 53.6245 143.999 50.4305C144.512 46.349 144.556 42.222 144.129 38.1305C143.826 34.4838 142.807 30.9326 141.129 27.6805C140.4 26.2233 139.362 24.9424 138.087 23.927C136.813 22.9116 135.332 22.1859 133.749 21.8005C130.614 21.1529 127.364 21.3461 124.329 22.3605C119.791 23.8329 115.51 26.0021 111.639 28.7905C107.703 31.5162 104.021 34.5921 100.639 37.9805C100.209 38.4105 99.9489 38.3505 99.5489 37.9805C98.7989 37.2305 97.9889 36.5305 97.2089 35.8205C92.2363 31.1142 86.549 27.226 80.3589 24.3005C76.8013 22.5133 72.8801 21.5689 68.8989 21.5405C66.7824 21.5165 64.7013 22.0842 62.8902 23.1797C61.0791 24.2751 59.6101 25.8548 58.6489 27.7405C57.2709 30.2421 56.3721 32.979 55.9989 35.8105C55.5527 38.6845 55.3752 41.5937 55.4689 44.5005C55.6371 47.7753 55.9709 51.0395 56.4689 54.2805C56.63 54.4912 56.7423 54.7351 56.7977 54.9945C56.853 55.254 56.85 55.5224 56.7889 55.7805C57.2289 57.7805 57.6389 59.7805 58.1289 61.7805C58.2689 62.3605 58.2189 62.6105 57.6189 62.7805C52.7037 64.0416 47.9266 65.7903 43.3589 68.0005C38.5377 70.1617 34.1911 73.2542 30.5689 77.1005C28.5873 79.147 27.2338 81.7185 26.6689 84.5105C26.1785 87.6173 26.894 90.794 28.6689 93.3905C30.7494 96.4594 33.3927 99.1061 36.4589 101.191C41.0844 104.404 46.1323 106.961 51.4589 108.791C53.4589 109.521 55.4589 110.181 57.5589 110.711C58.0489 110.841 58.2189 111.081 58.0489 111.711C57.5489 113.541 57.2089 115.401 56.7989 117.251C56.86 117.509 56.863 117.777 56.8077 118.037C56.7523 118.296 56.64 118.54 56.4789 118.751C56.2389 120.351 55.9389 121.951 55.7789 123.561C55.198 128.215 55.2822 132.929 56.0289 137.561C56.426 140.078 57.1979 142.522 58.3189 144.811C59.0866 146.475 60.2338 147.936 61.6682 149.077C63.1026 150.218 64.7845 151.007 66.5789 151.381C69.2378 151.853 71.9679 151.741 74.5789 151.051C78.8301 149.923 82.879 148.139 86.5789 145.761C91.271 142.844 95.6098 139.394 99.5089 135.481C100.009 134.981 100.319 134.901 100.879 135.481C104.575 139.258 108.68 142.612 113.119 145.481C117.909 148.541 122.909 151.101 128.709 151.651C130.809 151.91 132.942 151.681 134.939 150.981C138.579 149.631 140.699 146.811 142.189 143.391C143.998 138.897 144.833 134.071 144.639 129.231C144.608 123.388 143.807 117.574 142.259 111.941C141.919 110.701 142.009 110.571 143.259 110.271C143.559 110.201 143.829 110.061 144.119 109.971C150.764 108.089 157.081 105.198 162.849 101.401C166.523 99.1203 169.591 95.9843 171.789 92.2605C172.704 90.7806 173.258 89.1064 173.407 87.373C173.557 85.6395 173.297 83.8952 172.649 82.2805V82.2805ZM103.159 40.4605C108.284 35.2341 114.229 30.8801 120.759 27.5705C123.418 26.2246 126.297 25.3676 129.259 25.0405C134.029 24.6205 137.099 26.6205 138.959 31.5505C139.766 33.7829 140.31 36.1019 140.579 38.4605C140.579 38.7905 140.699 39.1205 140.719 39.4605C140.995 44.2326 140.753 49.0205 139.999 53.7405C139.599 56.1205 138.999 58.4705 138.529 60.8205C138.389 61.5205 138.069 61.7105 137.299 61.5005C135.508 61.0027 133.692 60.5988 131.859 60.2905C129.149 59.8505 126.459 59.2905 123.709 59.0505C123.421 59.1169 123.124 59.1246 122.833 59.073C122.543 59.0215 122.266 58.9118 122.019 58.7505C120.359 58.7505 118.749 58.2505 117.079 58.3005C116.399 58.3005 116.149 57.7905 115.849 57.3605C113.316 53.6989 110.599 50.1678 107.709 46.7805C106.239 45.0505 104.709 43.3505 103.199 41.6705C102.749 41.2205 102.679 40.9205 103.159 40.4605ZM64.3889 108.761C63.9689 108.761 63.5489 108.841 63.2489 108.441C62.7089 108.441 62.6689 108.161 62.8189 107.721C63.5389 105.561 64.2189 103.381 64.9889 101.231C66.2189 97.8105 67.5989 94.4505 69.1889 90.8305C72.6659 97.7137 76.5357 104.391 80.7789 110.831V110.831C81.0689 111.051 81.2989 111.311 80.7789 111.371C80.5297 111.436 80.2689 111.441 80.0171 111.388C79.7653 111.334 79.5296 111.222 79.3289 111.061C75.9289 110.721 72.5589 110.251 69.1889 109.661C67.6089 109.381 66.0389 109.011 64.4389 108.791L64.3889 108.761ZM66.1089 74.9105C64.9289 71.9105 63.8589 68.8305 62.9489 65.7105C62.7989 65.1705 62.8789 65.0305 63.4189 64.9405C64.5389 64.7405 65.6489 64.4705 66.7589 64.2205C66.965 64.0542 67.2063 63.9371 67.4645 63.8782C67.7228 63.8193 67.991 63.8201 68.2489 63.8805C69.9689 63.6905 71.6289 63.1705 73.3689 63.0905C73.5844 62.9351 73.8304 62.8271 74.0906 62.7737C74.3509 62.7202 74.6196 62.7226 74.8789 62.7805L75.5889 62.7205C76.1496 62.3817 76.8188 62.2708 77.4589 62.4105H78.5289C79.2228 62.0927 79.9955 61.9883 80.7489 62.1105C80.7489 62.1105 80.7489 62.1105 80.7489 62.1705C80.7531 62.2004 80.7531 62.2307 80.7489 62.2605C76.5452 68.7455 72.6995 75.4555 69.2289 82.3605C68.0577 79.9342 67.0162 77.4474 66.1089 74.9105V74.9105ZM71.3589 87.0605C71.2711 86.9085 71.2249 86.7361 71.2249 86.5605C71.2249 86.385 71.2711 86.2126 71.3589 86.0605C73.8948 80.75 76.7018 75.5731 79.7689 70.5505C81.3989 67.8605 83.1389 65.2305 84.8289 62.5505C85.0017 62.2512 85.2491 62.0017 85.547 61.8264C85.845 61.6512 86.1832 61.5561 86.5289 61.5505C94.7218 60.9356 102.947 60.8655 111.149 61.3405C112.149 61.3405 113.039 61.5505 113.989 61.6005C114.155 61.6149 114.314 61.6735 114.449 61.7703C114.584 61.867 114.691 61.9984 114.759 62.1505C119.405 69.1429 123.678 76.3764 127.559 83.8205C128.058 84.6163 128.322 85.5364 128.322 86.4755C128.322 87.4146 128.058 88.3348 127.559 89.1305C123.765 96.4822 119.603 103.638 115.089 110.571C114.868 110.931 114.553 111.225 114.178 111.418C113.802 111.612 113.381 111.7 112.959 111.671C108.519 111.781 104.089 112.241 99.6689 112.031C95.2389 112.231 90.8689 111.771 86.4889 111.691C86.2295 111.706 85.9708 111.651 85.7401 111.531C85.5095 111.411 85.3156 111.232 85.1789 111.011C79.9882 103.379 75.3689 95.3736 71.3589 87.0605V87.0605ZM119.579 110.281C120.399 108.971 121.209 107.651 122.039 106.351C125.039 101.561 127.759 96.5605 130.399 91.5405C130.509 91.3305 130.499 91.0105 130.799 90.9905C131.099 90.9705 131.149 91.3405 131.259 91.5705C132.579 94.5705 133.879 97.5705 134.999 100.641C135.769 102.751 136.479 104.881 137.279 106.971C137.599 107.801 137.399 108.161 136.609 108.321C134.669 108.721 132.749 109.161 130.799 109.491C127.729 110.001 124.639 110.431 121.559 110.891C121.169 110.951 120.769 110.971 120.369 111.011C120.249 111.021 120.129 111.021 120.009 111.011C119.799 111.011 119.479 111.011 119.399 110.931C119.319 110.851 119.449 110.491 119.579 110.281V110.281ZM130.719 82.1405C127.192 75.2444 123.3 68.5416 119.059 62.0605C120.549 62.2305 121.889 62.3505 123.229 62.5405C125.229 62.8405 127.229 63.1705 129.289 63.5405L131.549 63.9405C131.807 63.8763 132.077 63.8727 132.338 63.93C132.598 63.9872 132.841 64.1038 133.049 64.2705L136.709 65.0405C137.359 65.1705 137.139 65.6505 137.049 65.9805C136.689 67.2405 136.319 68.4905 135.869 69.7205C134.869 72.5205 133.789 75.3405 132.629 78.1005C132.158 79.5197 131.517 80.8763 130.719 82.1405V82.1405ZM100.719 44.2305C104.436 48.2957 107.931 52.5586 111.189 57.0005C111.348 57.2516 111.491 57.5121 111.619 57.7805C110.419 57.7205 109.329 57.6505 108.239 57.6205C102.289 57.4705 96.3389 57.5005 90.3989 57.6205C90.2389 57.6205 90.0889 57.6205 89.9389 57.6205C89.4689 57.6205 88.8289 58.0305 88.5889 57.5605C88.3489 57.0905 89.0089 56.7605 89.2889 56.3905C92.445 52.1501 95.837 48.0903 99.4489 44.2305C99.9989 43.7005 100.179 43.6905 100.679 44.2305H100.719ZM59.4489 36.8005C59.7609 33.8547 60.7574 31.0227 62.3589 28.5305C63.0021 27.5548 63.8659 26.744 64.8804 26.1638C65.8949 25.5836 67.0317 25.2502 68.1989 25.1905C71.5568 25.0918 74.8916 25.7766 77.9389 27.1905C85.1789 30.1905 91.1289 35.0105 96.7889 40.2705C97.4189 40.8605 97.4089 41.1705 96.7889 41.7905C92.1867 46.7339 87.9363 51.9934 84.0689 57.5305C83.9124 57.7706 83.6992 57.9683 83.4479 58.1061C83.1967 58.244 82.9154 58.3176 82.6289 58.3205C78.8989 58.5705 75.2189 59.1305 71.5289 59.7205C68.6989 60.1705 65.8989 60.7205 63.0889 61.3105C62.5989 61.5605 62.0889 62.0905 61.6489 61.2505L61.5789 60.7505C61.1689 60.4605 61.2289 60.0305 61.2689 59.6105C60.7989 57.3405 60.2689 55.0905 59.8889 52.8005C59.5189 50.3205 59.2589 47.8005 59.0889 45.3205C58.8836 42.4761 59.0044 39.6175 59.4489 36.8005V36.8005ZM58.3789 107.261C56.7489 106.781 55.1189 106.261 53.4989 105.741C49.1273 104.271 44.9344 102.315 40.9989 99.9105C37.4734 97.9013 34.4076 95.1761 31.9989 91.9105C30.8749 90.322 30.1855 88.4675 29.9989 86.5305C30.1909 84.1076 31.1708 81.8142 32.7889 80.0005C36.0789 76.0805 40.3289 73.4705 44.7889 71.2205C49.1817 69.1372 53.7451 67.4343 58.4289 66.1305C58.9389 65.9805 59.2389 66.0105 59.4289 66.6905C60.5889 70.2805 61.7589 73.8605 63.1089 77.3805C64.2189 80.2905 65.5789 83.1205 66.8589 85.9705C66.9528 86.1548 67.0018 86.3587 67.0018 86.5655C67.0018 86.7724 66.9528 86.9763 66.8589 87.1605C65.4689 90.2805 64.0289 93.3905 62.8589 96.5805C61.5889 99.9605 60.3189 103.361 59.3789 106.861C59.2089 107.551 58.7489 107.371 58.3789 107.261V107.261ZM97.2989 132.731C91.5889 138.281 85.3689 143.121 77.9289 146.201C75.476 147.298 72.8422 147.935 70.1589 148.081C65.6989 148.211 62.8989 146.701 60.8989 141.801C59.6123 138.524 58.9673 135.031 58.9989 131.511C58.9874 126.788 59.4633 122.076 60.4189 117.451C60.7289 115.861 61.1789 114.311 61.4189 112.721C61.5289 112.091 61.7489 111.841 62.5289 112.001C67.3655 113.046 72.2517 113.847 77.1689 114.401C79.1689 114.601 81.1689 114.781 83.1089 114.991C83.7989 115.071 84.0489 115.531 84.3389 115.991C87.8296 120.909 91.5991 125.623 95.6289 130.111C96.1611 130.729 96.7252 131.32 97.3189 131.881C97.6989 132.201 97.6189 132.421 97.2989 132.731ZM99.4589 128.911C95.5259 124.676 91.8811 120.183 88.5489 115.461C96.2589 115.761 103.929 115.751 111.859 115.301C110.779 116.801 109.859 118.091 108.949 119.301C106.419 122.591 103.809 125.811 101.009 128.891C100.429 129.561 100.089 129.591 99.4589 128.911ZM139.299 141.081C138.369 143.601 137.079 145.881 134.579 147.201C132.726 148.133 130.618 148.431 128.579 148.051C122.949 147.181 118.099 144.511 113.479 141.351C109.922 138.827 106.562 136.035 103.429 133.001C102.879 132.491 102.799 132.201 103.429 131.571C107.764 126.908 111.736 121.92 115.309 116.651C115.663 116.065 116.162 115.58 116.757 115.242C117.352 114.904 118.024 114.724 118.709 114.721C122.797 114.405 126.866 113.877 130.899 113.141C133.279 112.761 135.629 112.201 137.979 111.681C138.459 111.571 138.649 111.681 138.749 112.131C139.059 113.461 139.409 114.781 139.689 116.131C140.577 120.376 141.076 124.694 141.179 129.031C141.252 133.126 140.616 137.202 139.299 141.081ZM167.089 92.9405C163.839 96.8305 159.649 99.4805 155.199 101.761C150.994 103.821 146.626 105.53 142.139 106.871C141.399 107.111 140.989 107.011 140.709 106.081C139.809 103.211 138.789 100.381 137.709 97.5805C136.289 94.0305 134.819 90.5105 133.169 87.0605C133.065 86.856 133.011 86.6299 133.011 86.4005C133.011 86.1712 133.065 85.9451 133.169 85.7405C135.449 80.9105 137.409 75.9505 139.219 70.9305C139.679 69.6805 140.049 68.3905 140.419 67.1005C140.629 66.3605 140.789 66.1005 141.769 66.3305C146.806 67.7199 151.688 69.6198 156.339 72.0005C160.575 74.0094 164.343 76.8847 167.399 80.4405C168.964 82.1929 169.845 84.4511 169.879 86.8005C169.634 89.0941 168.655 91.2473 167.089 92.9405V92.9405Z" fill="#9E22E9"/>
<path d="M44.3292 177.6C43.6082 175.958 42.7935 174.359 41.8892 172.81C41.6173 172.265 41.2155 171.794 40.7192 171.44C40.1692 171.11 40.3392 170.87 40.7192 170.7C41.2264 170.499 41.6618 170.151 41.9692 169.7C42.4082 169.071 42.6704 168.335 42.7285 167.57C42.7865 166.805 42.6383 166.038 42.2992 165.35C41.9601 164.662 41.4426 164.077 40.8006 163.657C40.1587 163.236 39.4157 162.996 38.6492 162.96C36.9292 162.87 35.2092 162.96 33.4992 162.88C32.7792 162.88 32.6192 163.14 32.6292 163.79C32.6292 166.68 32.6292 169.56 32.6292 172.45C32.6292 174.1 32.6292 175.76 32.6292 177.45C32.6292 178.38 33.0892 178.39 33.7692 178.45C34.4492 178.51 34.7692 178.33 34.7692 177.55C34.6992 176.36 34.7692 175.16 34.7692 173.96C34.7692 171.85 34.7692 171.91 36.8692 171.84C37.5859 171.789 38.3006 171.965 38.9112 172.344C39.5218 172.723 39.997 173.285 40.2692 173.95C40.9792 175.36 41.7192 176.75 42.4492 178.15C42.9366 178.338 43.4671 178.383 43.9792 178.28C44.2892 178.14 44.4692 178 44.3292 177.6ZM37.8892 170C37.0592 170 36.2292 170 35.4092 170C34.9692 170 34.7292 169.91 34.7392 169.4C34.7392 167.99 34.7392 166.58 34.7392 165.17C34.7392 164.82 34.8192 164.57 35.2392 164.58C36.3076 164.529 37.3784 164.572 38.4392 164.71C38.8611 164.768 39.258 164.944 39.5837 165.219C39.9094 165.493 40.1506 165.854 40.2792 166.26C40.5299 166.574 40.6664 166.964 40.6664 167.365C40.6664 167.767 40.5299 168.157 40.2792 168.47C40.0926 168.945 39.7611 169.348 39.332 169.622C38.9028 169.897 38.3979 170.029 37.8892 170V170Z" fill="#9E22E9"/>
<path d="M124.152 171.17C124.102 168.85 122.952 167.1 121.152 166.65C119.238 166.174 117.219 166.358 115.422 167.17C115.272 167.414 115.193 167.694 115.193 167.98C115.193 168.266 115.272 168.547 115.422 168.79C116.795 168.187 118.297 167.936 119.792 168.06C120.325 168.09 120.836 168.283 121.255 168.615C121.674 168.946 121.98 169.398 122.132 169.91C122.392 170.91 122.312 170.96 121.332 170.99C119.809 170.858 118.274 170.983 116.792 171.36C116.14 171.569 115.565 171.965 115.136 172.498C114.708 173.031 114.445 173.679 114.382 174.36C114.267 175.085 114.38 175.828 114.704 176.487C115.028 177.146 115.548 177.688 116.192 178.04C117.492 178.77 120.392 178.7 121.572 177.33C121.722 177.16 121.852 176.91 122.152 176.94C122.228 177.035 122.282 177.144 122.311 177.262C122.341 177.379 122.344 177.501 122.322 177.62C122.322 178.51 122.952 178.24 123.422 178.28C123.892 178.32 124.232 178.09 124.232 177.48C124.152 175.4 124.202 173.28 124.152 171.17ZM122.002 174.52C121.871 174.959 121.653 175.367 121.363 175.721C121.072 176.075 120.714 176.368 120.309 176.582C119.904 176.796 119.461 176.928 119.004 176.968C118.548 177.009 118.088 176.959 117.652 176.82C117.195 176.641 116.811 176.315 116.561 175.893C116.311 175.471 116.209 174.977 116.272 174.49C116.308 173.942 116.553 173.429 116.957 173.056C117.361 172.684 117.893 172.481 118.442 172.49C119.025 172.455 119.609 172.455 120.192 172.49V172.43H120.372C122.502 172.44 122.502 172.44 122.002 174.52Z" fill="#9E22E9"/>
<path d="M68.5297 171.369C68.4297 169.459 68.0097 167.609 65.9197 166.839C64.9273 166.491 63.876 166.342 62.8258 166.4C61.7757 166.458 60.7474 166.723 59.7997 167.179C59.65 167.421 59.5708 167.7 59.5708 167.984C59.5708 168.269 59.65 168.548 59.7997 168.789C61.161 168.17 62.6608 167.919 64.1497 168.059C64.7458 168.092 65.312 168.331 65.7502 168.736C66.1885 169.142 66.4713 169.688 66.5497 170.279C66.6497 170.839 66.4597 170.989 65.9397 170.989C64.8372 170.929 63.7322 170.929 62.6297 170.989C60.8097 171.189 59.3697 171.899 58.8197 173.829C58.5587 174.743 58.6632 175.722 59.1111 176.56C59.559 177.398 60.3151 178.029 61.2197 178.319C63.1097 178.719 64.8697 178.559 66.2197 176.979C66.2197 176.929 66.3797 176.979 66.5197 176.899C66.5567 177.047 66.5768 177.198 66.5797 177.349C66.4697 178.179 66.9197 178.289 67.5797 178.289C68.2397 178.289 68.5797 177.999 68.5197 177.289C68.5397 175.349 68.6397 173.349 68.5297 171.369ZM66.4097 174.369C66.2471 175.136 65.8117 175.817 65.1844 176.286C64.557 176.755 63.7806 176.98 62.9997 176.919C62.6952 176.957 62.3863 176.931 62.0927 176.842C61.7992 176.752 61.5276 176.603 61.2957 176.402C61.0638 176.201 60.8767 175.954 60.7464 175.676C60.6162 175.398 60.5457 175.096 60.5397 174.789C60.5356 174.491 60.5916 174.195 60.7045 173.919C60.8174 173.643 60.9848 173.392 61.1967 173.182C61.4085 172.972 61.6606 172.807 61.9377 172.697C62.2149 172.586 62.5114 172.533 62.8097 172.539C63.9997 172.449 65.1997 172.539 66.3897 172.469C67.0497 173.089 66.8197 173.709 66.4097 174.329V174.369Z" fill="#9E22E9"/>
<path d="M162.751 167.35C160.391 165.53 155.411 166.18 154.311 170.35C153.211 174.52 155.241 178.25 159.311 178.52C160.838 178.607 162.367 178.393 163.811 177.89C164.077 177.719 164.273 177.459 164.364 177.157C164.456 176.854 164.437 176.529 164.311 176.24C163.991 175.81 163.601 176.24 163.311 176.35C162.2 176.781 161.012 176.979 159.821 176.93C158.899 176.934 158.008 176.594 157.324 175.976C156.64 175.358 156.211 174.507 156.121 173.59C156.051 173.05 156.231 172.88 156.751 172.89C157.981 172.89 159.211 172.89 160.431 172.89H164.111C164.391 172.89 164.751 173 164.781 172.5C164.821 170.49 164.431 168.65 162.751 167.35ZM162.221 171.41C161.301 171.41 160.391 171.41 159.471 171.41C158.551 171.41 157.631 171.41 156.711 171.41C156.221 171.41 156.101 171.29 156.171 170.78C156.301 169.974 156.727 169.246 157.364 168.738C158.002 168.23 158.807 167.977 159.621 168.03C160.388 167.99 161.142 168.241 161.733 168.732C162.324 169.223 162.709 169.918 162.811 170.68C162.931 171.14 162.801 171.43 162.221 171.41Z" fill="#9E22E9"/>
<path d="M55.5028 168.719C54.2628 166.339 51.3128 165.959 49.0828 166.719C46.1728 167.779 45.3728 170.579 45.6228 173.369C45.6311 174.306 45.9027 175.223 46.4066 176.013C46.9105 176.803 47.6265 177.436 48.4728 177.839C49.6273 178.336 50.877 178.573 52.1334 178.534C53.3898 178.494 54.622 178.178 55.7428 177.609C55.5628 177.119 56.1328 176.419 55.3428 176.089C54.0044 176.705 52.5323 176.973 51.0628 176.869C50.2202 176.816 49.4212 176.476 48.7975 175.907C48.1739 175.338 47.7631 174.573 47.6328 173.739C47.5428 173.099 47.6328 172.809 48.4228 172.819C50.7828 172.819 53.1428 172.819 55.5028 172.819C55.9028 172.819 56.3128 172.889 56.3228 172.259C56.3405 171.03 56.0591 169.815 55.5028 168.719V168.719ZM53.6228 171.409C52.7328 171.409 51.8428 171.409 50.9628 171.409C50.0428 171.409 49.1328 171.409 48.2128 171.409C47.8028 171.409 47.5828 171.339 47.6528 170.849C47.7899 170.18 48.1148 169.565 48.5895 169.074C49.0642 168.583 49.6689 168.238 50.3328 168.079C52.1828 167.809 53.3828 168.369 54.0828 169.789C54.1961 170.07 54.2669 170.367 54.2928 170.669C54.3928 171.219 54.2028 171.439 53.6228 171.409Z" fill="#9E22E9"/>
<path d="M86.6339 86.3506C86.6478 83.7116 87.4428 81.1359 88.9187 78.9483C90.3947 76.7607 92.4855 75.0593 94.9273 74.0585C97.3691 73.0577 100.053 72.8025 102.639 73.3251C105.226 73.8477 107.6 75.1246 109.462 76.9948C111.324 78.865 112.59 81.2447 113.101 83.8337C113.612 86.4227 113.345 89.105 112.333 91.5423C111.321 93.9797 109.61 96.0628 107.416 97.5289C105.222 98.9951 102.643 99.7786 100.004 99.7806C96.4508 99.77 93.0472 98.3497 90.5404 95.8317C88.0336 93.3136 86.6286 89.9037 86.6339 86.3506Z" fill="#9E22E9"/>
</svg>
