<svg width="200" height="200" viewBox="0 0 200 200" fill="none" xmlns="http://www.w3.org/2000/svg">
<path d="M20.4166 64.9992C20.2991 64.4526 20.3511 63.8832 20.5655 63.3669C20.7799 62.8506 21.1465 62.4119 21.6166 62.1092C22.7881 61.2131 24.0899 60.5016 25.4766 59.9992C47.7266 51.2992 69.9166 42.4392 92.3166 34.1292C94.6373 33.2771 97.0213 32.6084 99.4466 32.1292C103.575 31.4014 107.825 31.8949 111.677 33.5492C126.597 39.3159 141.507 45.1159 156.407 50.9492L173.927 57.7392C175.469 58.2719 176.937 58.9977 178.297 59.8992C178.818 60.1835 179.231 60.631 179.473 61.173C179.715 61.715 179.773 62.3214 179.637 62.8992C179.276 64.07 178.472 65.0535 177.397 65.6392C174.035 67.7847 170.463 69.5807 166.737 70.9992C151.407 77.7992 135.997 84.2892 120.597 90.9992C116.737 92.6992 112.923 94.4959 109.157 96.3892C102.407 99.8092 95.7566 99.6592 88.9466 96.3892C80.5366 92.3892 71.7966 89.0292 63.1866 85.3892C51.5666 80.5192 39.8766 75.7892 28.3466 70.7192C26.4475 69.9737 24.6172 69.0636 22.8766 67.9992C21.6941 67.3615 20.8103 66.2837 20.4166 64.9992V64.9992Z" fill="#9E22E9"/>
<path d="M179.642 116.291C179.642 121.291 179.642 126.291 179.702 131.291C179.66 131.873 179.482 132.437 179.181 132.937C178.881 133.437 178.466 133.86 177.972 134.171C176.018 135.695 173.873 136.959 171.592 137.931C158.592 143.981 145.262 149.441 132.102 155.191C124.572 158.481 117.002 161.671 109.672 165.371C107.169 166.701 104.468 167.619 101.672 168.091C98.1503 168.597 94.557 168.065 91.3324 166.561C71.7624 157.831 51.7824 150.091 32.1224 141.561C29.0911 140.349 26.1474 138.929 23.3124 137.311C22.3332 136.847 21.5201 136.094 20.9835 135.153C20.4468 134.212 20.2125 133.129 20.3124 132.051C20.5424 127.531 20.4124 122.981 20.4324 118.441C20.508 118.415 20.5891 118.408 20.6678 118.422C20.7465 118.436 20.8204 118.47 20.8824 118.521C23.8824 121.841 27.9724 123.221 31.8824 124.901C50.1624 132.741 68.6324 140.161 86.8824 147.971C89.5524 149.111 92.1124 150.521 94.9524 151.191C99.2711 152.186 103.802 151.63 107.752 149.621C125.472 141.021 143.752 133.771 161.752 125.761C166.132 123.761 170.632 122.091 174.752 119.641C176.238 118.861 177.588 117.848 178.752 116.641C178.847 116.498 178.983 116.387 179.142 116.325C179.301 116.262 179.476 116.25 179.642 116.291V116.291Z" fill="#8020BA"/>
<path d="M26.5983 113.06C25.1283 112.15 23.5983 111.29 22.1983 110.33C21.5717 109.942 21.0645 109.388 20.7327 108.73C20.401 108.072 20.2576 107.335 20.3183 106.6C20.4383 101.81 20.3983 97.01 20.4183 92.22C20.4939 92.1939 20.5749 92.1876 20.6537 92.2016C20.7324 92.2156 20.8063 92.2495 20.8683 92.3C23.8083 95.54 27.8683 96.97 31.6983 98.62C50.0183 106.47 68.5083 113.92 86.8483 121.72C88.1583 122.27 89.4583 122.87 90.7283 123.49C93.3667 124.818 96.2815 125.505 99.2355 125.495C102.189 125.485 105.099 124.777 107.728 123.43C125.378 114.98 143.518 107.64 161.418 99.75C166.21 97.8217 170.885 95.6146 175.418 93.14C176.618 92.4705 177.707 91.6206 178.648 90.62C178.918 90.32 179.158 89.92 179.648 90C179.648 95 179.648 100 179.708 105C179.695 105.501 179.568 105.992 179.338 106.438C179.108 106.883 178.78 107.27 178.378 107.57C176.972 108.827 175.367 109.84 173.628 110.57C173.479 110.88 173.27 111.158 173.012 111.386C172.755 111.614 172.454 111.789 172.128 111.9C164.048 115.64 155.838 119.11 147.668 122.66C134.718 128.29 121.668 133.6 108.948 139.88C102.038 143.31 95.3483 142.88 88.4583 139.55C79.0883 135.06 69.3683 131.37 59.7783 127.38C49.3183 123.02 38.8383 118.69 28.4383 114.18C27.7184 114.019 27.0716 113.626 26.5983 113.06Z" fill="#8020BA"/>
<path d="M20.4212 65.0004C22.4212 68.0004 25.6712 69.1904 28.7312 70.5304C37.3212 74.2404 46.0012 77.8304 54.6112 81.4404C65.3312 85.9304 76.0812 90.3704 86.7912 94.8904C89.6512 96.1004 92.3712 97.6204 95.4512 98.2504C99.6733 99.0969 104.057 98.5018 107.901 96.5604C120.901 90.2404 134.191 84.7204 147.421 79.0104C155.421 75.5704 163.368 72.067 171.261 68.5004C174.361 67.0904 177.491 65.6104 179.641 62.7604C179.641 67.7604 179.641 72.7604 179.701 77.7604C179.677 78.3135 179.523 78.8531 179.252 79.3359C178.981 79.8187 178.6 80.2313 178.141 80.5404C176.402 81.9866 174.449 83.1538 172.351 84.0004C171.431 85.3604 169.851 85.7004 168.491 86.3204C156.321 91.8104 144.001 96.9504 131.761 102.32C124.221 105.6 116.631 108.8 109.291 112.54C106.266 114.184 102.886 115.067 99.4433 115.112C96.0006 115.158 92.5986 114.364 89.5312 112.8C80.1812 108.38 70.5312 104.68 60.9712 100.69C50.3112 96.1904 39.5812 91.9004 29.0012 87.1804C28.4712 86.9504 27.8812 86.7904 27.6112 86.1804C25.8168 85.31 24.077 84.3315 22.4012 83.2504C21.7108 82.8224 21.1498 82.2149 20.7782 81.4927C20.4065 80.7705 20.2382 79.9609 20.2912 79.1504C20.4712 74.4504 20.4012 69.7104 20.4212 65.0004Z" fill="#8020BA"/>
<path d="M27.6419 86.2091C34.5619 89.1291 41.4819 92.0891 48.4119 94.9791C59.5219 99.6191 70.6619 104.199 81.7719 108.839C84.7319 110.066 87.6619 111.369 90.5619 112.749C96.6719 115.659 102.712 115.289 108.642 112.359C120.772 106.359 133.302 101.279 145.642 95.8591C154.562 91.9591 163.642 88.3391 172.322 83.9991C172.862 84.8291 173.862 84.7991 174.642 85.1591C175.906 85.6762 177.118 86.3124 178.262 87.0591C178.781 87.3319 179.197 87.7667 179.446 88.2974C179.695 88.8281 179.764 89.4257 179.642 89.9991C177.292 93.2391 173.692 94.6391 170.272 96.2191C164.632 98.8191 158.912 101.219 153.212 103.699L131.632 113.049C124.872 115.989 118.082 118.859 111.482 122.169C108.658 123.711 105.627 124.84 102.482 125.519C98.7375 126.245 94.8601 125.794 91.3819 124.229C81.3819 119.739 71.2519 115.629 61.1419 111.439C51.0319 107.249 40.6719 102.839 30.4519 98.5091C28.5619 97.6991 26.7419 96.7491 24.8719 95.8891C23.0922 95.0732 21.5552 93.8085 20.4119 92.2191C20.0919 90.7591 20.9119 89.8691 21.9619 89.0791C23.6819 87.7691 25.7819 87.2391 27.6419 86.2091Z" fill="#9E22E9"/>
<path d="M26.6012 113.06C30.6712 114.77 34.7312 116.5 38.8012 118.2C46.6712 121.48 54.5512 124.71 62.3912 128.03C71.0612 131.7 79.8212 135.16 88.3912 139.03C91.5912 140.47 94.7712 141.92 98.3912 142.03C101.929 142.065 105.422 141.241 108.571 139.63C120.011 134.02 131.781 129.16 143.461 124.08C152.461 120.16 161.581 116.42 170.461 112.2C171.543 111.795 172.579 111.275 173.551 110.65C173.551 111.43 174.251 111.32 174.661 111.5C175.92 112.009 177.123 112.646 178.251 113.4C178.759 113.679 179.163 114.115 179.401 114.644C179.639 115.173 179.699 115.764 179.571 116.33C177.341 119.25 174.101 120.75 170.901 122.21C164.291 125.21 157.621 128.07 150.951 130.96C143.571 134.16 136.141 137.28 128.771 140.52C122.221 143.4 115.631 146.19 109.271 149.52C102.431 153.06 95.7312 152.96 88.8412 149.58C81.6612 146.05 74.1512 143.25 66.7812 140.15C57.4479 136.217 48.0779 132.303 38.6712 128.41C34.0012 126.47 29.3312 124.54 24.8112 122.28C23.0483 121.433 21.5177 120.17 20.3512 118.6C20.22 118.027 20.2753 117.426 20.5092 116.887C20.743 116.347 21.1431 115.896 21.6512 115.6C23.1557 114.496 24.8267 113.638 26.6012 113.06V113.06Z" fill="#9E22E9"/>
<path d="M67.3896 71.3194C62.426 71.4218 57.4892 70.5662 52.8496 68.7994C51.5161 68.2879 50.2863 67.5392 49.2196 66.5894C47.2196 64.7294 47.2196 62.5894 49.2196 60.7094C50.6053 59.4785 52.2487 58.5731 54.0296 58.0594C62.7302 55.2833 72.079 55.2833 80.7796 58.0594C82.455 58.5511 84.0131 59.3778 85.3596 60.4894C87.7596 62.5394 87.7596 64.8894 85.3596 66.8894C83.2844 68.4401 80.8953 69.5186 78.3596 70.0494C74.7725 70.941 71.0856 71.3678 67.3896 71.3194V71.3194Z" fill="#E3B6FE"/>
<path d="M77.8015 77.2295L114.331 71.6095C113.511 72.8195 112.851 73.8195 112.181 74.8095C109.395 78.8562 106.635 82.9195 103.902 86.9995C103.492 87.5995 103.181 88.0495 102.271 87.6695C94.2715 84.3195 86.3415 81.0195 78.3715 77.6695C78.1729 77.5344 77.9825 77.3874 77.8015 77.2295V77.2295Z" fill="#E3B6FE"/>
<path d="M83.6273 50.8109C86.9773 49.6109 90.3173 48.3609 93.6873 47.2209C94.7873 46.8409 94.8973 46.4509 94.3073 45.4809C93.3073 43.8709 92.4973 42.1709 91.4173 40.1609C94.7973 41.4709 97.8773 42.6009 100.907 43.8709C101.426 44.1096 101.987 44.2415 102.557 44.2586C103.128 44.2758 103.696 44.178 104.227 43.9709C106.647 43.0909 109.107 42.3309 111.567 41.5509C111.877 41.4509 112.217 41.0909 112.567 41.4609C112.917 41.8309 112.567 42.1609 112.447 42.4609C111.867 43.9209 111.287 45.3909 110.607 46.8209C110.217 47.6509 110.377 47.9609 111.257 48.2709C114.318 49.3361 117.322 50.5577 120.257 51.9309C117.127 52.2609 114.007 52.7809 110.877 52.8709C108.157 52.9509 106.327 53.6909 105.697 56.5909C105.253 58.0149 104.684 59.397 103.997 60.7209C102.477 58.2009 100.997 55.9509 99.7473 53.6209C99.5356 53.2091 99.2124 52.8651 98.8145 52.6281C98.4167 52.3912 97.9603 52.2709 97.4973 52.2809C92.8773 51.9309 88.2773 51.4809 83.6673 51.0709L83.6273 50.8109Z" fill="#E3B6FE"/>
<path d="M137.569 71.0008C135.799 72.1008 134.129 71.8608 132.229 71.0708C125.999 68.4808 119.689 66.0708 113.099 63.4908C116.389 62.1508 119.389 60.9208 122.399 59.7208C126.979 57.8875 131.566 56.0775 136.159 54.2908C136.659 54.1008 137.259 53.5108 137.879 54.1608C137.569 59.1008 137.809 64.0308 137.739 68.9708C137.788 69.6522 137.73 70.3369 137.569 71.0008V71.0008Z" fill="#831EC0"/>
<path d="M137.57 70.9992C137.13 70.6392 137.25 70.1392 137.25 69.6892C137.25 64.9692 137.25 60.2492 137.25 55.5292C137.25 54.9992 137 54.3092 137.88 54.1592L159.11 62.5392L137.57 70.9992Z" fill="#641793"/>
</svg>
