<svg width="200" height="200" viewBox="0 0 200 200" fill="none" xmlns="http://www.w3.org/2000/svg">
<path d="M98.1722 175.66C91.4917 175.782 84.8375 174.792 78.4822 172.73C75.1822 171.73 72.6422 169.78 71.9122 166.13C71.7278 165.099 71.758 164.041 72.0009 163.022C72.2438 162.003 72.6941 161.045 73.3238 160.208C73.9534 159.371 74.7489 158.673 75.6606 158.157C76.5722 157.641 77.5804 157.319 78.6222 157.21C81.7022 156.91 84.6222 157.92 87.5422 158.44C101.292 160.88 114.602 159.84 127.212 153.44C137.962 147.98 145.912 139.63 151.802 129.21C153.744 125.608 155.458 121.887 156.932 118.07C157.932 115.49 159.482 113.21 162.292 112.28C163.562 111.884 164.912 111.821 166.214 112.095C167.516 112.369 168.726 112.972 169.728 113.846C170.731 114.72 171.493 115.837 171.942 117.089C172.39 118.341 172.511 119.688 172.292 121C171.683 124.441 170.579 127.776 169.012 130.9C157.952 154.9 139.182 169.18 113.362 174.35C108.357 175.306 103.267 175.745 98.1722 175.66Z" fill="#9E22E9"/>
<path d="M100.996 24.32C107.701 24.2539 114.377 25.2047 120.796 27.14C121.845 27.4408 122.853 27.8708 123.796 28.42C127.026 30.32 128.456 33.42 127.716 36.8C127.445 38.4097 126.636 39.8798 125.42 40.9697C124.205 42.0597 122.656 42.7049 121.026 42.8C119.518 42.9329 117.998 42.7975 116.536 42.4C110.945 40.9423 105.195 40.1799 99.4163 40.13C84.7963 40.13 72.0263 45.18 60.8863 54.5C52.5242 61.5223 46.3216 70.769 42.9963 81.17C42.7763 81.83 42.5563 82.48 42.2863 83.11C41.5353 84.9436 40.1305 86.4333 38.3441 87.2905C36.5576 88.1477 34.5166 88.3115 32.6163 87.75C30.7412 87.1124 29.1665 85.8068 28.1926 84.0823C27.2187 82.3577 26.9139 80.3349 27.3363 78.4C28.2969 74.3265 29.7792 70.3941 31.7463 66.7C42.7463 44.7 60.4263 31.22 84.4063 25.95C89.8604 24.8041 95.4234 24.2575 100.996 24.32V24.32Z" fill="#9E22E9"/>
<path d="M73.2027 111.75H118.003C119.467 111.749 120.923 111.968 122.323 112.4C124.081 112.837 125.621 113.896 126.659 115.382C127.696 116.867 128.159 118.679 127.963 120.48C127.809 122.206 127.085 123.831 125.904 125.098C124.723 126.366 123.153 127.204 121.443 127.48C120.815 127.621 120.176 127.708 119.533 127.74C106.303 127.94 93.0727 128.13 79.8427 127.91C74.3627 127.82 68.8427 127.69 63.4227 127.83C58.4227 127.95 53.5127 128.06 48.5627 127.92C41.4127 127.73 34.2627 127.85 27.1127 127.76C26.035 127.75 24.963 127.602 23.9227 127.32C20.5127 126.38 18.6127 124.07 18.5027 120.78C18.3427 116.47 19.9827 113.78 23.6727 112.52C25.2196 111.984 26.8458 111.714 28.4827 111.72L73.2027 111.75Z" fill="#9E22E9"/>
<path d="M126.68 88.2094H81.9296C79.2808 88.3697 76.6633 87.567 74.5596 85.9494C73.4654 85.0936 72.6365 83.945 72.1691 82.6368C71.7018 81.3287 71.6153 79.9148 71.9196 78.5594C72.5096 75.3094 74.7496 73.6594 77.6696 72.7494C79.0304 72.3343 80.4471 72.1319 81.8696 72.1494H171.24C173.894 72.0026 176.517 72.7918 178.65 74.3794C183.43 78.2594 182.1 85.2094 176.23 87.3794C174.563 87.9622 172.805 88.24 171.04 88.1994C156.253 88.1927 141.466 88.1961 126.68 88.2094Z" fill="#9E22E9"/>
<path d="M53.4385 142C58.0585 142 61.1785 145.15 61.1885 149.81C61.1885 154.07 57.5985 157.81 53.5385 157.81C51.4143 157.793 49.378 156.959 47.8528 155.481C46.3276 154.002 45.4307 151.992 45.3485 149.87C45.4256 147.769 46.3094 145.779 47.8161 144.313C49.3228 142.848 51.3365 142.019 53.4385 142Z" fill="#9E22E9"/>
<path d="M138.774 50.4593C138.774 45.6493 141.774 42.5293 146.074 42.3193C149.774 42.1493 154.074 45.7493 154.074 50.1993C154.112 51.26 153.931 52.3172 153.542 53.3048C153.153 54.2925 152.566 55.1896 151.815 55.9401C151.065 56.6906 150.167 57.2785 149.18 57.6672C148.192 58.0559 147.135 58.237 146.074 58.1993C141.724 58.1293 138.784 54.9993 138.774 50.4593Z" fill="#9E22E9"/>
</svg>
