<svg width="200" height="200" viewBox="0 0 200 200" fill="none" xmlns="http://www.w3.org/2000/svg">
<path d="M149.21 74.5508C149.21 72.7508 148.52 72.4208 146.97 72.6408C144.68 72.9708 142.37 73.3008 140.06 73.4508C137.3 73.6308 134.56 74.4508 131.43 74.0708C136.27 65.8808 140.94 58.0008 145.6 50.0708C146.168 49.3798 146.534 48.5461 146.66 47.6608C146.79 39.7208 146.95 31.7808 147.09 23.8408C147.09 22.1108 145.65 21.4308 144.55 20.6608C143.45 19.8908 143.02 21.2408 142.42 21.7508C130.034 32.2508 117.664 42.7741 105.31 53.3208C87.7169 68.3141 70.1402 83.3141 52.5802 98.3208C51.6702 99.1008 50.5802 99.7108 50.5802 101.271C50.6802 106.451 50.6602 111.631 50.5802 116.801C50.5802 117.931 50.8202 118.431 52.0902 118.171C53.9202 117.801 55.7802 117.591 57.6302 117.291L81.6302 113.441C81.0602 114.491 80.7002 115.201 80.3002 115.871C76.7669 121.957 73.1902 128.031 69.5702 134.091C66.6202 139.091 62.5702 143.761 61.0802 149.161C59.5902 154.561 60.6202 160.841 60.5802 166.721C60.5802 170.791 60.5802 174.871 60.5802 179.501C61.6702 178.591 62.3402 178.071 62.9602 177.501L97.2002 146.731C114.047 131.571 130.897 116.407 147.75 101.241C148.253 100.887 148.664 100.419 148.949 99.8745C149.235 99.3301 149.386 98.7254 149.39 98.1108C149.25 90.2641 149.19 82.4108 149.21 74.5508ZM141.64 33.4408C141.64 37.9308 141.64 41.6608 141.64 45.4408C141.611 46.5177 141.263 47.5616 140.64 48.4408C135.394 57.2341 130.147 66.0208 124.9 74.8008C124.35 75.7408 123.9 76.6508 122.6 76.8008C119.96 77.0608 117.32 77.3708 114.04 77.7308L141.64 33.4408ZM58.3202 112.121C56.5602 112.421 55.9002 112.051 56.0502 110.181C56.1902 108.313 56.1902 106.438 56.0502 104.571C55.9904 104.098 56.0257 103.619 56.154 103.16C56.2823 102.702 56.5011 102.274 56.7974 101.901C57.0937 101.528 57.4616 101.218 57.8794 100.99C58.2972 100.762 58.7565 100.619 59.2302 100.571C70.2302 98.7608 81.2302 97.1908 92.2302 95.5708C92.5719 95.6108 92.9076 95.6914 93.2302 95.8108C90.9302 99.5608 88.7302 103.191 86.4902 106.811C85.9002 107.811 84.8002 107.731 83.8602 107.891C75.3402 109.311 66.8202 110.661 58.3202 112.121ZM143.91 96.8708C143.91 98.2908 142.5 98.8708 141.61 99.6508C122.47 116.924 103.314 134.177 84.1402 151.411L65.8802 167.851C65.8802 162.261 65.8802 157.461 65.8802 152.661C65.8802 151.381 66.6902 150.751 67.4702 150.041L130.17 93.2808C134.58 89.2808 139 85.2808 143.96 80.8408C143.93 86.6208 144 91.7408 143.91 96.8708Z" fill="#9E22E9"/>
</svg>
