<svg width="200" height="200" viewBox="0 0 200 200" fill="none" xmlns="http://www.w3.org/2000/svg">
<path d="M40.7422 123.752C40.8422 121.342 40.8922 118.942 41.0422 116.542C41.1622 114.712 41.2222 112.892 41.3122 111.072C41.4522 108.422 41.6022 105.782 41.7122 103.132C41.7922 101.312 41.8722 99.482 41.9822 97.662C42.1522 94.842 42.2623 92.022 42.3923 89.192C42.4723 87.322 42.5422 85.452 42.6722 83.592C42.6371 82.6803 42.7076 81.7676 42.8822 80.872C43.2522 80.872 43.4122 81.182 43.6322 81.392C44.3222 82.062 45.0122 82.732 45.6322 83.392C45.779 83.5562 45.9595 83.6868 46.1615 83.7748C46.3634 83.8629 46.5819 83.9062 46.8022 83.902C47.7422 83.902 48.6722 84.032 49.6122 84.062C49.7283 84.0537 49.8448 84.0696 49.9545 84.1087C50.0641 84.1478 50.1644 84.2092 50.249 84.2892C50.3337 84.3691 50.4007 84.4657 50.446 84.5729C50.4913 84.6802 50.5139 84.7956 50.5122 84.912C51.0722 88.792 51.6622 92.672 52.2222 96.552C52.7822 100.432 53.3222 104.172 53.8822 107.992C54.4722 111.992 55.0622 115.992 55.6922 119.992C55.7522 120.422 55.6222 120.542 55.2622 120.622L41.2622 123.622C41.1322 123.692 40.9522 123.832 40.7422 123.752Z" fill="#5E8C3E"/>
<path d="M42.8832 80.8723C42.3258 80.8191 41.7647 80.923 41.2632 81.1723C40.8432 81.3223 40.6532 81.1722 40.5132 80.8122C40.147 79.7681 39.5681 78.8113 38.8132 78.0023C38.4742 77.6015 38.0575 77.2735 37.5883 77.0381C37.1192 76.8026 36.6072 76.6646 36.0832 76.6322C35.8576 76.6157 35.6382 76.5509 35.4398 76.4422C35.2414 76.3335 35.0686 76.1835 34.9332 76.0023C34.6561 75.6736 34.3075 75.4126 33.9141 75.2393C33.5207 75.0659 33.0928 74.9849 32.6632 75.0023C31.5907 75.0548 30.5403 75.3269 29.5771 75.8016C28.6138 76.2763 27.7582 76.9436 27.0632 77.7623C24.993 80.2074 23.5361 83.1111 22.8132 86.2323C22.7787 86.4372 22.6812 86.6263 22.5342 86.7732C22.3873 86.9202 22.1982 87.0177 21.9932 87.0523C20.5732 87.4923 19.1532 87.9522 17.7232 88.3822C17.4539 88.4348 17.2096 88.5753 17.0287 88.7816C16.8477 88.9879 16.7403 89.2484 16.7232 89.5222C16.5832 90.6522 16.4332 91.7823 16.2932 92.9123C15.7132 97.2856 15.1399 101.662 14.5732 106.042C14.0532 110.042 13.5732 114.042 13.0132 117.972C12.9532 118.422 13.0932 118.542 13.5132 118.622C16.9932 119.262 20.5132 119.942 23.9532 120.622C27.9532 121.382 31.9532 122.142 35.9532 122.862C37.5232 123.152 39.0832 123.532 40.6832 123.692C40.7504 123.632 40.8033 123.558 40.8379 123.475C40.8726 123.392 40.888 123.302 40.8832 123.212C40.8832 122.382 41.0432 121.562 41.0432 120.742C41.0432 118.512 41.2232 116.282 41.3432 114.062C41.5132 110.902 41.6532 107.732 41.8232 104.582C41.9532 102.282 42.0432 99.9922 42.1432 97.7022C42.1932 96.7022 42.2132 95.7822 42.2732 94.8223C42.4532 92.3323 42.4932 89.8222 42.6532 87.3422C42.7532 85.8322 42.7532 84.3423 42.8832 82.8023C43.0053 82.1647 43.0053 81.5098 42.8832 80.8723ZM27.1932 85.5523C26.5032 85.6823 25.8232 85.9423 25.1432 86.1423C24.8032 86.2423 24.6332 86.2223 24.7732 85.7823C25.487 83.2445 26.7348 80.8885 28.4332 78.8723C28.9411 78.253 29.5744 77.7483 30.2915 77.3915C31.0085 77.0348 31.793 76.8339 32.5932 76.8023C32.7297 76.7909 32.8668 76.7909 33.0032 76.8023C33.1032 76.8023 33.2432 76.8823 33.2732 76.9623C33.3032 77.0423 33.1732 77.1623 33.0632 77.2323C30.5732 78.7623 29.3832 81.1723 28.7332 83.8723C28.5032 84.8523 28.1332 85.3823 27.1932 85.5523ZM34.0632 83.3923L30.8832 84.3923C30.5732 84.4923 30.3932 84.4822 30.5032 84.0922C30.9767 82.0731 32.1272 80.2768 33.7632 79.0023C34.4532 78.5123 34.6632 78.5823 34.8332 79.4223C35.0522 80.1428 35.1733 80.8895 35.1932 81.6423C35.1932 83.0023 35.1932 83.0023 34.0432 83.3923H34.0632ZM38.8332 81.9323H38.7632C36.9232 82.6223 36.9032 82.6223 36.7632 80.6923C36.7078 80.0177 36.5974 79.3488 36.4332 78.6923C36.3432 78.2123 36.5732 78.3023 36.7632 78.3723C37.285 78.5825 37.7287 78.9494 38.0332 79.4223C38.4605 80.0376 38.7973 80.7112 39.0332 81.4223C39.1932 81.7423 39.0932 81.8723 38.8132 81.9323H38.8332Z" fill="#95BD46"/>
<path d="M78.7032 115.462C80.1832 107.732 81.6432 100.062 83.0932 92.4023C83.5132 90.1923 83.9432 87.9823 84.3332 85.7623C84.4032 85.3523 84.5432 85.2023 84.9732 85.2123C86.6032 85.2123 88.2332 85.2123 89.8632 85.2123C90.2132 85.2123 90.3731 85.2123 90.2831 85.6823C89.5531 89.3823 88.8532 93.0823 88.1532 96.7823C88.1532 96.8723 88.1532 96.9523 88.1532 97.1523C88.6933 96.5875 89.2677 96.0564 89.8732 95.5623C91.1421 94.5835 92.6911 94.0368 94.2932 94.0023C94.9241 93.9521 95.5585 94.0342 96.1557 94.2436C96.7529 94.4529 97.2998 94.7848 97.7612 95.218C98.2226 95.6511 98.5883 96.176 98.8349 96.7588C99.0815 97.3416 99.2036 97.9696 99.1932 98.6023C99.2219 100.747 98.9834 102.887 98.4832 104.972C97.8832 108.212 97.2432 111.452 96.6532 114.692C96.5532 115.252 96.4132 115.512 95.7632 115.482C94.1932 115.412 92.6331 115.482 91.0631 115.482C90.6831 115.482 90.5632 115.412 90.6432 115.002C91.3832 111.176 92.1099 107.342 92.8232 103.502C93.013 102.558 93.0834 101.594 93.0331 100.632C93.0468 100.333 92.9839 100.035 92.8501 99.7666C92.7164 99.4983 92.5163 99.2687 92.2689 99.0994C92.0215 98.9301 91.735 98.8269 91.4365 98.7994C91.138 98.7719 90.8373 98.8211 90.5631 98.9423C89.4415 99.3576 88.5195 100.183 87.9832 101.252C87.1296 102.802 86.5734 104.498 86.3432 106.252L84.7332 115.002C84.6832 115.292 84.6332 115.522 84.2132 115.512C82.4032 115.442 80.5932 115.462 78.7032 115.462Z" fill="black"/>
<path d="M175.792 108.902C176.652 106.532 177.422 104.342 178.242 102.162C179.132 99.7822 180.062 97.4222 180.952 95.0522C180.988 94.871 181.092 94.7102 181.243 94.6026C181.393 94.4949 181.579 94.4484 181.762 94.4722C183.592 94.4722 185.422 94.4722 187.352 94.4722C186.972 95.2922 186.642 96.0322 186.292 96.7722C183.872 101.882 181.602 107.062 179.062 112.112C177.494 115.393 175.452 118.425 173.002 121.112C171.395 122.797 169.4 124.064 167.192 124.802C166.762 124.942 166.552 124.922 166.402 124.412C166.022 123.092 165.582 121.782 165.112 120.482C164.942 120.002 165.112 119.862 165.522 119.692C167.991 118.838 170.075 117.133 171.402 114.882C171.635 114.499 171.717 114.043 171.632 113.602C170.482 107.442 169.352 101.282 168.192 95.1322C168.082 94.5722 168.192 94.4122 168.782 94.4322C170.412 94.4322 172.052 94.4322 173.682 94.4322C174.132 94.4322 174.322 94.5022 174.372 95.0322C174.812 99.6222 175.292 104.162 175.792 108.902Z" fill="black"/>
<path d="M153.05 115.462L156.05 99.6916C156.19 98.9116 156.21 98.9116 155.38 98.9116H153.84C153.55 98.9116 153.46 98.8516 153.53 98.5316C153.79 97.2916 154.02 96.0416 154.24 94.7816C154.29 94.5016 154.41 94.4216 154.68 94.4216C155.26 94.4216 155.85 94.4216 156.42 94.4216C156.99 94.4216 157.11 94.2616 157.18 93.7916C157.374 92.4048 157.779 91.0558 158.38 89.7916C159.13 88.1129 160.401 86.7202 162.003 85.8197C163.606 84.9192 165.457 84.5587 167.28 84.7916C167.957 84.8444 168.627 84.965 169.28 85.1516C169.54 85.2316 169.61 85.3416 169.53 85.6316C169.18 86.9416 168.87 88.2616 168.53 89.5816C168.47 89.8416 168.34 89.9016 168.1 89.8316C167.911 89.7739 167.717 89.7304 167.52 89.7016C166.624 89.4939 165.682 89.6485 164.9 90.1317C164.117 90.6148 163.556 91.3874 163.34 92.2816C163.15 92.8216 163.06 93.4016 162.91 93.9616C162.82 94.3216 162.91 94.4216 163.31 94.4116C164.38 94.4116 165.45 94.4116 166.52 94.4116C166.84 94.4116 166.95 94.4716 166.88 94.8216C166.64 96.0016 166.44 97.1816 166.23 98.3716C166.17 98.7416 166.04 98.9316 165.6 98.9116C164.6 98.9116 163.6 98.9116 162.6 98.9116C162.18 98.9116 162.04 99.0416 161.96 99.4616C161 104.635 160.03 109.805 159.05 114.972C158.99 115.292 158.94 115.482 158.53 115.482C156.75 115.442 154.94 115.462 153.05 115.462Z" fill="black"/>
<path d="M68.3415 115.862C66.5188 115.857 64.7195 115.451 63.0715 114.672C62.6815 114.482 62.5615 114.312 62.7315 113.872C63.1415 112.812 63.5015 111.732 63.8415 110.652C63.9715 110.252 64.1115 110.212 64.4815 110.382C65.9366 111.128 67.5571 111.493 69.1915 111.442C69.6416 111.466 70.088 111.348 70.4669 111.104C70.8458 110.86 71.1379 110.502 71.3015 110.082C71.4359 109.712 71.4583 109.311 71.3658 108.929C71.2733 108.546 71.07 108.2 70.7815 107.932C70.2867 107.447 69.7242 107.036 69.1115 106.712C67.7372 105.995 66.5751 104.929 65.7415 103.622C65.1069 102.338 64.9425 100.873 65.2769 99.4806C65.6113 98.0884 66.4232 96.8574 67.5715 96.002C69.3635 94.6302 71.5761 93.9233 73.8315 94.002C75.3154 93.9661 76.7933 94.2034 78.1915 94.702C78.6515 94.882 78.8615 95.072 78.6415 95.632C78.2415 96.632 77.9315 97.742 77.6415 98.802C77.5315 99.162 77.4015 99.222 77.0515 99.092C75.7167 98.5054 74.2406 98.3178 72.8015 98.552C72.4007 98.5914 72.0211 98.7509 71.7124 99.0096C71.4037 99.2683 71.1803 99.6142 71.0715 100.002C70.9802 100.386 71.0168 100.789 71.1757 101.15C71.3345 101.511 71.6069 101.81 71.9515 102.002C72.7915 102.592 73.7015 103.082 74.5315 103.672C75.3013 104.121 75.9668 104.729 76.484 105.455C77.0012 106.18 77.3582 107.008 77.5315 107.882C77.7012 109.3 77.4147 110.736 76.7134 111.98C76.0121 113.224 74.9326 114.213 73.6315 114.802C71.9654 115.533 70.1607 115.895 68.3415 115.862Z" fill="black"/>
<path d="M144.949 115.462C144.099 115.462 143.249 115.462 142.399 115.462C142.049 115.462 142.009 115.372 142.069 115.042C143.363 108.376 144.636 101.682 145.889 94.9624C145.959 94.5924 146.079 94.4824 146.439 94.4824H151.439C151.829 94.4824 151.919 94.5524 151.839 94.9624C150.893 99.8224 149.959 104.679 149.039 109.532C148.699 111.302 148.349 113.072 148.039 114.842C147.949 115.332 147.769 115.502 147.269 115.472C146.509 115.422 145.729 115.462 144.949 115.462Z" fill="black"/>
<path d="M150.311 85.5324C150.697 85.514 151.084 85.5763 151.445 85.7153C151.806 85.8543 152.134 86.0669 152.409 86.3396C152.684 86.6124 152.899 86.9393 153.04 87.2996C153.181 87.6599 153.246 88.0456 153.231 88.4324C153.251 88.8969 153.174 89.3605 153.004 89.7933C152.834 90.2262 152.576 90.6187 152.245 90.9455C151.914 91.2724 151.519 91.5264 151.084 91.6912C150.649 91.856 150.185 91.928 149.721 91.9024C149.338 91.9202 148.956 91.8568 148.599 91.7166C148.242 91.5763 147.919 91.3622 147.651 91.0884C147.383 90.8146 147.176 90.4872 147.043 90.1277C146.91 89.7683 146.855 89.3848 146.881 89.0024C146.866 88.546 146.944 88.0914 147.11 87.6662C147.277 87.241 147.528 86.8543 147.849 86.5296C148.17 86.2048 148.554 85.9489 148.977 85.7775C149.401 85.606 149.854 85.5226 150.311 85.5324Z" fill="black"/>
<path d="M26.5518 116.442C24.2076 116.471 21.9329 115.647 20.1518 114.122C19.9359 113.996 19.7751 113.794 19.7011 113.555C19.6271 113.316 19.6451 113.058 19.7518 112.832C20.1008 111.87 20.3947 110.888 20.6318 109.892C20.7618 109.412 20.9018 109.382 21.2918 109.662C22.1106 110.285 23.0127 110.79 23.9718 111.162C24.3898 111.313 24.828 111.401 25.2718 111.422C25.5883 111.453 25.9075 111.405 26.2005 111.281C26.4935 111.158 26.751 110.963 26.9496 110.715C27.1483 110.466 27.2818 110.172 27.3381 109.859C27.3943 109.546 27.3715 109.224 27.2718 108.922C27.1422 108.398 26.8645 107.923 26.4718 107.552C25.9018 107.022 25.3218 106.492 24.7118 106.012C21.7118 103.682 21.3418 100.682 22.5918 97.4322C23.9318 93.9422 26.7018 92.3321 30.2618 91.8521C31.7949 91.6461 33.354 91.7584 34.8418 92.1822C35.3918 92.3322 35.6418 92.5322 35.3918 93.1822C34.8718 94.5322 34.4418 95.9222 34.0118 97.3022C33.8318 97.8822 33.5918 97.9722 33.0118 97.7322C31.7187 97.1559 30.276 97.0053 28.8918 97.3022C28.4493 97.3721 28.0392 97.5767 27.7171 97.888C27.395 98.1993 27.1767 98.6023 27.0918 99.0422C27.0275 99.4466 27.089 99.861 27.2678 100.23C27.4466 100.598 27.7343 100.903 28.0918 101.102C29.0918 101.882 30.0918 102.622 31.0218 103.422C33.8218 105.762 34.2018 108.992 33.0218 112.162C32.5578 113.484 31.6744 114.617 30.5063 115.39C29.3382 116.163 27.9495 116.532 26.5518 116.442Z" fill="#FEFEFE"/>
<path d="M141.442 98.5916C141.283 97.4697 140.766 96.4291 139.968 95.6252C139.169 94.8214 138.132 94.2974 137.012 94.1316C134.092 93.6116 131.842 94.8116 130.012 96.9216C129.852 97.1016 129.762 97.3516 129.482 97.4416C129.582 96.5416 129.652 95.6516 129.762 94.7816C129.762 94.4316 129.702 94.3616 129.382 94.3616C127.932 94.3616 126.482 94.3616 125.032 94.3616C124.632 94.3616 124.542 94.5016 124.502 94.8516C124.002 99.2816 123.102 103.652 122.272 108.032C121.272 113.152 120.342 118.282 119.352 123.402C119.282 123.812 119.352 123.892 119.752 123.882C121.342 123.882 122.922 123.882 124.512 123.882C125.022 123.882 125.232 123.762 125.322 123.212C125.762 120.662 126.262 118.132 126.732 115.592C126.782 115.352 126.732 115.032 127.192 115.222C128.709 115.881 130.383 116.092 132.016 115.832C133.649 115.571 135.175 114.85 136.412 113.752C141.102 109.792 142.572 104.542 141.442 98.5916ZM133.652 109.002C133.23 109.688 132.676 110.283 132.022 110.752C131.441 111.171 130.747 111.401 130.031 111.412C129.316 111.422 128.614 111.213 128.022 110.812C127.832 110.682 127.642 110.592 127.712 110.292C128.232 107.932 128.412 105.492 129.152 103.172C129.49 102.061 130.067 101.037 130.842 100.172C131.132 99.852 131.469 99.5788 131.842 99.3616C132.176 99.1004 132.575 98.9354 132.996 98.8844C133.417 98.8335 133.844 98.8984 134.231 99.0724C134.618 99.2463 134.95 99.5225 135.192 99.8713C135.433 100.22 135.575 100.628 135.602 101.052C135.682 101.472 135.692 101.892 135.722 102.202C135.64 104.611 134.926 106.956 133.652 109.002Z" fill="black"/>
<path d="M120.56 101.002C120.455 99.3465 119.796 97.7751 118.69 96.5399C117.583 95.3047 116.094 94.4776 114.46 94.1914C112.809 93.8654 111.103 93.9443 109.488 94.4215C107.874 94.8986 106.399 95.7599 105.19 96.9314C103.588 98.4371 102.362 100.299 101.614 102.367C100.865 104.434 100.614 106.649 100.88 108.832C100.945 110.488 101.576 112.071 102.668 113.318C103.76 114.565 105.247 115.399 106.88 115.682C108.637 116.056 110.46 115.97 112.174 115.432C113.887 114.894 115.433 113.923 116.66 112.612C119.3 109.932 120.39 106.612 120.61 102.612C120.63 102.074 120.613 101.536 120.56 101.002ZM114.56 102.492C114.491 104.734 113.917 106.932 112.88 108.922C112.471 109.738 111.849 110.429 111.08 110.922C110.758 111.136 110.392 111.276 110.009 111.33C109.626 111.384 109.236 111.351 108.867 111.234C108.498 111.117 108.161 110.919 107.879 110.653C107.597 110.388 107.379 110.063 107.24 109.702C106.779 108.419 106.689 107.033 106.98 105.702C107.189 103.972 107.75 102.305 108.63 100.802C108.931 100.275 109.316 99.8022 109.77 99.4014C110.16 99.0246 110.649 98.7656 111.179 98.6541C111.71 98.5427 112.262 98.5833 112.77 98.7714C113.244 98.9769 113.651 99.3102 113.946 99.7342C114.241 100.158 114.412 100.656 114.44 101.172C114.548 101.596 114.598 102.033 114.59 102.472L114.56 102.492Z" fill="black"/>
</svg>
