<svg width="200" height="200" viewBox="0 0 200 200" fill="none" xmlns="http://www.w3.org/2000/svg">
<path d="M40.5508 123.75C40.6508 121.34 40.7008 118.94 40.8508 116.54C40.9708 114.71 41.0308 112.89 41.1208 111.07C41.2608 108.42 41.4108 105.78 41.5208 103.13C41.6008 101.31 41.6808 99.4801 41.7908 97.6601C41.9608 94.8401 42.0708 92.0201 42.2008 89.1901C42.2808 87.3201 42.3508 85.4501 42.4808 83.5901C42.4457 82.6784 42.5162 81.7657 42.6908 80.8701C43.0608 80.8701 43.2208 81.1801 43.4408 81.3901C44.1308 82.0601 44.8208 82.7301 45.4408 83.3901C45.5876 83.5543 45.7681 83.6849 45.9701 83.7729C46.172 83.861 46.3905 83.9043 46.6108 83.9001C47.5508 83.9001 48.4808 84.0301 49.4208 84.0601C49.5369 84.0518 49.6534 84.0677 49.7631 84.1068C49.8727 84.1459 49.973 84.2074 50.0576 84.2873C50.1423 84.3672 50.2093 84.4638 50.2546 84.571C50.2999 84.6783 50.3225 84.7937 50.3208 84.9101C50.8808 88.7901 51.4708 92.6701 52.0308 96.5501C52.5908 100.43 53.1308 104.17 53.6908 107.99C54.2808 111.99 54.8708 115.99 55.5008 119.99C55.5608 120.42 55.4308 120.54 55.0708 120.62L41.0708 123.62C40.9408 123.69 40.7608 123.83 40.5508 123.75Z" fill="#8020BA"/>
<path d="M42.6915 80.8699C42.1341 80.8167 41.5729 80.9206 41.0715 81.1699C40.6515 81.3199 40.4615 81.1699 40.3215 80.8099C39.9552 79.7657 39.3764 78.8089 38.6215 77.9999C38.2824 77.5991 37.8657 77.2712 37.3966 77.0357C36.9274 76.8003 36.4154 76.6622 35.8915 76.6299C35.6659 76.6133 35.4464 76.5485 35.248 76.4398C35.0496 76.3311 34.8769 76.1811 34.7415 75.9999C34.4644 75.6712 34.1158 75.4102 33.7223 75.2369C33.3289 75.0636 32.901 74.9825 32.4715 74.9999C31.3989 75.0524 30.3485 75.3245 29.3853 75.7992C28.4221 76.2739 27.5665 76.9412 26.8715 77.7599C24.8013 80.205 23.3443 83.1087 22.6215 86.2299C22.5869 86.4348 22.4894 86.6239 22.3425 86.7709C22.1955 86.9178 22.0064 87.0153 21.8015 87.0499C20.3815 87.4899 18.9615 87.9499 17.5315 88.3799C17.2621 88.4324 17.0179 88.5729 16.8369 88.7792C16.6559 88.9855 16.5485 89.246 16.5315 89.5199C16.3915 90.6499 16.2415 91.7799 16.1015 92.9099C15.5215 97.2832 14.9481 101.66 14.3815 106.04C13.8615 110.04 13.3815 114.04 12.8215 117.97C12.7615 118.42 12.9015 118.54 13.3215 118.62C16.8015 119.26 20.3215 119.94 23.7615 120.62C27.7615 121.38 31.7615 122.14 35.7615 122.86C37.3315 123.15 38.8915 123.53 40.4915 123.69C40.5587 123.63 40.6115 123.556 40.6462 123.473C40.6808 123.39 40.6963 123.3 40.6915 123.21C40.6915 122.38 40.8515 121.56 40.8515 120.74C40.8515 118.51 41.0315 116.28 41.1515 114.06C41.3215 110.9 41.4615 107.73 41.6315 104.58C41.7615 102.28 41.8515 99.9899 41.9515 97.6999C42.0015 96.6999 42.0215 95.7799 42.0815 94.8199C42.2615 92.3299 42.3015 89.8199 42.4615 87.3399C42.5615 85.8299 42.5615 84.3399 42.6915 82.7999C42.8136 82.1623 42.8136 81.5074 42.6915 80.8699ZM27.0015 85.5499C26.3115 85.6799 25.6315 85.9399 24.9515 86.1399C24.6115 86.2399 24.4415 86.2199 24.5815 85.7799C25.2952 83.2421 26.5431 80.8861 28.2415 78.8699C28.7493 78.2506 29.3827 77.746 30.0997 77.3892C30.8167 77.0324 31.6012 76.8315 32.4015 76.7999C32.5379 76.7885 32.675 76.7885 32.8115 76.7999C32.9115 76.7999 33.0515 76.8799 33.0815 76.9599C33.1115 77.0399 32.9815 77.1599 32.8715 77.2299C30.3815 78.7599 29.1915 81.1699 28.5415 83.8699C28.3115 84.8499 27.9415 85.3799 27.0015 85.5499ZM33.8715 83.3899L30.6915 84.3899C30.3815 84.4899 30.2015 84.4799 30.3115 84.0899C30.7849 82.0707 31.9354 80.2744 33.5715 78.9999C34.2615 78.5099 34.4715 78.5799 34.6415 79.4199C34.8604 80.1404 34.9815 80.8871 35.0015 81.6399C35.0015 82.9999 35.0015 82.9999 33.8515 83.3899H33.8715ZM38.6415 81.9299H38.5715C36.7315 82.6199 36.7115 82.6199 36.5715 80.6899C36.516 80.0153 36.4056 79.3465 36.2415 78.6899C36.1515 78.2099 36.3815 78.2999 36.5715 78.3699C37.0932 78.5801 37.5369 78.947 37.8415 79.4199C38.2688 80.0353 38.6055 80.7088 38.8415 81.4199C39.0015 81.7399 38.9015 81.8699 38.6215 81.9299H38.6415Z" fill="#9E22E9"/>
<path d="M78.5096 115.459C79.9896 107.729 81.4496 100.059 82.8996 92.3995C83.3196 90.1895 83.7496 87.9795 84.1396 85.7595C84.2096 85.3495 84.3496 85.1995 84.7796 85.2095C86.4096 85.2095 88.0396 85.2095 89.6696 85.2095C90.0196 85.2095 90.1796 85.2095 90.0896 85.6795C89.3596 89.3795 88.6596 93.0795 87.9596 96.7795C87.9596 96.8695 87.9596 96.9495 87.9596 97.1495C88.4997 96.5846 89.0741 96.0536 89.6796 95.5595C90.9484 94.5806 92.4974 94.0339 94.0996 93.9995C94.7304 93.9492 95.3648 94.0314 95.962 94.2407C96.5593 94.4501 97.1061 94.782 97.5675 95.2151C98.0289 95.6483 98.3947 96.1731 98.6413 96.7559C98.8879 97.3387 99.0099 97.9667 98.9996 98.5995C99.0283 100.744 98.7898 102.884 98.2896 104.969C97.6896 108.209 97.0496 111.449 96.4596 114.689C96.3596 115.249 96.2196 115.509 95.5696 115.479C93.9996 115.409 92.4396 115.479 90.8696 115.479C90.4896 115.479 90.3696 115.409 90.4496 114.999C91.1896 111.173 91.9162 107.339 92.6296 103.499C92.8194 102.555 92.8899 101.591 92.8396 100.629C92.8533 100.33 92.7902 100.032 92.6565 99.7638C92.5227 99.4955 92.3227 99.2658 92.0753 99.0965C91.8279 98.9273 91.5413 98.824 91.2428 98.7965C90.9443 98.769 90.6437 98.8182 90.3696 98.9395C89.248 99.3548 88.3258 100.18 87.7896 101.249C86.936 102.799 86.3797 104.495 86.1496 106.249L84.5396 114.999C84.4896 115.289 84.4396 115.519 84.0196 115.509C82.2096 115.439 80.3996 115.459 78.5096 115.459Z" fill="#9E22E9"/>
<path d="M175.599 108.9C176.459 106.53 177.229 104.34 178.049 102.16C178.939 99.7803 179.869 97.4203 180.759 95.0503C180.795 94.8691 180.899 94.7083 181.05 94.6007C181.2 94.493 181.385 94.4465 181.569 94.4703C183.399 94.4703 185.229 94.4703 187.159 94.4703C186.779 95.2903 186.449 96.0303 186.099 96.7703C183.679 101.88 181.409 107.06 178.869 112.11C177.301 115.391 175.259 118.423 172.809 121.11C171.201 122.795 169.207 124.062 166.999 124.8C166.569 124.94 166.359 124.92 166.209 124.41C165.829 123.09 165.389 121.78 164.919 120.48C164.749 120 164.919 119.86 165.329 119.69C167.798 118.836 169.882 117.131 171.209 114.88C171.442 114.497 171.524 114.041 171.439 113.6C170.289 107.44 169.159 101.28 167.999 95.1303C167.889 94.5703 167.999 94.4103 168.589 94.4303C170.219 94.4303 171.859 94.4303 173.489 94.4303C173.939 94.4303 174.129 94.5003 174.179 95.0303C174.619 99.6203 175.099 104.16 175.599 108.9Z" fill="#9E22E9"/>
<path d="M152.864 115.459L155.864 99.6892C156.004 98.9092 156.024 98.9092 155.194 98.9092H153.654C153.364 98.9092 153.274 98.8492 153.344 98.5292C153.604 97.2892 153.834 96.0392 154.054 94.7792C154.104 94.4992 154.224 94.4192 154.494 94.4192C155.074 94.4192 155.664 94.4192 156.234 94.4192C156.804 94.4192 156.924 94.2592 156.994 93.7892C157.187 92.4024 157.592 91.0535 158.194 89.7892C158.943 88.1105 160.214 86.7178 161.817 85.8173C163.42 84.9168 165.27 84.5563 167.094 84.7892C167.771 84.842 168.441 84.9626 169.094 85.1492C169.354 85.2292 169.424 85.3392 169.344 85.6292C168.994 86.9392 168.684 88.2592 168.344 89.5792C168.284 89.8392 168.154 89.8992 167.914 89.8292C167.724 89.7715 167.53 89.7281 167.334 89.6992C166.437 89.4916 165.496 89.6461 164.713 90.1293C163.93 90.6124 163.37 91.3851 163.154 92.2792C162.964 92.8192 162.874 93.3992 162.724 93.9592C162.634 94.3192 162.724 94.4192 163.124 94.4092C164.194 94.4092 165.264 94.4092 166.334 94.4092C166.654 94.4092 166.764 94.4692 166.694 94.8192C166.454 95.9992 166.254 97.1792 166.044 98.3692C165.984 98.7392 165.854 98.9292 165.414 98.9092C164.414 98.9092 163.414 98.9092 162.414 98.9092C161.994 98.9092 161.854 99.0392 161.774 99.4592C160.814 104.632 159.844 109.803 158.864 114.969C158.804 115.289 158.754 115.479 158.344 115.479C156.564 115.439 154.754 115.459 152.864 115.459Z" fill="#9E22E9"/>
<path d="M68.1523 115.86C66.3296 115.855 64.5303 115.449 62.8824 114.67C62.4924 114.48 62.3724 114.31 62.5424 113.87C62.9524 112.81 63.3124 111.73 63.6524 110.65C63.7824 110.25 63.9224 110.21 64.2924 110.38C65.7475 111.126 67.368 111.491 69.0023 111.44C69.4525 111.464 69.8988 111.346 70.2777 111.102C70.6566 110.858 70.9487 110.5 71.1123 110.08C71.2468 109.71 71.2691 109.309 71.1766 108.927C71.0841 108.544 70.8809 108.198 70.5923 107.93C70.0976 107.445 69.535 107.034 68.9223 106.71C67.548 105.993 66.386 104.927 65.5524 103.62C64.9178 102.336 64.7534 100.871 65.0878 99.4787C65.4221 98.0865 66.2341 96.8555 67.3823 96.0001C69.1743 94.6283 71.387 93.9214 73.6423 94.0001C75.1263 93.9642 76.6042 94.2015 78.0023 94.7001C78.4623 94.8801 78.6723 95.0701 78.4523 95.6301C78.0523 96.6301 77.7423 97.7401 77.4523 98.8001C77.3423 99.1601 77.2123 99.2201 76.8623 99.0901C75.5275 98.5035 74.0514 98.3159 72.6123 98.5501C72.2115 98.5895 71.8319 98.749 71.5232 99.0077C71.2145 99.2664 70.9912 99.6123 70.8823 100C70.7911 100.384 70.8277 100.787 70.9865 101.148C71.1454 101.509 71.4178 101.808 71.7623 102C72.6023 102.59 73.5123 103.08 74.3423 103.67C75.1121 104.119 75.7776 104.727 76.2948 105.453C76.812 106.178 77.1691 107.006 77.3423 107.88C77.5121 109.298 77.2255 110.734 76.5242 111.978C75.823 113.222 74.7434 114.211 73.4423 114.8C71.7762 115.531 69.9715 115.893 68.1523 115.86Z" fill="#9E22E9"/>
<path d="M144.761 115.459C143.911 115.459 143.061 115.459 142.211 115.459C141.861 115.459 141.821 115.369 141.881 115.039C143.174 108.373 144.448 101.679 145.701 94.9595C145.771 94.5895 145.891 94.4795 146.251 94.4795H151.251C151.641 94.4795 151.731 94.5495 151.651 94.9595C150.704 99.8195 149.771 104.676 148.851 109.529C148.511 111.299 148.161 113.069 147.851 114.839C147.761 115.329 147.581 115.499 147.081 115.469C146.321 115.419 145.541 115.459 144.761 115.459Z" fill="#9E22E9"/>
<path d="M150.123 85.5305C150.509 85.5121 150.896 85.5744 151.257 85.7134C151.618 85.8524 151.946 86.065 152.221 86.3378C152.496 86.6105 152.711 86.9374 152.852 87.2977C152.993 87.658 153.058 88.0438 153.043 88.4305C153.063 88.895 152.986 89.3586 152.816 89.7914C152.646 90.2243 152.388 90.6168 152.057 90.9437C151.726 91.2705 151.331 91.5246 150.896 91.6893C150.461 91.8541 149.997 91.9261 149.533 91.9005C149.15 91.9183 148.768 91.8549 148.411 91.7147C148.054 91.5744 147.731 91.3604 147.463 91.0865C147.195 90.8127 146.988 90.4854 146.855 90.1259C146.722 89.7664 146.667 89.3829 146.693 89.0005C146.678 88.5441 146.756 88.0895 146.922 87.6643C147.089 87.2392 147.34 86.8524 147.661 86.5277C147.982 86.2029 148.366 85.947 148.789 85.7756C149.212 85.6041 149.666 85.5207 150.123 85.5305Z" fill="#9E22E9"/>
<path d="M26.3572 116.439C24.013 116.468 21.7384 115.643 19.9572 114.119C19.7414 113.993 19.5806 113.79 19.5065 113.552C19.4325 113.313 19.4506 113.055 19.5572 112.829C19.9063 111.866 20.2001 110.885 20.4372 109.889C20.5672 109.409 20.7072 109.379 21.0972 109.659C21.916 110.282 22.8181 110.787 23.7772 111.159C24.1953 111.309 24.6334 111.397 25.0772 111.419C25.3937 111.45 25.7129 111.401 26.0059 111.278C26.2989 111.154 26.5564 110.959 26.7551 110.711C26.9537 110.463 27.0872 110.169 27.1435 109.856C27.1997 109.543 27.177 109.221 27.0772 108.919C26.9477 108.395 26.6699 107.919 26.2772 107.549C25.7072 107.019 25.1272 106.489 24.5172 106.009C21.5172 103.679 21.1472 100.679 22.3972 97.4288C23.7372 93.9388 26.5072 92.3288 30.0672 91.8488C31.6003 91.6427 33.1595 91.7551 34.6472 92.1788C35.1972 92.3288 35.4472 92.5288 35.1972 93.1788C34.6772 94.5288 34.2472 95.9188 33.8172 97.2988C33.6372 97.8788 33.3972 97.9688 32.8172 97.7288C31.5241 97.1525 30.0814 97.0019 28.6972 97.2988C28.2548 97.3687 27.8446 97.5733 27.5225 97.8846C27.2005 98.196 26.9821 98.599 26.8972 99.0388C26.8329 99.4432 26.8944 99.8577 27.0732 100.226C27.2521 100.594 27.5397 100.899 27.8972 101.099C28.8972 101.879 29.8972 102.619 30.8272 103.419C33.6272 105.759 34.0072 108.989 32.8272 112.159C32.3632 113.48 31.4799 114.614 30.3118 115.387C29.1436 116.159 27.7549 116.529 26.3572 116.439Z" fill="#E1B0FF"/>
<path d="M141.252 98.5892C141.094 97.4673 140.577 96.4267 139.779 95.6229C138.98 94.819 137.943 94.295 136.822 94.1292C133.902 93.6092 131.652 94.8092 129.822 96.9192C129.662 97.0992 129.572 97.3492 129.292 97.4392C129.392 96.5392 129.462 95.6492 129.572 94.7792C129.572 94.4292 129.512 94.3592 129.192 94.3592C127.742 94.3592 126.292 94.3592 124.842 94.3592C124.442 94.3592 124.352 94.4992 124.312 94.8492C123.812 99.2792 122.912 103.649 122.082 108.029C121.082 113.149 120.152 118.279 119.162 123.399C119.092 123.809 119.162 123.889 119.562 123.879C121.152 123.879 122.732 123.879 124.322 123.879C124.832 123.879 125.042 123.759 125.132 123.209C125.572 120.659 126.072 118.129 126.542 115.589C126.592 115.349 126.542 115.029 127.002 115.219C128.519 115.878 130.193 116.09 131.827 115.829C133.46 115.569 134.985 114.847 136.222 113.749C140.912 109.789 142.382 104.539 141.252 98.5892ZM133.462 108.999C133.041 109.685 132.487 110.28 131.832 110.749C131.252 111.168 130.557 111.398 129.842 111.409C129.126 111.42 128.425 111.21 127.832 110.809C127.642 110.679 127.452 110.589 127.522 110.289C128.042 107.929 128.222 105.489 128.962 103.169C129.301 102.058 129.878 101.035 130.652 100.169C130.942 99.8496 131.279 99.5765 131.652 99.3592C131.986 99.098 132.386 98.933 132.807 98.882C133.228 98.8311 133.655 98.8961 134.042 99.07C134.429 99.2439 134.761 99.5201 135.002 99.8689C135.244 100.218 135.386 100.626 135.412 101.049C135.492 101.469 135.502 101.889 135.532 102.199C135.451 104.608 134.737 106.953 133.462 108.999Z" fill="#9E22E9"/>
<path d="M120.369 101C120.263 99.3446 119.605 97.7732 118.498 96.538C117.392 95.3028 115.902 94.4757 114.269 94.1895C112.617 93.8635 110.911 93.9424 109.297 94.4196C107.682 94.8967 106.208 95.758 104.999 96.9295C103.396 98.4352 102.171 100.297 101.422 102.365C100.673 104.432 100.422 106.647 100.689 108.83C100.754 110.486 101.385 112.069 102.477 113.316C103.569 114.563 105.056 115.397 106.689 115.68C108.445 116.054 110.269 115.968 111.982 115.43C113.696 114.892 115.241 113.921 116.469 112.61C119.109 109.93 120.199 106.61 120.419 102.61C120.438 102.072 120.421 101.534 120.369 101ZM114.369 102.49C114.3 104.732 113.725 106.93 112.689 108.92C112.279 109.736 111.658 110.427 110.889 110.92C110.567 111.134 110.201 111.274 109.818 111.328C109.435 111.382 109.044 111.349 108.676 111.232C108.307 111.115 107.969 110.917 107.688 110.651C107.406 110.386 107.188 110.061 107.049 109.7C106.588 108.417 106.498 107.031 106.789 105.7C106.997 103.97 107.559 102.303 108.439 100.8C108.739 100.273 109.124 99.8003 109.579 99.3995C109.969 99.0227 110.457 98.7637 110.988 98.6522C111.519 98.5408 112.07 98.5814 112.579 98.7695C113.053 98.975 113.46 99.3083 113.755 99.7322C114.05 100.156 114.221 100.654 114.249 101.17C114.356 101.594 114.407 102.031 114.399 102.47L114.369 102.49Z" fill="#9E22E9"/>
</svg>
