<svg width="200" height="200" viewBox="0 0 200 200" fill="none" xmlns="http://www.w3.org/2000/svg">
<path d="M56.6889 10H143.307C148.706 11.6432 153.048 14.3426 156.335 18.0984L195.77 86.4068C198.681 90.0687 200.089 95.2329 199.996 101.899C198.963 102.51 198.728 103.918 199.291 106.125L196.475 112.463L159.856 176.546L153.87 184.644L143.307 190.278H56.6889C51.29 188.635 46.9473 185.935 43.661 182.179L3.52105 112.463L0.70421 106.125L0 98.3783L1.40842 92.0404L4.22526 86.4068L40.14 23.7321L46.1257 15.6337L56.6889 10ZM97.181 39.5768L95.7725 40.281L91.5473 45.2105V100.139L92.2515 101.547L97.8852 105.068C101.171 105.538 103.519 105.068 104.927 103.66L107.744 99.4347V45.2105L107.04 43.8021C105.631 40.0463 102.345 38.6379 97.181 39.5768ZM70.421 50.14L61.9705 55.7736C56.8063 60.4684 52.581 66.3368 49.2947 73.3789L45.7736 83.2378L45.0694 90.9841L44.3652 91.6883V102.251L45.0694 102.956L45.7736 110.702C47.6515 118.683 50.9378 125.49 55.6326 131.124C64.0831 142.391 76.7589 149.434 93.6599 152.25H106.336L114.082 150.842C121.594 148.495 128.166 145.208 133.8 140.983C139.903 136.288 144.832 130.42 148.588 123.378L152.814 112.815L154.926 101.547V92.3926L152.814 81.1252C150.466 73.6136 147.18 67.2757 142.955 62.1115L133.8 52.2526L129.575 50.14L124.645 50.8442L120.42 56.4779C119.95 59.2947 120.42 61.4073 121.828 62.8157L123.941 63.5199C132.391 70.0926 137.79 79.9515 140.138 93.0968V100.843L138.729 107.885L131.687 121.969C125.584 129.95 116.429 135.115 104.223 137.462H95.7725L88.7304 136.054L76.0547 129.716C67.1347 123.613 61.501 114.223 59.1536 101.547V92.3926L62.6747 79.7168C66.4305 71.7357 71.5947 65.6326 78.1673 61.4073V55.0694L76.7589 52.2526C75.3505 50.8442 73.2378 50.14 70.421 50.14Z" fill="#9E22E9"/>
</svg>
