<svg width="200" height="200" viewBox="0 0 200 200" fill="none" xmlns="http://www.w3.org/2000/svg">
<circle cx="100" cy="100" r="99.5" stroke="#9E22E9"/>
<path fill-rule="evenodd" clip-rule="evenodd" d="M88.3333 0.666667C87.934 1.22067 87.4703 1.33333 85.593 1.33333C84.3087 1.33333 83.3333 1.47733 83.3333 1.66667C83.3333 1.85 82.5833 2 81.6667 2C80.75 2 80 2.15 80 2.33333C80 2.51667 79.25 2.66667 78.3333 2.66667C77.4167 2.66667 76.6667 2.81667 76.6667 3C76.6667 3.18333 76.2167 3.33333 75.6667 3.33333C75.1167 3.33333 74.6667 3.48333 74.6667 3.66667C74.6667 3.85 74.0667 4 73.3333 4C72.6 4 72 4.15 72 4.33333C72 4.51667 71.4 4.66667 70.6667 4.66667C69.9333 4.66667 69.3333 4.81667 69.3333 5C69.3333 5.18333 68.8833 5.33333 68.3333 5.33333C67.7833 5.33333 67.3333 5.48333 67.3333 5.66667C67.3333 5.85 67.0333 6 66.6667 6C66.3 6 66 6.15 66 6.33333C66 6.51667 65.55 6.66667 65 6.66667C64.45 6.66667 64 6.81667 64 7C64 7.18333 63.7 7.33333 63.3333 7.33333C62.9667 7.33333 62.6667 7.48333 62.6667 7.66667C62.6667 7.85 62.2167 8 61.6667 8C61.1167 8 60.6667 8.15 60.6667 8.33333C60.6667 8.51667 60.3667 8.66667 60 8.66667C59.6333 8.66667 59.3333 8.81667 59.3333 9C59.3333 9.18333 59.0333 9.33333 58.6667 9.33333C58.3 9.33333 58 9.48333 58 9.66667C58 9.85 57.7 10 57.3333 10C56.9667 10 56.6667 10.15 56.6667 10.3333C56.6667 10.5167 56.2497 10.6667 55.7403 10.6667C55.1963 10.6667 54.6157 10.942 54.3333 11.3333C54.069 11.7 53.586 12 53.2597 12C52.9337 12 52.6667 12.15 52.6667 12.3333C52.6667 12.5167 52.3667 12.6667 52 12.6667C51.6333 12.6667 51.3333 12.8167 51.3333 13C51.3333 13.1833 51.0663 13.3333 50.7403 13.3333C50.414 13.3333 49.931 13.6333 49.6667 14C49.4023 14.3667 48.9193 14.6667 48.593 14.6667C48.267 14.6667 48 14.8167 48 15C48 15.1833 47.733 15.3333 47.407 15.3333C47.0807 15.3333 46.5977 15.6333 46.3333 16C46.069 16.3667 45.619 16.6667 45.3333 16.6667C45.0477 16.6667 44.5977 16.9667 44.3333 17.3333C44.069 17.7 43.646 18 43.3933 18C43.141 18 42.5137 18.45 42 19C41.4863 19.55 40.8863 20 40.6667 20C40.447 20 39.847 20.45 39.3333 21C38.8197 21.55 38.2247 22 38.0113 22C37.798 22 36.893 22.75 36 23.6667C35.107 24.5833 34.2153 25.3333 34.0183 25.3333C33.5477 25.3333 25.3333 33.552 25.3333 34.023C25.3333 34.2223 24.7333 34.962 24 35.6667C23.2667 36.3713 22.6667 37.1213 22.6667 37.3333C22.6667 37.5453 22.0667 38.2953 21.3333 39C20.6 39.7047 20 40.4577 20 40.6733C20 40.8893 19.55 41.4863 19 42C18.45 42.5137 18 43.141 18 43.3933C18 43.646 17.7 44.069 17.3333 44.3333C16.9667 44.5977 16.6667 45.0477 16.6667 45.3333C16.6667 45.619 16.3667 46.069 16 46.3333C15.6333 46.5977 15.3333 47.0807 15.3333 47.407C15.3333 47.733 15.1833 48 15 48C14.8167 48 14.6667 48.267 14.6667 48.593C14.6667 48.9193 14.3667 49.4023 14 49.6667C13.6333 49.931 13.3333 50.414 13.3333 50.7403C13.3333 51.0663 13.1833 51.3333 13 51.3333C12.8167 51.3333 12.6667 51.6333 12.6667 52C12.6667 52.3667 12.5167 52.6667 12.3333 52.6667C12.15 52.6667 12 52.9667 12 53.3333C12 53.7 11.85 54 11.6667 54C11.4833 54 11.3333 54.3 11.3333 54.6667C11.3333 55.0333 11.1833 55.3333 11 55.3333C10.8167 55.3333 10.6667 55.6333 10.6667 56C10.6667 56.3667 10.5167 56.6667 10.3333 56.6667C10.15 56.6667 10 56.9667 10 57.3333C10 57.7 9.85 58 9.66667 58C9.48333 58 9.33333 58.3 9.33333 58.6667C9.33333 59.0333 9.18333 59.3333 9 59.3333C8.81667 59.3333 8.66667 59.6333 8.66667 60C8.66667 60.3667 8.51667 60.6667 8.33333 60.6667C8.15 60.6667 8 61.1167 8 61.6667C8 62.2167 7.85 62.6667 7.66667 62.6667C7.48333 62.6667 7.33333 62.9667 7.33333 63.3333C7.33333 63.7 7.18333 64 7 64C6.81667 64 6.66667 64.45 6.66667 65C6.66667 65.55 6.51667 66 6.33333 66C6.15 66 6 66.3 6 66.6667C6 67.0333 5.85 67.3333 5.66667 67.3333C5.48333 67.3333 5.33333 67.7833 5.33333 68.3333C5.33333 68.8833 5.18333 69.3333 5 69.3333C4.81667 69.3333 4.66667 69.9333 4.66667 70.6667C4.66667 71.4 4.51667 72 4.33333 72C4.15 72 4 72.6 4 73.3333C4 74.0667 3.85 74.6667 3.66667 74.6667C3.48333 74.6667 3.33333 75.1167 3.33333 75.6667C3.33333 76.2167 3.18333 76.6667 3 76.6667C2.81667 76.6667 2.66667 77.4167 2.66667 78.3333C2.66667 79.25 2.51667 80 2.33333 80C2.15 80 2 80.75 2 81.6667C2 82.5833 1.85 83.3333 1.66667 83.3333C1.47233 83.3333 1.33333 84.4443 1.33333 86C1.33333 88.4443 1.27767 88.6667 0.666667 88.6667C0.013 88.6667 0 88.889 0 99.9263C0 110.804 0.0226667 111.202 0.666667 111.667C1.22067 112.066 1.33333 112.53 1.33333 114.407C1.33333 115.691 1.47733 116.667 1.66667 116.667C1.85 116.667 2 117.417 2 118.333C2 119.25 2.15 120 2.33333 120C2.51667 120 2.66667 120.75 2.66667 121.667C2.66667 122.583 2.81667 123.333 3 123.333C3.18333 123.333 3.33333 123.933 3.33333 124.667C3.33333 125.4 3.48333 126 3.66667 126C3.85 126 4 126.45 4 127C4 127.55 4.15 128 4.33333 128C4.51667 128 4.66667 128.6 4.66667 129.333C4.66667 130.067 4.81667 130.667 5 130.667C5.18333 130.667 5.33333 131.117 5.33333 131.667C5.33333 132.217 5.48333 132.667 5.66667 132.667C5.85 132.667 6 132.967 6 133.333C6 133.7 6.15 134 6.33333 134C6.51667 134 6.66667 134.45 6.66667 135C6.66667 135.55 6.81667 136 7 136C7.18333 136 7.33333 136.3 7.33333 136.667C7.33333 137.033 7.48333 137.333 7.66667 137.333C7.85 137.333 8 137.783 8 138.333C8 138.883 8.15 139.333 8.33333 139.333C8.51667 139.333 8.66667 139.633 8.66667 140C8.66667 140.367 8.81667 140.667 9 140.667C9.18333 140.667 9.33333 141.117 9.33333 141.667C9.33333 142.217 9.48333 142.667 9.66667 142.667C9.85 142.667 10 142.967 10 143.333C10 143.7 10.15 144 10.3333 144C10.5167 144 10.6667 144.267 10.6667 144.593C10.6667 144.919 10.9667 145.402 11.3333 145.667C11.7 145.931 12 146.414 12 146.74C12 147.066 12.15 147.333 12.3333 147.333C12.5167 147.333 12.6667 147.633 12.6667 148C12.6667 148.367 12.8167 148.667 13 148.667C13.1833 148.667 13.3333 148.967 13.3333 149.333C13.3333 149.7 13.4833 150 13.6667 150C13.85 150 14 150.267 14 150.593C14 150.919 14.3 151.402 14.6667 151.667C15.0333 151.931 15.3333 152.414 15.3333 152.74C15.3333 153.066 15.4833 153.333 15.6667 153.333C15.85 153.333 16 153.573 16 153.866C16 154.159 16.45 154.82 17 155.333C17.55 155.847 18 156.474 18 156.727C18 156.979 18.3 157.402 18.6667 157.667C19.0333 157.931 19.3333 158.351 19.3333 158.6C19.3333 158.849 19.9333 159.629 20.6667 160.333C21.4 161.038 22 161.788 22 162C22 162.212 22.6 162.962 23.3333 163.667C24.0667 164.371 24.6667 165.111 24.6667 165.31C24.6667 165.783 34.884 176 35.3567 176C35.556 176 36.2953 176.6 37 177.333C37.7047 178.067 38.4577 178.667 38.6733 178.667C38.8893 178.667 39.4863 179.117 40 179.667C40.5137 180.217 41.1137 180.667 41.3333 180.667C41.553 180.667 42.153 181.117 42.6667 181.667C43.1803 182.217 43.8077 182.667 44.06 182.667C44.3127 182.667 44.7357 182.967 45 183.333C45.2643 183.7 45.7473 184 46.0737 184C46.3997 184 46.6667 184.15 46.6667 184.333C46.6667 184.517 46.9337 184.667 47.2597 184.667C47.586 184.667 48.069 184.967 48.3333 185.333C48.5977 185.7 49.0807 186 49.407 186C49.733 186 50 186.15 50 186.333C50 186.517 50.3 186.667 50.6667 186.667C51.0333 186.667 51.3333 186.817 51.3333 187C51.3333 187.183 51.6003 187.333 51.9263 187.333C52.2527 187.333 52.7357 187.633 53 188C53.265 188.368 53.863 188.667 54.3333 188.667C54.8037 188.667 55.4017 188.966 55.6667 189.333C55.931 189.7 56.414 190 56.7403 190C57.0663 190 57.3333 190.15 57.3333 190.333C57.3333 190.517 57.6333 190.667 58 190.667C58.3667 190.667 58.6667 190.817 58.6667 191C58.6667 191.183 59.1167 191.333 59.6667 191.333C60.2167 191.333 60.6667 191.483 60.6667 191.667C60.6667 191.85 60.9667 192 61.3333 192C61.7 192 62 192.15 62 192.333C62 192.517 62.45 192.667 63 192.667C63.55 192.667 64 192.817 64 193C64 193.183 64.3 193.333 64.6667 193.333C65.0333 193.333 65.3333 193.483 65.3333 193.667C65.3333 193.85 65.7833 194 66.3333 194C66.8833 194 67.3333 194.15 67.3333 194.333C67.3333 194.517 67.7833 194.667 68.3333 194.667C68.8833 194.667 69.3333 194.817 69.3333 195C69.3333 195.183 69.7833 195.333 70.3333 195.333C70.8833 195.333 71.3333 195.483 71.3333 195.667C71.3333 195.85 71.9333 196 72.6667 196C73.4 196 74 196.15 74 196.333C74 196.517 74.6 196.667 75.3333 196.667C76.0667 196.667 76.6667 196.817 76.6667 197C76.6667 197.183 77.2667 197.333 78 197.333C78.7333 197.333 79.3333 197.483 79.3333 197.667C79.3333 197.85 80.0833 198 81 198C81.9167 198 82.6667 198.15 82.6667 198.333C82.6667 198.527 83.7533 198.667 85.2597 198.667C87.4703 198.667 87.9237 198.765 88.3333 199.333C88.797 199.977 89.1963 200 99.7403 200C106.802 200 110.667 199.882 110.667 199.667C110.667 199.483 110.967 199.333 111.333 199.333C111.7 199.333 112 199.183 112 199C112 198.806 113.111 198.667 114.667 198.667C116.222 198.667 117.333 198.528 117.333 198.333C117.333 198.15 118.083 198 119 198C119.917 198 120.667 197.85 120.667 197.667C120.667 197.483 121.417 197.333 122.333 197.333C123.25 197.333 124 197.183 124 197C124 196.817 124.6 196.667 125.333 196.667C126.067 196.667 126.667 196.517 126.667 196.333C126.667 196.15 127.117 196 127.667 196C128.217 196 128.667 195.85 128.667 195.667C128.667 195.483 129.267 195.333 130 195.333C130.733 195.333 131.333 195.183 131.333 195C131.333 194.817 131.633 194.667 132 194.667C132.367 194.667 132.667 194.517 132.667 194.333C132.667 194.15 133.117 194 133.667 194C134.217 194 134.667 193.85 134.667 193.667C134.667 193.483 135.117 193.333 135.667 193.333C136.217 193.333 136.667 193.183 136.667 193C136.667 192.817 136.967 192.667 137.333 192.667C137.7 192.667 138 192.517 138 192.333C138 192.15 138.45 192 139 192C139.55 192 140 191.85 140 191.667C140 191.483 140.3 191.333 140.667 191.333C141.033 191.333 141.333 191.183 141.333 191C141.333 190.817 141.633 190.667 142 190.667C142.367 190.667 142.667 190.517 142.667 190.333C142.667 190.15 142.967 190 143.333 190C143.7 190 144 189.85 144 189.667C144 189.483 144.3 189.333 144.667 189.333C145.033 189.333 145.333 189.183 145.333 189C145.333 188.817 145.633 188.667 146 188.667C146.367 188.667 146.667 188.517 146.667 188.333C146.667 188.15 146.967 188 147.333 188C147.7 188 148 187.85 148 187.667C148 187.483 148.3 187.333 148.667 187.333C149.033 187.333 149.333 187.183 149.333 187C149.333 186.817 149.6 186.667 149.926 186.667C150.253 186.667 150.736 186.367 151 186C151.264 185.633 151.714 185.333 152 185.333C152.286 185.333 152.736 185.033 153 184.667C153.264 184.3 153.714 184 154 184C154.286 184 154.736 183.7 155 183.333C155.264 182.967 155.714 182.667 156 182.667C156.286 182.667 156.736 182.367 157 182C157.264 181.633 157.687 181.333 157.94 181.333C158.192 181.333 158.82 180.883 159.333 180.333C159.847 179.783 160.444 179.333 160.66 179.333C160.876 179.333 161.629 178.733 162.333 178C163.038 177.267 163.777 176.667 163.976 176.667C164.446 176.667 176 165.117 176 164.647C176 164.451 176.75 163.56 177.667 162.667C178.583 161.774 179.333 160.869 179.333 160.655C179.333 160.442 179.783 159.847 180.333 159.333C180.883 158.82 181.333 158.192 181.333 157.94C181.333 157.687 181.633 157.264 182 157C182.367 156.736 182.667 156.286 182.667 156C182.667 155.714 182.967 155.264 183.333 155C183.7 154.736 184 154.286 184 154C184 153.714 184.3 153.264 184.667 153C185.033 152.736 185.333 152.253 185.333 151.926C185.333 151.6 185.483 151.333 185.667 151.333C185.85 151.333 186 151.066 186 150.74C186 150.414 186.3 149.931 186.667 149.667C187.033 149.402 187.333 148.919 187.333 148.593C187.333 148.267 187.483 148 187.667 148C187.85 148 188 147.7 188 147.333C188 146.967 188.15 146.667 188.333 146.667C188.517 146.667 188.667 146.367 188.667 146C188.667 145.633 188.817 145.333 189 145.333C189.183 145.333 189.333 145.033 189.333 144.667C189.333 144.3 189.483 144 189.667 144C189.85 144 190 143.7 190 143.333C190 142.967 190.15 142.667 190.333 142.667C190.517 142.667 190.667 142.367 190.667 142C190.667 141.633 190.817 141.333 191 141.333C191.183 141.333 191.333 141.033 191.333 140.667C191.333 140.3 191.483 140 191.667 140C191.85 140 192 139.55 192 139C192 138.45 192.15 138 192.333 138C192.517 138 192.667 137.7 192.667 137.333C192.667 136.967 192.817 136.667 193 136.667C193.183 136.667 193.333 136.217 193.333 135.667C193.333 135.117 193.483 134.667 193.667 134.667C193.85 134.667 194 134.217 194 133.667C194 133.117 194.15 132.667 194.333 132.667C194.517 132.667 194.667 132.217 194.667 131.667C194.667 131.117 194.817 130.667 195 130.667C195.183 130.667 195.333 130.217 195.333 129.667C195.333 129.117 195.483 128.667 195.667 128.667C195.85 128.667 196 128.217 196 127.667C196 127.117 196.15 126.667 196.333 126.667C196.517 126.667 196.667 126.067 196.667 125.333C196.667 124.6 196.817 124 197 124C197.183 124 197.333 123.25 197.333 122.333C197.333 121.417 197.483 120.667 197.667 120.667C197.85 120.667 198 119.917 198 119C198 118.083 198.15 117.333 198.333 117.333C198.527 117.333 198.667 116.247 198.667 114.74C198.667 112.53 198.765 112.076 199.333 111.667C199.977 111.203 200 110.804 200 100C200 89.1963 199.977 88.7973 199.333 88.3333C198.765 87.9237 198.667 87.4703 198.667 85.2597C198.667 83.7533 198.527 82.6667 198.333 82.6667C198.15 82.6667 198 81.9167 198 81C198 80.0833 197.85 79.3333 197.667 79.3333C197.483 79.3333 197.333 78.7333 197.333 78C197.333 77.2667 197.183 76.6667 197 76.6667C196.817 76.6667 196.667 76.0667 196.667 75.3333C196.667 74.6 196.517 74 196.333 74C196.15 74 196 73.4 196 72.6667C196 71.9333 195.85 71.3333 195.667 71.3333C195.483 71.3333 195.333 70.8833 195.333 70.3333C195.333 69.7833 195.183 69.3333 195 69.3333C194.817 69.3333 194.667 68.8833 194.667 68.3333C194.667 67.7833 194.517 67.3333 194.333 67.3333C194.15 67.3333 194 66.8833 194 66.3333C194 65.7833 193.85 65.3333 193.667 65.3333C193.483 65.3333 193.333 65.0333 193.333 64.6667C193.333 64.3 193.183 64 193 64C192.817 64 192.667 63.55 192.667 63C192.667 62.45 192.517 62 192.333 62C192.15 62 192 61.7 192 61.3333C192 60.9667 191.85 60.6667 191.667 60.6667C191.483 60.6667 191.333 60.2167 191.333 59.6667C191.333 59.1167 191.183 58.6667 191 58.6667C190.817 58.6667 190.667 58.3667 190.667 58C190.667 57.6333 190.517 57.3333 190.333 57.3333C190.15 57.3333 190 57.0333 190 56.6667C190 56.3 189.85 56 189.667 56C189.483 56 189.333 55.7 189.333 55.3333C189.333 54.9667 189.183 54.6667 189 54.6667C188.817 54.6667 188.667 54.3997 188.667 54.0737C188.667 53.7473 188.367 53.2643 188 53C187.633 52.7357 187.333 52.2527 187.333 51.9263C187.333 51.6003 187.183 51.3333 187 51.3333C186.817 51.3333 186.667 51.0333 186.667 50.6667C186.667 50.3 186.517 50 186.333 50C186.15 50 186 49.733 186 49.407C186 49.0807 185.7 48.5977 185.333 48.3333C184.967 48.069 184.667 47.586 184.667 47.2597C184.667 46.9337 184.517 46.6667 184.333 46.6667C184.15 46.6667 184 46.3997 184 46.0737C184 45.7473 183.7 45.2643 183.333 45C182.967 44.7357 182.667 44.316 182.667 44.067C182.667 43.818 182.067 43.038 181.333 42.3333C180.6 41.6287 180 40.8757 180 40.66C180 40.444 179.55 39.847 179 39.3333C178.45 38.8197 178 38.2197 178 38C178 37.7803 177.55 37.1803 177 36.6667C176.45 36.153 176 35.5663 176 35.3633C176 34.7983 166.409 25.3333 165.836 25.3333C165.556 25.3333 165.333 25.0387 165.333 24.6667C165.333 24.2817 165.111 24 164.807 24C164.518 24 163.705 23.4 163 22.6667C162.295 21.9333 161.542 21.3333 161.327 21.3333C161.111 21.3333 160.514 20.8833 160 20.3333C159.486 19.7833 158.859 19.3333 158.607 19.3333C158.354 19.3333 157.931 19.0333 157.667 18.6667C157.402 18.3 156.979 18 156.727 18C156.474 18 155.847 17.55 155.333 17C154.82 16.45 154.159 16 153.866 16C153.573 16 153.333 15.85 153.333 15.6667C153.333 15.4833 153.033 15.3333 152.667 15.3333C152.3 15.3333 152 15.1833 152 15C152 14.8167 151.733 14.6667 151.407 14.6667C151.081 14.6667 150.598 14.3667 150.333 14C150.069 13.6333 149.586 13.3333 149.26 13.3333C148.934 13.3333 148.667 13.1833 148.667 13C148.667 12.8167 148.367 12.6667 148 12.6667C147.633 12.6667 147.333 12.5167 147.333 12.3333C147.333 12.15 147.066 12 146.74 12C146.414 12 145.931 11.7 145.667 11.3333C145.384 10.942 144.804 10.6667 144.26 10.6667C143.75 10.6667 143.333 10.5167 143.333 10.3333C143.333 10.15 143.033 10 142.667 10C142.3 10 142 9.85 142 9.66667C142 9.48333 141.7 9.33333 141.333 9.33333C140.967 9.33333 140.667 9.18333 140.667 9C140.667 8.81667 140.367 8.66667 140 8.66667C139.633 8.66667 139.333 8.51667 139.333 8.33333C139.333 8.15 138.883 8 138.333 8C137.783 8 137.333 7.85 137.333 7.66667C137.333 7.48333 137.033 7.33333 136.667 7.33333C136.3 7.33333 136 7.18333 136 7C136 6.81667 135.7 6.66667 135.333 6.66667C134.967 6.66667 134.667 6.51667 134.667 6.33333C134.667 6.15 134.217 6 133.667 6C133.117 6 132.667 5.85 132.667 5.66667C132.667 5.48333 132.217 5.33333 131.667 5.33333C131.117 5.33333 130.667 5.18333 130.667 5C130.667 4.81667 130.067 4.66667 129.333 4.66667C128.6 4.66667 128 4.51667 128 4.33333C128 4.15 127.55 4 127 4C126.45 4 126 3.85 126 3.66667C126 3.48333 125.25 3.33333 124.333 3.33333C123.417 3.33333 122.667 3.18333 122.667 3C122.667 2.81667 122.067 2.66667 121.333 2.66667C120.6 2.66667 120 2.51667 120 2.33333C120 2.15 119.25 2 118.333 2C117.417 2 116.667 1.85 116.667 1.66667C116.667 1.47733 115.691 1.33333 114.407 1.33333C112.53 1.33333 112.066 1.22067 111.667 0.666667C111.203 0.0226667 110.804 0 100 0C89.1963 0 88.7973 0.0226667 88.3333 0.666667ZM130 45.6667V52H128C126.889 52 126 52.148 126 52.3333C126 52.5277 124.889 52.6667 123.333 52.6667C121.778 52.6667 120.667 52.8057 120.667 53C120.667 53.1833 119.917 53.3333 119 53.3333C118.083 53.3333 117.333 53.4833 117.333 53.6667C117.333 53.85 116.883 54 116.333 54C115.783 54 115.333 54.15 115.333 54.3333C115.333 54.5167 114.883 54.6667 114.333 54.6667C113.783 54.6667 113.333 54.8167 113.333 55C113.333 55.1833 113.033 55.3333 112.667 55.3333C112.3 55.3333 112 55.4833 112 55.6667C112 55.85 111.7 56 111.333 56C110.967 56 110.667 56.15 110.667 56.3333C110.667 56.5167 110.25 56.6667 109.74 56.6667C109.196 56.6667 108.616 56.942 108.333 57.3333C108.069 57.7 107.586 58 107.26 58C106.934 58 106.667 58.15 106.667 58.3333C106.667 58.5167 106.367 58.6667 106 58.6667C105.633 58.6667 105.333 58.8167 105.333 59C105.333 59.1833 105.066 59.3333 104.74 59.3333C104.414 59.3333 103.931 59.6333 103.667 60C103.402 60.3667 102.979 60.6667 102.727 60.6667C102.474 60.6667 101.847 61.1167 101.333 61.6667C100.82 62.2167 100.233 62.6667 100.029 62.6667C99.546 62.6667 92.6667 69.546 92.6667 70.029C92.6667 70.2327 92.2167 70.8197 91.6667 71.3333C91.1167 71.847 90.6667 72.4743 90.6667 72.7267C90.6667 72.9793 90.3667 73.4023 90 73.6667C89.6333 73.931 89.3333 74.414 89.3333 74.7403C89.3333 75.0663 89.1833 75.3333 89 75.3333C88.8167 75.3333 88.6667 75.6003 88.6667 75.9263C88.6667 76.2527 88.3667 76.7357 88 77C87.6323 77.265 87.3333 77.863 87.3333 78.3333C87.3333 78.8037 87.0343 79.4017 86.6667 79.6667C86.2753 79.949 86 80.5297 86 81.0737C86 81.583 85.85 82 85.6667 82C85.4833 82 85.3333 82.45 85.3333 83C85.3333 83.55 85.1833 84 85 84C84.8167 84 84.6667 84.45 84.6667 85C84.6667 85.55 84.5167 86 84.3333 86C84.15 86 84 86.45 84 87C84 87.55 83.85 88 83.6667 88C83.4833 88 83.3333 88.6 83.3333 89.3333C83.3333 90.0667 83.1833 90.6667 83 90.6667C82.8023 90.6667 82.6667 91.889 82.6667 93.6667C82.6667 95.4443 82.531 96.6667 82.3333 96.6667C82.15 96.6667 82 97.4167 82 98.3333V100H75.6667H69.3333V99C69.3333 98.45 69.4833 98 69.6667 98C69.8687 98 70 96.5557 70 94.3333C70 92.111 70.1313 90.6667 70.3333 90.6667C70.5167 90.6667 70.6667 89.9167 70.6667 89C70.6667 88.0833 70.8167 87.3333 71 87.3333C71.1833 87.3333 71.3333 86.5833 71.3333 85.6667C71.3333 84.75 71.4833 84 71.6667 84C71.85 84 72 83.55 72 83C72 82.45 72.15 82 72.3333 82C72.5167 82 72.6667 81.55 72.6667 81C72.6667 80.45 72.8167 80 73 80C73.1833 80 73.3333 79.55 73.3333 79C73.3333 78.45 73.4833 78 73.6667 78C73.85 78 74 77.7 74 77.3333C74 76.9667 74.15 76.6667 74.3333 76.6667C74.5167 76.6667 74.6667 76.2167 74.6667 75.6667C74.6667 75.1167 74.8167 74.6667 75 74.6667C75.1833 74.6667 75.3333 74.3667 75.3333 74C75.3333 73.6333 75.4833 73.3333 75.6667 73.3333C75.85 73.3333 76 73.0663 76 72.7403C76 72.414 76.3 71.931 76.6667 71.6667C77.0333 71.4023 77.3333 70.9193 77.3333 70.593C77.3333 70.267 77.4833 70 77.6667 70C77.85 70 78 69.7 78 69.3333C78 68.9667 78.15 68.6667 78.3333 68.6667C78.5167 68.6667 78.6667 68.3997 78.6667 68.0737C78.6667 67.7473 78.9667 67.2643 79.3333 67C79.7 66.7357 80 66.3127 80 66.06C80 65.8077 80.45 65.1803 81 64.6667C81.55 64.153 82 63.556 82 63.34C82 63.1243 82.6 62.3713 83.3333 61.6667C84.0667 60.962 84.6667 60.2217 84.6667 60.0213C84.6667 59.542 90.215 54 90.695 54C90.899 54 91.4863 53.55 92 53C92.5137 52.45 93.1137 52 93.3333 52C93.553 52 94.153 51.55 94.6667 51C95.1803 50.45 95.8077 50 96.06 50C96.3127 50 96.7357 49.7 97 49.3333C97.2643 48.9667 97.7473 48.6667 98.0737 48.6667C98.3997 48.6667 98.6667 48.5167 98.6667 48.3333C98.6667 48.15 98.9667 48 99.3333 48C99.7 48 100 47.85 100 47.6667C100 47.4833 100.267 47.3333 100.593 47.3333C100.919 47.3333 101.402 47.0333 101.667 46.6667C101.931 46.3 102.414 46 102.74 46C103.066 46 103.333 45.85 103.333 45.6667C103.333 45.4833 103.783 45.3333 104.333 45.3333C104.883 45.3333 105.333 45.1833 105.333 45C105.333 44.8167 105.633 44.6667 106 44.6667C106.367 44.6667 106.667 44.5167 106.667 44.3333C106.667 44.15 106.967 44 107.333 44C107.7 44 108 43.85 108 43.6667C108 43.4833 108.45 43.3333 109 43.3333C109.55 43.3333 110 43.1833 110 43C110 42.8167 110.45 42.6667 111 42.6667C111.55 42.6667 112 42.5167 112 42.3333C112 42.15 112.45 42 113 42C113.55 42 114 41.85 114 41.6667C114 41.4833 114.6 41.3333 115.333 41.3333C116.067 41.3333 116.667 41.1833 116.667 41C116.667 40.8167 117.417 40.6667 118.333 40.6667C119.25 40.6667 120 40.5167 120 40.3333C120 40.1357 121.222 40 123 40C124.778 40 126 39.8643 126 39.6667C126 39.4813 126.889 39.3333 128 39.3333H130V45.6667ZM129.524 99.8097C130.091 100.377 130.222 106.667 129.667 106.667C129.481 106.667 129.333 107.556 129.333 108.667C129.333 109.778 129.185 110.667 129 110.667C128.817 110.667 128.667 111.417 128.667 112.333C128.667 113.25 128.517 114 128.333 114C128.15 114 128 114.6 128 115.333C128 116.067 127.85 116.667 127.667 116.667C127.483 116.667 127.333 117.117 127.333 117.667C127.333 118.217 127.183 118.667 127 118.667C126.817 118.667 126.667 119.117 126.667 119.667C126.667 120.217 126.517 120.667 126.333 120.667C126.15 120.667 126 121.117 126 121.667C126 122.217 125.85 122.667 125.667 122.667C125.483 122.667 125.333 122.967 125.333 123.333C125.333 123.7 125.183 124 125 124C124.817 124 124.667 124.3 124.667 124.667C124.667 125.033 124.517 125.333 124.333 125.333C124.15 125.333 124 125.75 124 126.26C124 126.804 123.725 127.384 123.333 127.667C122.967 127.931 122.667 128.414 122.667 128.74C122.667 129.066 122.517 129.333 122.333 129.333C122.15 129.333 122 129.633 122 130C122 130.367 121.85 130.667 121.667 130.667C121.483 130.667 121.333 130.906 121.333 131.2C121.333 131.493 120.883 132.153 120.333 132.667C119.783 133.18 119.333 133.808 119.333 134.06C119.333 134.313 119.033 134.736 118.667 135C118.3 135.264 118 135.687 118 135.94C118 136.192 117.55 136.82 117 137.333C116.45 137.847 116 138.434 116 138.638C116 139.203 110.415 144.667 109.838 144.667C109.556 144.667 109.333 144.96 109.333 145.333C109.333 145.718 109.111 146 108.807 146C108.518 146 107.705 146.6 107 147.333C106.295 148.067 105.515 148.667 105.266 148.667C105.017 148.667 104.598 148.967 104.333 149.333C104.069 149.7 103.619 150 103.333 150C103.048 150 102.598 150.3 102.333 150.667C102.069 151.033 101.619 151.333 101.333 151.333C101.048 151.333 100.598 151.633 100.333 152C100.069 152.367 99.586 152.667 99.2597 152.667C98.9337 152.667 98.6667 152.817 98.6667 153C98.6667 153.183 98.3667 153.333 98 153.333C97.6333 153.333 97.3333 153.483 97.3333 153.667C97.3333 153.85 97.0333 154 96.6667 154C96.3 154 96 154.15 96 154.333C96 154.517 95.7 154.667 95.3333 154.667C94.9667 154.667 94.6667 154.817 94.6667 155C94.6667 155.183 94.2167 155.333 93.6667 155.333C93.1167 155.333 92.6667 155.483 92.6667 155.667C92.6667 155.85 92.2167 156 91.6667 156C91.1167 156 90.6667 156.15 90.6667 156.333C90.6667 156.517 90.3667 156.667 90 156.667C89.6333 156.667 89.3333 156.817 89.3333 157C89.3333 157.183 88.8833 157.333 88.3333 157.333C87.7833 157.333 87.3333 157.483 87.3333 157.667C87.3333 157.85 86.8833 158 86.3333 158C85.7833 158 85.3333 158.15 85.3333 158.333C85.3333 158.517 84.5833 158.667 83.6667 158.667C82.75 158.667 82 158.817 82 159C82 159.185 81.111 159.333 80 159.333C78.889 159.333 78 159.481 78 159.667C78 159.872 76.3333 160 73.6667 160H69.3333V154.143C69.3333 149.511 69.433 148.186 69.8097 147.81C70.397 147.222 71.2123 147.193 71.4723 147.75C71.6277 148.083 71.7057 148.083 71.861 147.75C71.9927 147.468 72.9093 147.333 74.6943 147.333C76.2313 147.333 77.3333 147.194 77.3333 147C77.3333 146.815 78.2223 146.667 79.3333 146.667C80.4443 146.667 81.3333 146.519 81.3333 146.333C81.3333 146.15 81.7833 146 82.3333 146C82.8833 146 83.3333 145.85 83.3333 145.667C83.3333 145.483 83.7833 145.333 84.3333 145.333C84.8833 145.333 85.3333 145.183 85.3333 145C85.3333 144.817 85.7833 144.667 86.3333 144.667C86.8833 144.667 87.3333 144.517 87.3333 144.333C87.3333 144.15 87.6333 144 88 144C88.3667 144 88.6667 143.85 88.6667 143.667C88.6667 143.483 89.0837 143.333 89.593 143.333C90.137 143.333 90.7177 143.058 91 142.667C91.265 142.299 91.863 142 92.3333 142C92.8037 142 93.4017 141.701 93.6667 141.333C93.931 140.967 94.381 140.667 94.6667 140.667C94.9523 140.667 95.4023 140.367 95.6667 140C95.931 139.633 96.354 139.333 96.6067 139.333C96.859 139.333 97.4863 138.883 98 138.333C98.5137 137.783 99.1007 137.333 99.304 137.333C99.7867 137.333 107.333 129.787 107.333 129.304C107.333 129.101 107.783 128.514 108.333 128C108.883 127.486 109.333 126.826 109.333 126.533C109.333 126.24 109.483 126 109.667 126C109.85 126 110 125.733 110 125.407C110 125.081 110.3 124.598 110.667 124.333C111.033 124.069 111.333 123.586 111.333 123.26C111.333 122.934 111.483 122.667 111.667 122.667C111.85 122.667 112 122.367 112 122C112 121.633 112.15 121.333 112.333 121.333C112.517 121.333 112.667 121.033 112.667 120.667C112.667 120.3 112.817 120 113 120C113.183 120 113.333 119.7 113.333 119.333C113.333 118.967 113.483 118.667 113.667 118.667C113.85 118.667 114 118.217 114 117.667C114 117.117 114.15 116.667 114.333 116.667C114.517 116.667 114.667 116.367 114.667 116C114.667 115.633 114.817 115.333 115 115.333C115.183 115.333 115.333 114.883 115.333 114.333C115.333 113.783 115.483 113.333 115.667 113.333C115.85 113.333 116 112.583 116 111.667C116 110.75 116.15 110 116.333 110C116.517 110 116.667 109.25 116.667 108.333C116.667 107.417 116.817 106.667 117 106.667C117.2 106.667 117.333 105.333 117.333 103.333V100H123C126.556 100 128.667 99.8757 128.667 99.6667C128.667 99.2013 128.965 99.251 129.524 99.8097Z" fill="#9E22E9"/>
</svg>
