<svg width="200" height="200" viewBox="0 0 200 200" fill="none" xmlns="http://www.w3.org/2000/svg">
<mask id="path-1-inside-1" fill="white">
<path fill-rule="evenodd" clip-rule="evenodd" d="M0 100V200H69.1406C115.104 200 138.281 199.935 138.281 199.805C138.281 199.697 138.018 199.609 137.695 199.609C137.014 199.609 136.951 199.42 137.5 199.023C137.715 198.869 137.891 198.586 137.891 198.394C137.891 197.997 137.576 197.924 137.445 198.291C137.397 198.425 137.288 198.47 137.203 198.39C137.117 198.31 137.259 198.056 137.518 197.827C137.832 197.547 137.907 197.379 137.744 197.321C137.359 197.182 137.46 196.875 137.891 196.875C138.362 196.875 138.381 196.751 137.971 196.341C137.711 196.081 137.633 196.075 137.493 196.301C137.401 196.449 137.263 196.508 137.186 196.431C137.11 196.354 137.259 196.103 137.518 195.873C137.832 195.594 137.907 195.426 137.744 195.368C137.428 195.254 137.428 194.597 137.744 194.45C137.939 194.359 137.939 194.313 137.744 194.222C137.365 194.045 137.456 193.75 137.891 193.75C138.105 193.75 138.281 193.662 138.281 193.555C138.281 193.447 138.105 193.359 137.891 193.359C137.676 193.359 137.5 193.271 137.5 193.164C137.5 193.057 137.676 192.969 137.891 192.969C138.39 192.969 138.384 192.811 137.869 192.364C137.499 192.043 137.487 191.977 137.758 191.707C137.923 191.541 138.196 191.406 138.365 191.406C138.534 191.406 138.672 191.318 138.672 191.211C138.672 191.104 138.584 191.016 138.477 191.016C138.186 191.016 138.232 189.115 138.525 188.996C138.709 188.921 138.697 188.845 138.477 188.687C138.216 188.5 138.216 188.453 138.477 188.266C138.697 188.108 138.709 188.032 138.525 187.957C138.143 187.802 138.239 187.5 138.672 187.5C138.976 187.5 139.062 187.37 139.062 186.914C139.062 186.592 138.975 186.328 138.867 186.328C138.76 186.328 138.672 186.24 138.672 186.133C138.672 186.025 138.848 185.938 139.062 185.938C139.5 185.938 139.621 185.249 139.209 185.101C139.046 185.043 139.121 184.875 139.436 184.595C139.695 184.365 139.844 184.114 139.767 184.038C139.69 183.961 139.549 184.025 139.453 184.18C139.357 184.335 139.216 184.398 139.139 184.322C139.063 184.245 139.19 184.018 139.422 183.816C139.889 183.411 139.976 182.892 139.6 182.758C139.465 182.71 139.426 182.595 139.513 182.503C139.599 182.411 139.745 182.457 139.837 182.606C139.976 182.832 140.054 182.825 140.314 182.565C140.725 182.155 140.706 182.031 140.234 182.031C140.02 182.031 139.844 181.943 139.844 181.836C139.844 181.729 139.932 181.641 140.039 181.641C140.146 181.641 140.234 181.377 140.234 181.055C140.234 180.469 140.515 180.253 140.68 180.713C140.728 180.847 140.842 180.886 140.934 180.8C141.027 180.713 140.973 180.56 140.815 180.458C140.563 180.296 140.563 180.25 140.82 180.078C141.071 179.911 141.073 179.857 140.838 179.705C140.603 179.554 140.608 179.481 140.872 179.217C141.043 179.046 141.321 178.906 141.49 178.906C141.659 178.906 141.797 178.818 141.797 178.711C141.797 178.604 141.709 178.516 141.602 178.516C141.494 178.516 141.406 178.252 141.406 177.93C141.406 177.474 141.493 177.344 141.797 177.344C142.012 177.344 142.188 177.256 142.188 177.148C142.188 177.041 142.1 176.953 141.992 176.953C141.885 176.953 141.797 176.777 141.797 176.562C141.797 176.302 141.927 176.172 142.188 176.172C142.618 176.172 142.72 175.862 142.334 175.73C142.181 175.678 142.336 175.415 142.751 175.024C143.115 174.682 143.352 174.342 143.278 174.268C143.204 174.193 143.064 174.259 142.969 174.414C142.873 174.569 142.732 174.633 142.655 174.556C142.578 174.479 142.705 174.252 142.938 174.051C143.17 173.849 143.359 173.573 143.359 173.438C143.359 173.302 143.557 173.014 143.799 172.799C144.097 172.534 144.16 172.38 143.994 172.321C143.609 172.182 143.71 171.875 144.141 171.875C144.458 171.875 144.531 171.745 144.531 171.178C144.531 170.439 144.887 169.922 145.396 169.922C145.762 169.922 145.807 169.601 145.459 169.476C145.293 169.417 145.356 169.263 145.654 168.997C145.9 168.779 146.094 168.379 146.094 168.092C146.094 167.566 146.387 167.384 146.533 167.821C146.591 167.997 146.702 167.974 146.939 167.737C147.365 167.311 147.351 167.188 146.875 167.188C146.66 167.188 146.484 167.1 146.484 166.992C146.484 166.885 146.66 166.797 146.875 166.797C147.09 166.797 147.266 166.709 147.266 166.602C147.266 166.494 147.441 166.406 147.656 166.406C147.871 166.406 148.047 166.318 148.047 166.211C148.047 166.104 147.959 166.016 147.852 166.016C147.744 166.016 147.656 165.928 147.656 165.82C147.656 165.713 147.832 165.625 148.047 165.625C148.348 165.625 148.438 165.495 148.438 165.055C148.438 164.742 148.328 164.446 148.193 164.398C148.051 164.348 148.022 164.239 148.122 164.138C148.223 164.037 148.332 164.067 148.383 164.209C148.521 164.595 148.828 164.493 148.828 164.062C148.828 163.633 149.138 163.529 149.267 163.914C149.326 164.091 149.437 164.068 149.674 163.83C150.1 163.405 150.085 163.281 149.609 163.281C149.395 163.281 149.219 163.193 149.219 163.086C149.219 162.979 149.395 162.891 149.609 162.891C149.824 162.891 150 162.803 150 162.695C150 162.588 150.176 162.5 150.391 162.5C150.708 162.5 150.781 162.37 150.781 161.803C150.781 161.064 151.137 160.547 151.646 160.547C151.815 160.547 151.953 160.459 151.953 160.352C151.953 160.244 151.865 160.156 151.758 160.156C151.65 160.156 151.562 160.068 151.562 159.961C151.562 159.854 151.738 159.766 151.953 159.766C152.168 159.766 152.344 159.678 152.344 159.57C152.344 159.463 152.479 159.375 152.646 159.375C152.999 159.375 154.002 158.429 153.83 158.258C153.766 158.193 153.537 158.345 153.32 158.594C153.104 158.843 152.875 158.995 152.811 158.931C152.64 158.76 154.038 157.422 154.388 157.422C154.557 157.422 154.688 157.252 154.688 157.031C154.688 156.771 154.818 156.641 155.078 156.641C155.293 156.641 155.469 156.553 155.469 156.445C155.469 156.338 155.607 156.25 155.776 156.25C156.151 156.25 156.738 155.696 156.556 155.514C156.483 155.442 156.346 155.509 156.25 155.664C156.154 155.819 156.018 155.888 155.948 155.818C155.769 155.638 157.149 154.297 157.513 154.297C157.682 154.297 157.812 154.127 157.812 153.906C157.812 153.646 157.943 153.516 158.203 153.516C158.418 153.516 158.594 153.428 158.594 153.32C158.594 153.213 158.77 153.125 158.984 153.125C159.415 153.125 159.516 152.817 159.131 152.68C158.997 152.632 158.952 152.522 159.032 152.437C159.112 152.351 159.354 152.485 159.57 152.734C159.787 152.984 160.026 153.125 160.103 153.048C160.18 152.971 160.116 152.83 159.962 152.735C159.729 152.591 159.755 152.496 160.114 152.185C160.352 151.979 160.547 151.666 160.547 151.491C160.547 151.315 160.703 151.172 160.894 151.172C161.086 151.172 161.369 150.996 161.523 150.781C161.678 150.566 161.961 150.391 162.153 150.391C162.344 150.391 162.5 150.303 162.5 150.195C162.5 150.088 162.676 150 162.891 150C163.151 150 163.281 149.87 163.281 149.609C163.281 149.395 163.369 149.219 163.477 149.219C163.584 149.219 163.672 149.307 163.672 149.414C163.672 149.521 163.76 149.609 163.867 149.609C164.15 149.609 164.107 148.877 163.818 148.773C163.676 148.723 163.647 148.614 163.747 148.513C163.848 148.412 163.957 148.442 164.008 148.584C164.155 148.997 164.661 148.856 165.234 148.242C165.571 147.882 165.977 147.656 166.289 147.656C166.569 147.656 166.797 147.568 166.797 147.461C166.797 147.354 166.709 147.266 166.602 147.266C166.494 147.266 166.406 147.178 166.406 147.07C166.406 146.963 166.575 146.875 166.781 146.875C166.987 146.875 167.194 146.765 167.242 146.631C167.29 146.497 167.405 146.457 167.497 146.544C167.589 146.63 167.538 146.779 167.383 146.875C167.228 146.971 167.16 147.108 167.232 147.18C167.304 147.252 167.812 146.851 168.359 146.289C168.907 145.727 169.414 145.326 169.486 145.398C169.559 145.47 169.491 145.607 169.336 145.703C169.181 145.799 169.113 145.936 169.186 146.009C169.368 146.191 169.922 145.604 169.922 145.229C169.922 144.991 170.141 144.922 170.898 144.922C171.436 144.922 171.875 144.834 171.875 144.727C171.875 144.619 171.699 144.531 171.484 144.531C171.27 144.531 171.094 144.443 171.094 144.336C171.094 144.229 171.27 144.141 171.484 144.141C171.699 144.141 171.875 144.053 171.875 143.945C171.875 143.838 172.227 143.75 172.656 143.75C173.236 143.75 173.438 143.671 173.438 143.443C173.438 143.056 173.996 142.482 174.179 142.679C174.255 142.761 174.207 142.866 174.072 142.914C173.834 142.999 173.716 143.75 173.941 143.75C174.003 143.75 174.402 143.388 174.828 142.944C175.254 142.501 175.662 142.198 175.735 142.271C175.808 142.344 175.741 142.482 175.586 142.578C175.431 142.674 175.365 142.813 175.439 142.887C175.514 142.962 175.832 142.747 176.147 142.41C176.743 141.771 177.249 141.623 177.399 142.041C177.458 142.207 177.612 142.144 177.878 141.846C178.144 141.546 178.489 141.406 178.962 141.406C179.343 141.406 179.7 141.296 179.754 141.162C179.829 140.977 179.902 140.988 180.053 141.205C180.162 141.363 180.323 141.417 180.409 141.325C180.496 141.233 180.457 141.118 180.322 141.07C179.752 140.867 180.15 140.625 181.055 140.625C181.901 140.625 182.031 140.573 182.031 140.234C182.031 139.91 182.162 139.844 182.796 139.844C183.233 139.844 183.597 139.948 183.645 140.088C183.697 140.241 183.96 140.086 184.351 139.671C184.693 139.307 185.033 139.07 185.107 139.144C185.182 139.218 185.116 139.357 184.961 139.453C184.806 139.549 184.742 139.69 184.819 139.767C184.896 139.844 185.147 139.695 185.377 139.436C185.656 139.121 185.824 139.046 185.882 139.209C186.021 139.594 186.328 139.493 186.328 139.062C186.328 138.628 186.623 138.537 186.8 138.916C186.891 139.111 186.937 139.111 187.028 138.916C187.091 138.782 187.31 138.672 187.516 138.672C187.722 138.672 187.891 138.584 187.891 138.477C187.891 138.369 188.066 138.281 188.281 138.281C188.496 138.281 188.672 138.369 188.672 138.477C188.672 138.822 189.358 138.685 189.648 138.281C189.803 138.066 189.998 137.891 190.082 137.891C190.166 137.891 190.234 138.066 190.234 138.281C190.234 138.496 190.322 138.672 190.43 138.672C190.537 138.672 190.625 138.584 190.625 138.477C190.625 138.369 190.944 138.281 191.335 138.281C191.824 138.281 192.165 138.145 192.435 137.842C192.7 137.544 192.854 137.481 192.914 137.646C193.017 137.936 193.75 137.978 193.75 137.695C193.75 137.41 195.262 137.455 195.379 137.744C195.454 137.929 195.533 137.917 195.703 137.695C195.873 137.474 195.953 137.462 196.027 137.646C196.145 137.936 196.875 137.978 196.875 137.695C196.875 137.588 197.219 137.5 197.64 137.5C198.061 137.5 198.456 137.39 198.519 137.256C198.61 137.061 198.656 137.061 198.747 137.256C198.809 137.39 199.029 137.5 199.235 137.5C199.441 137.5 199.609 137.588 199.609 137.695C199.609 137.803 199.697 137.891 199.805 137.891C199.935 137.891 200 114.779 200 68.9453V0H100H0V100ZM106.641 46.6797C106.641 46.798 107.487 46.875 108.789 46.875C110.091 46.875 110.938 46.952 110.938 47.0703C110.938 47.1818 111.523 47.2656 112.305 47.2656C113.086 47.2656 113.672 47.3494 113.672 47.4609C113.672 47.5695 114.193 47.6562 114.844 47.6562C115.495 47.6562 116.016 47.743 116.016 47.8516C116.016 47.959 116.455 48.0469 116.992 48.0469C117.529 48.0469 117.969 48.1348 117.969 48.2422C117.969 48.3496 118.32 48.4375 118.75 48.4375C119.18 48.4375 119.531 48.5254 119.531 48.6328C119.531 48.7402 119.971 48.8281 120.508 48.8281C121.045 48.8281 121.484 48.916 121.484 49.0234C121.484 49.1309 121.748 49.2188 122.07 49.2188C122.393 49.2188 122.656 49.3066 122.656 49.4141C122.656 49.5215 123.008 49.6094 123.438 49.6094C123.867 49.6094 124.219 49.6973 124.219 49.8047C124.219 49.9121 124.482 50 124.805 50C125.127 50 125.391 50.0879 125.391 50.1953C125.391 50.3027 125.654 50.3906 125.977 50.3906C126.299 50.3906 126.562 50.4785 126.562 50.5859C126.562 50.6934 126.826 50.7812 127.148 50.7812C127.471 50.7812 127.734 50.8691 127.734 50.9766C127.734 51.084 127.998 51.1719 128.32 51.1719C128.643 51.1719 128.906 51.2598 128.906 51.3672C128.906 51.4746 129.082 51.5625 129.297 51.5625C129.512 51.5625 129.688 51.6504 129.688 51.7578C129.688 51.8652 129.951 51.9531 130.273 51.9531C130.596 51.9531 130.859 52.041 130.859 52.1484C130.859 52.2559 131.035 52.3438 131.25 52.3438C131.465 52.3438 131.641 52.4316 131.641 52.5391C131.641 52.6465 131.816 52.7344 132.031 52.7344C132.246 52.7344 132.422 52.8223 132.422 52.9297C132.422 53.0371 132.686 53.125 133.008 53.125H133.594V54.4922C133.594 55.2734 133.51 55.8594 133.398 55.8594C133.29 55.8594 133.203 56.3803 133.203 57.0312C133.203 57.6822 133.116 58.2031 133.008 58.2031C132.899 58.2031 132.812 58.724 132.812 59.375C132.812 60.026 132.726 60.5469 132.617 60.5469C132.509 60.5469 132.422 61.0678 132.422 61.7188C132.422 62.3697 132.335 62.8906 132.227 62.8906C132.115 62.8906 132.031 63.4766 132.031 64.2578C132.031 65.0391 131.947 65.625 131.836 65.625C131.727 65.625 131.641 66.1459 131.641 66.7969C131.641 67.4479 131.554 67.9688 131.445 67.9688C131.337 67.9688 131.25 68.4896 131.25 69.1406C131.25 69.7916 131.163 70.3125 131.055 70.3125C130.946 70.3125 130.859 70.8334 130.859 71.4844C130.859 72.1354 130.773 72.6562 130.664 72.6562C130.555 72.6562 130.469 73.1771 130.469 73.8281C130.469 74.4791 130.382 75 130.273 75C130.165 75 130.078 75.5209 130.078 76.1719C130.078 76.8229 129.991 77.3438 129.883 77.3438C129.775 77.3438 129.688 77.5195 129.688 77.7344C129.688 77.9492 129.6 78.125 129.492 78.125C129.385 78.125 129.297 78.0371 129.297 77.9297C129.297 77.8223 129.121 77.7344 128.906 77.7344C128.691 77.7344 128.516 77.6465 128.516 77.5391C128.516 77.4316 128.34 77.3438 128.125 77.3438C127.91 77.3438 127.734 77.2559 127.734 77.1484C127.734 77.041 127.471 76.9531 127.148 76.9531C126.826 76.9531 126.562 76.8652 126.562 76.7578C126.562 76.6504 126.387 76.5625 126.172 76.5625C125.957 76.5625 125.781 76.4746 125.781 76.3672C125.781 76.2598 125.605 76.1719 125.391 76.1719C125.176 76.1719 125 76.084 125 75.9766C125 75.8691 124.736 75.7812 124.414 75.7812C124.092 75.7812 123.828 75.6934 123.828 75.5859C123.828 75.4785 123.652 75.3906 123.438 75.3906C123.223 75.3906 123.047 75.3027 123.047 75.1953C123.047 75.0879 122.783 75 122.461 75C122.139 75 121.875 74.9121 121.875 74.8047C121.875 74.6973 121.611 74.6094 121.289 74.6094C120.967 74.6094 120.703 74.5215 120.703 74.4141C120.703 74.3066 120.439 74.2188 120.117 74.2188C119.795 74.2188 119.531 74.1309 119.531 74.0234C119.531 73.916 119.268 73.8281 118.945 73.8281C118.623 73.8281 118.359 73.7402 118.359 73.6328C118.359 73.5254 118.096 73.4375 117.773 73.4375C117.451 73.4375 117.188 73.3496 117.188 73.2422C117.188 73.1348 116.924 73.0469 116.602 73.0469C116.279 73.0469 116.016 72.959 116.016 72.8516C116.016 72.7441 115.664 72.6562 115.234 72.6562C114.805 72.6562 114.453 72.5684 114.453 72.4609C114.453 72.3535 114.102 72.2656 113.672 72.2656C113.242 72.2656 112.891 72.1777 112.891 72.0703C112.891 71.9629 112.451 71.875 111.914 71.875C111.377 71.875 110.938 71.7871 110.938 71.6797C110.938 71.5711 110.417 71.4844 109.766 71.4844C109.115 71.4844 108.594 71.3977 108.594 71.2891C108.594 71.1719 107.812 71.0938 106.641 71.0938C105.469 71.0938 104.688 71.0156 104.688 70.8984C104.688 70.7812 103.906 70.7031 102.734 70.7031C101.562 70.7031 100.781 70.7812 100.781 70.8984C100.781 71.007 100.26 71.0938 99.6094 71.0938C98.9584 71.0938 98.4375 71.1805 98.4375 71.2891C98.4375 71.3965 98.1738 71.4844 97.8516 71.4844C97.5293 71.4844 97.2656 71.5723 97.2656 71.6797C97.2656 71.7871 97.1318 71.875 96.9684 71.875C96.5816 71.875 94.5312 73.9254 94.5312 74.3121C94.5312 74.4756 94.4434 74.6094 94.3359 74.6094C94.2187 74.6094 94.1406 75.3906 94.1406 76.5625C94.1406 77.7344 94.2187 78.5156 94.3359 78.5156C94.4434 78.5156 94.5312 78.6488 94.5312 78.8117C94.5312 79.1719 97.3523 82.0312 97.7076 82.0312C97.8469 82.0312 98.0873 82.207 98.2422 82.4219C98.3971 82.6367 98.6801 82.8125 98.8713 82.8125C99.0623 82.8125 99.2188 82.9004 99.2188 83.0078C99.2188 83.1152 99.3945 83.2031 99.6094 83.2031C99.8242 83.2031 100 83.291 100 83.3984C100 83.5059 100.176 83.5938 100.391 83.5938C100.605 83.5938 100.781 83.6816 100.781 83.7891C100.781 83.8965 100.957 83.9844 101.172 83.9844C101.387 83.9844 101.562 84.0723 101.562 84.1797C101.562 84.2871 101.738 84.375 101.953 84.375C102.168 84.375 102.344 84.4629 102.344 84.5703C102.344 84.6777 102.607 84.7656 102.93 84.7656C103.252 84.7656 103.516 84.8535 103.516 84.9609C103.516 85.0684 103.691 85.1562 103.906 85.1562C104.121 85.1562 104.297 85.2441 104.297 85.3516C104.297 85.459 104.473 85.5469 104.688 85.5469C104.902 85.5469 105.078 85.6348 105.078 85.7422C105.078 85.8496 105.342 85.9375 105.664 85.9375C105.986 85.9375 106.25 86.0254 106.25 86.1328C106.25 86.2402 106.514 86.3281 106.836 86.3281C107.158 86.3281 107.422 86.416 107.422 86.5234C107.422 86.6309 107.598 86.7188 107.812 86.7188C108.027 86.7188 108.203 86.8066 108.203 86.9141C108.203 87.0215 108.467 87.1094 108.789 87.1094C109.111 87.1094 109.375 87.1973 109.375 87.3047C109.375 87.4121 109.639 87.5 109.961 87.5C110.283 87.5 110.547 87.5879 110.547 87.6953C110.547 87.8027 110.723 87.8906 110.938 87.8906C111.152 87.8906 111.328 87.9785 111.328 88.0859C111.328 88.1934 111.592 88.2812 111.914 88.2812C112.236 88.2812 112.5 88.3691 112.5 88.4766C112.5 88.584 112.764 88.6719 113.086 88.6719C113.408 88.6719 113.672 88.7598 113.672 88.8672C113.672 88.9746 113.848 89.0625 114.062 89.0625C114.277 89.0625 114.453 89.1504 114.453 89.2578C114.453 89.3652 114.717 89.4531 115.039 89.4531C115.361 89.4531 115.625 89.541 115.625 89.6484C115.625 89.7559 115.801 89.8438 116.016 89.8438C116.23 89.8438 116.406 89.9316 116.406 90.0391C116.406 90.1465 116.582 90.2344 116.797 90.2344C117.012 90.2344 117.188 90.3223 117.188 90.4297C117.188 90.5371 117.363 90.625 117.578 90.625C117.793 90.625 117.969 90.7129 117.969 90.8203C117.969 90.9277 118.145 91.0156 118.359 91.0156C118.574 91.0156 118.75 91.1035 118.75 91.2109C118.75 91.3184 118.994 91.4062 119.293 91.4062C119.612 91.4062 119.952 91.5676 120.117 91.7969C120.272 92.0117 120.555 92.1875 120.746 92.1875C120.937 92.1875 121.094 92.2754 121.094 92.3828C121.094 92.4902 121.27 92.5781 121.484 92.5781C121.699 92.5781 121.875 92.666 121.875 92.7734C121.875 92.8809 122.051 92.9688 122.266 92.9688C122.48 92.9688 122.656 93.0566 122.656 93.1641C122.656 93.2715 122.813 93.3594 123.004 93.3594C123.195 93.3594 123.478 93.5352 123.633 93.75C123.788 93.9648 124.071 94.1406 124.262 94.1406C124.453 94.1406 124.609 94.2285 124.609 94.3359C124.609 94.4434 124.766 94.5312 124.957 94.5312C125.148 94.5312 125.431 94.707 125.586 94.9219C125.741 95.1367 125.989 95.3125 126.137 95.3125C126.285 95.3125 126.652 95.5762 126.953 95.8984C127.254 96.2207 127.598 96.4844 127.717 96.4844C128.021 96.4844 133.203 101.699 133.203 102.006C133.203 102.144 133.379 102.384 133.594 102.539C133.809 102.694 133.984 102.958 133.984 103.125C133.984 103.292 134.16 103.556 134.375 103.711C134.59 103.866 134.766 104.149 134.766 104.34C134.766 104.531 134.854 104.688 134.961 104.688C135.068 104.688 135.156 104.863 135.156 105.078C135.156 105.293 135.244 105.469 135.352 105.469C135.459 105.469 135.547 105.645 135.547 105.859C135.547 106.074 135.635 106.25 135.742 106.25C135.85 106.25 135.938 106.426 135.938 106.641C135.938 106.855 136.025 107.031 136.133 107.031C136.24 107.031 136.328 107.207 136.328 107.422C136.328 107.637 136.416 107.812 136.523 107.812C136.631 107.812 136.719 108.076 136.719 108.398C136.719 108.721 136.807 108.984 136.914 108.984C137.021 108.984 137.109 109.248 137.109 109.57C137.109 109.893 137.197 110.156 137.305 110.156C137.412 110.156 137.5 110.508 137.5 110.938C137.5 111.367 137.588 111.719 137.695 111.719C137.804 111.719 137.891 112.24 137.891 112.891C137.891 113.542 137.977 114.062 138.086 114.062C138.205 114.062 138.281 114.974 138.281 116.406C138.281 117.838 138.357 118.75 138.477 118.75C138.584 118.75 138.672 119.102 138.672 119.531C138.672 119.961 138.584 120.312 138.477 120.312C138.356 120.312 138.281 121.354 138.281 123.047C138.281 124.74 138.207 125.781 138.086 125.781C137.979 125.781 137.891 126.221 137.891 126.758C137.891 127.295 137.803 127.734 137.695 127.734C137.588 127.734 137.5 128.174 137.5 128.711C137.5 129.248 137.412 129.688 137.305 129.688C137.197 129.688 137.109 129.951 137.109 130.273C137.109 130.596 137.021 130.859 136.914 130.859C136.807 130.859 136.719 131.123 136.719 131.445C136.719 131.768 136.631 132.031 136.523 132.031C136.416 132.031 136.328 132.295 136.328 132.617C136.328 132.939 136.24 133.203 136.133 133.203C136.025 133.203 135.938 133.379 135.938 133.594C135.938 133.809 135.85 133.984 135.742 133.984C135.635 133.984 135.547 134.248 135.547 134.57C135.547 134.893 135.459 135.156 135.352 135.156C135.244 135.156 135.156 135.332 135.156 135.547C135.156 135.762 135.068 135.938 134.961 135.938C134.854 135.938 134.766 136.094 134.766 136.285C134.766 136.476 134.59 136.759 134.375 136.914C134.16 137.069 133.984 137.352 133.984 137.543C133.984 137.734 133.896 137.891 133.789 137.891C133.682 137.891 133.594 138.031 133.594 138.203C133.594 138.375 133.33 138.762 133.008 139.062C132.686 139.363 132.422 139.713 132.422 139.84C132.422 139.966 132.07 140.407 131.641 140.82C131.211 141.233 130.859 141.668 130.859 141.786C130.859 142.066 128.785 144.141 128.504 144.141C128.386 144.141 127.952 144.492 127.539 144.922C127.126 145.352 126.685 145.703 126.559 145.703C126.432 145.703 126.082 145.967 125.781 146.289C125.48 146.611 125.093 146.875 124.922 146.875C124.75 146.875 124.609 146.963 124.609 147.07C124.609 147.178 124.453 147.266 124.262 147.266C124.071 147.266 123.788 147.441 123.633 147.656C123.478 147.871 123.195 148.047 123.004 148.047C122.813 148.047 122.656 148.135 122.656 148.242C122.656 148.35 122.48 148.438 122.266 148.438C122.051 148.438 121.875 148.525 121.875 148.633C121.875 148.74 121.699 148.828 121.484 148.828C121.27 148.828 121.094 148.916 121.094 149.023C121.094 149.131 120.918 149.219 120.703 149.219C120.488 149.219 120.312 149.307 120.312 149.414C120.312 149.521 120.049 149.609 119.727 149.609C119.404 149.609 119.141 149.697 119.141 149.805C119.141 149.912 118.965 150 118.75 150C118.535 150 118.359 150.088 118.359 150.195C118.359 150.303 118.096 150.391 117.773 150.391C117.451 150.391 117.188 150.479 117.188 150.586C117.188 150.693 116.924 150.781 116.602 150.781C116.279 150.781 116.016 150.869 116.016 150.977C116.016 151.084 115.752 151.172 115.43 151.172C115.107 151.172 114.844 151.26 114.844 151.367C114.844 151.475 114.492 151.562 114.062 151.562C113.633 151.562 113.281 151.65 113.281 151.758C113.281 151.865 112.842 151.953 112.305 151.953C111.768 151.953 111.328 152.041 111.328 152.148C111.328 152.256 110.889 152.344 110.352 152.344C109.814 152.344 109.375 152.432 109.375 152.539C109.375 152.651 108.789 152.734 108.008 152.734C107.227 152.734 106.641 152.818 106.641 152.93C106.641 153.05 105.664 153.125 104.102 153.125C102.539 153.125 101.562 153.2 101.562 153.32C101.562 153.442 100.456 153.516 98.6328 153.516C96.81 153.516 95.7031 153.442 95.7031 153.32C95.7031 153.199 94.6615 153.125 92.9688 153.125C91.276 153.125 90.2344 153.051 90.2344 152.93C90.2344 152.816 89.5834 152.734 88.6719 152.734C87.7604 152.734 87.1094 152.653 87.1094 152.539C87.1094 152.43 86.5885 152.344 85.9375 152.344C85.2865 152.344 84.7656 152.257 84.7656 152.148C84.7656 152.041 84.3262 151.953 83.7891 151.953C83.252 151.953 82.8125 151.865 82.8125 151.758C82.8125 151.65 82.373 151.562 81.8359 151.562C81.2988 151.562 80.8594 151.475 80.8594 151.367C80.8594 151.26 80.5078 151.172 80.0781 151.172C79.6484 151.172 79.2969 151.084 79.2969 150.977C79.2969 150.869 78.9453 150.781 78.5156 150.781C78.0859 150.781 77.7344 150.693 77.7344 150.586C77.7344 150.479 77.3828 150.391 76.9531 150.391C76.5234 150.391 76.1719 150.303 76.1719 150.195C76.1719 150.088 75.8203 150 75.3906 150C74.9609 150 74.6094 149.912 74.6094 149.805C74.6094 149.697 74.3457 149.609 74.0234 149.609C73.7012 149.609 73.4375 149.521 73.4375 149.414C73.4375 149.307 73.1738 149.219 72.8516 149.219C72.5293 149.219 72.2656 149.131 72.2656 149.023C72.2656 148.916 72.002 148.828 71.6797 148.828C71.3574 148.828 71.0938 148.74 71.0938 148.633C71.0938 148.525 70.8301 148.438 70.5078 148.438C70.1855 148.438 69.9219 148.35 69.9219 148.242C69.9219 148.135 69.7461 148.047 69.5312 148.047C69.3164 148.047 69.1406 147.959 69.1406 147.852C69.1406 147.744 68.877 147.656 68.5547 147.656C68.2324 147.656 67.9688 147.568 67.9688 147.461C67.9688 147.354 67.793 147.266 67.5781 147.266C67.3633 147.266 67.1875 147.178 67.1875 147.07C67.1875 146.963 66.9238 146.875 66.6016 146.875C66.2793 146.875 66.0156 146.787 66.0156 146.68C66.0156 146.572 65.8398 146.484 65.625 146.484C65.4102 146.484 65.2344 146.396 65.2344 146.289C65.2344 146.182 65.0586 146.094 64.8438 146.094C64.6289 146.094 64.4531 146.006 64.4531 145.898C64.4531 145.791 64.2773 145.703 64.0625 145.703C63.8477 145.703 63.6719 145.615 63.6719 145.508C63.6719 145.4 63.4961 145.312 63.2812 145.312C63.0664 145.312 62.8906 145.225 62.8906 145.117C62.8906 145.01 62.7525 144.922 62.5838 144.922C61.9953 144.922 61.7188 144.396 61.7188 143.276C61.7188 142.677 61.8066 142.188 61.9141 142.188C62.0227 142.188 62.1094 141.667 62.1094 141.016C62.1094 140.365 62.1961 139.844 62.3047 139.844C62.4162 139.844 62.5 139.258 62.5 138.477C62.5 137.695 62.5838 137.109 62.6953 137.109C62.8039 137.109 62.8906 136.588 62.8906 135.938C62.8906 135.287 62.9773 134.766 63.0859 134.766C63.1945 134.766 63.2812 134.245 63.2812 133.594C63.2812 132.943 63.368 132.422 63.4766 132.422C63.5852 132.422 63.6719 131.901 63.6719 131.25C63.6719 130.599 63.7586 130.078 63.8672 130.078C63.9758 130.078 64.0625 129.557 64.0625 128.906C64.0625 128.255 64.1492 127.734 64.2578 127.734C64.3664 127.734 64.4531 127.213 64.4531 126.562C64.4531 125.912 64.5398 125.391 64.6484 125.391C64.757 125.391 64.8438 124.87 64.8438 124.219C64.8438 123.568 64.9305 123.047 65.0391 123.047C65.1506 123.047 65.2344 122.461 65.2344 121.68C65.2344 120.898 65.3182 120.312 65.4297 120.312C65.5371 120.312 65.625 120.137 65.625 119.922C65.625 119.707 65.7129 119.531 65.8203 119.531C65.9277 119.531 66.0156 119.619 66.0156 119.727C66.0156 119.834 66.1721 119.922 66.3631 119.922C66.5543 119.922 66.8373 120.098 66.9922 120.312C67.1471 120.527 67.4301 120.703 67.6213 120.703C67.8123 120.703 67.9688 120.791 67.9688 120.898C67.9688 121.006 68.1445 121.094 68.3594 121.094C68.5742 121.094 68.75 121.182 68.75 121.289C68.75 121.396 68.9258 121.484 69.1406 121.484C69.3555 121.484 69.5312 121.572 69.5312 121.68C69.5312 121.787 69.707 121.875 69.9219 121.875C70.1367 121.875 70.3125 121.963 70.3125 122.07C70.3125 122.178 70.5762 122.266 70.8984 122.266C71.2207 122.266 71.4844 122.354 71.4844 122.461C71.4844 122.568 71.6602 122.656 71.875 122.656C72.0898 122.656 72.2656 122.744 72.2656 122.852C72.2656 122.959 72.4414 123.047 72.6562 123.047C72.8711 123.047 73.0469 123.135 73.0469 123.242C73.0469 123.35 73.3105 123.438 73.6328 123.438C73.9551 123.438 74.2188 123.525 74.2188 123.633C74.2188 123.74 74.3945 123.828 74.6094 123.828C74.8242 123.828 75 123.916 75 124.023C75 124.131 75.2637 124.219 75.5859 124.219C75.9082 124.219 76.1719 124.307 76.1719 124.414C76.1719 124.521 76.4355 124.609 76.7578 124.609C77.0801 124.609 77.3438 124.697 77.3438 124.805C77.3438 124.912 77.5195 125 77.7344 125C77.9492 125 78.125 125.088 78.125 125.195C78.125 125.303 78.3887 125.391 78.7109 125.391C79.0332 125.391 79.2969 125.479 79.2969 125.586C79.2969 125.693 79.6484 125.781 80.0781 125.781C80.5078 125.781 80.8594 125.869 80.8594 125.977C80.8594 126.084 81.123 126.172 81.4453 126.172C81.7676 126.172 82.0312 126.26 82.0312 126.367C82.0312 126.475 82.2949 126.562 82.6172 126.562C82.9395 126.562 83.2031 126.65 83.2031 126.758C83.2031 126.865 83.5547 126.953 83.9844 126.953C84.4141 126.953 84.7656 127.041 84.7656 127.148C84.7656 127.256 85.1172 127.344 85.5469 127.344C85.9766 127.344 86.3281 127.432 86.3281 127.539C86.3281 127.646 86.7676 127.734 87.3047 127.734C87.8418 127.734 88.2812 127.822 88.2812 127.93C88.2812 128.037 88.7207 128.125 89.2578 128.125C89.7949 128.125 90.2344 128.213 90.2344 128.32C90.2344 128.432 90.8203 128.516 91.6016 128.516C92.3828 128.516 92.9688 128.599 92.9688 128.711C92.9688 128.834 94.3359 128.906 96.6797 128.906C99.0234 128.906 100.391 128.834 100.391 128.711C100.391 128.604 100.83 128.516 101.367 128.516C101.904 128.516 102.344 128.428 102.344 128.32C102.344 128.213 102.607 128.125 102.93 128.125C103.252 128.125 103.516 128.037 103.516 127.93C103.516 127.822 103.672 127.734 103.863 127.734C104.054 127.734 104.337 127.559 104.492 127.344C104.647 127.129 104.89 126.953 105.032 126.953C105.368 126.953 106.25 126.071 106.25 125.736C106.25 125.593 106.426 125.35 106.641 125.195C106.87 125.03 107.031 124.69 107.031 124.371C107.031 124.072 107.119 123.828 107.227 123.828C107.34 123.828 107.422 123.177 107.422 122.266C107.422 121.354 107.34 120.703 107.227 120.703C107.119 120.703 107.031 120.439 107.031 120.117C107.031 119.795 106.943 119.531 106.836 119.531C106.729 119.531 106.641 119.375 106.641 119.184C106.641 118.993 106.465 118.71 106.25 118.555C106.035 118.4 105.859 118.154 105.859 118.009C105.859 117.685 105.383 117.188 105.073 117.188C104.947 117.188 104.598 116.924 104.297 116.602C103.996 116.279 103.628 116.016 103.48 116.016C103.332 116.016 103.085 115.84 102.93 115.625C102.775 115.41 102.492 115.234 102.301 115.234C102.11 115.234 101.953 115.146 101.953 115.039C101.953 114.932 101.777 114.844 101.562 114.844C101.348 114.844 101.172 114.756 101.172 114.648C101.172 114.541 100.996 114.453 100.781 114.453C100.566 114.453 100.391 114.365 100.391 114.258C100.391 114.15 100.215 114.062 100 114.062C99.7852 114.062 99.6094 113.975 99.6094 113.867C99.6094 113.76 99.4336 113.672 99.2188 113.672C99.0039 113.672 98.8281 113.584 98.8281 113.477C98.8281 113.369 98.6523 113.281 98.4375 113.281C98.2227 113.281 98.0469 113.193 98.0469 113.086C98.0469 112.979 97.7832 112.891 97.4609 112.891C97.1387 112.891 96.875 112.803 96.875 112.695C96.875 112.588 96.6992 112.5 96.4844 112.5C96.2695 112.5 96.0938 112.412 96.0938 112.305C96.0938 112.197 95.8301 112.109 95.5078 112.109C95.1855 112.109 94.9219 112.021 94.9219 111.914C94.9219 111.807 94.7461 111.719 94.5312 111.719C94.3164 111.719 94.1406 111.631 94.1406 111.523C94.1406 111.416 93.877 111.328 93.5547 111.328C93.2324 111.328 92.9688 111.24 92.9688 111.133C92.9688 111.025 92.7051 110.938 92.3828 110.938C92.0605 110.938 91.7969 110.85 91.7969 110.742C91.7969 110.635 91.6211 110.547 91.4062 110.547C91.1914 110.547 91.0156 110.459 91.0156 110.352C91.0156 110.244 90.752 110.156 90.4297 110.156C90.1074 110.156 89.8438 110.068 89.8438 109.961C89.8438 109.854 89.5801 109.766 89.2578 109.766C88.9355 109.766 88.6719 109.678 88.6719 109.57C88.6719 109.463 88.4961 109.375 88.2812 109.375C88.0664 109.375 87.8906 109.287 87.8906 109.18C87.8906 109.072 87.627 108.984 87.3047 108.984C86.9824 108.984 86.7188 108.896 86.7188 108.789C86.7188 108.682 86.543 108.594 86.3281 108.594C86.1133 108.594 85.9375 108.506 85.9375 108.398C85.9375 108.291 85.7617 108.203 85.5469 108.203C85.332 108.203 85.1562 108.115 85.1562 108.008C85.1562 107.9 84.9805 107.812 84.7656 107.812C84.5508 107.812 84.375 107.725 84.375 107.617C84.375 107.51 84.1113 107.422 83.7891 107.422C83.4668 107.422 83.2031 107.334 83.2031 107.227C83.2031 107.119 83.0273 107.031 82.8125 107.031C82.5977 107.031 82.4219 106.943 82.4219 106.836C82.4219 106.729 82.2461 106.641 82.0312 106.641C81.8164 106.641 81.6406 106.553 81.6406 106.445C81.6406 106.338 81.4648 106.25 81.25 106.25C81.0352 106.25 80.8594 106.162 80.8594 106.055C80.8594 105.947 80.6836 105.859 80.4688 105.859C80.2539 105.859 80.0781 105.771 80.0781 105.664C80.0781 105.557 79.9217 105.469 79.7307 105.469C79.5395 105.469 79.2564 105.293 79.1016 105.078C78.9467 104.863 78.6637 104.688 78.4725 104.688C78.2814 104.688 78.125 104.6 78.125 104.492C78.125 104.385 77.9686 104.297 77.7775 104.297C77.5863 104.297 77.3033 104.121 77.1484 103.906C76.9936 103.691 76.7299 103.516 76.5625 103.516C76.3951 103.516 76.1314 103.34 75.9766 103.125C75.8217 102.91 75.558 102.734 75.3906 102.734C75.2232 102.734 74.9596 102.559 74.8047 102.344C74.6498 102.129 74.4051 101.953 74.2605 101.953C74.1162 101.953 73.5701 101.514 73.0469 100.977C72.5236 100.439 72.0002 100 71.8834 100C71.6053 100 69.5312 97.9236 69.5312 97.6451C69.5312 97.527 69.1797 97.0926 68.75 96.6797C68.3203 96.2668 67.9688 95.8098 67.9688 95.6639C67.9688 95.518 67.793 95.2721 67.5781 95.1172C67.3633 94.9623 67.1875 94.6986 67.1875 94.5312C67.1875 94.3639 67.0117 94.1002 66.7969 93.9453C66.582 93.7904 66.4062 93.5074 66.4062 93.3162C66.4062 93.1252 66.3184 92.9688 66.2109 92.9688C66.1035 92.9688 66.0156 92.793 66.0156 92.5781C66.0156 92.3633 65.9277 92.1875 65.8203 92.1875C65.7129 92.1875 65.625 92.0117 65.625 91.7969C65.625 91.582 65.5371 91.4062 65.4297 91.4062C65.3223 91.4062 65.2344 91.1426 65.2344 90.8203C65.2344 90.498 65.1465 90.2344 65.0391 90.2344C64.9316 90.2344 64.8438 90.0586 64.8438 89.8438C64.8438 89.6289 64.7559 89.4531 64.6484 89.4531C64.541 89.4531 64.4531 89.1016 64.4531 88.6719C64.4531 88.2422 64.3652 87.8906 64.2578 87.8906C64.1504 87.8906 64.0625 87.627 64.0625 87.3047C64.0625 86.9824 63.9746 86.7188 63.8672 86.7188C63.7598 86.7188 63.6719 86.2793 63.6719 85.7422C63.6719 85.2051 63.584 84.7656 63.4766 84.7656C63.3607 84.7656 63.2812 84.0494 63.2812 83.0078C63.2812 81.9662 63.2018 81.25 63.0859 81.25C62.9658 81.25 62.8906 80.2734 62.8906 78.7109C62.8906 77.1484 62.9658 76.1719 63.0859 76.1719C63.2018 76.1719 63.2812 75.4557 63.2812 74.4141C63.2812 73.3725 63.3607 72.6562 63.4766 72.6562C63.584 72.6562 63.6719 72.2168 63.6719 71.6797C63.6719 71.1426 63.7598 70.7031 63.8672 70.7031C63.9746 70.7031 64.0625 70.3516 64.0625 69.9219C64.0625 69.4922 64.1504 69.1406 64.2578 69.1406C64.3652 69.1406 64.4531 68.877 64.4531 68.5547C64.4531 68.2324 64.541 67.9688 64.6484 67.9688C64.7559 67.9688 64.8438 67.7051 64.8438 67.3828C64.8438 67.0605 64.9316 66.7969 65.0391 66.7969C65.1465 66.7969 65.2344 66.6211 65.2344 66.4062C65.2344 66.1914 65.3223 66.0156 65.4297 66.0156C65.5371 66.0156 65.625 65.752 65.625 65.4297C65.625 65.1074 65.7129 64.8438 65.8203 64.8438C65.9277 64.8438 66.0156 64.668 66.0156 64.4531C66.0156 64.2383 66.1035 64.0625 66.2109 64.0625C66.3184 64.0625 66.4062 63.8867 66.4062 63.6719C66.4062 63.457 66.4941 63.2812 66.6016 63.2812C66.709 63.2812 66.7969 63.1248 66.7969 62.9338C66.7969 62.7426 66.9727 62.4596 67.1875 62.3047C67.4023 62.1498 67.5781 61.8861 67.5781 61.7188C67.5781 61.5514 67.7539 61.2877 67.9688 61.1328C68.1836 60.9779 68.3594 60.7301 68.3594 60.582C68.3594 60.4342 68.623 60.0666 68.9453 59.7656C69.2676 59.4646 69.5312 59.1207 69.5312 59.0014C69.5312 58.882 70.4531 57.8627 71.5797 56.7359C72.7064 55.6094 73.7258 54.6875 73.8451 54.6875C73.9645 54.6875 74.3084 54.4238 74.6094 54.1016C74.9104 53.7793 75.2779 53.5156 75.4258 53.5156C75.5738 53.5156 75.8217 53.3398 75.9766 53.125C76.1314 52.9102 76.3951 52.7344 76.5625 52.7344C76.7299 52.7344 76.9936 52.5586 77.1484 52.3438C77.3033 52.1289 77.5863 51.9531 77.7775 51.9531C77.9686 51.9531 78.125 51.8652 78.125 51.7578C78.125 51.6504 78.3008 51.5625 78.5156 51.5625C78.7305 51.5625 78.9062 51.4746 78.9062 51.3672C78.9062 51.2598 79.082 51.1719 79.2969 51.1719C79.5117 51.1719 79.6875 51.084 79.6875 50.9766C79.6875 50.8691 79.8633 50.7812 80.0781 50.7812C80.293 50.7812 80.4688 50.6934 80.4688 50.5859C80.4688 50.4785 80.6445 50.3906 80.8594 50.3906C81.0742 50.3906 81.25 50.3027 81.25 50.1953C81.25 50.0879 81.4258 50 81.6406 50C81.8555 50 82.0312 49.9121 82.0312 49.8047C82.0312 49.6973 82.2949 49.6094 82.6172 49.6094C82.9395 49.6094 83.2031 49.5215 83.2031 49.4141C83.2031 49.3066 83.4668 49.2188 83.7891 49.2188C84.1113 49.2188 84.375 49.1309 84.375 49.0234C84.375 48.916 84.6387 48.8281 84.9609 48.8281C85.2832 48.8281 85.5469 48.7402 85.5469 48.6328C85.5469 48.5254 85.8105 48.4375 86.1328 48.4375C86.4551 48.4375 86.7188 48.3496 86.7188 48.2422C86.7188 48.1348 87.0703 48.0469 87.5 48.0469C87.9297 48.0469 88.2812 47.959 88.2812 47.8516C88.2812 47.7441 88.7207 47.6562 89.2578 47.6562C89.7949 47.6562 90.2344 47.5684 90.2344 47.4609C90.2344 47.3523 90.7553 47.2656 91.4062 47.2656C92.0572 47.2656 92.5781 47.1789 92.5781 47.0703C92.5781 46.9564 93.2291 46.875 94.1406 46.875C95.0521 46.875 95.7031 46.7936 95.7031 46.6797C95.7031 46.5541 97.6562 46.4844 101.172 46.4844C104.688 46.4844 106.641 46.5541 106.641 46.6797ZM188.672 137.695C188.672 137.803 188.584 137.891 188.477 137.891C188.369 137.891 188.281 137.803 188.281 137.695C188.281 137.588 188.369 137.5 188.477 137.5C188.584 137.5 188.672 137.588 188.672 137.695ZM191.797 137.695C191.797 137.803 191.709 137.891 191.602 137.891C191.494 137.891 191.406 137.803 191.406 137.695C191.406 137.588 191.494 137.5 191.602 137.5C191.709 137.5 191.797 137.588 191.797 137.695ZM198.438 137.612C198.438 137.819 199.041 138.329 199.154 138.216C199.215 138.155 199.129 137.969 198.963 137.802C198.653 137.492 198.438 137.414 198.438 137.612ZM194.531 138.086C194.531 138.193 194.619 138.281 194.727 138.281C194.834 138.281 194.922 138.193 194.922 138.086C194.922 137.979 194.834 137.891 194.727 137.891C194.619 137.891 194.531 137.979 194.531 138.086ZM197.656 138.086C197.656 138.193 197.744 138.281 197.852 138.281C197.959 138.281 198.047 138.193 198.047 138.086C198.047 137.979 197.959 137.891 197.852 137.891C197.744 137.891 197.656 137.979 197.656 138.086ZM181.641 140.039C181.641 140.146 181.465 140.234 181.25 140.234C181.035 140.234 180.859 140.146 180.859 140.039C180.859 139.932 181.035 139.844 181.25 139.844C181.465 139.844 181.641 139.932 181.641 140.039ZM182.422 140.43C182.422 140.537 182.51 140.625 182.617 140.625C182.725 140.625 182.812 140.537 182.812 140.43C182.812 140.322 182.725 140.234 182.617 140.234C182.51 140.234 182.422 140.322 182.422 140.43ZM179.297 140.82C179.297 140.928 179.209 141.016 179.102 141.016C178.994 141.016 178.906 140.928 178.906 140.82C178.906 140.713 178.994 140.625 179.102 140.625C179.209 140.625 179.297 140.713 179.297 140.82ZM177.734 141.211C177.734 141.318 177.646 141.406 177.539 141.406C177.432 141.406 177.344 141.318 177.344 141.211C177.344 141.104 177.432 141.016 177.539 141.016C177.646 141.016 177.734 141.104 177.734 141.211ZM170.703 144.336C170.703 144.443 170.615 144.531 170.508 144.531C170.4 144.531 170.312 144.443 170.312 144.336C170.312 144.229 170.4 144.141 170.508 144.141C170.615 144.141 170.703 144.229 170.703 144.336ZM172.656 144.336C172.656 144.443 172.744 144.531 172.852 144.531C172.959 144.531 173.047 144.443 173.047 144.336C173.047 144.229 172.959 144.141 172.852 144.141C172.744 144.141 172.656 144.229 172.656 144.336ZM164.844 148.242C164.844 148.35 164.756 148.438 164.648 148.438C164.541 148.438 164.453 148.35 164.453 148.242C164.453 148.135 164.541 148.047 164.648 148.047C164.756 148.047 164.844 148.135 164.844 148.242ZM162.891 149.414C162.891 149.521 162.803 149.609 162.695 149.609C162.588 149.609 162.5 149.521 162.5 149.414C162.5 149.307 162.588 149.219 162.695 149.219C162.803 149.219 162.891 149.307 162.891 149.414ZM161.328 150.586C161.328 150.693 161.24 150.781 161.133 150.781C161.025 150.781 160.938 150.693 160.938 150.586C160.938 150.479 161.025 150.391 161.133 150.391C161.24 150.391 161.328 150.479 161.328 150.586ZM158.594 152.539C158.594 152.646 158.506 152.734 158.398 152.734C158.291 152.734 158.203 152.646 158.203 152.539C158.203 152.432 158.291 152.344 158.398 152.344C158.506 152.344 158.594 152.432 158.594 152.539ZM157.422 153.32C157.422 153.428 157.334 153.516 157.227 153.516C157.119 153.516 157.031 153.428 157.031 153.32C157.031 153.213 157.119 153.125 157.227 153.125C157.334 153.125 157.422 153.213 157.422 153.32ZM155.469 155.664C155.469 155.771 155.381 155.859 155.273 155.859C155.166 155.859 155.078 155.771 155.078 155.664C155.078 155.557 155.166 155.469 155.273 155.469C155.381 155.469 155.469 155.557 155.469 155.664ZM154.297 156.445C154.297 156.553 154.209 156.641 154.102 156.641C153.994 156.641 153.906 156.553 153.906 156.445C153.906 156.338 153.994 156.25 154.102 156.25C154.209 156.25 154.297 156.338 154.297 156.445ZM152.344 158.789C152.344 158.896 152.256 158.984 152.148 158.984C152.041 158.984 151.953 158.896 151.953 158.789C151.953 158.682 152.041 158.594 152.148 158.594C152.256 158.594 152.344 158.682 152.344 158.789ZM150.391 161.914C150.391 162.021 150.303 162.109 150.195 162.109C150.088 162.109 150 162.021 150 161.914C150 161.807 150.088 161.719 150.195 161.719C150.303 161.719 150.391 161.807 150.391 161.914ZM144.922 168.945C144.922 169.053 144.834 169.141 144.727 169.141C144.619 169.141 144.531 169.053 144.531 168.945C144.531 168.838 144.619 168.75 144.727 168.75C144.834 168.75 144.922 168.838 144.922 168.945ZM141.797 175.195C141.797 175.303 141.709 175.391 141.602 175.391C141.494 175.391 141.406 175.303 141.406 175.195C141.406 175.088 141.494 175 141.602 175C141.709 175 141.797 175.088 141.797 175.195ZM141.797 177.93C141.797 178.037 141.885 178.125 141.992 178.125C142.1 178.125 142.188 178.037 142.188 177.93C142.188 177.822 142.1 177.734 141.992 177.734C141.885 177.734 141.797 177.822 141.797 177.93ZM138.672 184.57C138.672 184.678 138.584 184.766 138.477 184.766C138.369 184.766 138.281 184.678 138.281 184.57C138.281 184.463 138.369 184.375 138.477 184.375C138.584 184.375 138.672 184.463 138.672 184.57ZM137.891 191.992C137.891 192.1 137.979 192.188 138.086 192.188C138.193 192.188 138.281 192.1 138.281 191.992C138.281 191.885 138.193 191.797 138.086 191.797C137.979 191.797 137.891 191.885 137.891 191.992Z"/>
</mask>
<path fill-rule="evenodd" clip-rule="evenodd" d="M0 100V200H69.1406C115.104 200 138.281 199.935 138.281 199.805C138.281 199.697 138.018 199.609 137.695 199.609C137.014 199.609 136.951 199.42 137.5 199.023C137.715 198.869 137.891 198.586 137.891 198.394C137.891 197.997 137.576 197.924 137.445 198.291C137.397 198.425 137.288 198.47 137.203 198.39C137.117 198.31 137.259 198.056 137.518 197.827C137.832 197.547 137.907 197.379 137.744 197.321C137.359 197.182 137.46 196.875 137.891 196.875C138.362 196.875 138.381 196.751 137.971 196.341C137.711 196.081 137.633 196.075 137.493 196.301C137.401 196.449 137.263 196.508 137.186 196.431C137.11 196.354 137.259 196.103 137.518 195.873C137.832 195.594 137.907 195.426 137.744 195.368C137.428 195.254 137.428 194.597 137.744 194.45C137.939 194.359 137.939 194.313 137.744 194.222C137.365 194.045 137.456 193.75 137.891 193.75C138.105 193.75 138.281 193.662 138.281 193.555C138.281 193.447 138.105 193.359 137.891 193.359C137.676 193.359 137.5 193.271 137.5 193.164C137.5 193.057 137.676 192.969 137.891 192.969C138.39 192.969 138.384 192.811 137.869 192.364C137.499 192.043 137.487 191.977 137.758 191.707C137.923 191.541 138.196 191.406 138.365 191.406C138.534 191.406 138.672 191.318 138.672 191.211C138.672 191.104 138.584 191.016 138.477 191.016C138.186 191.016 138.232 189.115 138.525 188.996C138.709 188.921 138.697 188.845 138.477 188.687C138.216 188.5 138.216 188.453 138.477 188.266C138.697 188.108 138.709 188.032 138.525 187.957C138.143 187.802 138.239 187.5 138.672 187.5C138.976 187.5 139.062 187.37 139.062 186.914C139.062 186.592 138.975 186.328 138.867 186.328C138.76 186.328 138.672 186.24 138.672 186.133C138.672 186.025 138.848 185.938 139.062 185.938C139.5 185.938 139.621 185.249 139.209 185.101C139.046 185.043 139.121 184.875 139.436 184.595C139.695 184.365 139.844 184.114 139.767 184.038C139.69 183.961 139.549 184.025 139.453 184.18C139.357 184.335 139.216 184.398 139.139 184.322C139.063 184.245 139.19 184.018 139.422 183.816C139.889 183.411 139.976 182.892 139.6 182.758C139.465 182.71 139.426 182.595 139.513 182.503C139.599 182.411 139.745 182.457 139.837 182.606C139.976 182.832 140.054 182.825 140.314 182.565C140.725 182.155 140.706 182.031 140.234 182.031C140.02 182.031 139.844 181.943 139.844 181.836C139.844 181.729 139.932 181.641 140.039 181.641C140.146 181.641 140.234 181.377 140.234 181.055C140.234 180.469 140.515 180.253 140.68 180.713C140.728 180.847 140.842 180.886 140.934 180.8C141.027 180.713 140.973 180.56 140.815 180.458C140.563 180.296 140.563 180.25 140.82 180.078C141.071 179.911 141.073 179.857 140.838 179.705C140.603 179.554 140.608 179.481 140.872 179.217C141.043 179.046 141.321 178.906 141.49 178.906C141.659 178.906 141.797 178.818 141.797 178.711C141.797 178.604 141.709 178.516 141.602 178.516C141.494 178.516 141.406 178.252 141.406 177.93C141.406 177.474 141.493 177.344 141.797 177.344C142.012 177.344 142.188 177.256 142.188 177.148C142.188 177.041 142.1 176.953 141.992 176.953C141.885 176.953 141.797 176.777 141.797 176.562C141.797 176.302 141.927 176.172 142.188 176.172C142.618 176.172 142.72 175.862 142.334 175.73C142.181 175.678 142.336 175.415 142.751 175.024C143.115 174.682 143.352 174.342 143.278 174.268C143.204 174.193 143.064 174.259 142.969 174.414C142.873 174.569 142.732 174.633 142.655 174.556C142.578 174.479 142.705 174.252 142.938 174.051C143.17 173.849 143.359 173.573 143.359 173.438C143.359 173.302 143.557 173.014 143.799 172.799C144.097 172.534 144.16 172.38 143.994 172.321C143.609 172.182 143.71 171.875 144.141 171.875C144.458 171.875 144.531 171.745 144.531 171.178C144.531 170.439 144.887 169.922 145.396 169.922C145.762 169.922 145.807 169.601 145.459 169.476C145.293 169.417 145.356 169.263 145.654 168.997C145.9 168.779 146.094 168.379 146.094 168.092C146.094 167.566 146.387 167.384 146.533 167.821C146.591 167.997 146.702 167.974 146.939 167.737C147.365 167.311 147.351 167.188 146.875 167.188C146.66 167.188 146.484 167.1 146.484 166.992C146.484 166.885 146.66 166.797 146.875 166.797C147.09 166.797 147.266 166.709 147.266 166.602C147.266 166.494 147.441 166.406 147.656 166.406C147.871 166.406 148.047 166.318 148.047 166.211C148.047 166.104 147.959 166.016 147.852 166.016C147.744 166.016 147.656 165.928 147.656 165.82C147.656 165.713 147.832 165.625 148.047 165.625C148.348 165.625 148.438 165.495 148.438 165.055C148.438 164.742 148.328 164.446 148.193 164.398C148.051 164.348 148.022 164.239 148.122 164.138C148.223 164.037 148.332 164.067 148.383 164.209C148.521 164.595 148.828 164.493 148.828 164.062C148.828 163.633 149.138 163.529 149.267 163.914C149.326 164.091 149.437 164.068 149.674 163.83C150.1 163.405 150.085 163.281 149.609 163.281C149.395 163.281 149.219 163.193 149.219 163.086C149.219 162.979 149.395 162.891 149.609 162.891C149.824 162.891 150 162.803 150 162.695C150 162.588 150.176 162.5 150.391 162.5C150.708 162.5 150.781 162.37 150.781 161.803C150.781 161.064 151.137 160.547 151.646 160.547C151.815 160.547 151.953 160.459 151.953 160.352C151.953 160.244 151.865 160.156 151.758 160.156C151.65 160.156 151.562 160.068 151.562 159.961C151.562 159.854 151.738 159.766 151.953 159.766C152.168 159.766 152.344 159.678 152.344 159.57C152.344 159.463 152.479 159.375 152.646 159.375C152.999 159.375 154.002 158.429 153.83 158.258C153.766 158.193 153.537 158.345 153.32 158.594C153.104 158.843 152.875 158.995 152.811 158.931C152.64 158.76 154.038 157.422 154.388 157.422C154.557 157.422 154.688 157.252 154.688 157.031C154.688 156.771 154.818 156.641 155.078 156.641C155.293 156.641 155.469 156.553 155.469 156.445C155.469 156.338 155.607 156.25 155.776 156.25C156.151 156.25 156.738 155.696 156.556 155.514C156.483 155.442 156.346 155.509 156.25 155.664C156.154 155.819 156.018 155.888 155.948 155.818C155.769 155.638 157.149 154.297 157.513 154.297C157.682 154.297 157.812 154.127 157.812 153.906C157.812 153.646 157.943 153.516 158.203 153.516C158.418 153.516 158.594 153.428 158.594 153.32C158.594 153.213 158.77 153.125 158.984 153.125C159.415 153.125 159.516 152.817 159.131 152.68C158.997 152.632 158.952 152.522 159.032 152.437C159.112 152.351 159.354 152.485 159.57 152.734C159.787 152.984 160.026 153.125 160.103 153.048C160.18 152.971 160.116 152.83 159.962 152.735C159.729 152.591 159.755 152.496 160.114 152.185C160.352 151.979 160.547 151.666 160.547 151.491C160.547 151.315 160.703 151.172 160.894 151.172C161.086 151.172 161.369 150.996 161.523 150.781C161.678 150.566 161.961 150.391 162.153 150.391C162.344 150.391 162.5 150.303 162.5 150.195C162.5 150.088 162.676 150 162.891 150C163.151 150 163.281 149.87 163.281 149.609C163.281 149.395 163.369 149.219 163.477 149.219C163.584 149.219 163.672 149.307 163.672 149.414C163.672 149.521 163.76 149.609 163.867 149.609C164.15 149.609 164.107 148.877 163.818 148.773C163.676 148.723 163.647 148.614 163.747 148.513C163.848 148.412 163.957 148.442 164.008 148.584C164.155 148.997 164.661 148.856 165.234 148.242C165.571 147.882 165.977 147.656 166.289 147.656C166.569 147.656 166.797 147.568 166.797 147.461C166.797 147.354 166.709 147.266 166.602 147.266C166.494 147.266 166.406 147.178 166.406 147.07C166.406 146.963 166.575 146.875 166.781 146.875C166.987 146.875 167.194 146.765 167.242 146.631C167.29 146.497 167.405 146.457 167.497 146.544C167.589 146.63 167.538 146.779 167.383 146.875C167.228 146.971 167.16 147.108 167.232 147.18C167.304 147.252 167.812 146.851 168.359 146.289C168.907 145.727 169.414 145.326 169.486 145.398C169.559 145.47 169.491 145.607 169.336 145.703C169.181 145.799 169.113 145.936 169.186 146.009C169.368 146.191 169.922 145.604 169.922 145.229C169.922 144.991 170.141 144.922 170.898 144.922C171.436 144.922 171.875 144.834 171.875 144.727C171.875 144.619 171.699 144.531 171.484 144.531C171.27 144.531 171.094 144.443 171.094 144.336C171.094 144.229 171.27 144.141 171.484 144.141C171.699 144.141 171.875 144.053 171.875 143.945C171.875 143.838 172.227 143.75 172.656 143.75C173.236 143.75 173.438 143.671 173.438 143.443C173.438 143.056 173.996 142.482 174.179 142.679C174.255 142.761 174.207 142.866 174.072 142.914C173.834 142.999 173.716 143.75 173.941 143.75C174.003 143.75 174.402 143.388 174.828 142.944C175.254 142.501 175.662 142.198 175.735 142.271C175.808 142.344 175.741 142.482 175.586 142.578C175.431 142.674 175.365 142.813 175.439 142.887C175.514 142.962 175.832 142.747 176.147 142.41C176.743 141.771 177.249 141.623 177.399 142.041C177.458 142.207 177.612 142.144 177.878 141.846C178.144 141.546 178.489 141.406 178.962 141.406C179.343 141.406 179.7 141.296 179.754 141.162C179.829 140.977 179.902 140.988 180.053 141.205C180.162 141.363 180.323 141.417 180.409 141.325C180.496 141.233 180.457 141.118 180.322 141.07C179.752 140.867 180.15 140.625 181.055 140.625C181.901 140.625 182.031 140.573 182.031 140.234C182.031 139.91 182.162 139.844 182.796 139.844C183.233 139.844 183.597 139.948 183.645 140.088C183.697 140.241 183.96 140.086 184.351 139.671C184.693 139.307 185.033 139.07 185.107 139.144C185.182 139.218 185.116 139.357 184.961 139.453C184.806 139.549 184.742 139.69 184.819 139.767C184.896 139.844 185.147 139.695 185.377 139.436C185.656 139.121 185.824 139.046 185.882 139.209C186.021 139.594 186.328 139.493 186.328 139.062C186.328 138.628 186.623 138.537 186.8 138.916C186.891 139.111 186.937 139.111 187.028 138.916C187.091 138.782 187.31 138.672 187.516 138.672C187.722 138.672 187.891 138.584 187.891 138.477C187.891 138.369 188.066 138.281 188.281 138.281C188.496 138.281 188.672 138.369 188.672 138.477C188.672 138.822 189.358 138.685 189.648 138.281C189.803 138.066 189.998 137.891 190.082 137.891C190.166 137.891 190.234 138.066 190.234 138.281C190.234 138.496 190.322 138.672 190.43 138.672C190.537 138.672 190.625 138.584 190.625 138.477C190.625 138.369 190.944 138.281 191.335 138.281C191.824 138.281 192.165 138.145 192.435 137.842C192.7 137.544 192.854 137.481 192.914 137.646C193.017 137.936 193.75 137.978 193.75 137.695C193.75 137.41 195.262 137.455 195.379 137.744C195.454 137.929 195.533 137.917 195.703 137.695C195.873 137.474 195.953 137.462 196.027 137.646C196.145 137.936 196.875 137.978 196.875 137.695C196.875 137.588 197.219 137.5 197.64 137.5C198.061 137.5 198.456 137.39 198.519 137.256C198.61 137.061 198.656 137.061 198.747 137.256C198.809 137.39 199.029 137.5 199.235 137.5C199.441 137.5 199.609 137.588 199.609 137.695C199.609 137.803 199.697 137.891 199.805 137.891C199.935 137.891 200 114.779 200 68.9453V0H100H0V100ZM106.641 46.6797C106.641 46.798 107.487 46.875 108.789 46.875C110.091 46.875 110.938 46.952 110.938 47.0703C110.938 47.1818 111.523 47.2656 112.305 47.2656C113.086 47.2656 113.672 47.3494 113.672 47.4609C113.672 47.5695 114.193 47.6562 114.844 47.6562C115.495 47.6562 116.016 47.743 116.016 47.8516C116.016 47.959 116.455 48.0469 116.992 48.0469C117.529 48.0469 117.969 48.1348 117.969 48.2422C117.969 48.3496 118.32 48.4375 118.75 48.4375C119.18 48.4375 119.531 48.5254 119.531 48.6328C119.531 48.7402 119.971 48.8281 120.508 48.8281C121.045 48.8281 121.484 48.916 121.484 49.0234C121.484 49.1309 121.748 49.2188 122.07 49.2188C122.393 49.2188 122.656 49.3066 122.656 49.4141C122.656 49.5215 123.008 49.6094 123.438 49.6094C123.867 49.6094 124.219 49.6973 124.219 49.8047C124.219 49.9121 124.482 50 124.805 50C125.127 50 125.391 50.0879 125.391 50.1953C125.391 50.3027 125.654 50.3906 125.977 50.3906C126.299 50.3906 126.562 50.4785 126.562 50.5859C126.562 50.6934 126.826 50.7812 127.148 50.7812C127.471 50.7812 127.734 50.8691 127.734 50.9766C127.734 51.084 127.998 51.1719 128.32 51.1719C128.643 51.1719 128.906 51.2598 128.906 51.3672C128.906 51.4746 129.082 51.5625 129.297 51.5625C129.512 51.5625 129.688 51.6504 129.688 51.7578C129.688 51.8652 129.951 51.9531 130.273 51.9531C130.596 51.9531 130.859 52.041 130.859 52.1484C130.859 52.2559 131.035 52.3438 131.25 52.3438C131.465 52.3438 131.641 52.4316 131.641 52.5391C131.641 52.6465 131.816 52.7344 132.031 52.7344C132.246 52.7344 132.422 52.8223 132.422 52.9297C132.422 53.0371 132.686 53.125 133.008 53.125H133.594V54.4922C133.594 55.2734 133.51 55.8594 133.398 55.8594C133.29 55.8594 133.203 56.3803 133.203 57.0312C133.203 57.6822 133.116 58.2031 133.008 58.2031C132.899 58.2031 132.812 58.724 132.812 59.375C132.812 60.026 132.726 60.5469 132.617 60.5469C132.509 60.5469 132.422 61.0678 132.422 61.7188C132.422 62.3697 132.335 62.8906 132.227 62.8906C132.115 62.8906 132.031 63.4766 132.031 64.2578C132.031 65.0391 131.947 65.625 131.836 65.625C131.727 65.625 131.641 66.1459 131.641 66.7969C131.641 67.4479 131.554 67.9688 131.445 67.9688C131.337 67.9688 131.25 68.4896 131.25 69.1406C131.25 69.7916 131.163 70.3125 131.055 70.3125C130.946 70.3125 130.859 70.8334 130.859 71.4844C130.859 72.1354 130.773 72.6562 130.664 72.6562C130.555 72.6562 130.469 73.1771 130.469 73.8281C130.469 74.4791 130.382 75 130.273 75C130.165 75 130.078 75.5209 130.078 76.1719C130.078 76.8229 129.991 77.3438 129.883 77.3438C129.775 77.3438 129.688 77.5195 129.688 77.7344C129.688 77.9492 129.6 78.125 129.492 78.125C129.385 78.125 129.297 78.0371 129.297 77.9297C129.297 77.8223 129.121 77.7344 128.906 77.7344C128.691 77.7344 128.516 77.6465 128.516 77.5391C128.516 77.4316 128.34 77.3438 128.125 77.3438C127.91 77.3438 127.734 77.2559 127.734 77.1484C127.734 77.041 127.471 76.9531 127.148 76.9531C126.826 76.9531 126.562 76.8652 126.562 76.7578C126.562 76.6504 126.387 76.5625 126.172 76.5625C125.957 76.5625 125.781 76.4746 125.781 76.3672C125.781 76.2598 125.605 76.1719 125.391 76.1719C125.176 76.1719 125 76.084 125 75.9766C125 75.8691 124.736 75.7812 124.414 75.7812C124.092 75.7812 123.828 75.6934 123.828 75.5859C123.828 75.4785 123.652 75.3906 123.438 75.3906C123.223 75.3906 123.047 75.3027 123.047 75.1953C123.047 75.0879 122.783 75 122.461 75C122.139 75 121.875 74.9121 121.875 74.8047C121.875 74.6973 121.611 74.6094 121.289 74.6094C120.967 74.6094 120.703 74.5215 120.703 74.4141C120.703 74.3066 120.439 74.2188 120.117 74.2188C119.795 74.2188 119.531 74.1309 119.531 74.0234C119.531 73.916 119.268 73.8281 118.945 73.8281C118.623 73.8281 118.359 73.7402 118.359 73.6328C118.359 73.5254 118.096 73.4375 117.773 73.4375C117.451 73.4375 117.188 73.3496 117.188 73.2422C117.188 73.1348 116.924 73.0469 116.602 73.0469C116.279 73.0469 116.016 72.959 116.016 72.8516C116.016 72.7441 115.664 72.6562 115.234 72.6562C114.805 72.6562 114.453 72.5684 114.453 72.4609C114.453 72.3535 114.102 72.2656 113.672 72.2656C113.242 72.2656 112.891 72.1777 112.891 72.0703C112.891 71.9629 112.451 71.875 111.914 71.875C111.377 71.875 110.938 71.7871 110.938 71.6797C110.938 71.5711 110.417 71.4844 109.766 71.4844C109.115 71.4844 108.594 71.3977 108.594 71.2891C108.594 71.1719 107.812 71.0938 106.641 71.0938C105.469 71.0938 104.688 71.0156 104.688 70.8984C104.688 70.7812 103.906 70.7031 102.734 70.7031C101.562 70.7031 100.781 70.7812 100.781 70.8984C100.781 71.007 100.26 71.0938 99.6094 71.0938C98.9584 71.0938 98.4375 71.1805 98.4375 71.2891C98.4375 71.3965 98.1738 71.4844 97.8516 71.4844C97.5293 71.4844 97.2656 71.5723 97.2656 71.6797C97.2656 71.7871 97.1318 71.875 96.9684 71.875C96.5816 71.875 94.5312 73.9254 94.5312 74.3121C94.5312 74.4756 94.4434 74.6094 94.3359 74.6094C94.2187 74.6094 94.1406 75.3906 94.1406 76.5625C94.1406 77.7344 94.2187 78.5156 94.3359 78.5156C94.4434 78.5156 94.5312 78.6488 94.5312 78.8117C94.5312 79.1719 97.3523 82.0312 97.7076 82.0312C97.8469 82.0312 98.0873 82.207 98.2422 82.4219C98.3971 82.6367 98.6801 82.8125 98.8713 82.8125C99.0623 82.8125 99.2188 82.9004 99.2188 83.0078C99.2188 83.1152 99.3945 83.2031 99.6094 83.2031C99.8242 83.2031 100 83.291 100 83.3984C100 83.5059 100.176 83.5938 100.391 83.5938C100.605 83.5938 100.781 83.6816 100.781 83.7891C100.781 83.8965 100.957 83.9844 101.172 83.9844C101.387 83.9844 101.562 84.0723 101.562 84.1797C101.562 84.2871 101.738 84.375 101.953 84.375C102.168 84.375 102.344 84.4629 102.344 84.5703C102.344 84.6777 102.607 84.7656 102.93 84.7656C103.252 84.7656 103.516 84.8535 103.516 84.9609C103.516 85.0684 103.691 85.1562 103.906 85.1562C104.121 85.1562 104.297 85.2441 104.297 85.3516C104.297 85.459 104.473 85.5469 104.688 85.5469C104.902 85.5469 105.078 85.6348 105.078 85.7422C105.078 85.8496 105.342 85.9375 105.664 85.9375C105.986 85.9375 106.25 86.0254 106.25 86.1328C106.25 86.2402 106.514 86.3281 106.836 86.3281C107.158 86.3281 107.422 86.416 107.422 86.5234C107.422 86.6309 107.598 86.7188 107.812 86.7188C108.027 86.7188 108.203 86.8066 108.203 86.9141C108.203 87.0215 108.467 87.1094 108.789 87.1094C109.111 87.1094 109.375 87.1973 109.375 87.3047C109.375 87.4121 109.639 87.5 109.961 87.5C110.283 87.5 110.547 87.5879 110.547 87.6953C110.547 87.8027 110.723 87.8906 110.938 87.8906C111.152 87.8906 111.328 87.9785 111.328 88.0859C111.328 88.1934 111.592 88.2812 111.914 88.2812C112.236 88.2812 112.5 88.3691 112.5 88.4766C112.5 88.584 112.764 88.6719 113.086 88.6719C113.408 88.6719 113.672 88.7598 113.672 88.8672C113.672 88.9746 113.848 89.0625 114.062 89.0625C114.277 89.0625 114.453 89.1504 114.453 89.2578C114.453 89.3652 114.717 89.4531 115.039 89.4531C115.361 89.4531 115.625 89.541 115.625 89.6484C115.625 89.7559 115.801 89.8438 116.016 89.8438C116.23 89.8438 116.406 89.9316 116.406 90.0391C116.406 90.1465 116.582 90.2344 116.797 90.2344C117.012 90.2344 117.188 90.3223 117.188 90.4297C117.188 90.5371 117.363 90.625 117.578 90.625C117.793 90.625 117.969 90.7129 117.969 90.8203C117.969 90.9277 118.145 91.0156 118.359 91.0156C118.574 91.0156 118.75 91.1035 118.75 91.2109C118.75 91.3184 118.994 91.4062 119.293 91.4062C119.612 91.4062 119.952 91.5676 120.117 91.7969C120.272 92.0117 120.555 92.1875 120.746 92.1875C120.937 92.1875 121.094 92.2754 121.094 92.3828C121.094 92.4902 121.27 92.5781 121.484 92.5781C121.699 92.5781 121.875 92.666 121.875 92.7734C121.875 92.8809 122.051 92.9688 122.266 92.9688C122.48 92.9688 122.656 93.0566 122.656 93.1641C122.656 93.2715 122.813 93.3594 123.004 93.3594C123.195 93.3594 123.478 93.5352 123.633 93.75C123.788 93.9648 124.071 94.1406 124.262 94.1406C124.453 94.1406 124.609 94.2285 124.609 94.3359C124.609 94.4434 124.766 94.5312 124.957 94.5312C125.148 94.5312 125.431 94.707 125.586 94.9219C125.741 95.1367 125.989 95.3125 126.137 95.3125C126.285 95.3125 126.652 95.5762 126.953 95.8984C127.254 96.2207 127.598 96.4844 127.717 96.4844C128.021 96.4844 133.203 101.699 133.203 102.006C133.203 102.144 133.379 102.384 133.594 102.539C133.809 102.694 133.984 102.958 133.984 103.125C133.984 103.292 134.16 103.556 134.375 103.711C134.59 103.866 134.766 104.149 134.766 104.34C134.766 104.531 134.854 104.688 134.961 104.688C135.068 104.688 135.156 104.863 135.156 105.078C135.156 105.293 135.244 105.469 135.352 105.469C135.459 105.469 135.547 105.645 135.547 105.859C135.547 106.074 135.635 106.25 135.742 106.25C135.85 106.25 135.938 106.426 135.938 106.641C135.938 106.855 136.025 107.031 136.133 107.031C136.24 107.031 136.328 107.207 136.328 107.422C136.328 107.637 136.416 107.812 136.523 107.812C136.631 107.812 136.719 108.076 136.719 108.398C136.719 108.721 136.807 108.984 136.914 108.984C137.021 108.984 137.109 109.248 137.109 109.57C137.109 109.893 137.197 110.156 137.305 110.156C137.412 110.156 137.5 110.508 137.5 110.938C137.5 111.367 137.588 111.719 137.695 111.719C137.804 111.719 137.891 112.24 137.891 112.891C137.891 113.542 137.977 114.062 138.086 114.062C138.205 114.062 138.281 114.974 138.281 116.406C138.281 117.838 138.357 118.75 138.477 118.75C138.584 118.75 138.672 119.102 138.672 119.531C138.672 119.961 138.584 120.312 138.477 120.312C138.356 120.312 138.281 121.354 138.281 123.047C138.281 124.74 138.207 125.781 138.086 125.781C137.979 125.781 137.891 126.221 137.891 126.758C137.891 127.295 137.803 127.734 137.695 127.734C137.588 127.734 137.5 128.174 137.5 128.711C137.5 129.248 137.412 129.688 137.305 129.688C137.197 129.688 137.109 129.951 137.109 130.273C137.109 130.596 137.021 130.859 136.914 130.859C136.807 130.859 136.719 131.123 136.719 131.445C136.719 131.768 136.631 132.031 136.523 132.031C136.416 132.031 136.328 132.295 136.328 132.617C136.328 132.939 136.24 133.203 136.133 133.203C136.025 133.203 135.938 133.379 135.938 133.594C135.938 133.809 135.85 133.984 135.742 133.984C135.635 133.984 135.547 134.248 135.547 134.57C135.547 134.893 135.459 135.156 135.352 135.156C135.244 135.156 135.156 135.332 135.156 135.547C135.156 135.762 135.068 135.938 134.961 135.938C134.854 135.938 134.766 136.094 134.766 136.285C134.766 136.476 134.59 136.759 134.375 136.914C134.16 137.069 133.984 137.352 133.984 137.543C133.984 137.734 133.896 137.891 133.789 137.891C133.682 137.891 133.594 138.031 133.594 138.203C133.594 138.375 133.33 138.762 133.008 139.062C132.686 139.363 132.422 139.713 132.422 139.84C132.422 139.966 132.07 140.407 131.641 140.82C131.211 141.233 130.859 141.668 130.859 141.786C130.859 142.066 128.785 144.141 128.504 144.141C128.386 144.141 127.952 144.492 127.539 144.922C127.126 145.352 126.685 145.703 126.559 145.703C126.432 145.703 126.082 145.967 125.781 146.289C125.48 146.611 125.093 146.875 124.922 146.875C124.75 146.875 124.609 146.963 124.609 147.07C124.609 147.178 124.453 147.266 124.262 147.266C124.071 147.266 123.788 147.441 123.633 147.656C123.478 147.871 123.195 148.047 123.004 148.047C122.813 148.047 122.656 148.135 122.656 148.242C122.656 148.35 122.48 148.438 122.266 148.438C122.051 148.438 121.875 148.525 121.875 148.633C121.875 148.74 121.699 148.828 121.484 148.828C121.27 148.828 121.094 148.916 121.094 149.023C121.094 149.131 120.918 149.219 120.703 149.219C120.488 149.219 120.312 149.307 120.312 149.414C120.312 149.521 120.049 149.609 119.727 149.609C119.404 149.609 119.141 149.697 119.141 149.805C119.141 149.912 118.965 150 118.75 150C118.535 150 118.359 150.088 118.359 150.195C118.359 150.303 118.096 150.391 117.773 150.391C117.451 150.391 117.188 150.479 117.188 150.586C117.188 150.693 116.924 150.781 116.602 150.781C116.279 150.781 116.016 150.869 116.016 150.977C116.016 151.084 115.752 151.172 115.43 151.172C115.107 151.172 114.844 151.26 114.844 151.367C114.844 151.475 114.492 151.562 114.062 151.562C113.633 151.562 113.281 151.65 113.281 151.758C113.281 151.865 112.842 151.953 112.305 151.953C111.768 151.953 111.328 152.041 111.328 152.148C111.328 152.256 110.889 152.344 110.352 152.344C109.814 152.344 109.375 152.432 109.375 152.539C109.375 152.651 108.789 152.734 108.008 152.734C107.227 152.734 106.641 152.818 106.641 152.93C106.641 153.05 105.664 153.125 104.102 153.125C102.539 153.125 101.562 153.2 101.562 153.32C101.562 153.442 100.456 153.516 98.6328 153.516C96.81 153.516 95.7031 153.442 95.7031 153.32C95.7031 153.199 94.6615 153.125 92.9688 153.125C91.276 153.125 90.2344 153.051 90.2344 152.93C90.2344 152.816 89.5834 152.734 88.6719 152.734C87.7604 152.734 87.1094 152.653 87.1094 152.539C87.1094 152.43 86.5885 152.344 85.9375 152.344C85.2865 152.344 84.7656 152.257 84.7656 152.148C84.7656 152.041 84.3262 151.953 83.7891 151.953C83.252 151.953 82.8125 151.865 82.8125 151.758C82.8125 151.65 82.373 151.562 81.8359 151.562C81.2988 151.562 80.8594 151.475 80.8594 151.367C80.8594 151.26 80.5078 151.172 80.0781 151.172C79.6484 151.172 79.2969 151.084 79.2969 150.977C79.2969 150.869 78.9453 150.781 78.5156 150.781C78.0859 150.781 77.7344 150.693 77.7344 150.586C77.7344 150.479 77.3828 150.391 76.9531 150.391C76.5234 150.391 76.1719 150.303 76.1719 150.195C76.1719 150.088 75.8203 150 75.3906 150C74.9609 150 74.6094 149.912 74.6094 149.805C74.6094 149.697 74.3457 149.609 74.0234 149.609C73.7012 149.609 73.4375 149.521 73.4375 149.414C73.4375 149.307 73.1738 149.219 72.8516 149.219C72.5293 149.219 72.2656 149.131 72.2656 149.023C72.2656 148.916 72.002 148.828 71.6797 148.828C71.3574 148.828 71.0938 148.74 71.0938 148.633C71.0938 148.525 70.8301 148.438 70.5078 148.438C70.1855 148.438 69.9219 148.35 69.9219 148.242C69.9219 148.135 69.7461 148.047 69.5312 148.047C69.3164 148.047 69.1406 147.959 69.1406 147.852C69.1406 147.744 68.877 147.656 68.5547 147.656C68.2324 147.656 67.9688 147.568 67.9688 147.461C67.9688 147.354 67.793 147.266 67.5781 147.266C67.3633 147.266 67.1875 147.178 67.1875 147.07C67.1875 146.963 66.9238 146.875 66.6016 146.875C66.2793 146.875 66.0156 146.787 66.0156 146.68C66.0156 146.572 65.8398 146.484 65.625 146.484C65.4102 146.484 65.2344 146.396 65.2344 146.289C65.2344 146.182 65.0586 146.094 64.8438 146.094C64.6289 146.094 64.4531 146.006 64.4531 145.898C64.4531 145.791 64.2773 145.703 64.0625 145.703C63.8477 145.703 63.6719 145.615 63.6719 145.508C63.6719 145.4 63.4961 145.312 63.2812 145.312C63.0664 145.312 62.8906 145.225 62.8906 145.117C62.8906 145.01 62.7525 144.922 62.5838 144.922C61.9953 144.922 61.7188 144.396 61.7188 143.276C61.7188 142.677 61.8066 142.188 61.9141 142.188C62.0227 142.188 62.1094 141.667 62.1094 141.016C62.1094 140.365 62.1961 139.844 62.3047 139.844C62.4162 139.844 62.5 139.258 62.5 138.477C62.5 137.695 62.5838 137.109 62.6953 137.109C62.8039 137.109 62.8906 136.588 62.8906 135.938C62.8906 135.287 62.9773 134.766 63.0859 134.766C63.1945 134.766 63.2812 134.245 63.2812 133.594C63.2812 132.943 63.368 132.422 63.4766 132.422C63.5852 132.422 63.6719 131.901 63.6719 131.25C63.6719 130.599 63.7586 130.078 63.8672 130.078C63.9758 130.078 64.0625 129.557 64.0625 128.906C64.0625 128.255 64.1492 127.734 64.2578 127.734C64.3664 127.734 64.4531 127.213 64.4531 126.562C64.4531 125.912 64.5398 125.391 64.6484 125.391C64.757 125.391 64.8438 124.87 64.8438 124.219C64.8438 123.568 64.9305 123.047 65.0391 123.047C65.1506 123.047 65.2344 122.461 65.2344 121.68C65.2344 120.898 65.3182 120.312 65.4297 120.312C65.5371 120.312 65.625 120.137 65.625 119.922C65.625 119.707 65.7129 119.531 65.8203 119.531C65.9277 119.531 66.0156 119.619 66.0156 119.727C66.0156 119.834 66.1721 119.922 66.3631 119.922C66.5543 119.922 66.8373 120.098 66.9922 120.312C67.1471 120.527 67.4301 120.703 67.6213 120.703C67.8123 120.703 67.9688 120.791 67.9688 120.898C67.9688 121.006 68.1445 121.094 68.3594 121.094C68.5742 121.094 68.75 121.182 68.75 121.289C68.75 121.396 68.9258 121.484 69.1406 121.484C69.3555 121.484 69.5312 121.572 69.5312 121.68C69.5312 121.787 69.707 121.875 69.9219 121.875C70.1367 121.875 70.3125 121.963 70.3125 122.07C70.3125 122.178 70.5762 122.266 70.8984 122.266C71.2207 122.266 71.4844 122.354 71.4844 122.461C71.4844 122.568 71.6602 122.656 71.875 122.656C72.0898 122.656 72.2656 122.744 72.2656 122.852C72.2656 122.959 72.4414 123.047 72.6562 123.047C72.8711 123.047 73.0469 123.135 73.0469 123.242C73.0469 123.35 73.3105 123.438 73.6328 123.438C73.9551 123.438 74.2188 123.525 74.2188 123.633C74.2188 123.74 74.3945 123.828 74.6094 123.828C74.8242 123.828 75 123.916 75 124.023C75 124.131 75.2637 124.219 75.5859 124.219C75.9082 124.219 76.1719 124.307 76.1719 124.414C76.1719 124.521 76.4355 124.609 76.7578 124.609C77.0801 124.609 77.3438 124.697 77.3438 124.805C77.3438 124.912 77.5195 125 77.7344 125C77.9492 125 78.125 125.088 78.125 125.195C78.125 125.303 78.3887 125.391 78.7109 125.391C79.0332 125.391 79.2969 125.479 79.2969 125.586C79.2969 125.693 79.6484 125.781 80.0781 125.781C80.5078 125.781 80.8594 125.869 80.8594 125.977C80.8594 126.084 81.123 126.172 81.4453 126.172C81.7676 126.172 82.0312 126.26 82.0312 126.367C82.0312 126.475 82.2949 126.562 82.6172 126.562C82.9395 126.562 83.2031 126.65 83.2031 126.758C83.2031 126.865 83.5547 126.953 83.9844 126.953C84.4141 126.953 84.7656 127.041 84.7656 127.148C84.7656 127.256 85.1172 127.344 85.5469 127.344C85.9766 127.344 86.3281 127.432 86.3281 127.539C86.3281 127.646 86.7676 127.734 87.3047 127.734C87.8418 127.734 88.2812 127.822 88.2812 127.93C88.2812 128.037 88.7207 128.125 89.2578 128.125C89.7949 128.125 90.2344 128.213 90.2344 128.32C90.2344 128.432 90.8203 128.516 91.6016 128.516C92.3828 128.516 92.9688 128.599 92.9688 128.711C92.9688 128.834 94.3359 128.906 96.6797 128.906C99.0234 128.906 100.391 128.834 100.391 128.711C100.391 128.604 100.83 128.516 101.367 128.516C101.904 128.516 102.344 128.428 102.344 128.32C102.344 128.213 102.607 128.125 102.93 128.125C103.252 128.125 103.516 128.037 103.516 127.93C103.516 127.822 103.672 127.734 103.863 127.734C104.054 127.734 104.337 127.559 104.492 127.344C104.647 127.129 104.89 126.953 105.032 126.953C105.368 126.953 106.25 126.071 106.25 125.736C106.25 125.593 106.426 125.35 106.641 125.195C106.87 125.03 107.031 124.69 107.031 124.371C107.031 124.072 107.119 123.828 107.227 123.828C107.34 123.828 107.422 123.177 107.422 122.266C107.422 121.354 107.34 120.703 107.227 120.703C107.119 120.703 107.031 120.439 107.031 120.117C107.031 119.795 106.943 119.531 106.836 119.531C106.729 119.531 106.641 119.375 106.641 119.184C106.641 118.993 106.465 118.71 106.25 118.555C106.035 118.4 105.859 118.154 105.859 118.009C105.859 117.685 105.383 117.188 105.073 117.188C104.947 117.188 104.598 116.924 104.297 116.602C103.996 116.279 103.628 116.016 103.48 116.016C103.332 116.016 103.085 115.84 102.93 115.625C102.775 115.41 102.492 115.234 102.301 115.234C102.11 115.234 101.953 115.146 101.953 115.039C101.953 114.932 101.777 114.844 101.562 114.844C101.348 114.844 101.172 114.756 101.172 114.648C101.172 114.541 100.996 114.453 100.781 114.453C100.566 114.453 100.391 114.365 100.391 114.258C100.391 114.15 100.215 114.062 100 114.062C99.7852 114.062 99.6094 113.975 99.6094 113.867C99.6094 113.76 99.4336 113.672 99.2188 113.672C99.0039 113.672 98.8281 113.584 98.8281 113.477C98.8281 113.369 98.6523 113.281 98.4375 113.281C98.2227 113.281 98.0469 113.193 98.0469 113.086C98.0469 112.979 97.7832 112.891 97.4609 112.891C97.1387 112.891 96.875 112.803 96.875 112.695C96.875 112.588 96.6992 112.5 96.4844 112.5C96.2695 112.5 96.0938 112.412 96.0938 112.305C96.0938 112.197 95.8301 112.109 95.5078 112.109C95.1855 112.109 94.9219 112.021 94.9219 111.914C94.9219 111.807 94.7461 111.719 94.5312 111.719C94.3164 111.719 94.1406 111.631 94.1406 111.523C94.1406 111.416 93.877 111.328 93.5547 111.328C93.2324 111.328 92.9688 111.24 92.9688 111.133C92.9688 111.025 92.7051 110.938 92.3828 110.938C92.0605 110.938 91.7969 110.85 91.7969 110.742C91.7969 110.635 91.6211 110.547 91.4062 110.547C91.1914 110.547 91.0156 110.459 91.0156 110.352C91.0156 110.244 90.752 110.156 90.4297 110.156C90.1074 110.156 89.8438 110.068 89.8438 109.961C89.8438 109.854 89.5801 109.766 89.2578 109.766C88.9355 109.766 88.6719 109.678 88.6719 109.57C88.6719 109.463 88.4961 109.375 88.2812 109.375C88.0664 109.375 87.8906 109.287 87.8906 109.18C87.8906 109.072 87.627 108.984 87.3047 108.984C86.9824 108.984 86.7188 108.896 86.7188 108.789C86.7188 108.682 86.543 108.594 86.3281 108.594C86.1133 108.594 85.9375 108.506 85.9375 108.398C85.9375 108.291 85.7617 108.203 85.5469 108.203C85.332 108.203 85.1562 108.115 85.1562 108.008C85.1562 107.9 84.9805 107.812 84.7656 107.812C84.5508 107.812 84.375 107.725 84.375 107.617C84.375 107.51 84.1113 107.422 83.7891 107.422C83.4668 107.422 83.2031 107.334 83.2031 107.227C83.2031 107.119 83.0273 107.031 82.8125 107.031C82.5977 107.031 82.4219 106.943 82.4219 106.836C82.4219 106.729 82.2461 106.641 82.0312 106.641C81.8164 106.641 81.6406 106.553 81.6406 106.445C81.6406 106.338 81.4648 106.25 81.25 106.25C81.0352 106.25 80.8594 106.162 80.8594 106.055C80.8594 105.947 80.6836 105.859 80.4688 105.859C80.2539 105.859 80.0781 105.771 80.0781 105.664C80.0781 105.557 79.9217 105.469 79.7307 105.469C79.5395 105.469 79.2564 105.293 79.1016 105.078C78.9467 104.863 78.6637 104.688 78.4725 104.688C78.2814 104.688 78.125 104.6 78.125 104.492C78.125 104.385 77.9686 104.297 77.7775 104.297C77.5863 104.297 77.3033 104.121 77.1484 103.906C76.9936 103.691 76.7299 103.516 76.5625 103.516C76.3951 103.516 76.1314 103.34 75.9766 103.125C75.8217 102.91 75.558 102.734 75.3906 102.734C75.2232 102.734 74.9596 102.559 74.8047 102.344C74.6498 102.129 74.4051 101.953 74.2605 101.953C74.1162 101.953 73.5701 101.514 73.0469 100.977C72.5236 100.439 72.0002 100 71.8834 100C71.6053 100 69.5312 97.9236 69.5312 97.6451C69.5312 97.527 69.1797 97.0926 68.75 96.6797C68.3203 96.2668 67.9688 95.8098 67.9688 95.6639C67.9688 95.518 67.793 95.2721 67.5781 95.1172C67.3633 94.9623 67.1875 94.6986 67.1875 94.5312C67.1875 94.3639 67.0117 94.1002 66.7969 93.9453C66.582 93.7904 66.4062 93.5074 66.4062 93.3162C66.4062 93.1252 66.3184 92.9688 66.2109 92.9688C66.1035 92.9688 66.0156 92.793 66.0156 92.5781C66.0156 92.3633 65.9277 92.1875 65.8203 92.1875C65.7129 92.1875 65.625 92.0117 65.625 91.7969C65.625 91.582 65.5371 91.4062 65.4297 91.4062C65.3223 91.4062 65.2344 91.1426 65.2344 90.8203C65.2344 90.498 65.1465 90.2344 65.0391 90.2344C64.9316 90.2344 64.8438 90.0586 64.8438 89.8438C64.8438 89.6289 64.7559 89.4531 64.6484 89.4531C64.541 89.4531 64.4531 89.1016 64.4531 88.6719C64.4531 88.2422 64.3652 87.8906 64.2578 87.8906C64.1504 87.8906 64.0625 87.627 64.0625 87.3047C64.0625 86.9824 63.9746 86.7188 63.8672 86.7188C63.7598 86.7188 63.6719 86.2793 63.6719 85.7422C63.6719 85.2051 63.584 84.7656 63.4766 84.7656C63.3607 84.7656 63.2812 84.0494 63.2812 83.0078C63.2812 81.9662 63.2018 81.25 63.0859 81.25C62.9658 81.25 62.8906 80.2734 62.8906 78.7109C62.8906 77.1484 62.9658 76.1719 63.0859 76.1719C63.2018 76.1719 63.2812 75.4557 63.2812 74.4141C63.2812 73.3725 63.3607 72.6562 63.4766 72.6562C63.584 72.6562 63.6719 72.2168 63.6719 71.6797C63.6719 71.1426 63.7598 70.7031 63.8672 70.7031C63.9746 70.7031 64.0625 70.3516 64.0625 69.9219C64.0625 69.4922 64.1504 69.1406 64.2578 69.1406C64.3652 69.1406 64.4531 68.877 64.4531 68.5547C64.4531 68.2324 64.541 67.9688 64.6484 67.9688C64.7559 67.9688 64.8438 67.7051 64.8438 67.3828C64.8438 67.0605 64.9316 66.7969 65.0391 66.7969C65.1465 66.7969 65.2344 66.6211 65.2344 66.4062C65.2344 66.1914 65.3223 66.0156 65.4297 66.0156C65.5371 66.0156 65.625 65.752 65.625 65.4297C65.625 65.1074 65.7129 64.8438 65.8203 64.8438C65.9277 64.8438 66.0156 64.668 66.0156 64.4531C66.0156 64.2383 66.1035 64.0625 66.2109 64.0625C66.3184 64.0625 66.4062 63.8867 66.4062 63.6719C66.4062 63.457 66.4941 63.2812 66.6016 63.2812C66.709 63.2812 66.7969 63.1248 66.7969 62.9338C66.7969 62.7426 66.9727 62.4596 67.1875 62.3047C67.4023 62.1498 67.5781 61.8861 67.5781 61.7188C67.5781 61.5514 67.7539 61.2877 67.9688 61.1328C68.1836 60.9779 68.3594 60.7301 68.3594 60.582C68.3594 60.4342 68.623 60.0666 68.9453 59.7656C69.2676 59.4646 69.5312 59.1207 69.5312 59.0014C69.5312 58.882 70.4531 57.8627 71.5797 56.7359C72.7064 55.6094 73.7258 54.6875 73.8451 54.6875C73.9645 54.6875 74.3084 54.4238 74.6094 54.1016C74.9104 53.7793 75.2779 53.5156 75.4258 53.5156C75.5738 53.5156 75.8217 53.3398 75.9766 53.125C76.1314 52.9102 76.3951 52.7344 76.5625 52.7344C76.7299 52.7344 76.9936 52.5586 77.1484 52.3438C77.3033 52.1289 77.5863 51.9531 77.7775 51.9531C77.9686 51.9531 78.125 51.8652 78.125 51.7578C78.125 51.6504 78.3008 51.5625 78.5156 51.5625C78.7305 51.5625 78.9062 51.4746 78.9062 51.3672C78.9062 51.2598 79.082 51.1719 79.2969 51.1719C79.5117 51.1719 79.6875 51.084 79.6875 50.9766C79.6875 50.8691 79.8633 50.7812 80.0781 50.7812C80.293 50.7812 80.4688 50.6934 80.4688 50.5859C80.4688 50.4785 80.6445 50.3906 80.8594 50.3906C81.0742 50.3906 81.25 50.3027 81.25 50.1953C81.25 50.0879 81.4258 50 81.6406 50C81.8555 50 82.0312 49.9121 82.0312 49.8047C82.0312 49.6973 82.2949 49.6094 82.6172 49.6094C82.9395 49.6094 83.2031 49.5215 83.2031 49.4141C83.2031 49.3066 83.4668 49.2188 83.7891 49.2188C84.1113 49.2188 84.375 49.1309 84.375 49.0234C84.375 48.916 84.6387 48.8281 84.9609 48.8281C85.2832 48.8281 85.5469 48.7402 85.5469 48.6328C85.5469 48.5254 85.8105 48.4375 86.1328 48.4375C86.4551 48.4375 86.7188 48.3496 86.7188 48.2422C86.7188 48.1348 87.0703 48.0469 87.5 48.0469C87.9297 48.0469 88.2812 47.959 88.2812 47.8516C88.2812 47.7441 88.7207 47.6562 89.2578 47.6562C89.7949 47.6562 90.2344 47.5684 90.2344 47.4609C90.2344 47.3523 90.7553 47.2656 91.4062 47.2656C92.0572 47.2656 92.5781 47.1789 92.5781 47.0703C92.5781 46.9564 93.2291 46.875 94.1406 46.875C95.0521 46.875 95.7031 46.7936 95.7031 46.6797C95.7031 46.5541 97.6562 46.4844 101.172 46.4844C104.688 46.4844 106.641 46.5541 106.641 46.6797ZM188.672 137.695C188.672 137.803 188.584 137.891 188.477 137.891C188.369 137.891 188.281 137.803 188.281 137.695C188.281 137.588 188.369 137.5 188.477 137.5C188.584 137.5 188.672 137.588 188.672 137.695ZM191.797 137.695C191.797 137.803 191.709 137.891 191.602 137.891C191.494 137.891 191.406 137.803 191.406 137.695C191.406 137.588 191.494 137.5 191.602 137.5C191.709 137.5 191.797 137.588 191.797 137.695ZM198.438 137.612C198.438 137.819 199.041 138.329 199.154 138.216C199.215 138.155 199.129 137.969 198.963 137.802C198.653 137.492 198.438 137.414 198.438 137.612ZM194.531 138.086C194.531 138.193 194.619 138.281 194.727 138.281C194.834 138.281 194.922 138.193 194.922 138.086C194.922 137.979 194.834 137.891 194.727 137.891C194.619 137.891 194.531 137.979 194.531 138.086ZM197.656 138.086C197.656 138.193 197.744 138.281 197.852 138.281C197.959 138.281 198.047 138.193 198.047 138.086C198.047 137.979 197.959 137.891 197.852 137.891C197.744 137.891 197.656 137.979 197.656 138.086ZM181.641 140.039C181.641 140.146 181.465 140.234 181.25 140.234C181.035 140.234 180.859 140.146 180.859 140.039C180.859 139.932 181.035 139.844 181.25 139.844C181.465 139.844 181.641 139.932 181.641 140.039ZM182.422 140.43C182.422 140.537 182.51 140.625 182.617 140.625C182.725 140.625 182.812 140.537 182.812 140.43C182.812 140.322 182.725 140.234 182.617 140.234C182.51 140.234 182.422 140.322 182.422 140.43ZM179.297 140.82C179.297 140.928 179.209 141.016 179.102 141.016C178.994 141.016 178.906 140.928 178.906 140.82C178.906 140.713 178.994 140.625 179.102 140.625C179.209 140.625 179.297 140.713 179.297 140.82ZM177.734 141.211C177.734 141.318 177.646 141.406 177.539 141.406C177.432 141.406 177.344 141.318 177.344 141.211C177.344 141.104 177.432 141.016 177.539 141.016C177.646 141.016 177.734 141.104 177.734 141.211ZM170.703 144.336C170.703 144.443 170.615 144.531 170.508 144.531C170.4 144.531 170.312 144.443 170.312 144.336C170.312 144.229 170.4 144.141 170.508 144.141C170.615 144.141 170.703 144.229 170.703 144.336ZM172.656 144.336C172.656 144.443 172.744 144.531 172.852 144.531C172.959 144.531 173.047 144.443 173.047 144.336C173.047 144.229 172.959 144.141 172.852 144.141C172.744 144.141 172.656 144.229 172.656 144.336ZM164.844 148.242C164.844 148.35 164.756 148.438 164.648 148.438C164.541 148.438 164.453 148.35 164.453 148.242C164.453 148.135 164.541 148.047 164.648 148.047C164.756 148.047 164.844 148.135 164.844 148.242ZM162.891 149.414C162.891 149.521 162.803 149.609 162.695 149.609C162.588 149.609 162.5 149.521 162.5 149.414C162.5 149.307 162.588 149.219 162.695 149.219C162.803 149.219 162.891 149.307 162.891 149.414ZM161.328 150.586C161.328 150.693 161.24 150.781 161.133 150.781C161.025 150.781 160.938 150.693 160.938 150.586C160.938 150.479 161.025 150.391 161.133 150.391C161.24 150.391 161.328 150.479 161.328 150.586ZM158.594 152.539C158.594 152.646 158.506 152.734 158.398 152.734C158.291 152.734 158.203 152.646 158.203 152.539C158.203 152.432 158.291 152.344 158.398 152.344C158.506 152.344 158.594 152.432 158.594 152.539ZM157.422 153.32C157.422 153.428 157.334 153.516 157.227 153.516C157.119 153.516 157.031 153.428 157.031 153.32C157.031 153.213 157.119 153.125 157.227 153.125C157.334 153.125 157.422 153.213 157.422 153.32ZM155.469 155.664C155.469 155.771 155.381 155.859 155.273 155.859C155.166 155.859 155.078 155.771 155.078 155.664C155.078 155.557 155.166 155.469 155.273 155.469C155.381 155.469 155.469 155.557 155.469 155.664ZM154.297 156.445C154.297 156.553 154.209 156.641 154.102 156.641C153.994 156.641 153.906 156.553 153.906 156.445C153.906 156.338 153.994 156.25 154.102 156.25C154.209 156.25 154.297 156.338 154.297 156.445ZM152.344 158.789C152.344 158.896 152.256 158.984 152.148 158.984C152.041 158.984 151.953 158.896 151.953 158.789C151.953 158.682 152.041 158.594 152.148 158.594C152.256 158.594 152.344 158.682 152.344 158.789ZM150.391 161.914C150.391 162.021 150.303 162.109 150.195 162.109C150.088 162.109 150 162.021 150 161.914C150 161.807 150.088 161.719 150.195 161.719C150.303 161.719 150.391 161.807 150.391 161.914ZM144.922 168.945C144.922 169.053 144.834 169.141 144.727 169.141C144.619 169.141 144.531 169.053 144.531 168.945C144.531 168.838 144.619 168.75 144.727 168.75C144.834 168.75 144.922 168.838 144.922 168.945ZM141.797 175.195C141.797 175.303 141.709 175.391 141.602 175.391C141.494 175.391 141.406 175.303 141.406 175.195C141.406 175.088 141.494 175 141.602 175C141.709 175 141.797 175.088 141.797 175.195ZM141.797 177.93C141.797 178.037 141.885 178.125 141.992 178.125C142.1 178.125 142.188 178.037 142.188 177.93C142.188 177.822 142.1 177.734 141.992 177.734C141.885 177.734 141.797 177.822 141.797 177.93ZM138.672 184.57C138.672 184.678 138.584 184.766 138.477 184.766C138.369 184.766 138.281 184.678 138.281 184.57C138.281 184.463 138.369 184.375 138.477 184.375C138.584 184.375 138.672 184.463 138.672 184.57ZM137.891 191.992C137.891 192.1 137.979 192.188 138.086 192.188C138.193 192.188 138.281 192.1 138.281 191.992C138.281 191.885 138.193 191.797 138.086 191.797C137.979 191.797 137.891 191.885 137.891 191.992Z" fill="#9E22E9" stroke="#9E22E9" stroke-width="2" mask="url(#path-1-inside-1)"/>
<path d="M200 200V136.586L171.186 130.469L136.328 152.898V200H200Z" fill="#9E22E9"/>
</svg>
