<svg width="200" height="200" viewBox="0 0 200 200" fill="none" xmlns="http://www.w3.org/2000/svg">
<path d="M125.833 75.1095L162.673 53.9995C163.823 53.3595 164.213 54.1495 164.393 54.9995C164.539 56.0394 164.576 57.0918 164.503 58.1395C164.503 71.6895 164.503 85.2395 164.503 98.7895C156.093 104.319 147.143 108.929 138.503 114.049C134.633 116.339 130.643 118.419 126.713 120.589C124.153 121.159 124.953 119.159 124.953 118.079C124.893 106.299 124.953 94.5195 124.953 82.7295C124.953 81.1595 124.953 79.5795 124.953 77.9995C124.891 77.4831 124.938 76.9595 125.089 76.4619C125.241 75.9644 125.494 75.5038 125.833 75.1095V75.1095Z" fill="#8020BA"/>
<path d="M37.1832 28.5499C38.8932 28.0199 39.9432 29.3699 41.1832 30.0599C48.9632 34.4499 56.6832 38.9399 64.4232 43.3999C67.2699 45.0532 70.1232 46.6966 72.9832 48.3299C73.6934 48.6445 74.2966 49.159 74.7193 49.8107C75.1419 50.4625 75.3657 51.2231 75.3632 51.9999C75.3632 66.3699 75.3632 80.7399 75.3632 95.1099C75.3632 95.2799 75.1632 95.4399 74.8732 95.8899L36.4432 73.5299C35.8783 72.5065 35.6607 71.3275 35.8232 70.1699C35.8232 57.3999 35.8232 44.6299 35.8232 31.8599C35.8632 30.6999 35.0032 28.9399 37.1832 28.5499Z" fill="#9E22E9"/>
<path d="M81.4178 53.4895C88.2778 57.3695 95.0178 61.4895 101.858 65.3595C106.528 68.0295 111.208 70.7095 115.958 73.2695C117.061 73.8162 118.046 74.5738 118.858 75.4995C120.018 76.1395 119.798 77.2695 119.798 78.2995C119.798 91.6328 119.798 104.966 119.798 118.299C119.798 119.299 120.068 120.459 118.868 121.089C106.041 114.029 93.3378 106.726 80.7578 99.1795C80.2478 96.8995 80.5378 94.5795 80.5278 92.2695C80.5278 80.4828 80.5278 68.6928 80.5278 56.8995C80.5478 55.7395 79.9278 54.3095 81.4178 53.4895Z" fill="#9E22E9"/>
<path d="M118.001 172.001C108.215 166.461 98.4279 160.914 88.6413 155.361C85.9913 153.851 83.4013 152.251 80.7813 150.691C80.2813 148.301 80.5713 145.871 80.5613 143.471C80.5613 131.691 80.5613 119.911 80.5613 108.131C80.5613 106.991 80.2713 105.811 80.8513 104.721C89.0013 109.181 96.9313 114.001 105.001 118.611C109.841 121.401 114.661 124.221 119.531 126.981C119.819 127.545 119.92 128.185 119.821 128.811C119.821 142.471 119.821 156.137 119.821 169.811C119.781 170.921 120.301 172.701 118.001 172.001Z" fill="#9E22E9"/>
<path d="M37.1772 28.5511C35.9672 29.5511 36.4672 30.9011 36.4672 32.0911C36.4672 45.9011 36.4672 59.7211 36.4672 73.5311C34.9972 73.2211 35.1572 72.1011 35.1572 71.0011C35.1572 56.9211 35.1572 42.8411 35.1572 28.7611C35.1572 28.1911 34.7972 27.2711 35.5072 27.1011C36.4172 26.9311 37.0572 27.5711 37.1772 28.5511Z" fill="#9E22E9"/>
<path d="M164.478 98.7995C163.668 97.6695 163.878 96.3795 163.878 95.1195C163.878 82.4495 163.878 69.7695 163.878 57.1195C163.878 56.0195 164.638 54.4495 162.708 53.9995C163.518 53.7595 164.898 51.3295 164.908 54.3895C164.978 68.9295 164.908 83.4795 164.908 98.0195C164.878 98.2695 164.618 98.5295 164.478 98.7995Z" fill="#8020BA"/>
<path d="M125.83 75.1106C125.399 76.4002 125.18 77.751 125.18 79.1106C125.18 91.8606 125.18 104.601 125.18 117.341C125.18 118.571 124.52 120.251 126.64 120.591C125.38 121.831 124.49 122.391 124.49 119.811C124.49 105.731 124.49 91.6506 124.49 77.5806C124.56 76.5306 124.4 75.4206 125.83 75.1106Z" fill="#8020BA"/>
<path d="M118 172C120.13 171.7 119.5 170 119.5 168.78C119.5 154.86 119.5 140.94 119.5 127.02C120.5 127.53 120.1 128.49 120.1 129.25C120.1 143.05 120.1 156.847 120.1 170.64C120.13 172.19 120.29 174.06 118 172Z" fill="#9E22E9"/>
<path d="M118.868 121.12C119.399 120.085 119.618 118.918 119.498 117.76C119.498 104.8 119.498 91.8336 119.498 78.8603C119.6 77.7026 119.378 76.5395 118.858 75.5003C120.488 75.1903 120.118 76.4103 120.118 77.2303C120.118 91.2303 120.118 105.23 120.118 119.23C120.108 120.07 120.588 121.39 118.868 121.12Z" fill="#9E22E9"/>
<path d="M81.4226 53.49C80.5726 54.72 80.8326 56.13 80.8326 57.49C80.8326 71.39 80.8093 85.29 80.7626 99.19C79.6926 98.59 80.0026 97.55 79.9926 96.64C79.9926 82.82 79.9926 69 80.0526 55.18C80.0526 54.63 78.7026 52.13 81.4226 53.49Z" fill="#9E22E9"/>
<path d="M80.8226 104.68C80.8226 120.013 80.7993 135.347 80.7526 150.68C79.7526 150.06 79.9926 149.03 79.9926 148.12C79.9926 134.213 79.9926 120.307 79.9926 106.4C79.9926 105.8 79.7626 105.14 80.2926 104.62C80.332 104.603 80.3746 104.594 80.4176 104.594C80.4606 104.594 80.5032 104.603 80.5426 104.62C80.6383 104.627 80.7326 104.647 80.8226 104.68Z" fill="#9E22E9"/>
</svg>
