<svg width="200" height="200" viewBox="0 0 200 200" fill="none" xmlns="http://www.w3.org/2000/svg">
<path d="M192 20.4393C190.76 22.2793 189.74 24.2493 188.63 26.1593L122.73 140.289C115.303 153.149 107.877 166.016 100.45 178.889C100.31 179.119 100.16 179.359 99.9501 179.719L8.00006 20.3193H45.0001C46.0901 21.9493 47.0001 23.6893 48.0001 25.3893L57.4701 41.7793L67.4701 59.1093C70.7501 64.7893 74.0301 70.456 77.3101 76.1093C80.8901 82.436 84.4934 88.7327 88.1201 94.9993C91.9334 101.599 95.7401 108.193 99.5401 114.779C99.6701 114.989 99.7201 115.329 100 115.329C100.28 115.329 100.34 114.989 100.47 114.779C104.003 108.646 107.54 102.519 111.08 96.3993L123.57 74.7493C127.05 68.716 130.527 62.6827 134 56.6493C138 49.7427 142 42.8393 146 35.9393C148.89 30.9393 151.81 25.9393 154.69 20.8693C154.791 20.6619 154.93 20.4753 155.1 20.3193H191.3H192.06L192 20.4393Z" fill="#9E22E9"/>
<path d="M155.077 20.3208C154.56 21.568 153.92 22.7605 153.167 23.8808C148.694 31.6608 144.204 39.4375 139.697 47.2108L120.137 81.0808C113.584 92.4142 107.027 103.771 100.467 115.151C100.347 115.371 100.197 115.721 100.037 115.741C99.8771 115.761 99.6571 115.381 99.5271 115.151C92.6871 103.331 85.8438 91.5141 78.9971 79.7008C73.2038 69.6208 67.4038 59.5408 61.5971 49.4608C56.1304 39.9808 50.6538 30.4942 45.1671 21.0008C45.011 20.7964 44.9235 20.5479 44.9171 20.2908H63.4771C68.3071 20.2908 73.1371 20.2908 77.9771 20.2908C78.222 20.2714 78.4669 20.3283 78.6781 20.4536C78.8894 20.579 79.0567 20.7666 79.1571 20.9908C85.9371 32.7642 92.7271 44.5308 99.5271 56.2908L99.9271 56.9708C100.247 56.8608 100.307 56.5608 100.437 56.3408C107.25 44.5475 114.054 32.7675 120.847 21.0008C120.943 20.7737 121.109 20.5837 121.322 20.4593C121.535 20.3349 121.782 20.2828 122.027 20.3108C132.787 20.3108 143.55 20.3108 154.317 20.3108L155.077 20.3208Z" fill="#8020BA"/>
</svg>
