<svg width="200" height="200" viewBox="0 0 200 200" fill="none" xmlns="http://www.w3.org/2000/svg">
<path d="M46.3799 125C42.8762 122.518 39.7657 120.368 36.6909 118.113C35.4019 117.153 33.9295 116.667 32.4364 116.705C25.0117 116.796 17.5752 116.705 10.1505 116.705C5.53844 116.705 3 113.511 3 107.623V83.6009C3 78.3788 5.57419 75.0185 9.63808 75.0034H62.85C63.6513 74.9732 64.4496 75.1458 65.1979 75.5113C65.9462 75.8769 66.6298 76.4279 67.2088 77.1322C67.7878 77.8366 68.2507 78.6803 68.5703 79.6142C68.8901 80.5482 69.0602 81.5534 69.071 82.5716C69.1663 91.3357 69.1544 100.116 69.071 108.895C69.0856 109.957 68.9271 111.012 68.6052 111.993C68.2834 112.974 67.8053 113.86 67.2009 114.595C66.5964 115.329 65.8788 115.898 65.0931 116.263C64.3074 116.63 63.4707 116.784 62.6355 116.72C56.9031 116.72 51.1708 116.72 45.4265 116.72C43.9726 116.72 43.7581 117.144 44.3778 118.764C44.9975 120.383 45.6053 122.548 46.3799 125Z" fill="#9A5C8E"/>
<path d="M109.077 92.8657C108.743 97.1342 108.314 101.402 108.1 105.686C108.005 107.578 107.421 107.941 106.062 107.881C103.178 107.744 103.166 107.881 103.5 104.323C104.06 98.5117 104.691 92.6992 105.168 86.8565C105.335 84.9342 105.847 84.3136 107.444 84.3742C111.735 84.5407 111.747 84.3742 112.676 89.6568C113.058 91.8213 113.415 93.9859 113.868 96.6347C114.535 92.9112 115.155 89.6871 115.656 86.4479C115.882 85.025 116.216 84.3742 117.527 84.3742C122.544 84.3742 122.532 84.3742 123.188 90.671C123.783 96.3169 124.379 101.962 124.999 107.623C124.798 107.71 124.59 107.775 124.379 107.82C119.946 108.123 119.97 108.108 119.612 102.462C119.411 99.306 119.065 96.1675 118.575 93.0625C117.765 97.2553 116.907 101.448 116.192 105.671C115.93 107.184 115.632 107.926 114.226 107.911C112.819 107.896 112.176 107.396 111.842 105.61C111.103 101.357 110.197 97.1494 109.363 92.9263L109.077 92.8657Z" fill="#010101"/>
<path d="M131.419 94.1061C131.121 97.9508 130.752 101.796 130.549 105.64C130.466 107.305 130.096 107.911 128.714 107.881C125.556 107.881 125.532 107.881 125.913 104.081C126.521 98.0264 127.212 92.1232 127.736 86.114C127.868 84.6004 128.273 84.4187 129.298 84.4036C134.303 84.2825 134.303 84.2522 135.256 90.3674C135.554 92.2746 135.864 94.1818 136.281 96.7096C136.949 92.9254 137.533 89.7165 138.057 86.5075C138.295 84.9939 138.677 84.1917 140.071 84.3884C141.465 84.5852 143.563 83.7981 144.636 84.7366C145.708 85.675 145.315 88.3693 145.529 90.3068C146.137 95.6197 146.721 100.903 147.305 106.261C147.436 107.396 147.305 107.775 146.244 107.865C142.586 108.047 142.55 108.123 142.085 103.491C141.833 100.105 141.434 96.7401 140.893 93.4098C140.071 97.6329 139.153 101.841 138.51 106.094C138.236 107.85 137.509 107.85 136.472 107.865C135.435 107.881 134.684 107.865 134.398 106.11C133.719 102.038 132.801 98.0416 132.015 94.0001L131.419 94.1061Z" fill="#010101"/>
<path d="M187.648 95.9082C187.648 92.6842 187.648 89.4601 187.648 86.236C187.648 84.9191 187.827 84.3439 189.007 84.3893C191.474 84.5104 193.953 84.5256 196.432 84.3893C198.458 84.2834 197.623 86.1149 197.766 87.2804C197.909 88.4459 197.886 89.7931 196.336 89.5055C195.574 89.3541 194.775 89.5055 193.953 89.5055C193.13 89.5055 192.666 89.7023 192.558 91.0191C192.368 93.3502 193.083 93.8345 194.716 93.6226C195.848 93.4864 197.099 93.0172 197.099 95.7266C197.099 98.436 196.301 98.7539 194.62 98.4663C192.94 98.1787 192.487 98.8296 192.57 100.948C192.642 102.462 193.023 103.007 194.167 102.81C194.564 102.78 194.962 102.78 195.359 102.81C197.743 102.81 198.362 103.824 197.814 106.957C197.671 107.76 197.337 107.82 196.861 107.82C194.12 107.82 191.379 107.82 188.649 107.82C187.684 107.82 187.625 107.245 187.625 106.306C187.66 102.855 187.648 99.3896 187.648 95.9082Z" fill="#010101"/>
<path d="M148.785 96.0141C148.785 92.79 148.785 89.5659 148.785 86.3267C148.785 85.0098 148.928 84.4044 150.132 84.4649C152.611 84.6011 155.09 84.6163 157.568 84.4649C159.511 84.3438 158.76 86.0694 158.76 87.1289C158.76 88.1885 159.213 89.8232 157.497 89.5205C156.913 89.4145 156.305 89.6265 155.733 89.5205C153.803 89.0059 153.636 90.353 153.719 92.2753C153.719 93.3803 154.029 93.789 154.911 93.683C155.304 93.683 155.697 93.683 156.103 93.683C156.519 93.621 156.939 93.7097 157.317 93.9388C157.695 94.168 158.013 94.5284 158.237 94.978C158.46 95.4277 158.578 95.9485 158.578 96.4801C158.578 97.0117 158.459 97.5323 158.236 97.9818C157.711 99.329 156.603 98.4662 155.769 98.5873C154.935 98.7084 153.731 98.2543 153.755 100.464C153.755 102.416 154.172 103.219 155.721 102.901C156.047 102.863 156.373 102.863 156.699 102.901C157.125 102.842 157.557 102.936 157.944 103.172C158.331 103.406 158.658 103.776 158.889 104.236C159.12 104.696 159.244 105.229 159.249 105.774C159.254 106.319 159.138 106.854 158.915 107.321C158.665 108.077 158.2 107.911 157.783 107.911C155.233 107.911 152.694 107.835 150.156 107.911C148.964 107.911 148.785 107.275 148.809 106.004C148.821 102.643 148.785 99.329 148.785 96.0141Z" fill="black"/>
<path d="M183.381 83.8291C186.193 83.8291 187.254 85.7211 186.372 89.0663C186.086 90.1561 185.538 89.5507 185.109 89.5053C180.628 89.0663 178.161 92.8807 179.412 98.3904C179.519 99.1053 179.741 99.7846 180.063 100.386C180.385 100.989 180.799 101.502 181.283 101.893C181.766 102.285 182.307 102.545 182.873 102.661C183.438 102.778 184.017 102.746 184.573 102.568C186.062 102.235 186.312 102.78 186.265 104.505C186.193 108.289 186.181 108.395 183.309 108.38C177.66 108.38 173.775 103.309 173.775 95.8777C173.775 88.4457 177.648 83.8139 183.381 83.8291Z" fill="#010101"/>
<path d="M85.4776 86.598C85.9305 89.2167 85.4776 89.9735 83.6185 89.4891C82.7505 89.2212 81.8361 89.3487 81.0346 89.8494C80.2332 90.3499 79.5955 91.1921 79.2328 92.2288C78.6698 93.4511 78.3881 94.8494 78.4197 96.2648C78.4513 97.6804 78.795 99.0562 79.4116 100.237C79.8612 101.213 80.5536 101.971 81.3799 102.394C82.2061 102.814 83.1194 102.876 83.976 102.568C85.5134 102.098 85.6683 102.855 85.6325 104.505C85.573 108.35 85.5491 108.501 82.5102 108.38C78.78 108.244 75.8006 106.337 74.1679 101.917C73.263 99.7832 72.8604 97.3645 73.0083 94.949C73.1563 92.5334 73.8483 90.2228 75.0021 88.2933C77.3856 84.2065 80.794 83.3286 84.5361 83.934C86.4191 84.267 85.2393 86.0683 85.4776 86.598Z" fill="#010101"/>
<path d="M20.2561 97.0732C18.7426 100.918 17.4913 104.172 16.1565 107.381C15.6267 108.704 14.9874 109.953 14.2497 111.105C12.5812 113.602 11.3656 113.375 10.4361 110.333C9.01706 105.189 7.97963 99.8888 7.33751 94.5C6.86081 91.2608 6.49137 87.9913 6.14576 84.737C5.91932 82.86 6.30068 81.4069 7.99298 81.1042C9.68527 80.8015 10.2931 81.8762 10.5553 83.8591C11.2465 89.066 12.0569 94.2427 12.8315 99.4194C12.9646 100.087 13.1278 100.744 13.3201 101.387L18.5043 88.9146C18.7545 88.3395 18.9691 87.734 19.2432 87.1588C19.4393 86.5836 19.7789 86.1061 20.2094 85.7999C20.6401 85.4935 21.138 85.3754 21.6267 85.4635C22.8184 85.6906 23.1521 86.8409 23.3905 88.0821C23.9268 90.8824 24.4392 93.6978 25.0113 96.4829C25.1943 97.3523 25.4838 98.1799 25.8693 98.935C26.3118 94.3205 27.0654 89.7629 28.1217 85.3122C28.5148 83.8297 29.0134 82.396 29.6114 81.0285C29.7341 80.7058 29.909 80.4199 30.1247 80.189C30.3406 79.9582 30.5922 79.7879 30.8634 79.6894C31.1345 79.5909 31.4191 79.566 31.6982 79.6169C31.9774 79.6676 32.2451 79.7928 32.4836 79.9841C32.7637 80.1135 33.0195 80.3164 33.2343 80.5791C33.449 80.8419 33.618 81.159 33.7303 81.5099C33.8425 81.8607 33.8957 82.2376 33.8863 82.6162C33.8767 82.9948 33.8049 83.3665 33.6753 83.7077C30.9343 92.0176 30.2431 100.766 30.1835 109.652C30.1835 110.968 29.9809 112.164 28.8964 112.679C28.4668 112.848 28.0059 112.844 27.5784 112.665C27.1511 112.487 26.7784 112.141 26.5129 111.68C24.0929 108.424 22.2805 104.519 21.2096 100.252C20.8282 99.374 20.6733 98.4809 20.2561 97.0732Z" fill="#FCFCFC"/>
<path d="M48.7378 94.2883C48.8267 98.5385 47.6813 102.681 45.5201 105.928C44.7266 107.205 43.6556 108.159 42.4395 108.671C41.2234 109.181 39.9161 109.228 38.6794 108.804C37.499 108.485 36.4143 107.746 35.5515 106.674C34.6887 105.603 34.083 104.242 33.8051 102.749C33.1676 100.12 33.0384 97.335 33.4285 94.629C33.8186 91.9229 34.7162 89.3762 36.0456 87.2044C36.8344 85.6122 38.0178 84.3984 39.4096 83.7545C40.8012 83.1104 42.322 83.0727 43.7324 83.6473C45.1423 84.3126 46.3672 85.4893 47.2549 87.0312C48.1426 88.5732 48.6541 90.4124 48.7259 92.3205C48.7736 92.9714 48.7378 93.6374 48.7378 94.2883Z" fill="#FCFCFC"/>
<path d="M65.5908 94.3793C65.6779 96.6538 65.3852 98.9261 64.7321 101.046C64.0789 103.167 63.08 105.089 61.801 106.685C61.0687 107.604 60.177 108.292 59.1976 108.693C58.2182 109.096 57.1783 109.202 56.1611 109.002C55.144 108.801 54.1778 108.301 53.3401 107.542C52.5024 106.782 51.8166 105.784 51.3374 104.626C48.8824 98.9201 50.4674 89.2024 54.4479 85.161C55.3965 84.1391 56.5601 83.4926 57.795 83.3016C59.0298 83.1106 60.2818 83.3833 61.3958 84.0863C64.1249 85.5999 65.1737 88.6274 65.5789 92.1542C65.6245 92.8945 65.6286 93.638 65.5908 94.3793Z" fill="#FDFBFC"/>
<path d="M102.163 90.3975C101.61 88.3978 100.573 86.6716 99.2002 85.4656C97.8278 84.2595 96.1904 83.6354 94.522 83.6823C92.8535 83.7294 91.2395 84.4451 89.9106 85.7273C88.5818 87.0095 87.6061 88.7924 87.1229 90.8213C86.7898 92.4208 86.6334 94.0713 86.6582 95.7256C86.6582 96.8002 86.6582 97.8749 86.7892 98.9345C87.3613 104.52 89.8759 107.911 93.7372 108.35C97.9679 108.849 100.887 106.533 102.163 101.599C103.092 97.958 103.092 94.038 102.163 90.3975ZM96.943 100.782C96.7982 101.479 96.4615 102.089 95.9939 102.5C95.5263 102.911 94.9583 103.096 94.3926 103.022C93.8672 102.987 93.3683 102.716 92.9845 102.259C92.6005 101.802 92.3564 101.187 92.2952 100.524C91.8125 97.7725 91.8125 94.9198 92.2952 92.1685C92.5812 90.6548 93.189 89.3077 94.5595 89.1412C95.93 88.9747 96.7881 90.3521 97.086 92.002C97.3244 93.3491 97.3959 94.7568 97.4912 95.6801C97.5025 97.4051 97.3179 99.1231 96.943 100.782Z" fill="#010101"/>
<path d="M171.237 98.7525C170.963 98.026 170.522 97.4205 171.404 96.7091C172.301 96.0106 172.991 94.9548 173.365 93.7063C173.741 92.4577 173.78 91.0868 173.477 89.8069C173.22 88.5483 172.681 87.4112 171.927 86.533C171.171 85.6546 170.232 85.0726 169.223 84.8572C166.72 84.0096 164.17 84.5696 161.643 84.3426C160.523 84.2518 160.249 84.721 160.261 86.1136C160.32 91.82 160.261 97.5265 160.261 103.219C160.261 107.987 160.261 107.941 163.955 107.76C164.956 107.76 165.326 107.396 165.29 106.064C165.218 103.43 165.29 100.782 165.29 98.1471L165.647 98.0109L168.841 106.367C169.092 107.033 169.223 107.76 170.033 107.729C171.487 107.729 172.941 107.729 174.657 107.729C173.394 104.535 172.309 101.644 171.237 98.7525ZM166.064 94.3478C164.313 94.3478 165.743 92.3649 165.099 91.5173C165.635 90.7605 164.444 89.0955 165.981 89.0652C166.29 89.003 166.606 89.0278 166.906 89.1377C167.206 89.2476 167.484 89.4401 167.72 89.7015C167.955 89.9629 168.143 90.2868 168.268 90.6503C168.394 91.0137 168.455 91.4079 168.448 91.8049C168.52 93.7726 167.256 94.363 166.064 94.3478Z" fill="#010101"/>
<path d="M44.1979 94.9079C44.2335 96.229 44.0503 97.5448 43.6602 98.7703C43.2702 99.996 42.6819 101.104 41.9336 102.023C40.4797 103.673 39.2045 103.37 38.3583 101.175C37.7936 99.2354 37.6879 97.1287 38.0542 95.1142C38.4206 93.0997 39.243 91.2654 40.4201 89.8373C40.623 89.5315 40.8867 89.3004 41.1836 89.168C41.4806 89.0354 41.8001 89.0062 42.109 89.0833C42.4179 89.1607 42.7049 89.3414 42.9402 89.6071C43.1754 89.8727 43.3505 90.2134 43.4471 90.5941C44.0021 91.9183 44.2617 93.41 44.1979 94.9079Z" fill="#995C8E"/>
<path d="M54.6616 97.5427C54.6818 94.788 55.5351 92.1486 57.0451 90.1712C58.4633 88.4002 59.6908 88.7635 60.5608 91.0642C61.125 92.8723 61.2756 94.8461 60.9952 96.7581C60.7147 98.6703 60.0147 100.443 58.9757 101.871C57.3192 103.824 55.901 103.385 55.1383 100.691C54.7831 99.7052 54.6196 98.6254 54.6616 97.5427Z" fill="#9A5C8F"/>
</svg>
