<svg width="200" height="200" viewBox="0 0 200 200" fill="none" xmlns="http://www.w3.org/2000/svg">
<path fill-rule="evenodd" clip-rule="evenodd" d="M2.92507 74.2634C2.00828 74.9387 0.976496 76.208 0.63155 77.0828C-0.230815 79.2725 -0.200846 112.429 0.665189 114.628C2.02418 118.077 4.63085 118.653 19.0978 118.707L32.7256 118.758L37.9243 122.763C40.7835 124.966 43.2079 126.665 43.3119 126.54C43.4153 126.415 43.0715 124.918 42.5474 123.214C42.0226 121.509 41.5939 119.811 41.5939 119.438C41.5939 119.066 46.5712 118.644 52.6542 118.501L63.7151 118.241L65.4979 115.528L67.2814 112.815V96.1738C67.2814 78.058 66.945 75.8234 63.9347 73.961C62.761 73.2341 54.5875 72.9774 33.4614 73.0015C9.17631 73.0298 4.32688 73.23 2.92507 74.2634ZM31.0761 80.1322C31.1782 81.1025 30.7238 84.093 30.0663 86.7778C28.922 91.4522 27.6633 102.426 27.363 110.35C27.2285 113.892 27.1263 114.088 25.4175 114.088C23.2115 114.088 20.176 109.129 18.5308 102.836C17.9388 100.572 17.2905 98.7199 17.0905 98.7199C16.8905 98.7199 16.0605 100.659 15.2465 103.029C11.2209 114.743 8.73962 117.254 6.947 111.427C5.69626 107.362 3.27308 92.6799 2.74282 85.9521C2.35628 81.0485 2.42906 80.5193 3.60885 79.6612C5.63633 78.1876 7.16595 79.8232 7.63444 83.9642C7.85462 85.9122 8.4699 90.6057 9.00139 94.3953L9.96834 101.285L13.1199 93.2141C14.8538 88.7748 16.7027 84.7742 17.2293 84.3231C18.6483 83.107 20.1008 84.2184 20.5283 86.8468C20.7363 88.1227 21.3405 91.2229 21.8714 93.7357L22.8365 98.3046L23.3491 94.1511C24.0879 88.1717 25.1423 82.8719 26.1276 80.1879C26.8389 78.2499 27.3153 77.8977 28.9373 78.1112C30.3874 78.3014 30.9385 78.8222 31.0761 80.1322ZM43.4287 83.6436C47.162 87.3527 47.8268 95.3988 45.0391 103.138C42.6342 109.813 38.5016 112.17 34.2546 109.287C30.3569 106.642 29.355 96.2835 32.2669 88.7341C35.0155 81.6067 39.3762 79.6189 43.4287 83.6436ZM59.6198 82.4582C62.7084 84.211 64.4649 89.3372 64.0594 95.4137C63.4582 104.418 60.0014 110.35 55.355 110.35C49.217 110.35 46.1675 101.718 48.6891 91.4804C49.8255 86.8659 51.5478 84.0083 54.1318 82.4482C56.4896 81.0244 57.0951 81.0261 59.6198 82.4582ZM91.7903 82.7041C87.558 83.8064 85.2406 89.6279 85.7855 97.7887C86.1696 103.543 87.5757 106.828 90.3218 108.386C96.6734 111.99 102.144 106.146 102.142 95.7577C102.14 86.9531 97.5755 81.1972 91.7903 82.7041ZM75.9613 84.618C73.7962 86.4115 71.5987 91.855 71.5761 95.481C71.5259 103.59 76.653 110.253 82.2768 109.385C83.8981 109.135 84.1214 108.758 84.2902 105.989L84.4804 102.873H82.0413C79.0982 102.873 77.0671 99.9909 77.0671 95.8125C77.0671 91.659 79.1001 88.7516 82.0046 88.7516C84.3415 88.7516 84.4064 88.6735 84.4064 85.8441V82.9367L81.1954 82.94C79.0554 82.9417 77.3099 83.5016 75.9613 84.618ZM104.928 83.975C104.622 85.3266 102.751 105.341 102.753 107.235C102.754 108.371 103.277 108.688 105.144 108.688H107.533L107.972 100.734C108.214 96.3591 108.615 93.0886 108.864 93.4658C109.112 93.8429 109.643 96.0202 110.043 98.3046C111.877 108.78 111.845 108.688 113.737 108.688C115.462 108.688 115.527 108.521 116.889 100.589C118.255 92.6401 118.289 92.5512 118.755 95.8125C119.017 97.64 119.397 101.285 119.599 103.912L119.968 108.688H122.37C123.691 108.688 124.772 108.327 124.772 107.886C124.772 106.921 123.067 89.4469 122.601 85.6364C122.276 82.9857 122.212 82.9367 119.023 82.9367H115.775L114.675 89.7899L113.574 96.6432L112.755 91.659C112.305 88.9177 111.791 85.8333 111.615 84.8057C111.335 83.1743 110.904 82.9367 108.228 82.9367C106.309 82.9367 105.075 83.3246 104.928 83.975ZM126.84 95.6048L125.661 108.273L127.725 108.535C128.859 108.68 129.93 108.606 130.103 108.37C130.276 108.135 130.739 104.279 131.13 99.8007L131.842 91.659L133.381 99.966C134.883 108.069 134.966 108.279 136.772 108.522L138.623 108.771L140.08 100.215L141.537 91.659L142.055 98.3046C142.887 108.97 142.79 108.688 145.606 108.688C148.045 108.688 148.065 108.662 147.739 105.989C147.272 102.178 145.567 84.7044 145.567 83.7391C145.567 83.298 144.067 82.9367 142.233 82.9367H138.899L137.828 89.7027C136.663 97.071 136.507 96.9547 135.165 87.7132L134.471 82.9367H131.244H128.018L126.84 95.6048ZM149.645 83.4908C149.42 83.7948 149.237 89.5889 149.237 96.3666V108.688H154.435H159.634V106.196C159.634 103.843 159.498 103.704 157.188 103.704C154.877 103.704 154.741 103.565 154.741 101.212C154.741 98.9176 154.911 98.7199 156.882 98.7199C158.852 98.7199 159.022 98.5222 159.022 96.2278C159.022 93.9334 158.852 93.7357 156.882 93.7357C154.911 93.7357 154.741 93.538 154.741 91.2436C154.741 88.8903 154.877 88.7516 157.188 88.7516C159.576 88.7516 159.634 88.6826 159.634 85.8441V82.9367H154.843C152.208 82.9367 149.868 83.1859 149.645 83.4908ZM161.469 95.8125V108.688H163.915H166.362L166.392 103.081L166.422 97.4739L168.541 103.081C170.62 108.584 170.705 108.688 173.098 108.688C174.439 108.688 175.536 108.382 175.536 108.006C175.536 107.632 174.746 105.108 173.779 102.399L172.023 97.4739L173.473 95.6447C175.398 93.2174 175.433 88.8579 173.548 86.4597C171.547 83.9136 169.204 82.9367 165.099 82.9367H161.469V95.8125ZM179.575 84.5333C176.746 87.0669 175.448 90.5783 175.448 95.7037C175.448 103.999 178.809 109.031 184.381 109.078L187.462 109.104L187.652 105.989C187.841 102.877 187.839 102.873 185.453 102.873C181.646 102.873 179.494 97.974 181.055 92.8569C181.955 89.9054 183.315 88.7516 185.893 88.7516C187.628 88.7516 187.768 88.5347 187.768 85.8441V82.9367L184.557 82.9425C182.429 82.9458 180.749 83.4824 179.575 84.5333ZM189.603 95.7793V108.688H194.801H200V106.196C200 103.796 199.898 103.704 197.248 103.704C194.598 103.704 194.496 103.612 194.496 101.212C194.496 98.9176 194.666 98.7199 196.636 98.7199C198.675 98.7199 198.777 98.5812 198.777 95.8125C198.777 93.0438 198.675 92.905 196.636 92.905C194.76 92.905 194.496 92.6475 194.496 90.8283C194.496 88.9169 194.717 88.7516 197.286 88.7516C200.067 88.7516 200.077 88.7416 199.886 86.0518L199.694 83.352L194.648 83.1111L189.603 82.8694V95.7793ZM96.074 90.9953C97.5706 96.3441 96.1192 103.704 93.567 103.704C91.9102 103.704 91.134 101.205 91.134 95.8673C91.134 92.3692 91.4282 90.8441 92.3432 89.6014C93.7939 87.6309 95.2887 88.19 96.074 90.9953ZM168.237 88.7806C168.888 89.2541 169.42 90.3623 169.42 91.2436C169.42 92.6126 167.825 94.5664 166.708 94.5664C166.518 94.5664 166.362 93.0712 166.362 91.2436C166.362 87.6376 166.469 87.4964 168.237 88.7806ZM38.1628 89.387C37.0069 90.4262 35.4778 95.1911 35.4778 97.7563C35.4778 99.0987 35.9751 101.031 36.5824 102.049L37.6863 103.902L39.3946 101.906C42.9529 97.7488 41.808 86.1116 38.1628 89.387ZM54.4792 91.1639C52.1594 95.5899 53.1869 104.623 55.8523 103.233C58.3519 101.931 59.9329 92.9856 58.1727 90.1048C56.9679 88.1327 55.9092 88.4367 54.4792 91.1639Z" fill="#9E22E9"/>
</svg>
