<svg width="200" height="200" viewBox="0 0 200 200" fill="none" xmlns="http://www.w3.org/2000/svg">
<path fill-rule="evenodd" clip-rule="evenodd" d="M90.211 0.457188C51.5825 4.17919 17.995 30.7717 5.366 67.6322C-4.6845 96.9662 -0.474501 129.206 16.8015 155.204C36.6205 185.029 71.9495 202.377 106.978 199.484C138.466 196.884 165.8 180.942 182.903 155.204C205.287 121.52 205.306 78.1932 182.951 44.6487C162.505 13.9667 126.762 -3.06531 90.211 0.457188ZM109.747 4.92969C127.686 6.89069 145.748 14.2542 159.102 25.0497C162.963 28.1707 170.623 35.7672 173.823 39.6487C197.169 67.9637 201.923 108.022 185.868 141.149C182.892 147.291 178.296 154.699 174.701 159.149C171.587 163.003 163.988 170.666 160.102 173.871C131.805 197.212 91.726 201.967 58.6025 185.915C38.9555 176.393 23.382 160.819 13.8395 141.149C1.2865 115.273 1.2065 85.1862 13.622 59.0092C18.466 48.7962 24.8735 39.9352 33.4345 31.6097C39.225 25.9792 41.819 23.8742 47.8525 19.9107C65.8535 8.08569 88.494 2.60619 109.747 4.92969ZM90.1025 14.7122C71.2195 17.4757 56.348 24.1582 42.95 35.8992C38.579 39.7292 31.094 48.1622 29.162 51.4322L28.296 52.8987L31.449 52.9052C33.1835 52.9092 39.9805 52.6457 46.554 52.3202L58.505 51.7282L59.429 52.8687C60.6855 54.4207 60.596 56.4957 59.2165 57.7917C58.301 58.6517 57.076 58.9537 52.917 59.3452C50.077 59.6122 47.6965 59.9022 47.626 59.9897C47.4905 60.1592 78.165 151.378 78.4555 151.669C78.55 151.763 82.799 139.31 87.898 123.995L97.1685 96.1487L90.611 78.1967C85.5775 64.4172 83.827 60.1642 83.078 59.8957C82.5415 59.7037 80.3185 59.4002 78.138 59.2212C73.144 58.8117 71.8525 58.0402 71.8525 55.4647C71.8525 54.1907 72.185 53.2532 72.8495 52.6512C73.7945 51.7962 74.525 51.7812 86.7245 52.3617C96.3285 52.8192 101.954 52.8382 108.853 52.4372C121.806 51.6842 122.664 51.7102 123.853 52.8987C125.129 54.1747 125.127 55.9157 123.847 57.5422C123.006 58.6112 122.291 58.8702 119.472 59.1267C117.619 59.2952 115.157 59.5497 114.002 59.6927L111.901 59.9527L127.245 105.64C135.685 130.768 142.632 151.285 142.684 151.234C142.949 150.969 154.239 113.239 155.727 107.649C159.36 93.9932 157.685 83.7402 149.645 70.4312C143.969 61.0372 142.685 57.9047 142.444 52.8707C142.257 48.9552 142.372 48.2307 143.624 45.4402C145.94 40.2802 151.353 36.3987 156.234 36.3987C159.179 36.3987 145.926 27.0452 136.846 22.7147C124.519 16.8362 115.704 14.8277 101.353 14.6282C95.99 14.5532 90.9275 14.5912 90.1025 14.7122ZM175.56 67.9677C175.491 81.3057 176.407 78.0607 156.675 134.88C149.373 155.907 143.502 173.215 143.629 173.342C144.047 173.76 152.011 168.036 156.625 164.002C170.372 151.984 180.204 134.811 183.967 116.247C184.951 111.397 185.099 109.179 185.075 99.6487C185.052 90.3572 184.879 87.8387 183.96 83.4337C182.559 76.7192 180.187 69.4612 177.63 64.0657L175.602 59.7862L175.56 67.9677ZM20.852 66.6487C18.999 71.2017 16.699 78.8182 15.719 83.6472C14.7695 88.3282 14.603 90.7517 14.603 99.8987C14.603 109.06 14.7685 111.466 15.7245 116.177C20.311 138.79 33.268 158.325 52.067 170.971C56.4455 173.917 62.693 177.359 62.2025 176.556C62.0215 176.259 27.213 81.0932 22.094 66.8987L21.463 65.1487L20.852 66.6487ZM88.6025 144.709C81.7275 164.678 76.0375 181.288 75.9575 181.621C75.785 182.341 80.63 183.586 87.9805 184.709C91.85 185.3 95.364 185.427 102.353 185.227C112.013 184.952 117.926 184.06 124.829 181.837C128.271 180.728 128.284 180.717 127.655 179.436C127.307 178.728 121.309 162.455 114.325 143.274C107.342 124.092 101.509 108.399 101.365 108.4C101.22 108.401 95.4775 124.74 88.6025 144.709Z" fill="#9E22E9"/>
</svg>
