<svg width="200" height="200" viewBox="0 0 200 200" fill="none" xmlns="http://www.w3.org/2000/svg">
<path d="M86.1487 79.1314L86.1465 79.1308C84.1142 78.5193 82.0824 77.9387 80.0553 77.3594C76.3193 76.2918 72.5993 75.2288 68.9225 73.9859L68.9219 73.9857C54.4973 69.1314 45.349 57.0285 44.4014 41.8686C44.3017 40.253 44.233 38.6728 44.2921 37.0781L44.2929 37.0551L44.2917 37.0322C44.2767 36.7592 44.3611 36.4901 44.5294 36.2747C44.6977 36.0593 44.9383 35.9121 45.2067 35.8606L45.2419 35.8538L45.2758 35.8421C61.5452 30.2176 76.6626 32.7645 90.8335 42.2845C100.336 48.6992 106.787 57.7174 111.886 67.864L111.886 67.8655C116.797 77.5624 119.949 88.0537 121.194 98.8512C117.707 94.6898 113.545 91.1393 108.879 88.3504C101.761 84.0758 93.9578 81.5212 86.1487 79.1314Z" fill="#9E22E9" stroke="#9E22E9"/>
<path d="M124.205 98.8251C123.999 95.9106 123.749 92.8967 123.353 89.8961L123.353 89.896C122.026 79.8391 118.95 70.3569 115.436 60.9858L115.431 60.9726L115.425 60.9597C114.405 58.6459 113.649 56.2245 113.171 53.7414C112.495 48.5992 113.737 43.3877 116.661 39.1032L116.665 39.097L116.669 39.0907C120.9 32.4733 126.638 27.8927 134.365 26.0173L134.374 26.0152L134.382 26.0129C135.196 25.785 136.053 25.7549 136.882 25.925C137.71 26.0951 138.485 26.4605 139.144 26.9908L139.151 26.9967L139.159 27.0023C145.238 31.5322 148.487 37.792 150.039 45.0558C152.126 54.9054 149.78 63.9838 145.156 72.7172C140.708 81.107 134.625 88.298 128.085 95.1769L128.082 95.1798C127.085 96.2458 126.011 97.2072 124.905 98.1967C124.673 98.4045 124.439 98.6136 124.205 98.8251Z" fill="#9E22E9" stroke="#9E22E9"/>
<path d="M102.59 89.4002L102.594 89.3936L102.597 89.3869C102.76 89.1021 102.841 89.0502 102.865 89.0402L102.866 89.0401C102.87 89.0384 102.888 89.0309 102.94 89.0384C103 89.047 103.095 89.074 103.239 89.1414C109.924 92.3405 115.882 96.3983 120.48 102.258L120.479 102.258L120.488 102.269C120.79 102.632 121.007 103.058 121.123 103.515C121.24 103.973 121.253 104.45 121.162 104.913L121.16 104.924L121.158 104.936C118.57 122.206 106.438 135.064 89.0981 138.831C88.2002 139.023 87.2927 139.179 86.3723 139.334C86.2971 139.347 86.2218 139.359 86.1464 139.372C85.3034 139.514 84.4496 139.658 83.5975 139.829C83.4507 139.856 83.3526 139.861 83.29 139.855C83.2647 139.853 83.2492 139.85 83.2407 139.847C83.2279 139.824 83.1929 139.739 83.1929 139.51V139.477L83.1886 139.444C82.9429 137.586 82.8829 135.792 82.853 133.999C83.0014 122.212 86.9675 110.79 94.1565 101.448C97.2162 97.612 100.033 93.5882 102.59 89.4002Z" fill="#9E22E9" stroke="#9E22E9"/>
<path d="M41.7834 160.65C41.7834 163.33 41.7834 166 41.7834 168.65C41.7234 172.72 39.1234 175 35.1034 174.56C33.4934 174.39 31.9034 174.14 30.2934 173.96C29.2934 173.84 29.1834 173.36 29.6434 172.55C29.9285 171.93 30.4169 171.425 31.0279 171.119C31.6388 170.814 32.3357 170.726 33.0034 170.87C34.1886 171.126 35.4025 171.224 36.6134 171.16C37.3634 171.1 38.0134 170.86 38.2134 170.03C38.4134 169.2 38.4534 168.62 37.2134 168.8C32.2134 169.51 29.5134 167.13 29.4934 162.07C29.4934 158.79 29.4934 155.51 29.4934 152.23C29.4934 150.94 29.9834 150.92 30.9334 151.23C31.5741 151.414 32.1322 151.813 32.5144 152.359C32.8967 152.905 33.0799 153.565 33.0334 154.23C33.0334 157 33.0334 159.78 33.0334 162.55C33.0834 165.61 34.8134 166.79 37.7634 165.94C38.5434 165.72 38.3034 165.19 38.3034 164.75C38.3034 161.27 38.3034 157.75 38.3034 154.3C38.2796 153.624 38.485 152.96 38.8862 152.416C39.2873 151.871 39.8608 151.478 40.5134 151.3C41.4534 150.95 41.8734 151.05 41.8534 152.21C41.7334 155 41.7834 157.83 41.7834 160.65Z" fill="#9E22E9"/>
<path d="M126.887 160.549C126.887 158.889 126.887 157.219 126.887 155.549C126.887 154.639 127.157 154.299 128.097 154.299C129.037 154.299 129.287 154.729 129.287 155.589C129.287 158.589 129.287 161.649 129.287 164.679C129.287 165.609 128.767 166.839 130.487 167.049C132.207 167.259 133.717 166.749 134.297 165.359C134.56 164.595 134.665 163.785 134.607 162.979C134.607 160.659 134.607 158.329 134.607 155.979C134.607 155.139 134.407 154.249 135.817 154.269C137.227 154.289 136.927 155.109 136.927 155.899C136.927 158.219 136.927 160.539 136.927 162.899C136.927 167.839 134.147 169.989 129.327 168.809C128.515 168.569 127.65 168.569 126.837 168.809C125.862 169.079 124.843 169.157 123.837 169.039C122.711 169.04 121.625 168.617 120.796 167.853C119.968 167.089 119.458 166.042 119.367 164.919C118.927 161.709 119.237 158.469 119.167 155.239C119.167 154.349 119.747 154.339 120.397 154.329C121.047 154.319 121.517 154.539 121.507 155.329C121.507 158.049 121.507 160.779 121.507 163.509C121.567 166.409 123.227 167.599 126.007 166.929C126.677 166.759 126.917 166.509 126.907 165.819C126.867 164.089 126.887 162.319 126.887 160.549Z" fill="#9E22E9"/>
<path d="M96.997 163C96.997 164.56 96.997 166.13 96.997 167.69C96.997 168.6 96.707 168.93 95.777 168.92C94.847 168.91 94.677 168.5 94.687 167.71C94.687 164.636 94.687 161.56 94.687 158.48C94.687 156.56 94.347 156.22 92.557 156.17C90.197 156.1 89.457 156.55 89.407 158.39C89.327 161.39 89.407 164.44 89.407 167.47C89.407 168.28 89.407 168.93 88.267 168.93C87.127 168.93 87.047 168.37 87.057 167.51C87.057 164.88 87.057 162.26 87.057 159.64C87.057 154.93 90.577 152.64 94.967 154.52C95.2422 154.655 95.5451 154.726 95.852 154.726C96.1589 154.726 96.4617 154.655 96.737 154.52C98.3927 153.854 100.235 153.814 101.917 154.41C102.681 154.627 103.352 155.089 103.827 155.725C104.302 156.361 104.555 157.136 104.547 157.93C104.647 161.26 104.607 164.59 104.637 167.93C104.637 168.79 104.177 168.88 103.477 168.93C102.777 168.98 102.307 168.67 102.317 167.8C102.317 164.93 102.317 162.05 102.317 159.18C102.317 156.48 100.527 155.32 97.947 156.3C97.137 156.62 97.017 157.3 97.007 158.03C97.007 159.69 97.007 161.36 97.007 163.03L96.997 163Z" fill="#9E22E9"/>
<path d="M162.65 162.061C162.65 164.241 162.65 165.991 162.65 167.731C162.65 168.731 162.29 168.951 161.4 168.941C160.51 168.931 160.26 168.581 160.27 167.761C160.27 161.861 160.27 155.971 160.27 150.071C160.27 149.211 160.61 148.951 161.44 148.941C162.27 148.931 162.68 149.271 162.66 150.181C162.66 153.001 162.66 155.821 162.66 158.641V160.501L167.41 155.171C167.74 154.801 168.02 154.291 168.6 154.361C169.18 154.431 170.19 153.951 170.54 154.631C170.81 155.151 169.95 155.571 169.54 156.001C168.167 157.554 166.764 159.071 165.33 160.551C164.84 161.061 164.84 161.381 165.33 161.911C166.81 163.631 168.27 165.371 169.66 167.151C170.03 167.631 171.13 168.231 170.41 168.761C170.008 169.025 169.523 169.136 169.045 169.072C168.567 169.007 168.129 168.773 167.81 168.411C167.03 167.481 166.28 166.531 165.52 165.591L162.65 162.061Z" fill="#9E22E9"/>
<path d="M48.1411 159.84C48.1411 162.35 48.0711 164.84 48.1411 167.39C48.2011 168.99 47.1411 168.68 46.2611 168.73C45.3811 168.78 44.5511 168.73 44.5711 167.34C44.6311 162.3 44.6311 157.263 44.5711 152.23C44.5711 150.67 45.5111 150.91 46.4711 150.87C47.4311 150.83 48.1911 150.87 48.1411 152.29C48.0711 154.8 48.1411 157.32 48.1411 159.84Z" fill="#9E22E9"/>
<path d="M58.4326 159.849C58.4326 157.479 58.4326 155.109 58.4326 152.749C58.4326 149.919 59.5226 148.819 62.3626 148.749C63.1626 148.749 63.9626 148.859 64.7726 148.919C65.3926 148.979 65.4226 149.409 65.4326 149.919C65.4457 150.019 65.4356 150.121 65.4031 150.217C65.3705 150.313 65.3164 150.4 65.2449 150.471C65.1734 150.543 65.0864 150.597 64.9906 150.629C64.8949 150.662 64.7929 150.672 64.6926 150.659C63.8826 150.659 63.0826 150.659 62.2726 150.659C60.2726 150.659 60.9226 152.219 60.7626 153.299C60.5726 154.619 61.5226 154.299 62.2226 154.299C62.9226 154.299 63.6326 154.299 64.3326 154.299C65.0326 154.299 65.4226 154.379 65.4126 155.189C65.4026 155.999 65.0926 156.189 64.4126 156.189H64.1126C60.7726 156.289 60.7726 156.289 60.7726 159.579C60.7726 162.249 60.7726 164.919 60.7726 167.579C60.7726 168.509 60.5126 168.949 59.4826 168.929C58.4526 168.909 58.4026 168.309 58.4126 167.549C58.4426 164.999 58.4326 162.419 58.4326 159.849Z" fill="#9E22E9"/>
<path d="M54.559 159.81C54.559 162.39 54.509 164.96 54.559 167.53C54.559 168.81 53.839 168.79 52.999 168.71C52.159 168.63 51.069 169.2 51.079 167.6C51.079 162.4 51.079 157.2 51.079 152.01C51.079 150.41 52.219 151.01 53.009 150.89C53.799 150.77 54.589 150.89 54.549 152.1C54.509 154.67 54.559 157.24 54.559 159.81Z" fill="#9E22E9"/>
<path d="M67.3002 161.9C67.3002 159.98 67.3002 158.07 67.3002 156.16C67.2465 155.834 67.3204 155.499 67.5065 155.225C67.6926 154.952 67.9767 154.76 68.3002 154.69C69.8994 154.24 71.5607 154.051 73.2202 154.13C73.8602 154.13 73.9702 154.5 73.9402 155.01C73.9102 155.52 74.1001 156.08 73.3401 156.18C73.1901 156.18 73.0402 156.18 72.8902 156.18C69.7002 156.4 69.7002 156.4 69.7002 159.56C69.7002 162.23 69.7002 164.9 69.7002 167.56C69.7002 168.48 69.5202 168.95 68.4602 168.93C67.4002 168.91 67.3002 168.44 67.3102 167.61C67.3302 165.72 67.3002 163.81 67.3002 161.9Z" fill="#9E22E9"/>
<path d="M152.3 161.81C152.3 159.9 152.3 157.99 152.3 156.07C152.257 155.752 152.337 155.43 152.523 155.169C152.708 154.907 152.986 154.725 153.3 154.66C154.861 154.244 156.475 154.066 158.09 154.13C158.72 154.13 158.85 154.48 158.82 155C158.79 155.52 158.98 156.07 158.23 156.17C158.08 156.17 157.93 156.17 157.78 156.17C154.58 156.4 154.58 156.4 154.58 159.58C154.58 162.24 154.58 164.91 154.58 167.58C154.58 168.37 154.58 168.92 153.48 168.94C152.38 168.96 152.25 168.41 152.27 167.54C152.32 165.64 152.3 163.73 152.3 161.81Z" fill="#9E22E9"/>
<path d="M46.4199 146.181C47.5599 146.341 48.2199 146.951 48.1599 148.091C48.1676 148.321 48.1267 148.55 48.04 148.763C47.9533 148.976 47.8227 149.169 47.6567 149.328C47.4907 149.487 47.293 149.61 47.0765 149.688C46.8599 149.766 46.6294 149.798 46.3999 149.781C46.16 149.802 45.9183 149.77 45.6918 149.688C45.4652 149.607 45.2591 149.477 45.0879 149.307C44.9166 149.138 44.7843 148.933 44.7 148.708C44.6157 148.482 44.5816 148.241 44.5999 148.001C44.59 147.759 44.6303 147.518 44.7183 147.293C44.8063 147.067 44.94 146.863 45.111 146.692C45.282 146.521 45.4866 146.387 45.7119 146.299C45.9372 146.211 46.1783 146.171 46.4199 146.181V146.181Z" fill="#9E22E9"/>
<path d="M54.6334 148C54.6416 148.242 54.5979 148.484 54.5053 148.709C54.4127 148.933 54.2733 149.136 54.0963 149.302C53.9194 149.469 53.709 149.596 53.4792 149.675C53.2493 149.753 53.0053 149.782 52.7634 149.76C52.2913 149.748 51.8433 149.549 51.5179 149.206C51.1926 148.864 51.0165 148.407 51.0284 147.935C51.0403 147.462 51.2393 147.014 51.5816 146.689C51.9238 146.364 52.3813 146.188 52.8534 146.2C53.0928 146.185 53.3325 146.221 53.5566 146.307C53.7807 146.392 53.9839 146.524 54.1525 146.695C54.3211 146.866 54.4513 147.07 54.5342 147.295C54.6172 147.52 54.651 147.76 54.6334 148V148Z" fill="#9E22E9"/>
<path d="M85.3965 161.74V156C85.3965 155.44 85.4565 154.87 84.6865 154.71C82.6861 154.177 80.6032 154.024 78.5465 154.26C77.5693 154.396 76.6587 154.833 75.9417 155.51C75.2247 156.188 74.7369 157.072 74.5465 158.04C74.0121 160.252 73.9813 162.555 74.4565 164.78C75.0265 167.59 76.7965 168.96 79.6865 169.06C81.2473 169.082 82.8061 168.938 84.3365 168.63C85.1965 168.47 85.4765 168.04 85.4565 167.17C85.3565 165.36 85.3965 163.55 85.3965 161.74ZM82.5365 166.93C79.3865 168.17 76.7965 166.61 76.5365 163.27C76.4197 161.915 76.4431 160.551 76.6065 159.2C76.8765 157.04 77.9465 156.12 80.1365 156.12H80.4365C83.0265 156.18 83.0265 156.18 83.0265 158.74V161.61C83.0265 163.07 83.0265 164.53 83.0265 165.99C82.9965 166.38 83.0865 166.72 82.5365 166.93Z" fill="#9E22E9"/>
<path d="M109.067 162.351H114.517C117.887 162.351 118.127 162.061 117.517 158.661C116.947 155.661 114.767 154.031 111.517 154.151C110.147 154.084 108.805 154.553 107.775 155.458C106.745 156.363 106.107 157.634 105.997 159.001C105.792 160.755 105.792 162.527 105.997 164.281C106.078 165.531 106.617 166.708 107.512 167.585C108.408 168.462 109.595 168.977 110.847 169.031C112.608 169.166 114.379 169.075 116.117 168.761C116.937 168.631 117.257 168.291 117.187 167.481C117.117 166.671 116.437 166.851 115.937 166.871C114.279 167.083 112.604 167.123 110.937 166.991C110.043 166.795 109.257 166.267 108.739 165.513C108.221 164.759 108.009 163.835 108.147 162.931C108.307 162.321 108.657 162.351 109.067 162.351ZM108.427 158.651C108.937 156.711 110.567 155.821 112.797 156.261C113.585 156.464 114.271 156.951 114.723 157.628C115.175 158.305 115.362 159.125 115.247 159.931C115.247 160.521 114.927 160.561 114.487 160.561H109.997C107.997 160.561 107.997 160.481 108.427 158.651V158.651Z" fill="#9E22E9"/>
<path d="M150.449 159.54C150.049 155.91 147.819 154.01 144.259 154.14C140.929 154.26 138.879 156.45 138.729 160.06C138.729 160.56 138.729 161.06 138.729 161.57H138.779C138.729 162.375 138.729 163.184 138.779 163.99C138.849 165.395 139.47 166.716 140.507 167.666C141.544 168.617 142.913 169.121 144.319 169.07C147.639 169.17 149.689 167.55 150.319 164.36C150.607 162.769 150.651 161.143 150.449 159.54V159.54ZM147.999 164.34C147.844 165.155 147.402 165.888 146.752 166.404C146.102 166.92 145.288 167.185 144.458 167.152C143.629 167.118 142.839 166.787 142.234 166.219C141.628 165.651 141.247 164.885 141.159 164.06C140.969 162.509 140.969 160.94 141.159 159.39C141.249 158.569 141.63 157.809 142.232 157.244C142.833 156.68 143.617 156.349 144.441 156.312C145.266 156.274 146.076 156.533 146.727 157.04C147.377 157.548 147.825 158.271 147.989 159.08C148.126 159.973 148.203 160.875 148.219 161.78C148.197 162.637 148.123 163.491 147.999 164.34Z" fill="#9E22E9"/>
</svg>
