<svg width="556" height="460" viewBox="0 0 556 460" fill="none" xmlns="http://www.w3.org/2000/svg">
<path fill-rule="evenodd" clip-rule="evenodd" d="M316 0.5C316 0.775 315.1 1 314 1C312.9 1 312 1.225 312 1.5C312 1.775 311.325 2 310.5 2C309.675 2 309 2.225 309 2.5C309 2.775 308.55 3 308 3C307.45 3 307 3.225 307 3.5C307 3.775 306.6 4 306.111 4C305.621 4 304.896 4.45 304.5 5C304.104 5.55 303.488 6 303.133 6C302.29 6 293 15.2905 293 16.133C293 16.4885 292.55 17.1035 292 17.5C291.45 17.8965 291 18.621 291 19.1105C291 19.5995 290.775 20 290.5 20C290.225 20 290 20.675 290 21.5C290 22.325 289.775 23 289.5 23C289.225 23 289 23.45 289 24C289 24.55 288.775 25 288.5 25C288.225 25 288 25.9 288 27C288 28.1 287.775 29 287.5 29C287.189 29 287 31.8335 287 36.5C287 41.1665 287.189 44 287.5 44C287.775 44 288 44.9 288 46C288 47.1 288.225 48 288.5 48C288.775 48 289 48.675 289 49.5C289 50.325 289.225 51 289.5 51C289.775 51 290 51.45 290 52C290 52.55 290.225 53 290.5 53C290.775 53 291 53.4005 291 53.8895C291 54.379 291.45 55.1035 292 55.5C292.55 55.8965 293 56.531 293 56.91C293 57.2885 293.675 58.2295 294.5 59C295.325 59.7705 296 60.649 296 60.9525C296 61.6415 330.311 96 330.999 96C331.491 96 428 192.258 428 192.75C428 192.887 427.344 193 426.542 193C425.74 193 424.969 193.282 424.829 193.625C424.639 194.095 424.443 194.064 424.038 193.5C423.56 192.834 423.444 192.834 423 193.5C422.556 194.166 422.444 194.166 422 193.5C421.556 192.834 421.44 192.834 420.962 193.5C420.557 194.064 420.361 194.095 420.171 193.625C419.968 193.127 381.365 193 229.5 193C77.6555 193 39.0245 193.127 38.7915 193.625C38.5585 194.125 38.4415 194.125 38.2085 193.625C37.8625 192.883 36 192.779 36 193.5C36 193.785 34.5 194 32.5 194C30.5 194 29 194.215 29 194.5C29 194.775 28.1 195 27 195C25.9 195 25 195.225 25 195.5C25 195.775 24.55 196 24 196C23.45 196 23 196.225 23 196.5C23 196.775 22.55 197 22 197C21.45 197 21 197.225 21 197.5C21 197.775 20.55 198 20 198C19.45 198 19 198.225 19 198.5C19 198.775 18.5995 199 18.1105 199C17.621 199 16.8965 199.45 16.5 200C16.1035 200.55 15.487 201 15.1305 201C14.285 201 8 207.285 8 208.13C8 208.487 7.55 209.104 7 209.5C6.45 209.896 6 210.621 6 211.111C6 211.6 5.775 212 5.5 212C5.225 212 5 212.45 5 213C5 213.55 4.775 214 4.5 214C4.225 214 4 214.45 4 215C4 215.55 3.775 216 3.5 216C3.225 216 3 216.45 3 217C3 217.55 2.775 218 2.5 218C2.225 218 2 218.9 2 220C2 221.1 1.775 222 1.5 222C1.2145 222 1 223.5 1 225.5C1 227.5 0.7855 229 0.5 229C0.225 229 0 229.9 0 231C0 232.1 0.225 233 0.5 233C0.7855 233 1 234.5 1 236.5C1 238.5 1.2145 240 1.5 240C1.775 240 2 240.675 2 241.5C2 242.325 2.225 243 2.5 243C2.775 243 3 243.45 3 244C3 244.55 3.225 245 3.5 245C3.775 245 4 245.45 4 246C4 246.55 4.225 247 4.5 247C4.775 247 5 247.45 5 248C5 248.55 5.225 249 5.5 249C5.775 249 6 249.4 6 249.889C6 250.379 6.45 251.104 7 251.5C7.55 251.896 8 252.513 8 252.87C8 253.715 14.285 260 15.1305 260C15.487 260 16.1035 260.45 16.5 261C16.8965 261.55 17.621 262 18.1105 262C18.5995 262 19 262.225 19 262.5C19 262.775 19.45 263 20 263C20.55 263 21 263.225 21 263.5C21 263.775 21.45 264 22 264C22.55 264 23 264.225 23 264.5C23 264.775 23.45 265 24 265C24.55 265 25 265.225 25 265.5C25 265.775 25.9 266 27 266C28.1 266 29 266.225 29 266.5C29 266.791 30.653 267 32.9585 267C35.636 267 37.011 267.202 37.2085 267.625C37.4415 268.125 37.5585 268.125 37.7915 267.625C38.1375 266.883 40 266.779 40 267.5C40 268.307 417.832 268.182 418.208 267.375C418.441 266.875 418.559 266.875 418.792 267.375C419.138 268.117 421 268.221 421 267.5C421 267.225 421.45 267 422 267C422.55 267 423 267.225 423 267.5C423 267.775 423.9 268 425 268C426.1 268 427 267.775 427 267.5C427 266.75 428.469 266.899 429.304 267.733C429.947 268.376 423.977 274.525 380.269 318.233C352.897 345.605 330.275 368 329.999 368C329.311 368 299 398.358 299 399.047C299 399.35 298.325 400.229 297.5 401C296.675 401.771 296 402.711 296 403.09C296 403.469 295.55 404.104 295 404.5C294.45 404.896 294 405.621 294 406.111C294 406.6 293.775 407 293.5 407C293.225 407 293 407.45 293 408C293 408.55 292.775 409 292.5 409C292.225 409 292 409.675 292 410.5C292 411.325 291.775 412 291.5 412C291.225 412 291 412.9 291 414C291 415.1 290.775 416 290.5 416C290.189 416 290 418.833 290 423.5C290 428.167 290.189 431 290.5 431C290.775 431 291 431.9 291 433C291 434.1 291.225 435 291.5 435C291.775 435 292 435.45 292 436C292 436.55 292.225 437 292.5 437C292.775 437 293 437.675 293 438.5C293 439.325 293.225 440 293.5 440C293.775 440 294 440.4 294 440.889C294 441.379 294.45 442.104 295 442.5C295.55 442.896 296 443.512 296 443.867C296 444.71 305.29 454 306.133 454C306.488 454 307.104 454.45 307.5 455C307.896 455.55 308.621 456 309.111 456C309.6 456 310 456.225 310 456.5C310 456.775 310.45 457 311 457C311.55 457 312 457.225 312 457.5C312 457.775 312.675 458 313.5 458C314.325 458 315 458.225 315 458.5C315 458.775 315.9 459 317 459C318.1 459 319 459.225 319 459.5C319 459.812 322 460 327 460C332 460 335 459.812 335 459.5C335 459.225 335.675 459 336.5 459C337.325 459 338 458.775 338 458.5C338 458.225 338.675 458 339.5 458C340.325 458 341 457.775 341 457.5C341 457.225 341.45 457 342 457C342.55 457 343 456.775 343 456.5C343 456.225 343.45 456 344 456C344.55 456 345 455.775 345 455.5C345 455.225 345.4 455 345.889 455C346.379 455 347.104 454.55 347.5 454C347.896 453.45 348.509 453 348.861 453C349.698 453 548 254.698 548 253.861C548 253.509 548.45 252.896 549 252.5C549.55 252.104 550 251.428 550 251C550 250.572 550.45 249.896 551 249.5C551.587 249.076 552 248.205 552 247.389C552 246.625 552.225 246 552.5 246C552.775 246 553 245.55 553 245C553 244.45 553.225 244 553.5 244C553.775 244 554 243.1 554 242C554 240.9 554.225 240 554.5 240C554.775 240 555 238.875 555 237.5C555 236.125 555.225 235 555.5 235C555.775 235 556 234.325 556 233.5C556 232.675 555.775 232 555.5 232C554.779 232 554.883 230.138 555.625 229.792C556.125 229.559 556.125 229.441 555.625 229.208C555.229 229.023 555 227.836 555 225.958C555 224.319 554.777 223 554.5 223C554.225 223 554 222.1 554 221C554 219.9 553.775 219 553.5 219C553.225 219 553 218.55 553 218C553 217.45 552.775 217 552.5 217C552.225 217 552 216.55 552 216C552 215.45 551.775 215 551.5 215C551.225 215 551 214.55 551 214C551 213.45 550.775 213 550.5 213C550.225 213 550 212.6 550 212.111C550 211.621 549.55 210.896 549 210.5C548.45 210.104 548 209.491 548 209.139C548 208.787 502.662 163.162 447.25 107.749C391.838 52.3375 346.213 7 345.861 7C345.509 7 344.896 6.55 344.5 6C344.104 5.45 343.379 5 342.889 5C342.4 5 342 4.775 342 4.5C342 4.225 341.55 4 341 4C340.45 4 340 3.775 340 3.5C340 3.225 339.55 3 339 3C338.45 3 338 2.775 338 2.5C338 2.225 337.325 2 336.5 2C335.675 2 335 1.775 335 1.5C335 1.225 334.325 1 333.5 1C332.675 1 332 0.775 332 0.5C332 0.1875 329 0 324 0C319 0 316 0.1875 316 0.5Z" fill="#FF39BE"/>
</svg>
