<svg width="642" height="713" viewBox="0 0 642 713" fill="none" xmlns="http://www.w3.org/2000/svg">
<path d="M57.291 281.389C58.3236 279.589 60.0057 278.251 61.9925 277.651C63.9794 277.051 66.1206 277.233 67.9775 278.16C69.8345 279.087 71.2665 280.69 71.9803 282.639C72.694 284.588 72.6354 286.736 71.8165 288.643C71.7055 288.848 67.7662 297.742 66.2664 311.503C64.2664 329.866 67.3561 347.824 75.4188 364.868C75.8775 365.833 76.1417 366.88 76.1961 367.947C76.2505 369.014 76.0942 370.082 75.736 371.089C75.3778 372.096 74.8248 373.023 74.1085 373.816C73.3923 374.609 72.5268 375.253 71.5615 375.712C70.5962 376.171 69.5499 376.435 68.4825 376.49C67.4151 376.544 66.3475 376.388 65.3405 376.029C64.3335 375.671 63.4069 375.118 62.6137 374.402C61.8204 373.686 61.176 372.82 60.7173 371.855C37.9984 323.958 56.2295 283.526 57.0148 281.824C57.1341 281.692 57.2085 281.542 57.291 281.389Z" fill="#74818E"/>
<path d="M336.463 73.7013C338.315 74.7096 339.702 76.3975 340.333 78.4091C340.964 80.4206 340.789 82.5986 339.845 84.4836C338.901 86.3687 337.262 87.8134 335.273 88.5131C333.285 89.2127 331.102 89.1127 329.185 88.2341C328.981 88.1231 320.087 84.1837 306.325 82.684C288.026 80.6727 269.531 83.8498 252.952 91.8521C251.002 92.7782 248.764 92.8917 246.73 92.1676C244.696 91.4434 243.033 89.9409 242.107 87.9907C241.18 86.0405 241.067 83.8022 241.791 81.7683C242.515 79.7344 244.018 78.0715 245.968 77.1454C293.864 54.4265 334.297 72.6576 335.999 73.4429C336.164 73.5392 336.311 73.6188 336.463 73.7013Z" fill="#74818E"/>
<path d="M503.166 439.37C501.182 440.051 499.012 439.939 497.108 439.059C495.204 438.178 493.714 436.596 492.949 434.644C492.183 432.691 492.201 430.518 492.999 428.578C493.797 426.638 495.313 425.081 497.231 424.232C497.445 424.138 506.335 420.18 516.644 410.964C530.421 398.659 540.144 383.249 545.531 365.145C546.149 363.078 547.562 361.342 549.46 360.318C551.359 359.294 553.586 359.065 555.652 359.683C557.719 360.301 559.455 361.715 560.479 363.613C561.504 365.511 561.732 367.739 561.114 369.805C545.937 420.595 505.332 438.443 503.611 439.176C503.498 439.258 503.341 439.322 503.166 439.37Z" fill="#74818E"/>
<path d="M322.66 113.448L321.963 166.344L272.74 159.754L280.441 111.14L322.66 113.448Z" fill="#FDA080"/>
<path d="M317.277 127.68C317.277 127.68 312.928 142.087 307.274 146.153C301.621 150.219 282.677 146.056 282.677 146.056L266.01 172.17L325.518 172.589L327.229 140.57L317.277 127.68Z" fill="#4B4AA1"/>
<path d="M465.293 219.461C465.802 213.314 465.094 207.128 463.211 201.255C461.328 195.381 458.307 189.937 454.32 185.231C450.333 180.526 445.458 176.652 439.973 173.831C434.489 171.01 428.502 169.297 422.356 168.79L225.247 152.492C212.836 151.474 200.528 155.426 191.03 163.48C181.531 171.534 175.621 183.03 174.597 195.441L153.762 447.32L433.928 599.022L465.293 219.461Z" fill="#D4D2D1"/>
<path opacity="0.4" d="M180.528 437.522C187.048 443.324 197.037 442.742 202.838 436.222C208.64 429.702 208.058 419.713 201.538 413.911C195.018 408.11 185.029 408.692 179.227 415.212C173.425 421.732 174.008 431.721 180.528 437.522Z" fill="#808080"/>
<path opacity="0.4" d="M393.277 481.845C399.797 487.647 409.786 487.064 415.587 480.544C421.389 474.024 420.807 464.035 414.287 458.234C407.767 452.432 397.778 453.014 391.976 459.534C386.174 466.054 386.757 476.043 393.277 481.845Z" fill="#808080"/>
<path opacity="0.4" d="M395.632 228.157C402.142 233.97 412.132 233.405 417.945 226.895C423.758 220.385 423.194 210.396 416.684 204.582C410.174 198.769 400.184 199.334 394.371 205.844C388.558 212.354 389.122 222.344 395.632 228.157Z" fill="#808080"/>
<g opacity="0.4">
<path opacity="0.4" d="M265.809 264.356L259.434 243.756L241.283 161.99L247.992 154.392L225.237 152.5C223.152 152.334 221.058 152.303 218.968 152.408C217.182 159.974 215.359 169.627 216.251 174.716C217.845 183.869 243.009 235.256 243.009 235.256C243.009 235.256 243.693 246.803 245.962 249.526C248.231 252.25 259.748 261.271 261.35 263.294C262.952 265.316 265.809 264.356 265.809 264.356Z" fill="#808080"/>
<path opacity="0.4" d="M300.526 218.031C299.208 221.17 302.181 225.654 302.181 225.654L301.773 231.426L306.07 234.52L313.539 228.543L349.544 191.836L370.054 168.013L366.241 164.162L343.996 162.307L310.516 202.807C310.516 202.807 301.845 214.893 300.526 218.031Z" fill="#808080"/>
</g>
<path opacity="0.4" d="M262.44 370.029L232.694 357.836L198.114 359.814L160.088 370.79L170.61 245.882L222.52 266.292L251.577 274.552L287.7 273.389L278.77 376.976C278.032 377.013 277.296 376.894 276.608 376.627C275.781 376.22 262.44 370.029 262.44 370.029Z" fill="#808080"/>
<path d="M261.468 367.947L269.319 279.402C269.357 278.979 269.311 278.551 269.184 278.145C269.057 277.739 268.851 277.362 268.578 277.035C268.304 276.709 267.97 276.439 267.592 276.242C267.215 276.045 266.802 275.925 266.378 275.887L207.948 270.706C207.524 270.667 207.097 270.713 206.692 270.84C206.286 270.967 205.909 271.173 205.583 271.446C205.257 271.719 204.989 272.054 204.792 272.431C204.596 272.808 204.477 273.22 204.441 273.644L196.573 362.206C196.499 363.062 196.767 363.912 197.319 364.57C197.871 365.228 198.661 365.64 199.516 365.716L257.944 370.903C258.37 370.942 258.799 370.896 259.207 370.768C259.615 370.64 259.993 370.432 260.321 370.157C260.648 369.883 260.918 369.546 261.115 369.167C261.312 368.787 261.432 368.373 261.468 367.947Z" fill="#E5E5E5"/>
<path d="M259.841 358.52L266.06 288.374C266.091 288.03 266.054 287.684 265.952 287.355C265.849 287.026 265.683 286.721 265.462 286.456C265.241 286.191 264.97 285.973 264.665 285.813C264.36 285.653 264.026 285.555 263.683 285.524L228.571 282.41C227.877 282.348 227.186 282.564 226.651 283.011C226.116 283.458 225.781 284.099 225.718 284.793L219.499 354.939C219.438 355.632 219.654 356.32 220.1 356.854C220.546 357.387 221.186 357.722 221.879 357.783L256.996 360.9C257.689 360.961 258.378 360.745 258.911 360.299C259.445 359.852 259.779 359.212 259.841 358.52Z" fill="#666666"/>
<path d="M219.269 325.528L220.323 313.655C220.457 312.156 219.349 310.834 217.851 310.7L208.031 309.829C206.533 309.695 205.21 310.803 205.077 312.301L204.022 324.174C203.889 325.673 204.996 326.996 206.495 327.129L216.315 328.001C217.813 328.134 219.136 327.027 219.269 325.528Z" fill="#CBCBCB"/>
<path d="M280.533 374.885L284.912 325.39L289.292 275.894C289.327 275.511 289.268 275.125 289.122 274.77C288.976 274.414 288.746 274.099 288.452 273.851C288.158 273.603 287.809 273.43 287.434 273.346C287.059 273.262 286.669 273.27 286.297 273.369L270.63 277.496C270.283 277.587 269.972 277.784 269.741 278.059C269.509 278.333 269.368 278.673 269.337 279.031L265.376 323.651L261.417 368.278C261.386 368.636 261.465 368.994 261.645 369.305C261.824 369.616 262.094 369.865 262.419 370.017L277.119 376.835C277.468 377.002 277.852 377.082 278.238 377.068C278.624 377.054 279.002 376.946 279.337 376.755C279.673 376.563 279.957 376.293 280.165 375.967C280.373 375.642 280.5 375.27 280.533 374.885Z" fill="white"/>
<path d="M262.441 370.029L277.07 376.815C277.505 376.655 277.884 376.371 278.161 375.998C278.437 375.625 278.6 375.18 278.627 374.717L283.007 325.221L287.386 275.726C287.44 275.266 287.358 274.8 287.152 274.386C286.946 273.972 286.624 273.626 286.225 273.391L270.631 277.497C270.284 277.588 269.973 277.785 269.741 278.059C269.51 278.334 269.369 278.674 269.338 279.032L265.377 323.651L261.418 368.279C261.386 368.641 261.467 369.004 261.65 369.317C261.834 369.631 262.11 369.879 262.441 370.029Z" fill="#808080"/>
<path d="M263.471 365.981L275.29 372.034C275.658 371.861 275.973 371.59 276.198 371.251C276.424 370.912 276.552 370.518 276.569 370.111L280.599 325.025L284.626 279.945C284.681 279.541 284.624 279.13 284.461 278.756C284.298 278.382 284.034 278.061 283.7 277.827L270.963 281.651C270.665 281.756 270.406 281.946 270.216 282.197C270.027 282.449 269.916 282.751 269.898 283.066L266.288 323.724L262.683 364.386C262.641 364.7 262.694 365.019 262.834 365.303C262.974 365.587 263.196 365.823 263.471 365.981Z" fill="#9E22E9"/>
<path d="M197.086 284.067L214.48 289.273C214.48 289.273 222.738 297.712 224.754 298.505C226.771 299.298 240.441 302.358 240.441 302.358C240.441 302.358 241.906 300.23 240.965 299.095C240.023 297.96 233.956 295.3 233.956 295.3C233.956 295.3 236.693 294.601 238.042 294.707C239.061 294.783 247.625 298.414 251.727 300.174C252.324 300.439 252.999 300.469 253.617 300.258C254.235 300.047 254.75 299.611 255.061 299.037C255.362 298.482 255.45 297.836 255.31 297.221C255.169 296.606 254.808 296.063 254.296 295.694L250.022 292.619L251.341 288.34L248.116 284.256L241.633 275.501L230.452 272.749L219.794 274.376L205.679 268.296L197.086 284.067Z" fill="#EAC9B8"/>
<path d="M190.834 351.389L208.461 347.005C208.461 347.005 217.112 338.97 219.166 338.276C221.221 337.581 235.019 335.173 235.019 335.173C235.019 335.173 236.38 337.364 235.382 338.455C234.384 339.545 228.204 341.912 228.204 341.912C228.204 341.912 230.906 342.744 232.255 342.699C233.277 342.669 242.004 339.451 246.185 337.89C246.793 337.664 247.463 337.673 248.064 337.914C248.666 338.156 249.156 338.613 249.439 339.197C249.712 339.766 249.769 340.415 249.598 341.023C249.428 341.631 249.042 342.156 248.513 342.5L244.099 345.369L245.211 349.701L241.781 353.64L234.889 362.076L223.586 364.293L213.016 362.156L198.634 367.563L190.834 351.389Z" fill="#EAC9B8"/>
<path d="M314.419 268.553L326.666 189.756L270.191 180.979L257.944 259.775L314.419 268.553Z" fill="white"/>
<path d="M316.43 268.476L327.978 191.658L275.669 183.795L264.122 260.612L316.43 268.476Z" fill="#C4CCD7"/>
<path d="M319.806 266.986L332.053 188.189L275.578 179.412L263.331 258.209L319.806 266.986Z" fill="white"/>
<path d="M340.741 208.057L332.806 214.442C332.806 214.442 329.672 224.974 326.806 227.431C323.94 229.888 312.935 236.009 311.699 236.61C310.463 237.211 306.352 236.949 305.653 236.57C304.954 236.192 303.056 232.583 304.034 230.313C305.012 228.043 310.083 217.962 310.083 217.962C308.651 218.522 307.188 219.002 305.703 219.401C304.881 219.5 303.138 218.692 303.032 218.173C302.926 217.653 310.346 211.779 312.231 209.966C314.116 208.154 318.774 206.429 319.689 206.157C320.604 205.885 323.99 205.089 323.99 205.089L332.595 197.98L340.741 208.057Z" fill="#FAD1B1"/>
<path d="M245.515 223.826L249.28 233.297C249.28 233.297 246.803 243.982 248.082 247.555C249.361 251.128 253.685 252.553 254.458 253.685C255.231 254.817 262.634 257.772 262.879 258.523C263.78 261.226 264.252 264.607 265.045 266.87C266.446 270.87 268.661 269.752 268.837 268.21C269.112 265.757 267.284 247.564 267.284 247.564C268.252 248.757 269.284 249.897 270.375 250.977C271.044 251.475 272.961 251.61 273.319 251.212C273.677 250.815 270.144 242.019 269.377 239.532C268.611 237.045 265.442 233.223 264.775 232.536C264.108 231.848 261.562 229.498 261.562 229.498L257.587 219.071L245.515 223.826Z" fill="#FAD1B1"/>
<path d="M388.568 364.107L399.479 302.379C400.13 298.694 397.671 295.179 393.986 294.528L356.98 287.986C353.295 287.335 349.78 289.794 349.129 293.479L338.218 355.207C337.566 358.892 340.025 362.407 343.71 363.058L380.716 369.6C384.401 370.251 387.916 367.792 388.568 364.107Z" fill="#4B4AA1"/>
<path d="M336.531 354.924L347.451 293.173C347.847 290.955 349.105 288.984 350.951 287.691C352.797 286.399 355.08 285.89 357.3 286.277L394.309 292.837C396.528 293.233 398.499 294.491 399.792 296.337C401.084 298.183 401.593 300.466 401.206 302.686L390.297 364.415C389.901 366.634 388.643 368.605 386.797 369.898C384.951 371.19 382.668 371.699 380.448 371.312L343.441 364.774C341.22 364.381 339.245 363.123 337.95 361.277C336.655 359.431 336.144 357.146 336.531 354.924ZM397.318 304.847C397.55 303.531 397.25 302.176 396.484 301.081C395.717 299.986 394.548 299.239 393.231 299.006L356.199 292.475C354.883 292.243 353.528 292.543 352.433 293.309C351.338 294.076 350.592 295.246 350.358 296.562L339.94 355.541C339.708 356.857 340.008 358.212 340.775 359.307C341.541 360.402 342.711 361.149 344.027 361.382L381.04 367.909C382.357 368.14 383.711 367.839 384.805 367.073C385.9 366.307 386.647 365.138 386.881 363.823L397.318 304.847Z" fill="#F8FBFC"/>
<path d="M374.815 295.149C374.403 295.077 374.021 294.884 373.719 294.594C373.417 294.305 373.207 293.932 373.116 293.524C373.026 293.115 373.059 292.689 373.211 292.299C373.362 291.909 373.627 291.573 373.97 291.333C374.313 291.093 374.719 290.96 375.138 290.952C375.556 290.943 375.968 291.059 376.32 291.284C376.673 291.51 376.951 291.835 377.119 292.218C377.287 292.602 377.337 293.026 377.263 293.438C377.164 293.989 376.85 294.477 376.392 294.798C375.933 295.119 375.366 295.245 374.815 295.149Z" fill="#D4D2D1"/>
<path opacity="0.4" d="M460.361 279.262L362.787 290.22L356.359 315.506L374.655 317.301L385.231 306.415L420.59 306.034L406.906 398.751L418.549 406.598L449.538 410.197L460.361 279.262Z" fill="#808080"/>
<path d="M365.778 317.045L376.003 309.367C376.252 309.178 376.43 308.91 376.507 308.607C376.583 308.304 376.554 307.984 376.424 307.699L376.341 307.525C376.256 307.337 376.13 307.171 375.971 307.039C375.813 306.907 375.627 306.813 375.426 306.763C375.226 306.714 375.017 306.71 374.816 306.753C374.614 306.796 374.425 306.884 374.262 307.011L364.117 314.868C363.828 315.089 363.639 315.415 363.591 315.775C363.542 316.134 363.639 316.499 363.859 316.787C364.079 317.076 364.405 317.265 364.765 317.314C365.125 317.362 365.489 317.266 365.778 317.045Z" fill="#FDF5EA"/>
<path d="M443.718 330.826C443.967 328.539 444.479 326.288 445.245 324.118C446.407 321.106 449.899 318.37 450.813 315.78C451.726 313.19 450.765 304.951 450.765 304.951L446.439 299.653L438.056 293.314L428.346 301.284C428.346 301.284 425.741 303.271 425.711 308.785C425.681 314.299 428.159 325.595 428.159 325.595L428.045 332.205L443.718 330.826Z" fill="#EAC9B8"/>
<path d="M388.193 310.015L381.991 315.672C381.991 315.672 376.085 317.231 374.656 317.299C373.226 317.367 370.337 314.961 370.337 314.961C370.337 314.961 366.595 316.074 364.365 314.696C362.135 313.319 361.018 307.992 363.365 303.331C365.712 298.671 367.813 293.51 369.054 292.824C370.296 292.137 383.405 292.57 383.405 292.57L397.399 290.73L396.6 308.642L388.193 310.015Z" fill="#EAC9B8"/>
<path d="M323.19 83.8467C323.19 83.8467 348.285 94.4929 352.796 103.954C357.308 113.415 392.939 170.566 393.653 174.153C394.368 177.74 337.635 214.154 337.635 214.154C337.635 214.154 327.13 200.931 327.192 200.177C327.254 199.422 362.089 168.516 362.089 168.516L344.209 150.166L342.645 162.228L317.46 160.141C317.46 160.141 316.534 145.942 317.409 123.146C318.284 100.35 323.19 83.8467 323.19 83.8467Z" fill="#25272E"/>
<path d="M273.345 82.7493C272.861 82.1748 239.565 97.8661 237.567 109.801C235.568 121.737 224.081 166.189 224.979 173.578C225.877 180.967 244.859 229.238 244.859 229.238L261.286 226.067L249.987 179.93L254.948 154.957L283.415 157.306C283.415 157.306 293.796 106.889 273.345 82.7493Z" fill="#25272E"/>
<path d="M213.095 266.495L203.646 291.274L167.338 282.879L161.291 356.019L192.677 346.516L202.181 369.83L140.289 395.046C140.289 395.046 93.8102 387.089 89.6635 384.396C85.5169 381.702 61.0862 348.084 62.8632 318.126C64.6402 288.167 96.6298 263.582 99.9632 259.823C103.297 256.063 149.56 248.08 150.893 248.19C152.226 248.3 213.095 266.495 213.095 266.495Z" fill="#4B4AA1"/>
<path d="M420.774 409.589C438.032 415.136 473.895 432.822 480.473 432.593C489.072 432.296 503.015 428.404 516.028 417.371C516.028 417.371 553.519 360.455 552.505 342.213C551.49 323.972 480.232 278.94 476.858 277.154C473.483 275.367 390.077 289.648 390.077 289.648L393.617 310.426L458.063 307.172L451.322 388.307L442.51 385.057L446.176 327.844L425.026 328.132L413.598 397.748C413.163 400.255 413.649 402.836 414.969 405.012C416.288 407.189 418.35 408.815 420.774 409.589Z" fill="#9E22E9"/>
<path d="M391.772 299.63L393.594 293.468L475.7 276.996L390.072 289.646L391.772 299.63Z" fill="#BA6BF0"/>
<path d="M417.775 408.027C417.675 407.824 415.357 402.995 416.044 397.898C416.744 392.691 428.68 333.631 428.68 333.631L432.646 328.026L425.061 328.132L413.598 397.748C413.269 399.681 413.485 401.666 414.223 403.482C414.961 405.298 416.191 406.872 417.775 408.027Z" fill="#BA6BF0"/>
<path d="M458.058 307.169L522.387 354.156C522.387 354.156 510.539 382.676 503.671 388.721C496.804 394.766 485.639 403.328 485.639 403.328L451.322 388.307L458.058 307.169Z" fill="#B156EE"/>
<path d="M545.163 343.877C545.163 343.877 519.941 348.687 502.588 339.691C485.235 330.696 489.386 340.132 489.386 340.132L522.39 354.151C522.39 354.151 536.497 352.291 545.163 343.877Z" fill="#9E22E9"/>
<path d="M478.078 400.001C478.078 400.001 498.226 406.834 502.331 420.607C502.331 420.607 503.497 406.597 492.434 396.224C481.37 385.851 478.078 400.001 478.078 400.001Z" fill="#B156EE"/>
<path d="M497.918 394.478C497.835 395.044 485.531 387.302 485.531 387.302L481.292 379.571C481.292 379.571 479.615 366.08 479.76 363.794C479.904 361.508 485.484 350.812 485.484 350.812C485.484 350.812 485.673 346.837 487.191 345.689C488.71 344.541 494.84 345.843 494.84 345.843C494.84 345.843 501.202 341.685 513.259 348.478C525.316 355.272 522.26 373.626 522.26 373.626L497.918 394.478Z" fill="#EAC9B8"/>
<path d="M541.025 368.861C541.025 368.861 544.455 366.051 542.817 362.501C541.18 358.951 534.163 359.663 534.163 359.663L541.025 368.861Z" fill="#EAC9B8"/>
<path d="M491.836 404.293C491.836 404.293 489.636 406.56 487.363 405.363C485.09 404.166 482.397 395.989 484.761 392.601C487.126 389.214 491.836 404.293 491.836 404.293Z" fill="#EAC9B8"/>
<path d="M517.992 348.861C517.992 348.861 541.109 358.755 547.677 371.607C554.246 384.458 551.811 393.31 551.811 393.31C551.899 396.631 551.27 399.932 549.967 402.988C548.664 406.043 546.718 408.782 544.261 411.018C535.856 418.622 522.695 422.074 511.852 420.116C501.008 418.158 490.035 406.578 486.298 397.97C482.561 389.363 481.297 379.602 481.297 379.602C481.297 379.602 488.261 387.13 490.63 384.023C490.63 384.023 487.692 364.768 493.18 355.999C498.669 347.23 501.474 346.467 501.474 346.467C501.474 346.467 498.107 359.02 499.433 365.744C499.433 365.744 502.585 350.663 505.939 344.808L509.086 352.171L509.256 348.357C512.132 347.457 515.238 347.636 517.992 348.861Z" fill="#413D68"/>
<path d="M280.109 126.22C280.109 126.22 274.542 124.769 272.266 120.717C269.99 116.664 271.563 112.115 269.193 107.231C266.824 102.347 262.172 92.7688 266.14 85.0387C270.108 77.3086 281.286 75.8876 285.38 72.356C289.473 68.8245 292.498 55.6581 301.583 55.9572C310.668 56.2564 318.12 71.203 327.29 68.9732C336.461 66.7435 343.395 71.5787 345.229 76.6484C348.195 84.8988 345.079 91.9831 336.361 97.4062C327.643 102.829 328.553 109.104 327.808 113.328C327.063 117.551 324.224 123.848 321.973 125.584C319.721 127.321 314.871 126.692 314.871 126.692L280.109 126.22Z" fill="#9E22E9"/>
<path d="M342.656 162.208L344.221 150.146L332.036 135.646C332.036 135.646 328.133 146.055 325.581 147.567C324.387 148.28 320.709 148.748 317.109 149.061C317.225 156.149 317.469 160.127 317.469 160.127L342.656 162.208Z" fill="#25272E"/>
<path d="M283.415 157.307C283.415 157.307 284.048 154.205 284.702 149.171C279.562 148.726 271.096 147.572 267.212 144.695C261.438 140.413 261.111 129.611 261.111 129.611L254.948 154.959L283.415 157.307Z" fill="#25272E"/>
<path d="M125.584 296.727C125.584 296.727 138.454 298.58 142.574 306.028C147.383 314.713 145.229 330.186 137.661 336.66C126.583 346.125 123.164 343.193 123.164 343.193L125.584 296.727Z" fill="#FAD1B1"/>
<path d="M119.054 348.462C119.054 348.462 133.071 344.909 137.942 330.894C142.813 316.879 141.72 312.625 141.72 312.625L140 316.015L138.671 307.577C138.671 307.577 130.939 294.252 122.625 289.995C114.311 285.737 106.952 286.78 106.952 286.78C106.952 286.78 98.094 283.941 92.596 285.876C87.0979 287.811 78.4779 294.973 75.4544 302.263C72.4308 309.554 72.8302 317.549 72.8302 317.549C71.1783 321.828 71.2058 326.573 72.9073 330.833C74.534 335.069 77.6089 338.593 81.5866 340.778C81.5866 340.778 84.4948 347.754 87.4249 349.632C90.3551 351.511 99.3332 353.363 99.3332 353.363C99.3332 353.363 113.67 357.314 119.054 348.462Z" fill="#25272E"/>
<path d="M167.338 282.879L150.626 278.483L133.563 281.99C133.563 281.99 148.564 293.585 152.236 312.137C155.908 330.69 141.119 351.591 139.196 354.79C137.274 357.989 115.861 362.578 115.861 362.578L137.811 365.631L161.282 356.075L167.338 282.879Z" fill="#4B4AA1"/>
<path d="M82.1605 375.19C82.1605 375.19 64.1375 334.13 70.0546 308.458C75.2534 285.958 94.3252 265.554 98.9674 260.846C92.5469 266.881 64.5725 290.162 62.8871 318.132C61.6113 339.447 73.6281 362.627 82.1605 375.19Z" fill="#4B4AA1"/>
<path d="M371.431 312.903L382.801 304.364C383.078 304.155 383.276 303.858 383.361 303.522C383.447 303.185 383.416 302.83 383.273 302.514L383.183 302.315C383.088 302.106 382.947 301.921 382.771 301.775C382.594 301.628 382.387 301.523 382.164 301.467C381.941 301.412 381.708 301.408 381.483 301.455C381.259 301.502 381.047 301.6 380.866 301.74L369.585 310.477C369.276 310.727 369.077 311.087 369.03 311.481C368.982 311.875 369.091 312.272 369.331 312.587C369.572 312.902 369.927 313.111 370.319 313.169C370.712 313.228 371.112 313.13 371.434 312.898L371.431 312.903Z" fill="#FDF5EA"/>
<path d="M305.235 469.574L343.204 399.451L292.946 372.238L254.976 442.361L305.235 469.574Z" fill="white"/>
<path d="M306.202 467.788L343.204 399.451L296.671 374.255L259.668 442.592L306.202 467.788Z" fill="#C4CCD7"/>
<path d="M310.835 469.91L348.805 399.787L298.546 372.574L260.577 442.697L310.835 469.91Z" fill="white"/>
<path d="M358.902 504.686L385.736 429.594L331.916 410.361L305.082 485.454L358.902 504.686Z" fill="white"/>
<path d="M359.588 502.775L385.738 429.596L335.907 411.789L309.757 484.968L359.588 502.775Z" fill="#C4CCD7"/>
<path d="M364.486 504.165L391.32 429.072L337.5 409.84L310.666 484.932L364.486 504.165Z" fill="white"/>
<path d="M409.005 197.12C408.692 197.139 408.385 197.219 408.103 197.356C407.82 197.493 407.568 197.684 407.359 197.919C407.15 198.154 406.99 198.427 406.888 198.724C406.785 199.021 406.742 199.335 406.76 199.648L407.337 209.35L412.11 209.067L411.528 199.362C411.49 198.731 411.203 198.14 410.73 197.72C410.257 197.299 409.637 197.084 409.005 197.12Z" fill="#F16A44"/>
<path d="M396.24 223.853C398.555 231.633 406.738 236.064 414.518 233.75C422.298 231.436 426.729 223.253 424.415 215.472C422.101 207.692 413.917 203.261 406.137 205.575C398.357 207.89 393.926 216.073 396.24 223.853Z" fill="#F16A44"/>
<path d="M418.917 208.895C421.215 210.556 422.922 212.908 423.788 215.609C424.655 218.34 424.655 221.274 423.786 224.005C423.671 224.344 423.535 224.671 423.409 225.004C423.276 225.333 423.126 225.656 422.96 225.97C422.875 226.128 422.79 226.285 422.704 226.443L422.451 226.911C422.283 227.221 422.065 227.51 421.866 227.803C421.037 228.962 420.027 229.98 418.875 230.817C417.734 231.657 416.464 232.308 415.115 232.742C413.782 233.177 412.389 233.399 410.987 233.402C413.733 233.115 416.34 232.053 418.503 230.337C420.632 228.64 422.213 226.352 423.049 223.761C423.885 221.17 423.939 218.39 423.205 215.769C422.448 213.121 420.962 210.739 418.917 208.895Z" fill="#F8FBFC"/>
<path d="M399.881 214.011C396.758 219.779 398.902 226.987 404.67 230.111C410.439 233.234 417.647 231.09 420.77 225.322C423.894 219.553 421.75 212.345 415.981 209.221C410.213 206.098 403.004 208.242 399.881 214.011Z" fill="#93603D"/>
<path d="M412.782 208.04C410.123 207.479 407.352 207.847 404.932 209.083C402.511 210.319 400.588 212.347 399.482 214.829C398.377 217.312 398.156 220.098 398.856 222.724C399.557 225.349 401.136 227.655 403.332 229.257C405.991 229.818 408.762 229.449 411.182 228.214C413.602 226.978 415.526 224.95 416.632 222.468C417.737 219.985 417.958 217.199 417.258 214.573C416.557 211.947 414.977 209.641 412.782 208.04Z" fill="#A4704C"/>
<g opacity="0.5">
<path opacity="0.5" d="M410.978 229.426C411.003 229.426 411.027 229.42 411.05 229.41C411.072 229.4 411.092 229.385 411.109 229.366C411.125 229.347 411.138 229.326 411.145 229.302C411.153 229.279 411.155 229.254 411.153 229.229C411.152 229.204 411.145 229.18 411.135 229.158C411.124 229.136 411.109 229.117 411.091 229.1C411.072 229.084 411.051 229.071 411.028 229.064C411.005 229.056 410.98 229.052 410.956 229.054C409.273 229.169 407.59 228.831 406.083 228.074C404.575 227.317 403.299 226.169 402.386 224.751C401.474 223.332 400.959 221.695 400.896 220.009C400.832 218.324 401.222 216.652 402.025 215.169C402.265 214.727 402.539 214.306 402.844 213.907C402.874 213.866 402.887 213.816 402.879 213.766C402.872 213.716 402.845 213.671 402.805 213.641C402.765 213.611 402.716 213.599 402.666 213.605C402.617 213.611 402.573 213.636 402.542 213.675C402.227 214.091 401.943 214.531 401.694 214.989C400.858 216.531 400.451 218.27 400.517 220.023C400.582 221.775 401.117 223.479 402.066 224.954C403.015 226.429 404.342 227.623 405.91 228.409C407.478 229.196 409.228 229.547 410.978 229.426Z" fill="#F8FBFC"/>
<path opacity="0.5" d="M419.648 218.434C419.657 218.482 419.684 218.524 419.724 218.552C419.763 218.58 419.811 218.593 419.859 218.587C419.907 218.581 419.951 218.557 419.982 218.52C420.013 218.483 420.029 218.436 420.026 218.388C419.849 217.023 419.387 215.711 418.669 214.537C417.951 213.363 416.994 212.353 415.859 211.573C414.725 210.794 413.439 210.262 412.086 210.013C410.733 209.763 409.342 209.801 408.004 210.125C407.979 210.131 407.955 210.143 407.935 210.159C407.915 210.175 407.898 210.195 407.886 210.218C407.874 210.238 407.865 210.261 407.862 210.285C407.858 210.309 407.86 210.333 407.866 210.356C407.872 210.38 407.883 210.402 407.898 210.422C407.913 210.441 407.932 210.457 407.954 210.469C407.976 210.481 407.999 210.488 408.024 210.49C408.049 210.492 408.073 210.489 408.097 210.481C409.383 210.172 410.72 210.137 412.02 210.379C413.321 210.621 414.556 211.133 415.645 211.883C416.735 212.633 417.654 213.604 418.344 214.733C419.033 215.862 419.478 217.123 419.648 218.434Z" fill="#F8FBFC"/>
<path opacity="0.5" d="M415.675 222.56C415.53 222.825 415.367 223.08 415.188 223.322C415.158 223.363 415.145 223.413 415.153 223.463C415.16 223.513 415.187 223.558 415.227 223.588C415.247 223.603 415.269 223.613 415.293 223.619C415.317 223.625 415.342 223.626 415.366 223.622C415.39 223.618 415.414 223.609 415.435 223.596C415.455 223.583 415.473 223.566 415.488 223.546C415.68 223.29 415.854 223.021 416.006 222.739C416.82 221.232 417.004 219.464 416.516 217.822C416.028 216.18 414.909 214.798 413.405 213.979C413.128 213.831 412.842 213.701 412.548 213.591C412.505 213.577 412.458 213.578 412.416 213.595C412.373 213.611 412.338 213.642 412.316 213.682C412.307 213.705 412.302 213.729 412.303 213.754C412.303 213.778 412.309 213.803 412.318 213.825C412.328 213.848 412.343 213.868 412.361 213.885C412.379 213.902 412.4 213.915 412.423 213.923C412.701 214.025 412.971 214.146 413.231 214.287C413.936 214.669 414.558 215.186 415.062 215.809C415.566 216.432 415.942 217.148 416.169 217.917C416.396 218.685 416.469 219.491 416.384 220.288C416.3 221.084 416.059 221.857 415.675 222.56Z" fill="#F8FBFC"/>
<path opacity="0.5" d="M404.198 221.722C404.205 221.747 404.216 221.772 404.232 221.793C404.249 221.814 404.269 221.832 404.293 221.844C404.316 221.857 404.342 221.865 404.368 221.867C404.395 221.869 404.422 221.866 404.447 221.857C404.472 221.849 404.495 221.835 404.515 221.816C404.534 221.798 404.55 221.776 404.56 221.752C404.57 221.727 404.576 221.701 404.575 221.674C404.575 221.647 404.569 221.621 404.558 221.597C404.292 220.802 404.194 219.96 404.268 219.125C404.343 218.29 404.589 217.48 404.991 216.744C405.393 216.008 405.943 215.364 406.606 214.85C407.268 214.337 408.03 213.965 408.842 213.76C408.89 213.748 408.932 213.717 408.957 213.675C408.982 213.633 408.99 213.582 408.978 213.534C408.966 213.486 408.936 213.445 408.894 213.419C408.851 213.394 408.801 213.386 408.753 213.398C407.888 213.615 407.078 214.008 406.372 214.552C405.667 215.097 405.082 215.782 404.654 216.564C404.227 217.345 403.965 218.207 403.887 219.095C403.808 219.983 403.914 220.877 404.198 221.722Z" fill="#F8FBFC"/>
<path opacity="0.5" d="M413.785 224.668C412.861 225.308 411.778 225.679 410.656 225.74C409.534 225.8 408.417 225.548 407.43 225.012C407.293 224.938 407.157 224.864 407.02 224.79C406.978 224.763 406.927 224.754 406.878 224.765C406.829 224.775 406.787 224.804 406.759 224.846C406.738 224.887 406.733 224.935 406.745 224.98C406.756 225.026 406.784 225.065 406.823 225.091C406.965 225.168 407.112 225.247 407.259 225.327C408.307 225.898 409.494 226.166 410.686 226.102C411.878 226.037 413.028 225.641 414.008 224.959C414.049 224.931 414.076 224.887 414.085 224.838C414.094 224.79 414.082 224.739 414.054 224.699C414.026 224.658 413.982 224.63 413.933 224.622C413.884 224.613 413.834 224.624 413.793 224.653L413.785 224.668Z" fill="#F8FBFC"/>
<path opacity="0.5" d="M405.919 217.278C405.503 218.037 405.293 218.891 405.308 219.756C405.324 220.621 405.564 221.467 406.006 222.21C406.019 222.232 406.035 222.25 406.055 222.265C406.075 222.28 406.097 222.291 406.121 222.297C406.145 222.303 406.17 222.304 406.194 222.3C406.219 222.296 406.242 222.288 406.263 222.275C406.307 222.25 406.34 222.209 406.353 222.16C406.367 222.111 406.361 222.059 406.336 222.015C405.925 221.329 405.701 220.547 405.686 219.747C405.671 218.948 405.865 218.158 406.25 217.457C406.267 217.435 406.279 217.41 406.286 217.382C406.292 217.355 406.293 217.327 406.287 217.3C406.282 217.272 406.27 217.246 406.254 217.224C406.237 217.201 406.216 217.183 406.191 217.17C406.166 217.156 406.139 217.148 406.111 217.147C406.083 217.145 406.056 217.15 406.03 217.16C406.004 217.17 405.98 217.186 405.961 217.206C405.942 217.227 405.927 217.251 405.919 217.278Z" fill="#F8FBFC"/>
<path opacity="0.5" d="M411.651 224.106C411.627 224.112 411.604 224.124 411.585 224.139C411.565 224.155 411.549 224.174 411.537 224.196C411.525 224.219 411.517 224.243 411.515 224.268C411.513 224.293 411.516 224.318 411.523 224.342C411.53 224.366 411.542 224.387 411.557 224.406C411.573 224.425 411.592 224.441 411.613 224.453C411.634 224.465 411.658 224.472 411.682 224.474C411.707 224.477 411.731 224.474 411.755 224.467C412.387 224.283 412.976 223.974 413.487 223.559C413.999 223.144 414.423 222.632 414.734 222.052C415.15 221.279 415.358 220.412 415.336 219.535C415.314 218.658 415.063 217.801 414.609 217.051C414.581 217.009 414.539 216.98 414.491 216.969C414.442 216.958 414.391 216.966 414.348 216.992C414.326 217.015 414.31 217.044 414.303 217.076C414.288 217.105 414.281 217.138 414.282 217.17C414.283 217.203 414.293 217.235 414.31 217.263C414.721 217.958 414.944 218.747 414.959 219.554C414.973 220.361 414.778 221.158 414.393 221.867C414.106 222.402 413.716 222.876 413.246 223.26C412.775 223.644 412.233 223.932 411.651 224.106Z" fill="#F8FBFC"/>
</g>
<path d="M414.566 493.255C414.867 493.165 415.147 493.018 415.391 492.82C415.635 492.622 415.838 492.378 415.987 492.102C416.137 491.826 416.23 491.523 416.263 491.21C416.295 490.898 416.265 490.582 416.176 490.281L413.39 480.946L408.814 482.307L411.592 491.645C411.681 491.946 411.829 492.226 412.027 492.47C412.225 492.714 412.469 492.917 412.745 493.066C413.021 493.216 413.324 493.309 413.637 493.342C413.949 493.374 414.265 493.345 414.566 493.255Z" fill="#F16A44"/>
<path d="M398.084 481.949C404.138 487.356 413.43 486.831 418.836 480.776C424.243 474.722 423.717 465.43 417.663 460.024C411.608 454.617 402.317 455.143 396.911 461.197C391.504 467.252 392.029 476.543 398.084 481.949Z" fill="#F16A44"/>
<path d="M416.46 460.221C417.592 461.046 418.588 462.043 419.411 463.178C420.243 464.322 420.891 465.59 421.331 466.935C422.191 469.668 422.191 472.599 421.329 475.332C421.209 475.667 421.078 475.997 420.952 476.33C420.818 476.661 420.667 476.985 420.501 477.302C420.418 477.454 420.333 477.612 420.247 477.769L419.994 478.237C419.817 478.546 419.622 478.844 419.409 479.129C418.58 480.288 417.57 481.306 416.418 482.143C414.142 483.834 411.381 484.744 408.546 484.736C411.29 484.45 413.896 483.389 416.059 481.677C418.189 479.979 419.771 477.69 420.607 475.098C421.443 472.505 421.496 469.723 420.759 467.101C420 464.449 418.51 462.065 416.46 460.221Z" fill="#F8FBFC"/>
<path d="M397.422 465.327C394.299 471.095 396.443 478.304 402.211 481.427C407.98 484.551 415.188 482.406 418.311 476.638C421.435 470.87 419.291 463.661 413.522 460.538C407.754 457.414 400.545 459.559 397.422 465.327Z" fill="#93603D"/>
<path d="M410.325 459.366C407.666 458.802 404.894 459.168 402.472 460.403C400.05 461.637 398.125 463.666 397.019 466.149C395.913 468.632 395.693 471.42 396.395 474.046C397.097 476.673 398.68 478.978 400.878 480.578C403.537 481.141 406.31 480.775 408.731 479.541C411.153 478.306 413.078 476.278 414.184 473.794C415.29 471.311 415.51 468.523 414.808 465.897C414.106 463.271 412.523 460.965 410.325 459.366Z" fill="#A4704C"/>
<g opacity="0.5">
<path opacity="0.5" d="M408.537 480.763C408.584 480.757 408.628 480.732 408.658 480.695C408.688 480.657 408.704 480.61 408.7 480.562C408.697 480.514 408.676 480.468 408.641 480.435C408.606 480.402 408.56 480.384 408.512 480.383C406.829 480.498 405.146 480.16 403.639 479.403C402.132 478.646 400.855 477.498 399.943 476.08C399.03 474.661 398.515 473.024 398.452 471.338C398.388 469.653 398.778 467.981 399.581 466.498C399.82 466.058 400.093 465.638 400.398 465.241C400.413 465.222 400.424 465.199 400.43 465.175C400.437 465.152 400.438 465.127 400.435 465.102C400.432 465.078 400.424 465.054 400.412 465.033C400.399 465.012 400.383 464.993 400.364 464.978C400.344 464.963 400.322 464.952 400.298 464.945C400.274 464.939 400.249 464.937 400.225 464.941C400.2 464.944 400.177 464.952 400.156 464.964C400.134 464.976 400.115 464.993 400.1 465.012C399.782 465.424 399.498 465.861 399.25 466.318C398.416 467.861 398.011 469.6 398.078 471.352C398.144 473.105 398.679 474.808 399.628 476.283C400.576 477.759 401.903 478.953 403.47 479.741C405.037 480.529 406.787 480.882 408.537 480.763Z" fill="#F8FBFC"/>
<path opacity="0.5" d="M417.212 469.773C417.211 469.801 417.216 469.828 417.226 469.854C417.237 469.88 417.253 469.903 417.274 469.922C417.295 469.941 417.319 469.955 417.346 469.964C417.372 469.972 417.4 469.975 417.428 469.971C417.456 469.967 417.482 469.958 417.506 469.942C417.53 469.927 417.55 469.907 417.565 469.884C417.579 469.86 417.589 469.834 417.593 469.806C417.596 469.778 417.594 469.75 417.585 469.723C417.407 468.363 416.944 467.054 416.227 465.884C415.511 464.713 414.556 463.706 413.425 462.928C412.295 462.15 411.013 461.618 409.664 461.367C408.314 461.115 406.927 461.151 405.592 461.47C405.566 461.476 405.541 461.487 405.519 461.504C405.497 461.52 405.479 461.541 405.466 461.565C405.445 461.606 405.439 461.653 405.448 461.698C405.463 461.746 405.496 461.786 405.54 461.81C405.584 461.834 405.636 461.84 405.685 461.826C406.971 461.515 408.308 461.479 409.609 461.72C410.909 461.96 412.145 462.472 413.235 463.222C414.325 463.972 415.245 464.943 415.935 466.071C416.624 467.2 417.069 468.462 417.239 469.774L417.212 469.773Z" fill="#F8FBFC"/>
<path opacity="0.5" d="M413.221 473.882C413.076 474.147 412.913 474.402 412.733 474.644C412.717 474.663 412.705 474.686 412.698 474.71C412.691 474.733 412.689 474.759 412.692 474.783C412.695 474.808 412.704 474.832 412.717 474.853C412.73 474.875 412.747 474.893 412.767 474.907C412.807 474.937 412.857 474.95 412.906 474.943C412.955 474.937 413 474.912 413.031 474.873C413.59 474.13 413.983 473.275 414.182 472.366C414.381 471.458 414.382 470.517 414.184 469.608C413.986 468.699 413.594 467.843 413.035 467.1C412.476 466.356 411.763 465.742 410.945 465.299C410.671 465.15 410.385 465.023 410.091 464.918C410.049 464.9 410.002 464.899 409.959 464.915C409.916 464.931 409.881 464.963 409.861 465.004C409.844 465.051 409.846 465.104 409.867 465.149C409.888 465.195 409.926 465.231 409.974 465.248C410.791 465.552 411.534 466.028 412.153 466.643C412.771 467.258 413.251 467.998 413.56 468.814C413.869 469.63 413.999 470.503 413.942 471.373C413.886 472.244 413.644 473.092 413.232 473.861L413.221 473.882Z" fill="#F8FBFC"/>
<path opacity="0.5" d="M401.745 473.044C401.759 473.092 401.792 473.132 401.836 473.156C401.881 473.18 401.933 473.186 401.981 473.172C402.004 473.165 402.026 473.153 402.045 473.138C402.064 473.123 402.08 473.104 402.092 473.082C402.103 473.061 402.111 473.037 402.113 473.013C402.116 472.988 402.113 472.964 402.106 472.94C401.835 472.143 401.732 471.297 401.804 470.458C401.877 469.618 402.123 468.803 402.527 468.064C402.931 467.324 403.485 466.677 404.152 466.163C404.82 465.649 405.587 465.279 406.405 465.077C406.431 465.073 406.456 465.063 406.479 465.049C406.501 465.035 406.521 465.016 406.536 464.994C406.55 464.972 406.56 464.947 406.565 464.92C406.57 464.894 406.569 464.867 406.562 464.841C406.556 464.815 406.544 464.791 406.527 464.77C406.511 464.749 406.49 464.732 406.467 464.719C406.443 464.707 406.418 464.699 406.391 464.697C406.364 464.695 406.338 464.699 406.313 464.707C405.449 464.925 404.639 465.319 403.935 465.864C403.23 466.41 402.646 467.095 402.219 467.877C401.792 468.658 401.531 469.52 401.452 470.407C401.374 471.295 401.48 472.189 401.764 473.033L401.745 473.044Z" fill="#F8FBFC"/>
<path opacity="0.5" d="M411.321 475.985C410.397 476.627 409.312 476.999 408.189 477.059C407.066 477.119 405.948 476.865 404.961 476.326C404.824 476.252 404.687 476.178 404.551 476.104C404.53 476.091 404.507 476.082 404.483 476.078C404.459 476.074 404.434 476.075 404.411 476.08C404.387 476.085 404.364 476.096 404.345 476.11C404.325 476.124 404.308 476.142 404.295 476.162C404.273 476.205 404.269 476.254 404.281 476.3C404.294 476.346 404.324 476.385 404.364 476.411C404.506 476.487 404.653 476.567 404.795 476.644C405.843 477.216 407.03 477.486 408.222 477.422C409.414 477.359 410.565 476.965 411.546 476.284C411.588 476.255 411.617 476.211 411.626 476.161C411.635 476.112 411.624 476.06 411.595 476.018C411.58 475.997 411.561 475.979 411.539 475.966C411.516 475.952 411.491 475.944 411.465 475.941C411.439 475.937 411.413 475.94 411.388 475.948C411.363 475.955 411.34 475.968 411.321 475.985Z" fill="#F8FBFC"/>
<path opacity="0.5" d="M403.459 468.596C403.044 469.355 402.834 470.209 402.85 471.074C402.865 471.939 403.105 472.785 403.547 473.529C403.559 473.55 403.576 473.569 403.596 473.584C403.617 473.6 403.64 473.611 403.664 473.617C403.688 473.623 403.714 473.624 403.739 473.621C403.764 473.617 403.787 473.609 403.809 473.596C403.83 473.584 403.849 473.567 403.864 473.547C403.879 473.527 403.89 473.505 403.896 473.481C403.902 473.457 403.903 473.432 403.899 473.408C403.895 473.383 403.887 473.36 403.874 473.339C403.465 472.651 403.242 471.868 403.228 471.068C403.213 470.268 403.407 469.478 403.79 468.775C403.807 468.753 403.82 468.728 403.826 468.701C403.833 468.674 403.833 468.645 403.828 468.618C403.822 468.591 403.811 468.565 403.794 468.542C403.778 468.52 403.756 468.501 403.732 468.488C403.707 468.475 403.68 468.467 403.652 468.465C403.624 468.464 403.596 468.468 403.57 468.478C403.544 468.489 403.521 468.505 403.501 468.525C403.482 468.545 403.468 468.57 403.459 468.596Z" fill="#F8FBFC"/>
<path opacity="0.5" d="M409.189 475.43C409.166 475.437 409.144 475.449 409.125 475.464C409.106 475.479 409.09 475.498 409.079 475.52C409.067 475.541 409.06 475.565 409.057 475.589C409.055 475.614 409.057 475.638 409.064 475.662C409.071 475.686 409.082 475.709 409.098 475.728C409.113 475.748 409.133 475.764 409.155 475.776C409.177 475.788 409.201 475.796 409.226 475.798C409.252 475.8 409.277 475.797 409.301 475.79C409.932 475.604 410.521 475.295 411.032 474.88C411.544 474.465 411.968 473.953 412.28 473.374C412.695 472.602 412.902 471.735 412.879 470.859C412.857 469.983 412.606 469.128 412.152 468.379C412.139 468.357 412.123 468.339 412.103 468.324C412.083 468.309 412.061 468.298 412.037 468.292C412.013 468.286 411.988 468.285 411.963 468.289C411.939 468.292 411.916 468.301 411.895 468.314C411.872 468.338 411.857 468.367 411.849 468.398C411.833 468.426 411.825 468.458 411.825 468.491C411.826 468.523 411.835 468.555 411.851 468.583C412.271 469.276 412.502 470.067 412.522 470.878C412.542 471.688 412.35 472.49 411.965 473.203C411.673 473.74 411.277 474.213 410.801 474.596C410.324 474.978 409.777 475.262 409.189 475.43Z" fill="#F8FBFC"/>
</g>
<path d="M173.788 428.893C173.833 429.525 174.126 430.114 174.604 430.529C175.083 430.945 175.706 431.154 176.338 431.11L186.038 430.437L185.704 425.67L176.01 426.346C175.697 426.367 175.391 426.45 175.11 426.589C174.829 426.729 174.578 426.923 174.371 427.159C174.165 427.396 174.007 427.671 173.907 427.968C173.807 428.266 173.767 428.58 173.788 428.893Z" fill="#F16A44"/>
<path d="M187.597 438.856C193.651 444.262 202.942 443.737 208.349 437.682C213.755 431.628 213.23 422.337 207.176 416.93C201.121 411.524 191.83 412.049 186.423 418.103C181.017 424.158 181.542 433.449 187.597 438.856Z" fill="#F16A44"/>
<path d="M205.969 417.131C207.101 417.956 208.097 418.954 208.92 420.088C209.75 421.231 210.396 422.498 210.834 423.842C211.699 426.575 211.701 429.508 210.838 432.242L210.461 433.24C210.34 433.576 210.159 433.885 210.009 434.212C209.927 434.364 209.841 434.522 209.756 434.679L209.503 435.147C209.332 435.462 209.117 435.747 208.918 436.039C207.244 438.358 204.88 440.089 202.164 440.984C200.833 441.415 199.443 441.637 198.044 441.641C200.787 441.353 203.391 440.291 205.552 438.579C207.678 436.876 209.259 434.589 210.1 431.999C210.922 429.405 210.976 426.629 210.257 424.005C209.5 421.357 208.014 418.975 205.969 417.131Z" fill="#F8FBFC"/>
<path d="M186.931 422.237C183.807 428.006 185.952 435.214 191.72 438.337C197.488 441.461 204.697 439.317 207.82 433.548C210.944 427.78 208.799 420.571 203.031 417.448C197.263 414.325 190.054 416.469 186.931 422.237Z" fill="#93603D"/>
<path d="M199.834 416.275C197.175 415.711 194.403 416.077 191.981 417.312C189.559 418.546 187.634 420.575 186.528 423.058C185.422 425.542 185.202 428.329 185.904 430.955C186.606 433.582 188.189 435.887 190.387 437.487C193.044 438.044 195.812 437.673 198.23 436.437C200.647 435.201 202.568 433.174 203.673 430.694C204.777 428.214 204.999 425.43 204.3 422.807C203.602 420.183 202.026 417.878 199.834 416.275Z" fill="#A4704C"/>
<g opacity="0.5">
<path opacity="0.5" d="M198.045 437.673C198.095 437.668 198.141 437.644 198.174 437.605C198.206 437.567 198.222 437.517 198.218 437.467C198.216 437.443 198.21 437.419 198.2 437.397C198.189 437.375 198.174 437.355 198.156 437.339C198.137 437.322 198.116 437.31 198.093 437.302C198.069 437.294 198.045 437.291 198.02 437.292C196.337 437.409 194.653 437.072 193.144 436.315C191.636 435.558 190.358 434.41 189.445 432.991C188.532 431.572 188.017 429.933 187.953 428.247C187.89 426.561 188.281 424.888 189.085 423.404C189.325 422.963 189.599 422.541 189.904 422.142C189.933 422.103 189.946 422.053 189.94 422.004C189.933 421.955 189.908 421.91 189.87 421.879C189.828 421.849 189.777 421.836 189.727 421.843C189.676 421.85 189.63 421.876 189.598 421.916C189.284 422.33 189.002 422.768 188.754 423.225C187.919 424.768 187.514 426.506 187.581 428.259C187.647 430.012 188.182 431.715 189.131 433.19C190.079 434.665 191.406 435.859 192.973 436.647C194.54 437.435 196.29 437.788 198.04 437.67L198.045 437.673Z" fill="#F8FBFC"/>
<path opacity="0.5" d="M206.721 426.682C206.728 426.731 206.754 426.775 206.793 426.806C206.833 426.836 206.883 426.849 206.932 426.844C206.982 426.836 207.027 426.809 207.058 426.768C207.088 426.728 207.102 426.678 207.097 426.627C206.918 425.263 206.454 423.952 205.736 422.779C205.017 421.606 204.06 420.597 202.926 419.818C201.792 419.038 200.508 418.506 199.155 418.256C197.802 418.006 196.412 418.043 195.074 418.365C195.048 418.371 195.024 418.383 195.003 418.4C194.982 418.417 194.965 418.438 194.954 418.462C194.942 418.482 194.934 418.504 194.931 418.527C194.928 418.55 194.93 418.573 194.936 418.595C194.95 418.643 194.983 418.684 195.028 418.708C195.072 418.732 195.124 418.737 195.172 418.723C196.458 418.413 197.795 418.377 199.096 418.617C200.397 418.858 201.632 419.37 202.722 420.12C203.812 420.869 204.732 421.84 205.422 422.969C206.112 424.098 206.556 425.359 206.726 426.671L206.721 426.682Z" fill="#F8FBFC"/>
<path opacity="0.5" d="M202.745 430.799C202.603 431.066 202.44 431.321 202.257 431.561C202.242 431.581 202.23 431.604 202.224 431.628C202.218 431.653 202.216 431.678 202.22 431.703C202.223 431.728 202.232 431.752 202.245 431.773C202.259 431.794 202.276 431.813 202.297 431.827C202.336 431.857 202.386 431.87 202.435 431.863C202.484 431.857 202.529 431.832 202.56 431.793C203.12 431.05 203.512 430.195 203.711 429.286C203.91 428.378 203.911 427.437 203.713 426.528C203.515 425.619 203.123 424.763 202.564 424.019C202.005 423.276 201.292 422.662 200.474 422.219C200.198 422.069 199.911 421.941 199.615 421.835C199.573 421.819 199.526 421.819 199.484 421.834C199.442 421.85 199.406 421.881 199.385 421.921C199.376 421.944 199.371 421.97 199.372 421.995C199.373 422.02 199.378 422.045 199.389 422.067C199.399 422.09 199.414 422.111 199.433 422.128C199.452 422.144 199.474 422.157 199.498 422.165C200.318 422.469 201.063 422.946 201.683 423.563C202.303 424.18 202.783 424.923 203.091 425.742C203.399 426.56 203.527 427.435 203.468 428.308C203.408 429.181 203.161 430.03 202.745 430.799Z" fill="#F8FBFC"/>
<path opacity="0.5" d="M191.252 429.952C191.259 429.976 191.271 429.997 191.286 430.016C191.301 430.035 191.32 430.051 191.342 430.063C191.363 430.074 191.387 430.082 191.411 430.084C191.436 430.087 191.46 430.084 191.484 430.077C191.507 430.07 191.529 430.059 191.548 430.044C191.567 430.028 191.583 430.009 191.594 429.988C191.606 429.966 191.613 429.943 191.616 429.918C191.618 429.894 191.616 429.869 191.609 429.846C191.337 429.048 191.235 428.203 191.307 427.364C191.38 426.524 191.626 425.709 192.03 424.969C192.434 424.23 192.987 423.583 193.655 423.069C194.322 422.554 195.089 422.185 195.907 421.982C195.955 421.966 195.994 421.933 196.018 421.889C196.042 421.846 196.048 421.794 196.036 421.746C196.029 421.722 196.018 421.7 196.003 421.68C195.988 421.661 195.969 421.645 195.947 421.633C195.926 421.621 195.902 421.614 195.877 421.612C195.852 421.61 195.828 421.613 195.804 421.621C194.94 421.838 194.131 422.232 193.426 422.778C192.722 423.323 192.138 424.008 191.711 424.79C191.284 425.572 191.023 426.433 190.944 427.321C190.866 428.208 190.972 429.102 191.255 429.947L191.252 429.952Z" fill="#F8FBFC"/>
<path opacity="0.5" d="M200.834 432.897C199.911 433.538 198.827 433.91 197.705 433.971C196.583 434.031 195.466 433.779 194.479 433.241C194.342 433.167 194.206 433.093 194.069 433.019C194.027 432.994 193.976 432.985 193.928 432.996C193.879 433.006 193.837 433.034 193.808 433.074C193.787 433.116 193.782 433.164 193.794 433.209C193.805 433.254 193.833 433.294 193.872 433.32C194.019 433.399 194.161 433.476 194.308 433.556C195.356 434.127 196.543 434.397 197.735 434.333C198.927 434.269 200.078 433.876 201.059 433.196C201.099 433.165 201.125 433.121 201.134 433.072C201.143 433.023 201.134 432.973 201.108 432.93C201.093 432.91 201.073 432.892 201.051 432.879C201.028 432.867 201.004 432.858 200.978 432.855C200.952 432.852 200.927 432.854 200.902 432.862C200.877 432.869 200.854 432.881 200.834 432.897Z" fill="#F8FBFC"/>
<path opacity="0.5" d="M192.967 425.506C192.552 426.265 192.342 427.119 192.357 427.984C192.373 428.849 192.613 429.695 193.054 430.439C193.081 430.481 193.123 430.512 193.172 430.525C193.221 430.537 193.273 430.531 193.317 430.506C193.338 430.494 193.357 430.477 193.372 430.457C193.387 430.438 193.397 430.415 193.403 430.391C193.409 430.367 193.411 430.342 193.407 430.318C193.403 430.293 193.394 430.27 193.381 430.249C192.973 429.561 192.75 428.778 192.736 427.978C192.721 427.178 192.915 426.388 193.298 425.685C193.315 425.664 193.328 425.638 193.334 425.611C193.341 425.584 193.341 425.556 193.336 425.528C193.33 425.501 193.319 425.475 193.302 425.452C193.285 425.43 193.264 425.411 193.239 425.398C193.215 425.385 193.188 425.377 193.16 425.375C193.132 425.374 193.104 425.378 193.078 425.389C193.052 425.399 193.028 425.415 193.009 425.435C192.99 425.455 192.976 425.48 192.967 425.506Z" fill="#F8FBFC"/>
<path opacity="0.5" d="M198.698 432.338C198.651 432.352 198.611 432.384 198.588 432.428C198.564 432.471 198.559 432.522 198.573 432.569C198.587 432.616 198.62 432.656 198.663 432.679C198.706 432.703 198.757 432.708 198.804 432.694C199.437 432.51 200.026 432.201 200.537 431.786C201.049 431.371 201.472 430.859 201.784 430.278C202.2 429.508 202.407 428.642 202.385 427.766C202.364 426.89 202.114 426.035 201.661 425.286C201.648 425.264 201.631 425.245 201.611 425.23C201.591 425.215 201.568 425.204 201.543 425.198C201.519 425.192 201.494 425.19 201.469 425.194C201.444 425.197 201.42 425.206 201.398 425.219C201.378 425.244 201.363 425.272 201.353 425.303C201.338 425.332 201.331 425.365 201.332 425.397C201.333 425.43 201.343 425.462 201.36 425.49C201.729 426.097 201.953 426.78 202.016 427.487C202.08 428.194 201.98 428.906 201.725 429.568C201.47 430.231 201.066 430.826 200.545 431.308C200.024 431.79 199.4 432.146 198.719 432.349L198.698 432.338Z" fill="#F8FBFC"/>
</g>
<path d="M292.123 141.223C292.973 141.31 294.195 139.73 295.214 138.1C310.603 138.124 319.826 122.083 319.826 122.083C319.826 122.083 315.427 118.023 303.216 120.372C291.005 122.722 274.268 113.605 274.268 113.605C274.391 117.225 275.075 120.805 276.296 124.215C278.023 129.131 281.39 134.882 288.637 137.134C289.787 139.062 291.206 141.135 292.123 141.223Z" fill="#FAD1B1"/>
<path d="M196.225 291.942L202.965 293.486C203.789 293.676 204.654 293.562 205.401 293.165C206.148 292.768 206.726 292.114 207.029 291.325L215.426 269.632C215.607 269.171 215.688 268.677 215.665 268.183C215.641 267.689 215.514 267.205 215.291 266.763C215.067 266.321 214.753 265.932 214.369 265.62C213.984 265.308 213.538 265.081 213.06 264.954L205.936 263.053C205.087 262.825 204.182 262.925 203.402 263.331C202.622 263.738 202.023 264.422 201.724 265.249L193.722 287.305C193.551 287.773 193.482 288.272 193.518 288.768C193.554 289.265 193.696 289.748 193.932 290.186C194.169 290.624 194.495 291.007 194.89 291.31C195.286 291.613 195.74 291.828 196.225 291.942Z" fill="#F9E1DF"/>
<path d="M199.528 341.379L193.169 344.051C192.39 344.379 191.755 344.978 191.382 345.737C191.008 346.496 190.921 347.364 191.136 348.182L197.041 370.715C197.167 371.193 197.392 371.64 197.701 372.025C198.01 372.411 198.397 372.727 198.836 372.953C199.276 373.18 199.758 373.311 200.251 373.339C200.744 373.367 201.238 373.291 201.7 373.116L208.603 370.481C209.433 370.169 210.115 369.556 210.513 368.764C210.911 367.971 210.994 367.058 210.748 366.206L204.325 343.637C204.187 343.154 203.948 342.706 203.623 342.323C203.297 341.941 202.894 341.632 202.44 341.418C201.985 341.204 201.49 341.09 200.988 341.083C200.486 341.077 199.988 341.177 199.528 341.379Z" fill="#F9E1DF"/>
<mask id="mask0" mask-type="alpha" maskUnits="userSpaceOnUse" x="4" y="197" width="507" height="508">
<path d="M257.258 704.242C397.128 704.242 510.515 590.854 510.515 450.984C510.515 311.114 397.128 197.727 257.258 197.727C117.387 197.727 4 311.114 4 450.984C4 590.854 117.387 704.242 257.258 704.242Z" fill="white"/>
</mask>
<g mask="url(#mask0)">
<path d="M122.793 670.89C122.794 669.702 123.228 668.555 124.012 667.663C124.796 666.771 125.878 666.195 127.056 666.041C128.343 665.261 168.115 634.102 168.115 634.102C168.115 634.102 133.402 670.312 132.517 671.588C132.339 672.81 131.706 673.919 130.743 674.693C129.781 675.467 128.562 675.849 127.33 675.76C126.098 675.672 124.946 675.12 124.104 674.217C123.262 673.313 122.794 672.124 122.793 670.89Z" fill="white"/>
<path d="M580.34 583.787C578.718 594.275 571.299 602.988 562.984 609.58C540.12 627.705 508.024 633.477 480.296 624.456C452.569 615.434 429.982 591.888 422.158 563.782C419.486 554.191 418.429 544.159 415.079 534.783C406.299 510.211 380.717 492.687 354.624 493.397C321.221 494.301 298.502 519.65 270.817 534.284C250.738 544.901 215.9 548.384 204.901 523.117C195.045 500.429 211.095 476.415 216.271 454.67C221.575 432.38 212.843 410.327 194.706 396.309C176.421 382.171 148.682 375.068 126.021 380.614C104.117 385.981 89.1785 402.456 72.5631 416.498C51.0332 434.681 16.7571 435.488 -9.63262 432.033C-22.2424 430.379 -35.1291 427.723 -47.5322 430.539C-69.0894 435.43 -72.5802 453.516 -72.7908 472.53C-73.0872 498.873 -72.7908 525.219 -72.3032 551.558C-71.3281 603.394 -69.4872 655.214 -69.4872 707.065H580.34V583.787Z" fill="#7D21E9"/>
<g style="mix-blend-mode:multiply" opacity="0.3">
<path d="M-94 575.518C-84.2843 542.365 -48.643 524.283 -15.2132 515.546C6.50777 509.871 29.1609 506.474 51.4279 509.341C73.695 512.207 95.6461 521.822 110.296 538.851C123.21 553.84 129.739 573.493 142.711 588.439C160.879 609.415 189.917 618.542 217.645 617.996C245.372 617.45 272.199 608.316 297.843 597.769C312.665 591.677 327.876 584.96 343.91 585.436C362.85 585.998 380.066 596.611 394.412 608.99C408.757 621.37 421.324 635.864 436.824 646.769C479.213 676.599 541.954 673.096 580.746 638.73V712.856H-81.3434L-94 575.518Z" fill="#8B3CEC"/>
</g>
<path d="M300.85 480.704C299.639 476.431 297.698 472.4 295.113 468.788C284.781 454.162 267.896 440.687 249.054 448C234.701 453.573 224.006 469.452 218.019 483.021C213.491 493.294 212.949 504.722 218.939 514.614C229.147 531.467 250.637 533.581 267.089 525.445C278.041 520.027 289.173 511.517 296.962 502.043C302.184 495.716 302.843 488.005 300.85 480.704Z" fill="#7D21E9"/>
<path d="M436.977 515.227L435.807 519.728C436.279 518.25 436.67 516.747 436.977 515.227Z" fill="#ED174B"/>
</g>
</svg>
