<svg width="1444" height="792" viewBox="0 0 1444 792" fill="none" xmlns="http://www.w3.org/2000/svg">
<path d="M527.755 71.2513L401.492 98.5273L438.819 271.317L565.082 244.041L527.755 71.2513Z" fill="#F5F5F5"/>
<path d="M1128.83 0.285156H698.493V280.117H1128.83V0.285156Z" fill="#F5F5F5"/>
<path d="M970.601 141.915C978.113 110.456 958.7 78.8638 927.24 71.3518C895.781 63.8397 864.189 83.2527 856.677 114.712C849.165 146.171 868.578 177.764 900.037 185.276C931.496 192.788 963.089 173.375 970.601 141.915Z" fill="#E0E0E0"/>
<path d="M933.347 128.379L918.042 137.211L902.774 146.042V128.379V110.717L918.042 119.548L933.347 128.379Z" fill="#F5F5F5"/>
<path d="M1128.83 229.863H698.493V280.119H1128.83V229.863Z" fill="#E0E0E0"/>
<path d="M740.331 254.968L734.12 258.56L727.908 262.152V254.968V247.82L734.12 251.413L740.331 254.968Z" fill="#F5F5F5"/>
<path d="M1093.43 253.846H775.994V256.128H1093.43V253.846Z" fill="#F5F5F5"/>
<path d="M782.318 255.008C782.318 255.948 782.039 256.867 781.517 257.649C780.995 258.43 780.253 259.039 779.384 259.399C778.516 259.759 777.56 259.853 776.638 259.67C775.717 259.486 774.87 259.033 774.205 258.369C773.541 257.704 773.088 256.857 772.905 255.936C772.721 255.014 772.815 254.058 773.175 253.19C773.535 252.321 774.144 251.579 774.925 251.057C775.707 250.535 776.626 250.256 777.566 250.256C778.826 250.256 780.035 250.757 780.926 251.648C781.817 252.539 782.318 253.748 782.318 255.008Z" fill="#F5F5F5"/>
<path d="M1423.11 201.832H1023.64C1012.29 201.832 1003.1 211.03 1003.1 222.376V578.321C1003.1 589.667 1012.29 598.865 1023.64 598.865H1423.11C1434.45 598.865 1443.65 589.667 1443.65 578.321V222.376C1443.65 211.03 1434.45 201.832 1423.11 201.832Z" fill="#F5F5F5"/>
<path d="M1027.08 201.832H1419.66C1422.81 201.832 1425.93 202.452 1428.84 203.658C1431.75 204.863 1434.4 206.63 1436.62 208.858C1438.85 211.085 1440.62 213.729 1441.82 216.639C1443.03 219.55 1443.65 222.669 1443.65 225.819V246.175H1003.1V225.856C1003.09 222.703 1003.71 219.58 1004.91 216.665C1006.12 213.751 1007.88 211.102 1010.11 208.871C1012.34 206.639 1014.98 204.869 1017.9 203.661C1020.81 202.454 1023.93 201.832 1027.08 201.832Z" fill="#EBEBEB"/>
<path d="M1030 227.542C1031.93 227.542 1033.48 225.984 1033.48 224.062C1033.48 222.14 1031.93 220.582 1030 220.582C1028.08 220.582 1026.52 222.14 1026.52 224.062C1026.52 225.984 1028.08 227.542 1030 227.542Z" fill="#FAFAFA"/>
<path d="M1054.33 224.062C1054.33 224.752 1054.14 225.428 1053.76 226.005C1053.38 226.583 1052.84 227.034 1052.2 227.304C1051.57 227.573 1050.87 227.647 1050.19 227.517C1049.51 227.387 1048.89 227.058 1048.4 226.573C1047.91 226.088 1047.57 225.468 1047.44 224.792C1047.3 224.116 1047.37 223.414 1047.63 222.776C1047.89 222.138 1048.34 221.592 1048.91 221.208C1049.48 220.824 1050.16 220.619 1050.85 220.619C1051.76 220.619 1052.64 220.981 1053.29 221.625C1053.95 222.27 1054.32 223.145 1054.33 224.062Z" fill="#FAFAFA"/>
<path d="M1071.69 227.542C1073.61 227.542 1075.17 225.984 1075.17 224.062C1075.17 222.14 1073.61 220.582 1071.69 220.582C1069.77 220.582 1068.21 222.14 1068.21 224.062C1068.21 225.984 1069.77 227.542 1071.69 227.542Z" fill="#FAFAFA"/>
<path d="M1390.7 281.914H1224.33V287.939H1390.7V281.914Z" fill="#FAFAFA"/>
<path d="M1390.7 306.688H1224.33V312.712H1390.7V306.688Z" fill="#FAFAFA"/>
<path d="M1390.7 331.459H1224.33V337.484H1390.7V331.459Z" fill="#FAFAFA"/>
<path d="M1390.7 356.232H1224.33V362.257H1390.7V356.232Z" fill="#FAFAFA"/>
<path d="M1307.51 381.006H1224.33V387.031H1307.51V381.006Z" fill="#FAFAFA"/>
<path d="M1047.63 435.748H1214V429.723H1047.63V435.748Z" fill="#FAFAFA"/>
<path d="M1047.63 460.521H1214V454.497H1047.63V460.521Z" fill="#FAFAFA"/>
<path d="M1047.63 485.332H1214V479.307H1047.63V485.332Z" fill="#FAFAFA"/>
<path d="M1047.63 510.105H1214V504.081H1047.63V510.105Z" fill="#FAFAFA"/>
<path d="M1130.81 534.879H1214V528.854H1130.81V534.879Z" fill="#FAFAFA"/>
<path d="M1385.09 423.098H1242.74V541.534H1385.09V423.098Z" fill="#FAFAFA"/>
<path d="M1242.48 505.762L1284.58 476.275L1313.92 496.595L1360.09 457.527L1385.09 482.3V541.537H1242.74L1242.48 505.762Z" fill="#EBEBEB"/>
<path d="M1316.38 469.464C1322.98 469.464 1328.32 464.12 1328.32 457.527C1328.32 450.934 1322.98 445.59 1316.38 445.59C1309.79 445.59 1304.45 450.934 1304.45 457.527C1304.45 464.12 1309.79 469.464 1316.38 469.464Z" fill="#EBEBEB"/>
<path d="M1189.98 278.244H1047.63V396.68H1189.98V278.244Z" fill="#FAFAFA"/>
<path d="M1047.4 360.946L1089.46 331.459L1118.8 351.778L1164.98 312.711L1189.98 337.483V396.72H1047.63L1047.4 360.946Z" fill="#EBEBEB"/>
<path d="M1121.27 324.646C1127.87 324.646 1133.21 319.301 1133.21 312.709C1133.21 306.116 1127.87 300.771 1121.27 300.771C1114.68 300.771 1109.34 306.116 1109.34 312.709C1109.34 319.301 1114.68 324.646 1121.27 324.646Z" fill="#EBEBEB"/>
<path d="M0 386.768H530.026V656.458C530.026 661.073 528.193 665.499 524.93 668.762C521.667 672.026 517.241 673.859 512.626 673.859H17.4006C12.7857 673.859 8.35977 672.026 5.09652 668.762C1.83327 665.499 0 661.073 0 656.458V386.768Z" fill="#F5F5F5"/>
<path d="M530.026 386.877H0V440.201H530.026V386.877Z" fill="#EBEBEB"/>
<path d="M32.3327 417.824C34.6474 417.824 36.5238 415.947 36.5238 413.632C36.5238 411.318 34.6474 409.441 32.3327 409.441C30.018 409.441 28.1416 411.318 28.1416 413.632C28.1416 415.947 30.018 417.824 32.3327 417.824Z" fill="#FAFAFA"/>
<path d="M57.4399 417.824C59.7546 417.824 61.631 415.947 61.631 413.632C61.631 411.318 59.7546 409.441 57.4399 409.441C55.1252 409.441 53.2488 411.318 53.2488 413.632C53.2488 415.947 55.1252 417.824 57.4399 417.824Z" fill="#FAFAFA"/>
<path d="M82.5141 417.824C84.8288 417.824 86.7052 415.947 86.7052 413.632C86.7052 411.318 84.8288 409.441 82.5141 409.441C80.1994 409.441 78.323 411.318 78.323 413.632C78.323 415.947 80.1994 417.824 82.5141 417.824Z" fill="#FAFAFA"/>
<path d="M466.263 483.197H266.137V490.457H466.263V483.197Z" fill="#EBEBEB"/>
<path d="M466.263 513.025H266.137V520.285H466.263V513.025Z" fill="#EBEBEB"/>
<path d="M466.263 542.811H266.137V550.07H466.263V542.811Z" fill="#EBEBEB"/>
<path d="M466.263 572.633H266.137V579.892H466.263V572.633Z" fill="#EBEBEB"/>
<path d="M366.2 602.418H266.137V609.678H366.2V602.418Z" fill="#EBEBEB"/>
<path d="M215.354 478.111H44.0798V620.609H215.354V478.111Z" fill="#FAFAFA"/>
<path d="M43.8193 577.612L94.4121 542.137L129.737 566.573L185.269 519.572L215.356 549.359V620.608H44.0813L43.8193 577.612Z" fill="#EBEBEB"/>
<path d="M147.025 519.572C147.033 522.418 146.195 525.201 144.619 527.57C143.043 529.939 140.799 531.786 138.172 532.878C135.545 533.971 132.652 534.258 129.861 533.705C127.071 533.152 124.507 531.782 122.495 529.771C120.483 527.759 119.114 525.195 118.56 522.404C118.007 519.613 118.295 516.721 119.387 514.094C120.479 511.466 122.327 509.222 124.696 507.646C127.064 506.07 129.848 505.233 132.693 505.24C136.494 505.24 140.14 506.75 142.827 509.438C145.515 512.126 147.025 515.771 147.025 519.572Z" fill="#EBEBEB"/>
<path d="M511.802 102.46L385.539 129.736L422.866 302.526L549.129 275.25L511.802 102.46Z" fill="white"/>
<path d="M549.111 275.285C549.016 275.004 548.941 274.717 548.887 274.425L548.325 271.992C547.839 269.822 547.128 266.679 546.23 262.562C544.396 254.33 541.777 242.318 538.409 227.125C531.786 196.739 522.393 153.631 511.242 102.626L511.878 103.038L385.658 130.355L386.107 129.644C399.99 194.195 412.863 253.956 423.303 302.453L422.742 302.079L514.497 282.508L540.018 277.119L546.754 275.734L549.111 275.285L546.866 275.809L540.243 277.306L514.871 282.919L423.078 303.014H422.629V302.528C412.114 253.881 399.167 194.307 385.209 129.794V129.195H385.807L512.065 101.99H512.589V102.514C523.553 153.706 532.796 196.964 539.307 227.462C542.525 242.43 545.07 254.629 546.791 262.862C547.614 266.903 548.288 270.046 548.737 272.217C548.924 273.227 549.111 274.013 549.224 274.612C549.336 275.211 549.111 275.285 549.111 275.285Z" fill="#263238"/>
<path d="M470.229 147.839C470.229 148.138 456.607 151.394 439.693 155.024C422.779 158.653 408.933 161.385 408.896 161.086C408.859 160.786 422.48 157.531 439.431 153.864C456.383 150.196 470.154 147.502 470.229 147.839Z" fill="#263238"/>
<path d="M506.676 155.653C506.676 155.99 485.608 160.817 459.526 166.468C433.444 172.118 412.189 176.422 412.114 176.085C412.039 175.748 433.144 170.921 459.264 165.308C485.384 159.695 506.601 155.354 506.676 155.653Z" fill="#263238"/>
<path d="M510.046 171.333C510.046 171.67 489.015 176.497 462.895 182.11C436.776 187.723 415.596 192.176 415.596 191.765C415.596 191.353 436.626 186.601 462.746 180.95C488.865 175.3 509.971 170.996 510.046 171.333Z" fill="#263238"/>
<path d="M513.412 187.015C513.412 187.314 492.381 192.141 466.299 197.792C440.217 203.442 418.962 207.746 418.887 207.409C418.812 207.072 439.917 202.282 466.037 196.632C492.157 190.981 513.374 186.678 513.412 187.015Z" fill="#263238"/>
<path d="M516.817 202.655C516.817 202.992 495.787 207.819 469.667 213.433C443.547 219.046 422.33 223.386 422.255 223.087C422.18 222.788 443.323 217.923 469.405 212.273C495.487 206.622 516.63 202.356 516.817 202.655Z" fill="#263238"/>
<path d="M520.372 218.374C520.372 218.673 499.341 223.501 473.222 229.151C447.102 234.802 425.922 239.105 425.847 238.768C425.772 238.432 446.878 233.642 472.997 227.991C499.117 222.341 520.11 218 520.372 218.374Z" fill="#263238"/>
<path d="M523.59 233.974C523.59 234.311 502.522 239.138 476.44 244.751C450.358 250.364 429.103 254.705 429.028 254.405C428.953 254.106 450.058 249.241 476.178 243.591C502.298 237.94 523.515 233.674 523.59 233.974Z" fill="#263238"/>
<path d="M483.25 259.09C483.25 259.427 472.024 262.121 457.954 265.152C443.884 268.183 432.47 270.391 432.433 270.054C432.396 269.718 443.659 267.023 457.692 263.992C471.725 260.961 483.175 258.791 483.25 259.09Z" fill="#263238"/>
<path d="M1102.49 544.756L1134.82 627.717L1148.29 605.976L1166.96 630.486L1189.23 609.306L1168.01 588.875L1187.58 575.628L1102.49 544.756Z" fill="#9E22E9"/>
<path d="M1090.33 557.033C1086.64 560.068 1082.71 562.797 1078.58 565.191C1074.63 567.909 1070.48 570.311 1066.15 572.376C1073.77 566.592 1081.85 561.46 1090.33 557.033Z" fill="#9E22E9"/>
<path d="M1092.91 540.19C1091.13 539.959 1089.38 539.506 1087.71 538.843C1084.53 537.833 1080.22 536.299 1075.55 534.39C1070.87 532.482 1066.68 530.648 1063.68 529.226C1062.02 528.569 1060.43 527.715 1058.97 526.682C1060.71 527.101 1062.4 527.69 1064.02 528.44L1076 533.305L1087.97 538.057C1089.68 538.611 1091.33 539.325 1092.91 540.19Z" fill="#9E22E9"/>
<path d="M1102.6 502.768C1103.18 504.234 1103.57 505.768 1103.76 507.333C1104.32 510.177 1105 514.144 1105.56 518.559C1106.12 522.975 1106.46 526.979 1106.61 529.785C1106.8 531.351 1106.8 532.935 1106.61 534.501C1105.58 529.241 1104.84 523.933 1104.36 518.597C1103.51 513.353 1102.92 508.07 1102.6 502.768Z" fill="#9E22E9"/>
<path d="M1147.32 521.215C1147.32 521.552 1141.48 524.096 1134.75 528.437C1128.01 532.778 1122.85 536.445 1122.47 536.221C1122.1 535.996 1123.59 534.986 1125.65 533.377C1127.71 531.768 1130.7 529.635 1134.11 527.427C1138.13 524.632 1142.6 522.532 1147.32 521.215Z" fill="#9E22E9"/>
<path d="M350.782 558.9C350.534 555.51 350.021 552.144 349.247 548.834C348.214 544.988 346.612 541.317 344.495 537.944C341.79 533.455 338.245 529.529 334.055 526.381C328.986 522.565 323.088 520.001 316.841 518.897C309.661 517.571 302.258 518.192 295.399 520.693C291.707 522.021 288.237 523.901 285.108 526.269C283.468 527.464 281.917 528.777 280.468 530.198C279.037 531.675 277.712 533.251 276.501 534.913C271.351 541.885 268.572 550.325 268.572 558.994C268.572 567.662 271.351 576.102 276.501 583.074C277.712 584.736 279.037 586.312 280.468 587.789C281.926 589.211 283.476 590.536 285.108 591.755C288.229 594.126 291.701 595.995 295.399 597.294C301.808 599.656 308.708 600.366 315.464 599.359C322.22 598.352 328.613 595.66 334.055 591.531C338.247 588.37 341.792 584.432 344.495 579.93C346.582 576.56 348.134 572.886 349.098 569.041C349.867 565.743 350.38 562.39 350.632 559.012C350.648 559.236 350.648 559.462 350.632 559.686V561.632C350.607 562.71 350.507 563.785 350.332 564.85C350.183 566.303 349.921 567.741 349.547 569.153C348.649 573.108 347.134 576.897 345.056 580.379C342.07 585.449 338.04 589.826 333.234 593.219C328.427 596.613 322.954 598.946 317.178 600.063C309.821 601.469 302.223 600.874 295.174 598.341C291.385 596.966 287.827 595.023 284.622 592.579C282.931 591.347 281.331 589.996 279.832 588.537C278.364 587.023 277.001 585.41 275.753 583.71C270.431 576.547 267.557 567.861 267.557 558.937C267.557 550.014 270.431 541.328 275.753 534.165C277.002 532.443 278.378 530.817 279.869 529.3C281.346 527.82 282.935 526.456 284.622 525.221C287.845 522.812 291.416 520.906 295.212 519.571C302.253 517.007 309.857 516.399 317.215 517.812C323.023 518.938 328.524 521.285 333.356 524.698C338.188 528.111 342.24 532.511 345.243 537.608C347.321 541.09 348.836 544.879 349.734 548.834C350.111 550.257 350.374 551.709 350.52 553.175C350.695 554.226 350.795 555.289 350.819 556.355V558.339C350.818 558.526 350.805 558.714 350.782 558.9Z" fill="#263238"/>
<path d="M309.432 579.629C308.684 565.805 308.684 551.952 309.432 538.129C310.23 551.951 310.23 565.807 309.432 579.629Z" fill="#263238"/>
<path d="M330.201 558.904C323.306 559.459 316.386 559.646 309.47 559.466C302.542 559.647 295.61 559.459 288.702 558.904C295.607 558.302 302.542 558.102 309.47 558.305C316.386 558.103 323.308 558.303 330.201 558.904Z" fill="#263238"/>
<path d="M984.914 692.491C984.652 692.491 956.025 648.409 920.999 593.625C885.974 538.841 857.796 494.311 858.095 494.124C858.395 493.937 886.984 538.205 922.01 592.989C957.035 647.773 985.176 692.304 984.914 692.491Z" fill="#263238"/>
<path d="M997.337 789.152C1034.02 789.152 1063.76 759.414 1063.76 722.73C1063.76 686.047 1034.02 656.309 997.337 656.309C960.654 656.309 930.916 686.047 930.916 722.73C930.916 759.414 960.654 789.152 997.337 789.152Z" fill="white"/>
<path d="M930.912 722.731V721.646C930.912 720.86 930.912 719.812 930.912 718.465V716.145C930.912 715.284 931.174 714.348 931.286 713.338C931.557 711.014 931.995 708.713 932.596 706.453C934.091 700.179 936.539 694.172 939.856 688.641C944.655 680.474 951.144 673.428 958.889 667.975C966.634 662.521 975.455 658.786 984.761 657.02C987.551 656.474 990.377 656.136 993.218 656.01C994.677 656.01 996.099 655.785 997.596 655.823L1002.01 656.047C1003.5 656.085 1004.99 656.236 1006.46 656.496C1007.96 656.758 1009.5 656.945 1010.99 657.245C1014.02 657.904 1016.99 658.767 1019.9 659.827C1022.9 660.88 1025.82 662.13 1028.65 663.569C1030.08 664.355 1031.42 665.253 1032.85 666.076C1034.26 666.895 1035.61 667.821 1036.89 668.845C1039.52 670.828 1042.02 672.978 1044.37 675.281C1046.73 677.724 1048.93 680.311 1050.96 683.027C1055.11 688.646 1058.34 694.884 1060.54 701.513C1062.74 708.334 1063.9 715.45 1063.98 722.618C1063.93 729.801 1062.76 736.932 1060.54 743.761C1058.35 750.396 1055.12 756.638 1050.96 762.247C1048.93 764.963 1046.73 767.55 1044.37 769.993C1042.02 772.297 1039.52 774.447 1036.89 776.429C1035.6 777.453 1034.25 778.391 1032.85 779.236C1031.42 780.059 1030.08 780.957 1028.65 781.706C1025.83 783.16 1022.9 784.411 1019.9 785.448C1016.99 786.503 1014.01 787.377 1010.99 788.067C1009.5 788.367 1007.96 788.516 1006.46 788.778C1004.99 789.051 1003.51 789.214 1002.01 789.265H997.596C996.099 789.265 994.64 789.265 993.218 789.265C990.381 789.101 987.556 788.764 984.761 788.254C975.456 786.472 966.637 782.727 958.894 777.268C951.151 771.809 944.66 764.762 939.856 756.596C936.533 751.068 934.085 745.06 932.596 738.784C931.991 736.524 931.553 734.223 931.286 731.899C931.286 730.888 930.987 729.953 930.912 729.092C930.837 728.232 930.912 727.483 930.912 726.772C930.912 725.425 930.912 724.377 930.912 723.591V722.544C930.938 722.892 930.938 723.243 930.912 723.591L931.137 726.772V729.055C931.137 729.916 931.436 730.851 931.586 731.861C931.863 734.165 932.326 736.443 932.97 738.672C934.555 744.882 937.078 750.813 940.455 756.26C945.273 764.283 951.736 771.195 959.417 776.542C967.099 781.889 975.825 785.549 985.023 787.281C987.781 787.78 990.568 788.105 993.367 788.254C994.752 788.254 996.211 788.254 997.633 788.254L1002.01 788.03C1003.48 787.979 1004.94 787.816 1006.39 787.543C1007.89 787.281 1009.35 787.132 1010.84 786.832C1013.82 786.15 1016.76 785.288 1019.64 784.25C1022.56 783.174 1025.43 781.925 1028.21 780.508C1029.59 779.76 1030.94 778.862 1032.32 778.039C1033.7 777.21 1035.02 776.297 1036.29 775.307C1038.92 773.353 1041.42 771.228 1043.77 768.945C1046.11 766.614 1048.28 764.112 1050.25 761.461C1054.34 755.957 1057.51 749.828 1059.64 743.312C1064.18 729.839 1064.18 715.249 1059.64 701.775C1057.5 695.275 1054.32 689.16 1050.25 683.664C1046.39 678.283 1041.69 673.557 1036.33 669.668C1035.06 668.678 1033.74 667.765 1032.36 666.937C1030.98 666.113 1029.63 665.253 1028.24 664.504C1025.48 663.057 1022.61 661.806 1019.67 660.762C1016.8 659.708 1013.87 658.845 1010.88 658.18C1009.38 657.843 1007.92 657.694 1006.43 657.432C1004.98 657.177 1003.52 657.015 1002.05 656.945L997.671 656.721C996.249 656.721 994.827 656.721 993.405 656.908C990.605 657.026 987.816 657.339 985.06 657.843C975.863 659.576 967.136 663.236 959.455 668.583C951.773 673.93 945.311 680.842 940.492 688.865C937.116 694.312 934.592 700.243 933.008 706.453C932.36 708.694 931.897 710.984 931.623 713.301C931.623 714.274 931.286 715.209 931.174 716.07V718.39L930.95 721.533C930.966 721.933 930.953 722.333 930.912 722.731Z" fill="#263238"/>
<path d="M732.322 696.941C732.022 696.941 731.76 651.176 731.76 594.783C731.76 538.39 732.022 492.662 732.322 492.662C732.621 492.662 732.92 538.39 732.92 594.783C732.92 651.176 732.658 696.941 732.322 696.941Z" fill="#263238"/>
<path d="M730.976 790.613C767.66 790.613 797.398 760.875 797.398 724.191C797.398 687.508 767.66 657.77 730.976 657.77C694.292 657.77 664.554 687.508 664.554 724.191C664.554 760.875 694.292 790.613 730.976 790.613Z" fill="white"/>
<path d="M664.59 724.19C664.59 724.19 664.59 723.853 664.59 723.142C664.59 722.431 664.59 721.308 664.59 719.961V717.641C664.59 716.781 664.852 715.845 664.964 714.835C665.234 712.499 665.672 710.185 666.274 707.912C667.769 701.638 670.217 695.631 673.533 690.1C678.361 681.957 684.858 674.929 692.598 669.478C700.338 664.028 709.145 660.279 718.438 658.479C721.231 657.952 724.057 657.614 726.895 657.469C728.355 657.469 729.814 657.469 731.274 657.469L735.689 657.656C737.196 657.707 738.697 657.869 740.18 658.142C741.639 658.404 743.173 658.554 744.67 658.853C747.701 659.549 750.687 660.423 753.614 661.473C756.606 662.51 759.52 663.761 762.333 665.215C763.755 665.963 765.102 666.861 766.524 667.685C767.932 668.53 769.282 669.467 770.565 670.491C773.204 672.463 775.705 674.613 778.049 676.928C780.412 679.362 782.612 681.95 784.635 684.674C788.798 690.269 792.032 696.498 794.215 703.122C798.855 716.835 798.855 731.694 794.215 745.407C792.048 752.037 788.812 758.269 784.635 763.856C780.727 769.348 775.935 774.153 770.453 778.076C769.178 779.1 767.827 780.025 766.412 780.845C764.99 781.668 763.642 782.566 762.221 783.352C756.64 786.251 750.701 788.403 744.558 789.751C743.061 790.05 741.527 790.237 740.03 790.462C738.563 790.755 737.073 790.918 735.577 790.948L731.161 791.173C729.664 791.173 728.243 791.173 726.783 790.986C723.943 790.859 721.116 790.521 718.326 789.975C709.026 788.193 700.212 784.452 692.469 779C684.727 773.548 678.234 766.51 673.421 758.355C670.105 752.824 667.656 746.816 666.162 740.543C665.556 738.27 665.118 735.956 664.852 733.62C664.852 732.609 664.552 731.711 664.478 730.851C664.403 729.99 664.478 729.204 664.478 728.531C664.478 727.146 664.478 726.098 664.478 725.35C664.478 724.601 664.478 724.265 664.478 724.265V725.35L664.665 728.493C664.665 729.204 664.665 729.953 664.665 730.813C664.665 731.674 664.964 732.572 665.114 733.582C665.387 735.899 665.851 738.189 666.498 740.43C668.083 746.64 670.606 752.571 673.982 758.018C678.336 765.271 684.04 771.622 690.784 776.728C698.946 782.945 708.459 787.15 718.551 789.002C721.303 789.538 724.093 789.863 726.895 789.975C728.317 789.975 729.739 789.975 731.161 789.975L735.54 789.713C737.02 789.673 738.496 789.523 739.955 789.264C741.415 789.002 742.911 788.815 744.371 788.516C747.356 787.851 750.294 786.988 753.165 785.934C756.108 784.897 758.972 783.646 761.734 782.192C763.119 781.443 764.466 780.583 765.85 779.759C767.233 778.94 768.558 778.027 769.817 777.028C772.44 775.063 774.94 772.939 777.301 770.666C779.623 768.318 781.786 765.818 783.775 763.182C787.867 757.681 791.039 751.551 793.167 745.033C795.34 738.321 796.488 731.319 796.573 724.265C796.47 717.212 795.322 710.213 793.167 703.496C791.024 696.984 787.853 690.857 783.775 685.347C779.9 679.989 775.202 675.278 769.854 671.389C768.589 670.399 767.264 669.486 765.888 668.657C764.503 667.834 763.156 666.936 761.771 666.188C758.995 664.765 756.133 663.515 753.202 662.446C750.331 661.391 747.393 660.529 744.408 659.864C742.949 659.564 741.452 659.415 739.993 659.153C738.535 658.881 737.059 658.719 735.577 658.666L731.236 658.442C729.777 658.442 728.355 658.442 726.933 658.442C724.134 658.591 721.346 658.916 718.588 659.415C709.391 661.147 700.664 664.807 692.983 670.154C685.301 675.501 678.839 682.413 674.02 690.436C670.651 695.874 668.128 701.792 666.536 707.987C665.895 710.229 665.432 712.519 665.151 714.835C665.151 715.845 664.814 716.78 664.702 717.604V719.924L664.515 723.105L664.59 724.19Z" fill="#263238"/>
<path d="M730.976 694.438L702.162 720.632V753.824H724.615V733.916H738.872V753.824H759.79V720.632L730.976 694.438Z" fill="#263238"/>
<path d="M475.466 694.811C475.166 694.623 503.793 649.419 539.305 593.775C574.818 538.13 603.893 493.263 604.193 493.412C604.492 493.562 575.865 538.804 540.316 594.448C504.766 650.093 475.466 694.96 475.466 694.811Z" fill="#263238"/>
<path d="M464.501 789.783C501.185 789.783 530.923 760.045 530.923 723.361C530.923 686.677 501.185 656.939 464.501 656.939C427.818 656.939 398.08 686.677 398.08 723.361C398.08 760.045 427.818 789.783 464.501 789.783Z" fill="white"/>
<path d="M530.925 723.552C530.902 723.191 530.902 722.828 530.925 722.467L530.7 719.323V717.003C530.7 716.143 530.439 715.245 530.289 714.234C529.983 711.92 529.508 709.631 528.867 707.386C527.286 701.175 524.762 695.244 521.383 689.798C517.014 682.545 511.298 676.194 504.543 671.088C496.385 664.865 486.871 660.659 476.777 658.814C474.037 658.279 471.26 657.953 468.47 657.841C467.048 657.841 465.626 657.654 464.167 657.841L459.788 658.066C458.317 658.098 456.852 658.261 455.41 658.552C453.951 658.777 452.454 658.964 450.995 659.263C444.946 660.63 439.098 662.768 433.594 665.625C432.209 666.373 430.9 667.234 429.515 668.057C428.127 668.868 426.801 669.781 425.548 670.789C422.917 672.743 420.417 674.868 418.064 677.15C415.765 679.508 413.615 682.008 411.628 684.634C407.53 690.138 404.346 696.267 402.198 702.783C397.707 716.265 397.707 730.839 402.198 744.32C404.355 750.822 407.538 756.937 411.628 762.432C415.462 767.835 420.166 772.565 425.548 776.427C426.801 777.435 428.127 778.348 429.515 779.159C430.9 779.982 432.209 780.88 433.594 781.629C436.386 783.045 439.26 784.295 442.201 785.371C445.07 786.43 448.008 787.293 450.995 787.953C452.454 788.252 453.951 788.439 455.41 788.664C456.867 788.939 458.344 789.101 459.826 789.15L464.167 789.375C465.626 789.375 467.048 789.375 468.47 789.375C471.269 789.224 474.056 788.899 476.815 788.402C485.999 786.622 494.705 782.925 502.365 777.554C510.025 772.183 516.467 765.258 521.271 757.231C524.631 751.775 527.153 745.847 528.755 739.643C529.363 737.405 529.825 735.13 530.139 732.832C530.139 731.822 530.476 730.886 530.551 730.063V727.743L530.775 724.562C530.75 724.213 530.75 723.863 530.775 723.514C530.801 723.876 530.801 724.238 530.775 724.6C530.775 725.348 530.775 726.396 530.775 727.743V730.063C530.775 730.924 530.551 731.859 530.401 732.87C530.131 735.206 529.694 737.519 529.091 739.792C527.634 746.06 525.196 752.059 521.869 757.567C517.053 765.723 510.56 772.763 502.818 778.221C495.077 783.679 486.264 787.43 476.964 789.225C474.172 789.757 471.346 790.095 468.507 790.236C467.085 790.236 465.626 790.423 464.167 790.423L459.713 790.198C458.219 790.145 456.731 789.983 455.26 789.712C453.764 789.487 452.267 789.3 450.77 789.001C447.735 788.323 444.747 787.448 441.826 786.381C438.825 785.337 435.899 784.087 433.07 782.639C431.648 781.891 430.301 780.993 428.916 780.169C427.509 779.324 426.158 778.387 424.875 777.363C422.237 775.39 419.736 773.24 417.391 770.927C415.04 768.491 412.852 765.904 410.842 763.18C406.675 757.582 403.429 751.354 401.225 744.732C396.635 731.011 396.635 716.168 401.225 702.447C403.413 695.818 406.661 689.588 410.842 683.998C414.723 678.483 419.52 673.674 425.025 669.778C426.299 668.754 427.651 667.828 429.066 667.009C430.451 666.186 431.798 665.288 433.22 664.502C436.056 663.07 438.981 661.82 441.976 660.76C444.898 659.705 447.885 658.842 450.92 658.178C452.416 657.878 453.913 657.691 455.41 657.467C456.878 657.178 458.368 657.015 459.863 656.98L464.316 656.756C465.776 656.756 467.235 656.756 468.657 656.943C471.496 657.086 474.321 657.424 477.114 657.953C487.343 659.868 496.973 664.177 505.217 670.527C512.01 675.737 517.739 682.203 522.094 689.574C525.416 695.098 527.853 701.108 529.316 707.386C529.921 709.659 530.359 711.972 530.626 714.309C530.626 715.282 530.925 716.217 531 717.078V719.398C531 720.783 531 721.83 531 722.579C530.995 722.904 530.97 723.229 530.925 723.552Z" fill="#263238"/>
<path d="M490.173 688.787H438.046V757.94H490.173V688.787Z" fill="#263238"/>
<path d="M466.673 699.829C460.988 700.627 455.219 700.627 449.534 699.829C455.219 699.031 460.988 699.031 466.673 699.829Z" fill="#455A64"/>
<path d="M481.753 709.554C476.073 710.155 470.359 710.355 464.651 710.153C458.932 710.356 453.204 710.155 447.513 709.554C453.204 708.953 458.932 708.753 464.651 708.955C470.359 708.753 476.073 708.954 481.753 709.554Z" fill="#455A64"/>
<path d="M481.753 715.468C476.073 716.069 470.359 716.269 464.651 716.067C458.932 716.27 453.204 716.069 447.513 715.468C453.204 714.867 458.932 714.667 464.651 714.869C470.359 714.667 476.073 714.868 481.753 715.468Z" fill="#455A64"/>
<path d="M481.753 721.384C476.073 721.985 470.359 722.185 464.651 721.983C458.932 722.185 453.204 721.985 447.513 721.384C453.204 720.783 458.932 720.583 464.651 720.785C470.359 720.584 476.073 720.784 481.753 721.384Z" fill="#455A64"/>
<path d="M481.753 727.291C476.073 727.891 470.359 728.091 464.651 727.889C458.932 728.092 453.204 727.892 447.513 727.291C453.204 726.689 458.932 726.489 464.651 726.692C470.359 726.49 476.073 726.69 481.753 727.291Z" fill="#455A64"/>
<path d="M481.753 733.204C476.073 733.805 470.359 734.005 464.651 733.803C458.932 734.006 453.204 733.806 447.513 733.204C453.204 732.603 458.932 732.403 464.651 732.606C470.359 732.404 476.073 732.604 481.753 733.204Z" fill="#455A64"/>
<path d="M481.753 739.119C476.073 739.719 470.359 739.919 464.651 739.717C458.932 739.92 453.204 739.72 447.513 739.119C453.204 738.517 458.932 738.317 464.651 738.52C470.359 738.318 476.073 738.518 481.753 739.119Z" fill="#455A64"/>
<path d="M481.753 745.035C476.073 745.635 470.359 745.836 464.651 745.634C458.932 745.836 453.204 745.636 447.513 745.035C453.204 744.433 458.932 744.233 464.651 744.436C470.359 744.234 476.073 744.434 481.753 745.035Z" fill="#455A64"/>
<path d="M1034.87 380.852H452.866C421.287 380.852 395.688 406.451 395.688 438.03C395.688 469.609 421.287 495.209 452.866 495.209H1034.87C1066.45 495.209 1092.05 469.609 1092.05 438.03C1092.05 406.451 1066.45 380.852 1034.87 380.852Z" fill="white"/>
<path d="M937.762 379.803V495.283H1035.06C1042.65 495.303 1050.18 493.822 1057.2 490.926C1064.22 488.031 1070.61 483.777 1075.98 478.409C1081.36 473.041 1085.62 466.664 1088.52 459.645C1091.43 452.626 1092.92 445.102 1092.91 437.505C1092.91 422.202 1086.83 407.525 1076.01 396.703C1065.19 385.882 1050.51 379.803 1035.21 379.803H937.762Z" fill="#9E22E9"/>
<path d="M1028.28 434.289C1028.06 432.315 1027.74 430.353 1027.31 428.414C1025.9 423.161 1022.76 418.535 1018.4 415.279C1015.23 412.901 1011.52 411.352 1007.6 410.77C1003.68 410.189 999.676 410.594 995.951 411.949C993.794 412.705 991.772 413.805 989.964 415.204C987.942 416.639 986.183 418.411 984.763 420.443C981.774 424.519 980.163 429.441 980.163 434.495C980.163 439.548 981.774 444.471 984.763 448.546C986.166 450.489 987.872 452.194 989.814 453.598C991.64 454.97 993.657 456.067 995.802 456.854C999.812 458.312 1004.14 458.686 1008.34 457.939C1011.99 457.281 1015.44 455.768 1018.4 453.523C1022.75 450.254 1025.88 445.633 1027.31 440.388C1027.74 438.437 1028.07 436.463 1028.28 434.476C1028.43 436.499 1028.25 438.532 1027.76 440.501C1026.47 445.941 1023.35 450.774 1018.93 454.197C1015.65 456.762 1011.77 458.451 1007.66 459.106C1003.55 459.76 999.34 459.359 995.427 457.939C990.802 456.248 986.77 453.244 983.827 449.295C980.667 445.028 978.962 439.86 978.962 434.551C978.962 429.242 980.667 424.073 983.827 419.807C985.318 417.786 987.11 416.007 989.141 414.531C991.055 413.098 993.174 411.963 995.427 411.163C999.627 409.672 1004.15 409.323 1008.52 410.153C1013.16 411.05 1017.44 413.264 1020.85 416.529C1024.26 419.794 1026.66 423.972 1027.76 428.564C1028.22 430.435 1028.4 432.365 1028.28 434.289Z" fill="white"/>
<path d="M1050.92 468.382C1046.02 465.611 1041.32 462.498 1036.85 459.064C1032.18 455.948 1027.73 452.509 1023.53 448.773C1028.42 451.544 1033.11 454.657 1037.56 458.091C1042.24 461.214 1046.71 464.652 1050.92 468.382Z" fill="white"/>
<path d="M887.582 427.332H461.884V451.805H887.582V427.332Z" fill="#EBEBEB"/>
<path d="M1037.82 495.287L1041.75 495.025C1043.37 494.919 1044.98 494.719 1046.58 494.426C1048.78 494.066 1050.95 493.566 1053.09 492.929C1059.09 491.104 1064.73 488.269 1069.78 484.547L1072.06 482.863L1074.23 480.88C1075.78 479.498 1077.23 478.01 1078.57 476.427C1080.03 474.892 1081.19 473.021 1082.62 471.225L1084.41 468.269L1085.31 466.735L1086.1 465.126C1088.37 460.581 1089.97 455.727 1090.85 450.719C1091.07 449.409 1091.26 448.062 1091.45 446.715L1091.67 442.561C1091.67 439.792 1091.67 436.873 1091.67 433.954C1091.31 420.214 1085.7 407.133 1076 397.393C1066.3 387.653 1053.25 381.99 1039.51 381.565C1023.94 381.565 1007.48 381.565 990.187 381.565L449.908 381.752C436.811 381.792 424.176 386.593 414.358 395.261C404.655 403.819 398.403 415.619 396.77 428.453C396.551 430.016 396.426 431.591 396.396 433.168C396.396 434.74 396.396 436.349 396.396 437.958C396.351 441.131 396.476 444.304 396.77 447.463C397.458 453.717 399.284 459.792 402.159 465.388C406.322 473.726 412.602 480.825 420.372 485.974C428.141 491.123 437.126 494.14 446.427 494.725C449.459 494.95 452.527 494.912 455.595 494.912H571.263H814.16L977.913 495.1H1022.41H1034.01H1037.75H1034.01H1022.41H977.913H814.16H571.263H455.483C452.415 495.1 449.346 495.1 446.24 494.912C436.738 494.32 427.559 491.243 419.619 485.99C411.68 480.736 405.259 473.49 400.999 464.976C398.05 459.242 396.185 453.013 395.498 446.602C395.193 443.406 395.055 440.196 395.086 436.985C395.086 435.376 395.086 433.767 395.086 432.158C395.11 430.541 395.248 428.928 395.498 427.331C397.143 414.215 403.532 402.155 413.46 393.428C423.491 384.558 436.405 379.637 449.795 379.582L990.075 379.769C1007.36 379.769 1023.75 379.769 1039.4 379.769C1053.34 380.207 1066.59 385.984 1076.4 395.907C1086.21 405.83 1091.84 419.142 1092.12 433.094C1092.12 436.05 1092.12 438.894 1092.12 441.738C1092.12 443.16 1091.93 444.544 1091.86 445.929C1091.78 447.313 1091.45 448.623 1091.26 449.97C1090.35 455.02 1088.71 459.91 1086.4 464.489L1085.61 466.099L1084.67 467.633L1082.84 470.589C1081.57 472.416 1080.21 474.177 1078.76 475.865C1077.4 477.429 1075.94 478.904 1074.38 480.281L1072.18 482.264L1069.89 483.986C1064.8 487.701 1059.1 490.512 1053.05 492.293C1050.91 492.924 1048.72 493.399 1046.51 493.715C1044.91 494.014 1043.3 494.202 1041.68 494.276L1037.82 495.287Z" fill="#263238"/>
<path d="M736.14 424.19C734.044 421.758 733.857 419.737 738.497 419.325C748.788 418.39 756.347 413.899 757.544 411.317C758.742 408.735 755.486 406.153 752.717 407.575C749.521 408.98 746.146 409.937 742.688 410.419C739.925 410.865 737.107 410.865 734.344 410.419C731.949 410.045 729.853 409.633 727.982 409.222C722.495 408.11 717.233 406.086 712.415 403.234L689.401 427.932L700.179 440.131C701.811 442.386 703.99 444.19 706.509 445.375C709.029 446.559 711.807 447.086 714.585 446.904C722.168 445.564 729.492 443.038 736.289 439.42C737.973 436.838 752.904 446.044 757.694 449.487C762.484 452.929 766.039 452.069 765.852 448.738C765.852 446.493 751.295 435.566 746.468 432.273C742.734 429.945 739.27 427.209 736.14 424.115" fill="#FFBE9D"/>
<path d="M722.442 445.478C722.442 445.478 721.806 445.89 720.609 445.89C719.05 445.787 717.556 445.229 716.312 444.284C715.068 443.34 714.128 442.05 713.611 440.576C713.274 439.453 713.349 438.705 713.611 438.705C713.873 438.705 714.509 441.399 717.166 443.345C718.776 444.38 720.566 445.103 722.442 445.478Z" fill="#EB996E"/>
<path d="M731.724 441.89C731.724 441.89 731.088 442.264 729.928 442.189C728.447 442.083 727.035 441.521 725.887 440.58C724.69 439.68 723.79 438.442 723.305 437.025C722.968 435.977 723.043 435.266 723.305 435.229C723.567 435.191 724.278 437.774 726.747 439.645C728.282 440.642 729.961 441.399 731.724 441.89Z" fill="#EB996E"/>
<path d="M756.532 186.115C757.505 206.322 782.128 233.976 800.426 238.504C810.043 240.824 821.12 239.739 828.754 246.213C841.851 257.439 834.18 280.303 843.011 295.159C848.437 304.327 859.214 308.818 865.463 317.611C875.604 332.056 868.794 353.872 854.948 364.612C841.102 375.352 822.691 377.41 805.366 376.961C767.197 375.988 728.13 363.863 700.588 336.808C687.64 324.123 636.973 284.906 654.635 191.953" fill="#263238"/>
<path d="M894.24 330.634L749.16 287.563C742.41 284.593 735.323 282.457 728.055 281.201L679.072 281.538C672.646 281.506 666.28 282.779 660.361 285.28L528.341 329.137C523.352 330.957 519.066 334.307 516.095 338.709C513.125 343.111 511.622 348.34 511.801 353.648C511.801 367.718 521.942 379.131 534.478 379.131H595.212C595.212 379.692 594.95 380.029 594.95 380.029L807.013 380.815H887.954C900.452 380.815 910.593 369.289 910.593 355.07C910.737 349.804 909.24 344.624 906.31 340.246C903.381 335.868 899.163 332.509 894.24 330.634Z" fill="#4B4AA1"/>
<path d="M865.164 346.275H863.854L860.112 345.864C856.856 345.452 852.179 344.928 846.379 344.367C831.257 342.902 816.066 342.265 800.875 342.458C785.688 342.666 770.523 343.69 755.447 345.527C749.646 346.238 744.969 346.911 741.751 347.398L738.008 347.922C737.573 347.971 737.134 347.971 736.699 347.922C737.104 347.747 737.533 347.634 737.971 347.585L741.713 346.837C744.894 346.2 749.571 345.414 755.372 344.591C785.577 340.402 816.186 340 846.491 343.394C852.291 344.067 857.006 344.741 860.224 345.265L863.966 345.938C864.377 346.006 864.779 346.119 865.164 346.275Z" fill="#263238"/>
<g opacity="0.6">
<path opacity="0.6" d="M830.964 311.025C830.964 311.025 830.964 311.212 830.552 311.512L829.28 312.859C828.157 314.019 826.473 315.74 824.153 317.836C821.391 320.396 818.452 322.759 815.359 324.908C811.246 327.822 806.664 330.011 801.813 331.382C795.836 332.862 789.575 332.733 783.664 331.008C776.992 328.966 770.586 326.139 764.58 322.588C758.036 318.674 751.116 315.428 743.923 312.896C736.187 310.255 727.73 310.697 720.311 314.131C712.827 317.574 706.166 322.813 699.093 326.592C697.335 327.565 695.351 328.314 693.667 329.137C691.983 329.96 689.925 330.522 688.092 331.008C684.429 332.044 680.665 332.684 676.866 332.916C663.684 333.895 650.569 330.286 639.744 322.701C635.758 319.669 632.005 316.342 628.518 312.747C625.877 310.094 622.968 307.724 619.836 305.674C617.137 303.973 614.12 302.839 610.968 302.344C611.8 302.352 612.628 302.452 613.437 302.643C615.795 303.118 618.049 304.004 620.098 305.263C623.297 307.286 626.282 309.631 629.005 312.26C632.495 315.794 636.248 319.059 640.231 322.027C650.955 329.343 663.845 332.8 676.791 331.831C680.49 331.562 684.152 330.91 687.718 329.885C689.551 329.436 691.46 328.725 693.181 328.089C694.902 327.453 696.736 326.517 698.457 325.582C705.418 321.84 711.929 316.564 719.75 313.046C727.431 309.507 736.178 309.051 744.185 311.774C751.438 314.365 758.419 317.661 765.029 321.615C770.919 325.146 777.197 327.984 783.739 330.072C789.48 331.793 795.575 331.961 801.402 330.559C806.186 329.278 810.716 327.19 814.798 324.385C817.899 322.282 820.861 319.982 823.667 317.499C825.987 315.441 827.746 313.757 828.943 312.672L830.29 311.437C830.964 311.138 830.964 310.988 830.964 311.025Z" fill="white"/>
</g>
<g opacity="0.2">
<path opacity="0.2" d="M605.729 345.975L697.409 363.263L686.819 380.514L684.05 380.551L605.729 345.975Z" fill="black"/>
</g>
<g opacity="0.6">
<path opacity="0.6" d="M883.351 327.864C883.391 328.324 883.391 328.788 883.351 329.248C883.306 330.591 883.168 331.929 882.939 333.252C881.912 339.391 879.249 345.139 875.233 349.893C871.216 354.647 865.993 358.232 860.113 360.27C855.971 361.736 851.594 362.421 847.203 362.291C842.542 362.002 837.932 361.16 833.469 359.784C828.867 358.474 824.451 357.052 820.11 356.042C815.95 355.099 811.661 354.872 807.424 355.368C800.235 356.25 793.413 359.041 787.666 363.451C783.743 366.384 780.405 370.027 777.825 374.191L776.627 376.174L775.879 377.671C775.692 378.102 775.467 378.515 775.205 378.906C775.3 378.452 775.451 378.012 775.654 377.596L776.328 376.024L777.451 373.966C779.892 369.609 783.188 365.79 787.143 362.74C792.943 358.102 799.908 355.15 807.275 354.208C811.631 353.685 816.044 353.887 820.335 354.807C824.75 355.705 829.203 357.127 833.769 358.549C838.145 359.911 842.667 360.752 847.24 361.056C852.98 361.233 858.675 359.991 863.819 357.438C868.963 354.886 873.397 351.102 876.728 346.425C879.537 342.423 881.498 337.89 882.49 333.103C883.351 329.772 883.351 327.826 883.351 327.864Z" fill="white"/>
</g>
<path d="M528.378 376.327C528.378 376.327 694.152 449.485 693.291 447.838C692.43 446.192 719.486 398.181 719.486 398.181L585.183 331.797L528.378 376.327Z" fill="#4B4AA1"/>
<path d="M604.456 341.301C605.647 341.66 606.8 342.137 607.898 342.723L616.992 347.026C624.7 350.768 635.253 355.857 646.928 361.583C658.603 367.308 669.118 372.622 676.677 376.551L685.658 381.154C686.783 381.683 687.86 382.309 688.877 383.025C687.704 382.646 686.565 382.171 685.471 381.603L676.341 377.299C668.856 373.557 658.079 368.468 646.404 362.705C634.729 356.943 624.214 351.666 616.468 347.737L607.487 343.097C606.434 342.573 605.421 341.972 604.456 341.301Z" fill="#263238"/>
<g opacity="0.6">
<path opacity="0.6" d="M640.867 363.489C640.664 365.204 640.144 366.866 639.333 368.391C637.129 372.618 633.681 376.067 629.454 378.27C626.578 379.846 623.472 380.958 620.249 381.563C616.528 382.128 612.743 382.128 609.022 381.563C600.602 380.089 592.452 377.352 584.849 373.443C577.402 369.63 569.592 366.571 561.536 364.312C557.99 363.413 554.341 362.985 550.684 363.04C547.495 363.123 544.333 363.652 541.291 364.612C536.855 365.95 532.861 368.458 529.728 371.871C528.659 373.19 527.66 374.564 526.734 375.988C527.365 374.377 528.264 372.884 529.391 371.572C532.459 367.94 536.495 365.254 541.029 363.826C544.13 362.766 547.371 362.173 550.646 362.067C554.423 361.944 558.2 362.334 561.872 363.227C570.081 365.489 578.032 368.599 585.597 372.507C593.11 376.34 601.139 379.063 609.434 380.59C613.042 381.152 616.715 381.152 620.323 380.59C623.46 380.047 626.491 379.011 629.304 377.522C633.448 375.446 636.885 372.191 639.183 368.167C639.829 366.639 640.391 365.078 640.867 363.489Z" fill="white"/>
</g>
<g opacity="0.6">
<path opacity="0.6" d="M711.217 413.596C711.217 413.82 707.475 413.221 701.6 413.109C693.899 412.993 686.221 414.001 678.811 416.103C674.74 417.292 670.763 418.78 666.911 420.556C663.766 422.021 660.716 423.683 657.781 425.533C652.804 428.714 650.034 431.146 649.885 430.959C650.429 430.295 651.044 429.693 651.718 429.163C653.5 427.603 655.374 426.154 657.332 424.822C660.229 422.843 663.269 421.079 666.425 419.546C674.193 415.808 682.548 413.441 691.122 412.548C694.616 412.191 698.131 412.103 701.638 412.286C703.997 412.368 706.348 412.618 708.673 413.034C709.538 413.135 710.39 413.323 711.217 413.596Z" fill="white"/>
</g>
<g opacity="0.2">
<path opacity="0.2" d="M731.686 280.863C728.955 288.535 733.071 296.767 737.037 303.877C739.606 308.938 742.841 313.632 746.655 317.835C748.57 319.907 750.882 321.574 753.453 322.738C756.024 323.901 758.802 324.537 761.623 324.608C769.107 324.346 775.73 318.845 783.177 319.294C788.203 320.076 792.93 322.182 796.873 325.394C803.971 330.577 811.69 334.851 819.849 338.117C828.056 341.427 837.11 342.004 845.67 339.763C849.91 338.585 853.777 336.339 856.902 333.24C860.026 330.141 862.305 326.293 863.519 322.063" fill="black"/>
</g>
<path d="M732.323 278.736C732.697 269.83 733.184 261.747 733.184 261.747C733.184 261.747 753.129 259.24 753.99 238.883C754.85 218.526 752.792 171.525 752.792 171.525L716.12 153.9L676.604 185.708L682.815 279.26C683.24 285.732 686.186 291.78 691.021 296.104C695.855 300.428 702.193 302.684 708.673 302.386C714.852 302.094 720.699 299.509 725.073 295.136C729.447 290.762 732.032 284.914 732.323 278.736Z" fill="#FFBE9D"/>
<path d="M749.386 208.459C749.379 208.959 749.224 209.446 748.942 209.858C748.659 210.271 748.262 210.591 747.798 210.779C747.335 210.967 746.826 211.015 746.336 210.915C745.846 210.816 745.396 210.574 745.043 210.221C744.689 209.867 744.447 209.417 744.348 208.927C744.249 208.437 744.296 207.928 744.484 207.465C744.672 207.002 744.992 206.604 745.405 206.321C745.818 206.039 746.304 205.884 746.804 205.877C747.486 205.887 748.137 206.162 748.619 206.644C749.101 207.126 749.377 207.777 749.386 208.459Z" fill="#263238"/>
<path d="M751.819 202.994C751.52 203.368 749.611 201.759 746.879 201.647C744.148 201.535 742.127 202.919 741.828 202.545C741.528 202.171 741.828 201.759 742.913 201.123C744.095 200.3 745.516 199.892 746.954 199.963C748.326 200.064 749.633 200.586 750.696 201.46C751.707 202.208 752.006 202.844 751.819 202.994Z" fill="#263238"/>
<path d="M719.113 208.457C719.113 209.132 718.845 209.779 718.368 210.256C717.891 210.733 717.244 211.001 716.569 211.001C715.894 211.001 715.247 210.733 714.769 210.256C714.292 209.779 714.024 209.132 714.024 208.457C714.024 207.782 714.292 207.135 714.769 206.657C715.247 206.18 715.894 205.912 716.569 205.912C717.244 205.912 717.891 206.18 718.368 206.657C718.845 207.135 719.113 207.782 719.113 208.457Z" fill="#263238"/>
<path d="M721.583 203.404C721.246 203.779 719.338 202.169 716.606 202.057C713.874 201.945 711.854 203.329 711.554 202.955C711.255 202.581 711.554 202.169 712.64 201.533C713.821 200.71 715.243 200.302 716.681 200.373C718.061 200.469 719.373 201.007 720.423 201.907C721.433 202.731 721.733 203.404 721.583 203.404Z" fill="#263238"/>
<path d="M731.836 227.015C733.284 226.597 734.781 226.37 736.289 226.341C736.963 226.341 737.636 226.341 737.748 225.668C737.848 224.895 737.704 224.11 737.337 223.422C736.701 221.589 736.064 219.68 735.353 217.66C733.506 212.792 732.043 207.787 730.975 202.691C733.171 207.45 735.01 212.366 736.476 217.398C737.15 219.418 737.748 221.14 738.347 223.198C738.786 224.118 738.905 225.159 738.684 226.154C738.582 226.405 738.425 226.629 738.224 226.811C738.023 226.992 737.784 227.126 737.524 227.202C737.126 227.252 736.724 227.252 736.326 227.202C734.828 227.355 733.316 227.292 731.836 227.015Z" fill="#263238"/>
<path d="M722.853 229.822C720.047 227.989 730.562 234.35 736.138 234.275C735.181 235.702 733.762 236.756 732.12 237.26C730.478 237.764 728.712 237.688 727.119 237.045C726.364 236.853 725.654 236.513 725.03 236.046C724.406 235.578 723.88 234.992 723.484 234.321C723.087 233.65 722.828 232.907 722.719 232.135C722.611 231.362 722.657 230.577 722.853 229.822Z" fill="white"/>
<path d="M733.182 261.74C723.723 261.489 714.541 258.485 706.763 253.096C706.763 253.096 712.975 268.064 732.958 266.717L733.182 261.74Z" fill="#EB996E"/>
<path d="M655.085 205.875C655.085 223.5 650.407 270.089 682.514 276.563L681.354 212.386C681.354 212.386 712.45 197.718 717.689 167.182L717.876 167.369C719.86 171.972 723.415 181.889 721.244 189.822L750.395 197.007L753.725 200.075C756.57 192.708 757.175 184.665 755.464 176.956C753.753 169.246 749.802 162.214 744.108 156.742C724.088 136.123 706.987 151.054 696.247 149.782C689.137 148.921 664.402 149.071 654.336 191.693L655.085 205.875Z" fill="#263238"/>
<path d="M682.254 213.099C680.802 212.428 679.167 212.267 677.612 212.64C676.057 213.013 674.673 213.9 673.684 215.157C671.961 217.018 670.891 219.389 670.635 221.912C670.379 224.436 670.952 226.974 672.267 229.142C673.582 231.311 675.567 232.993 677.922 233.933C680.278 234.873 682.875 235.021 685.322 234.354" fill="#FFBE9D"/>
<path d="M681.617 228.255C681.617 228.255 680.719 228.592 679.297 228.255C678.333 228.03 677.44 227.57 676.696 226.918C675.952 226.265 675.38 225.439 675.031 224.513C674.599 223.458 674.599 222.275 675.031 221.22C675.422 220.389 676.03 219.678 676.79 219.162C678.062 218.339 679.035 218.413 679.035 218.563C679.035 218.713 678.249 218.975 677.276 219.835C676.657 220.342 676.207 221.025 675.986 221.794C675.765 222.563 675.785 223.381 676.042 224.139C676.353 224.901 676.815 225.592 677.4 226.171C677.985 226.75 678.681 227.204 679.447 227.507C680.794 227.956 681.655 228.105 681.617 228.255Z" fill="#EB996E"/>
<path d="M678.959 232.293C678.394 232.405 677.89 232.722 677.546 233.185C677.202 233.647 677.043 234.221 677.099 234.795C677.155 235.368 677.422 235.901 677.849 236.288C678.276 236.675 678.832 236.889 679.408 236.889C679.984 236.889 680.54 236.675 680.967 236.288C681.394 235.901 681.661 235.368 681.717 234.795C681.773 234.221 681.614 233.647 681.27 233.185C680.926 232.722 680.422 232.405 679.857 232.293" fill="#9E22E9"/>
<path d="M737.972 381.079V347.625C737.972 347.625 688.278 357.916 687.38 380.667L737.972 381.079Z" fill="#FFBE9D"/>
<path d="M732.81 275.216C733.635 285.528 738.269 295.164 745.809 302.247C753.349 309.33 763.255 313.354 773.598 313.534C781.082 313.534 788.566 311.925 795.339 314.919C801.177 317.501 804.919 323.152 809.522 327.605C814.985 332.759 821.734 336.35 829.061 338.002C836.388 339.654 844.024 339.307 851.171 336.997C857.196 334.977 866.738 330.673 867.861 324.424C868.721 319.671 862.884 314.919 859.478 311.514C855.852 308.346 851.714 305.815 847.242 304.03C811.842 287.415 773.86 275.291 734.793 273.232" fill="#263238"/>
<path d="M968.596 730.36C971.097 736.29 975.807 741.015 981.73 743.532C984.787 744.817 988.069 745.478 991.385 745.478C994.701 745.478 997.983 744.817 1001.04 743.532L1002.54 742.821L1016.38 756.704C1017.6 757.925 1019.26 758.61 1020.98 758.61C1022.71 758.61 1024.37 757.925 1025.59 756.704L1026.71 755.582C1027.93 754.361 1028.62 752.705 1028.62 750.979C1028.62 749.253 1027.93 747.597 1026.71 746.376L1013.05 732.718C1013.47 731.954 1013.85 731.167 1014.17 730.36C1016.09 725.826 1016.61 720.823 1015.67 715.991C1014.73 711.159 1012.37 706.717 1008.9 703.23C1006.65 700.969 1003.98 699.164 1001.04 697.917C997.983 696.632 994.701 695.971 991.385 695.971C988.069 695.971 984.787 696.632 981.73 697.917C978.793 699.164 976.124 700.969 973.872 703.23C970.379 706.706 968.009 711.149 967.068 715.985C966.128 720.822 966.66 725.829 968.596 730.36ZM1007.21 733.279C1006.05 734.701 1004.71 735.96 1003.21 737.021C1001.95 737.975 1000.56 738.755 999.094 739.341C994.749 741.12 989.92 741.325 985.44 739.921C980.96 738.516 977.113 735.59 974.562 731.649C972.011 727.707 970.918 722.999 971.472 718.337C972.026 713.675 974.191 709.353 977.594 706.119C980.996 702.884 985.422 700.941 990.106 700.624C994.79 700.308 999.438 701.638 1003.24 704.385C1007.05 707.132 1009.78 711.123 1010.95 715.668C1012.13 720.213 1011.68 725.026 1009.68 729.275C1009.03 730.705 1008.2 732.05 1007.21 733.279ZM1023.49 749.594C1023.68 749.773 1023.83 749.987 1023.93 750.225C1024.03 750.463 1024.09 750.72 1024.09 750.979C1024.09 751.238 1024.03 751.494 1023.93 751.733C1023.83 751.971 1023.68 752.185 1023.49 752.364L1022.41 753.486C1022.02 753.856 1021.52 754.07 1020.98 754.085C1020.46 754.072 1019.97 753.857 1019.6 753.486L1006.47 740.352C1007.33 739.702 1008.14 738.989 1008.9 738.219C1009.42 737.695 1009.95 737.096 1010.43 736.535L1023.49 749.594Z" fill="#263238"/>
<path d="M1020.99 758.652C1019.25 758.649 1017.58 757.963 1016.35 756.743L1002.54 742.898L1001.04 743.571C996.492 745.494 991.473 746.015 986.627 745.068C981.78 744.122 977.326 741.75 973.836 738.258C970.352 734.761 967.986 730.308 967.04 725.464C966.094 720.619 966.61 715.603 968.522 711.053C970.113 707.314 972.597 704.022 975.756 701.466C978.916 698.91 982.653 697.168 986.642 696.392C990.631 695.617 994.75 695.831 998.636 697.017C1002.52 698.203 1006.06 700.324 1008.94 703.195C1012.42 706.691 1014.79 711.144 1015.73 715.989C1016.68 720.833 1016.16 725.849 1014.25 730.399C1013.91 731.148 1013.54 731.934 1013.13 732.72L1026.75 746.341C1027.36 746.946 1027.85 747.669 1028.19 748.465C1028.52 749.262 1028.69 750.117 1028.69 750.981C1028.69 751.844 1028.52 752.699 1028.19 753.496C1027.85 754.293 1027.36 755.015 1026.75 755.621L1025.63 756.743C1025.02 757.353 1024.29 757.835 1023.5 758.163C1022.7 758.49 1021.85 758.657 1020.99 758.652ZM1002.54 742.786L1016.42 756.669C1017.64 757.867 1019.28 758.539 1020.99 758.54C1021.83 758.543 1022.67 758.38 1023.45 758.059C1024.24 757.738 1024.95 757.265 1025.55 756.669L1026.67 755.546C1027.88 754.333 1028.56 752.692 1028.56 750.981C1028.56 749.27 1027.88 747.628 1026.67 746.415L1012.98 732.72C1013.4 731.956 1013.77 731.169 1014.1 730.362C1015.38 727.318 1016.05 724.048 1016.05 720.745C1016.05 717.441 1015.38 714.171 1014.1 711.128C1012.86 708.206 1011.07 705.55 1008.82 703.307C1006.58 701.037 1003.91 699.232 1000.97 697.993C997.922 696.709 994.652 696.047 991.348 696.047C988.045 696.047 984.775 696.709 981.731 697.993C978.789 699.232 976.118 701.037 973.873 703.307C971.627 705.55 969.836 708.206 968.597 711.128C966.689 715.658 966.172 720.653 967.112 725.477C968.052 730.301 970.405 734.737 973.873 738.22C977.346 741.703 981.781 744.07 986.607 745.016C991.434 745.963 996.434 745.447 1000.97 743.534L1002.46 742.823L1002.54 742.786ZM1020.99 754.012C1020.45 754.004 1019.94 753.789 1019.56 753.413L1006.39 740.241C1007.24 739.58 1008.06 738.867 1008.82 738.108C1009.36 737.573 1009.88 737.011 1010.36 736.424L1023.46 749.521C1023.65 749.703 1023.81 749.924 1023.91 750.168C1024.02 750.413 1024.07 750.677 1024.07 750.943C1024.07 751.21 1024.02 751.474 1023.91 751.718C1023.81 751.963 1023.65 752.183 1023.46 752.365L1022.37 753.488C1022 753.863 1021.51 754.09 1020.99 754.124V754.012ZM1006.54 740.241L1019.64 753.338C1020 753.696 1020.48 753.898 1020.99 753.899C1021.24 753.904 1021.5 753.856 1021.74 753.76C1021.97 753.664 1022.19 753.52 1022.37 753.338L1023.49 752.216C1023.83 751.849 1024.02 751.368 1024.02 750.868C1024.02 750.369 1023.83 749.888 1023.49 749.521L1010.58 736.611C1010.1 737.172 1009.61 737.734 1009.09 738.258C1008.29 739.021 1007.44 739.721 1006.54 740.353V740.241ZM991.386 740.877C986.983 740.885 982.696 739.462 979.172 736.823C975.647 734.184 973.075 730.471 971.843 726.244C970.611 722.017 970.785 717.504 972.339 713.384C973.894 709.265 976.744 705.762 980.462 703.402C984.179 701.043 988.563 699.955 992.952 700.302C997.342 700.649 1001.5 702.412 1004.8 705.327C1008.1 708.241 1010.37 712.149 1011.25 716.461C1012.14 720.774 1011.6 725.258 1009.72 729.239C1009.06 730.655 1008.23 731.987 1007.25 733.206C1006.09 734.626 1004.74 735.885 1003.25 736.948C1001.97 737.86 1000.59 738.626 999.132 739.231C996.691 740.322 994.059 740.919 991.386 740.989V740.877ZM991.386 700.463C988.403 700.462 985.458 701.122 982.761 702.397C980.064 703.671 977.684 705.527 975.791 707.832C973.898 710.137 972.54 712.833 971.815 715.726C971.089 718.619 971.014 721.637 971.595 724.563C972.176 727.488 973.399 730.248 975.175 732.644C976.951 735.04 979.237 737.012 981.867 738.419C984.497 739.825 987.406 740.631 990.385 740.778C993.364 740.925 996.339 740.409 999.094 739.268C1000.56 738.666 1001.94 737.886 1003.21 736.948C1004.69 735.877 1006.02 734.62 1007.18 733.206C1008.15 731.981 1008.98 730.651 1009.65 729.239C1010.92 726.549 1011.57 723.608 1011.56 720.633C1011.53 715.303 1009.39 710.201 1005.61 706.443C1001.83 702.685 996.716 700.575 991.386 700.575V700.463Z" fill="#263238"/>
</svg>
