<svg width="1032" height="642" viewBox="0 0 1032 642" fill="none" xmlns="http://www.w3.org/2000/svg">
<g filter="url(#filter0_d)">
<path d="M433.41 260H566.468V371.998H433.41V260Z" fill="#9E22E9"/>
<path d="M700.057 328.637H959.877L940.663 143.575H678.643L700.057 328.637Z" fill="#F5F5F5"/>
<path d="M931.306 297.593C931.534 297.593 928.778 269.783 925.314 235.425C921.851 201.067 918.716 173.333 918.488 173.358C918.261 173.384 921.017 201.168 924.48 235.501C927.944 269.833 931.079 297.618 931.306 297.593Z" fill="#E0E0E0"/>
<path d="M884.006 179.525C888.34 179.948 892.698 180.091 897.051 179.954C901.404 180.091 905.762 179.948 910.096 179.525C905.761 179.118 901.404 178.983 897.051 179.12C892.698 178.983 888.341 179.118 884.006 179.525V179.525Z" fill="#E0E0E0"/>
<path d="M773.018 179.527C773.018 179.754 796.277 179.957 824.972 179.957C853.666 179.957 876.926 179.754 876.926 179.527C876.926 179.299 853.666 179.122 824.972 179.122C796.277 179.122 773.018 179.198 773.018 179.527Z" fill="#E0E0E0"/>
<path d="M887.064 245.307C891.4 245.713 895.757 245.848 900.109 245.711C904.462 245.848 908.819 245.713 913.155 245.307C908.844 244.912 904.512 244.786 900.185 244.928C895.808 244.779 891.425 244.906 887.064 245.307V245.307Z" fill="#E0E0E0"/>
<path d="M776.103 245.308C776.103 245.535 799.362 245.712 828.057 245.712C856.751 245.712 879.96 245.535 879.96 245.308C879.96 245.08 856.701 244.903 828.006 244.903C799.311 244.903 776.103 245.08 776.103 245.308Z" fill="#E0E0E0"/>
<path d="M811.498 275.622C811.498 275.849 834.757 276.051 863.452 276.051C892.147 276.051 915.355 275.849 915.355 275.622C915.355 275.394 892.096 275.217 863.401 275.217C834.706 275.217 811.498 275.394 811.498 275.622Z" fill="#E0E0E0"/>
<path d="M872.375 198.109C872.375 198.337 880.592 198.514 890.73 198.514C900.868 198.514 909.084 198.337 909.084 198.109C909.084 197.882 900.868 197.68 890.73 197.68C880.592 197.68 872.375 197.882 872.375 198.109Z" fill="#E0E0E0"/>
<path d="M873.437 225.335C873.437 225.562 881.654 225.739 891.792 225.739C901.93 225.739 910.146 225.562 910.146 225.335C910.146 225.107 901.93 224.905 891.792 224.905C881.654 224.905 873.437 225.107 873.437 225.335Z" fill="#E0E0E0"/>
<path d="M842.417 264.245C842.417 264.473 850.634 264.65 860.772 264.65C870.91 264.65 879.126 264.473 879.126 264.245C879.126 264.018 870.91 263.815 860.772 263.815C850.634 263.815 842.417 264.018 842.417 264.245Z" fill="#E0E0E0"/>
<path d="M739.013 198.109C739.013 198.337 759.997 198.514 785.886 198.514C811.774 198.514 832.758 198.337 832.758 198.109C832.758 197.882 811.774 197.68 785.886 197.68C759.997 197.68 739.013 197.882 739.013 198.109Z" fill="#E0E0E0"/>
<path d="M767.935 226.903C767.935 227.131 788.919 227.333 814.808 227.333C840.696 227.333 861.68 227.131 861.68 226.903C861.68 226.676 840.696 226.499 814.808 226.499C788.919 226.499 767.935 226.676 767.935 226.903Z" fill="#E0E0E0"/>
<path d="M735.676 264.245C735.676 264.473 756.66 264.65 782.549 264.65C808.437 264.65 829.421 264.473 829.421 264.245C829.421 264.018 808.437 263.815 782.549 263.815C756.66 263.815 735.676 264.018 735.676 264.245Z" fill="#E0E0E0"/>
<path d="M821.28 297.594C821.28 297.821 842.264 297.998 868.152 297.998C894.041 297.998 915.025 297.821 915.025 297.594C915.025 297.366 894.041 297.164 868.152 297.164C842.264 297.164 821.28 297.366 821.28 297.594Z" fill="#E0E0E0"/>
<path d="M717.601 297.594C717.601 297.821 738.585 297.998 764.473 297.998C790.362 297.998 811.346 297.821 811.346 297.594C811.346 297.366 790.362 297.164 764.473 297.164C738.585 297.164 717.601 297.366 717.601 297.594Z" fill="#E0E0E0"/>
<path d="M821.28 308.439C821.28 308.666 842.264 308.843 868.152 308.843C894.041 308.843 915.025 308.666 915.025 308.439C915.025 308.211 894.041 308.009 868.152 308.009C842.264 308.009 821.28 308.135 821.28 308.439Z" fill="#E0E0E0"/>
<path d="M816.756 205.922C816.756 206.15 837.74 206.326 863.629 206.326C889.517 206.326 910.501 206.15 910.501 205.922C910.501 205.694 889.517 205.517 863.629 205.517C837.74 205.517 816.756 205.694 816.756 205.922Z" fill="#E0E0E0"/>
<path d="M841.733 198.208C845.739 198.614 849.768 198.749 853.792 198.612C857.825 198.749 861.862 198.614 865.877 198.208C861.862 197.801 857.825 197.666 853.792 197.803C849.768 197.666 845.739 197.801 841.733 198.208V198.208Z" fill="#E0E0E0"/>
<path d="M890.073 254.257C894.079 254.663 898.108 254.798 902.132 254.662C906.165 254.799 910.202 254.663 914.217 254.257C910.205 253.819 906.166 253.675 902.132 253.827C898.107 253.676 894.077 253.819 890.073 254.257V254.257Z" fill="#E0E0E0"/>
<path d="M890.705 264.246C894.719 264.652 898.757 264.787 902.79 264.65C906.822 264.787 910.86 264.652 914.874 264.246C910.861 263.823 906.823 263.679 902.79 263.816C898.756 263.679 894.718 263.823 890.705 264.246V264.246Z" fill="#E0E0E0"/>
<path d="M681.499 163.145C681.499 163.373 739.925 163.55 812.003 163.55C884.081 163.55 942.508 163.373 942.508 163.145C942.508 162.917 884.081 162.715 812.003 162.715C739.925 162.715 681.499 162.917 681.499 163.145Z" fill="#E0E0E0"/>
<path d="M924.885 157.406C923.182 157.406 921.801 156.025 921.801 154.321C921.801 152.618 923.182 151.237 924.885 151.237C926.589 151.237 927.969 152.618 927.969 154.321C927.969 156.025 926.589 157.406 924.885 157.406Z" fill="white"/>
<path d="M911.613 157.406C909.91 157.406 908.529 156.025 908.529 154.321C908.529 152.618 909.91 151.237 911.613 151.237C913.317 151.237 914.698 152.618 914.698 154.321C914.698 156.025 913.317 157.406 911.613 157.406Z" fill="white"/>
<path d="M898.34 157.406C896.637 157.406 895.256 156.025 895.256 154.321C895.256 152.618 896.637 151.237 898.34 151.237C900.043 151.237 901.424 152.618 901.424 154.321C901.424 156.025 900.043 157.406 898.34 157.406Z" fill="white"/>
<path d="M25.4136 236.104H285.209L266.02 51.0168H4.00001L25.4136 236.104Z" fill="#F5F5F5"/>
<path d="M256.664 205.036C256.891 205.036 254.135 177.226 250.647 142.893C247.158 108.56 244.073 80.7758 243.846 80.801C243.618 80.8263 246.374 108.611 249.838 142.969C253.301 177.327 256.436 205.061 256.664 205.036Z" fill="#E0E0E0"/>
<path d="M209.337 86.996C218.024 87.569 226.74 87.569 235.428 86.996C226.739 86.4566 218.025 86.4566 209.337 86.996V86.996Z" fill="#E0E0E0"/>
<path d="M98.3769 86.9959C98.3769 87.2235 121.636 87.4257 150.331 87.4257C179.026 87.4257 202.285 87.2235 202.285 86.9959C202.285 86.7684 179.026 86.5914 150.331 86.5914C121.636 86.5914 98.3769 86.7684 98.3769 86.9959Z" fill="#E0E0E0"/>
<path d="M212.523 152.775C221.212 153.314 229.926 153.314 238.614 152.775C229.927 152.202 221.211 152.202 212.523 152.775V152.775Z" fill="#E0E0E0"/>
<path d="M101.461 152.775C101.461 153.003 124.72 153.18 153.389 153.18C182.059 153.18 205.343 153.003 205.343 152.775C205.343 152.548 182.084 152.345 153.389 152.345C124.694 152.345 101.461 152.548 101.461 152.775Z" fill="#E0E0E0"/>
<path d="M136.829 183.091C136.829 183.319 160.113 183.496 188.783 183.496C217.452 183.496 240.737 183.319 240.737 183.091C240.737 182.864 217.477 182.687 188.783 182.687C160.088 182.687 136.829 182.864 136.829 183.091Z" fill="#E0E0E0"/>
<path d="M197.858 105.579C197.858 105.807 206.075 105.984 216.187 105.984C226.3 105.984 234.542 105.807 234.542 105.579C234.542 105.352 226.325 105.149 216.187 105.149C206.049 105.149 197.858 105.352 197.858 105.579Z" fill="#E0E0E0"/>
<path d="M198.794 132.779C198.794 133.006 207.011 133.209 217.123 133.209C227.236 133.209 235.478 133.006 235.478 132.779C235.478 132.551 227.261 132.375 217.123 132.375C206.985 132.375 198.794 132.551 198.794 132.779Z" fill="#E0E0E0"/>
<path d="M167.774 171.613C167.774 171.84 175.99 172.042 186.103 172.042C196.216 172.042 204.457 171.84 204.457 171.613C204.457 171.385 196.241 171.208 186.103 171.208C175.965 171.208 167.774 171.461 167.774 171.613Z" fill="#E0E0E0"/>
<path d="M64.3454 105.579C64.3454 105.807 85.3545 105.984 111.218 105.984C137.081 105.984 158.115 105.807 158.115 105.579C158.115 105.352 137.132 105.149 111.218 105.149C85.3039 105.149 64.3454 105.352 64.3454 105.579Z" fill="#E0E0E0"/>
<path d="M93.2926 134.371C93.2926 134.599 114.277 134.775 140.165 134.775C166.053 134.775 187.037 134.599 187.037 134.371C187.037 134.144 166.053 133.941 140.165 133.941C114.277 133.941 93.2926 134.144 93.2926 134.371Z" fill="#E0E0E0"/>
<path d="M61.0356 171.613C61.0356 171.84 82.0194 172.042 107.908 172.042C133.796 172.042 154.78 171.84 154.78 171.613C154.78 171.385 133.796 171.208 107.908 171.208C82.0194 171.208 61.0356 171.461 61.0356 171.613Z" fill="#E0E0E0"/>
<path d="M146.637 205.033C146.637 205.26 167.621 205.463 193.51 205.463C219.398 205.463 240.382 205.26 240.382 205.033C240.382 204.805 219.398 204.628 193.51 204.628C167.621 204.628 146.637 204.805 146.637 205.033Z" fill="#E0E0E0"/>
<path d="M42.9581 205.033C42.9581 205.26 63.942 205.463 89.8305 205.463C115.719 205.463 136.703 205.26 136.703 205.033C136.703 204.805 115.719 204.628 89.8305 204.628C63.942 204.628 42.9581 204.805 42.9581 205.033Z" fill="#E0E0E0"/>
<path d="M146.637 215.908C146.637 216.135 167.621 216.312 193.51 216.312C219.398 216.312 240.382 216.135 240.382 215.908C240.382 215.68 219.398 215.478 193.51 215.478C167.621 215.478 146.637 215.655 146.637 215.908Z" fill="#E0E0E0"/>
<path d="M142.063 113.466C142.063 113.694 163.072 113.871 188.935 113.871C214.798 113.871 235.833 113.694 235.833 113.466C235.833 113.239 214.849 113.036 188.935 113.036C163.021 113.036 142.063 113.163 142.063 113.466Z" fill="#E0E0E0"/>
<path d="M167.014 105.677C175.053 106.217 183.119 106.217 191.158 105.677C183.12 105.104 175.052 105.104 167.014 105.677V105.677Z" fill="#E0E0E0"/>
<path d="M215.481 161.701C223.527 162.274 231.604 162.274 239.65 161.701C231.603 161.162 223.529 161.162 215.481 161.701V161.701Z" fill="#E0E0E0"/>
<path d="M216.063 171.613C224.101 172.186 232.17 172.186 240.207 171.613C232.168 171.073 224.102 171.073 216.063 171.613V171.613Z" fill="#E0E0E0"/>
<path d="M6.85552 70.61C6.85552 70.8375 65.2816 71.0145 137.335 71.0145C209.388 71.0145 267.839 70.8375 267.839 70.61C267.839 70.3824 209.438 70.1802 137.335 70.1802C65.2311 70.1802 6.85552 70.4836 6.85552 70.61Z" fill="#E0E0E0"/>
<path d="M250.244 64.8483C248.541 64.8483 247.16 63.4674 247.16 61.7639C247.16 60.0605 248.541 58.6796 250.244 58.6796C251.948 58.6796 253.329 60.0605 253.329 61.7639C253.329 63.4674 251.948 64.8483 250.244 64.8483Z" fill="white"/>
<path d="M236.971 64.8483C235.267 64.8483 233.886 63.4674 233.886 61.7639C233.886 60.0605 235.267 58.6796 236.971 58.6796C238.674 58.6796 240.055 60.0605 240.055 61.7639C240.055 63.4674 238.674 64.8483 236.971 64.8483Z" fill="white"/>
<path d="M223.671 64.8483C221.968 64.8483 220.587 63.4674 220.587 61.7639C220.587 60.0605 221.968 58.6796 223.671 58.6796C225.375 58.6796 226.756 60.0605 226.756 61.7639C226.756 63.4674 225.375 64.8483 223.671 64.8483Z" fill="white"/>
<path d="M896.646 618.19C899.174 616.117 904.458 609.595 900.287 601.985C898.417 599.408 895.752 597.516 892.702 596.6C889.687 595.597 886.847 594.13 884.284 592.251C879.708 588.383 878.443 581.962 875.41 576.779C873.753 573.745 871.317 571.208 868.353 569.43C865.389 567.652 862.003 566.698 858.547 566.666C850.684 567.02 844.136 573.416 841.153 580.698C838.17 587.979 838.069 596.094 838.018 603.957C838.018 608.305 838.17 613.21 841.38 616.168C844.591 619.126 848.813 618.898 852.808 618.696L895.787 617.381" fill="#F5F5F5"/>
<path d="M814.43 500.526H927.464L907.113 621.398C906.689 623.921 905.556 626.271 903.845 628.174C902.135 630.076 899.919 631.453 897.455 632.142H897.05L896.064 632.395C895.306 632.543 894.536 632.628 893.764 632.648V632.648H893.208H842.796C841.871 632.654 840.948 632.569 840.04 632.395C837.102 631.942 834.392 630.541 832.325 628.405C830.257 626.269 828.944 623.515 828.588 620.563L818.778 537.286L818.348 533.974L814.455 501.107L814.43 500.526ZM835.768 577.635H847.347L846.184 542.544H832.734L835.768 577.635ZM831.621 542.544H820.523L824.644 577.635H834.63L831.621 542.544ZM864.791 616.569L865.499 586.079H848.788L849.799 616.569H864.791ZM882.842 586.079H866.611L865.903 616.569H880.44L882.842 586.079ZM881.578 616.569H895.129C896.418 608.327 898.112 597.633 899.933 586.079H883.904L881.578 616.569ZM883.474 577.686L886.205 542.595H867.597L866.788 577.686H883.474ZM865.777 577.686L866.611 542.595H847.448L848.611 577.686H865.777ZM866.788 534.176L867.547 501.714H846.082L847.094 534.125L866.788 534.176ZM867.926 534.176H886.862L889.39 501.714H868.507L867.926 534.176ZM888.151 534.176H908.377C909.085 529.701 909.767 525.454 910.374 521.535C912.472 508.388 913.281 503.459 913.711 501.613H890.705L888.151 534.176ZM887.494 542.595L884.764 577.686H901.449C902.006 574.121 902.587 570.506 903.143 566.916C904.458 558.623 905.672 550.356 907.011 542.595H887.494ZM902.663 577.686H913.357L919.248 542.595H907.997C906.278 553.365 904.357 565.449 902.435 577.635L902.663 577.686ZM901.348 586.079C899.68 596.622 898.036 607.038 896.545 616.569H906.784L911.84 586.079H901.348ZM848.661 616.569L847.65 586.079H836.475L839.004 616.569H848.661ZM845.906 534.176L844.818 501.714H829.245L831.925 534.125L845.906 534.176ZM914.596 501.664C914.166 503.989 912.068 516.833 909.337 534.125H920.664L926.15 501.664H914.596ZM829.22 616.569H837.967L835.439 586.079H825.705L829.22 616.569ZM819.511 534.176H830.888L828.107 501.714H815.694L819.511 534.176Z" fill="#E0E0E0"/>
<path d="M105.758 633.357C105.758 633.585 312.082 633.762 566.517 633.762C820.953 633.762 1027.33 633.585 1027.33 633.357C1027.33 633.13 821.054 632.927 566.517 632.927C311.981 632.927 105.758 633.13 105.758 633.357Z" fill="#263238"/>
<path d="M475.705 288.26H652.5L639.455 162.307H461.143L475.705 288.26Z" fill="#263238"/>
<path d="M484.706 288.26H661.501L648.456 162.307H470.144L484.706 288.26Z" fill="#455A64"/>
<path d="M491.279 282.548H655.332L643.197 165.696H477.753L491.279 282.548Z" fill="#F5F5F5"/>
<path d="M637.534 263.084C637.786 263.084 636.143 245.387 633.918 223.796C631.693 202.205 629.671 184.609 629.443 184.635C629.216 184.66 630.859 202.332 633.084 223.897C635.309 245.462 637.256 263.109 637.534 263.084Z" fill="#263238"/>
<path d="M607.675 188.527C613.146 189.1 618.662 189.1 624.134 188.527C618.661 187.988 613.148 187.988 607.675 188.527V188.527Z" fill="#263238"/>
<path d="M537.594 188.527C537.594 188.754 552.283 188.957 570.46 188.957C588.638 188.957 603.326 188.754 603.326 188.527C603.326 188.299 588.638 188.122 570.46 188.122C552.283 188.122 537.594 188.299 537.594 188.527Z" fill="#E8505B"/>
<path d="M609.623 230.063C615.096 230.602 620.609 230.602 626.081 230.063C620.609 229.524 615.096 229.524 609.623 230.063V230.063Z" fill="#263238"/>
<path d="M539.542 230.063C539.542 230.291 554.23 230.468 572.408 230.468C590.586 230.468 605.274 230.291 605.274 230.063C605.274 229.836 590.586 229.659 572.408 229.659C554.23 229.659 539.542 229.76 539.542 230.063Z" fill="#E8505B"/>
<path d="M561.89 249.204C561.89 249.432 576.579 249.634 594.757 249.634C612.934 249.634 627.623 249.432 627.623 249.204C627.623 248.977 612.934 248.8 594.757 248.8C576.579 248.8 561.89 248.977 561.89 249.204Z" fill="#E8505B"/>
<path d="M600.42 200.255C604.266 200.661 608.135 200.796 611.999 200.659C615.864 200.796 619.733 200.661 623.578 200.255C619.733 199.848 615.864 199.713 611.999 199.85C608.135 199.713 604.266 199.848 600.42 200.255V200.255Z" fill="#E8505B"/>
<path d="M601 217.447C604.846 217.854 608.715 217.989 612.579 217.852C616.452 217.989 620.33 217.854 624.184 217.447C620.33 217.041 616.452 216.906 612.579 217.043C608.715 216.906 604.846 217.041 601 217.447V217.447Z" fill="#E8505B"/>
<path d="M581.41 242.021C585.263 242.426 589.141 242.561 593.014 242.425C596.878 242.562 600.747 242.427 604.593 242.021C600.749 241.598 596.879 241.454 593.014 241.591C589.14 241.455 585.262 241.598 581.41 242.021V242.021Z" fill="#E8505B"/>
<path d="M516.13 200.257C516.13 200.484 529.377 200.661 545.709 200.661C562.041 200.661 575.314 200.484 575.314 200.257C575.314 200.029 562.067 199.852 545.709 199.852C529.352 199.852 516.13 200.029 516.13 200.257Z" fill="#263238"/>
<path d="M534.384 218.432C534.384 218.66 547.632 218.862 563.989 218.862C580.347 218.862 593.594 218.66 593.594 218.432C593.594 218.205 580.347 218.028 563.989 218.028C547.632 218.028 534.384 218.205 534.384 218.432Z" fill="#263238"/>
<path d="M514.008 242.02C514.008 242.248 527.281 242.425 543.613 242.425C559.945 242.425 573.218 242.248 573.218 242.02C573.218 241.793 559.97 241.59 543.613 241.59C527.256 241.59 514.008 241.793 514.008 242.02Z" fill="#263238"/>
<path d="M568.058 263.082C568.058 263.31 581.331 263.487 597.663 263.487C613.995 263.487 627.268 263.31 627.268 263.082C627.268 262.855 614.02 262.652 597.663 262.652C581.306 262.652 568.058 262.855 568.058 263.082Z" fill="#263238"/>
<path d="M502.606 263.082C502.606 263.31 515.854 263.487 532.211 263.487C548.569 263.487 561.816 263.31 561.816 263.082C561.816 262.855 548.543 262.652 532.211 262.652C515.879 262.652 502.606 262.855 502.606 263.082Z" fill="#263238"/>
<path d="M568.086 269.933C568.086 270.16 581.333 270.337 597.665 270.337C613.997 270.337 627.144 270.211 627.144 269.933C627.144 269.654 613.896 269.503 597.539 269.503C581.181 269.503 568.086 269.705 568.086 269.933Z" fill="#263238"/>
<path d="M565.202 205.186C565.202 205.413 578.449 205.615 594.781 205.615C611.113 205.615 624.386 205.413 624.386 205.186C624.386 204.958 611.138 204.781 594.781 204.781C578.424 204.781 565.202 204.958 565.202 205.186Z" fill="#263238"/>
<path d="M580.977 200.332C586.019 200.865 591.103 200.865 596.146 200.332C591.105 199.764 586.017 199.764 580.977 200.332Z" fill="#455A64"/>
<path d="M611.546 235.701C616.586 236.266 621.674 236.266 626.715 235.701C621.672 235.168 616.588 235.168 611.546 235.701V235.701Z" fill="#455A64"/>
<path d="M611.975 242.02C617.017 242.554 622.101 242.554 627.144 242.02C622.103 241.453 617.015 241.453 611.975 242.02V242.02Z" fill="#455A64"/>
<path d="M479.802 178.188C479.802 178.415 516.714 178.592 562.221 178.592C607.728 178.592 644.614 178.415 644.614 178.188C644.614 177.96 607.728 177.758 562.221 177.758C516.714 177.758 479.802 177.96 479.802 178.188Z" fill="#263238"/>
<path d="M631.542 172.598C631.597 173.079 631.827 173.524 632.188 173.846C632.55 174.169 633.017 174.347 633.502 174.347C633.986 174.347 634.453 174.169 634.815 173.846C635.176 173.524 635.406 173.079 635.461 172.598C635.406 172.117 635.176 171.673 634.815 171.35C634.453 171.027 633.986 170.849 633.502 170.849C633.017 170.849 632.55 171.027 632.188 171.35C631.827 171.673 631.597 172.117 631.542 172.598V172.598Z" fill="white"/>
<path d="M623.15 172.599C623.145 172.99 623.256 173.373 623.47 173.701C623.683 174.029 623.989 174.285 624.349 174.438C624.709 174.592 625.106 174.634 625.491 174.561C625.875 174.488 626.229 174.302 626.507 174.027C626.785 173.753 626.976 173.401 627.054 173.018C627.132 172.635 627.094 172.237 626.946 171.875C626.797 171.514 626.545 171.204 626.22 170.986C625.895 170.768 625.513 170.652 625.122 170.652C624.864 170.649 624.608 170.697 624.369 170.793C624.13 170.889 623.912 171.032 623.729 171.213C623.545 171.394 623.4 171.61 623.3 171.848C623.201 172.086 623.15 172.341 623.15 172.599Z" fill="white"/>
<path d="M614.781 172.599C614.781 172.984 614.895 173.36 615.109 173.68C615.323 174 615.627 174.25 615.982 174.397C616.338 174.545 616.73 174.583 617.107 174.508C617.485 174.433 617.832 174.247 618.104 173.975C618.376 173.703 618.562 173.356 618.637 172.978C618.712 172.601 618.673 172.209 618.526 171.854C618.379 171.498 618.129 171.194 617.809 170.98C617.489 170.766 617.112 170.652 616.727 170.652C616.471 170.649 616.216 170.697 615.978 170.793C615.741 170.89 615.525 171.033 615.343 171.215C615.162 171.396 615.019 171.612 614.922 171.85C614.825 172.087 614.777 172.342 614.781 172.599V172.599Z" fill="white"/>
<path d="M243.444 292.081H429.442L415.688 159.604H228.123L243.444 292.081Z" fill="#263238"/>
<path d="M252.921 292.081H438.894L425.14 159.604H237.6L252.921 292.081Z" fill="#455A64"/>
<path d="M259.827 286.086H432.4L419.633 163.141H245.593L259.827 286.086Z" fill="#EBEBEB"/>
<path d="M413.587 263.738C413.815 263.738 412.096 245.207 409.744 222.428C407.393 199.649 405.295 181.193 405.067 181.219C404.84 181.244 406.559 199.725 408.91 222.504C411.261 245.283 413.36 263.764 413.587 263.738Z" fill="#263238"/>
<path d="M382.164 185.313C387.922 185.886 393.723 185.886 399.482 185.313C393.722 184.774 387.924 184.774 382.164 185.313Z" fill="#263238"/>
<path d="M308.468 185.313C308.468 185.541 323.915 185.743 342.952 185.743C361.99 185.743 377.462 185.541 377.462 185.313C377.462 185.086 362.015 184.909 342.952 184.909C323.89 184.909 308.468 185.086 308.468 185.313Z" fill="#E8505B"/>
<path d="M384.21 229.004C389.968 229.577 395.77 229.577 401.528 229.004C395.768 228.464 389.97 228.464 384.21 229.004V229.004Z" fill="#263238"/>
<path d="M310.489 229.004C310.489 229.231 325.936 229.433 344.999 229.433C364.061 229.433 379.382 229.231 379.382 229.004C379.382 228.776 363.935 228.599 344.872 228.599C325.81 228.599 310.489 228.776 310.489 229.004Z" fill="#E8505B"/>
<path d="M333.874 249.153C333.874 249.38 349.321 249.557 368.383 249.557C387.446 249.557 402.893 249.38 402.893 249.153C402.893 248.925 387.446 248.723 368.383 248.723C349.321 248.723 333.874 248.925 333.874 249.153Z" fill="#E8505B"/>
<path d="M374.527 197.653C382.642 198.193 390.784 198.193 398.899 197.653C390.784 197.114 382.642 197.114 374.527 197.653Z" fill="#E8505B"/>
<path d="M375.158 215.73C383.272 216.303 391.416 216.303 399.53 215.73C391.415 215.19 383.273 215.19 375.158 215.73V215.73Z" fill="#E8505B"/>
<path d="M354.556 241.594C362.67 242.133 370.812 242.133 378.927 241.594C370.813 241.021 362.669 241.021 354.556 241.594V241.594Z" fill="#E8505B"/>
<path d="M285.838 197.653C285.838 197.881 299.769 198.058 316.96 198.058C334.152 198.058 348.107 197.881 348.107 197.653C348.107 197.426 334.177 197.249 316.96 197.249C299.743 197.249 285.838 197.426 285.838 197.653Z" fill="#263238"/>
<path d="M305.078 216.792C305.078 217.02 319.008 217.197 336.2 217.197C353.392 217.197 367.347 217.02 367.347 216.792C367.347 216.565 353.417 216.362 336.2 216.362C318.983 216.362 305.078 216.565 305.078 216.792Z" fill="#263238"/>
<path d="M283.64 241.594C283.64 241.821 297.595 241.998 314.787 241.998C331.978 241.998 345.909 241.821 345.909 241.594C345.909 241.366 331.978 241.164 314.787 241.164C297.595 241.164 283.64 241.341 283.64 241.594Z" fill="#263238"/>
<path d="M340.498 263.738C340.498 263.965 354.453 264.142 371.645 264.142C388.836 264.142 402.767 263.965 402.767 263.738C402.767 263.51 388.836 263.308 371.645 263.308C354.453 263.308 340.498 263.51 340.498 263.738Z" fill="#263238"/>
<path d="M271.631 263.738C271.631 263.965 285.586 264.142 302.778 264.142C319.97 264.142 333.9 263.965 333.9 263.738C333.9 263.51 319.97 263.308 302.778 263.308C285.586 263.308 271.631 263.51 271.631 263.738Z" fill="#263238"/>
<path d="M340.498 270.942C340.498 271.17 354.454 271.347 371.645 271.347C388.837 271.347 402.793 271.17 402.793 270.942C402.793 270.715 388.837 270.512 371.645 270.512C354.454 270.512 340.498 270.715 340.498 270.942Z" fill="#263238"/>
<path d="M337.491 202.833C337.491 203.061 351.421 203.263 368.613 203.263C385.805 203.263 399.76 203.061 399.76 202.833C399.76 202.606 385.805 202.429 368.613 202.429C351.421 202.429 337.491 202.606 337.491 202.833Z" fill="#263238"/>
<path d="M354.101 197.728C359.439 198.267 364.817 198.267 370.155 197.728C364.819 197.155 359.437 197.155 354.101 197.728V197.728Z" fill="#455A64"/>
<path d="M386.259 234.943C391.588 235.482 396.958 235.482 402.288 234.943C396.958 234.403 391.588 234.403 386.259 234.943V234.943Z" fill="#455A64"/>
<path d="M386.638 241.594C391.967 242.133 397.337 242.133 402.666 241.594C397.339 241.021 391.965 241.021 386.638 241.594V241.594Z" fill="#455A64"/>
<path d="M247.664 174.418C247.664 174.646 286.471 174.848 334.329 174.848C382.188 174.848 421.02 174.646 421.02 174.418C421.02 174.191 382.213 174.014 334.329 174.014C286.446 174.014 247.664 174.14 247.664 174.418Z" fill="#263238"/>
<path d="M407.192 168.577C407.192 168.987 407.314 169.388 407.541 169.729C407.769 170.07 408.093 170.335 408.472 170.492C408.851 170.649 409.268 170.69 409.67 170.61C410.072 170.53 410.441 170.333 410.731 170.043C411.021 169.753 411.218 169.383 411.298 168.981C411.378 168.579 411.337 168.162 411.181 167.784C411.024 167.405 410.758 167.081 410.417 166.853C410.076 166.625 409.675 166.504 409.265 166.504C408.715 166.504 408.188 166.722 407.799 167.111C407.411 167.5 407.192 168.027 407.192 168.577V168.577Z" fill="white"/>
<path d="M398.442 168.577C398.449 169.122 398.67 169.643 399.058 170.026C399.446 170.41 399.97 170.625 400.515 170.625C401.023 170.568 401.491 170.327 401.831 169.947C402.172 169.567 402.36 169.074 402.36 168.564C402.36 168.054 402.172 167.562 401.831 167.182C401.491 166.801 401.023 166.56 400.515 166.504C399.966 166.504 399.438 166.722 399.05 167.111C398.661 167.5 398.442 168.027 398.442 168.577Z" fill="white"/>
<path d="M389.494 168.577C389.5 169.122 389.722 169.643 390.11 170.026C390.498 170.41 391.021 170.625 391.567 170.625C392.074 170.568 392.542 170.327 392.883 169.947C393.223 169.567 393.411 169.074 393.411 168.564C393.411 168.054 393.223 167.562 392.883 167.182C392.542 166.801 392.074 166.56 391.567 166.504C391.017 166.504 390.49 166.722 390.101 167.111C389.712 167.5 389.494 168.027 389.494 168.577Z" fill="white"/>
<path d="M570.36 115.259H732.163L720.205 0H557.012L570.36 115.259Z" fill="#EBEBEB"/>
<path d="M714.39 95.9179C714.617 95.9179 712.999 78.5494 710.8 57.1863C708.6 35.8233 706.628 18.5053 706.401 18.5305C706.173 18.5558 707.766 35.8991 709.965 57.2622C712.165 78.6252 714.162 95.9432 714.39 95.9179Z" fill="#E0E0E0"/>
<path d="M684.911 22.448C690.316 22.9874 695.762 22.9874 701.167 22.448C695.764 21.8751 690.315 21.8751 684.911 22.448V22.448Z" fill="#E0E0E0"/>
<path d="M615.791 22.4481C615.791 22.6756 630.278 22.8526 648.152 22.8526C666.026 22.8526 680.512 22.6756 680.512 22.4481C680.512 22.2206 666.026 22.0183 648.152 22.0183C630.278 22.0183 615.791 22.17 615.791 22.4481Z" fill="#E0E0E0"/>
<path d="M686.833 63.3574C692.238 63.8967 697.684 63.8967 703.089 63.3574C697.684 62.818 692.238 62.818 686.833 63.3574V63.3574Z" fill="#E0E0E0"/>
<path d="M617.711 63.3573C617.711 63.5848 632.198 63.7618 650.072 63.7618C667.946 63.7618 682.432 63.5848 682.432 63.3573C682.432 63.1298 667.946 62.9529 650.072 62.9529C632.198 62.9529 617.711 63.1298 617.711 63.3573Z" fill="#E0E0E0"/>
<path d="M639.783 82.2409C639.783 82.4684 654.269 82.6454 672.143 82.6454C690.018 82.6454 704.504 82.4684 704.504 82.2409C704.504 82.0134 690.018 81.8112 672.143 81.8112C654.269 81.8112 639.783 82.0134 639.783 82.2409Z" fill="#E0E0E0"/>
<path d="M677.707 33.9529C681.502 34.3594 685.321 34.4946 689.135 34.3575C692.948 34.4946 696.767 34.3594 700.562 33.9529C696.767 33.5464 692.948 33.4112 689.135 33.5484C685.321 33.4112 681.502 33.5464 677.707 33.9529V33.9529Z" fill="#E0E0E0"/>
<path d="M678.339 50.918C682.133 51.3244 685.952 51.4596 689.766 51.3225C693.58 51.4596 697.399 51.3244 701.193 50.918C697.4 50.4948 693.58 50.3511 689.766 50.4882C685.951 50.3511 682.132 50.4948 678.339 50.918V50.918Z" fill="#E0E0E0"/>
<path d="M659.024 75.1388C662.818 75.562 666.637 75.7057 670.452 75.5686C674.266 75.7057 678.086 75.562 681.879 75.1388C678.084 74.7322 674.266 74.597 670.452 74.7342C666.638 74.597 662.819 74.7322 659.024 75.1388Z" fill="#E0E0E0"/>
<path d="M594.605 33.9549C594.605 34.1824 607.675 34.3594 623.805 34.3594C639.935 34.3594 653.005 34.1824 653.005 33.9549C653.005 33.7274 639.935 33.5504 623.805 33.5504C607.675 33.5504 594.605 33.7274 594.605 33.9549Z" fill="#E0E0E0"/>
<path d="M612.63 51.9044C612.63 52.1319 625.701 52.3089 641.83 52.3089C657.96 52.3089 671.031 52.1319 671.031 51.9044C671.031 51.6769 657.96 51.4746 641.83 51.4746C625.701 51.4746 612.63 51.6769 612.63 51.9044Z" fill="#E0E0E0"/>
<path d="M592.532 75.1365C592.532 75.3641 605.603 75.5663 621.733 75.5663C637.862 75.5663 650.933 75.3641 650.933 75.1365C650.933 74.909 637.862 74.7321 621.733 74.7321C605.603 74.7321 592.532 74.909 592.532 75.1365Z" fill="#E0E0E0"/>
<path d="M645.851 95.9188C645.851 96.1464 658.921 96.3234 675.051 96.3234C691.181 96.3234 704.252 96.1464 704.252 95.9188C704.252 95.6913 691.181 95.489 675.051 95.489C658.921 95.489 645.851 95.7671 645.851 95.9188Z" fill="#E0E0E0"/>
<path d="M581.281 95.9188C581.281 96.1464 594.352 96.3234 610.481 96.3234C626.611 96.3234 639.682 96.1464 639.682 95.9188C639.682 95.6913 626.611 95.489 610.481 95.489C594.352 95.489 581.281 95.7671 581.281 95.9188Z" fill="#E0E0E0"/>
<path d="M645.851 102.667C645.851 102.895 658.921 103.072 675.051 103.072C691.181 103.072 704.252 102.895 704.252 102.667C704.252 102.44 691.181 102.263 675.051 102.263C658.921 102.263 645.851 102.44 645.851 102.667Z" fill="#E0E0E0"/>
<path d="M643.022 38.8329C643.022 39.0605 656.093 39.2375 672.222 39.2375C688.352 39.2375 701.397 39.0605 701.397 38.8329C701.397 38.6053 688.352 38.4031 672.222 38.4031C656.093 38.4031 643.022 38.6053 643.022 38.8329Z" fill="#E0E0E0"/>
<path d="M658.593 34.0294C663.593 34.5687 668.636 34.5687 673.636 34.0294C668.638 33.4564 663.591 33.4564 658.593 34.0294V34.0294Z" fill="#E0E0E0"/>
<path d="M688.756 68.9194C693.754 69.4923 698.801 69.4923 703.799 68.9194C698.799 68.3801 693.756 68.3801 688.756 68.9194V68.9194Z" fill="#E0E0E0"/>
<path d="M689.11 75.1386C694.15 75.7213 699.24 75.7213 704.279 75.1386C699.238 74.5902 694.152 74.5902 689.11 75.1386V75.1386Z" fill="#E0E0E0"/>
<path d="M558.882 12.1861C558.882 12.4136 595.262 12.5906 640.137 12.5906C685.012 12.5906 721.443 12.4136 721.443 12.1861C721.443 11.9586 685.038 11.7563 640.137 11.7563C595.237 11.7563 558.882 11.9586 558.882 12.1861Z" fill="#E0E0E0"/>
<path d="M708.475 6.67519C708.475 7.05521 708.588 7.42672 708.799 7.7427C709.01 8.05867 709.311 8.30493 709.662 8.45036C710.013 8.59578 710.399 8.63386 710.772 8.55972C711.144 8.48558 711.487 8.30256 711.755 8.03384C712.024 7.76512 712.207 7.42277 712.281 7.05005C712.355 6.67733 712.317 6.29101 712.172 5.93991C712.027 5.58882 711.78 5.28873 711.464 5.0776C711.148 4.86647 710.777 4.75378 710.397 4.75378C709.887 4.75378 709.399 4.95621 709.038 5.31655C708.678 5.67688 708.475 6.1656 708.475 6.67519V6.67519Z" fill="white"/>
<path d="M700.18 6.67536C700.175 7.06142 700.285 7.44026 700.496 7.7637C700.707 8.08714 701.009 8.34058 701.364 8.4918C701.719 8.64303 702.112 8.68521 702.491 8.61297C702.87 8.54074 703.219 8.35738 703.494 8.08616C703.769 7.81495 703.957 7.46813 704.034 7.08983C704.111 6.71154 704.074 6.31883 703.928 5.96165C703.781 5.60446 703.532 5.29891 703.211 5.08386C702.89 4.86882 702.513 4.75398 702.127 4.75395C701.872 4.7506 701.62 4.79784 701.384 4.89291C701.148 4.98797 700.933 5.12893 700.752 5.30769C700.571 5.48644 700.427 5.6994 700.329 5.93418C700.231 6.16896 700.18 6.42089 700.18 6.67536V6.67536Z" fill="white"/>
<path d="M691.915 6.67519C691.915 7.18478 692.118 7.6735 692.478 8.03384C692.838 8.39417 693.327 8.59664 693.837 8.59664C694.346 8.59664 694.835 8.39417 695.195 8.03384C695.556 7.6735 695.758 7.18478 695.758 6.67519C695.758 6.1656 695.556 5.67688 695.195 5.31655C694.835 4.95621 694.346 4.75378 693.837 4.75378C693.327 4.75378 692.838 4.95621 692.478 5.31655C692.118 5.67688 691.915 6.1656 691.915 6.67519Z" fill="white"/>
<path d="M349.574 135.259H527.178L514.032 8.74902H334.936L349.574 135.259Z" fill="#263238"/>
<path d="M358.603 135.259H536.207L523.086 8.74902H343.99L358.603 135.259Z" fill="#455A64"/>
<path d="M365.2 129.517H529.986L517.8 12.1338H351.624L365.2 129.517Z" fill="#FAFAFA"/>
<path d="M511.882 109.822C512.11 109.822 510.466 92.1244 508.216 70.3821C505.966 48.6398 503.969 30.9932 503.741 31.0185C503.514 31.0437 505.157 48.7157 507.407 70.458C509.657 92.2002 511.655 109.847 511.882 109.822Z" fill="#263238"/>
<path d="M481.874 34.9377C487.371 35.5108 492.912 35.5108 498.409 34.9377C492.911 34.3984 487.373 34.3984 481.874 34.9377V34.9377Z" fill="#263238"/>
<path d="M411.49 34.9377C411.49 35.1652 426.23 35.3675 444.357 35.3675C462.484 35.3675 477.223 35.1652 477.223 34.9377C477.223 34.7102 462.484 34.5332 444.357 34.5332C426.23 34.5332 411.49 34.7102 411.49 34.9377Z" fill="#E8505B"/>
<path d="M483.819 76.6537C489.324 77.2268 494.874 77.2268 500.379 76.6537C494.872 76.1143 489.326 76.1143 483.819 76.6537Z" fill="#263238"/>
<path d="M413.436 76.6537C413.436 76.8812 428.176 77.0835 446.303 77.0835C464.43 77.0835 479.169 76.8812 479.169 76.6537C479.169 76.4261 464.404 76.2491 446.303 76.2491C428.201 76.2491 413.436 76.4261 413.436 76.6537Z" fill="#E8505B"/>
<path d="M435.885 95.8936C435.885 96.1211 450.624 96.2981 468.751 96.2981C486.878 96.2981 501.618 96.1211 501.618 95.8936C501.618 95.666 486.853 95.489 468.751 95.489C450.65 95.489 435.885 95.7672 435.885 95.8936Z" fill="#E8505B"/>
<path d="M474.593 46.7215C482.335 47.2946 490.109 47.2946 497.852 46.7215C490.108 46.1822 482.336 46.1822 474.593 46.7215V46.7215Z" fill="#E8505B"/>
<path d="M475.173 63.9861C482.923 64.5591 490.706 64.5591 498.457 63.9861C490.705 63.4467 482.925 63.4467 475.173 63.9861V63.9861Z" fill="#E8505B"/>
<path d="M455.507 88.6616C463.249 89.2347 471.024 89.2347 478.766 88.6616C471.022 88.1222 463.25 88.1222 455.507 88.6616Z" fill="#E8505B"/>
<path d="M389.9 46.7215C389.9 46.9491 403.224 47.1513 419.632 47.1513C436.04 47.1513 449.363 46.9491 449.363 46.7215C449.363 46.494 436.065 46.317 419.632 46.317C403.199 46.317 389.9 46.494 389.9 46.7215Z" fill="#263238"/>
<path d="M408.253 64.9988C408.253 65.2263 421.576 65.4033 437.984 65.4033C454.392 65.4033 467.715 65.2263 467.715 64.9988C467.715 64.7712 454.417 64.569 437.984 64.569C421.551 64.569 408.253 64.7712 408.253 64.9988Z" fill="#263238"/>
<path d="M387.8 88.6616C387.8 88.8891 401.098 89.0914 417.532 89.0914C433.965 89.0914 447.263 88.8891 447.263 88.6616C447.263 88.4341 433.939 88.2571 417.532 88.2571C401.124 88.2571 387.8 88.4341 387.8 88.6616Z" fill="#263238"/>
<path d="M442.081 109.825C442.081 110.053 455.404 110.23 471.812 110.23C488.22 110.23 501.543 110.053 501.543 109.825C501.543 109.598 488.245 109.396 471.812 109.396C455.379 109.396 442.081 109.598 442.081 109.825Z" fill="#263238"/>
<path d="M376.322 109.825C376.322 110.053 389.646 110.23 406.054 110.23C422.462 110.23 435.785 110.053 435.785 109.825C435.785 109.598 422.487 109.396 406.054 109.396C389.621 109.396 376.322 109.598 376.322 109.825Z" fill="#263238"/>
<path d="M442.081 116.7C442.081 116.927 455.405 117.129 471.813 117.129C488.221 117.129 501.569 116.927 501.569 116.7C501.569 116.472 488.246 116.295 471.813 116.295C455.38 116.295 442.081 116.472 442.081 116.7Z" fill="#263238"/>
<path d="M439.197 51.6772C439.197 51.9047 452.52 52.107 468.928 52.107C485.336 52.107 498.659 51.9047 498.659 51.6772C498.659 51.4497 485.361 51.2727 468.928 51.2727C452.495 51.2727 439.197 51.4497 439.197 51.6772Z" fill="#263238"/>
<path d="M455.05 46.796C460.143 47.3353 465.278 47.3353 470.371 46.796C465.28 46.223 460.141 46.223 455.05 46.796Z" fill="#455A64"/>
<path d="M485.768 82.344C490.86 82.8833 495.996 82.8833 501.088 82.344C495.998 81.7709 490.858 81.7709 485.768 82.344V82.344Z" fill="#455A64"/>
<path d="M486.122 88.6616C491.213 89.2346 496.352 89.2346 501.443 88.6616C496.35 88.1222 491.215 88.1222 486.122 88.6616V88.6616Z" fill="#455A64"/>
<path d="M353.443 24.5488C353.443 24.7763 390.506 24.9533 436.19 24.9533C481.874 24.9533 518.987 24.7763 518.987 24.5488C518.987 24.3213 481.924 24.119 436.19 24.119C390.455 24.119 353.443 24.3213 353.443 24.5488Z" fill="#263238"/>
<path d="M507.814 20.9077C506.725 20.9077 505.842 20.0248 505.842 18.9357C505.842 17.8466 506.725 16.9637 507.814 16.9637C508.903 16.9637 509.786 17.8466 509.786 18.9357C509.786 20.0248 508.903 20.9077 507.814 20.9077Z" fill="white"/>
<path d="M499.395 20.9077C498.306 20.9077 497.423 20.0248 497.423 18.9357C497.423 17.8466 498.306 16.9637 499.395 16.9637C500.484 16.9637 501.367 17.8466 501.367 18.9357C501.367 20.0248 500.484 20.9077 499.395 20.9077Z" fill="white"/>
<path d="M490.976 20.9077C489.886 20.9077 489.004 20.0248 489.004 18.9357C489.004 17.8466 489.886 16.9637 490.976 16.9637C492.065 16.9637 492.948 17.8466 492.948 18.9357C492.948 20.0248 492.065 20.9077 490.976 20.9077Z" fill="white"/>
<path d="M610.862 611.745H624.691V630.63H610.862V611.745Z" fill="#263238"/>
<path d="M530.846 397.707H408.078V391.741H530.846V397.707Z" fill="#263238"/>
<path d="M389.064 397.705L366.032 311.394H461.9L482.732 397.705H389.064Z" fill="#263238"/>
<path d="M476.994 391.158H391.365L371.418 315.389H457.502L476.994 391.158Z" fill="#F5F5F5"/>
<path d="M455.379 330.076L460.689 351.515H403.906L397.838 330.076H455.379Z" fill="#E0E0E0"/>
<path d="M409.719 327.247C409.719 327.475 419.68 327.652 431.967 327.652C444.254 327.652 454.215 327.475 454.215 327.247C454.215 327.02 444.254 326.818 431.967 326.818C419.68 326.818 409.719 327.02 409.719 327.247Z" fill="#455A64"/>
<path d="M435.709 334.175C441.672 334.715 447.671 334.715 453.634 334.175C447.671 333.636 441.672 333.636 435.709 334.175Z" fill="#263238"/>
<path d="M421.325 333.846C425.2 334.385 429.13 334.385 433.005 333.846C429.133 333.273 425.197 333.273 421.325 333.846Z" fill="#263238"/>
<path d="M405.094 338.066C405.094 338.293 416.067 338.47 429.618 338.47C443.169 338.47 454.141 338.293 454.141 338.066C454.141 337.838 443.169 337.636 429.618 337.636C416.067 337.636 405.094 337.838 405.094 338.066Z" fill="#455A64"/>
<path d="M439.249 341.609C444.534 342.182 449.866 342.182 455.151 341.609C449.864 341.07 444.536 341.07 439.249 341.609V341.609Z" fill="#9E22E9"/>
<path d="M409.494 346.69C409.494 346.918 419.606 347.095 432.247 347.095C444.888 347.095 455.001 346.918 455.001 346.69C455.001 346.463 444.888 346.286 432.247 346.286C419.606 346.286 409.494 346.463 409.494 346.69Z" fill="#455A64"/>
<path d="M442.965 357.684C448.852 358.23 454.776 358.23 460.663 357.684C454.776 357.139 448.852 357.139 442.965 357.684V357.684Z" fill="#455A64"/>
<path d="M427.923 357.763C429.904 358.15 431.927 358.269 433.94 358.117C435.948 358.237 437.964 358.084 439.932 357.662C437.953 357.259 435.928 357.131 433.915 357.283C431.905 357.163 429.888 357.325 427.923 357.763V357.763Z" fill="#263238"/>
<path d="M419.453 357.359C419.453 357.587 420.591 357.764 421.981 357.764C423.372 357.764 424.51 357.587 424.51 357.359C424.51 357.132 423.372 356.929 421.981 356.929C420.591 356.929 419.453 357.132 419.453 357.359Z" fill="#263238"/>
<path d="M454.646 362.083C454.646 362.311 455.91 362.488 457.453 362.488C458.995 362.488 460.234 362.311 460.234 362.083C460.234 361.856 458.995 361.679 457.453 361.679C455.91 361.679 454.646 361.856 454.646 362.083Z" fill="#9E22E9"/>
<path d="M437.908 362.083C442.342 362.623 446.824 362.623 451.257 362.083C446.824 361.544 442.342 361.544 437.908 362.083V362.083Z" fill="#263238"/>
<path d="M397.99 361.579C397.99 361.806 405.979 361.983 415.839 361.983C425.699 361.983 433.663 361.806 433.663 361.579C433.663 361.351 425.674 361.149 415.839 361.149C406.004 361.149 397.99 361.351 397.99 361.579Z" fill="#455A64"/>
<path d="M455.507 366.66C455.507 366.888 456.796 367.065 458.364 367.065C459.931 367.065 461.246 366.888 461.246 366.66C461.246 366.433 459.956 366.23 458.364 366.23C456.771 366.23 455.507 366.433 455.507 366.66Z" fill="#263238"/>
<path d="M446.707 366.485C448.985 367.024 451.356 367.024 453.634 366.485C451.36 365.912 448.98 365.912 446.707 366.485V366.485Z" fill="#263238"/>
<path d="M420.491 366.283C427.973 366.822 435.484 366.822 442.966 366.283C435.485 365.71 427.971 365.71 420.491 366.283Z" fill="#455A64"/>
<path d="M434.344 374.094C438.874 374.5 443.425 374.635 447.971 374.498C452.509 374.635 457.051 374.5 461.573 374.094C457.051 373.688 452.509 373.552 447.971 373.689C443.425 373.552 438.874 373.687 434.344 374.094Z" fill="#455A64"/>
<path d="M418.442 373.865C422.545 374.404 426.701 374.404 430.805 373.865C426.704 373.292 422.543 373.292 418.442 373.865Z" fill="#9E22E9"/>
<path d="M394.853 373.865C401.668 374.404 408.515 374.404 415.331 373.865C408.517 373.292 401.667 373.292 394.853 373.865Z" fill="#263238"/>
<path d="M400.341 326.894C400.341 327.122 401.302 327.324 402.465 327.324C403.628 327.324 404.588 327.122 404.588 326.894C404.588 326.667 403.628 326.49 402.465 326.49C401.302 326.49 400.341 326.667 400.341 326.894Z" fill="#263238"/>
<path d="M443.498 324.012C446.573 324.588 449.728 324.588 452.802 324.012C449.724 323.473 446.576 323.473 443.498 324.012Z" fill="black"/>
<path d="M372.859 320.775H458.943L457.502 315.339H371.544L372.859 320.775Z" fill="#EBEBEB"/>
<path d="M453.887 319.082C453.37 319.082 452.952 318.663 452.952 318.147C452.952 317.63 453.37 317.211 453.887 317.211C454.404 317.211 454.822 317.63 454.822 318.147C454.822 318.663 454.404 319.082 453.887 319.082Z" fill="#FAFAFA"/>
<path d="M450.65 319.082C450.134 319.082 449.715 318.663 449.715 318.147C449.715 317.63 450.134 317.211 450.65 317.211C451.167 317.211 451.586 317.63 451.586 318.147C451.586 318.663 451.167 319.082 450.65 319.082Z" fill="#FAFAFA"/>
<path d="M447.416 319.082C446.899 319.082 446.48 318.663 446.48 318.147C446.48 317.63 446.899 317.211 447.416 317.211C447.932 317.211 448.351 317.63 448.351 318.147C448.351 318.663 447.932 319.082 447.416 319.082Z" fill="#FAFAFA"/>
<path d="M273.78 399.53H477.904V518.632H273.78V399.53Z" fill="#263238"/>
<path d="M384.918 399.53H477.904V518.632H384.918V399.53Z" fill="#455A64"/>
<path d="M394.399 439.978C394.399 439.978 394.399 439.75 394.399 439.371V437.627C394.399 436.059 394.399 433.834 394.399 431.003C394.399 425.264 394.399 417.022 394.576 406.884L394.272 407.187L469.056 407.314C469.435 407.668 468.576 406.808 468.651 406.884V423.899C468.651 429.435 468.651 434.82 468.651 439.952L469.056 439.548L415.459 439.75H399.91H395.713H399.809H415.282L469.132 439.927H469.511V439.548C469.511 434.492 469.511 429.031 469.511 423.494V406.48C469.511 406.48 468.727 405.696 469.081 406.075H394.298H393.994V406.378C393.994 416.491 394.121 424.885 394.146 430.674C394.146 433.48 394.146 435.73 394.146 437.222V438.916C394.12 439.287 394.208 439.658 394.399 439.978Z" fill="#263238"/>
<path d="M428.607 423.42C428.845 422.533 429.348 421.739 430.048 421.145C430.436 420.871 430.885 420.695 431.357 420.634C431.828 420.572 432.307 420.626 432.753 420.791C433.266 420.993 433.711 421.339 434.034 421.788C434.357 422.236 434.544 422.767 434.573 423.319C434.57 423.843 434.422 424.356 434.147 424.802C433.871 425.248 433.478 425.61 433.011 425.847C432.544 426.085 432.02 426.189 431.497 426.149C430.975 426.109 430.473 425.926 430.048 425.619C429.339 425.021 428.836 424.217 428.607 423.319C428.521 423.59 428.521 423.881 428.607 424.153C428.746 424.915 429.149 425.604 429.744 426.1C430.2 426.472 430.744 426.721 431.324 426.823C431.904 426.925 432.501 426.876 433.056 426.681C433.755 426.443 434.362 425.991 434.792 425.391C435.222 424.79 435.453 424.07 435.453 423.331C435.453 422.593 435.222 421.873 434.792 421.272C434.362 420.671 433.755 420.22 433.056 419.981C432.501 419.787 431.904 419.738 431.324 419.84C430.744 419.942 430.2 420.191 429.744 420.563C429.146 421.056 428.742 421.746 428.607 422.51C428.48 423.142 428.581 423.445 428.607 423.42Z" fill="#263238"/>
<path d="M394.399 476.382C394.41 476.179 394.41 475.977 394.399 475.775V474.03C394.399 472.463 394.399 470.263 394.399 467.432C394.399 461.668 394.399 453.451 394.576 443.313L394.272 443.591L469.056 443.718L468.651 443.313V460.303C468.651 465.839 468.651 471.199 468.651 476.331L469.056 475.952L415.459 476.129H399.91H395.713H399.809L415.282 476.255L469.132 476.432H469.511V476.028C469.511 470.971 469.511 465.536 469.511 459.999V443.01C469.511 443.01 468.727 442.226 469.081 442.58L394.298 442.707H393.994V443.01C393.994 453.123 394.121 461.516 394.146 467.305C394.146 470.112 394.146 472.362 394.146 473.853V475.522C394.374 476.205 394.374 476.407 394.399 476.382Z" fill="#263238"/>
<path d="M428.606 459.823C428.835 458.925 429.339 458.12 430.047 457.522C430.437 457.253 430.888 457.082 431.359 457.025C431.83 456.968 432.308 457.026 432.752 457.194C433.288 457.394 433.75 457.753 434.076 458.223C434.403 458.693 434.577 459.251 434.577 459.823C434.577 460.395 434.403 460.954 434.076 461.424C433.75 461.893 433.288 462.252 432.752 462.452C432.308 462.621 431.83 462.679 431.359 462.621C430.888 462.564 430.437 462.393 430.047 462.124C429.339 461.526 428.835 460.721 428.606 459.823C428.519 460.086 428.519 460.369 428.606 460.632C428.735 461.398 429.14 462.09 429.743 462.579C430.2 462.951 430.744 463.2 431.323 463.302C431.903 463.404 432.5 463.355 433.055 463.16C433.746 462.916 434.343 462.464 434.766 461.867C435.189 461.269 435.415 460.555 435.415 459.823C435.415 459.091 435.189 458.377 434.766 457.779C434.343 457.182 433.746 456.73 433.055 456.486C432.5 456.291 431.903 456.242 431.323 456.344C430.744 456.446 430.2 456.695 429.743 457.067C429.14 457.556 428.735 458.248 428.606 459.014C428.519 459.277 428.519 459.56 428.606 459.823Z" fill="#263238"/>
<path d="M394.399 512.915C394.399 512.915 394.399 512.687 394.399 512.308V510.387C394.399 508.819 394.399 506.594 394.399 503.763C394.399 498.024 394.399 489.782 394.576 479.644L394.272 479.947L469.056 480.074C469.435 480.428 468.576 479.568 468.651 479.644V496.659C468.651 502.195 468.651 507.58 468.651 512.712L469.056 512.308L415.459 512.51H399.91H395.713H399.809H415.282L469.132 512.712H469.511V512.915C469.511 507.858 469.511 502.397 469.511 496.861V479.846C469.511 479.846 468.727 479.062 469.081 479.442H394.298H393.994V479.745C393.994 489.858 394.121 498.251 394.146 504.041C394.146 506.847 394.146 509.097 394.146 510.589V512.283C394.19 512.507 394.276 512.722 394.399 512.915V512.915Z" fill="#263238"/>
<path d="M428.607 496.278C428.836 495.38 429.339 494.575 430.048 493.977C430.473 493.671 430.975 493.488 431.497 493.448C432.02 493.408 432.544 493.512 433.011 493.75C433.478 493.987 433.871 494.349 434.147 494.795C434.422 495.241 434.57 495.754 434.573 496.278C434.544 496.83 434.357 497.361 434.034 497.809C433.711 498.257 433.266 498.604 432.753 498.806C432.307 498.971 431.828 499.025 431.357 498.963C430.885 498.901 430.436 498.726 430.048 498.452C429.348 497.858 428.845 497.064 428.607 496.177C428.607 496.177 428.48 496.455 428.607 496.986C428.742 497.749 429.146 498.44 429.744 498.933C430.2 499.305 430.744 499.554 431.324 499.656C431.904 499.758 432.501 499.709 433.056 499.514C433.755 499.276 434.362 498.824 434.792 498.224C435.222 497.623 435.453 496.903 435.453 496.164C435.453 495.426 435.222 494.706 434.792 494.105C434.362 493.504 433.755 493.053 433.056 492.814C432.501 492.62 431.904 492.571 431.324 492.673C430.744 492.774 430.2 493.024 429.744 493.396C429.146 493.889 428.742 494.579 428.607 495.343C428.499 495.645 428.499 495.976 428.607 496.278Z" fill="#263238"/>
<path d="M613.845 615.562L750.265 615.461V399.53H613.845V615.562Z" fill="#263238"/>
<path d="M266.371 391.211H756.837V402.538H266.371V391.211Z" fill="#263238"/>
<path d="M735.045 402.537H750.265V631.615H735.045V402.537Z" fill="#263238"/>
<path d="M273.779 402.537H288.999V631.691H273.779V402.537Z" fill="#263238"/>
<path d="M369.7 402.537H384.919V631.691H369.7V402.537Z" fill="#263238"/>
<path d="M687.82 391.207C687.82 391.435 702.458 391.612 720.484 391.612C738.51 391.612 753.123 391.435 753.123 391.207C753.123 390.98 738.51 390.803 720.484 390.803C702.458 390.803 687.82 390.98 687.82 391.207Z" fill="#455A64"/>
<path d="M544.471 620.466L544.092 604.083L574.784 603.148L575.593 627.115L573.697 627.292C565.253 628.025 530.718 630.402 524.954 628.859C518.583 627.115 544.471 620.466 544.471 620.466Z" fill="#9E22E9"/>
<g opacity="0.4">
<path opacity="0.4" d="M531.83 624.156C531.83 624.156 522.779 627.063 523.968 628.53C525.156 629.996 560.171 628.934 575.593 627.089V626.406L534.738 628.024C534.738 628.024 533.6 624.156 531.83 624.156Z" fill="white"/>
</g>
<path d="M575.998 626.405H575.492L573.975 626.532L568.388 626.961C563.685 627.265 557.188 627.619 550.008 627.846C542.828 628.074 536.28 628.124 531.578 628.099H525.99H524.473H523.943C524.119 628.077 524.297 628.077 524.473 628.099H526.016H531.603C536.305 628.099 542.828 627.947 550.008 627.72C557.188 627.492 563.711 627.189 568.413 626.936L573.975 626.658H575.492L575.998 626.405Z" fill="#263238"/>
<path d="M534.688 628.531C534.425 627.645 534.051 626.796 533.575 626.003C533 625.231 532.338 624.527 531.603 623.905C532.562 624.235 533.369 624.899 533.879 625.776C534.468 626.569 534.755 627.546 534.688 628.531V628.531Z" fill="#263238"/>
<path d="M543.713 623.651C543.713 623.651 543.182 623.195 542.702 622.488C542.221 621.78 541.918 621.198 542.019 621.148C542.12 621.097 542.55 621.603 543.005 622.285C543.339 622.682 543.581 623.148 543.713 623.651V623.651Z" fill="#263238"/>
<path d="M546.063 622.259C546.063 622.259 545.482 622.031 544.951 621.576C544.42 621.121 544.015 620.666 544.091 620.59C544.167 620.514 544.647 620.818 545.178 621.273C545.709 621.728 546.114 622.183 546.063 622.259Z" fill="#263238"/>
<path d="M547.531 619.302C547.027 619.51 546.481 619.597 545.938 619.555C545.405 619.675 544.852 619.675 544.32 619.555C544.824 619.346 545.369 619.26 545.913 619.302C546.445 619.179 546.998 619.179 547.531 619.302V619.302Z" fill="#263238"/>
<path d="M548.012 617.252C547.492 617.616 546.876 617.819 546.242 617.833C545.62 617.957 544.976 617.886 544.396 617.631C544.988 617.515 545.589 617.455 546.191 617.454C546.79 617.331 547.4 617.263 548.012 617.252Z" fill="#263238"/>
<path d="M542.474 620.994C541.822 621.113 541.154 621.113 540.502 620.994C539.791 620.929 539.088 620.793 538.404 620.59C537.98 620.494 537.572 620.341 537.19 620.134C536.955 620.011 536.775 619.803 536.685 619.553C536.645 619.408 536.647 619.255 536.692 619.111C536.737 618.968 536.822 618.84 536.938 618.744C537.682 618.354 538.538 618.231 539.361 618.397C540.185 618.563 540.927 619.007 541.463 619.654C541.764 620.05 541.994 620.495 542.146 620.969C542.146 621.297 542.146 621.5 542.146 621.5C541.943 620.889 541.625 620.323 541.21 619.831C540.742 619.335 540.148 618.977 539.491 618.794C538.707 618.564 537.865 618.645 537.14 619.022C536.836 619.275 536.963 619.629 537.317 619.831C537.679 620.015 538.061 620.16 538.454 620.261C539.123 620.476 539.808 620.637 540.502 620.741C541.741 620.969 542.474 620.943 542.474 620.994Z" fill="#263238"/>
<path d="M541.969 621.123C541.72 620.714 541.63 620.228 541.716 619.758C541.759 619.238 541.923 618.735 542.197 618.291C542.352 617.99 542.583 617.734 542.867 617.548C543.15 617.362 543.477 617.252 543.815 617.229C544.016 617.272 544.194 617.39 544.311 617.559C544.429 617.728 544.477 617.936 544.447 618.14C544.402 618.451 544.299 618.751 544.143 619.025C543.899 619.47 543.592 619.878 543.233 620.238C542.652 620.87 542.171 621.123 542.146 621.072C542.121 621.022 542.525 620.718 543.056 620.061C543.358 619.693 543.62 619.295 543.84 618.873C544.093 618.443 544.27 617.685 543.84 617.609C543.41 617.533 542.854 618.089 542.551 618.494C542.3 618.887 542.128 619.324 542.045 619.783C541.988 620.227 541.963 620.675 541.969 621.123V621.123Z" fill="#263238"/>
<path d="M575.114 618.038C574.361 618.035 573.609 618.086 572.864 618.189C571.067 618.448 569.378 619.2 567.984 620.364C566.608 621.557 565.585 623.104 565.026 624.839C564.597 626.153 564.571 627.038 564.495 627.038C564.463 626.837 564.463 626.632 564.495 626.431C564.51 625.865 564.604 625.303 564.774 624.763C565.263 622.937 566.296 621.303 567.737 620.079C569.178 618.855 570.957 618.099 572.838 617.911C573.393 617.847 573.953 617.847 574.507 617.911C574.715 617.916 574.921 617.959 575.114 618.038Z" fill="#263238"/>
<path d="M571.524 605.347C571.795 607.435 571.947 609.537 571.979 611.642C572.098 613.748 572.098 615.858 571.979 617.963C571.707 615.875 571.555 613.773 571.524 611.668C571.405 609.563 571.405 607.453 571.524 605.347V605.347Z" fill="#263238"/>
<path d="M560.5 624.333C559.051 624.735 557.553 624.931 556.05 624.915C554.548 625.039 553.035 624.971 551.55 624.713C551.55 624.586 553.547 624.713 556.025 624.561C558.502 624.409 560.5 624.156 560.5 624.333Z" fill="#263238"/>
<path d="M566.468 624.156C566.468 624.156 566.316 624.586 566.139 625.041C565.962 625.496 565.836 625.926 565.735 625.926C565.634 625.926 565.558 625.445 565.735 624.914C565.912 624.384 566.468 624.156 566.468 624.156Z" fill="#263238"/>
<path d="M568.693 621.246C568.693 621.246 568.692 621.651 568.288 621.98C567.883 622.308 567.656 622.536 567.58 622.46C567.504 622.384 567.707 622.056 568.01 621.727C568.313 621.398 568.617 621.196 568.693 621.246Z" fill="#263238"/>
<path d="M571.904 619.881C571.904 619.881 571.474 619.881 571.044 620.159C570.615 620.437 570.261 620.589 570.185 620.513C570.109 620.437 570.362 620.007 570.918 619.805C571.474 619.603 571.929 619.78 571.904 619.881Z" fill="#263238"/>
<path d="M574.202 619.097C574.202 619.097 574.076 619.35 573.823 619.451C573.57 619.552 573.317 619.577 573.292 619.451C573.267 619.325 573.418 619.198 573.671 619.097C573.924 618.996 574.05 619.097 574.202 619.097Z" fill="#263238"/>
<g opacity="0.3">
<path opacity="0.3" d="M575.061 617.206L544.394 617.635L544.319 613.944L575.238 615.259L575.061 617.206Z" fill="black"/>
</g>
<path d="M496.083 623.016V606.633L526.825 606.456L527.002 630.424L525.106 630.575C516.637 631.056 482.127 632.522 476.338 630.828C470.017 628.982 496.083 623.016 496.083 623.016Z" fill="#9E22E9"/>
<g opacity="0.4">
<path opacity="0.4" d="M483.339 626.378C483.339 626.378 474.212 629.058 475.35 630.549C476.487 632.041 511.553 631.914 527 630.549V629.867L486.12 630.398C486.12 630.398 485.134 626.454 483.339 626.378Z" fill="white"/>
</g>
<path d="M527.431 629.794H526.9H525.383L519.821 630.047C515.094 630.249 508.596 630.426 501.391 630.452C494.185 630.477 487.688 630.452 482.96 630.25L477.398 630.022H475.881H475.351H477.398H482.96C487.688 630.022 494.185 630.174 501.391 630.022C508.596 629.87 515.094 629.87 519.796 629.744L525.383 629.592H527.431V629.794Z" fill="#263238"/>
<path d="M486.072 630.806C485.836 629.883 485.488 628.991 485.035 628.152C484.49 627.363 483.844 626.649 483.114 626.028C484.069 626.369 484.862 627.054 485.339 627.95C485.936 628.775 486.198 629.796 486.072 630.806V630.806Z" fill="#263238"/>
<path d="M495.124 626.18C495.124 626.18 494.593 625.7 494.138 624.992C493.83 624.585 493.606 624.121 493.481 623.627C493.481 623.627 494.012 624.082 494.467 624.79C494.794 625.194 495.02 625.671 495.124 626.18Z" fill="#263238"/>
<path d="M497.601 624.84C497.601 624.84 497.044 624.613 496.514 624.132C495.983 623.652 495.603 623.197 495.679 623.121C495.755 623.045 496.235 623.374 496.766 623.854C497.297 624.335 497.676 624.764 497.601 624.84Z" fill="#263238"/>
<path d="M499.168 621.93C498.652 622.122 498.1 622.199 497.55 622.157C497.013 622.217 496.469 622.156 495.957 621.981C496.469 621.803 497.011 621.734 497.55 621.778C498.094 621.704 498.648 621.756 499.168 621.93V621.93Z" fill="#263238"/>
<path d="M499.698 619.883C499.169 620.241 498.541 620.427 497.903 620.413C497.279 620.536 496.632 620.456 496.057 620.186C496.659 620.09 497.268 620.047 497.877 620.06C498.478 619.95 499.087 619.891 499.698 619.883V619.883Z" fill="#263238"/>
<path d="M494.058 623.498C493.404 623.594 492.74 623.594 492.086 623.498C491.376 623.401 490.674 623.249 489.988 623.043C489.57 622.909 489.164 622.74 488.774 622.537C488.545 622.401 488.374 622.185 488.294 621.931C488.265 621.785 488.278 621.633 488.332 621.495C488.385 621.356 488.477 621.235 488.597 621.147C489.349 620.779 490.204 620.682 491.019 620.87C491.834 621.059 492.559 621.523 493.072 622.183C493.367 622.579 493.589 623.025 493.729 623.498C493.729 623.827 493.729 624.029 493.729 624.029C493.517 623.428 493.21 622.864 492.819 622.36C492.377 621.836 491.786 621.457 491.125 621.273C490.351 621.019 489.509 621.073 488.774 621.425C488.471 621.678 488.597 622.032 488.926 622.234C489.28 622.43 489.653 622.591 490.038 622.714C490.706 622.937 491.391 623.106 492.086 623.22C493.325 623.447 494.058 623.422 494.058 623.498Z" fill="#263238"/>
<path d="M493.557 623.597C493.309 623.187 493.228 622.699 493.329 622.231C493.385 621.715 493.567 621.22 493.86 620.79C494.018 620.49 494.254 620.238 494.543 620.06C494.832 619.882 495.164 619.785 495.503 619.779C495.601 619.797 495.695 619.835 495.778 619.889C495.862 619.943 495.934 620.014 495.99 620.096C496.046 620.178 496.086 620.27 496.106 620.368C496.127 620.465 496.128 620.566 496.11 620.664C496.067 620.98 495.955 621.282 495.781 621.549C495.52 621.99 495.206 622.397 494.846 622.762C494.543 623.115 494.162 623.392 493.733 623.571C493.733 623.571 494.113 623.192 494.669 622.585C494.974 622.214 495.244 621.817 495.478 621.397C495.756 620.967 495.933 620.234 495.478 620.133C495.023 620.032 494.492 620.588 494.189 620.967C493.918 621.355 493.728 621.794 493.632 622.257C493.569 622.701 493.544 623.149 493.557 623.597V623.597Z" fill="#263238"/>
<path d="M526.774 621.375C526.774 621.375 525.889 621.375 524.498 621.375C522.689 621.579 520.975 622.294 519.556 623.435C518.137 624.577 517.071 626.098 516.484 627.822C516.256 628.543 516.07 629.278 515.928 630.021C515.885 629.813 515.885 629.598 515.928 629.389C515.99 628.833 516.1 628.283 516.256 627.746C516.81 625.936 517.893 624.333 519.366 623.145C520.81 621.977 522.572 621.272 524.422 621.122C524.985 621.055 525.554 621.055 526.116 621.122C526.345 621.18 526.565 621.265 526.774 621.375V621.375Z" fill="#263238"/>
<path d="M523.489 608.633C523.706 610.724 523.808 612.826 523.792 614.929C523.917 617.033 523.917 619.144 523.792 621.249C523.577 619.149 523.484 617.039 523.514 614.929C523.373 612.833 523.365 610.73 523.489 608.633Z" fill="#263238"/>
<path d="M512.011 627.315C510.537 627.662 509.024 627.815 507.511 627.771C506.011 627.863 504.506 627.752 503.036 627.442C503.036 627.315 505.033 627.442 507.511 627.442C509.988 627.442 511.986 627.214 512.011 627.315Z" fill="#263238"/>
<path d="M518.001 627.263C518.001 627.263 517.85 627.693 517.648 628.173C517.445 628.654 517.344 629.033 517.243 629.033C517.142 629.033 517.066 628.527 517.243 628.022C517.42 627.516 517.951 627.213 518.001 627.263Z" fill="#263238"/>
<path d="M520.276 624.434C520.276 624.434 520.276 624.839 519.821 625.167C519.366 625.496 519.189 625.698 519.113 625.622C519.038 625.547 519.113 625.218 519.568 624.889C520.023 624.561 520.2 624.384 520.276 624.434Z" fill="#263238"/>
<path d="M523.489 623.145C523.489 623.145 523.059 623.145 522.604 623.398C522.149 623.651 521.82 623.802 521.744 623.726C521.668 623.65 521.921 623.246 522.478 623.044C523.034 622.842 523.489 623.044 523.489 623.145Z" fill="#263238"/>
<path d="M525.814 622.512C525.814 622.512 525.814 622.79 525.434 622.866C525.055 622.942 524.929 622.993 524.903 622.866C524.878 622.74 525.03 622.613 525.283 622.512C525.536 622.411 525.788 622.437 525.814 622.512Z" fill="#263238"/>
<g opacity="0.3">
<path opacity="0.3" d="M526.724 620.564L496.058 620.185L496.083 616.494L526.952 618.617L526.724 620.564Z" fill="black"/>
</g>
<path d="M558.022 348.586L545.71 385.598C542.398 395.711 533.676 397.329 523.134 397.329H454.747V381.983L517.218 373.058L532.109 335.136L558.022 348.586Z" fill="#FFBE9D"/>
<path d="M447.238 378.922L441.802 376.394C441.802 376.394 435.962 365.093 434.622 365.548C433.282 366.003 432.878 369.315 435.229 374.523L428.024 372.45C428.024 372.45 412.4 379.681 413.082 380.641C413.294 381.134 413.612 381.574 414.015 381.928C414.417 382.282 414.893 382.543 415.409 382.69C415.924 382.838 416.466 382.869 416.995 382.781C417.524 382.694 418.027 382.49 418.467 382.184C421.855 380.439 426.33 378.391 426.33 378.391L434.749 380.92L423.878 382.285L413.765 391.588C414.672 392.266 415.781 392.62 416.913 392.592C418.046 392.565 419.136 392.158 420.009 391.437L446.53 397.125L454.822 397.606V382.26L447.238 378.922Z" fill="#FFBE9D"/>
<path d="M419.832 391.259C420.377 390.696 420.891 390.105 421.374 389.489C421.946 388.899 422.602 388.396 423.321 387.997C424.218 387.573 425.187 387.324 426.178 387.264C428.872 387.079 431.54 386.621 434.142 385.899C431.442 385.794 428.739 385.972 426.077 386.43C424.97 386.504 423.893 386.814 422.916 387.34C422.155 387.802 421.486 388.403 420.944 389.11C420.135 390.323 419.832 391.208 419.832 391.259Z" fill="#EB996E"/>
<path d="M424.081 392.321C424.081 392.321 424.258 391.765 424.991 391.613C425.724 391.462 426.963 391.335 428.227 391.184C429.788 391.164 431.344 391.011 432.879 390.729C431.363 390.191 429.731 390.069 428.151 390.375C427.014 390.456 425.892 390.685 424.814 391.057C424.623 391.123 424.451 391.233 424.31 391.378C424.17 391.523 424.065 391.699 424.005 391.891C423.929 392.17 424.03 392.321 424.081 392.321Z" fill="#EB996E"/>
<path d="M615.74 196.49L619.558 271.703L587.349 274.737L585.579 256.483C585.579 256.483 574.203 259.289 570.764 248.899C568.565 242.199 566.593 189.613 566.593 189.613L615.74 196.49Z" fill="#FFBE9D"/>
<path d="M563.711 198.285C562.826 205.314 572.66 209.384 572.66 209.384L574.379 226.045C575.92 225.933 577.466 225.933 579.006 226.045C578.172 218.233 588.234 219.749 589.27 225.084C590.307 230.418 584.416 233.629 584.416 233.629C587.556 239.143 591.379 244.24 595.793 248.798C601.987 255.068 605.299 255.574 611.695 255.397L618.724 255.068C620.957 248.519 622.417 241.731 623.072 234.843C623.957 228.017 629.291 219.067 627.775 207.968C623.451 176.417 593.214 179.754 593.214 179.754C577.54 180.209 565.784 181.953 563.711 198.285Z" fill="#263238"/>
<path d="M586.894 180.689C580.068 180.866 572.989 181.397 566.972 184.658C560.955 187.92 556.379 194.771 557.593 201.395L561.006 202.002L562.422 199.473C562.422 200.813 562.422 202.153 562.422 203.493L568.439 205.162C569.323 200.037 571.121 195.113 573.748 190.625" fill="#263238"/>
<path d="M614.502 215.301C614.743 214.937 614.922 214.536 615.033 214.113C615.416 212.993 615.703 211.843 615.892 210.675C616.55 206.811 616.291 202.846 615.136 199.1C613.981 195.354 611.963 191.932 609.243 189.109C608.428 188.251 607.54 187.464 606.589 186.758C606.259 186.482 605.893 186.252 605.501 186.076C605.501 186.202 606.867 187.289 608.813 189.489C611.326 192.349 613.204 195.709 614.324 199.348C615.444 202.986 615.78 206.821 615.311 210.599C614.906 213.506 614.325 215.251 614.502 215.301Z" fill="#455A64"/>
<path d="M608.106 212.644C608.753 211.447 609.189 210.147 609.395 208.801C610.78 202.33 610.19 195.592 607.701 189.461C607.24 188.184 606.593 186.983 605.78 185.896C607.486 190.118 608.626 194.547 609.168 199.068C609.422 203.62 609.065 208.186 608.106 212.644V212.644Z" fill="#455A64"/>
<path d="M566.997 200.988C567.149 200.988 567.427 199.041 568.741 196.184C570.404 192.428 573.09 189.214 576.492 186.912C579.894 184.61 583.875 183.311 587.981 183.164C591.116 183.012 593.037 183.493 593.037 183.341C592.622 183.119 592.166 182.982 591.697 182.937C590.451 182.67 589.179 182.543 587.905 182.557C583.654 182.557 579.5 183.832 575.981 186.215C572.461 188.599 569.737 191.984 568.16 195.931C567.673 197.113 567.309 198.341 567.073 199.597C566.969 200.053 566.944 200.523 566.997 200.988V200.988Z" fill="#455A64"/>
<path d="M613.466 174.597C611.718 175.098 610.127 176.036 608.844 177.324C607.561 178.611 606.628 180.205 606.134 181.954C606.362 181.954 607.398 179.932 609.421 177.909C611.443 175.887 613.567 174.825 613.466 174.597Z" fill="#263238"/>
<path d="M605.931 174.62C605.703 174.62 606.183 176.39 606.082 178.463C605.981 180.536 605.425 182.205 605.627 182.306C606.081 181.789 606.428 181.188 606.649 180.538C606.87 179.887 606.961 179.199 606.917 178.513C607.105 177.137 606.751 175.741 605.931 174.62V174.62Z" fill="#455A64"/>
<path d="M569.652 334.428L564.393 352.125L531.022 336.956C532.21 333.214 537.746 316.604 548.314 290.235C551.207 283.021 555.909 276.673 561.966 271.803C568.024 266.932 575.233 263.703 582.9 262.425C593.449 260.515 604.136 259.466 614.856 259.291C633.564 259.493 661.121 271.198 664.812 289.629C667.644 303.635 664.812 328.36 664.812 358.395L662.284 415.784L566.467 419.071L569.652 334.428Z" fill="#4B4AA1"/>
<g opacity="0.3">
<path opacity="0.3" d="M664.812 345.119C653.157 347.521 641.174 345.119 629.266 344.412C622.061 343.982 614.097 343.198 608.358 347.622C603.832 351.136 602.012 357.052 600.773 362.614C595.717 383.876 594.883 398.135 593.77 419.928L651.514 423.417L664.812 345.119Z" fill="black"/>
</g>
<path d="M551.122 284.926C551.122 285.153 576.277 285.33 607.349 285.33C638.42 285.33 663.575 285.153 663.575 284.926C663.575 284.698 638.293 284.496 607.349 284.496C576.404 284.496 551.122 284.698 551.122 284.926Z" fill="#FAFAFA"/>
<path d="M544.119 301.029C544.119 301.257 571.473 301.434 605.25 301.434C639.026 301.434 666.381 301.257 666.381 301.029C666.381 300.802 639.026 300.625 605.25 300.625C571.473 300.625 544.119 300.802 544.119 301.029Z" fill="#FAFAFA"/>
<path d="M535.321 321.255C535.321 321.482 564.521 321.659 600.548 321.659C636.574 321.659 665.8 321.482 665.8 321.255C665.8 321.027 636.599 320.825 600.548 320.825C564.496 320.825 535.321 321.027 535.321 321.255Z" fill="#FAFAFA"/>
<path d="M570.386 343.046C570.386 343.273 579.513 343.45 590.763 343.45C602.014 343.45 611.141 343.273 611.141 343.046C611.141 342.818 602.014 342.641 590.763 342.641C579.513 342.641 570.386 342.818 570.386 343.046Z" fill="#FAFAFA"/>
<path d="M568.49 366.685C568.49 366.912 578.047 367.013 589.803 366.912C601.559 366.811 611.141 366.558 611.141 366.331C611.141 366.103 601.584 366.002 589.803 366.103C578.021 366.204 568.49 366.457 568.49 366.685Z" fill="#FAFAFA"/>
<path d="M567.553 385.952C568.107 386.015 568.667 386.015 569.221 385.952H573.797C577.665 385.952 582.974 385.775 588.966 385.749C594.958 385.724 600.191 385.749 604.135 385.952H608.711C609.274 386.015 609.842 386.015 610.405 385.952C609.862 385.799 609.301 385.714 608.737 385.699L604.161 385.345C600.318 385.117 594.958 384.94 588.991 384.94C583.025 384.94 577.766 385.143 573.822 385.37C571.901 385.37 570.334 385.598 569.272 385.724C568.691 385.723 568.113 385.799 567.553 385.952V385.952Z" fill="#FAFAFA"/>
<path d="M567.858 401.499C567.858 401.727 577.262 401.904 588.867 401.904C600.471 401.904 609.876 401.727 609.876 401.499C609.876 401.272 600.471 401.069 588.867 401.069C577.262 401.069 567.858 401.272 567.858 401.499Z" fill="#FAFAFA"/>
<path d="M564.999 269.126C564.999 269.354 583.48 269.53 606.233 269.53C628.987 269.53 647.468 269.354 647.468 269.126C647.468 268.898 629.012 268.721 606.233 268.721C583.455 268.721 564.999 268.898 564.999 269.126Z" fill="#FAFAFA"/>
<path d="M567.2 272.106C567.2 272.106 568.161 272.258 569.728 272.89C571.953 273.84 573.869 275.389 575.265 277.364C577.299 280.309 578.448 283.774 578.577 287.351C578.695 291.756 578.356 296.162 577.566 300.497C576.206 308.426 574.417 316.275 572.206 324.009C571.397 326.891 570.765 329.268 570.259 331.063C569.971 331.883 569.767 332.73 569.653 333.591C570.02 332.773 570.324 331.927 570.563 331.063C571.119 329.42 571.877 327.018 572.762 324.06C575.156 316.348 577.031 308.485 578.375 300.523C579.191 296.131 579.513 291.662 579.335 287.199C579.173 283.491 577.925 279.913 575.746 276.909C574.251 274.896 572.205 273.359 569.855 272.485C569.215 272.266 568.554 272.113 567.883 272.03L567.2 272.106Z" fill="#263238"/>
<path d="M532.059 332.582C533.549 333.604 535.122 334.501 536.761 335.261C539.719 336.829 543.865 338.877 548.517 340.975C553.169 343.073 557.467 344.818 560.602 346.031C562.232 346.763 563.924 347.347 565.658 347.776C564.02 346.917 562.331 346.157 560.602 345.5C557.543 344.161 553.321 342.34 548.669 340.242C544.017 338.144 539.846 336.197 536.812 334.781C535.279 333.941 533.691 333.206 532.059 332.582V332.582Z" fill="#263238"/>
<path d="M632.833 416.843L518.231 420.888C509.305 421.237 500.87 425.064 494.728 431.55C488.587 438.037 485.226 446.669 485.365 455.6L490.017 619.097L534.285 617.631L530.999 464.398L632.833 461.718V416.843Z" fill="#263238"/>
<path d="M680.236 416.843L565.659 420.888C556.731 421.231 548.292 425.056 542.149 431.544C536.006 438.031 532.647 446.667 532.793 455.6L537.369 619.097L582.218 615.532L578.35 464.398L680.236 461.744V416.843Z" fill="#263238"/>
<path d="M594.404 476.183H605.679V611.238H594.404V476.183Z" fill="#455A64"/>
<path d="M700.257 345.096V444.504C700.257 450.766 697.77 456.772 693.341 461.2C688.913 465.629 682.907 468.117 676.644 468.117H610.431V345.096C610.438 342.304 611.552 339.629 613.528 337.658C615.504 335.686 618.182 334.579 620.974 334.579H689.715C692.507 334.579 695.184 335.686 697.161 337.658C699.137 339.629 700.251 342.304 700.257 345.096Z" fill="#455A64"/>
<path d="M521.339 476.18H682.561C682.561 471.54 680.717 467.09 677.436 463.809C674.156 460.528 669.706 458.685 665.066 458.685H538.834C534.194 458.685 529.744 460.528 526.463 463.809C523.182 467.09 521.339 471.54 521.339 476.18V476.18Z" fill="#455A64"/>
<path d="M610.433 456.359C610.405 456.611 610.405 456.866 610.433 457.118C610.427 457.85 610.512 458.58 610.686 459.292C611.306 461.959 612.834 464.327 615.009 465.992C616.493 467.135 618.225 467.914 620.065 468.267C622.181 468.497 624.31 468.573 626.436 468.494H640.923C651.212 468.494 660.516 468.494 667.241 468.494L675.23 468.368H677.379C677.885 468.368 678.137 468.368 678.137 468.368C677.886 468.335 677.631 468.335 677.379 468.368H675.23L667.241 468.216C660.516 468.216 651.212 468.09 640.923 468.065H626.436C624.354 468.157 622.267 468.107 620.192 467.913C618.422 467.626 616.747 466.915 615.312 465.84C613.188 464.293 611.647 462.075 610.938 459.545C610.483 457.421 610.534 456.359 610.433 456.359Z" fill="#263238"/>
<path d="M590.154 476.537C596.733 477.076 603.345 477.076 609.924 476.537C603.347 475.963 596.731 475.963 590.154 476.537Z" fill="#263238"/>
<path d="M541.185 468.978C541.646 467.433 541.976 465.852 542.171 464.251C542.702 461.192 543.435 456.666 544.295 451.256C544.896 444.84 546.402 438.541 548.77 432.547C550.363 429.118 552.375 425.899 554.761 422.966C557.352 419.855 560.374 417.131 563.736 414.876C567.087 412.591 570.76 410.819 574.633 409.617C578.237 408.482 581.98 407.844 585.757 407.721C593.038 407.544 599.712 407.569 605.249 407.468C610.786 407.367 615.362 407.291 618.421 407.215C620.037 407.243 621.652 407.133 623.25 406.887C621.654 406.624 620.037 406.514 618.421 406.558C615.311 406.558 610.836 406.381 605.249 406.305C599.662 406.229 593.088 406.103 585.706 406.179C581.785 406.265 577.896 406.904 574.152 408.075C570.12 409.293 566.299 411.126 562.826 413.51C559.324 415.848 556.181 418.684 553.497 421.929C551.039 424.982 548.982 428.338 547.379 431.915C547 432.775 546.696 433.635 546.368 434.444L545.887 435.708L545.534 436.997L544.826 439.525L544.371 442.053C543.814 445.315 543.511 448.323 543.132 451.079C542.424 456.59 541.868 461.065 541.539 464.15C541.257 465.743 541.139 467.361 541.185 468.978V468.978Z" fill="#455A64"/>
<path d="M550.742 623.445H552.335C553.024 611.192 558.377 599.668 567.296 591.237C576.214 582.806 588.022 578.109 600.294 578.109C612.567 578.109 624.374 582.806 633.292 591.237C642.211 599.668 647.564 611.192 648.254 623.445H649.897C649.897 610.303 644.676 597.7 635.383 588.407C626.091 579.114 613.487 573.893 600.345 573.893C587.203 573.893 574.599 579.114 565.306 588.407C556.013 597.7 550.793 610.303 550.793 623.445H550.742Z" fill="#455A64"/>
<path d="M641.603 625.924C641.603 627.394 642.039 628.831 642.856 630.053C643.672 631.276 644.833 632.228 646.191 632.791C647.55 633.353 649.044 633.501 650.486 633.214C651.928 632.927 653.252 632.219 654.292 631.18C655.331 630.14 656.039 628.816 656.326 627.374C656.613 625.932 656.465 624.437 655.903 623.079C655.34 621.721 654.388 620.56 653.165 619.744C651.943 618.927 650.506 618.491 649.036 618.491C647.064 618.491 645.174 619.274 643.78 620.668C642.386 622.062 641.603 623.952 641.603 625.924V625.924Z" fill="#263238"/>
<path d="M543.712 624.887C543.712 626.357 544.148 627.794 544.965 629.017C545.781 630.239 546.942 631.192 548.3 631.754C549.659 632.317 551.153 632.464 552.595 632.177C554.037 631.89 555.361 631.183 556.401 630.143C557.44 629.103 558.148 627.779 558.435 626.337C558.722 624.895 558.574 623.401 558.012 622.043C557.449 620.685 556.497 619.524 555.274 618.707C554.052 617.89 552.615 617.454 551.145 617.454C550.168 617.451 549.2 617.641 548.296 618.013C547.393 618.386 546.572 618.933 545.882 619.624C545.191 620.315 544.643 621.135 544.271 622.039C543.899 622.942 543.709 623.91 543.712 624.887V624.887Z" fill="#263238"/>
<path d="M551.298 611.211C551.298 611.464 572.863 611.641 599.333 611.641C625.803 611.641 647.52 611.464 647.52 611.211C647.52 610.958 625.955 610.806 599.333 610.806C572.711 610.806 551.298 610.983 551.298 611.211Z" fill="#455A64"/>
<path d="M406.433 253.222L323.205 299.285L326.34 305.175L408.809 258.202L406.433 253.222Z" fill="#4B4AA1"/>
<path d="M410.529 248.849L406.711 243.009L404.461 244.374L407.899 250.29L410.529 248.849Z" fill="#4B4AA1"/>
<path d="M332.661 292.006L328.388 294.483L342.344 383.374L348.917 383.475L332.661 292.006Z" fill="#4B4AA1"/>
<path d="M368.107 392.651C368.107 392.651 357.994 382.386 344.367 383.145C340.484 383.29 336.667 384.2 333.136 385.823C329.605 387.445 326.428 389.748 323.788 392.6L368.107 392.651Z" fill="#4B4AA1"/>
<path d="M410.454 289.173L443.321 270.136L433.815 253.677C431.292 249.307 427.137 246.118 422.264 244.809C417.391 243.501 412.197 244.181 407.825 246.7V246.7C405.66 247.955 403.765 249.625 402.247 251.614C400.729 253.603 399.619 255.873 398.98 258.292C398.342 260.711 398.187 263.233 398.524 265.712C398.862 268.191 399.686 270.58 400.948 272.74L410.454 289.173Z" fill="#4B4AA1"/>
</g>
<defs>
<filter id="filter0_d" x="0" y="0" width="1031.33" height="641.762" filterUnits="userSpaceOnUse" color-interpolation-filters="sRGB">
<feFlood flood-opacity="0" result="BackgroundImageFix"/>
<feColorMatrix in="SourceAlpha" type="matrix" values="0 0 0 0 0 0 0 0 0 0 0 0 0 0 0 0 0 0 127 0"/>
<feOffset dy="4"/>
<feGaussianBlur stdDeviation="2"/>
<feColorMatrix type="matrix" values="0 0 0 0 0 0 0 0 0 0 0 0 0 0 0 0 0 0 0.25 0"/>
<feBlend mode="normal" in2="BackgroundImageFix" result="effect1_dropShadow"/>
<feBlend mode="normal" in="SourceGraphic" in2="effect1_dropShadow" result="shape"/>
</filter>
</defs>
</svg>
