<svg width="670" height="505" viewBox="0 0 670 505" fill="none" xmlns="http://www.w3.org/2000/svg">
<path style="mix-blend-mode:multiply" opacity="0.48" d="M271.858 386.366C271.858 385.811 272.219 385.256 273.008 384.778L384.067 320.663C385.478 319.853 387.61 319.764 388.832 320.469L396.9 325.128L398.383 325.966L401.543 324.145C401.974 323.903 402.456 323.766 402.95 323.744C403.444 323.723 403.936 323.819 404.386 324.023L531.888 397.661C532.621 398.083 532.526 398.816 531.688 399.327L528.528 401.148L538.068 406.651C538.305 406.758 538.506 406.929 538.65 407.145C538.793 407.361 538.873 407.613 538.879 407.873V407.873V415.975C538.879 416.53 538.49 417.085 537.718 417.541L426.659 481.655C425.831 482.104 424.902 482.336 423.96 482.327H423.843C423.164 482.329 422.495 482.165 421.894 481.85L272.669 395.662C272.437 395.557 272.238 395.391 272.093 395.182C271.948 394.973 271.863 394.728 271.847 394.473V386.366H271.858Z" fill="url(#paint0_linear)"/>
<path d="M310.552 138.415L312.112 139.386L456.251 227.268L462.82 226.118L465.324 224.575C464.977 223.701 464.368 222.956 463.581 222.442L314.317 136.255C314.132 136.129 313.921 136.047 313.699 136.015C313.478 135.983 313.252 136.002 313.039 136.071L312.356 136.71L310.552 138.415Z" fill="#F5F5F5"/>
<path d="M462.818 226.118L465.322 224.575C465.624 225.232 465.786 225.945 465.8 226.668V354.892C465.839 355.238 465.786 355.587 465.645 355.905C465.505 356.224 465.282 356.499 465 356.702L462.907 358.812L462.757 356.086L456.243 236.269L462.818 226.118Z" fill="#E0E0E0"/>
<path d="M312.143 138.431L461.435 224.613C462.657 225.319 463.656 227.212 463.656 228.839V357.063C463.656 358.69 462.668 359.44 461.435 358.729L312.165 272.547C310.944 271.841 309.944 269.953 309.944 268.326V140.103C309.933 138.476 310.922 137.72 312.143 138.431Z" fill="#EEEEEE"/>
<path d="M461.437 355.858C461.464 355.858 461.492 355.858 461.492 355.819V227.59C461.491 227.57 461.485 227.551 461.475 227.534C461.466 227.517 461.452 227.502 461.437 227.49L312.167 141.308C312.134 141.308 312.112 141.308 312.112 141.352V269.576C312.111 269.596 312.116 269.616 312.126 269.633C312.136 269.651 312.15 269.665 312.167 269.676L461.437 355.858Z" fill="#434343"/>
<path d="M456.246 239.268V338.117L317.316 257.904V159.055L456.246 239.268Z" fill="#9E22E9"/>
<path d="M385.442 191.029C385.451 191.529 385.576 192.02 385.808 192.463C386.041 192.905 386.374 193.287 386.781 193.578C387.514 194 388.113 193.55 388.113 192.567C388.105 192.068 387.98 191.577 387.749 191.135C387.518 190.692 387.186 190.31 386.781 190.018C386.042 189.574 385.442 190.03 385.442 191.029Z" fill="#616261"/>
<path d="M456.246 244.382V239.268L317.316 159.055V164.169L456.246 244.382Z" fill="#FAFBFB"/>
<path d="M456.246 244.382V239.267L448.566 234.831V239.945L456.246 244.382Z" fill="#E0E0E0"/>
<g style="mix-blend-mode:soft-light">
<path d="M359.377 271.397L414.18 303.033V313.828L359.377 282.187V271.397Z" fill="white"/>
</g>
<path d="M405.38 306.847L410.633 309.879V302.883L405.38 299.851V306.847Z" fill="white"/>
<path d="M398.303 302.766L403.551 305.798V298.796L398.303 295.764V302.766Z" fill="#413D68"/>
<path d="M391.229 298.679L396.477 301.711V294.714L391.229 291.682V298.679Z" fill="#4B4AA1"/>
<path d="M384.155 294.598L389.402 297.624V290.627L384.155 287.595V294.598Z" fill="#AC65A9"/>
<path d="M377.081 290.511L382.328 293.543V286.541L377.081 283.514V290.511Z" fill="#E9BAC9"/>
<path d="M370.006 286.424L375.254 289.455V282.459L370.006 279.427V286.424Z" fill="#9E22E9"/>
<path d="M362.932 282.342L368.18 285.374V278.372L362.932 275.34V282.342Z" fill="#B156EE"/>
<path d="M321.529 180.184L327.582 183.677V175.609L321.529 172.116V180.184Z" fill="#FAFBFB"/>
<path d="M321.529 193.317L327.582 196.81V188.747L321.529 185.254V193.317Z" fill="#FAFBFB"/>
<path d="M333.407 244.732L380.707 272.041V223.925L333.407 196.615V244.732Z" fill="#EEEEEE"/>
<path d="M333.407 202.69L380.707 230V223.925L333.407 196.615V202.69Z" fill="#FAFBFB"/>
<path d="M371.795 224.852L380.707 230V223.925L371.795 218.777V224.852Z" fill="#E0E0E0"/>
<path d="M397.406 270.486L453.402 302.816V248.252L397.406 215.923V270.486Z" fill="#EEEEEE"/>
<path d="M397.406 220.887L453.402 253.211V248.252L397.406 215.923V220.887Z" fill="#FAFBFB"/>
<path d="M446.111 249.008L453.402 253.211V248.253L446.111 244.043V249.008Z" fill="#E0E0E0"/>
<path d="M345.128 428.552V436.682H345.245C346.187 436.693 347.117 436.461 347.944 436.01L459.003 371.901C459.775 371.451 460.175 370.868 460.164 370.329V362.233L453.572 365.82L346.261 424.126L345.128 428.552Z" fill="#E0E0E0"/>
<path d="M193.087 340.737V348.845C193.104 349.098 193.189 349.342 193.334 349.55C193.479 349.758 193.678 349.923 193.909 350.028L343.156 436.21C343.758 436.524 344.427 436.686 345.105 436.682V414.47L206.281 340.315L204.971 339.616L193.087 340.737Z" fill="#EEEEEE"/>
<path d="M310.063 274.835L459.332 361.017C460.554 361.722 460.399 362.95 458.988 363.794L347.929 427.908C346.518 428.719 344.386 428.808 343.164 428.103L193.895 341.921C192.673 341.215 192.823 339.988 194.233 339.172L305.293 275.057C306.709 274.219 308.841 274.13 310.063 274.835Z" fill="#F5F5F5"/>
<path d="M451.258 356.358L448.109 358.174C446.549 359.073 444.189 359.173 442.834 358.39L314.593 284.364C313.239 283.586 313.411 282.22 314.971 281.321L318.131 279.494L451.258 356.358Z" fill="#BDBDBD"/>
<path d="M311.183 286.918L438.402 360.395C439.207 360.861 439.107 361.678 438.174 362.216L382.644 394.268C382.165 394.535 381.631 394.686 381.083 394.709C380.535 394.732 379.99 394.627 379.49 394.401L252.288 320.924C251.477 320.458 251.577 319.641 252.51 319.103L308.04 287.051C308.517 286.786 309.05 286.636 309.596 286.613C310.141 286.589 310.685 286.694 311.183 286.918V286.918Z" fill="#E0E0E0"/>
<path d="M423.861 355.847L433.051 361.15L429.269 363.333L420.085 358.029L423.861 355.847Z" fill="#616261"/>
<path d="M418.94 360.178L426.836 364.737L417.168 370.318L409.266 365.759L418.94 360.178Z" fill="#616261"/>
<path d="M405.633 363.66L397.737 359.101L407.404 353.521L415.301 358.08L405.633 363.66Z" fill="#616261"/>
<path d="M394.102 357.002L386.205 352.443L395.873 346.862L403.77 351.421L394.102 357.002Z" fill="#616261"/>
<path d="M384.338 340.204L392.234 344.763L382.567 350.344L374.67 345.785L384.338 340.204Z" fill="#616261"/>
<path d="M372.811 333.546L380.707 338.105L371.039 343.686L363.137 339.127L372.811 333.546Z" fill="#616261"/>
<path d="M361.276 326.888L369.172 331.447L359.504 337.028L351.608 332.469L361.276 326.888Z" fill="#616261"/>
<path d="M347.973 330.37L340.077 325.811L349.744 320.23L357.641 324.789L347.973 330.37Z" fill="#616261"/>
<path d="M336.44 323.712L328.544 319.153L338.211 313.572L346.113 318.131L336.44 323.712Z" fill="#616261"/>
<path d="M324.91 317.054L317.008 312.495L326.682 306.914L334.578 311.473L324.91 317.054Z" fill="#616261"/>
<path d="M313.375 310.396L293.945 299.179L303.613 293.598L323.043 304.815L313.375 310.396Z" fill="#616261"/>
<path d="M405.063 377.304L385.633 366.087L395.301 360.506L414.73 371.723L405.063 377.304Z" fill="#616261"/>
<path d="M382 363.987L374.104 359.428L383.772 353.848L391.668 358.407L382 363.987Z" fill="#616261"/>
<path d="M372.24 347.19L380.137 351.749L370.469 357.33L362.573 352.771L372.24 347.19Z" fill="#616261"/>
<path d="M360.705 340.532L368.602 345.091L358.934 350.671L351.037 346.113L360.705 340.532Z" fill="#616261"/>
<path d="M349.172 333.874L357.074 338.433L347.401 344.014L339.505 339.455L349.172 333.874Z" fill="#616261"/>
<path d="M335.871 337.356L327.969 332.797L337.643 327.216L345.539 331.775L335.871 337.356Z" fill="#616261"/>
<path d="M324.34 330.697L316.444 326.138L326.111 320.558L334.008 325.117L324.34 330.697Z" fill="#616261"/>
<path d="M312.805 324.04L304.909 319.481L314.576 313.9L322.473 318.459L312.805 324.04Z" fill="#616261"/>
<path d="M394.733 374.149L402.629 378.708L392.961 384.295L385.065 379.736L394.733 374.149Z" fill="#616261"/>
<path d="M381.43 377.637L373.534 373.078L383.201 367.492L391.098 372.051L381.43 377.637Z" fill="#616261"/>
<path d="M369.895 370.979L361.998 366.42L371.666 360.833L379.562 365.393L369.895 370.979Z" fill="#616261"/>
<path d="M360.139 354.175L368.035 358.734L358.362 364.321L350.466 359.762L360.139 354.175Z" fill="#616261"/>
<path d="M348.604 347.518L356.5 352.077L346.832 357.663L338.93 353.104L348.604 347.518Z" fill="#616261"/>
<path d="M337.072 340.859L344.969 345.418L335.301 351.005L327.405 346.446L337.072 340.859Z" fill="#616261"/>
<path d="M323.766 344.346L315.87 339.782L325.537 334.201L333.434 338.76L323.766 344.346Z" fill="#616261"/>
<path d="M312.239 337.689L304.337 333.124L314.004 327.543L321.906 332.102L312.239 337.689Z" fill="#616261"/>
<path d="M300.707 331.031L292.811 326.466L302.479 320.886L310.375 325.445L300.707 331.031Z" fill="#616261"/>
<path d="M289.172 324.373L281.276 319.808L290.943 314.228L298.84 318.787L289.172 324.373Z" fill="#616261"/>
<path d="M380.856 391.281L361.426 380.064L371.099 374.483L390.523 385.7L380.856 391.281Z" fill="#616261"/>
<path d="M357.797 377.964L349.901 373.405L359.568 367.825L367.465 372.384L357.797 377.964Z" fill="#616261"/>
<path d="M300.133 344.675L292.237 340.116L301.904 334.529L309.801 339.094L300.133 344.675Z" fill="#616261"/>
<path d="M288.602 338.016L280.705 333.457L290.373 327.871L298.27 332.436L288.602 338.016Z" fill="#616261"/>
<path d="M277.071 331.358L257.641 320.141L267.308 314.555L286.738 325.778L277.071 331.358Z" fill="#616261"/>
<path d="M346.262 371.306L303.771 346.773L313.438 341.187L355.93 365.726L346.262 371.306Z" fill="#616261"/>
<path d="M416.597 356.014L407.413 350.711L411.194 348.528L420.379 353.831L416.597 356.014Z" fill="#616261"/>
<path d="M403.931 348.7L394.741 343.397L398.522 341.215L407.707 346.518L403.931 348.7Z" fill="#616261"/>
<path d="M385.851 333.902L395.035 339.205L391.259 341.387L382.075 336.084L385.851 333.902Z" fill="#616261"/>
<path d="M373.183 326.583L382.367 331.886L378.586 334.068L369.401 328.765L373.183 326.583Z" fill="#616261"/>
<path d="M360.511 319.27L369.695 324.573L365.919 326.755L356.729 321.452L360.511 319.27Z" fill="#616261"/>
<path d="M347.839 311.957L357.023 317.26L353.247 319.442L344.057 314.139L347.839 311.957Z" fill="#616261"/>
<path d="M335.165 304.637L344.355 309.94L340.574 312.123L331.389 306.82L335.165 304.637Z" fill="#616261"/>
<path d="M322.499 297.324L331.684 302.627L327.902 304.81L318.717 299.507L322.499 297.324Z" fill="#616261"/>
<path d="M319.012 295.314L315.236 297.496L306.045 292.193L309.827 290.011L319.012 295.314Z" fill="#616261"/>
<path d="M301.272 317.382L289.744 310.724L277.639 317.715L269.742 313.15L291.515 300.584L310.945 311.801L301.272 317.382Z" fill="#616261"/>
<path d="M391.254 401.154L382.458 396.078L441.358 362.072L450.148 367.147L391.254 401.154Z" fill="#EEEEEE"/>
<path d="M249.33 319.214L240.54 314.139L299.44 280.138L308.23 285.213L249.33 319.214Z" fill="#EEEEEE"/>
<path d="M287.071 345.402L337.109 374.277C338.22 374.91 338.07 376.026 336.798 376.759L301.609 397.078C300.337 397.811 298.411 397.889 297.311 397.255L247.273 368.38C246.163 367.747 246.313 366.636 247.584 365.898L282.773 345.585C284.073 344.846 286 344.747 287.071 345.402Z" fill="#E0E0E0"/>
<path d="M325.628 278.416L453.108 352.027C453.841 352.449 453.746 353.182 452.902 353.693L447.727 356.68C447.295 356.921 446.813 357.058 446.319 357.078C445.825 357.098 445.333 357.002 444.884 356.797L317.404 283.164C316.676 282.742 316.765 282.004 317.609 281.498L322.785 278.511C323.218 278.273 323.701 278.141 324.195 278.124C324.689 278.108 325.18 278.208 325.628 278.416Z" fill="#616261"/>
<path d="M445.747 377.964L454.543 372.883V368.108L445.747 373.189V377.964Z" fill="#757576"/>
<path d="M435.21 384.04L444.012 378.959V374.183L435.21 379.264V384.04Z" fill="#757576"/>
<path d="M416.962 393.324L421.305 390.819V388.459L416.962 390.969V393.324Z" fill="#757576"/>
<path d="M413.241 394.212C413.241 394.818 413.607 395.095 414.057 394.834C414.308 394.655 414.513 394.42 414.655 394.147C414.798 393.874 414.875 393.571 414.879 393.263C414.879 392.663 414.512 392.386 414.057 392.647C413.808 392.826 413.605 393.061 413.463 393.333C413.321 393.605 413.245 393.906 413.241 394.212V394.212Z" fill="#757576"/>
<path style="mix-blend-mode:multiply" opacity="0.48" d="M470.321 453.296C470.36 452.408 471.004 451.486 472.264 450.759L582.091 387.36C584.468 385.989 588.06 385.839 590.121 387.027L668.007 432.028C668.395 432.208 668.726 432.49 668.966 432.845C669.206 433.199 669.344 433.611 669.367 434.039V434.039V437.542C669.367 438.453 668.706 439.419 667.407 440.163L557.652 503.534C556.305 504.262 554.797 504.643 553.266 504.645C552.006 504.705 550.753 504.431 549.634 503.851L471.72 458.871C471.325 458.691 470.986 458.405 470.742 458.046C470.497 457.687 470.355 457.267 470.332 456.833V453.268L470.321 453.296Z" fill="url(#paint1_linear)"/>
<path d="M412.987 420.367V423.932C413.011 424.367 413.154 424.786 413.4 425.145C413.645 425.504 413.984 425.79 414.38 425.97L492.289 470.949C493.41 471.531 494.664 471.807 495.926 471.749V471.749V468.245L495.37 466.524L417.845 423.088L412.987 420.367Z" fill="#EEEEEE"/>
<path d="M495.933 468.256V471.76C497.463 471.759 498.968 471.377 500.314 470.65L610.124 407.234C611.423 406.485 612.09 405.524 612.09 404.608V401.104L604.082 402.215L596.864 403.203L495.933 468.256Z" fill="#E0E0E0"/>
<path d="M414.953 417.846L524.74 354.448C527.117 353.076 530.71 352.926 532.765 354.114L610.678 399.094C612.739 400.282 612.478 402.353 610.123 403.725L500.307 467.129C497.931 468.5 494.338 468.65 492.283 467.462L414.369 422.483C412.32 421.289 412.57 419.218 414.953 417.846Z" fill="#EEEEEE"/>
<path d="M491.873 462.659L602.383 398.861L533.209 358.918L422.7 422.722L491.873 462.659Z" fill="#9E22E9"/>
<path d="M468.466 390.436L477.29 385.339C477.627 385.151 478.004 385.045 478.39 385.03C478.776 385.014 479.16 385.09 479.511 385.25C480.066 385.578 480.011 386.15 479.355 386.533L470.532 391.625C470.195 391.812 469.818 391.919 469.432 391.935C469.047 391.952 468.663 391.878 468.311 391.719V391.719C467.733 391.392 467.805 390.814 468.466 390.436Z" fill="#E0E0E0"/>
<path d="M548.062 434.905C549.561 435.765 552.177 435.66 553.909 434.66C555.642 433.661 555.825 432.15 554.326 431.284C552.826 430.418 550.211 430.529 548.484 431.528C546.757 432.528 546.546 434.038 548.062 434.905Z" fill="#E0E0E0"/>
<path d="M476.129 444.139L567.809 391.208V313.111L476.129 366.042V444.139Z" fill="#EEEEEE"/>
<path d="M559.414 353.365L561.469 352.176V349.805L559.414 350.994V353.365Z" fill="#E9BAC9"/>
<path d="M550.567 358.468L558.297 354.009V351.638L550.567 356.097V358.468Z" fill="#BDBDBD"/>
<path d="M547.141 360.451L549.195 359.268V356.891L547.141 358.079V360.451Z" fill="#AB6CAD"/>
<path d="M538.294 365.554L546.023 361.095V358.724L538.294 363.183V365.554Z" fill="#BDBDBD"/>
<path d="M534.869 367.536L536.918 366.353V363.982L534.869 365.165V367.536Z" fill="#E9BAC9"/>
<path d="M526.022 372.645L533.746 368.18V365.809L526.022 370.268V372.645Z" fill="#BDBDBD"/>
<path d="M537.919 349.378L561.469 335.784V331.925L537.919 345.519V349.378Z" fill="#413D68"/>
<path d="M546.77 350.027L561.469 341.542V337.683L546.77 346.168V350.027Z" fill="#4B4AA1"/>
<path d="M553.367 351.977L561.469 347.301V343.442L553.367 348.118V351.977Z" fill="#AC65A9"/>
<path d="M559.414 380.902L561.469 379.714V377.343L559.414 378.531V380.902Z" fill="#E9BAC9"/>
<path d="M550.567 386.005L558.297 381.546V379.175L550.567 383.634V386.005Z" fill="#BDBDBD"/>
<path d="M547.141 387.988L549.195 386.805V384.428L547.141 385.617V387.988Z" fill="#AB6CAD"/>
<path d="M538.294 393.096L546.023 388.632V386.261L538.294 390.72V393.096Z" fill="#BDBDBD"/>
<path d="M534.869 395.073L536.918 393.89V391.519L534.869 392.702V395.073Z" fill="#E9BAC9"/>
<path d="M526.022 400.182L533.746 395.723V393.346L526.022 397.811V400.182Z" fill="#BDBDBD"/>
<path d="M546.026 372.239L561.469 363.321V359.462L546.026 368.38V372.239Z" fill="#413D68"/>
<path d="M539.079 382.007L561.469 369.08V365.22L539.079 378.148V382.007Z" fill="#4B4AA1"/>
<path d="M549.696 381.635L561.469 374.838V370.979L549.696 377.776V381.635Z" fill="#AC65A9"/>
<path d="M515.867 378.509L517.922 377.32V374.949L515.867 376.132V378.509Z" fill="#413D68"/>
<path d="M507.02 383.612L514.75 379.153V376.782L507.02 381.241V383.612Z" fill="#BDBDBD"/>
<path d="M503.595 385.594L505.645 384.406V382.035L503.595 383.223V385.594Z" fill="#4B4AA1"/>
<path d="M494.748 390.697L502.473 386.238V383.867L494.748 388.326V390.697Z" fill="#BDBDBD"/>
<path d="M491.316 392.68L493.371 391.492V389.121L491.316 390.309V392.68Z" fill="#E9BAC9"/>
<path d="M482.469 397.788L490.199 393.324V390.953L482.469 395.412V397.788Z" fill="#BDBDBD"/>
<path d="M512.03 364.327L517.922 360.928V357.069L512.03 360.467V364.327Z" fill="#413D68"/>
<path d="M498.609 377.831L517.922 366.686V362.827L498.609 373.972V377.831Z" fill="#4B4AA1"/>
<path d="M492.345 387.21L517.922 372.445V368.585L492.345 383.351V387.21Z" fill="#AC65A9"/>
<path d="M476.129 373.206L567.809 320.275V313.111L476.129 366.042V373.206Z" fill="#FAFBFB"/>
<path d="M558.296 325.767L567.809 320.275V313.111L558.296 318.603V325.767Z" fill="#E0E0E0"/>
<path style="mix-blend-mode:multiply" opacity="0.48" d="M201.001 362.422C201.021 362.017 201.151 361.626 201.377 361.291C201.603 360.955 201.917 360.687 202.284 360.517L233.02 342.747C234.958 341.637 238.339 341.77 240.577 343.058L313.771 385.333C315.021 386.055 315.626 386.999 315.592 387.86V392.302C315.583 392.586 315.512 392.864 315.386 393.118C315.259 393.371 315.08 393.595 314.859 393.774C314.688 393.927 314.502 394.062 314.304 394.179L283.563 411.949C283.318 412.086 283.061 412.203 282.797 412.298C282.663 412.343 282.524 412.376 282.386 412.415C282.247 412.454 282.091 412.504 281.93 412.537C281.769 412.571 281.558 412.593 281.375 412.621L281.009 412.671C280.803 412.671 280.592 412.671 280.381 412.671H280.087C278.662 412.655 277.262 412.291 276.011 411.61L202.834 369.363C201.595 368.647 200.968 367.73 200.985 366.858V362.416L201.001 362.422Z" fill="url(#paint2_linear)"/>
<path d="M281.397 371.184V371.317L209.603 329.853C207.381 328.559 203.983 328.421 202.045 329.537L172.614 346.534L172.997 344.691H169.999V349.133C169.999 349.999 170.61 350.916 171.848 351.632L245.031 393.924C247.252 395.212 250.65 395.356 252.588 394.234L283.33 376.465C283.696 376.299 284.01 376.037 284.239 375.706C284.468 375.376 284.602 374.989 284.629 374.588V374.588V370.146L281.397 371.184Z" fill="#EEEEEE"/>
<path d="M281.395 371.184L284.633 370.157V374.599C284.606 375 284.472 375.387 284.243 375.717C284.014 376.048 283.7 376.31 283.333 376.476L252.592 394.246C251.518 394.798 250.317 395.057 249.11 394.995V355.086H253.27L281.384 371.317L281.395 371.184Z" fill="#E0E0E0"/>
<path d="M202.045 325.072L171.31 342.842C169.372 343.952 169.644 345.913 171.865 347.206L245.031 389.431C247.252 390.725 250.651 390.864 252.589 389.748L283.33 371.978C285.262 370.868 284.996 368.907 282.775 367.614L209.603 325.411C207.365 324.095 203.983 323.956 202.045 325.072Z" fill="#F5F5F5"/>
<path d="M192.056 334.296L187.303 337.039C187.009 337.211 187.048 337.511 187.386 337.711C187.563 337.808 187.76 337.862 187.961 337.87C188.163 337.878 188.363 337.838 188.547 337.755L193.3 335.012C193.594 334.84 193.561 334.54 193.217 334.346C193.041 334.247 192.844 334.191 192.643 334.182C192.441 334.173 192.24 334.212 192.056 334.296Z" fill="#BDBDBD"/>
<path d="M195.32 333.141C195.664 333.335 195.703 333.635 195.403 333.807C195.221 333.891 195.021 333.93 194.821 333.922C194.62 333.914 194.424 333.86 194.248 333.763C193.904 333.563 193.865 333.263 194.165 333.091C194.348 333.008 194.548 332.969 194.749 332.977C194.949 332.986 195.145 333.042 195.32 333.141V333.141Z" fill="#BDBDBD"/>
<path d="M185.28 338.938C184.936 338.738 184.903 338.439 185.197 338.266C185.381 338.183 185.582 338.144 185.783 338.153C185.985 338.161 186.182 338.217 186.358 338.316C186.702 338.516 186.735 338.816 186.441 338.983C186.257 339.066 186.057 339.105 185.855 339.097C185.654 339.09 185.457 339.035 185.28 338.938V338.938Z" fill="#BDBDBD"/>
<path d="M266.498 377.531C267.875 378.331 268.025 379.536 266.831 380.224C265.637 380.913 263.549 380.824 262.172 380.03C260.795 379.236 260.645 378.031 261.839 377.337C263.032 376.643 265.115 376.737 266.498 377.531Z" fill="#BDBDBD"/>
<path d="M215.906 332.114L183.505 350.822L177.73 347.484L210.126 328.776L215.906 332.114Z" fill="#3374BA"/>
<path d="M205.343 333.219L185.419 344.724C184.736 345.119 184.819 345.835 185.613 346.268C186.019 346.494 186.472 346.621 186.935 346.64C187.399 346.66 187.861 346.57 188.284 346.379L208.219 334.851C208.908 334.457 208.819 333.741 208.03 333.307C207.621 333.084 207.164 332.959 206.697 332.944C206.23 332.928 205.767 333.022 205.343 333.219V333.219Z" fill="#2B66B1"/>
<path d="M211.773 331.164C212.561 331.619 212.65 332.308 211.961 332.708C211.538 332.899 211.076 332.988 210.613 332.969C210.149 332.95 209.696 332.822 209.29 332.597C208.496 332.136 208.413 331.447 209.096 331.053C209.52 330.862 209.983 330.772 210.447 330.792C210.912 330.811 211.366 330.938 211.773 331.164V331.164Z" fill="white"/>
<path d="M181.854 348.434C182.261 348.66 182.714 348.787 183.179 348.806C183.644 348.826 184.107 348.736 184.531 348.545C185.214 348.151 185.13 347.434 184.336 347.001C183.93 346.776 183.478 346.648 183.014 346.629C182.55 346.61 182.088 346.699 181.665 346.89C180.982 347.285 181.066 347.979 181.854 348.434Z" fill="white"/>
<path d="M209.976 329.854L209.21 330.298C209.06 330.387 209.077 330.542 209.254 330.642L210.293 331.242C210.385 331.288 210.487 331.312 210.59 331.312C210.693 331.312 210.795 331.288 210.887 331.242L211.653 330.803C211.809 330.714 211.787 330.559 211.614 330.459L210.576 329.859C210.484 329.811 210.381 329.785 210.277 329.784C210.173 329.783 210.07 329.807 209.976 329.854V329.854Z" fill="#EF5451"/>
<path d="M224.312 336.967L191.911 355.675L183.504 350.821L215.905 332.113L224.312 336.967Z" fill="white"/>
<path d="M234.176 342.664L201.78 361.367L193.373 356.513L225.769 337.811L234.176 342.664Z" fill="white"/>
<path d="M256.41 355.502L224.014 374.205L203.235 362.21L235.636 343.502L256.41 355.502Z" fill="white"/>
<path d="M194 349.617C195.166 350.288 195.294 351.282 194.283 351.893C193.658 352.178 192.975 352.311 192.29 352.283C191.604 352.255 190.934 352.066 190.335 351.732C189.163 351.055 189.035 350.066 190.052 349.45C190.677 349.167 191.36 349.035 192.045 349.063C192.731 349.092 193.4 349.282 194 349.617V349.617Z" fill="#775CA7"/>
<path d="M203.382 355.586C204.742 356.375 204.892 357.563 203.71 358.241C202.527 358.918 200.478 358.835 199.117 358.052C197.757 357.269 197.607 356.075 198.784 355.397C199.961 354.72 202.021 354.803 203.382 355.586Z" fill="#EF5451"/>
<path d="M209.646 351.971C211.006 352.76 211.151 353.948 209.973 354.625C208.796 355.303 206.736 355.22 205.376 354.437C204.015 353.654 203.871 352.46 205.048 351.782C206.225 351.105 208.285 351.188 209.646 351.971Z" fill="#FFD54F"/>
<path d="M215.904 348.356C217.265 349.145 217.415 350.333 216.238 351.011C215.06 351.688 213 351.605 211.64 350.822C210.279 350.039 210.129 348.845 211.307 348.167C212.484 347.49 214.544 347.573 215.904 348.356Z" fill="#5AC7DA"/>
<path d="M222.169 344.741C223.53 345.53 223.674 346.718 222.497 347.395C221.32 348.073 219.26 347.99 217.899 347.207C216.539 346.424 216.394 345.23 217.571 344.552C218.749 343.875 220.809 343.958 222.169 344.741Z" fill="#9CCC65"/>
<path d="M228.428 341.126C229.788 341.914 229.938 343.103 228.761 343.78C227.584 344.458 225.524 344.374 224.163 343.591C222.803 342.808 222.653 341.614 223.83 340.937C225.007 340.26 227.067 340.343 228.428 341.126Z" fill="#FAA629"/>
<path d="M210.002 339.311L211.852 340.377L196.003 349.528L194.149 348.456L210.002 339.311Z" fill="#E0E0E0"/>
<path d="M223.875 364.104L216.739 368.225L208.504 363.471L215.634 359.351L223.875 364.104Z" fill="#EF5451"/>
<path d="M217.692 358.163L220.691 356.43L222.668 357.569L219.669 359.301L217.692 358.163Z" fill="#E0E0E0"/>
<path d="M222.284 355.508L229.475 351.354L231.457 352.498L224.26 356.652L222.284 355.508Z" fill="#E0E0E0"/>
<path d="M237.812 346.546L239.789 347.684L233.048 351.577L231.071 350.439L237.812 346.546Z" fill="#E0E0E0"/>
<path d="M221.481 360.345L228.822 356.108L230.793 357.252L223.452 361.489L221.481 360.345Z" fill="#E0E0E0"/>
<path d="M230.411 355.192L236.703 351.56L238.68 352.698L232.383 356.33L230.411 355.192Z" fill="#E0E0E0"/>
<path d="M241.599 348.734L243.57 349.872L240.266 351.782L238.295 350.639L241.599 348.734Z" fill="#E0E0E0"/>
<path d="M225.269 362.533L228.773 360.506L230.75 361.644L227.241 363.671L225.269 362.533Z" fill="#E0E0E0"/>
<path d="M239.8 354.142L241.777 355.28L232.343 360.728L230.366 359.59L239.8 354.142Z" fill="#E0E0E0"/>
<path d="M245.379 350.916L247.355 352.06L243.363 354.364L241.386 353.221L245.379 350.916Z" fill="#E0E0E0"/>
<path d="M239.266 361.1L231.025 365.859L229.048 364.715L237.289 359.956L239.266 361.1Z" fill="#E0E0E0"/>
<path d="M276.895 367.325L244.493 386.033L225.468 375.049L257.864 356.341L276.895 367.325Z" fill="white"/>
<path d="M246.109 376.943L238.974 381.063L230.739 376.304L237.869 372.189L246.109 376.943Z" fill="#FFD54F"/>
<path d="M239.927 370.996L242.925 369.269L244.902 370.407L241.904 372.139L239.927 370.996Z" fill="#E0E0E0"/>
<path d="M244.52 368.346L251.716 364.193L253.688 365.331L246.496 369.49L244.52 368.346Z" fill="#E0E0E0"/>
<path d="M260.047 359.384L262.023 360.523L255.282 364.415L253.305 363.271L260.047 359.384Z" fill="#E0E0E0"/>
<path d="M243.715 373.183L251.05 368.946L253.027 370.085L245.692 374.322L243.715 373.183Z" fill="#E0E0E0"/>
<path d="M252.646 368.03L258.937 364.393L260.914 365.537L254.617 369.169L252.646 368.03Z" fill="#E0E0E0"/>
<path d="M263.833 361.566L265.805 362.71L262.501 364.615L260.529 363.477L263.833 361.566Z" fill="#E0E0E0"/>
<path d="M247.504 375.366L251.008 373.344L252.984 374.483L249.475 376.509L247.504 375.366Z" fill="#E0E0E0"/>
<path d="M262.035 366.975L264.012 368.119L254.577 373.566L252.6 372.423L262.035 366.975Z" fill="#E0E0E0"/>
<path d="M267.617 363.754L269.594 364.893L265.601 367.203L263.624 366.059L267.617 363.754Z" fill="#E0E0E0"/>
<path d="M261.5 373.933L253.259 378.692L251.283 377.554L259.523 372.795L261.5 373.933Z" fill="#E0E0E0"/>
<path d="M276.895 367.325L244.493 386.033L238.368 382.496L270.764 363.788L276.895 367.325Z" fill="#EEEEEE"/>
<path d="M247.234 382.318L245.13 383.534L242.692 382.129L244.802 380.908L247.234 382.318Z" fill="#BDBDBD"/>
<path d="M255.684 377.443L253.573 378.659L251.141 377.254L253.246 376.038L255.684 377.443Z" fill="#BDBDBD"/>
<path d="M264.121 372.567L262.011 373.783L259.579 372.378L261.689 371.162L264.121 372.567Z" fill="#BDBDBD"/>
<path d="M270.458 368.908L272.562 367.692L270.13 366.287L268.02 367.503L270.458 368.908Z" fill="#BDBDBD"/>
<path d="M261.234 370.457L260.468 370.901C260.312 370.99 260.329 371.14 260.507 371.246L261.528 371.845C261.621 371.892 261.722 371.916 261.825 371.916C261.929 371.916 262.03 371.892 262.123 371.845L262.894 371.401C263.044 371.312 263.028 371.162 262.85 371.057L261.812 370.457C261.722 370.413 261.623 370.391 261.523 370.391C261.423 370.391 261.324 370.413 261.234 370.457V370.457Z" fill="#EF5451"/>
<path d="M256.408 355.503L224.012 374.205L225.467 375.049L257.863 356.341L256.408 355.503Z" fill="#EEEEEE"/>
<path d="M234.176 342.664L201.78 361.366L203.235 362.211L235.637 343.503L234.176 342.664Z" fill="#EEEEEE"/>
<path d="M224.315 336.967L191.913 355.675L193.373 356.513L225.77 337.811L224.315 336.967Z" fill="#EEEEEE"/>
<path d="M202.045 325.072L171.31 342.842C169.372 343.952 169.644 345.913 171.865 347.206L245.031 389.431C247.252 390.725 250.651 390.864 252.589 389.748L283.33 371.978C285.262 370.868 284.996 368.907 282.775 367.614L209.603 325.411C207.365 324.095 203.983 323.956 202.045 325.072Z" fill="#F5F5F5"/>
<path d="M192.056 334.296L187.303 337.039C187.009 337.211 187.048 337.511 187.386 337.711C187.563 337.808 187.76 337.862 187.961 337.87C188.163 337.878 188.363 337.838 188.547 337.755L193.3 335.012C193.594 334.84 193.561 334.54 193.217 334.346C193.041 334.247 192.844 334.191 192.643 334.182C192.441 334.173 192.24 334.212 192.056 334.296Z" fill="#BDBDBD"/>
<path d="M195.32 333.141C195.664 333.335 195.703 333.635 195.403 333.807C195.221 333.891 195.021 333.93 194.821 333.922C194.62 333.914 194.424 333.86 194.248 333.763C193.904 333.563 193.865 333.263 194.165 333.091C194.348 333.008 194.548 332.969 194.749 332.977C194.949 332.986 195.145 333.042 195.32 333.141V333.141Z" fill="#BDBDBD"/>
<path d="M185.28 338.938C184.936 338.738 184.903 338.439 185.197 338.266C185.381 338.183 185.582 338.144 185.783 338.153C185.985 338.161 186.182 338.217 186.358 338.316C186.702 338.516 186.735 338.816 186.441 338.983C186.257 339.066 186.057 339.105 185.855 339.097C185.654 339.09 185.457 339.035 185.28 338.938V338.938Z" fill="#BDBDBD"/>
<path d="M266.498 377.531C267.875 378.331 268.025 379.536 266.831 380.224C265.637 380.913 263.549 380.824 262.172 380.03C260.795 379.236 260.645 378.031 261.839 377.337C263.032 376.643 265.115 376.737 266.498 377.531Z" fill="#BDBDBD"/>
<path d="M215.906 332.114L183.505 350.822L177.73 347.484L210.126 328.776L215.906 332.114Z" fill="#413D68"/>
<path d="M205.343 333.219L185.419 344.724C184.736 345.119 184.819 345.835 185.613 346.268C186.019 346.494 186.472 346.621 186.935 346.64C187.399 346.66 187.861 346.57 188.284 346.379L208.219 334.851C208.908 334.457 208.819 333.741 208.03 333.307C207.621 333.084 207.164 332.959 206.697 332.944C206.23 332.928 205.767 333.022 205.343 333.219V333.219Z" fill="#4B4AA1"/>
<path d="M211.773 331.164C212.561 331.619 212.65 332.308 211.961 332.708C211.538 332.899 211.076 332.988 210.613 332.969C210.149 332.95 209.696 332.822 209.29 332.597C208.496 332.136 208.413 331.447 209.096 331.053C209.52 330.862 209.983 330.772 210.447 330.792C210.912 330.811 211.366 330.938 211.773 331.164V331.164Z" fill="white"/>
<path d="M181.854 348.434C182.261 348.66 182.714 348.787 183.179 348.806C183.644 348.826 184.107 348.736 184.531 348.545C185.214 348.151 185.13 347.434 184.336 347.001C183.93 346.776 183.478 346.648 183.014 346.629C182.55 346.61 182.088 346.699 181.665 346.89C180.982 347.285 181.066 347.979 181.854 348.434Z" fill="white"/>
<path d="M209.976 329.854L209.21 330.298C209.06 330.387 209.077 330.542 209.254 330.642L210.293 331.242C210.385 331.288 210.487 331.312 210.59 331.312C210.693 331.312 210.795 331.288 210.887 331.242L211.653 330.803C211.809 330.714 211.787 330.559 211.614 330.459L210.576 329.859C210.484 329.811 210.381 329.785 210.277 329.784C210.173 329.783 210.07 329.807 209.976 329.854V329.854Z" fill="#EF5451"/>
<path d="M224.312 336.967L191.911 355.675L183.504 350.821L215.905 332.113L224.312 336.967Z" fill="white"/>
<path d="M234.176 342.664L201.78 361.367L193.373 356.513L225.769 337.811L234.176 342.664Z" fill="white"/>
<path d="M256.41 355.502L224.014 374.205L203.235 362.21L235.636 343.502L256.41 355.502Z" fill="white"/>
<path d="M194 349.617C195.166 350.288 195.294 351.282 194.283 351.893C193.658 352.178 192.975 352.311 192.29 352.283C191.604 352.255 190.934 352.066 190.335 351.732C189.163 351.055 189.035 350.066 190.052 349.45C190.677 349.167 191.36 349.035 192.045 349.063C192.731 349.092 193.4 349.282 194 349.617V349.617Z" fill="#AC65A9"/>
<path d="M203.382 355.586C204.742 356.375 204.892 357.563 203.71 358.241C202.527 358.918 200.478 358.835 199.117 358.052C197.757 357.269 197.607 356.075 198.784 355.397C199.961 354.72 202.021 354.803 203.382 355.586Z" fill="#9E22E9"/>
<path d="M209.646 351.971C211.006 352.76 211.151 353.948 209.973 354.625C208.796 355.303 206.736 355.22 205.376 354.437C204.015 353.654 203.871 352.46 205.048 351.782C206.225 351.105 208.285 351.188 209.646 351.971Z" fill="#B156EE"/>
<path d="M215.904 348.356C217.265 349.145 217.415 350.333 216.238 351.011C215.06 351.688 213 351.605 211.64 350.822C210.279 350.039 210.129 348.845 211.307 348.167C212.484 347.49 214.544 347.573 215.904 348.356Z" fill="#BA6BF0"/>
<path d="M222.169 344.741C223.53 345.53 223.674 346.718 222.497 347.395C221.32 348.073 219.26 347.99 217.899 347.207C216.539 346.424 216.394 345.23 217.571 344.552C218.749 343.875 220.809 343.958 222.169 344.741Z" fill="#25272E"/>
<path d="M228.428 341.126C229.788 341.914 229.938 343.103 228.761 343.78C227.584 344.458 225.524 344.374 224.163 343.591C222.803 342.808 222.653 341.614 223.83 340.937C225.007 340.26 227.067 340.343 228.428 341.126Z" fill="#4B4AA1"/>
<path d="M210.002 339.311L211.852 340.377L196.003 349.528L194.149 348.456L210.002 339.311Z" fill="#E0E0E0"/>
<path d="M223.875 364.104L216.739 368.225L208.504 363.471L215.634 359.351L223.875 364.104Z" fill="#413D68"/>
<path d="M217.692 358.163L220.691 356.43L222.668 357.569L219.669 359.301L217.692 358.163Z" fill="#E0E0E0"/>
<path d="M222.284 355.508L229.475 351.354L231.457 352.498L224.26 356.652L222.284 355.508Z" fill="#E0E0E0"/>
<path d="M237.812 346.546L239.789 347.684L233.048 351.577L231.071 350.439L237.812 346.546Z" fill="#E0E0E0"/>
<path d="M221.481 360.345L228.822 356.108L230.793 357.252L223.452 361.489L221.481 360.345Z" fill="#E0E0E0"/>
<path d="M230.411 355.192L236.703 351.56L238.68 352.698L232.383 356.33L230.411 355.192Z" fill="#E0E0E0"/>
<path d="M241.599 348.734L243.57 349.872L240.266 351.782L238.295 350.639L241.599 348.734Z" fill="#E0E0E0"/>
<path d="M225.269 362.533L228.773 360.506L230.75 361.644L227.241 363.671L225.269 362.533Z" fill="#E0E0E0"/>
<path d="M239.8 354.142L241.777 355.28L232.343 360.728L230.366 359.59L239.8 354.142Z" fill="#E0E0E0"/>
<path d="M245.379 350.916L247.355 352.06L243.363 354.364L241.386 353.221L245.379 350.916Z" fill="#E0E0E0"/>
<path d="M239.266 361.1L231.025 365.859L229.048 364.715L237.289 359.956L239.266 361.1Z" fill="#E0E0E0"/>
<path d="M276.895 367.325L244.493 386.033L225.468 375.049L257.864 356.341L276.895 367.325Z" fill="white"/>
<path d="M246.109 376.943L238.974 381.063L230.739 376.304L237.869 372.189L246.109 376.943Z" fill="#4B4AA1"/>
<path d="M239.927 370.996L242.925 369.269L244.902 370.407L241.904 372.139L239.927 370.996Z" fill="#E0E0E0"/>
<path d="M244.52 368.346L251.716 364.193L253.688 365.331L246.496 369.49L244.52 368.346Z" fill="#E0E0E0"/>
<path d="M260.047 359.384L262.023 360.523L255.282 364.415L253.305 363.271L260.047 359.384Z" fill="#E0E0E0"/>
<path d="M243.715 373.183L251.05 368.946L253.027 370.085L245.692 374.322L243.715 373.183Z" fill="#E0E0E0"/>
<path d="M252.646 368.03L258.937 364.393L260.914 365.537L254.617 369.169L252.646 368.03Z" fill="#E0E0E0"/>
<path d="M263.833 361.566L265.805 362.71L262.501 364.615L260.529 363.477L263.833 361.566Z" fill="#E0E0E0"/>
<path d="M247.504 375.366L251.008 373.344L252.984 374.483L249.475 376.509L247.504 375.366Z" fill="#E0E0E0"/>
<path d="M262.035 366.975L264.012 368.119L254.577 373.566L252.6 372.423L262.035 366.975Z" fill="#E0E0E0"/>
<path d="M267.617 363.754L269.594 364.893L265.601 367.203L263.624 366.059L267.617 363.754Z" fill="#E0E0E0"/>
<path d="M261.5 373.933L253.259 378.692L251.283 377.554L259.523 372.795L261.5 373.933Z" fill="#E0E0E0"/>
<path d="M276.895 367.325L244.493 386.033L238.368 382.496L270.764 363.788L276.895 367.325Z" fill="#EEEEEE"/>
<path d="M247.234 382.318L245.13 383.534L242.692 382.129L244.802 380.908L247.234 382.318Z" fill="#BDBDBD"/>
<path d="M255.684 377.443L253.573 378.659L251.141 377.254L253.246 376.038L255.684 377.443Z" fill="#BDBDBD"/>
<path d="M264.121 372.567L262.011 373.783L259.579 372.378L261.689 371.162L264.121 372.567Z" fill="#BDBDBD"/>
<path d="M270.458 368.908L272.562 367.692L270.13 366.287L268.02 367.503L270.458 368.908Z" fill="#BDBDBD"/>
<path d="M261.234 370.457L260.468 370.901C260.312 370.99 260.329 371.14 260.507 371.246L261.528 371.845C261.621 371.892 261.722 371.916 261.825 371.916C261.929 371.916 262.03 371.892 262.123 371.845L262.894 371.401C263.044 371.312 263.028 371.162 262.85 371.057L261.812 370.457C261.722 370.413 261.623 370.391 261.523 370.391C261.423 370.391 261.324 370.413 261.234 370.457V370.457Z" fill="#EF5451"/>
<path d="M256.408 355.503L224.012 374.205L225.467 375.049L257.863 356.341L256.408 355.503Z" fill="#EEEEEE"/>
<path d="M234.176 342.664L201.78 361.366L203.235 362.211L235.637 343.503L234.176 342.664Z" fill="#EEEEEE"/>
<path d="M224.315 336.967L191.913 355.675L193.373 356.513L225.77 337.811L224.315 336.967Z" fill="#EEEEEE"/>
<g opacity="0.6">
<path opacity="0.6" d="M113.147 298.439V303.06L108.388 305.856V300.911C108.388 296.29 106.786 294.372 103.143 296.475C99.5001 298.578 97.8982 302.313 97.8982 306.965V334.29C97.8982 338.911 99.5618 340.79 103.143 338.718C106.724 336.647 108.388 332.857 108.388 328.19V321.467L113.117 318.733V325.156C113.117 332.988 109.92 340.004 103.012 343.986C96.1037 347.968 93 344.618 93 336.785V310.068C93 302.244 96.1962 295.22 103.012 291.276C109.828 287.333 113.147 290.614 113.147 298.439Z" fill="url(#paint3_linear)"/>
<path opacity="0.6" d="M137.079 284.553V285.954L132.357 288.681V286.986C132.357 282.365 130.817 280.486 127.236 282.558C123.655 284.63 122.122 288.242 122.122 292.817C122.122 304.415 137.148 296.845 137.148 311.393C137.148 319.225 133.882 326.203 127.043 330.154C120.204 334.105 117.031 330.855 117.031 323.03V320.073L121.706 317.377V320.627C121.706 325.248 123.37 327.05 126.951 324.978C130.532 322.907 132.188 319.225 132.188 314.566C132.188 303.013 117.224 310.584 117.224 296.036C117.224 288.057 120.42 281.264 127.143 277.383C133.867 273.501 137.079 276.72 137.079 284.553Z" fill="url(#paint4_linear)"/>
<path opacity="0.6" d="M160.891 270.806V272.207L156.139 274.941V273.239C156.139 268.618 154.598 266.747 151.025 268.811C147.451 270.875 145.911 274.495 145.911 279.077C145.911 290.668 160.937 283.105 160.937 297.653C160.937 305.478 157.671 312.464 150.832 316.407C143.993 320.35 140.82 317.108 140.82 309.283V306.325L145.495 303.63V306.88C145.495 311.501 147.151 313.311 150.74 311.239C154.329 309.167 155.977 305.478 155.977 300.826C155.977 289.274 141.013 296.837 141.013 282.289C141.013 274.31 144.209 267.517 150.925 263.643C157.641 259.769 160.891 262.981 160.891 270.806Z" fill="url(#paint5_linear)"/>
</g>
<g opacity="0.6">
<path opacity="0.6" d="M14.9029 113.769L8.84005 127.581L5 129L12.3242 112.482L5.45582 102.022L9.65176 100.471L15.2713 109.13L20.9284 96.3159L24.706 94.9175L17.9125 110.416L25.1805 121.564L20.9284 123.134L14.9029 113.769Z" fill="url(#paint6_linear)"/>
<path opacity="0.6" d="M41.8261 115.355L37.9236 116.79L31.9106 97.6749V119.055L28.3828 120.358V93.5354L34.0336 91.4457L39.9966 110.665L45.7535 87.1185L51.4043 85.0288V111.851L47.583 113.282V91.7055L41.8261 115.355Z" fill="url(#paint7_linear)"/>
<path opacity="0.6" d="M55.5859 110.313V83.4903L59.632 82V106.089L70.0032 102.258V104.979L55.5859 110.313Z" fill="url(#paint8_linear)"/>
</g>
<g opacity="0.6">
<path opacity="0.6" d="M218.991 104.238V127.497L214 130.378V78.6845L218.991 75.8041V99.0629L229.996 92.7091V69.4502L234.987 66.5698V118.263L229.996 121.143V97.8846L218.991 104.238Z" fill="url(#paint9_linear)"/>
<path opacity="0.6" d="M246.631 111.539V65.0596L238.383 69.8269V64.5821L259.87 52.1748V57.4196L251.622 62.1869V108.635L246.631 111.539Z" fill="url(#paint10_linear)"/>
<path opacity="0.6" d="M279.84 92.2931L275.049 95.0965L267.625 58.252V99.4556L263.273 101.966V50.2346L270.251 46.2067L277.606 83.2437L284.699 37.8658L291.677 33.8379V85.5388L286.941 88.2652V46.6765L279.84 92.2931Z" fill="url(#paint11_linear)"/>
<g opacity="0.6" filter="url(#filter0_d)">
<path d="M296.809 82.5736V30.8804L301.792 28V74.4484L314.584 67.0626V72.3074L296.809 82.5736Z" fill="url(#paint12_linear)"/>
<path d="M297.309 31.1689L301.292 28.8666V74.4484V75.3145L302.042 74.8814L314.084 67.9286V72.0187L297.309 81.7074V31.1689Z" stroke="black"/>
</g>
</g>
<path opacity="0.4" d="M17.9475 145.568V171.778H64.9922V144.657L17.9475 145.568Z" fill="white" stroke="#9E22E9"/>
<path opacity="0.4" d="M40.9552 131.616V157.829H88V130.478L40.9552 131.616Z" fill="white" stroke="#9E22E9"/>
<path opacity="0.4" d="M153.498 1.42036V27.6308H200.543V0.509772L153.498 1.42036Z" fill="white" stroke="#9E22E9"/>
<path opacity="0.4" d="M88.5078 71.8093V20.5106L0.49852 22.3495V71.8093H88.5078Z" fill="white" stroke="#9E22E9"/>
<path opacity="0.4" d="M52.842 41.8794V59.0228H88.5078V41.201L52.842 41.8794Z" fill="white" stroke="#9E22E9"/>
<path opacity="0.4" d="M0.498363 41.8794V59.0228H36.1641V41.201L0.498363 41.8794Z" fill="white" stroke="#9E22E9"/>
<g opacity="0.4">
<path opacity="0.4" d="M231.373 268.26C256.172 268.26 276.137 249.847 276.137 227.145C276.137 204.444 256.172 186.03 231.373 186.03C206.575 186.03 186.61 204.444 186.61 227.145C186.61 249.847 206.575 268.26 231.373 268.26ZM231.373 187.123C255.379 187.123 275.114 205.209 275.114 227.378C275.114 249.546 255.379 267.633 231.373 267.633C207.368 267.633 187.633 249.546 187.633 227.378C187.633 205.209 207.368 187.123 231.373 187.123Z" fill="white" stroke="#9E22E9"/>
<path opacity="0.4" d="M231.373 238.502C242.348 238.502 253.624 237.458 262.142 235.492C266.406 234.509 269.947 233.302 272.41 231.898C274.902 230.479 276.137 228.951 276.137 227.378C276.137 225.741 274.894 224.185 272.409 222.758C269.947 221.345 266.407 220.145 262.144 219.176C253.626 217.24 242.35 216.253 231.373 216.253C220.399 216.253 209.123 217.298 200.604 219.263C196.341 220.247 192.8 221.454 190.336 222.857C187.845 224.277 186.61 225.804 186.61 227.378C186.61 228.951 187.845 230.479 190.336 231.898C192.8 233.302 196.341 234.509 200.604 235.492C209.123 237.458 220.399 238.502 231.373 238.502ZM231.373 216.881C244.173 216.881 255.024 218.162 262.69 220.034C266.519 220.969 269.577 222.057 271.69 223.22C272.746 223.801 273.588 224.414 274.173 225.054C274.757 225.694 275.114 226.397 275.114 227.145C275.114 227.893 274.757 228.597 274.173 229.237C273.588 229.877 272.746 230.489 271.69 231.071C269.577 232.234 266.519 233.322 262.69 234.257C255.024 236.128 244.173 237.41 231.373 237.41C218.574 237.41 207.723 236.128 200.057 234.257C196.228 233.322 193.17 232.234 191.057 231.071C190.001 230.489 189.159 229.877 188.574 229.237C187.99 228.597 187.633 227.893 187.633 227.145C187.633 226.397 187.99 225.694 188.574 225.054C189.159 224.414 190.001 223.801 191.057 223.22C193.17 222.057 196.228 220.969 200.057 220.034C207.723 218.162 218.574 216.881 231.373 216.881Z" fill="white" stroke="#9E22E9"/>
<path opacity="0.4" d="M231.371 268.26C233.289 268.26 235.07 267.071 236.686 264.811C238.298 262.556 239.686 259.311 240.816 255.399C243.075 247.581 244.273 237.226 244.273 227.145C244.273 217.064 243.075 206.71 240.816 198.892C239.686 194.98 238.298 191.735 236.686 189.479C235.07 187.219 233.289 186.03 231.371 186.03C229.454 186.03 227.673 187.219 226.057 189.479C224.445 191.735 223.057 194.98 221.927 198.892C219.668 206.71 218.47 217.064 218.47 227.145C218.47 237.229 219.605 247.583 221.832 255.401C222.947 259.312 224.326 262.556 225.949 264.81C227.574 267.066 229.386 268.26 231.371 268.26ZM231.371 187.123C232.958 187.123 234.463 188.324 235.8 190.247C237.156 192.197 238.431 195.018 239.53 198.546C241.729 205.608 243.25 215.599 243.25 227.378C243.25 239.157 241.729 249.147 239.53 256.209C238.431 259.737 237.156 262.558 235.8 264.509C234.463 266.432 232.958 267.633 231.371 267.633C229.785 267.633 228.28 266.432 226.943 264.509C225.587 262.558 224.312 259.737 223.213 256.209C221.014 249.147 219.492 239.157 219.492 227.378C219.492 215.599 221.014 205.608 223.213 198.546C224.312 195.018 225.587 192.197 226.943 190.247C228.28 188.324 229.785 187.123 231.371 187.123Z" fill="white" stroke="#9E22E9"/>
</g>
<path d="M173.262 172.313H123.901V173.173H172.457H172.663L172.809 173.318L218.521 218.578L219.238 218.029L173.262 172.313Z" fill="white" stroke="#9E22E9"/>
<path d="M149.945 194.365V194.865H149.445H106.963H106.463V194.365V183.438V182.938H106.963H149.445H149.945V183.438V194.365ZM105.187 195.725H150.715V182.078H105.187V195.725Z" fill="white" stroke="#9E22E9"/>
<path d="M149.957 201.375H106.452V202.932H149.957V201.375Z" fill="white" stroke="#9E22E9"/>
<path d="M149.957 206.489H106.452V208.046H149.957V206.489Z" fill="white" stroke="#9E22E9"/>
<path d="M149.957 211.836H106.452V213.393H149.957V211.836Z" fill="white" stroke="#9E22E9"/>
<path opacity="0.4" d="M43.7437 241.017L48.8125 243.542V240.242L43.7437 237.717V241.017Z" fill="white" stroke="#9E22E9"/>
<path opacity="0.4" d="M48.8125 210.556V207.24L43.7437 204.91V208.226L48.8125 210.556Z" fill="white" stroke="#9E22E9"/>
<path opacity="0.4" d="M43.7437 234.497L48.8125 236.827V233.51L43.7437 231.18V234.497Z" fill="white" stroke="#9E22E9"/>
<path opacity="0.4" d="M48.8125 204.02V200.72L43.7437 198.195V201.495L48.8125 204.02Z" fill="white" stroke="#9E22E9"/>
<path opacity="0.4" d="M43.7437 247.526L48.8125 250.05V246.75L43.7437 244.226V247.526Z" fill="white" stroke="#9E22E9"/>
<path opacity="0.4" d="M43.7437 214.747L48.8125 217.271V213.971L43.7437 211.447V214.747Z" fill="white" stroke="#9E22E9"/>
<path opacity="0.4" d="M43.7437 227.766L48.8125 230.29V226.99L43.7437 224.466V227.766Z" fill="white" stroke="#9E22E9"/>
<path opacity="0.4" d="M48.8125 197.509V195.627L43.7437 193.491V194.985L48.8125 197.509Z" fill="white" stroke="#9E22E9"/>
<path opacity="0.4" d="M43.7437 221.256L48.8125 223.78V220.48L43.7437 217.956V221.256Z" fill="white" stroke="#9E22E9"/>
<path opacity="0.4" d="M142.331 129.5H138.665L136.174 134.08H139.84L142.331 129.5Z" fill="white" stroke="#9E22E9"/>
<path opacity="0.4" d="M175.493 134.08L177.983 129.5H174.558L171.86 134.08H175.493Z" fill="white" stroke="#9E22E9"/>
<path opacity="0.4" d="M149.629 129.5H145.985L143.287 134.08H146.931L149.629 129.5Z" fill="white" stroke="#9E22E9"/>
<path opacity="0.4" d="M182.583 134.08L185.281 129.5H181.638L178.939 134.08H182.583Z" fill="white" stroke="#9E22E9"/>
<path opacity="0.4" d="M135.215 129.5H131.571L128.873 134.08H132.517L135.215 129.5Z" fill="white" stroke="#9E22E9"/>
<path opacity="0.4" d="M170.905 129.5H167.239L164.748 134.08H168.414L170.905 129.5Z" fill="white" stroke="#9E22E9"/>
<path opacity="0.4" d="M156.707 129.5H153.063L150.365 134.08H154.009L156.707 129.5Z" fill="white" stroke="#9E22E9"/>
<path opacity="0.4" d="M186.021 134.08H188.364L190.439 129.5H188.719L186.021 134.08Z" fill="white" stroke="#9E22E9"/>
<path opacity="0.4" d="M163.789 129.5H160.145L157.447 134.08H161.091L163.789 129.5Z" fill="white" stroke="#9E22E9"/>
<path d="M143.887 44.6782H106.957V45.5381H143.887V44.6782Z" fill="white" stroke="#9E22E9"/>
<path d="M140.602 52.1177H99.1199V57.6273H140.602V52.1177Z" fill="white" stroke="#9E22E9"/>
<path d="M140.602 65.8345H99.1199V71.3441H140.602V65.8345Z" fill="white" stroke="#9E22E9"/>
<path d="M140.602 79.3193H99.1199V84.8289H140.602V79.3193Z" fill="white" stroke="#9E22E9"/>
<path d="M140.602 92.8022H99.1199V98.3118H140.602V92.8022Z" fill="white" stroke="#9E22E9"/>
<defs>
<filter id="filter0_d" x="292.809" y="28" width="25.7753" height="62.5736" filterUnits="userSpaceOnUse" color-interpolation-filters="sRGB">
<feFlood flood-opacity="0" result="BackgroundImageFix"/>
<feColorMatrix in="SourceAlpha" type="matrix" values="0 0 0 0 0 0 0 0 0 0 0 0 0 0 0 0 0 0 127 0"/>
<feOffset dy="4"/>
<feGaussianBlur stdDeviation="2"/>
<feColorMatrix type="matrix" values="0 0 0 0 0 0 0 0 0 0 0 0 0 0 0 0 0 0 0.25 0"/>
<feBlend mode="normal" in2="BackgroundImageFix" result="effect1_dropShadow"/>
<feBlend mode="normal" in="SourceGraphic" in2="effect1_dropShadow" result="shape"/>
</filter>
<linearGradient id="paint0_linear" x1="455.196" y1="465.646" x2="364.76" y2="347.84" gradientUnits="userSpaceOnUse">
<stop offset="0.11" stop-color="white" stop-opacity="0"/>
<stop offset="0.2" stop-color="#C1C1C1" stop-opacity="0.24"/>
<stop offset="1"/>
</linearGradient>
<linearGradient id="paint1_linear" x1="596.94" y1="483.815" x2="527.205" y2="384.995" gradientUnits="userSpaceOnUse">
<stop stop-color="white" stop-opacity="0"/>
<stop offset="0.81"/>
</linearGradient>
<linearGradient id="paint2_linear" x1="285.534" y1="412.398" x2="256.82" y2="375.443" gradientUnits="userSpaceOnUse">
<stop offset="0.21" stop-color="white" stop-opacity="0"/>
<stop offset="0.29" stop-color="#C1C1C1" stop-opacity="0.24"/>
<stop offset="1"/>
</linearGradient>
<linearGradient id="paint3_linear" x1="27028.1" y1="31169.7" x2="1674.27" y2="24724.1" gradientUnits="userSpaceOnUse">
<stop stop-color="#EEEEEE"/>
<stop offset="1" stop-color="#9E22E9"/>
</linearGradient>
<linearGradient id="paint4_linear" x1="27390" y1="29679.5" x2="2068.98" y2="23256.1" gradientUnits="userSpaceOnUse">
<stop stop-color="#EEEEEE"/>
<stop offset="0.9999" stop-color="#9E22E9"/>
<stop offset="1" stop-color="#9E22E9"/>
</linearGradient>
<linearGradient id="paint5_linear" x1="27790.5" y1="28174.2" x2="2469.97" y2="21749.3" gradientUnits="userSpaceOnUse">
<stop stop-color="#EEEEEE"/>
<stop offset="1" stop-color="#9E22E9"/>
</linearGradient>
<linearGradient id="paint6_linear" x1="19502.8" y1="36724.3" x2="-3496.55" y2="27090" gradientUnits="userSpaceOnUse">
<stop stop-color="#EEEEEE"/>
<stop offset="1" stop-color="#9E22E9"/>
</linearGradient>
<linearGradient id="paint7_linear" x1="22831.2" y1="36841" x2="-2605.4" y2="25114.6" gradientUnits="userSpaceOnUse">
<stop stop-color="#EEEEEE"/>
<stop offset="1" stop-color="#9E22E9"/>
</linearGradient>
<linearGradient id="paint8_linear" x1="14583.5" y1="28851.2" x2="-2512.98" y2="22692.2" gradientUnits="userSpaceOnUse">
<stop stop-color="#EEEEEE"/>
<stop offset="1" stop-color="#9E22E9"/>
</linearGradient>
<linearGradient id="paint9_linear" x1="24045.5" y1="53362.1" x2="-2624.6" y2="47156.2" gradientUnits="userSpaceOnUse">
<stop stop-color="#EEEEEE"/>
<stop offset="1" stop-color="#9E22E9"/>
</linearGradient>
<linearGradient id="paint10_linear" x1="25126.7" y1="47742.3" x2="-1890.89" y2="40823.8" gradientUnits="userSpaceOnUse">
<stop stop-color="#EEEEEE"/>
<stop offset="1" stop-color="#9E22E9"/>
</linearGradient>
<linearGradient id="paint11_linear" x1="33701.3" y1="52926.7" x2="-1304.73" y2="42601.8" gradientUnits="userSpaceOnUse">
<stop stop-color="#EEEEEE"/>
<stop offset="1" stop-color="#9E22E9"/>
</linearGradient>
<linearGradient id="paint12_linear" x1="21528.3" y1="41073.9" x2="-1084.79" y2="35863.3" gradientUnits="userSpaceOnUse">
<stop stop-color="#EEEEEE"/>
<stop offset="1" stop-color="#9E22E9"/>
</linearGradient>
</defs>
</svg>
