<svg width="500" height="369" viewBox="0 0 500 369" fill="none" xmlns="http://www.w3.org/2000/svg">
<path style="mix-blend-mode:multiply" opacity="0.48" d="M101.858 250.366C101.858 249.811 102.219 249.256 103.008 248.778L214.067 184.663C215.478 183.853 217.61 183.764 218.832 184.469L226.9 189.128L228.383 189.966L231.543 188.145C231.974 187.903 232.456 187.766 232.95 187.744C233.444 187.723 233.936 187.819 234.386 188.023L361.888 261.661C362.621 262.083 362.526 262.816 361.688 263.327L358.528 265.148L368.068 270.651C368.305 270.758 368.506 270.929 368.65 271.145C368.793 271.361 368.873 271.613 368.879 271.873V271.873V279.975C368.879 280.53 368.49 281.085 367.718 281.541L256.659 345.655C255.831 346.104 254.902 346.336 253.96 346.327H253.843C253.164 346.329 252.495 346.165 251.894 345.85L102.669 259.662C102.437 259.557 102.238 259.391 102.093 259.182C101.948 258.973 101.863 258.728 101.847 258.473V250.366H101.858Z" fill="url(#paint0_linear)"/>
<path d="M140.552 2.41466L142.112 3.38643L286.251 91.2679L292.82 90.1184L295.324 88.5747C294.977 87.7009 294.368 86.9561 293.581 86.4423L144.317 0.25455C144.132 0.128611 143.921 0.0466229 143.699 0.0148609C143.478 -0.0169011 143.252 0.00240361 143.039 0.0713007L142.356 0.70989L140.552 2.41466Z" fill="#F5F5F5"/>
<path d="M292.818 90.1184L295.322 88.5747C295.624 89.2323 295.786 89.945 295.8 90.6682V218.892C295.839 219.238 295.786 219.587 295.645 219.905C295.505 220.224 295.282 220.499 295 220.702L292.907 222.812L292.757 220.086L286.243 100.269L292.818 90.1184Z" fill="#E0E0E0"/>
<path d="M142.143 2.4312L291.435 88.6134C292.657 89.3187 293.656 91.2122 293.656 92.8392V221.063C293.656 222.69 292.668 223.44 291.435 222.729L142.165 136.547C140.944 135.841 139.944 133.953 139.944 132.326V4.10264C139.933 2.47562 140.922 1.72042 142.143 2.4312Z" fill="#EEEEEE"/>
<path d="M291.437 219.858C291.464 219.858 291.492 219.858 291.492 219.819V91.5898C291.491 91.5701 291.485 91.5511 291.475 91.5338C291.466 91.5166 291.452 91.5016 291.437 91.4898L142.167 5.30762C142.134 5.30762 142.112 5.30761 142.112 5.35203V133.576C142.111 133.596 142.116 133.616 142.126 133.633C142.136 133.651 142.15 133.665 142.167 133.676L291.437 219.858Z" fill="#434343"/>
<path d="M286.246 103.268V202.117L147.316 121.904V23.0552L286.246 103.268Z" fill="#9E22E9"/>
<path d="M215.442 55.0291C215.451 55.529 215.576 56.0199 215.808 56.4626C216.041 56.9052 216.374 57.2872 216.781 57.5779C217.514 57.9999 218.113 57.5502 218.113 56.5673C218.105 56.068 217.98 55.5775 217.749 55.1349C217.518 54.6924 217.186 54.3101 216.781 54.0185C216.042 53.5742 215.442 54.0296 215.442 55.0291Z" fill="#616261"/>
<path d="M286.246 108.382V103.268L147.316 23.0552V28.1695L286.246 108.382Z" fill="#FAFBFB"/>
<path d="M286.246 108.382V103.267L278.566 98.8306V103.945L286.246 108.382Z" fill="#E0E0E0"/>
<g style="mix-blend-mode:soft-light">
<path d="M189.377 135.397L244.18 167.033V177.828L189.377 146.187V135.397Z" fill="white"/>
</g>
<path d="M235.38 170.847L240.633 173.879V166.883L235.38 163.851V170.847Z" fill="white"/>
<path d="M228.303 166.766L233.551 169.798V162.796L228.303 159.764V166.766Z" fill="#413D68"/>
<path d="M221.229 162.679L226.477 165.711V158.714L221.229 155.682V162.679Z" fill="#4B4AA1"/>
<path d="M214.155 158.598L219.402 161.624V154.627L214.155 151.595V158.598Z" fill="#AC65A9"/>
<path d="M207.081 154.511L212.328 157.543V150.541L207.081 147.514V154.511Z" fill="#E9BAC9"/>
<path d="M200.006 150.424L205.254 153.455V146.459L200.006 143.427V150.424Z" fill="#9E22E9"/>
<path d="M192.932 146.342L198.18 149.374V142.372L192.932 139.34V146.342Z" fill="#B156EE"/>
<path d="M151.529 44.1842L157.582 47.677V39.6085L151.529 36.1157V44.1842Z" fill="#FAFBFB"/>
<path d="M151.529 57.3168L157.582 60.8097V52.7467L151.529 49.2539V57.3168Z" fill="#FAFBFB"/>
<path d="M163.407 108.732L210.707 136.041V87.9248L163.407 60.6152V108.732Z" fill="#EEEEEE"/>
<path d="M163.407 66.6902L210.707 93.9997V87.9248L163.407 60.6152V66.6902Z" fill="#FAFBFB"/>
<path d="M201.795 88.8523L210.707 93.9999V87.9249L201.795 82.7773V88.8523Z" fill="#E0E0E0"/>
<path d="M227.406 134.486L283.402 166.816V112.252L227.406 79.9229V134.486Z" fill="#EEEEEE"/>
<path d="M227.406 84.8872L283.402 117.211V112.252L227.406 79.9229V84.8872Z" fill="#FAFBFB"/>
<path d="M276.111 113.008L283.402 117.211V112.253L276.111 108.043V113.008Z" fill="#E0E0E0"/>
<path d="M175.128 292.552V300.682H175.245C176.187 300.693 177.117 300.461 177.944 300.01L289.003 235.901C289.775 235.451 290.175 234.868 290.164 234.329V226.233L283.572 229.82L176.261 288.126L175.128 292.552Z" fill="#E0E0E0"/>
<path d="M23.0871 204.737V212.845C23.104 213.098 23.1895 213.342 23.3342 213.55C23.479 213.758 23.6776 213.923 23.909 214.028L173.156 300.21C173.758 300.524 174.427 300.686 175.105 300.682V278.47L36.281 204.315L34.9705 203.616L23.0871 204.737Z" fill="#EEEEEE"/>
<path d="M140.063 138.835L289.332 225.017C290.554 225.722 290.399 226.95 288.988 227.794L177.929 291.908C176.518 292.719 174.386 292.808 173.164 292.103L23.8946 205.921C22.6729 205.215 22.8229 203.988 24.2333 203.172L135.293 139.057C136.709 138.219 138.841 138.13 140.063 138.835Z" fill="#F5F5F5"/>
<path d="M281.258 220.358L278.109 222.174C276.549 223.073 274.189 223.173 272.834 222.39L144.593 148.364C143.239 147.586 143.411 146.22 144.971 145.321L148.131 143.494L281.258 220.358Z" fill="#BDBDBD"/>
<path d="M141.183 150.918L268.402 224.395C269.207 224.861 269.107 225.678 268.174 226.216L212.644 258.268C212.165 258.535 211.631 258.686 211.083 258.709C210.535 258.732 209.99 258.627 209.49 258.401L82.288 184.924C81.4772 184.458 81.5772 183.641 82.5101 183.103L138.04 151.051C138.517 150.786 139.05 150.636 139.596 150.613C140.141 150.589 140.685 150.694 141.183 150.918V150.918Z" fill="#E0E0E0"/>
<path d="M253.861 219.847L263.051 225.15L259.269 227.333L250.085 222.029L253.861 219.847Z" fill="#616261"/>
<path d="M248.94 224.178L256.836 228.737L247.168 234.318L239.266 229.759L248.94 224.178Z" fill="#616261"/>
<path d="M235.633 227.66L227.737 223.101L237.404 217.521L245.301 222.08L235.633 227.66Z" fill="#616261"/>
<path d="M224.102 221.002L216.205 216.443L225.873 210.862L233.77 215.421L224.102 221.002Z" fill="#616261"/>
<path d="M214.338 204.204L222.234 208.763L212.567 214.344L204.67 209.785L214.338 204.204Z" fill="#616261"/>
<path d="M202.811 197.546L210.707 202.105L201.039 207.686L193.137 203.127L202.811 197.546Z" fill="#616261"/>
<path d="M191.276 190.888L199.172 195.447L189.504 201.028L181.608 196.469L191.276 190.888Z" fill="#616261"/>
<path d="M177.973 194.37L170.077 189.811L179.744 184.23L187.641 188.789L177.973 194.37Z" fill="#616261"/>
<path d="M166.44 187.712L158.544 183.153L168.211 177.572L176.113 182.131L166.44 187.712Z" fill="#616261"/>
<path d="M154.91 181.054L147.008 176.495L156.682 170.914L164.578 175.473L154.91 181.054Z" fill="#616261"/>
<path d="M143.375 174.396L123.945 163.179L133.613 157.598L153.043 168.815L143.375 174.396Z" fill="#616261"/>
<path d="M235.063 241.304L215.633 230.087L225.301 224.506L244.73 235.723L235.063 241.304Z" fill="#616261"/>
<path d="M212 227.987L204.104 223.428L213.772 217.848L221.668 222.407L212 227.987Z" fill="#616261"/>
<path d="M202.24 211.19L210.137 215.749L200.469 221.33L192.573 216.771L202.24 211.19Z" fill="#616261"/>
<path d="M190.705 204.532L198.602 209.091L188.934 214.671L181.037 210.113L190.705 204.532Z" fill="#616261"/>
<path d="M179.172 197.874L187.074 202.433L177.401 208.014L169.505 203.455L179.172 197.874Z" fill="#616261"/>
<path d="M165.871 201.356L157.969 196.797L167.643 191.216L175.539 195.775L165.871 201.356Z" fill="#616261"/>
<path d="M154.34 194.697L146.444 190.138L156.111 184.558L164.008 189.117L154.34 194.697Z" fill="#616261"/>
<path d="M142.805 188.04L134.909 183.481L144.576 177.9L152.473 182.459L142.805 188.04Z" fill="#616261"/>
<path d="M224.733 238.149L232.629 242.708L222.961 248.295L215.065 243.736L224.733 238.149Z" fill="#616261"/>
<path d="M211.43 241.637L203.534 237.078L213.201 231.492L221.098 236.051L211.43 241.637Z" fill="#616261"/>
<path d="M199.895 234.979L191.998 230.42L201.666 224.833L209.562 229.393L199.895 234.979Z" fill="#616261"/>
<path d="M190.139 218.175L198.035 222.734L188.362 228.321L180.466 223.762L190.139 218.175Z" fill="#616261"/>
<path d="M178.604 211.518L186.5 216.077L176.832 221.663L168.93 217.104L178.604 211.518Z" fill="#616261"/>
<path d="M167.072 204.859L174.969 209.418L165.301 215.005L157.405 210.446L167.072 204.859Z" fill="#616261"/>
<path d="M153.766 208.346L145.87 203.782L155.537 198.201L163.434 202.76L153.766 208.346Z" fill="#616261"/>
<path d="M142.239 201.689L134.337 197.124L144.004 191.543L151.906 196.102L142.239 201.689Z" fill="#616261"/>
<path d="M130.707 195.031L122.811 190.466L132.479 184.886L140.375 189.445L130.707 195.031Z" fill="#616261"/>
<path d="M119.172 188.373L111.276 183.808L120.943 178.228L128.84 182.787L119.172 188.373Z" fill="#616261"/>
<path d="M210.856 255.281L191.426 244.064L201.099 238.483L220.523 249.7L210.856 255.281Z" fill="#616261"/>
<path d="M187.797 241.964L179.901 237.405L189.568 231.825L197.465 236.384L187.797 241.964Z" fill="#616261"/>
<path d="M130.133 208.675L122.237 204.116L131.904 198.529L139.801 203.094L130.133 208.675Z" fill="#616261"/>
<path d="M118.602 202.016L110.705 197.457L120.373 191.871L128.27 196.436L118.602 202.016Z" fill="#616261"/>
<path d="M107.071 195.358L87.6407 184.141L97.3084 178.555L116.738 189.778L107.071 195.358Z" fill="#616261"/>
<path d="M176.262 235.306L133.771 210.773L143.438 205.187L185.93 229.726L176.262 235.306Z" fill="#616261"/>
<path d="M246.597 220.014L237.413 214.711L241.194 212.528L250.379 217.831L246.597 220.014Z" fill="#616261"/>
<path d="M233.931 212.7L224.741 207.397L228.522 205.215L237.707 210.518L233.931 212.7Z" fill="#616261"/>
<path d="M215.851 197.902L225.035 203.205L221.259 205.387L212.075 200.084L215.851 197.902Z" fill="#616261"/>
<path d="M203.183 190.583L212.367 195.886L208.586 198.068L199.401 192.765L203.183 190.583Z" fill="#616261"/>
<path d="M190.511 183.27L199.695 188.573L195.919 190.755L186.729 185.452L190.511 183.27Z" fill="#616261"/>
<path d="M177.839 175.957L187.023 181.26L183.247 183.442L174.057 178.139L177.839 175.957Z" fill="#616261"/>
<path d="M165.165 168.637L174.355 173.94L170.574 176.123L161.389 170.82L165.165 168.637Z" fill="#616261"/>
<path d="M152.499 161.324L161.684 166.627L157.902 168.81L148.717 163.507L152.499 161.324Z" fill="#616261"/>
<path d="M149.012 159.314L145.236 161.496L136.045 156.193L139.827 154.011L149.012 159.314Z" fill="#616261"/>
<path d="M131.272 181.382L119.744 174.724L107.639 181.715L99.7422 177.15L121.515 164.584L140.945 175.801L131.272 181.382Z" fill="#616261"/>
<path d="M221.254 265.154L212.458 260.078L271.358 226.072L280.148 231.147L221.254 265.154Z" fill="#EEEEEE"/>
<path d="M79.3301 183.214L70.5397 178.139L129.44 144.138L138.23 149.213L79.3301 183.214Z" fill="#EEEEEE"/>
<path d="M117.071 209.402L167.109 238.277C168.22 238.91 168.07 240.026 166.798 240.759L131.609 261.078C130.337 261.811 128.411 261.889 127.311 261.255L77.2732 232.38C76.1626 231.747 76.3125 230.636 77.5842 229.898L112.773 209.585C114.073 208.846 116 208.747 117.071 209.402Z" fill="#E0E0E0"/>
<path d="M155.628 142.416L283.108 216.027C283.841 216.449 283.746 217.182 282.902 217.693L277.727 220.68C277.295 220.921 276.813 221.058 276.319 221.078C275.825 221.098 275.333 221.002 274.884 220.797L147.404 147.164C146.676 146.742 146.765 146.004 147.609 145.498L152.785 142.511C153.218 142.273 153.701 142.141 154.195 142.124C154.689 142.108 155.18 142.208 155.628 142.416Z" fill="#616261"/>
<path d="M275.747 241.964L284.543 236.883V232.108L275.747 237.189V241.964Z" fill="#757576"/>
<path d="M265.21 248.04L274.012 242.959V238.183L265.21 243.264V248.04Z" fill="#757576"/>
<path d="M246.962 257.324L251.305 254.819V252.459L246.962 254.969V257.324Z" fill="#757576"/>
<path d="M243.241 258.212C243.241 258.818 243.607 259.095 244.057 258.834C244.308 258.655 244.513 258.42 244.655 258.147C244.798 257.874 244.875 257.571 244.879 257.263C244.879 256.663 244.512 256.386 244.057 256.647C243.808 256.826 243.605 257.061 243.463 257.333C243.321 257.605 243.245 257.906 243.241 258.212V258.212Z" fill="#757576"/>
<path style="mix-blend-mode:multiply" opacity="0.48" d="M300.321 317.296C300.36 316.408 301.004 315.486 302.264 314.759L412.091 251.36C414.468 249.989 418.06 249.839 420.121 251.027L498.007 296.028C498.395 296.208 498.726 296.49 498.966 296.845C499.206 297.199 499.344 297.611 499.367 298.039V298.039V301.542C499.367 302.453 498.706 303.419 497.407 304.163L387.652 367.534C386.305 368.262 384.797 368.643 383.266 368.645C382.006 368.705 380.753 368.431 379.634 367.851L301.72 322.871C301.325 322.691 300.986 322.405 300.742 322.046C300.497 321.687 300.355 321.267 300.332 320.833V317.268L300.321 317.296Z" fill="url(#paint1_linear)"/>
<path d="M242.987 284.367V287.932C243.011 288.367 243.154 288.786 243.4 289.145C243.645 289.504 243.984 289.79 244.38 289.97L322.289 334.949C323.41 335.531 324.664 335.807 325.926 335.749V335.749V332.245L325.37 330.524L247.845 287.088L242.987 284.367Z" fill="#EEEEEE"/>
<path d="M325.933 332.256V335.76C327.463 335.759 328.968 335.377 330.314 334.65L440.124 271.234C441.423 270.485 442.09 269.524 442.09 268.608V265.104L434.082 266.215L426.864 267.203L325.933 332.256Z" fill="#E0E0E0"/>
<path d="M244.953 281.846L354.74 218.448C357.117 217.076 360.71 216.926 362.765 218.114L440.678 263.094C442.739 264.282 442.478 266.353 440.123 267.725L330.307 331.129C327.931 332.5 324.338 332.65 322.283 331.462L244.369 286.483C242.32 285.289 242.57 283.218 244.953 281.846Z" fill="#EEEEEE"/>
<path d="M321.873 326.659L432.383 262.861L363.209 222.918L252.7 286.722L321.873 326.659Z" fill="#9E22E9"/>
<path d="M298.466 254.436L307.29 249.339C307.627 249.151 308.004 249.045 308.39 249.03C308.776 249.014 309.16 249.09 309.511 249.25C310.066 249.578 310.011 250.15 309.355 250.533L300.532 255.625C300.195 255.812 299.818 255.919 299.432 255.935C299.047 255.952 298.663 255.878 298.311 255.719V255.719C297.733 255.392 297.805 254.814 298.466 254.436Z" fill="#E0E0E0"/>
<path d="M378.062 298.905C379.561 299.765 382.177 299.66 383.909 298.66C385.642 297.661 385.825 296.15 384.326 295.284C382.826 294.418 380.211 294.529 378.484 295.528C376.757 296.528 376.546 298.038 378.062 298.905Z" fill="#E0E0E0"/>
<path d="M306.129 308.139L397.809 255.208V177.111L306.129 230.042V308.139Z" fill="#EEEEEE"/>
<path d="M389.414 217.365L391.469 216.176V213.805L389.414 214.994V217.365Z" fill="#E9BAC9"/>
<path d="M380.567 222.468L388.297 218.009V215.638L380.567 220.097V222.468Z" fill="#BDBDBD"/>
<path d="M377.141 224.451L379.195 223.268V220.891L377.141 222.079V224.451Z" fill="#AB6CAD"/>
<path d="M368.294 229.554L376.023 225.095V222.724L368.294 227.183V229.554Z" fill="#BDBDBD"/>
<path d="M364.869 231.536L366.918 230.353V227.982L364.869 229.165V231.536Z" fill="#E9BAC9"/>
<path d="M356.022 236.645L363.746 232.18V229.809L356.022 234.268V236.645Z" fill="#BDBDBD"/>
<path d="M367.919 213.378L391.469 199.784V195.925L367.919 209.519V213.378Z" fill="#413D68"/>
<path d="M376.77 214.027L391.469 205.542V201.683L376.77 210.168V214.027Z" fill="#4B4AA1"/>
<path d="M383.367 215.977L391.469 211.301V207.442L383.367 212.118V215.977Z" fill="#AC65A9"/>
<path d="M389.414 244.902L391.469 243.714V241.343L389.414 242.531V244.902Z" fill="#E9BAC9"/>
<path d="M380.567 250.005L388.297 245.546V243.175L380.567 247.634V250.005Z" fill="#BDBDBD"/>
<path d="M377.141 251.988L379.195 250.805V248.428L377.141 249.617V251.988Z" fill="#AB6CAD"/>
<path d="M368.294 257.096L376.023 252.632V250.261L368.294 254.72V257.096Z" fill="#BDBDBD"/>
<path d="M364.869 259.073L366.918 257.89V255.519L364.869 256.702V259.073Z" fill="#E9BAC9"/>
<path d="M356.022 264.182L363.746 259.723V257.346L356.022 261.811V264.182Z" fill="#BDBDBD"/>
<path d="M376.026 236.239L391.469 227.321V223.462L376.026 232.38V236.239Z" fill="#413D68"/>
<path d="M369.079 246.007L391.469 233.08V229.22L369.079 242.148V246.007Z" fill="#4B4AA1"/>
<path d="M379.696 245.635L391.469 238.838V234.979L379.696 241.776V245.635Z" fill="#AC65A9"/>
<path d="M345.867 242.509L347.922 241.32V238.949L345.867 240.132V242.509Z" fill="#413D68"/>
<path d="M337.02 247.612L344.75 243.153V240.782L337.02 245.241V247.612Z" fill="#BDBDBD"/>
<path d="M333.595 249.594L335.645 248.406V246.035L333.595 247.223V249.594Z" fill="#4B4AA1"/>
<path d="M324.748 254.697L332.473 250.238V247.867L324.748 252.326V254.697Z" fill="#BDBDBD"/>
<path d="M321.316 256.68L323.371 255.492V253.121L321.316 254.309V256.68Z" fill="#E9BAC9"/>
<path d="M312.469 261.788L320.199 257.324V254.953L312.469 259.412V261.788Z" fill="#BDBDBD"/>
<path d="M342.03 228.327L347.922 224.928V221.069L342.03 224.467V228.327Z" fill="#413D68"/>
<path d="M328.609 241.831L347.922 230.686V226.827L328.609 237.972V241.831Z" fill="#4B4AA1"/>
<path d="M322.345 251.21L347.922 236.445V232.585L322.345 247.351V251.21Z" fill="#AC65A9"/>
<path d="M306.129 237.206L397.809 184.275V177.111L306.129 230.042V237.206Z" fill="#FAFBFB"/>
<path d="M388.296 189.767L397.809 184.275V177.111L388.296 182.603V189.767Z" fill="#E0E0E0"/>
<path style="mix-blend-mode:multiply" opacity="0.48" d="M31.0012 226.422C31.0212 226.017 31.1513 225.626 31.3774 225.291C31.6034 224.955 31.9169 224.687 32.284 224.517L63.0197 206.747C64.9577 205.637 68.3395 205.77 70.5773 207.058L143.771 249.333C145.021 250.055 145.626 250.999 145.592 251.86V256.302C145.583 256.586 145.512 256.864 145.386 257.118C145.259 257.371 145.08 257.595 144.859 257.774C144.688 257.927 144.502 258.062 144.304 258.179L113.563 275.949C113.318 276.086 113.061 276.203 112.797 276.298C112.663 276.343 112.524 276.376 112.386 276.415C112.247 276.454 112.091 276.504 111.93 276.537C111.769 276.571 111.558 276.593 111.375 276.621L111.009 276.671C110.803 276.671 110.592 276.671 110.381 276.671H110.087C108.662 276.655 107.262 276.291 106.011 275.61L32.8337 233.363C31.5954 232.647 30.9679 231.73 30.9846 230.858V226.416L31.0012 226.422Z" fill="url(#paint2_linear)"/>
<path d="M111.397 235.184V235.317L39.6026 193.853C37.3814 192.559 33.983 192.421 32.045 193.537L2.61424 210.534L2.9974 208.691H-0.00122518V213.133C-0.00122518 213.999 0.609612 214.916 1.84793 215.632L75.0306 257.924C77.2518 259.212 80.6503 259.356 82.5882 258.234L113.33 240.465C113.696 240.299 114.01 240.037 114.239 239.706C114.468 239.376 114.602 238.989 114.629 238.588V238.588V234.146L111.397 235.184Z" fill="#EEEEEE"/>
<path d="M111.395 235.184L114.633 234.157V238.599C114.606 239 114.472 239.387 114.243 239.717C114.014 240.048 113.7 240.31 113.333 240.476L82.5921 258.246C81.518 258.798 80.3168 259.057 79.1104 258.995V219.086H83.2696L111.384 235.317L111.395 235.184Z" fill="#E0E0E0"/>
<path d="M32.0453 189.072L1.30962 206.842C-0.628365 207.952 -0.356269 209.913 1.86492 211.206L75.0309 253.431C77.2521 254.725 80.6506 254.864 82.5885 253.748L113.33 235.978C115.262 234.868 114.996 232.907 112.775 231.614L39.6029 189.411C37.3651 188.095 33.9833 187.956 32.0453 189.072Z" fill="#F5F5F5"/>
<path d="M22.0563 198.296L17.303 201.039C17.0087 201.211 17.0475 201.511 17.3863 201.711C17.563 201.808 17.7599 201.862 17.9613 201.87C18.1627 201.878 18.3632 201.838 18.5468 201.755L23.3002 199.012C23.5945 198.84 23.5612 198.54 23.2169 198.346C23.041 198.247 22.8443 198.191 22.6426 198.182C22.4409 198.173 22.2401 198.212 22.0563 198.296Z" fill="#BDBDBD"/>
<path d="M25.3201 197.141C25.6644 197.335 25.7032 197.635 25.4034 197.807C25.2207 197.891 25.0212 197.93 24.8206 197.922C24.6201 197.914 24.4241 197.86 24.2484 197.763C23.9041 197.563 23.8652 197.263 24.1651 197.091C24.3479 197.008 24.5478 196.969 24.7486 196.977C24.9494 196.986 25.1452 197.042 25.3201 197.141V197.141Z" fill="#BDBDBD"/>
<path d="M15.2802 202.938C14.9359 202.738 14.9026 202.439 15.1969 202.266C15.3807 202.183 15.5815 202.144 15.7832 202.153C15.9849 202.161 16.1816 202.217 16.3575 202.316C16.7018 202.516 16.7351 202.816 16.4408 202.983C16.2572 203.066 16.0567 203.105 15.8553 203.097C15.6539 203.09 15.457 203.035 15.2802 202.938V202.938Z" fill="#BDBDBD"/>
<path d="M96.4975 241.531C97.8746 242.331 98.0246 243.536 96.8307 244.224C95.6368 244.913 93.5489 244.824 92.1717 244.03C90.7946 243.236 90.6447 242.031 91.8385 241.337C93.0324 240.643 95.1148 240.737 96.4975 241.531Z" fill="#BDBDBD"/>
<path d="M45.9062 196.114L13.5046 214.822L7.72953 211.484L40.1256 192.776L45.9062 196.114Z" fill="#3374BA"/>
<path d="M35.3428 197.219L15.4187 208.724C14.7357 209.119 14.8189 209.835 15.613 210.268C16.0187 210.494 16.4716 210.621 16.9353 210.64C17.3991 210.66 17.861 210.57 18.284 210.379L38.2192 198.851C38.9078 198.457 38.8189 197.741 38.0304 197.307C37.6205 197.084 37.1639 196.959 36.6972 196.944C36.2304 196.928 35.7665 197.022 35.3428 197.219V197.219Z" fill="#2B66B1"/>
<path d="M41.7726 195.164C42.5611 195.619 42.6499 196.308 41.9614 196.708C41.5383 196.899 41.0765 196.988 40.6127 196.969C40.1489 196.95 39.6961 196.822 39.2904 196.597C38.4963 196.136 38.413 195.447 39.0961 195.053C39.5201 194.862 39.9828 194.772 40.4475 194.792C40.9121 194.811 41.3659 194.938 41.7726 195.164V195.164Z" fill="white"/>
<path d="M11.854 212.434C12.2607 212.66 12.7145 212.787 13.1791 212.806C13.6438 212.826 14.1066 212.736 14.5306 212.545C15.2136 212.151 15.1303 211.434 14.3362 211.001C13.9305 210.776 13.4777 210.648 13.0139 210.629C12.5501 210.61 12.0883 210.699 11.6652 210.89C10.9822 211.285 11.0655 211.979 11.854 212.434Z" fill="white"/>
<path d="M39.9763 193.854L39.21 194.298C39.0601 194.387 39.0767 194.542 39.2544 194.642L40.2928 195.242C40.385 195.288 40.4868 195.312 40.5899 195.312C40.6931 195.312 40.7948 195.288 40.887 195.242L41.6533 194.803C41.8088 194.714 41.7866 194.559 41.6145 194.459L40.576 193.859C40.4837 193.811 40.3812 193.785 40.2769 193.784C40.1726 193.783 40.0695 193.807 39.9763 193.854V193.854Z" fill="#EF5451"/>
<path d="M54.3125 200.967L21.9109 219.675L13.5037 214.821L45.9053 196.113L54.3125 200.967Z" fill="white"/>
<path d="M64.1758 206.664L31.7797 225.367L23.3725 220.513L55.7686 201.811L64.1758 206.664Z" fill="white"/>
<path d="M86.4102 219.502L54.0141 238.205L33.2348 226.21L65.6364 207.502L86.4102 219.502Z" fill="white"/>
<path d="M23.9997 213.617C25.1658 214.288 25.2935 215.282 24.2829 215.893C23.6582 216.178 22.9754 216.311 22.2896 216.283C21.6038 216.255 20.9342 216.066 20.3347 215.732C19.163 215.055 19.0353 214.066 20.0515 213.45C20.6768 213.167 21.3597 213.035 22.0454 213.063C22.7311 213.092 23.4005 213.282 23.9997 213.617V213.617Z" fill="#775CA7"/>
<path d="M33.3819 219.586C34.7424 220.375 34.8923 221.563 33.7095 222.241C32.5267 222.918 30.4777 222.835 29.1172 222.052C27.7567 221.269 27.6068 220.075 28.784 219.397C29.9613 218.72 32.0214 218.803 33.3819 219.586Z" fill="#EF5451"/>
<path d="M39.6459 215.971C41.0063 216.76 41.1507 217.948 39.9735 218.625C38.7962 219.303 36.7361 219.22 35.3756 218.437C34.0151 217.654 33.8708 216.46 35.048 215.782C36.2252 215.105 38.2854 215.188 39.6459 215.971Z" fill="#FFD54F"/>
<path d="M45.9044 212.356C47.2649 213.145 47.4148 214.333 46.2376 215.011C45.0604 215.688 43.0002 215.605 41.6397 214.822C40.2792 214.039 40.1293 212.845 41.3065 212.167C42.4838 211.49 44.5439 211.573 45.9044 212.356Z" fill="#5AC7DA"/>
<path d="M52.1693 208.741C53.5298 209.53 53.6742 210.718 52.4969 211.395C51.3197 212.073 49.2595 211.99 47.899 211.207C46.5386 210.424 46.3942 209.23 47.5714 208.552C48.7487 207.875 50.8088 207.958 52.1693 208.741Z" fill="#9CCC65"/>
<path d="M58.4279 205.126C59.7883 205.914 59.9383 207.103 58.761 207.78C57.5838 208.458 55.5237 208.374 54.1632 207.591C52.8027 206.808 52.6527 205.614 53.83 204.937C55.0072 204.26 57.0674 204.343 58.4279 205.126Z" fill="#FAA629"/>
<path d="M40.0024 203.311L41.8516 204.377L26.0034 213.528L24.1487 212.456L40.0024 203.311Z" fill="#E0E0E0"/>
<path d="M53.875 228.104L46.7394 232.225L38.5044 227.471L45.6344 223.351L53.875 228.104Z" fill="#EF5451"/>
<path d="M47.6925 222.163L50.6911 220.43L52.668 221.569L49.6693 223.301L47.6925 222.163Z" fill="#E0E0E0"/>
<path d="M52.2835 219.508L59.4746 215.354L61.457 216.498L54.2604 220.652L52.2835 219.508Z" fill="#E0E0E0"/>
<path d="M67.8122 210.546L69.7891 211.684L63.0478 215.577L61.0709 214.439L67.8122 210.546Z" fill="#E0E0E0"/>
<path d="M51.4806 224.345L58.8216 220.108L60.793 221.252L53.4519 225.489L51.4806 224.345Z" fill="#E0E0E0"/>
<path d="M60.4113 219.192L66.7028 215.56L68.6797 216.698L62.3826 220.33L60.4113 219.192Z" fill="#E0E0E0"/>
<path d="M71.599 212.734L73.5703 213.872L70.2663 215.782L68.295 214.639L71.599 212.734Z" fill="#E0E0E0"/>
<path d="M55.2692 226.533L58.7731 224.506L60.75 225.644L57.2405 227.671L55.2692 226.533Z" fill="#E0E0E0"/>
<path d="M69.8005 218.142L71.7773 219.28L62.3428 224.728L60.366 223.59L69.8005 218.142Z" fill="#E0E0E0"/>
<path d="M75.3786 214.916L77.3555 216.06L73.3629 218.364L71.386 217.221L75.3786 214.916Z" fill="#E0E0E0"/>
<path d="M69.2656 225.1L61.025 229.859L59.0482 228.715L67.2888 223.956L69.2656 225.1Z" fill="#E0E0E0"/>
<path d="M106.895 231.325L74.4929 250.033L55.4684 239.049L87.8645 220.341L106.895 231.325Z" fill="white"/>
<path d="M76.1094 240.943L68.9738 245.063L60.7387 240.304L67.8688 236.189L76.1094 240.943Z" fill="#FFD54F"/>
<path d="M69.9269 234.996L72.9255 233.269L74.9023 234.407L71.9037 236.139L69.9269 234.996Z" fill="#E0E0E0"/>
<path d="M74.5195 232.346L81.7162 228.193L83.6875 229.331L76.4964 233.49L74.5195 232.346Z" fill="#E0E0E0"/>
<path d="M90.0466 223.384L92.0234 224.523L85.2821 228.415L83.3053 227.271L90.0466 223.384Z" fill="#E0E0E0"/>
<path d="M73.715 237.183L81.0505 232.946L83.0273 234.085L75.6918 238.322L73.715 237.183Z" fill="#E0E0E0"/>
<path d="M82.6457 232.03L88.9372 228.393L90.9141 229.537L84.617 233.169L82.6457 232.03Z" fill="#E0E0E0"/>
<path d="M93.8334 225.566L95.8047 226.71L92.5007 228.615L90.5294 227.477L93.8334 225.566Z" fill="#E0E0E0"/>
<path d="M77.5036 239.366L81.0075 237.344L82.9844 238.483L79.4749 240.509L77.5036 239.366Z" fill="#E0E0E0"/>
<path d="M92.0349 230.975L94.0117 232.119L84.5772 237.566L82.6004 236.423L92.0349 230.975Z" fill="#E0E0E0"/>
<path d="M97.6169 227.754L99.5938 228.893L95.6012 231.203L93.6243 230.059L97.6169 227.754Z" fill="#E0E0E0"/>
<path d="M91.5 237.933L83.2594 242.692L81.2825 241.554L89.5231 236.795L91.5 237.933Z" fill="#E0E0E0"/>
<path d="M106.895 231.325L74.4929 250.033L68.368 246.496L100.764 227.788L106.895 231.325Z" fill="#EEEEEE"/>
<path d="M77.2344 246.318L75.1298 247.534L72.692 246.129L74.8022 244.908L77.2344 246.318Z" fill="#BDBDBD"/>
<path d="M85.6836 241.443L83.5735 242.659L81.1413 241.254L83.2459 240.038L85.6836 241.443Z" fill="#BDBDBD"/>
<path d="M94.1211 236.567L92.011 237.783L89.5788 236.378L91.6889 235.162L94.1211 236.567Z" fill="#BDBDBD"/>
<path d="M100.458 232.908L102.562 231.692L100.13 230.287L98.0202 231.503L100.458 232.908Z" fill="#BDBDBD"/>
<path d="M91.234 234.457L90.4677 234.901C90.3123 234.99 90.3289 235.14 90.5066 235.246L91.5283 235.845C91.6205 235.892 91.7222 235.916 91.8254 235.916C91.9286 235.916 92.0303 235.892 92.1225 235.845L92.8944 235.401C93.0443 235.312 93.0276 235.162 92.8499 235.057L91.8115 234.457C91.7216 234.413 91.6228 234.391 91.5228 234.391C91.4227 234.391 91.324 234.413 91.234 234.457V234.457Z" fill="#EF5451"/>
<path d="M86.4084 219.503L54.0123 238.205L55.4672 239.049L87.8633 220.341L86.4084 219.503Z" fill="#EEEEEE"/>
<path d="M64.1763 206.664L31.7802 225.366L33.2351 226.211L65.6367 207.503L64.1763 206.664Z" fill="#EEEEEE"/>
<path d="M54.3147 200.967L21.913 219.675L23.3735 220.513L55.7695 201.811L54.3147 200.967Z" fill="#EEEEEE"/>
<path d="M32.0453 189.072L1.30962 206.842C-0.628365 207.952 -0.356269 209.913 1.86492 211.206L75.0309 253.431C77.2521 254.725 80.6506 254.864 82.5885 253.748L113.33 235.978C115.262 234.868 114.996 232.907 112.775 231.614L39.6029 189.411C37.3651 188.095 33.9833 187.956 32.0453 189.072Z" fill="#F5F5F5"/>
<path d="M22.0563 198.296L17.303 201.039C17.0087 201.211 17.0475 201.511 17.3863 201.711C17.563 201.808 17.7599 201.862 17.9613 201.87C18.1627 201.878 18.3632 201.838 18.5468 201.755L23.3002 199.012C23.5945 198.84 23.5612 198.54 23.2169 198.346C23.041 198.247 22.8443 198.191 22.6426 198.182C22.4409 198.173 22.2401 198.212 22.0563 198.296Z" fill="#BDBDBD"/>
<path d="M25.3201 197.141C25.6644 197.335 25.7032 197.635 25.4034 197.807C25.2207 197.891 25.0212 197.93 24.8206 197.922C24.6201 197.914 24.4241 197.86 24.2484 197.763C23.9041 197.563 23.8652 197.263 24.1651 197.091C24.3479 197.008 24.5478 196.969 24.7486 196.977C24.9494 196.986 25.1452 197.042 25.3201 197.141V197.141Z" fill="#BDBDBD"/>
<path d="M15.2802 202.938C14.9359 202.738 14.9026 202.439 15.1969 202.266C15.3807 202.183 15.5815 202.144 15.7832 202.153C15.9849 202.161 16.1816 202.217 16.3575 202.316C16.7018 202.516 16.7351 202.816 16.4408 202.983C16.2572 203.066 16.0567 203.105 15.8553 203.097C15.6539 203.09 15.457 203.035 15.2802 202.938V202.938Z" fill="#BDBDBD"/>
<path d="M96.4975 241.531C97.8746 242.331 98.0246 243.536 96.8307 244.224C95.6368 244.913 93.5489 244.824 92.1717 244.03C90.7946 243.236 90.6447 242.031 91.8385 241.337C93.0324 240.643 95.1148 240.737 96.4975 241.531Z" fill="#BDBDBD"/>
<path d="M45.9062 196.114L13.5046 214.822L7.72953 211.484L40.1256 192.776L45.9062 196.114Z" fill="#413D68"/>
<path d="M35.3428 197.219L15.4187 208.724C14.7357 209.119 14.8189 209.835 15.613 210.268C16.0187 210.494 16.4716 210.621 16.9353 210.64C17.3991 210.66 17.861 210.57 18.284 210.379L38.2192 198.851C38.9078 198.457 38.8189 197.741 38.0304 197.307C37.6205 197.084 37.1639 196.959 36.6972 196.944C36.2304 196.928 35.7665 197.022 35.3428 197.219V197.219Z" fill="#4B4AA1"/>
<path d="M41.7726 195.164C42.5611 195.619 42.6499 196.308 41.9614 196.708C41.5383 196.899 41.0765 196.988 40.6127 196.969C40.1489 196.95 39.6961 196.822 39.2904 196.597C38.4963 196.136 38.413 195.447 39.0961 195.053C39.5201 194.862 39.9828 194.772 40.4475 194.792C40.9121 194.811 41.3659 194.938 41.7726 195.164V195.164Z" fill="white"/>
<path d="M11.854 212.434C12.2607 212.66 12.7145 212.787 13.1791 212.806C13.6438 212.826 14.1066 212.736 14.5306 212.545C15.2136 212.151 15.1303 211.434 14.3362 211.001C13.9305 210.776 13.4777 210.648 13.0139 210.629C12.5501 210.61 12.0883 210.699 11.6652 210.89C10.9822 211.285 11.0655 211.979 11.854 212.434Z" fill="white"/>
<path d="M39.9763 193.854L39.21 194.298C39.0601 194.387 39.0767 194.542 39.2544 194.642L40.2928 195.242C40.385 195.288 40.4868 195.312 40.5899 195.312C40.6931 195.312 40.7948 195.288 40.887 195.242L41.6533 194.803C41.8088 194.714 41.7866 194.559 41.6145 194.459L40.576 193.859C40.4837 193.811 40.3812 193.785 40.2769 193.784C40.1726 193.783 40.0695 193.807 39.9763 193.854V193.854Z" fill="#EF5451"/>
<path d="M54.3125 200.967L21.9109 219.675L13.5037 214.821L45.9053 196.113L54.3125 200.967Z" fill="white"/>
<path d="M64.1758 206.664L31.7797 225.367L23.3725 220.513L55.7686 201.811L64.1758 206.664Z" fill="white"/>
<path d="M86.4102 219.502L54.0141 238.205L33.2348 226.21L65.6364 207.502L86.4102 219.502Z" fill="white"/>
<path d="M23.9997 213.617C25.1658 214.288 25.2935 215.282 24.2829 215.893C23.6582 216.178 22.9754 216.311 22.2896 216.283C21.6038 216.255 20.9342 216.066 20.3347 215.732C19.163 215.055 19.0353 214.066 20.0515 213.45C20.6768 213.167 21.3597 213.035 22.0454 213.063C22.7311 213.092 23.4005 213.282 23.9997 213.617V213.617Z" fill="#AC65A9"/>
<path d="M33.3819 219.586C34.7424 220.375 34.8923 221.563 33.7095 222.241C32.5267 222.918 30.4777 222.835 29.1172 222.052C27.7567 221.269 27.6068 220.075 28.784 219.397C29.9613 218.72 32.0214 218.803 33.3819 219.586Z" fill="#9E22E9"/>
<path d="M39.6459 215.971C41.0063 216.76 41.1507 217.948 39.9735 218.625C38.7962 219.303 36.7361 219.22 35.3756 218.437C34.0151 217.654 33.8708 216.46 35.048 215.782C36.2252 215.105 38.2854 215.188 39.6459 215.971Z" fill="#B156EE"/>
<path d="M45.9044 212.356C47.2649 213.145 47.4148 214.333 46.2376 215.011C45.0604 215.688 43.0002 215.605 41.6397 214.822C40.2792 214.039 40.1293 212.845 41.3065 212.167C42.4838 211.49 44.5439 211.573 45.9044 212.356Z" fill="#BA6BF0"/>
<path d="M52.1693 208.741C53.5298 209.53 53.6742 210.718 52.4969 211.395C51.3197 212.073 49.2595 211.99 47.899 211.207C46.5386 210.424 46.3942 209.23 47.5714 208.552C48.7487 207.875 50.8088 207.958 52.1693 208.741Z" fill="#25272E"/>
<path d="M58.4279 205.126C59.7883 205.914 59.9383 207.103 58.761 207.78C57.5838 208.458 55.5237 208.374 54.1632 207.591C52.8027 206.808 52.6527 205.614 53.83 204.937C55.0072 204.26 57.0674 204.343 58.4279 205.126Z" fill="#4B4AA1"/>
<path d="M40.0024 203.311L41.8516 204.377L26.0034 213.528L24.1487 212.456L40.0024 203.311Z" fill="#E0E0E0"/>
<path d="M53.875 228.104L46.7394 232.225L38.5044 227.471L45.6344 223.351L53.875 228.104Z" fill="#413D68"/>
<path d="M47.6925 222.163L50.6911 220.43L52.668 221.569L49.6693 223.301L47.6925 222.163Z" fill="#E0E0E0"/>
<path d="M52.2835 219.508L59.4746 215.354L61.457 216.498L54.2604 220.652L52.2835 219.508Z" fill="#E0E0E0"/>
<path d="M67.8122 210.546L69.7891 211.684L63.0478 215.577L61.0709 214.439L67.8122 210.546Z" fill="#E0E0E0"/>
<path d="M51.4806 224.345L58.8216 220.108L60.793 221.252L53.4519 225.489L51.4806 224.345Z" fill="#E0E0E0"/>
<path d="M60.4113 219.192L66.7028 215.56L68.6797 216.698L62.3826 220.33L60.4113 219.192Z" fill="#E0E0E0"/>
<path d="M71.599 212.734L73.5703 213.872L70.2663 215.782L68.295 214.639L71.599 212.734Z" fill="#E0E0E0"/>
<path d="M55.2692 226.533L58.7731 224.506L60.75 225.644L57.2405 227.671L55.2692 226.533Z" fill="#E0E0E0"/>
<path d="M69.8005 218.142L71.7773 219.28L62.3428 224.728L60.366 223.59L69.8005 218.142Z" fill="#E0E0E0"/>
<path d="M75.3786 214.916L77.3555 216.06L73.3629 218.364L71.386 217.221L75.3786 214.916Z" fill="#E0E0E0"/>
<path d="M69.2656 225.1L61.025 229.859L59.0482 228.715L67.2888 223.956L69.2656 225.1Z" fill="#E0E0E0"/>
<path d="M106.895 231.325L74.4929 250.033L55.4684 239.049L87.8645 220.341L106.895 231.325Z" fill="white"/>
<path d="M76.1094 240.943L68.9738 245.063L60.7387 240.304L67.8688 236.189L76.1094 240.943Z" fill="#4B4AA1"/>
<path d="M69.9269 234.996L72.9255 233.269L74.9023 234.407L71.9037 236.139L69.9269 234.996Z" fill="#E0E0E0"/>
<path d="M74.5195 232.346L81.7162 228.193L83.6875 229.331L76.4964 233.49L74.5195 232.346Z" fill="#E0E0E0"/>
<path d="M90.0466 223.384L92.0234 224.523L85.2821 228.415L83.3053 227.271L90.0466 223.384Z" fill="#E0E0E0"/>
<path d="M73.715 237.183L81.0505 232.946L83.0273 234.085L75.6918 238.322L73.715 237.183Z" fill="#E0E0E0"/>
<path d="M82.6457 232.03L88.9372 228.393L90.9141 229.537L84.617 233.169L82.6457 232.03Z" fill="#E0E0E0"/>
<path d="M93.8334 225.566L95.8047 226.71L92.5007 228.615L90.5294 227.477L93.8334 225.566Z" fill="#E0E0E0"/>
<path d="M77.5036 239.366L81.0075 237.344L82.9844 238.483L79.4749 240.509L77.5036 239.366Z" fill="#E0E0E0"/>
<path d="M92.0349 230.975L94.0117 232.119L84.5772 237.566L82.6004 236.423L92.0349 230.975Z" fill="#E0E0E0"/>
<path d="M97.6169 227.754L99.5938 228.893L95.6012 231.203L93.6243 230.059L97.6169 227.754Z" fill="#E0E0E0"/>
<path d="M91.5 237.933L83.2594 242.692L81.2825 241.554L89.5231 236.795L91.5 237.933Z" fill="#E0E0E0"/>
<path d="M106.895 231.325L74.4929 250.033L68.368 246.496L100.764 227.788L106.895 231.325Z" fill="#EEEEEE"/>
<path d="M77.2344 246.318L75.1298 247.534L72.692 246.129L74.8022 244.908L77.2344 246.318Z" fill="#BDBDBD"/>
<path d="M85.6836 241.443L83.5735 242.659L81.1413 241.254L83.2459 240.038L85.6836 241.443Z" fill="#BDBDBD"/>
<path d="M94.1211 236.567L92.011 237.783L89.5788 236.378L91.6889 235.162L94.1211 236.567Z" fill="#BDBDBD"/>
<path d="M100.458 232.908L102.562 231.692L100.13 230.287L98.0202 231.503L100.458 232.908Z" fill="#BDBDBD"/>
<path d="M91.234 234.457L90.4677 234.901C90.3123 234.99 90.3289 235.14 90.5066 235.246L91.5283 235.845C91.6205 235.892 91.7222 235.916 91.8254 235.916C91.9286 235.916 92.0303 235.892 92.1225 235.845L92.8944 235.401C93.0443 235.312 93.0276 235.162 92.8499 235.057L91.8115 234.457C91.7216 234.413 91.6228 234.391 91.5228 234.391C91.4227 234.391 91.324 234.413 91.234 234.457V234.457Z" fill="#EF5451"/>
<path d="M86.4084 219.503L54.0123 238.205L55.4672 239.049L87.8633 220.341L86.4084 219.503Z" fill="#EEEEEE"/>
<path d="M64.1763 206.664L31.7802 225.366L33.2351 226.211L65.6367 207.503L64.1763 206.664Z" fill="#EEEEEE"/>
<path d="M54.3147 200.967L21.913 219.675L23.3735 220.513L55.7695 201.811L54.3147 200.967Z" fill="#EEEEEE"/>
<defs>
<linearGradient id="paint0_linear" x1="285.196" y1="329.646" x2="194.76" y2="211.84" gradientUnits="userSpaceOnUse">
<stop offset="0.11" stop-color="white" stop-opacity="0"/>
<stop offset="0.2" stop-color="#C1C1C1" stop-opacity="0.24"/>
<stop offset="1"/>
</linearGradient>
<linearGradient id="paint1_linear" x1="426.94" y1="347.815" x2="357.205" y2="248.995" gradientUnits="userSpaceOnUse">
<stop stop-color="white" stop-opacity="0"/>
<stop offset="0.81"/>
</linearGradient>
<linearGradient id="paint2_linear" x1="115.534" y1="276.398" x2="86.8197" y2="239.443" gradientUnits="userSpaceOnUse">
<stop offset="0.21" stop-color="white" stop-opacity="0"/>
<stop offset="0.29" stop-color="#C1C1C1" stop-opacity="0.24"/>
<stop offset="1"/>
</linearGradient>
</defs>
</svg>
